%TF.GenerationSoftware,KiCad,Pcbnew,9.0.0*%
%TF.CreationDate,2025-10-13T13:58:48+02:00*%
%TF.ProjectId,1x1antenna,31783161-6e74-4656-9e6e-612e6b696361,rev?*%
%TF.SameCoordinates,Original*%
%TF.FileFunction,Copper,L2,Bot*%
%TF.FilePolarity,Positive*%
%FSLAX46Y46*%
G04 Gerber Fmt 4.6, Leading zero omitted, Abs format (unit mm)*
G04 Created by KiCad (PCBNEW 9.0.0) date 2025-10-13 13:58:48*
%MOMM*%
%LPD*%
G01*
G04 APERTURE LIST*
%TA.AperFunction,NonConductor*%
%ADD10C,0.200000*%
%TD*%
%TA.AperFunction,ViaPad*%
%ADD11C,1.100000*%
%TD*%
G04 APERTURE END LIST*
D10*
X70000000Y-43500000D02*
X126500000Y-43500000D01*
X126500000Y-95800000D01*
X70000000Y-95800000D01*
X70000000Y-43500000D01*
X70000000Y-43500000D02*
X126500000Y-43500000D01*
X126500000Y-95800000D01*
X70000000Y-95800000D01*
X70000000Y-43500000D01*
D11*
%TO.N,*%
X98600000Y-94000000D03*
%TD*%
%TA.AperFunction,NonConductor*%
G36*
X125942539Y-44020185D02*
G01*
X125988294Y-44072989D01*
X125999500Y-44124500D01*
X125999500Y-95175500D01*
X125979815Y-95242539D01*
X125927011Y-95288294D01*
X125875500Y-95299500D01*
X70624500Y-95299500D01*
X70557461Y-95279815D01*
X70511706Y-95227011D01*
X70500500Y-95175500D01*
X70500500Y-94073920D01*
X97849499Y-94073920D01*
X97878340Y-94218907D01*
X97878343Y-94218917D01*
X97934912Y-94355488D01*
X97934919Y-94355501D01*
X98017048Y-94478415D01*
X98017051Y-94478419D01*
X98121580Y-94582948D01*
X98121584Y-94582951D01*
X98244498Y-94665080D01*
X98244511Y-94665087D01*
X98381082Y-94721656D01*
X98381087Y-94721658D01*
X98381091Y-94721658D01*
X98381092Y-94721659D01*
X98526079Y-94750500D01*
X98526082Y-94750500D01*
X98673920Y-94750500D01*
X98771462Y-94731096D01*
X98818913Y-94721658D01*
X98955495Y-94665084D01*
X99078416Y-94582951D01*
X99182951Y-94478416D01*
X99265084Y-94355495D01*
X99321658Y-94218913D01*
X99350500Y-94073918D01*
X99350500Y-93926082D01*
X99350500Y-93926079D01*
X99321659Y-93781092D01*
X99321658Y-93781091D01*
X99321658Y-93781087D01*
X99321656Y-93781082D01*
X99265087Y-93644511D01*
X99265080Y-93644498D01*
X99182951Y-93521584D01*
X99182948Y-93521580D01*
X99078419Y-93417051D01*
X99078415Y-93417048D01*
X98955501Y-93334919D01*
X98955488Y-93334912D01*
X98818917Y-93278343D01*
X98818907Y-93278340D01*
X98673920Y-93249500D01*
X98673918Y-93249500D01*
X98526082Y-93249500D01*
X98526080Y-93249500D01*
X98381092Y-93278340D01*
X98381082Y-93278343D01*
X98244511Y-93334912D01*
X98244498Y-93334919D01*
X98121584Y-93417048D01*
X98121580Y-93417051D01*
X98017051Y-93521580D01*
X98017048Y-93521584D01*
X97934919Y-93644498D01*
X97934912Y-93644511D01*
X97878343Y-93781082D01*
X97878340Y-93781092D01*
X97849500Y-93926079D01*
X97849500Y-93926082D01*
X97849500Y-94073918D01*
X97849500Y-94073920D01*
X97849499Y-94073920D01*
X70500500Y-94073920D01*
X70500500Y-44124500D01*
X70520185Y-44057461D01*
X70572989Y-44011706D01*
X70624500Y-44000500D01*
X125875500Y-44000500D01*
X125942539Y-44020185D01*
G37*
%TD.AperFunction*%
M02*
