%TF.GenerationSoftware,Altium Limited,Altium Designer,24.9.1 (31)*%
G04 Layer_Physical_Order=2*
G04 Layer_Color=16711680*
%FSLAX45Y45*%
%MOMM*%
%TF.SameCoordinates,77867E02-C98B-4605-8BC9-D91FF86E49A9*%
%TF.FilePolarity,Positive*%
%TF.FileFunction,Copper,L2,Bot,Signal*%
%TF.Part,Single*%
G01*
G75*
%TA.AperFunction,ViaPad*%
%ADD10C,1.50000*%
G36*
X20942300Y5092700D02*
X8940800D01*
Y11379200D01*
X20942300D01*
Y5092700D01*
D02*
G37*
%LPC*%
G36*
X14955219Y6209100D02*
X14928783D01*
X14903247Y6202258D01*
X14880353Y6189040D01*
X14861659Y6170347D01*
X14848442Y6147453D01*
X14841600Y6121918D01*
Y6095482D01*
X14848442Y6069947D01*
X14861659Y6047053D01*
X14880353Y6028360D01*
X14903247Y6015142D01*
X14928783Y6008300D01*
X14955219D01*
X14980753Y6015142D01*
X15003647Y6028360D01*
X15022340Y6047053D01*
X15035558Y6069947D01*
X15042400Y6095482D01*
Y6121918D01*
X15035558Y6147453D01*
X15022340Y6170347D01*
X15003647Y6189040D01*
X14980753Y6202258D01*
X14955219Y6209100D01*
D02*
G37*
%LPD*%
D10*
X14241701Y11626900D02*
D03*
X15641701D02*
D03*
Y4836900D02*
D03*
X14241701D02*
D03*
X14942000Y6108700D02*
D03*
%TF.MD5,ad6d375dc34a7c856de2444a2e1e4935*%
M02*
