%TF.GenerationSoftware,Altium Limited,Altium Designer,24.9.1 (31)*%
G04 Layer_Color=0*
%FSLAX45Y45*%
%MOMM*%
%TF.SameCoordinates,77867E02-C98B-4605-8BC9-D91FF86E49A9*%
%TF.FilePolarity,Positive*%
%TF.FileFunction,Profile,NP*%
%TF.Part,Single*%
G01*
G75*
%TA.AperFunction,Profile*%
%ADD12C,0.02540*%
D12*
X14041666Y4806935D02*
G03*
X14161665Y4686935I120000J0D01*
G01*
X14321664D01*
D02*
G03*
X14441666Y4806935I0J120000D01*
G01*
Y4966935D01*
D02*
G02*
X14561665Y5086935I120000J0D01*
G01*
X15321664D01*
D02*
G02*
X15441666Y4966935I0J-120000D01*
G01*
Y4806935D01*
D02*
G03*
X15561665Y4686935I120000J0D01*
G01*
X15721664D01*
D02*
G03*
X15841666Y4806935I0J120000D01*
G01*
Y4966935D01*
D02*
G02*
X15961665Y5086935I120000J0D01*
G01*
X20941666D01*
Y11376935D01*
X15961665D01*
D02*
G02*
X15841666Y11496935I0J120000D01*
G01*
Y11656935D01*
D02*
G03*
X15721664Y11776935I-120000J0D01*
G01*
X15561665D01*
D02*
G03*
X15441666Y11656935I0J-120000D01*
G01*
Y11496935D01*
D02*
G02*
X15321664Y11376935I-120000J0D01*
G01*
X14561665D01*
D02*
G02*
X14441666Y11496935I0J120000D01*
G01*
Y11656935D01*
D02*
G03*
X14321664Y11776935I-120000J0D01*
G01*
X14161665D01*
D02*
G03*
X14041666Y11656935I0J-120000D01*
G01*
Y11496935D01*
D02*
G02*
X13921664Y11376935I-120000J0D01*
G01*
X8941665D01*
Y5086935D01*
X13921664D01*
D02*
G02*
X14041666Y4966935I0J-120000D01*
G01*
Y4806935D01*
%TF.MD5,07825a5b1da9347e9aa1e9111d144134*%
M02*
