%TF.GenerationSoftware,Altium Limited,Altium Designer,24.9.1 (31)*%
G04 Layer_Color=0*
%FSLAX45Y45*%
%MOMM*%
%TF.SameCoordinates,ACB98261-C50F-458D-AFA4-16EFDEDAE645*%
%TF.FilePolarity,Positive*%
%TF.FileFunction,Profile,NP*%
%TF.Part,Single*%
G01*
G75*
%TA.AperFunction,Profile*%
%ADD14C,0.02540*%
D14*
X10345965Y3460735D02*
G03*
X10465965Y3340735I120000J0D01*
G01*
X10625965D01*
D02*
G03*
X10745965Y3460735I0J120000D01*
G01*
Y3620735D01*
D02*
G02*
X10865965Y3740735I120000J0D01*
G01*
X11625965D01*
D02*
G02*
X11745965Y3620735I0J-120000D01*
G01*
Y3460735D01*
D02*
G03*
X11865965Y3340735I120000J0D01*
G01*
X12025965D01*
D02*
G03*
X12145965Y3460735I0J120000D01*
G01*
Y3620735D01*
D02*
G02*
X12265965Y3740735I120000J0D01*
G01*
X17245966D01*
Y9830735D01*
X12265965D01*
D02*
G02*
X12145965Y9950735I0J120000D01*
G01*
Y10110735D01*
D02*
G03*
X12025965Y10230735I-120000J0D01*
G01*
X11865965D01*
D02*
G03*
X11745965Y10110735I0J-120000D01*
G01*
Y9950735D01*
D02*
G02*
X11625965Y9830735I-120000J0D01*
G01*
X10865965D01*
D02*
G02*
X10745965Y9950735I0J120000D01*
G01*
Y10110735D01*
D02*
G03*
X10625965Y10230735I-120000J0D01*
G01*
X10465965D01*
D02*
G03*
X10345965Y10110735I0J-120000D01*
G01*
Y9950735D01*
D02*
G02*
X10225965Y9830735I-120000J0D01*
G01*
X5245965D01*
Y3740735D01*
X10225965D01*
D02*
G02*
X10345965Y3620735I0J-120000D01*
G01*
Y3460735D01*
%TF.MD5,47f94db7df79486db139ff3f33ae61fc*%
M02*
