%TF.GenerationSoftware,KiCad,Pcbnew,9.0.0*%
%TF.CreationDate,2025-10-14T16:23:07+02:00*%
%TF.ProjectId,1x1antenna,31783161-6e74-4656-9e6e-612e6b696361,rev?*%
%TF.SameCoordinates,Original*%
%TF.FileFunction,Copper,L1,Top*%
%TF.FilePolarity,Positive*%
%FSLAX46Y46*%
G04 Gerber Fmt 4.6, Leading zero omitted, Abs format (unit mm)*
G04 Created by KiCad (PCBNEW 9.0.0) date 2025-10-14 16:23:07*
%MOMM*%
%LPD*%
G01*
G04 APERTURE LIST*
%TA.AperFunction,NonConductor*%
%ADD10C,0.200000*%
%TD*%
%TA.AperFunction,ViaPad*%
%ADD11C,1.400000*%
%TD*%
G04 APERTURE END LIST*
D10*
X119300000Y-87100000D02*
X103900000Y-87100000D01*
X103900000Y-77300000D01*
X102900000Y-77300000D01*
X102900000Y-95800000D01*
X100900000Y-95800000D01*
X100900000Y-77300000D01*
X99900000Y-77300000D01*
X99900000Y-87100000D01*
X84500000Y-87100000D01*
X84500000Y-58500000D01*
X119300000Y-58500000D01*
X119300000Y-87100000D01*
%TA.AperFunction,NonConductor*%
G36*
X119300000Y-87100000D02*
G01*
X103900000Y-87100000D01*
X103900000Y-77300000D01*
X102900000Y-77300000D01*
X102900000Y-95800000D01*
X100900000Y-95800000D01*
X100900000Y-77300000D01*
X99900000Y-77300000D01*
X99900000Y-87100000D01*
X84500000Y-87100000D01*
X84500000Y-58500000D01*
X119300000Y-58500000D01*
X119300000Y-87100000D01*
G37*
%TD.AperFunction*%
X103900000Y-77300000D02*
X103900000Y-87100000D01*
X103400000Y-77300000D02*
X103900000Y-77300000D01*
X102900000Y-77300000D02*
X103900000Y-77300000D01*
X100900000Y-95800000D02*
X102900000Y-95800000D01*
X100900000Y-77300000D02*
X100900000Y-95800000D01*
X99900000Y-77300000D02*
X100900000Y-77300000D01*
X99900000Y-87100000D02*
X99900000Y-77300000D01*
X84500000Y-87100000D02*
X99900000Y-87100000D01*
X119300000Y-87100000D02*
X103900000Y-87100000D01*
X119300000Y-58500000D02*
X119300000Y-87100000D01*
X84500000Y-58500000D02*
X84500000Y-87100000D01*
X84500000Y-58500000D02*
X119300000Y-58500000D01*
X102900000Y-95800000D02*
X102900000Y-77300000D01*
D11*
%TO.N,*%
X101900000Y-94000000D03*
%TD*%
M02*
