%TF.GenerationSoftware,KiCad,Pcbnew,9.0.0*%
%TF.CreationDate,2025-10-16T12:24:20+02:00*%
%TF.ProjectId,1x1antenna4.3,31783161-6e74-4656-9e6e-61342e332e6b,rev?*%
%TF.SameCoordinates,Original*%
%TF.FileFunction,Copper,L1,Top*%
%TF.FilePolarity,Positive*%
%FSLAX46Y46*%
G04 Gerber Fmt 4.6, Leading zero omitted, Abs format (unit mm)*
G04 Created by KiCad (PCBNEW 9.0.0) date 2025-10-16 12:24:20*
%MOMM*%
%LPD*%
G01*
G04 APERTURE LIST*
%TA.AperFunction,NonConductor*%
%ADD10C,0.200000*%
%TD*%
%TA.AperFunction,ViaPad*%
%ADD11C,1.600000*%
%TD*%
G04 APERTURE END LIST*
D10*
X119400000Y-87300000D02*
X103900000Y-87300000D01*
X103900000Y-77300000D01*
X102900000Y-77300000D01*
X102900000Y-95800000D01*
X100900000Y-95800000D01*
X100900000Y-77300000D01*
X99900000Y-77300000D01*
X99900000Y-87300000D01*
X84400000Y-87300000D01*
X84400000Y-57900000D01*
X119400000Y-57900000D01*
X119400000Y-87300000D01*
%TA.AperFunction,NonConductor*%
G36*
X119400000Y-87300000D02*
G01*
X103900000Y-87300000D01*
X103900000Y-77300000D01*
X102900000Y-77300000D01*
X102900000Y-95800000D01*
X100900000Y-95800000D01*
X100900000Y-77300000D01*
X99900000Y-77300000D01*
X99900000Y-87300000D01*
X84400000Y-87300000D01*
X84400000Y-57900000D01*
X119400000Y-57900000D01*
X119400000Y-87300000D01*
G37*
%TD.AperFunction*%
X103900000Y-87300000D02*
X119400000Y-87300000D01*
X99900000Y-87300000D02*
X99900000Y-77300000D01*
X84400000Y-87300000D02*
X99900000Y-87300000D01*
X84400000Y-57900000D02*
X84400000Y-87300000D01*
X119400000Y-57900000D02*
X84400000Y-57900000D01*
X119400000Y-87300000D02*
X119400000Y-57900000D01*
X100900000Y-77300000D02*
X100900000Y-95800000D01*
X99900000Y-77300000D02*
X100900000Y-77300000D01*
X102900000Y-95800000D02*
X102900000Y-77300000D01*
X102900000Y-77300000D02*
X103900000Y-77300000D01*
X100900000Y-95800000D02*
X102900000Y-95800000D01*
X103900000Y-77300000D02*
X103900000Y-87300000D01*
X103400000Y-77300000D02*
X103900000Y-77300000D01*
D11*
%TO.N,*%
X101900000Y-91000000D03*
%TD*%
M02*
