  0
SECTION
  2
HEADER
  9
$ACADVER
  1
AC1009
  0
ENDSEC
  0
SECTION
  2
ENTITIES
  0
POLYLINE
  8
FR-4 (LOSSY)
 66
1
 39
0
 10
0.000000
 20
0.000000
 30
0.000000
 70
1
  0
VERTEX
  8
FR-4 (LOSSY)
 39
0
 10
-30.000000
 20
-27.950000
 30
0.000000
 70
0
 42
0
  0
VERTEX
  8
FR-4 (LOSSY)
 39
0
 10
90.000000
 20
-27.950000
 30
0.000000
 70
0
 42
0
  0
VERTEX
  8
FR-4 (LOSSY)
 39
0
 10
90.000000
 20
-27.950000
 30
0.000000
 70
0
 42
0
  0
VERTEX
  8
FR-4 (LOSSY)
 39
0
 10
90.000000
 20
26.950000
 30
0.000000
 70
0
 42
0
  0
VERTEX
  8
FR-4 (LOSSY)
 39
0
 10
90.000000
 20
26.950000
 30
0.000000
 70
0
 42
0
  0
VERTEX
  8
FR-4 (LOSSY)
 39
0
 10
-30.000000
 20
26.950000
 30
0.000000
 70
0
 42
0
  0
VERTEX
  8
FR-4 (LOSSY)
 39
0
 10
-30.000000
 20
26.950000
 30
0.000000
 70
0
 42
0
  0
VERTEX
  8
FR-4 (LOSSY)
 39
0
 10
-30.000000
 20
-27.950000
 30
0.000000
 70
0
 42
0
  0
SEQEND
  8
FR-4 (LOSSY)
  0
POLYLINE
  8
COPPER (ANNEALED)
 66
1
 39
0
 10
0.000000
 20
0.000000
 30
0.000000
 70
1
  0
VERTEX
  8
COPPER (ANNEALED)
 39
0
 10
-2.000000
 20
-14.500000
 30
0.000000
 70
0
 42
0
  0
VERTEX
  8
COPPER (ANNEALED)
 39
0
 10
-2.000000
 20
-11.100000
 30
0.000000
 70
0
 42
0
  0
VERTEX
  8
COPPER (ANNEALED)
 39
0
 10
-2.000000
 20
-11.100000
 30
0.000000
 70
0
 42
0
  0
VERTEX
  8
COPPER (ANNEALED)
 39
0
 10
-1.000000
 20
-11.100000
 30
0.000000
 70
0
 42
0
  0
VERTEX
  8
COPPER (ANNEALED)
 39
0
 10
-1.000000
 20
-11.100000
 30
0.000000
 70
0
 42
0
  0
VERTEX
  8
COPPER (ANNEALED)
 39
0
 10
-1.000000
 20
-24.500000
 30
0.000000
 70
0
 42
0
  0
VERTEX
  8
COPPER (ANNEALED)
 39
0
 10
-1.000000
 20
-24.500000
 30
0.000000
 70
0
 42
0
  0
VERTEX
  8
COPPER (ANNEALED)
 39
0
 10
29.000000
 20
-24.500000
 30
0.000000
 70
0
 42
0
  0
VERTEX
  8
COPPER (ANNEALED)
 39
0
 10
29.000000
 20
-24.500000
 30
0.000000
 70
0
 42
0
  0
VERTEX
  8
COPPER (ANNEALED)
 39
0
 10
29.000000
 20
-27.100000
 30
0.000000
 70
0
 42
0
  0
VERTEX
  8
COPPER (ANNEALED)
 39
0
 10
29.000000
 20
-27.100000
 30
0.000000
 70
0
 42
0
  0
VERTEX
  8
COPPER (ANNEALED)
 39
0
 10
31.000000
 20
-27.100000
 30
0.000000
 70
0
 42
0
  0
VERTEX
  8
COPPER (ANNEALED)
 39
0
 10
31.000000
 20
-27.100000
 30
0.000000
 70
0
 42
0
  0
VERTEX
  8
COPPER (ANNEALED)
 39
0
 10
31.000000
 20
-24.500000
 30
0.000000
 70
0
 42
0
  0
VERTEX
  8
COPPER (ANNEALED)
 39
0
 10
31.000000
 20
-24.500000
 30
0.000000
 70
0
 42
0
  0
VERTEX
  8
COPPER (ANNEALED)
 39
0
 10
61.000000
 20
-24.500000
 30
0.000000
 70
0
 42
0
  0
VERTEX
  8
COPPER (ANNEALED)
 39
0
 10
61.000000
 20
-24.500000
 30
0.000000
 70
0
 42
0
  0
VERTEX
  8
COPPER (ANNEALED)
 39
0
 10
61.000000
 20
-11.100000
 30
0.000000
 70
0
 42
0
  0
VERTEX
  8
COPPER (ANNEALED)
 39
0
 10
61.000000
 20
-11.100000
 30
0.000000
 70
0
 42
0
  0
VERTEX
  8
COPPER (ANNEALED)
 39
0
 10
62.000000
 20
-11.100000
 30
0.000000
 70
0
 42
0
  0
VERTEX
  8
COPPER (ANNEALED)
 39
0
 10
62.000000
 20
-11.100000
 30
0.000000
 70
0
 42
0
  0
VERTEX
  8
COPPER (ANNEALED)
 39
0
 10
62.000000
 20
-14.500000
 30
0.000000
 70
0
 42
0
  0
VERTEX
  8
COPPER (ANNEALED)
 39
0
 10
62.000000
 20
-14.500000
 30
0.000000
 70
0
 42
0
  0
VERTEX
  8
COPPER (ANNEALED)
 39
0
 10
79.900000
 20
-14.500000
 30
0.000000
 70
0
 42
0
  0
VERTEX
  8
COPPER (ANNEALED)
 39
0
 10
79.900000
 20
-14.500000
 30
0.000000
 70
0
 42
0
  0
VERTEX
  8
COPPER (ANNEALED)
 39
0
 10
79.900000
 20
14.500000
 30
0.000000
 70
0
 42
0
  0
VERTEX
  8
COPPER (ANNEALED)
 39
0
 10
79.900000
 20
14.500000
 30
0.000000
 70
0
 42
0
  0
VERTEX
  8
COPPER (ANNEALED)
 39
0
 10
40.100000
 20
14.500000
 30
0.000000
 70
0
 42
0
  0
VERTEX
  8
COPPER (ANNEALED)
 39
0
 10
40.100000
 20
14.500000
 30
0.000000
 70
0
 42
0
  0
VERTEX
  8
COPPER (ANNEALED)
 39
0
 10
40.100000
 20
-14.500000
 30
0.000000
 70
0
 42
0
  0
VERTEX
  8
COPPER (ANNEALED)
 39
0
 10
40.100000
 20
-14.500000
 30
0.000000
 70
0
 42
0
  0
VERTEX
  8
COPPER (ANNEALED)
 39
0
 10
58.000000
 20
-14.500000
 30
0.000000
 70
0
 42
0
  0
VERTEX
  8
COPPER (ANNEALED)
 39
0
 10
58.000000
 20
-14.500000
 30
0.000000
 70
0
 42
0
  0
VERTEX
  8
COPPER (ANNEALED)
 39
0
 10
58.000000
 20
-11.100000
 30
0.000000
 70
0
 42
0
  0
VERTEX
  8
COPPER (ANNEALED)
 39
0
 10
58.000000
 20
-11.100000
 30
0.000000
 70
0
 42
0
  0
VERTEX
  8
COPPER (ANNEALED)
 39
0
 10
59.000000
 20
-11.100000
 30
0.000000
 70
0
 42
0
  0
VERTEX
  8
COPPER (ANNEALED)
 39
0
 10
59.000000
 20
-11.100000
 30
0.000000
 70
0
 42
0
  0
VERTEX
  8
COPPER (ANNEALED)
 39
0
 10
59.000000
 20
-22.500000
 30
0.000000
 70
0
 42
0
  0
VERTEX
  8
COPPER (ANNEALED)
 39
0
 10
59.000000
 20
-22.500000
 30
0.000000
 70
0
 42
0
  0
VERTEX
  8
COPPER (ANNEALED)
 39
0
 10
1.000000
 20
-22.500000
 30
0.000000
 70
0
 42
0
  0
VERTEX
  8
COPPER (ANNEALED)
 39
0
 10
1.000000
 20
-22.500000
 30
0.000000
 70
0
 42
0
  0
VERTEX
  8
COPPER (ANNEALED)
 39
0
 10
1.000000
 20
-11.100000
 30
0.000000
 70
0
 42
0
  0
VERTEX
  8
COPPER (ANNEALED)
 39
0
 10
1.000000
 20
-11.100000
 30
0.000000
 70
0
 42
0
  0
VERTEX
  8
COPPER (ANNEALED)
 39
0
 10
2.000000
 20
-11.100000
 30
0.000000
 70
0
 42
0
  0
VERTEX
  8
COPPER (ANNEALED)
 39
0
 10
2.000000
 20
-11.100000
 30
0.000000
 70
0
 42
0
  0
VERTEX
  8
COPPER (ANNEALED)
 39
0
 10
2.000000
 20
-14.500000
 30
0.000000
 70
0
 42
0
  0
VERTEX
  8
COPPER (ANNEALED)
 39
0
 10
2.000000
 20
-14.500000
 30
0.000000
 70
0
 42
0
  0
VERTEX
  8
COPPER (ANNEALED)
 39
0
 10
19.900000
 20
-14.500000
 30
0.000000
 70
0
 42
0
  0
VERTEX
  8
COPPER (ANNEALED)
 39
0
 10
19.900000
 20
-14.500000
 30
0.000000
 70
0
 42
0
  0
VERTEX
  8
COPPER (ANNEALED)
 39
0
 10
19.900000
 20
14.500000
 30
0.000000
 70
0
 42
0
  0
VERTEX
  8
COPPER (ANNEALED)
 39
0
 10
19.900000
 20
14.500000
 30
0.000000
 70
0
 42
0
  0
VERTEX
  8
COPPER (ANNEALED)
 39
0
 10
-19.900000
 20
14.500000
 30
0.000000
 70
0
 42
0
  0
VERTEX
  8
COPPER (ANNEALED)
 39
0
 10
-19.900000
 20
14.500000
 30
0.000000
 70
0
 42
0
  0
VERTEX
  8
COPPER (ANNEALED)
 39
0
 10
-19.900000
 20
-14.500000
 30
0.000000
 70
0
 42
0
  0
VERTEX
  8
COPPER (ANNEALED)
 39
0
 10
-19.900000
 20
-14.500000
 30
0.000000
 70
0
 42
0
  0
VERTEX
  8
COPPER (ANNEALED)
 39
0
 10
-2.000000
 20
-14.500000
 30
0.000000
 70
0
 42
0
  0
SEQEND
  8
COPPER (ANNEALED)
  0
POLYLINE
  8
FR-4 (LOSSY)
 66
1
 39
0
 10
0.000000
 20
0.000000
 30
0.000000
 70
1
  0
VERTEX
  8
FR-4 (LOSSY)
 39
0
 10
-30.000000
 20
-27.950000
 30
0.000000
 70
0
 42
0
  0
VERTEX
  8
FR-4 (LOSSY)
 39
0
 10
-30.000000
 20
-35.950000
 30
0.000000
 70
0
 42
0
  0
VERTEX
  8
FR-4 (LOSSY)
 39
0
 10
-30.000000
 20
-35.950000
 30
0.000000
 70
0
 42
0
  0
VERTEX
  8
FR-4 (LOSSY)
 39
0
 10
90.000000
 20
-35.950000
 30
0.000000
 70
0
 42
0
  0
VERTEX
  8
FR-4 (LOSSY)
 39
0
 10
90.000000
 20
-35.950000
 30
0.000000
 70
0
 42
0
  0
VERTEX
  8
FR-4 (LOSSY)
 39
0
 10
90.000000
 20
-27.950000
 30
0.000000
 70
0
 42
0
  0
VERTEX
  8
FR-4 (LOSSY)
 39
0
 10
90.000000
 20
-27.950000
 30
0.000000
 70
0
 42
0
  0
VERTEX
  8
FR-4 (LOSSY)
 39
0
 10
-30.000000
 20
-27.950000
 30
0.000000
 70
0
 42
0
  0
SEQEND
  8
FR-4 (LOSSY)
  0
ENDSEC
  0
EOF
