%TF.GenerationSoftware,Altium Limited,Altium Designer,25.8.1 (18)*%
G04 Layer_Color=8421504*
%FSLAX45Y45*%
%MOMM*%
%TF.SameCoordinates,1B6F2BE7-5339-4887-9720-52C865558AB3*%
%TF.FilePolarity,Positive*%
%TF.FileFunction,Paste,Top*%
%TF.Part,Single*%
G01*
G75*
%TA.AperFunction,NonConductor*%
%ADD34C,0.25400*%
D34*
X10922000Y13182552D02*
X11023567D01*
X10972783D01*
Y13030200D01*
X11074351D02*
X11125134D01*
X11099743D01*
Y13131767D01*
X11074351D01*
X11201310Y13030200D02*
X11252093D01*
X11226701D01*
Y13182552D01*
X11201310D01*
X11353660Y13157159D02*
Y13131767D01*
X11328268D01*
X11379052D01*
X11353660D01*
Y13055592D01*
X11379052Y13030200D01*
X11683753Y13182552D02*
X11632970D01*
X11607578Y13157159D01*
Y13055592D01*
X11632970Y13030200D01*
X11683753D01*
X11709145Y13055592D01*
Y13157159D01*
X11683753Y13182552D01*
X11759929Y13131767D02*
Y13055592D01*
X11785321Y13030200D01*
X11861496D01*
Y13131767D01*
X11937671Y13157159D02*
Y13131767D01*
X11912279D01*
X11963063D01*
X11937671D01*
Y13055592D01*
X11963063Y13030200D01*
X6946867Y11569651D02*
X6845300D01*
Y11417300D01*
X6946867D01*
X6845300Y11493475D02*
X6896083D01*
X6997651Y11417300D02*
Y11518867D01*
X7073826D01*
X7099218Y11493475D01*
Y11417300D01*
X7251569Y11518867D02*
X7175393D01*
X7150001Y11493475D01*
Y11442692D01*
X7175393Y11417300D01*
X7251569D01*
X7327744D02*
X7378528D01*
X7403919Y11442692D01*
Y11493475D01*
X7378528Y11518867D01*
X7327744D01*
X7302352Y11493475D01*
Y11442692D01*
X7327744Y11417300D01*
X7556270Y11569651D02*
Y11417300D01*
X7480095D01*
X7454703Y11442692D01*
Y11493475D01*
X7480095Y11518867D01*
X7556270D01*
X7683229Y11417300D02*
X7632445D01*
X7607054Y11442692D01*
Y11493475D01*
X7632445Y11518867D01*
X7683229D01*
X7708621Y11493475D01*
Y11468083D01*
X7607054D01*
X7759404Y11518867D02*
Y11417300D01*
Y11468083D01*
X7784796Y11493475D01*
X7810188Y11518867D01*
X7835580D01*
X7911755Y11417300D02*
X7987930D01*
X8013322Y11442692D01*
X7987930Y11468083D01*
X7937147D01*
X7911755Y11493475D01*
X7937147Y11518867D01*
X8013322D01*
X6908800Y11785600D02*
Y11887167D01*
X6959583Y11937951D01*
X7010367Y11887167D01*
Y11785600D01*
Y11861775D01*
X6908800D01*
X7061151Y11887167D02*
X7162718D01*
X7061151Y11785600D01*
X7162718D01*
X7213501D02*
X7264285D01*
X7238893D01*
Y11887167D01*
X7213501D01*
X7340460Y11785600D02*
Y11887167D01*
X7365852D01*
X7391244Y11861775D01*
Y11785600D01*
Y11861775D01*
X7416636Y11887167D01*
X7442028Y11861775D01*
Y11785600D01*
X7492811Y11887167D02*
Y11810992D01*
X7518203Y11785600D01*
X7594378D01*
Y11887167D01*
X7670554Y11912559D02*
Y11887167D01*
X7645162D01*
X7695945D01*
X7670554D01*
Y11810992D01*
X7695945Y11785600D01*
X7949863D02*
X8000647D01*
X8026039Y11810992D01*
Y11861775D01*
X8000647Y11887167D01*
X7949863D01*
X7924471Y11861775D01*
Y11810992D01*
X7949863Y11785600D01*
X8076822Y11887167D02*
Y11810992D01*
X8102214Y11785600D01*
X8178389D01*
Y11887167D01*
X8254565Y11912559D02*
Y11887167D01*
X8229173D01*
X8279956D01*
X8254565D01*
Y11810992D01*
X8279956Y11785600D01*
X8280400Y10439334D02*
Y10312375D01*
X8305792Y10286983D01*
X8356575D01*
X8381967Y10312375D01*
Y10439334D01*
X8534318Y10413942D02*
X8508926Y10439334D01*
X8458143D01*
X8432751Y10413942D01*
Y10388551D01*
X8458143Y10363159D01*
X8508926D01*
X8534318Y10337767D01*
Y10312375D01*
X8508926Y10286983D01*
X8458143D01*
X8432751Y10312375D01*
X8585101Y10439334D02*
Y10286983D01*
X8661277D01*
X8686669Y10312375D01*
Y10337767D01*
X8661277Y10363159D01*
X8585101D01*
X8661277D01*
X8686669Y10388551D01*
Y10413942D01*
X8661277Y10439334D01*
X8585101D01*
X8889803Y10236200D02*
Y10388551D01*
X8965978D01*
X8991370Y10363159D01*
Y10312375D01*
X8965978Y10286983D01*
X8889803D01*
X9067545D02*
X9118329D01*
X9143721Y10312375D01*
Y10363159D01*
X9118329Y10388551D01*
X9067545D01*
X9042154Y10363159D01*
Y10312375D01*
X9067545Y10286983D01*
X9194504Y10388551D02*
Y10286983D01*
Y10337767D01*
X9219896Y10363159D01*
X9245288Y10388551D01*
X9270680D01*
X9372247Y10413942D02*
Y10388551D01*
X9346855D01*
X9397639D01*
X9372247D01*
Y10312375D01*
X9397639Y10286983D01*
X9626165Y10439334D02*
Y10286983D01*
Y10363159D01*
X9651557Y10388551D01*
X9702340D01*
X9727732Y10363159D01*
Y10286983D01*
X9854691D02*
X9803907D01*
X9778515Y10312375D01*
Y10363159D01*
X9803907Y10388551D01*
X9854691D01*
X9880083Y10363159D01*
Y10337767D01*
X9778515D01*
X9930866Y10388551D02*
Y10286983D01*
Y10337767D01*
X9956258Y10363159D01*
X9981650Y10388551D01*
X10007041D01*
X10159392Y10286983D02*
X10108609D01*
X10083217Y10312375D01*
Y10363159D01*
X10108609Y10388551D01*
X10159392D01*
X10184784Y10363159D01*
Y10337767D01*
X10083217D01*
X11188667Y2171634D02*
X11087100D01*
Y2095459D01*
X11137883D01*
X11087100D01*
Y2019283D01*
X11264843D02*
X11315626D01*
X11341018Y2044675D01*
Y2095459D01*
X11315626Y2120851D01*
X11264843D01*
X11239451Y2095459D01*
Y2044675D01*
X11264843Y2019283D01*
X11391801Y2120851D02*
Y2019283D01*
Y2070067D01*
X11417193Y2095459D01*
X11442585Y2120851D01*
X11467977D01*
X11544152Y2019283D02*
X11620328D01*
X11645719Y2044675D01*
X11620328Y2070067D01*
X11569544D01*
X11544152Y2095459D01*
X11569544Y2120851D01*
X11645719D01*
X11696503Y1968500D02*
Y2120851D01*
X11772678D01*
X11798070Y2095459D01*
Y2044675D01*
X11772678Y2019283D01*
X11696503D01*
X11874245Y2120851D02*
X11925029D01*
X11950421Y2095459D01*
Y2019283D01*
X11874245D01*
X11848854Y2044675D01*
X11874245Y2070067D01*
X11950421D01*
X12077380Y2019283D02*
X12026596D01*
X12001204Y2044675D01*
Y2095459D01*
X12026596Y2120851D01*
X12077380D01*
X12102772Y2095459D01*
Y2070067D01*
X12001204D01*
X12153555Y2019283D02*
Y2120851D01*
X12229730D01*
X12255122Y2095459D01*
Y2019283D01*
X12407473Y2171634D02*
Y2019283D01*
X12331298D01*
X12305906Y2044675D01*
Y2095459D01*
X12331298Y2120851D01*
X12407473D01*
X12483648Y2146242D02*
Y2120851D01*
X12458257D01*
X12509040D01*
X12483648D01*
Y2044675D01*
X12509040Y2019283D01*
X12839133D02*
X12813741Y2044675D01*
X12788350Y2019283D01*
X12762958D01*
X12737566Y2044675D01*
Y2070067D01*
X12762958Y2095459D01*
X12737566Y2120851D01*
Y2146242D01*
X12762958Y2171634D01*
X12788350D01*
X12813741Y2146242D01*
Y2120851D01*
X12788350Y2095459D01*
X12813741Y2070067D01*
Y2044675D01*
X12839133Y2095459D02*
X12813741Y2070067D01*
X12762958Y2095459D02*
X12788350D01*
X13042268Y2019283D02*
Y2120851D01*
X13093051Y2171634D01*
X13143835Y2120851D01*
Y2019283D01*
Y2095459D01*
X13042268D01*
X13194618Y2019283D02*
Y2120851D01*
X13270795D01*
X13296185Y2095459D01*
Y2019283D01*
X13372362Y2146242D02*
Y2120851D01*
X13346970D01*
X13397752D01*
X13372362D01*
Y2044675D01*
X13397752Y2019283D01*
X13499319Y2120851D02*
X13550104D01*
X13575494Y2095459D01*
Y2019283D01*
X13499319D01*
X13473927Y2044675D01*
X13499319Y2070067D01*
X13575494D01*
X13702454Y2019283D02*
X13651669D01*
X13626279Y2044675D01*
Y2095459D01*
X13651669Y2120851D01*
X13702454D01*
X13727846Y2095459D01*
Y2070067D01*
X13626279D01*
X13778629Y2019283D02*
Y2120851D01*
X13854805D01*
X13880197Y2095459D01*
Y2019283D01*
X14032547Y2171634D02*
Y2019283D01*
X13956372D01*
X13930980Y2044675D01*
Y2095459D01*
X13956372Y2120851D01*
X14032547D01*
X14108723Y2146242D02*
Y2120851D01*
X14083331D01*
X14134114D01*
X14108723D01*
Y2044675D01*
X14134114Y2019283D01*
X11099800Y2247900D02*
Y2400251D01*
X11150583Y2349467D01*
X11201367Y2400251D01*
Y2247900D01*
X11277543D02*
X11328326D01*
X11353718Y2273292D01*
Y2324075D01*
X11328326Y2349467D01*
X11277543D01*
X11252151Y2324075D01*
Y2273292D01*
X11277543Y2247900D01*
X11429893Y2374859D02*
Y2349467D01*
X11404501D01*
X11455285D01*
X11429893D01*
Y2273292D01*
X11455285Y2247900D01*
X11556852D02*
X11607636D01*
X11633028Y2273292D01*
Y2324075D01*
X11607636Y2349467D01*
X11556852D01*
X11531460Y2324075D01*
Y2273292D01*
X11556852Y2247900D01*
X11683811Y2349467D02*
Y2247900D01*
Y2298683D01*
X11709203Y2324075D01*
X11734595Y2349467D01*
X11759986D01*
X12090080Y2374859D02*
X12064688Y2400251D01*
X12013904D01*
X11988512Y2374859D01*
Y2273292D01*
X12013904Y2247900D01*
X12064688D01*
X12090080Y2273292D01*
X12166255Y2247900D02*
X12217039D01*
X12242430Y2273292D01*
Y2324075D01*
X12217039Y2349467D01*
X12166255D01*
X12140863Y2324075D01*
Y2273292D01*
X12166255Y2247900D01*
X12293214D02*
Y2349467D01*
X12369389D01*
X12394781Y2324075D01*
Y2247900D01*
X12470957Y2374859D02*
Y2349467D01*
X12445565D01*
X12496348D01*
X12470957D01*
Y2273292D01*
X12496348Y2247900D01*
X12572523Y2349467D02*
Y2247900D01*
Y2298683D01*
X12597915Y2324075D01*
X12623307Y2349467D01*
X12648699D01*
X12750266Y2247900D02*
X12801050D01*
X12826440Y2273292D01*
Y2324075D01*
X12801050Y2349467D01*
X12750266D01*
X12724874Y2324075D01*
Y2273292D01*
X12750266Y2247900D01*
X12877225D02*
X12928008D01*
X12902617D01*
Y2400251D01*
X12877225D01*
X13156535Y2247900D02*
X13207318D01*
X13181926D01*
Y2400251D01*
X13156535Y2374859D01*
X13283493Y2247900D02*
Y2273292D01*
X13308885D01*
Y2247900D01*
X13283493D01*
X13410452D02*
X13461237D01*
X13435844D01*
Y2400251D01*
X13410452Y2374859D01*
X11087100Y2666951D02*
X11188667D01*
X11137883D01*
Y2514600D01*
X11239451Y2666951D02*
Y2514600D01*
Y2590775D01*
X11341018D01*
Y2666951D01*
Y2514600D01*
X11391801Y2666951D02*
X11442585D01*
X11417193D01*
Y2514600D01*
X11391801D01*
X11442585D01*
X11620328Y2641559D02*
X11594936Y2666951D01*
X11544152D01*
X11518760Y2641559D01*
Y2616167D01*
X11544152Y2590775D01*
X11594936D01*
X11620328Y2565383D01*
Y2539992D01*
X11594936Y2514600D01*
X11544152D01*
X11518760Y2539992D01*
X11925029Y2641559D02*
X11899637Y2666951D01*
X11848854D01*
X11823462Y2641559D01*
Y2616167D01*
X11848854Y2590775D01*
X11899637D01*
X11925029Y2565383D01*
Y2539992D01*
X11899637Y2514600D01*
X11848854D01*
X11823462Y2539992D01*
X11975812Y2666951D02*
X12026596D01*
X12001204D01*
Y2514600D01*
X11975812D01*
X12026596D01*
X12102771Y2666951D02*
Y2514600D01*
X12178947D01*
X12204339Y2539992D01*
Y2641559D01*
X12178947Y2666951D01*
X12102771D01*
X12356689D02*
X12255122D01*
Y2514600D01*
X12356689D01*
X12255122Y2590775D02*
X12305906D01*
X12559823Y2666951D02*
X12661391D01*
X12610607D01*
Y2514600D01*
X12788350Y2666951D02*
X12737566D01*
X12712174Y2641559D01*
Y2539992D01*
X12737566Y2514600D01*
X12788350D01*
X12813741Y2539992D01*
Y2641559D01*
X12788350Y2666951D01*
X12864525D02*
Y2514600D01*
X12915308Y2565383D01*
X12966092Y2514600D01*
Y2666951D01*
X13016876Y2514600D02*
Y2616167D01*
X13067659Y2666951D01*
X13118443Y2616167D01*
Y2514600D01*
Y2590775D01*
X13016876D01*
X13169226Y2514600D02*
Y2666951D01*
X13245403D01*
X13270795Y2641559D01*
Y2590775D01*
X13245403Y2565383D01*
X13169226D01*
X13220010D02*
X13270795Y2514600D01*
X13321577Y2666951D02*
Y2514600D01*
X13397752D01*
X13423145Y2539992D01*
Y2641559D01*
X13397752Y2666951D01*
X13321577D01*
X13575494Y2641559D02*
X13550104Y2666951D01*
X13499319D01*
X13473927Y2641559D01*
Y2616167D01*
X13499319Y2590775D01*
X13550104D01*
X13575494Y2565383D01*
Y2539992D01*
X13550104Y2514600D01*
X13499319D01*
X13473927Y2539992D01*
X13880197Y2666951D02*
X13778629D01*
Y2514600D01*
X13880197D01*
X13778629Y2590775D02*
X13829413D01*
X13930980Y2514600D02*
Y2666951D01*
X14032547Y2514600D01*
Y2666951D01*
X14184898D02*
X14083331D01*
Y2514600D01*
X14184898D01*
X14083331Y2590775D02*
X14134114D01*
X14235681Y2514600D02*
Y2666951D01*
X14286465Y2616167D01*
X14337250Y2666951D01*
Y2514600D01*
X14388033Y2666951D02*
Y2641559D01*
X14438815Y2590775D01*
X14489600Y2641559D01*
Y2666951D01*
X14438815Y2590775D02*
Y2514600D01*
X10591800Y14706551D02*
X10693367D01*
X10642583D01*
Y14554201D01*
X10744151D02*
X10794934D01*
X10769543D01*
Y14655766D01*
X10744151D01*
X10871110Y14554201D02*
X10921893D01*
X10896501D01*
Y14706551D01*
X10871110D01*
X11023460Y14681158D02*
Y14655766D01*
X10998068D01*
X11048852D01*
X11023460D01*
Y14579591D01*
X11048852Y14554201D01*
X6718300Y6108651D02*
Y5956300D01*
X6819867D01*
X6870651D02*
X6921434D01*
X6896043D01*
Y6057867D01*
X6870651D01*
X6997610Y5956300D02*
X7048393D01*
X7023001D01*
Y6108651D01*
X6997610D01*
X7276919D02*
Y5956300D01*
Y6007083D01*
X7378486Y6108651D01*
X7302311Y6032475D01*
X7378486Y5956300D01*
X7454662D02*
X7505445D01*
X7530837Y5981692D01*
Y6032475D01*
X7505445Y6057867D01*
X7454662D01*
X7429270Y6032475D01*
Y5981692D01*
X7454662Y5956300D01*
X7683188Y6057867D02*
X7607012D01*
X7581621Y6032475D01*
Y5981692D01*
X7607012Y5956300D01*
X7683188D01*
X7733971Y6108651D02*
Y5956300D01*
Y6032475D01*
X7759363Y6057867D01*
X7810147D01*
X7835539Y6032475D01*
Y5956300D01*
X7048467Y4483059D02*
X7023075Y4508451D01*
X6972292D01*
X6946900Y4483059D01*
Y4457667D01*
X6972292Y4432275D01*
X7023075D01*
X7048467Y4406883D01*
Y4381492D01*
X7023075Y4356100D01*
X6972292D01*
X6946900Y4381492D01*
X7099251Y4508451D02*
Y4356100D01*
X7175426D01*
X7200818Y4381492D01*
Y4483059D01*
X7175426Y4508451D01*
X7099251D01*
X7251601Y4356100D02*
Y4508451D01*
X7327777D01*
X7353169Y4483059D01*
Y4432275D01*
X7327777Y4406883D01*
X7251601D01*
X7302385D02*
X7353169Y4356100D01*
X11620500Y14858951D02*
Y14706599D01*
X11696675D01*
X11722067Y14731992D01*
Y14757384D01*
X11696675Y14782774D01*
X11620500D01*
X11696675D01*
X11722067Y14808167D01*
Y14833559D01*
X11696675Y14858951D01*
X11620500D01*
X11772851Y14808167D02*
Y14731992D01*
X11798243Y14706599D01*
X11874418D01*
Y14808167D01*
X11950593Y14833559D02*
Y14808167D01*
X11925201D01*
X11975985D01*
X11950593D01*
Y14731992D01*
X11975985Y14706599D01*
X12077552Y14833559D02*
Y14808167D01*
X12052160D01*
X12102944D01*
X12077552D01*
Y14731992D01*
X12102944Y14706599D01*
X12204511D02*
X12255295D01*
X12280686Y14731992D01*
Y14782774D01*
X12255295Y14808167D01*
X12204511D01*
X12179119Y14782774D01*
Y14731992D01*
X12204511Y14706599D01*
X12331470D02*
Y14808167D01*
X12407645D01*
X12433037Y14782774D01*
Y14706599D01*
X12483821D02*
X12559996D01*
X12585388Y14731992D01*
X12559996Y14757384D01*
X12509212D01*
X12483821Y14782774D01*
X12509212Y14808167D01*
X12585388D01*
X7086600Y14516100D02*
Y14617667D01*
X7137383Y14668451D01*
X7188167Y14617667D01*
Y14516100D01*
Y14592274D01*
X7086600D01*
X7238951Y14617667D02*
X7340518D01*
X7238951Y14516100D01*
X7340518D01*
X7391301D02*
X7442085D01*
X7416693D01*
Y14617667D01*
X7391301D01*
X7518260Y14516100D02*
Y14617667D01*
X7543652D01*
X7569044Y14592274D01*
Y14516100D01*
Y14592274D01*
X7594436Y14617667D01*
X7619828Y14592274D01*
Y14516100D01*
X7670611Y14617667D02*
Y14541492D01*
X7696003Y14516100D01*
X7772178D01*
Y14617667D01*
X7848354Y14643059D02*
Y14617667D01*
X7822962D01*
X7873745D01*
X7848354D01*
Y14541492D01*
X7873745Y14516100D01*
X6921500Y2705100D02*
X6972283D01*
X6946892D01*
Y2857451D01*
X6921500Y2832059D01*
X7150026Y2705100D02*
X7048459D01*
X7150026Y2806667D01*
Y2832059D01*
X7124634Y2857451D01*
X7073851D01*
X7048459Y2832059D01*
X7200810Y2857451D02*
Y2755883D01*
X7251593Y2705100D01*
X7302377Y2755883D01*
Y2857451D01*
X7505511D02*
Y2755883D01*
X7556295Y2705100D01*
X7607078Y2755883D01*
Y2857451D01*
X7657862Y2705100D02*
X7708645D01*
X7683254D01*
Y2806667D01*
X7657862D01*
X7784821Y2705100D02*
Y2806667D01*
X7860996D01*
X7886388Y2781275D01*
Y2705100D01*
%TF.MD5,4576c9b60f20e07c3de72946e4e86622*%
M02*
