%TF.GenerationSoftware,Altium Limited,Altium Designer,25.8.1 (18)*%
G04 Layer_Physical_Order=2*
G04 Layer_Color=16711680*
%FSLAX45Y45*%
%MOMM*%
%TF.SameCoordinates,1B6F2BE7-5339-4887-9720-52C865558AB3*%
%TF.FilePolarity,Positive*%
%TF.FileFunction,Copper,L2,Bot,Signal*%
%TF.Part,Single*%
G01*
G75*
%TA.AperFunction,Conductor*%
%ADD10C,2.00000*%
%ADD11C,0.50000*%
%ADD12C,1.00000*%
%ADD13C,2.50000*%
%TA.AperFunction,ComponentPad*%
%ADD14C,1.60000*%
%ADD15O,1.50000X3.00000*%
%ADD16R,1.50000X3.00000*%
%ADD17C,1.39700*%
%ADD18C,1.50000*%
%ADD19C,1.57480*%
%ADD20O,3.00000X1.50000*%
%ADD21R,1.65000X1.65000*%
%ADD22C,1.70000*%
%ADD23R,1.39700X1.39700*%
%ADD24R,1.50000X1.50000*%
%ADD25C,1.65000*%
%ADD26C,2.03200*%
%ADD27R,3.00000X1.50000*%
%ADD28C,7.00000*%
%ADD29R,1.70000X1.70000*%
%ADD30R,1.77800X1.77800*%
%TA.AperFunction,ViaPad*%
%ADD31C,1.50000*%
%ADD32C,1.70000*%
%TA.AperFunction,Conductor*%
%ADD33C,3.00000*%
G36*
X14617700Y13728700D02*
Y2501900D01*
X14655800Y2463800D01*
X13131799Y939800D01*
X7175500D01*
X6604000Y1511300D01*
Y14262100D01*
X7239000Y14922501D01*
X7264400Y14947900D01*
X13398500D01*
X14617700Y13728700D01*
D02*
G37*
%LPC*%
G36*
X10948576Y14481799D02*
X10947400D01*
Y14389101D01*
X11040100D01*
Y14390276D01*
X11032917Y14417084D01*
X11019041Y14441116D01*
X10999417Y14460741D01*
X10975383Y14474617D01*
X10948576Y14481799D01*
D02*
G37*
G36*
X10922000D02*
X10920824D01*
X10894017Y14474617D01*
X10869983Y14460741D01*
X10850359Y14441116D01*
X10836483Y14417084D01*
X10829300Y14390276D01*
Y14389101D01*
X10922000D01*
Y14481799D01*
D02*
G37*
G36*
X13917999Y12062600D02*
X13830299D01*
Y11899900D01*
X13917999D01*
Y12062600D01*
D02*
G37*
G36*
X13804900D02*
X13717200D01*
Y11899900D01*
X13804900D01*
Y12062600D01*
D02*
G37*
G36*
X13917999Y11874500D02*
X13830299D01*
Y11711800D01*
X13917999D01*
Y11874500D01*
D02*
G37*
G36*
X13804900D02*
X13717200D01*
Y11711800D01*
X13804900D01*
Y11874500D01*
D02*
G37*
G36*
X14006900Y8811400D02*
X13919200D01*
Y8648700D01*
X14006900D01*
Y8811400D01*
D02*
G37*
G36*
X13893800D02*
X13806100D01*
Y8648700D01*
X13893800D01*
Y8811400D01*
D02*
G37*
G36*
X14006900Y8623300D02*
X13919200D01*
Y8460600D01*
X14006900D01*
Y8623300D01*
D02*
G37*
G36*
X13893800D02*
X13806100D01*
Y8460600D01*
X13893800D01*
Y8623300D01*
D02*
G37*
G36*
X10287000Y14821487D02*
X7340600D01*
X7320935Y14817577D01*
X7304264Y14806436D01*
X6758164Y14260336D01*
X6747024Y14243665D01*
X6743113Y14224001D01*
Y10871200D01*
X6747024Y10851535D01*
X6758164Y10834864D01*
X6845484Y10747544D01*
X6841500Y10732676D01*
Y10704924D01*
X6845484Y10690056D01*
X6720064Y10564636D01*
X6708924Y10547965D01*
X6705013Y10528300D01*
Y8597900D01*
Y5638800D01*
X6708924Y5619135D01*
X6720064Y5602464D01*
X6972484Y5350044D01*
X6968500Y5335176D01*
Y5307424D01*
X6975683Y5280617D01*
X6989559Y5256583D01*
X6997849Y5248293D01*
Y5140307D01*
X6989559Y5132017D01*
X6975683Y5107983D01*
X6968500Y5081176D01*
Y5053424D01*
X6975683Y5026617D01*
X6989559Y5002583D01*
X6997849Y4994293D01*
Y4394200D01*
X7000441Y4374517D01*
X7008038Y4356175D01*
X7020124Y4340424D01*
X7270800Y4089748D01*
Y3981500D01*
X7379048D01*
X8425024Y2935524D01*
X8440775Y2923438D01*
X8448372Y2920291D01*
X8459116Y2915841D01*
X8478800Y2913249D01*
X10590686D01*
X10605867Y2901601D01*
X10630290Y2891484D01*
X10655449Y2888172D01*
Y2454978D01*
X10643158Y2442687D01*
X10631026Y2421673D01*
X10606200Y2417513D01*
X10602800D01*
X10577975Y2421673D01*
X10565842Y2442687D01*
X10545288Y2463242D01*
X10520113Y2477776D01*
X10492035Y2485300D01*
X10490200D01*
Y2374900D01*
Y2264500D01*
X10492035D01*
X10520113Y2272024D01*
X10545288Y2286558D01*
X10565842Y2307113D01*
X10577975Y2328127D01*
X10602800Y2332287D01*
X10606200D01*
X10631026Y2328127D01*
X10643158Y2307113D01*
X10663713Y2286558D01*
X10681410Y2276341D01*
X10691464Y2247688D01*
X10694528Y2218748D01*
X10569207Y2093428D01*
X10374349D01*
Y2251212D01*
X10384045Y2260903D01*
X10424348Y2278108D01*
X10434887Y2272024D01*
X10462966Y2264500D01*
X10464800D01*
Y2374900D01*
Y2485300D01*
X10462966D01*
X10434887Y2477776D01*
X10409713Y2463242D01*
X10389158Y2442687D01*
X10383900Y2433580D01*
X10333900Y2446977D01*
Y2485300D01*
X10248053D01*
X10183027Y2550327D01*
X10156319Y2572245D01*
X10125847Y2588533D01*
X10092784Y2598562D01*
X10058400Y2601949D01*
X7353300D01*
X7318916Y2598562D01*
X7285853Y2588533D01*
X7255381Y2572245D01*
X7228673Y2550327D01*
X7206755Y2523619D01*
X7190467Y2493147D01*
X7180438Y2460084D01*
X7177051Y2425700D01*
X7180438Y2391316D01*
X7190467Y2358253D01*
X7206755Y2327781D01*
X7228673Y2301073D01*
X7255381Y2279155D01*
X7285853Y2262867D01*
X7318916Y2252838D01*
X7353300Y2249451D01*
X9985395D01*
X10021851Y2212996D01*
Y1892435D01*
X10021834Y1892300D01*
X10021904Y1891764D01*
X10025238Y1857916D01*
X10035267Y1824853D01*
X10051555Y1794381D01*
X10073473Y1767673D01*
X10100181Y1745755D01*
X10105896Y1742700D01*
X10093372Y1692700D01*
X10022700D01*
Y1605000D01*
X10198100D01*
X10373500D01*
Y1692700D01*
X10302828D01*
X10290304Y1742700D01*
X10296019Y1745755D01*
X10322727Y1767673D01*
X10342012Y1791172D01*
X10631806D01*
X10661290Y1794076D01*
X10689640Y1802676D01*
X10715768Y1816642D01*
X10738669Y1835437D01*
X11576316Y2673084D01*
X12579802Y3676569D01*
X13124496D01*
X13153981Y3679473D01*
X13182330Y3688073D01*
X13208459Y3702039D01*
X13231361Y3720834D01*
X13768449Y4257923D01*
X13780310Y4259484D01*
X13804733Y4269601D01*
X13825706Y4285694D01*
X13841798Y4306667D01*
X13843707Y4311276D01*
X13860963Y4325437D01*
X13879758Y4348338D01*
X13893724Y4374466D01*
X13901344Y4399590D01*
X13902324Y4402816D01*
X13903700Y4406509D01*
X13953700Y4397496D01*
Y4256900D01*
X14041400D01*
Y4432300D01*
Y4607700D01*
X13953700D01*
Y4467104D01*
X13903700Y4458091D01*
X13902324Y4461784D01*
X13901764Y4463629D01*
X13893724Y4490134D01*
X13879758Y4516262D01*
X13860963Y4539163D01*
X13843707Y4553324D01*
X13841798Y4557933D01*
X13825706Y4578906D01*
X13804733Y4594999D01*
X13780310Y4605116D01*
X13754100Y4608566D01*
X13727890Y4605116D01*
X13703467Y4594999D01*
X13682494Y4578906D01*
X13678917Y4574245D01*
X13671266Y4571924D01*
X13645139Y4557958D01*
X13622237Y4539163D01*
X13061897Y3978825D01*
X12924124D01*
X12904671Y3996422D01*
X12884396Y4028825D01*
X12886028Y4045394D01*
Y4243971D01*
X12917101Y4281100D01*
X12936028Y4281100D01*
X13004800D01*
Y4381500D01*
Y4481900D01*
X12936028D01*
X12922646Y4481900D01*
X12889877Y4520624D01*
X12894354Y4548472D01*
X12910808Y4558228D01*
X12944214Y4566799D01*
X12955853Y4555160D01*
X12978748Y4541942D01*
X13004282Y4535100D01*
X13030717D01*
X13056253Y4541942D01*
X13079147Y4555160D01*
X13097839Y4573853D01*
X13111058Y4596747D01*
X13117900Y4622282D01*
Y4628348D01*
X13337819Y4848267D01*
X14258818D01*
X14278502Y4850859D01*
X14296843Y4858456D01*
X14312595Y4870542D01*
X14506377Y5064324D01*
X14518462Y5080075D01*
X14521609Y5087672D01*
X14526059Y5098417D01*
X14528651Y5118100D01*
Y5613400D01*
X14526059Y5633083D01*
X14518462Y5651425D01*
X14506377Y5667176D01*
X14214276Y5959276D01*
X14198524Y5971362D01*
X14180183Y5978959D01*
X14160500Y5981551D01*
X13225128D01*
X13205994Y6027745D01*
X13221677Y6043427D01*
X13233762Y6059177D01*
X13236909Y6066775D01*
X13241359Y6077519D01*
X13243951Y6097202D01*
Y6214899D01*
X14252376Y7223324D01*
X14264462Y7239075D01*
X14272060Y7257417D01*
X14274651Y7277100D01*
Y7924800D01*
X14272060Y7944484D01*
X14267609Y7955228D01*
X14264462Y7962826D01*
X14252376Y7978576D01*
X13998376Y8232576D01*
X13982626Y8244662D01*
X13964284Y8252259D01*
X13944600Y8254851D01*
X13520036D01*
X13512282Y8263692D01*
X13512282Y8263694D01*
Y8443721D01*
X13538673Y8461631D01*
X13562282Y8470643D01*
X13580290Y8463184D01*
X13606500Y8459734D01*
X13632710Y8463184D01*
X13657133Y8473301D01*
X13678107Y8489394D01*
X13694199Y8510367D01*
X13704317Y8534790D01*
X13707767Y8561000D01*
Y8711000D01*
X13704317Y8737210D01*
X13694199Y8761633D01*
X13678107Y8782606D01*
X13657887Y8798121D01*
Y9127412D01*
X14247636Y9717161D01*
X14258775Y9733832D01*
X14262688Y9753497D01*
Y11049000D01*
X14258775Y11068665D01*
X14247636Y11085336D01*
X13590584Y11742389D01*
X13605299Y11761567D01*
X13615416Y11785990D01*
X13618866Y11812200D01*
Y11962200D01*
X13615416Y11988410D01*
X13605299Y12012833D01*
X13589206Y12033806D01*
X13568987Y12049321D01*
Y12517400D01*
Y14346201D01*
X13565076Y14365865D01*
X13553935Y14382536D01*
X13155437Y14781036D01*
X13138765Y14792175D01*
X13119099Y14796088D01*
X11557000D01*
X11537335Y14792175D01*
X11520664Y14781036D01*
X11088098Y14348470D01*
X11061118Y14356371D01*
X11050718Y14363699D01*
X10934700D01*
X10818682D01*
X10808282Y14356371D01*
X10781302Y14348470D01*
X10323336Y14806436D01*
X10306665Y14817577D01*
X10287000Y14821487D01*
D02*
G37*
G36*
X14154500Y4607700D02*
X14066800D01*
Y4445000D01*
X14154500D01*
Y4607700D01*
D02*
G37*
G36*
X13030200Y4481900D02*
Y4394200D01*
X13117900D01*
Y4481900D01*
X13030200D01*
D02*
G37*
G36*
X13117900Y4368800D02*
X13030200D01*
Y4281100D01*
X13117900D01*
Y4368800D01*
D02*
G37*
G36*
X14154500Y4419600D02*
X14066800D01*
Y4256900D01*
X14154500D01*
Y4419600D01*
D02*
G37*
G36*
X7392905Y3689300D02*
X7391400D01*
Y3594100D01*
X7486600D01*
Y3595605D01*
X7479247Y3623048D01*
X7465041Y3647652D01*
X7444952Y3667741D01*
X7420348Y3681947D01*
X7392905Y3689300D01*
D02*
G37*
G36*
X7366000D02*
X7364495D01*
X7337052Y3681947D01*
X7312448Y3667741D01*
X7292359Y3647652D01*
X7278153Y3623048D01*
X7270800Y3595605D01*
Y3594100D01*
X7366000D01*
Y3689300D01*
D02*
G37*
G36*
X7486600Y3568700D02*
X7391400D01*
Y3473500D01*
X7392905D01*
X7420348Y3480853D01*
X7444952Y3495059D01*
X7465041Y3515148D01*
X7479247Y3539752D01*
X7486600Y3567195D01*
Y3568700D01*
D02*
G37*
G36*
X7366000D02*
X7270800D01*
Y3567195D01*
X7278153Y3539752D01*
X7292359Y3515148D01*
X7312448Y3495059D01*
X7337052Y3480853D01*
X7364495Y3473500D01*
X7366000D01*
Y3568700D01*
D02*
G37*
G36*
X13529645Y3690100D02*
X13470555D01*
X13412193Y3680856D01*
X13355997Y3662597D01*
X13303348Y3635771D01*
X13255544Y3601039D01*
X13213760Y3559257D01*
X13179028Y3511452D01*
X13152203Y3458804D01*
X13133945Y3402606D01*
X13124699Y3344245D01*
Y3285155D01*
X13133945Y3226794D01*
X13152203Y3170596D01*
X13179028Y3117948D01*
X13213760Y3070143D01*
X13255544Y3028361D01*
X13303348Y2993629D01*
X13355997Y2966803D01*
X13412193Y2948544D01*
X13470555Y2939300D01*
X13529645D01*
X13588007Y2948544D01*
X13644205Y2966803D01*
X13696852Y2993629D01*
X13744656Y3028361D01*
X13786440Y3070143D01*
X13821172Y3117948D01*
X13847997Y3170596D01*
X13866257Y3226794D01*
X13875500Y3285155D01*
Y3344245D01*
X13866257Y3402606D01*
X13847997Y3458804D01*
X13821172Y3511452D01*
X13786440Y3559257D01*
X13744656Y3601039D01*
X13696852Y3635771D01*
X13644205Y3662597D01*
X13588007Y3680856D01*
X13529645Y3690100D01*
D02*
G37*
G36*
X7367505Y2025600D02*
X7366000D01*
Y1930400D01*
X7461200D01*
Y1931905D01*
X7453847Y1959348D01*
X7439641Y1983952D01*
X7419552Y2004041D01*
X7394948Y2018247D01*
X7367505Y2025600D01*
D02*
G37*
G36*
X7340600D02*
X7339095D01*
X7311652Y2018247D01*
X7287048Y2004041D01*
X7266959Y1983952D01*
X7252753Y1959348D01*
X7245400Y1931905D01*
Y1930400D01*
X7340600D01*
Y2025600D01*
D02*
G37*
G36*
X7461200Y1905000D02*
X7366000D01*
Y1809800D01*
X7367505D01*
X7394948Y1817153D01*
X7419552Y1831359D01*
X7439641Y1851448D01*
X7453847Y1876052D01*
X7461200Y1903495D01*
Y1905000D01*
D02*
G37*
G36*
X7340600D02*
X7245400D01*
Y1903495D01*
X7252753Y1876052D01*
X7266959Y1851448D01*
X7287048Y1831359D01*
X7311652Y1817153D01*
X7339095Y1809800D01*
X7340600D01*
Y1905000D01*
D02*
G37*
G36*
X10373500Y1579600D02*
X10210800D01*
Y1491900D01*
X10373500D01*
Y1579600D01*
D02*
G37*
G36*
X10185400D02*
X10022700D01*
Y1491900D01*
X10185400D01*
Y1579600D01*
D02*
G37*
G36*
X8462345Y2102600D02*
X8403255D01*
X8344894Y2093356D01*
X8288696Y2075097D01*
X8236048Y2048271D01*
X8188243Y2013539D01*
X8146461Y1971757D01*
X8111729Y1923952D01*
X8084903Y1871304D01*
X8066644Y1815106D01*
X8057400Y1756745D01*
Y1697655D01*
X8066644Y1639294D01*
X8084903Y1583096D01*
X8111729Y1530448D01*
X8146461Y1482643D01*
X8188243Y1440861D01*
X8236048Y1406129D01*
X8288696Y1379303D01*
X8344894Y1361044D01*
X8403255Y1351800D01*
X8462345D01*
X8520706Y1361044D01*
X8576904Y1379303D01*
X8629552Y1406129D01*
X8677357Y1440861D01*
X8719139Y1482643D01*
X8753871Y1530448D01*
X8780697Y1583096D01*
X8798956Y1639294D01*
X8808200Y1697655D01*
Y1756745D01*
X8798956Y1815106D01*
X8780697Y1871304D01*
X8753871Y1923952D01*
X8719139Y1971757D01*
X8677357Y2013539D01*
X8629552Y2048271D01*
X8576904Y2075097D01*
X8520706Y2093356D01*
X8462345Y2102600D01*
D02*
G37*
%LPD*%
G36*
X13466212Y14324915D02*
Y12706788D01*
X13420020Y12687654D01*
X13155437Y12952235D01*
X13138765Y12963376D01*
X13119099Y12967287D01*
X12942064D01*
X12938129Y13017287D01*
X12953006Y13019644D01*
X13009204Y13037903D01*
X13061852Y13064729D01*
X13109657Y13099461D01*
X13151439Y13141243D01*
X13186171Y13189047D01*
X13212997Y13241696D01*
X13231256Y13297894D01*
X13240500Y13356255D01*
Y13415344D01*
X13231256Y13473706D01*
X13212997Y13529904D01*
X13186171Y13582552D01*
X13151439Y13630357D01*
X13109657Y13672139D01*
X13061852Y13706871D01*
X13009204Y13733698D01*
X12953006Y13751956D01*
X12894646Y13761200D01*
X12835555D01*
X12777194Y13751956D01*
X12720996Y13733698D01*
X12668348Y13706871D01*
X12620543Y13672139D01*
X12578761Y13630357D01*
X12544029Y13582552D01*
X12517203Y13529904D01*
X12498944Y13473706D01*
X12489700Y13415344D01*
Y13356255D01*
X12498944Y13297894D01*
X12517203Y13241696D01*
X12544029Y13189047D01*
X12578761Y13141243D01*
X12620543Y13099461D01*
X12668348Y13064729D01*
X12720996Y13037903D01*
X12777194Y13019644D01*
X12792071Y13017287D01*
X12788136Y12967287D01*
X12217400D01*
X12197735Y12963376D01*
X12181064Y12952235D01*
X11682775Y12453948D01*
X11671636Y12437277D01*
X11667724Y12417611D01*
Y11118097D01*
X11140215Y10590587D01*
X11126210Y10594340D01*
X11098790D01*
X11072303Y10587243D01*
X11048557Y10573533D01*
X11029167Y10554143D01*
X11015457Y10530397D01*
X11008360Y10503910D01*
Y10476490D01*
X11015457Y10450003D01*
X11029167Y10426257D01*
X11048557Y10406867D01*
X11072303Y10393157D01*
X11092389Y10387775D01*
Y10338625D01*
X11072303Y10333243D01*
X11048557Y10319533D01*
X11029167Y10300143D01*
X11015457Y10276397D01*
X11008360Y10249910D01*
Y10222490D01*
X11015457Y10196003D01*
X11029167Y10172257D01*
X11036449Y10164974D01*
Y9862895D01*
X11022464Y9852996D01*
X11003250Y9854730D01*
X10961661Y9871217D01*
X10955541Y9881817D01*
X10935917Y9901441D01*
X10911883Y9915317D01*
X10885076Y9922500D01*
X10883900D01*
Y9817100D01*
X10871200D01*
Y9804400D01*
X10765800D01*
Y9803224D01*
X10772983Y9776417D01*
X10786859Y9752383D01*
X10806483Y9732759D01*
X10830517Y9718883D01*
X10841344Y9715982D01*
Y9664218D01*
X10830517Y9661317D01*
X10806483Y9647441D01*
X10798193Y9639151D01*
X10561553D01*
X10561385Y9639319D01*
X10539665Y9651859D01*
X10515440Y9658350D01*
X10490360D01*
X10466135Y9651859D01*
X10444415Y9639319D01*
X10426681Y9621585D01*
X10414141Y9599865D01*
X10407650Y9575640D01*
Y9550560D01*
X10414141Y9526335D01*
X10426681Y9504615D01*
X10444415Y9486881D01*
X10466135Y9474341D01*
X10490360Y9467850D01*
X10515440D01*
X10539665Y9474341D01*
X10561385Y9486881D01*
X10561553Y9487049D01*
X10798193D01*
X10806483Y9478759D01*
X10830517Y9464883D01*
X10841344Y9461982D01*
Y9410218D01*
X10830517Y9407317D01*
X10806483Y9393441D01*
X10786859Y9373817D01*
X10779163Y9360487D01*
X10583217D01*
X10579119Y9367585D01*
X10561385Y9385319D01*
X10539665Y9397859D01*
X10515440Y9404350D01*
X10490360D01*
X10466135Y9397859D01*
X10444415Y9385319D01*
X10426681Y9367585D01*
X10414141Y9345865D01*
X10407650Y9321640D01*
Y9296560D01*
X10414141Y9272335D01*
X10426681Y9250615D01*
X10444415Y9232881D01*
X10466135Y9220341D01*
X10490360Y9213850D01*
X10515440D01*
X10539665Y9220341D01*
X10561385Y9232881D01*
X10579119Y9250615D01*
X10583217Y9257713D01*
X10779163D01*
X10786859Y9244383D01*
X10806483Y9224759D01*
X10830517Y9210883D01*
X10841344Y9207982D01*
Y9156218D01*
X10830517Y9153317D01*
X10806483Y9139441D01*
X10786859Y9119817D01*
X10779163Y9106487D01*
X10583217D01*
X10579119Y9113585D01*
X10561385Y9131319D01*
X10539665Y9143859D01*
X10515440Y9150350D01*
X10490360D01*
X10466135Y9143859D01*
X10444415Y9131319D01*
X10426681Y9113585D01*
X10414141Y9091865D01*
X10407650Y9067640D01*
Y9042560D01*
X10414141Y9018335D01*
X10426681Y8996615D01*
X10444415Y8978881D01*
X10466135Y8966341D01*
X10490360Y8959850D01*
X10515440D01*
X10539665Y8966341D01*
X10561385Y8978881D01*
X10579119Y8996615D01*
X10583217Y9003713D01*
X10779163D01*
X10786859Y8990383D01*
X10806483Y8970759D01*
X10830517Y8956883D01*
X10841344Y8953982D01*
Y8902218D01*
X10830517Y8899317D01*
X10806483Y8885441D01*
X10786859Y8865817D01*
X10779163Y8852487D01*
X10583217D01*
X10579119Y8859585D01*
X10561385Y8877319D01*
X10539665Y8889859D01*
X10515440Y8896350D01*
X10490360D01*
X10466135Y8889859D01*
X10444415Y8877319D01*
X10426681Y8859585D01*
X10414141Y8837865D01*
X10407650Y8813640D01*
Y8788560D01*
X10414141Y8764335D01*
X10426681Y8742615D01*
X10444415Y8724881D01*
X10466135Y8712341D01*
X10490360Y8705850D01*
X10515440D01*
X10539665Y8712341D01*
X10561385Y8724881D01*
X10579119Y8742615D01*
X10583217Y8749713D01*
X10779163D01*
X10786859Y8736383D01*
X10806483Y8716759D01*
X10830517Y8702883D01*
X10841344Y8699982D01*
Y8648218D01*
X10830517Y8645317D01*
X10806483Y8631441D01*
X10786859Y8611817D01*
X10779163Y8598487D01*
X10583217D01*
X10579119Y8605585D01*
X10561385Y8623319D01*
X10539665Y8635859D01*
X10515440Y8642350D01*
X10490360D01*
X10466135Y8635859D01*
X10444415Y8623319D01*
X10426681Y8605585D01*
X10414141Y8583865D01*
X10407650Y8559640D01*
Y8534560D01*
X10414141Y8510335D01*
X10426681Y8488615D01*
X10444415Y8470881D01*
X10455812Y8417225D01*
X10451900Y8397561D01*
Y8373641D01*
X10444415Y8369319D01*
X10426681Y8351585D01*
X10414141Y8329865D01*
X10407650Y8305640D01*
Y8280560D01*
X10414141Y8256335D01*
X10426681Y8234615D01*
X10444415Y8216881D01*
X10466135Y8204341D01*
X10490360Y8197850D01*
X10515440D01*
X10539665Y8204341D01*
X10561385Y8216881D01*
X10579119Y8234615D01*
X10583217Y8241713D01*
X10779163D01*
X10786859Y8228383D01*
X10806483Y8208759D01*
X10830517Y8194883D01*
X10841344Y8191982D01*
Y8140218D01*
X10830517Y8137317D01*
X10806483Y8123441D01*
X10786859Y8103817D01*
X10779163Y8090487D01*
X10583217D01*
X10579119Y8097585D01*
X10561385Y8115319D01*
X10539665Y8127859D01*
X10515440Y8134350D01*
X10490360D01*
X10466135Y8127859D01*
X10444415Y8115319D01*
X10426681Y8097585D01*
X10414141Y8075865D01*
X10407650Y8051640D01*
Y8026560D01*
X10414141Y8002335D01*
X10426681Y7980615D01*
X10444415Y7962881D01*
X10466135Y7950341D01*
X10490360Y7943850D01*
X10515440D01*
X10539665Y7950341D01*
X10561385Y7962881D01*
X10579119Y7980615D01*
X10583217Y7987713D01*
X10779163D01*
X10786859Y7974383D01*
X10806483Y7954759D01*
X10830517Y7940883D01*
X10841344Y7937982D01*
Y7886218D01*
X10830517Y7883317D01*
X10806483Y7869441D01*
X10786859Y7849817D01*
X10779163Y7836487D01*
X10583217D01*
X10579119Y7843585D01*
X10561385Y7861319D01*
X10539665Y7873859D01*
X10515440Y7880350D01*
X10490360D01*
X10466135Y7873859D01*
X10444415Y7861319D01*
X10426681Y7843585D01*
X10414141Y7821865D01*
X10407650Y7797640D01*
Y7772560D01*
X10414141Y7748335D01*
X10426681Y7726615D01*
X10444415Y7708881D01*
X10466135Y7696341D01*
X10490360Y7689850D01*
X10515440D01*
X10539665Y7696341D01*
X10561385Y7708881D01*
X10579119Y7726615D01*
X10583217Y7733713D01*
X10779163D01*
X10786859Y7720383D01*
X10806483Y7700759D01*
X10830517Y7686883D01*
X10841344Y7683982D01*
Y7632218D01*
X10830517Y7629317D01*
X10806483Y7615441D01*
X10786859Y7595817D01*
X10779163Y7582487D01*
X10583217D01*
X10579119Y7589585D01*
X10561385Y7607319D01*
X10539665Y7619859D01*
X10515440Y7626350D01*
X10490360D01*
X10466135Y7619859D01*
X10444415Y7607319D01*
X10426681Y7589585D01*
X10414141Y7567865D01*
X10407650Y7543640D01*
Y7518560D01*
X10414141Y7494335D01*
X10426681Y7472615D01*
X10444415Y7454881D01*
X10466135Y7442341D01*
X10490360Y7435850D01*
X10515440D01*
X10539665Y7442341D01*
X10561385Y7454881D01*
X10579119Y7472615D01*
X10583217Y7479713D01*
X10779163D01*
X10786859Y7466383D01*
X10806483Y7446759D01*
X10830517Y7432883D01*
X10841344Y7429982D01*
Y7378218D01*
X10830517Y7375317D01*
X10806483Y7361441D01*
X10786859Y7341817D01*
X10779163Y7328487D01*
X10583217D01*
X10579119Y7335585D01*
X10561385Y7353319D01*
X10539665Y7365859D01*
X10515440Y7372350D01*
X10490360D01*
X10466135Y7365859D01*
X10444415Y7353319D01*
X10426681Y7335585D01*
X10414141Y7313865D01*
X10407650Y7289640D01*
Y7264560D01*
X10414141Y7240335D01*
X10426681Y7218615D01*
X10444415Y7200881D01*
X10466135Y7188341D01*
X10490360Y7181850D01*
X10515440D01*
X10539665Y7188341D01*
X10561385Y7200881D01*
X10579119Y7218615D01*
X10583217Y7225713D01*
X10779163D01*
X10786859Y7212383D01*
X10806483Y7192759D01*
X10830517Y7178883D01*
X10841344Y7175982D01*
Y7124218D01*
X10830517Y7121317D01*
X10806483Y7107441D01*
X10786859Y7087817D01*
X10779163Y7074487D01*
X10583217D01*
X10579119Y7081585D01*
X10561385Y7099319D01*
X10539665Y7111859D01*
X10515440Y7118350D01*
X10490360D01*
X10466135Y7111859D01*
X10444415Y7099319D01*
X10426681Y7081585D01*
X10414141Y7059865D01*
X10407650Y7035640D01*
Y7010560D01*
X10414141Y6986335D01*
X10426681Y6964615D01*
X10444415Y6946881D01*
X10466135Y6934341D01*
X10490360Y6927850D01*
X10515440D01*
X10539665Y6934341D01*
X10561385Y6946881D01*
X10579119Y6964615D01*
X10583217Y6971713D01*
X10779163D01*
X10786859Y6958383D01*
X10806483Y6938759D01*
X10830517Y6924883D01*
X10841344Y6921982D01*
Y6870218D01*
X10830517Y6867317D01*
X10806483Y6853441D01*
X10786859Y6833817D01*
X10779163Y6820487D01*
X10583217D01*
X10579119Y6827585D01*
X10561385Y6845319D01*
X10539665Y6857859D01*
X10515440Y6864350D01*
X10490360D01*
X10466135Y6857859D01*
X10444415Y6845319D01*
X10426681Y6827585D01*
X10414141Y6805865D01*
X10407650Y6781640D01*
Y6756560D01*
X10414141Y6732335D01*
X10426681Y6710615D01*
X10444415Y6692881D01*
X10466135Y6680341D01*
X10490360Y6673850D01*
X10515440D01*
X10539665Y6680341D01*
X10561385Y6692881D01*
X10579119Y6710615D01*
X10583217Y6717713D01*
X10779163D01*
X10786859Y6704383D01*
X10806483Y6684759D01*
X10830517Y6670883D01*
X10841344Y6667982D01*
Y6616218D01*
X10830517Y6613317D01*
X10806483Y6599441D01*
X10786859Y6579817D01*
X10779163Y6566487D01*
X10583217D01*
X10579119Y6573585D01*
X10561385Y6591319D01*
X10539665Y6603859D01*
X10515440Y6610350D01*
X10490360D01*
X10466135Y6603859D01*
X10444415Y6591319D01*
X10426681Y6573585D01*
X10414141Y6551865D01*
X10407650Y6527640D01*
Y6502560D01*
X10414141Y6478335D01*
X10426681Y6456615D01*
X10444415Y6438881D01*
X10466135Y6426341D01*
X10490360Y6419850D01*
X10515440D01*
X10539665Y6426341D01*
X10561385Y6438881D01*
X10579119Y6456615D01*
X10583217Y6463713D01*
X10779163D01*
X10786859Y6450383D01*
X10806483Y6430759D01*
X10830517Y6416883D01*
X10841344Y6413982D01*
Y6362218D01*
X10830517Y6359317D01*
X10806483Y6345441D01*
X10786859Y6325817D01*
X10779163Y6312487D01*
X10583217D01*
X10579119Y6319585D01*
X10561385Y6337319D01*
X10539665Y6349859D01*
X10515440Y6356350D01*
X10490360D01*
X10466135Y6349859D01*
X10444415Y6337319D01*
X10426681Y6319585D01*
X10414141Y6297865D01*
X10407650Y6273640D01*
Y6248560D01*
X10414141Y6224335D01*
X10426681Y6202615D01*
X10444415Y6184881D01*
X10466135Y6172341D01*
X10490360Y6165850D01*
X10515440D01*
X10539665Y6172341D01*
X10561385Y6184881D01*
X10579119Y6202615D01*
X10583217Y6209713D01*
X10779163D01*
X10786859Y6196383D01*
X10806483Y6176759D01*
X10830517Y6162883D01*
X10841344Y6159982D01*
Y6108218D01*
X10830517Y6105317D01*
X10806483Y6091441D01*
X10786859Y6071817D01*
X10779163Y6058487D01*
X10583217D01*
X10579119Y6065585D01*
X10561385Y6083319D01*
X10539665Y6095859D01*
X10515440Y6102350D01*
X10490360D01*
X10466135Y6095859D01*
X10444415Y6083319D01*
X10426681Y6065585D01*
X10414141Y6043865D01*
X10407650Y6019640D01*
Y5994560D01*
X10414141Y5970335D01*
X10426681Y5948615D01*
X10444415Y5930881D01*
X10466135Y5918341D01*
X10490360Y5911850D01*
X10515440D01*
X10539665Y5918341D01*
X10561385Y5930881D01*
X10579119Y5948615D01*
X10583217Y5955713D01*
X10779163D01*
X10786859Y5942383D01*
X10806483Y5922759D01*
X10830517Y5908883D01*
X10841344Y5905982D01*
Y5854218D01*
X10830517Y5851317D01*
X10806483Y5837441D01*
X10786859Y5817817D01*
X10779163Y5804487D01*
X10583217D01*
X10579119Y5811585D01*
X10561385Y5829319D01*
X10539665Y5841859D01*
X10515440Y5848350D01*
X10490360D01*
X10466135Y5841859D01*
X10444415Y5829319D01*
X10426681Y5811585D01*
X10414141Y5789865D01*
X10407650Y5765640D01*
Y5740560D01*
X10414141Y5716335D01*
X10426681Y5694615D01*
X10444415Y5676881D01*
X10466135Y5664341D01*
X10490360Y5657850D01*
X10515440D01*
X10539665Y5664341D01*
X10561385Y5676881D01*
X10579119Y5694615D01*
X10583217Y5701713D01*
X10779163D01*
X10786859Y5688383D01*
X10806483Y5668759D01*
X10830517Y5654883D01*
X10841344Y5651982D01*
Y5600218D01*
X10830517Y5597317D01*
X10806483Y5583441D01*
X10786859Y5563817D01*
X10779163Y5550487D01*
X10583217D01*
X10579119Y5557585D01*
X10561385Y5575319D01*
X10539665Y5587859D01*
X10515440Y5594350D01*
X10490360D01*
X10466135Y5587859D01*
X10444415Y5575319D01*
X10426681Y5557585D01*
X10414141Y5535865D01*
X10407650Y5511640D01*
Y5486560D01*
X10414141Y5462335D01*
X10426681Y5440615D01*
X10444415Y5422881D01*
X10466135Y5410341D01*
X10490360Y5403850D01*
X10515440D01*
X10539665Y5410341D01*
X10561385Y5422881D01*
X10579119Y5440615D01*
X10583217Y5447713D01*
X10779163D01*
X10786859Y5434383D01*
X10806483Y5414759D01*
X10830517Y5400883D01*
X10841344Y5397982D01*
Y5346218D01*
X10830517Y5343317D01*
X10806483Y5329441D01*
X10786859Y5309817D01*
X10779163Y5296487D01*
X10583217D01*
X10579119Y5303585D01*
X10561385Y5321319D01*
X10539665Y5333859D01*
X10515440Y5340350D01*
X10490360D01*
X10466135Y5333859D01*
X10444415Y5321319D01*
X10426681Y5303585D01*
X10414141Y5281865D01*
X10407650Y5257640D01*
Y5232560D01*
X10414141Y5208335D01*
X10426681Y5186615D01*
X10444415Y5168881D01*
X10466135Y5156341D01*
X10490360Y5149850D01*
X10515440D01*
X10539665Y5156341D01*
X10561385Y5168881D01*
X10579119Y5186615D01*
X10583217Y5193713D01*
X10779163D01*
X10786859Y5180383D01*
X10806483Y5160759D01*
X10830517Y5146883D01*
X10841344Y5143982D01*
Y5092218D01*
X10830517Y5089317D01*
X10806483Y5075441D01*
X10786859Y5055817D01*
X10779163Y5042487D01*
X10583217D01*
X10579119Y5049585D01*
X10561385Y5067319D01*
X10539665Y5079859D01*
X10515440Y5086350D01*
X10490360D01*
X10466135Y5079859D01*
X10444415Y5067319D01*
X10426681Y5049585D01*
X10414141Y5027865D01*
X10407650Y5003640D01*
Y4978560D01*
X10414141Y4954335D01*
X10426681Y4932615D01*
X10444415Y4914881D01*
X10466135Y4902341D01*
X10490360Y4895850D01*
X10515440D01*
X10539665Y4902341D01*
X10561385Y4914881D01*
X10579119Y4932615D01*
X10583217Y4939713D01*
X10779163D01*
X10786859Y4926383D01*
X10806483Y4906759D01*
X10830517Y4892883D01*
X10841344Y4889982D01*
Y4838218D01*
X10830517Y4835317D01*
X10806483Y4821441D01*
X10786859Y4801817D01*
X10779163Y4788487D01*
X10583217D01*
X10579119Y4795585D01*
X10561385Y4813319D01*
X10539665Y4825859D01*
X10515440Y4832350D01*
X10490360D01*
X10466135Y4825859D01*
X10444415Y4813319D01*
X10426681Y4795585D01*
X10414141Y4773865D01*
X10407650Y4749640D01*
Y4724560D01*
X10414141Y4700335D01*
X10426681Y4678615D01*
X10444415Y4660881D01*
X10466135Y4648341D01*
X10490360Y4641850D01*
X10515440D01*
X10539665Y4648341D01*
X10561385Y4660881D01*
X10579119Y4678615D01*
X10583217Y4685713D01*
X10779163D01*
X10786859Y4672383D01*
X10806483Y4652759D01*
X10830517Y4638883D01*
X10841344Y4635982D01*
Y4584218D01*
X10830517Y4581317D01*
X10806483Y4567441D01*
X10786859Y4547817D01*
X10779163Y4534487D01*
X10598150D01*
Y4578350D01*
X10407650D01*
Y4387850D01*
X10598150D01*
Y4431713D01*
X10779163D01*
X10786859Y4418383D01*
X10806483Y4398759D01*
X10830517Y4384883D01*
X10857324Y4377700D01*
X10885076D01*
X10911883Y4384883D01*
X10935917Y4398759D01*
X10955541Y4418383D01*
X10969417Y4442417D01*
X10976600Y4469224D01*
Y4496976D01*
X10969417Y4523783D01*
X10955541Y4547817D01*
X10935917Y4567441D01*
X10911883Y4581317D01*
X10901056Y4584218D01*
Y4635982D01*
X10911883Y4638883D01*
X10935917Y4652759D01*
X10955541Y4672383D01*
X10969417Y4696417D01*
X10976600Y4723224D01*
Y4750976D01*
X10969417Y4777783D01*
X10955541Y4801817D01*
X10935917Y4821441D01*
X10911883Y4835317D01*
X10901056Y4838218D01*
Y4889982D01*
X10911883Y4892883D01*
X10935917Y4906759D01*
X10955541Y4926383D01*
X10969417Y4950417D01*
X10976600Y4977224D01*
Y5004976D01*
X10969417Y5031783D01*
X10955541Y5055817D01*
X10935917Y5075441D01*
X10911883Y5089317D01*
X10901056Y5092218D01*
Y5143982D01*
X10911883Y5146883D01*
X10935917Y5160759D01*
X10955541Y5180383D01*
X10969417Y5204417D01*
X10976600Y5231224D01*
Y5258976D01*
X10969417Y5285783D01*
X10955541Y5309817D01*
X10935917Y5329441D01*
X10911883Y5343317D01*
X10901056Y5346218D01*
Y5397982D01*
X10911883Y5400883D01*
X10935917Y5414759D01*
X10955541Y5434383D01*
X10969417Y5458417D01*
X10976600Y5485224D01*
Y5512976D01*
X10969417Y5539783D01*
X10955541Y5563817D01*
X10935917Y5583441D01*
X10911883Y5597317D01*
X10901056Y5600218D01*
Y5651982D01*
X10911883Y5654883D01*
X10935917Y5668759D01*
X10955541Y5688383D01*
X10969417Y5712417D01*
X10976600Y5739224D01*
Y5766976D01*
X10969417Y5793783D01*
X10955541Y5817817D01*
X10935917Y5837441D01*
X10911883Y5851317D01*
X10901056Y5854218D01*
Y5905982D01*
X10911883Y5908883D01*
X10935917Y5922759D01*
X10955541Y5942383D01*
X10969417Y5966417D01*
X10976600Y5993224D01*
Y6020976D01*
X10969417Y6047783D01*
X10955541Y6071817D01*
X10935917Y6091441D01*
X10911883Y6105317D01*
X10901056Y6108218D01*
Y6159982D01*
X10911883Y6162883D01*
X10935917Y6176759D01*
X10955541Y6196383D01*
X10969417Y6220417D01*
X10976600Y6247224D01*
Y6274976D01*
X10969417Y6301783D01*
X10955541Y6325817D01*
X10935917Y6345441D01*
X10911883Y6359317D01*
X10901056Y6362218D01*
Y6413982D01*
X10911883Y6416883D01*
X10935917Y6430759D01*
X10955541Y6450383D01*
X10969417Y6474417D01*
X10976600Y6501224D01*
Y6528976D01*
X10969417Y6555783D01*
X10955541Y6579817D01*
X10935917Y6599441D01*
X10911883Y6613317D01*
X10901056Y6616218D01*
Y6667982D01*
X10911883Y6670883D01*
X10935917Y6684759D01*
X10955541Y6704383D01*
X10969417Y6728417D01*
X10976600Y6755224D01*
Y6782976D01*
X10969417Y6809783D01*
X10955541Y6833817D01*
X10935917Y6853441D01*
X10911883Y6867317D01*
X10901056Y6870218D01*
Y6921982D01*
X10911883Y6924883D01*
X10935917Y6938759D01*
X10955541Y6958383D01*
X10969417Y6982417D01*
X10976600Y7009224D01*
Y7036976D01*
X10969417Y7063783D01*
X10955541Y7087817D01*
X10935917Y7107441D01*
X10911883Y7121317D01*
X10901056Y7124218D01*
Y7175982D01*
X10911883Y7178883D01*
X10935917Y7192759D01*
X10955541Y7212383D01*
X10969417Y7236417D01*
X10976600Y7263224D01*
Y7290976D01*
X10969417Y7317783D01*
X10955541Y7341817D01*
X10935917Y7361441D01*
X10911883Y7375317D01*
X10901056Y7378218D01*
Y7429982D01*
X10911883Y7432883D01*
X10935917Y7446759D01*
X10955541Y7466383D01*
X10969417Y7490417D01*
X10976600Y7517224D01*
Y7544976D01*
X10969417Y7571783D01*
X10955541Y7595817D01*
X10935917Y7615441D01*
X10911883Y7629317D01*
X10901056Y7632218D01*
Y7683982D01*
X10911883Y7686883D01*
X10935917Y7700759D01*
X10955541Y7720383D01*
X10969417Y7744417D01*
X10976600Y7771224D01*
Y7798976D01*
X10969417Y7825783D01*
X10955541Y7849817D01*
X10935917Y7869441D01*
X10911883Y7883317D01*
X10901056Y7886218D01*
Y7937982D01*
X10911883Y7940883D01*
X10935917Y7954759D01*
X10955541Y7974383D01*
X10963237Y7987713D01*
X12171803D01*
X12190938Y7941519D01*
X11380017Y7130598D01*
X11359916Y7104402D01*
X11347281Y7073897D01*
X11342971Y7041161D01*
X11342971Y7041159D01*
Y2867192D01*
X10887652Y2411872D01*
X10858712Y2414936D01*
X10830059Y2424991D01*
X10819842Y2442687D01*
X10807551Y2454979D01*
Y2888172D01*
X10832710Y2891484D01*
X10857133Y2901601D01*
X10878106Y2917694D01*
X10894199Y2938667D01*
X10904316Y2963090D01*
X10907766Y2989300D01*
X10904316Y3015510D01*
X10894199Y3039933D01*
X10878106Y3060906D01*
X10857133Y3076999D01*
X10832710Y3087116D01*
X10806500Y3090566D01*
X10656500D01*
X10630290Y3087116D01*
X10605867Y3076999D01*
X10590686Y3065351D01*
X8510301D01*
X7486600Y4089052D01*
Y4197300D01*
X7378352D01*
X7149951Y4425701D01*
Y4994293D01*
X7158241Y5002583D01*
X7172117Y5026617D01*
X7179300Y5053424D01*
Y5081176D01*
X7172117Y5107983D01*
X7158241Y5132017D01*
X7149951Y5140307D01*
Y5248293D01*
X7158241Y5256583D01*
X7172117Y5280617D01*
X7179300Y5307424D01*
Y5335176D01*
X7172117Y5361983D01*
X7158241Y5386017D01*
X7138617Y5405641D01*
X7114583Y5419517D01*
X7103756Y5422418D01*
Y5474182D01*
X7114583Y5477083D01*
X7138617Y5490959D01*
X7158241Y5510583D01*
X7172117Y5534617D01*
X7179300Y5561424D01*
Y5562600D01*
X7073900D01*
X6957882D01*
X6947482Y5555270D01*
X6920502Y5547370D01*
X6807787Y5660085D01*
Y7956551D01*
X6857787Y7969948D01*
X6862559Y7961683D01*
X6882183Y7942059D01*
X6895513Y7934363D01*
Y7327900D01*
X6899424Y7308235D01*
X6910564Y7291564D01*
X7702316Y6499811D01*
X7718987Y6488672D01*
X7734701Y6485546D01*
X7737683Y6474417D01*
X7751559Y6450383D01*
X7771183Y6430759D01*
X7795217Y6416883D01*
X7806044Y6413982D01*
Y6362218D01*
X7795217Y6359317D01*
X7771183Y6345441D01*
X7751559Y6325817D01*
X7737683Y6301783D01*
X7730500Y6274976D01*
Y6247224D01*
X7737683Y6220417D01*
X7751559Y6196383D01*
X7771183Y6176759D01*
X7795217Y6162883D01*
X7806044Y6159982D01*
Y6108218D01*
X7795217Y6105317D01*
X7771183Y6091441D01*
X7751559Y6071817D01*
X7737683Y6047783D01*
X7730500Y6020976D01*
Y5993224D01*
X7737683Y5966417D01*
X7751559Y5942383D01*
X7771183Y5922759D01*
X7795217Y5908883D01*
X7806044Y5905982D01*
Y5854218D01*
X7795217Y5851317D01*
X7771183Y5837441D01*
X7751559Y5817817D01*
X7737683Y5793783D01*
X7730500Y5766976D01*
Y5739224D01*
X7737683Y5712417D01*
X7751559Y5688383D01*
X7771183Y5668759D01*
X7795217Y5654883D01*
X7806044Y5651982D01*
Y5600218D01*
X7795217Y5597317D01*
X7771183Y5583441D01*
X7751559Y5563817D01*
X7737683Y5539783D01*
X7730500Y5512976D01*
Y5485224D01*
X7737683Y5458417D01*
X7751559Y5434383D01*
X7771183Y5414759D01*
X7795217Y5400883D01*
X7806044Y5397982D01*
Y5346218D01*
X7795217Y5343317D01*
X7771183Y5329441D01*
X7751559Y5309817D01*
X7737683Y5285783D01*
X7730500Y5258976D01*
Y5231224D01*
X7737683Y5204417D01*
X7751559Y5180383D01*
X7771183Y5160759D01*
X7795217Y5146883D01*
X7806044Y5143982D01*
Y5092218D01*
X7795217Y5089317D01*
X7771183Y5075441D01*
X7751559Y5055817D01*
X7737683Y5031783D01*
X7730500Y5004976D01*
Y4977224D01*
X7737683Y4950417D01*
X7751559Y4926383D01*
X7771183Y4906759D01*
X7795217Y4892883D01*
X7806044Y4889982D01*
Y4838218D01*
X7795217Y4835317D01*
X7771183Y4821441D01*
X7751559Y4801817D01*
X7737683Y4777783D01*
X7730500Y4750976D01*
Y4723224D01*
X7737683Y4696417D01*
X7751559Y4672383D01*
X7771183Y4652759D01*
X7795217Y4638883D01*
X7806044Y4635982D01*
Y4584218D01*
X7795217Y4581317D01*
X7771183Y4567441D01*
X7751559Y4547817D01*
X7737683Y4523783D01*
X7730500Y4496976D01*
Y4495800D01*
X7835900D01*
X7941300D01*
Y4496976D01*
X7934117Y4523783D01*
X7920241Y4547817D01*
X7900617Y4567441D01*
X7876583Y4581317D01*
X7865756Y4584218D01*
Y4635982D01*
X7876583Y4638883D01*
X7900617Y4652759D01*
X7920241Y4672383D01*
X7927937Y4685713D01*
X8136583D01*
X8140681Y4678615D01*
X8158415Y4660881D01*
X8180135Y4648341D01*
X8204360Y4641850D01*
X8229440D01*
X8253665Y4648341D01*
X8275385Y4660881D01*
X8293119Y4678615D01*
X8305659Y4700335D01*
X8312150Y4724560D01*
Y4749640D01*
X8305659Y4773865D01*
X8293119Y4795585D01*
X8275385Y4813319D01*
X8253665Y4825859D01*
X8229440Y4832350D01*
X8204360D01*
X8180135Y4825859D01*
X8158415Y4813319D01*
X8140681Y4795585D01*
X8136583Y4788487D01*
X7927937D01*
X7920241Y4801817D01*
X7900617Y4821441D01*
X7876583Y4835317D01*
X7865756Y4838218D01*
Y4889982D01*
X7876583Y4892883D01*
X7900617Y4906759D01*
X7920241Y4926383D01*
X7927937Y4939713D01*
X8136583D01*
X8140681Y4932615D01*
X8158415Y4914881D01*
X8180135Y4902341D01*
X8204360Y4895850D01*
X8229440D01*
X8253665Y4902341D01*
X8275385Y4914881D01*
X8293119Y4932615D01*
X8305659Y4954335D01*
X8312150Y4978560D01*
Y5003640D01*
X8305659Y5027865D01*
X8293119Y5049585D01*
X8275385Y5067319D01*
X8253665Y5079859D01*
X8229440Y5086350D01*
X8204360D01*
X8180135Y5079859D01*
X8158415Y5067319D01*
X8140681Y5049585D01*
X8136583Y5042487D01*
X7927937D01*
X7920241Y5055817D01*
X7900617Y5075441D01*
X7876583Y5089317D01*
X7865756Y5092218D01*
Y5143982D01*
X7876583Y5146883D01*
X7900617Y5160759D01*
X7920241Y5180383D01*
X7927937Y5193713D01*
X8136583D01*
X8140681Y5186615D01*
X8158415Y5168881D01*
X8180135Y5156341D01*
X8204360Y5149850D01*
X8229440D01*
X8253665Y5156341D01*
X8275385Y5168881D01*
X8293119Y5186615D01*
X8305659Y5208335D01*
X8312150Y5232560D01*
Y5257640D01*
X8305659Y5281865D01*
X8293119Y5303585D01*
X8275385Y5321319D01*
X8253665Y5333859D01*
X8229440Y5340350D01*
X8204360D01*
X8180135Y5333859D01*
X8158415Y5321319D01*
X8140681Y5303585D01*
X8136583Y5296487D01*
X7927937D01*
X7920241Y5309817D01*
X7900617Y5329441D01*
X7876583Y5343317D01*
X7865756Y5346218D01*
Y5397982D01*
X7876583Y5400883D01*
X7900617Y5414759D01*
X7920241Y5434383D01*
X7927937Y5447713D01*
X8136583D01*
X8140681Y5440615D01*
X8158415Y5422881D01*
X8180135Y5410341D01*
X8204360Y5403850D01*
X8229440D01*
X8253665Y5410341D01*
X8275385Y5422881D01*
X8293119Y5440615D01*
X8305659Y5462335D01*
X8312150Y5486560D01*
Y5511640D01*
X8305659Y5535865D01*
X8293119Y5557585D01*
X8275385Y5575319D01*
X8253665Y5587859D01*
X8229440Y5594350D01*
X8204360D01*
X8180135Y5587859D01*
X8158415Y5575319D01*
X8140681Y5557585D01*
X8136583Y5550487D01*
X7927937D01*
X7920241Y5563817D01*
X7900617Y5583441D01*
X7876583Y5597317D01*
X7865756Y5600218D01*
Y5651982D01*
X7876583Y5654883D01*
X7900617Y5668759D01*
X7920241Y5688383D01*
X7927937Y5701713D01*
X8136583D01*
X8140681Y5694615D01*
X8158415Y5676881D01*
X8180135Y5664341D01*
X8204360Y5657850D01*
X8229440D01*
X8253665Y5664341D01*
X8275385Y5676881D01*
X8293119Y5694615D01*
X8305659Y5716335D01*
X8312150Y5740560D01*
Y5765640D01*
X8305659Y5789865D01*
X8293119Y5811585D01*
X8275385Y5829319D01*
X8253665Y5841859D01*
X8229440Y5848350D01*
X8204360D01*
X8180135Y5841859D01*
X8158415Y5829319D01*
X8140681Y5811585D01*
X8136583Y5804487D01*
X7927937D01*
X7920241Y5817817D01*
X7900617Y5837441D01*
X7876583Y5851317D01*
X7865756Y5854218D01*
Y5905982D01*
X7876583Y5908883D01*
X7900617Y5922759D01*
X7920241Y5942383D01*
X7927937Y5955713D01*
X8136583D01*
X8140681Y5948615D01*
X8158415Y5930881D01*
X8180135Y5918341D01*
X8204360Y5911850D01*
X8229440D01*
X8253665Y5918341D01*
X8275385Y5930881D01*
X8293119Y5948615D01*
X8305659Y5970335D01*
X8312150Y5994560D01*
Y6019640D01*
X8310029Y6027556D01*
X8951736Y6669264D01*
X8962876Y6685935D01*
X8966787Y6705600D01*
Y8932215D01*
X11593336Y11558764D01*
X11604476Y11575435D01*
X11608387Y11595100D01*
Y13059715D01*
X12786585Y14237914D01*
X12800591Y14234160D01*
X12828011D01*
X12854497Y14241257D01*
X12878242Y14254967D01*
X12897633Y14274358D01*
X12911343Y14298103D01*
X12914368Y14309389D01*
X12916725Y14318188D01*
X12965875D01*
X12971257Y14298103D01*
X12984967Y14274358D01*
X13004356Y14254967D01*
X13028104Y14241257D01*
X13054590Y14234160D01*
X13055600D01*
Y14338300D01*
Y14442439D01*
X13054590D01*
X13028104Y14435342D01*
X13004356Y14421632D01*
X12984967Y14402243D01*
X12971257Y14378497D01*
X12968233Y14367212D01*
X12965875Y14358412D01*
X12916725D01*
X12911343Y14378497D01*
X12897633Y14402243D01*
X12878242Y14421632D01*
X12854497Y14435342D01*
X12828011Y14442439D01*
X12800591D01*
X12774103Y14435342D01*
X12750357Y14421632D01*
X12730967Y14402243D01*
X12717257Y14378497D01*
X12710160Y14352010D01*
Y14324590D01*
X12713913Y14310585D01*
X11520664Y13117336D01*
X11509524Y13100665D01*
X11505613Y13081000D01*
Y11616385D01*
X8879064Y8989836D01*
X8867924Y8973165D01*
X8864013Y8953500D01*
Y6726885D01*
X8371227Y6234099D01*
X8322124Y6255707D01*
X8318757Y6290285D01*
X8558036Y6529564D01*
X8569176Y6546235D01*
X8573087Y6565900D01*
Y8944915D01*
X11288536Y11660364D01*
X11299676Y11677035D01*
X11303587Y11696700D01*
Y13656615D01*
X11884885Y14237914D01*
X11898890Y14234160D01*
X11926310D01*
X11952797Y14241257D01*
X11976543Y14254967D01*
X11995933Y14274358D01*
X12009643Y14298103D01*
X12012667Y14309389D01*
X12015025Y14318188D01*
X12064175D01*
X12069557Y14298103D01*
X12083267Y14274358D01*
X12102657Y14254967D01*
X12126403Y14241257D01*
X12152890Y14234160D01*
X12153900D01*
Y14338300D01*
Y14442439D01*
X12152890D01*
X12126403Y14435342D01*
X12102657Y14421632D01*
X12083267Y14402243D01*
X12069557Y14378497D01*
X12066533Y14367212D01*
X12064175Y14358412D01*
X12015025D01*
X12009643Y14378497D01*
X11995933Y14402243D01*
X11976543Y14421632D01*
X11952797Y14435342D01*
X11926310Y14442439D01*
X11898890D01*
X11872403Y14435342D01*
X11848657Y14421632D01*
X11829267Y14402243D01*
X11815557Y14378497D01*
X11808460Y14352010D01*
Y14324590D01*
X11812213Y14310585D01*
X11215864Y13714236D01*
X11204724Y13697565D01*
X11200813Y13677901D01*
Y11717985D01*
X8485364Y9002536D01*
X8474224Y8985865D01*
X8470313Y8966200D01*
Y6587185D01*
X8355944Y6472816D01*
X8311115Y6498698D01*
X8312150Y6502560D01*
Y6527640D01*
X8305659Y6551865D01*
X8293119Y6573585D01*
X8275385Y6591319D01*
X8253665Y6603859D01*
X8229440Y6610350D01*
X8204360D01*
X8180135Y6603859D01*
X8158415Y6591319D01*
X8140681Y6573585D01*
X8136583Y6566487D01*
X7927937D01*
X7920241Y6579817D01*
X7900617Y6599441D01*
X7876583Y6613317D01*
X7865756Y6616218D01*
Y6667982D01*
X7876583Y6670883D01*
X7900617Y6684759D01*
X7920241Y6704383D01*
X7927937Y6717713D01*
X8136583D01*
X8140681Y6710615D01*
X8158415Y6692881D01*
X8180135Y6680341D01*
X8204360Y6673850D01*
X8229440D01*
X8253665Y6680341D01*
X8275385Y6692881D01*
X8293119Y6710615D01*
X8305659Y6732335D01*
X8312150Y6756560D01*
Y6781640D01*
X8305659Y6805865D01*
X8293119Y6827585D01*
X8275385Y6845319D01*
X8253665Y6857859D01*
X8229440Y6864350D01*
X8204360D01*
X8180135Y6857859D01*
X8158415Y6845319D01*
X8140681Y6827585D01*
X8136583Y6820487D01*
X7927937D01*
X7920241Y6833817D01*
X7900617Y6853441D01*
X7876583Y6867317D01*
X7865756Y6870218D01*
Y6921982D01*
X7876583Y6924883D01*
X7900617Y6938759D01*
X7920241Y6958383D01*
X7927937Y6971713D01*
X8136583D01*
X8140681Y6964615D01*
X8158415Y6946881D01*
X8180135Y6934341D01*
X8204360Y6927850D01*
X8229440D01*
X8253665Y6934341D01*
X8275385Y6946881D01*
X8293119Y6964615D01*
X8305659Y6986335D01*
X8312150Y7010560D01*
Y7035640D01*
X8305659Y7059865D01*
X8293119Y7081585D01*
X8275385Y7099319D01*
X8253665Y7111859D01*
X8229440Y7118350D01*
X8204360D01*
X8180135Y7111859D01*
X8158415Y7099319D01*
X8140681Y7081585D01*
X8136583Y7074487D01*
X7927937D01*
X7920241Y7087817D01*
X7900617Y7107441D01*
X7876583Y7121317D01*
X7865756Y7124218D01*
Y7175982D01*
X7876583Y7178883D01*
X7900617Y7192759D01*
X7920241Y7212383D01*
X7927937Y7225713D01*
X8136583D01*
X8140681Y7218615D01*
X8158415Y7200881D01*
X8180135Y7188341D01*
X8204360Y7181850D01*
X8229440D01*
X8253665Y7188341D01*
X8275385Y7200881D01*
X8293119Y7218615D01*
X8305659Y7240335D01*
X8312150Y7264560D01*
Y7289640D01*
X8305659Y7313865D01*
X8293119Y7335585D01*
X8275385Y7353319D01*
X8253665Y7365859D01*
X8229440Y7372350D01*
X8204360D01*
X8180135Y7365859D01*
X8158415Y7353319D01*
X8140681Y7335585D01*
X8136583Y7328487D01*
X7927937D01*
X7920241Y7341817D01*
X7900617Y7361441D01*
X7876583Y7375317D01*
X7865756Y7378218D01*
Y7429982D01*
X7876583Y7432883D01*
X7900617Y7446759D01*
X7920241Y7466383D01*
X7927937Y7479713D01*
X8136583D01*
X8140681Y7472615D01*
X8158415Y7454881D01*
X8180135Y7442341D01*
X8204360Y7435850D01*
X8229440D01*
X8253665Y7442341D01*
X8275385Y7454881D01*
X8293119Y7472615D01*
X8305659Y7494335D01*
X8312150Y7518560D01*
Y7543640D01*
X8305659Y7567865D01*
X8293119Y7589585D01*
X8275385Y7607319D01*
X8253665Y7619859D01*
X8229440Y7626350D01*
X8204360D01*
X8180135Y7619859D01*
X8158415Y7607319D01*
X8140681Y7589585D01*
X8136583Y7582487D01*
X7927937D01*
X7920241Y7595817D01*
X7900617Y7615441D01*
X7876583Y7629317D01*
X7865756Y7632218D01*
Y7683982D01*
X7876583Y7686883D01*
X7900617Y7700759D01*
X7920241Y7720383D01*
X7927937Y7733713D01*
X8136583D01*
X8140681Y7726615D01*
X8158415Y7708881D01*
X8180135Y7696341D01*
X8204360Y7689850D01*
X8229440D01*
X8253665Y7696341D01*
X8275385Y7708881D01*
X8293119Y7726615D01*
X8305659Y7748335D01*
X8312150Y7772560D01*
Y7797640D01*
X8305659Y7821865D01*
X8293119Y7843585D01*
X8275385Y7861319D01*
X8253665Y7873859D01*
X8229440Y7880350D01*
X8204360D01*
X8180135Y7873859D01*
X8158415Y7861319D01*
X8140681Y7843585D01*
X8136583Y7836487D01*
X7927937D01*
X7920241Y7849817D01*
X7900617Y7869441D01*
X7876583Y7883317D01*
X7865756Y7886218D01*
Y7937982D01*
X7876583Y7940883D01*
X7900617Y7954759D01*
X7920241Y7974383D01*
X7927937Y7987713D01*
X8136583D01*
X8140681Y7980615D01*
X8158415Y7962881D01*
X8180135Y7950341D01*
X8204360Y7943850D01*
X8229440D01*
X8253665Y7950341D01*
X8275385Y7962881D01*
X8293119Y7980615D01*
X8305659Y8002335D01*
X8312150Y8026560D01*
Y8051640D01*
X8305659Y8075865D01*
X8293119Y8097585D01*
X8275385Y8115319D01*
X8253665Y8127859D01*
X8229440Y8134350D01*
X8204360D01*
X8180135Y8127859D01*
X8158415Y8115319D01*
X8140681Y8097585D01*
X8136583Y8090487D01*
X7927937D01*
X7920241Y8103817D01*
X7900617Y8123441D01*
X7876583Y8137317D01*
X7865756Y8140218D01*
Y8191982D01*
X7876583Y8194883D01*
X7900617Y8208759D01*
X7920241Y8228383D01*
X7927937Y8241713D01*
X8136583D01*
X8140681Y8234615D01*
X8158415Y8216881D01*
X8180135Y8204341D01*
X8204360Y8197850D01*
X8229440D01*
X8253665Y8204341D01*
X8275385Y8216881D01*
X8293119Y8234615D01*
X8305659Y8256335D01*
X8312150Y8280560D01*
Y8305640D01*
X8305659Y8329865D01*
X8293119Y8351585D01*
X8275385Y8369319D01*
X8253665Y8381859D01*
X8229440Y8388350D01*
X8204360D01*
X8180135Y8381859D01*
X8158415Y8369319D01*
X8140681Y8351585D01*
X8136583Y8344487D01*
X7927937D01*
X7920241Y8357817D01*
X7900617Y8377441D01*
X7876583Y8391317D01*
X7865756Y8394218D01*
Y8445982D01*
X7876583Y8448883D01*
X7900617Y8462759D01*
X7920241Y8482383D01*
X7927937Y8495713D01*
X8136583D01*
X8140681Y8488615D01*
X8158415Y8470881D01*
X8180135Y8458341D01*
X8204360Y8451850D01*
X8229440D01*
X8253665Y8458341D01*
X8275385Y8470881D01*
X8293119Y8488615D01*
X8305659Y8510335D01*
X8312150Y8534560D01*
Y8559640D01*
X8305659Y8583865D01*
X8293119Y8605585D01*
X8275385Y8623319D01*
X8253665Y8635859D01*
X8229440Y8642350D01*
X8204360D01*
X8180135Y8635859D01*
X8158415Y8623319D01*
X8140681Y8605585D01*
X8136583Y8598487D01*
X7927937D01*
X7920241Y8611817D01*
X7900617Y8631441D01*
X7876583Y8645317D01*
X7865756Y8648218D01*
Y8699982D01*
X7876583Y8702883D01*
X7900617Y8716759D01*
X7920241Y8736383D01*
X7927937Y8749713D01*
X8136583D01*
X8140681Y8742615D01*
X8158415Y8724881D01*
X8180135Y8712341D01*
X8204360Y8705850D01*
X8229440D01*
X8253665Y8712341D01*
X8275385Y8724881D01*
X8293119Y8742615D01*
X8305659Y8764335D01*
X8312150Y8788560D01*
Y8813640D01*
X8305659Y8837865D01*
X8293119Y8859585D01*
X8275385Y8877319D01*
X8253665Y8889859D01*
X8229440Y8896350D01*
X8204360D01*
X8180135Y8889859D01*
X8158415Y8877319D01*
X8140681Y8859585D01*
X8136583Y8852487D01*
X7927937D01*
X7920241Y8865817D01*
X7900617Y8885441D01*
X7876583Y8899317D01*
X7865756Y8902218D01*
Y8953982D01*
X7876583Y8956883D01*
X7900617Y8970759D01*
X7920241Y8990383D01*
X7927937Y9003713D01*
X8136583D01*
X8140681Y8996615D01*
X8158415Y8978881D01*
X8180135Y8966341D01*
X8204360Y8959850D01*
X8229440D01*
X8253665Y8966341D01*
X8275385Y8978881D01*
X8293119Y8996615D01*
X8305659Y9018335D01*
X8312150Y9042560D01*
Y9067640D01*
X8310029Y9075556D01*
X10971036Y11736564D01*
X10982176Y11753235D01*
X10986087Y11772900D01*
Y13268362D01*
X10999417Y13276059D01*
X11019041Y13295683D01*
X11032917Y13319717D01*
X11040100Y13346524D01*
Y13374277D01*
X11032917Y13401083D01*
X11019041Y13425117D01*
X10999417Y13444740D01*
X10992747Y13448592D01*
X10993130Y13502257D01*
X10993430Y13502995D01*
X10997941Y13504863D01*
X11024136Y13524963D01*
X11044237Y13551160D01*
X11056872Y13581664D01*
X11061182Y13614400D01*
X11056872Y13647136D01*
X11044237Y13677641D01*
X11024136Y13703836D01*
X11014185Y13711472D01*
X11010398Y13722520D01*
Y13760281D01*
X11014185Y13771329D01*
X11024136Y13778964D01*
X11044236Y13805159D01*
X11056872Y13835664D01*
X11061182Y13868401D01*
X11056872Y13901135D01*
X11044236Y13931641D01*
X11024136Y13957835D01*
X10998736Y13983237D01*
X10999336Y14031480D01*
X11003762Y14042404D01*
X11019041Y14057683D01*
X11032917Y14081717D01*
X11040100Y14108524D01*
Y14136276D01*
X11036116Y14151144D01*
X11578285Y14693314D01*
X13097815D01*
X13466212Y14324915D01*
D02*
G37*
G36*
X10833284Y14151144D02*
X10829300Y14136276D01*
Y14108524D01*
X10836483Y14081717D01*
X10843085Y14070282D01*
X10828188Y14032790D01*
X10817049Y14020282D01*
X10235070D01*
Y14295277D01*
X10230760Y14328015D01*
X10222982Y14346793D01*
Y14439900D01*
X10218672Y14472636D01*
X10210800Y14491643D01*
Y14554201D01*
X10148242D01*
X10129236Y14562073D01*
X10096500Y14566382D01*
X10063764Y14562073D01*
X10044758Y14554201D01*
X9982200D01*
Y14491643D01*
X9974328Y14472636D01*
X9970018Y14439900D01*
Y14307368D01*
X9970018Y14307365D01*
X9974328Y14274631D01*
X9982106Y14255852D01*
Y13894414D01*
X9982106Y13894412D01*
X9982200Y13893695D01*
Y13877080D01*
X9990855Y13844780D01*
X10007575Y13815820D01*
X10031220Y13792175D01*
X10060180Y13775455D01*
X10092480Y13766800D01*
X10125920D01*
X10127852Y13767319D01*
X10659012D01*
X10666842Y13751842D01*
X10672333Y13717319D01*
X10654764Y13703836D01*
X10260009Y13309082D01*
X10121902D01*
X10121900Y13309082D01*
X10089164Y13304771D01*
X10070159Y13296899D01*
X10007600D01*
Y13234341D01*
X9999728Y13215337D01*
X9995418Y13182600D01*
X9999728Y13149864D01*
X10007600Y13130859D01*
Y13068300D01*
X10008118D01*
Y12667852D01*
X10007600Y12665920D01*
Y12632480D01*
X10016255Y12600180D01*
X10032975Y12571220D01*
X10056620Y12547575D01*
X10085580Y12530855D01*
X10117880Y12522200D01*
X10151320D01*
X10183620Y12530855D01*
X10212580Y12547575D01*
X10236225Y12571220D01*
X10252945Y12600180D01*
X10261600Y12632480D01*
Y12665920D01*
X10261082Y12667852D01*
Y13056117D01*
X10312398D01*
X10312400Y13056117D01*
X10345136Y13060428D01*
X10375641Y13073064D01*
X10401837Y13093164D01*
X10796591Y13487918D01*
X10844888D01*
X10857797Y13465707D01*
X10863160Y13437918D01*
X10850359Y13425117D01*
X10836483Y13401083D01*
X10829300Y13374277D01*
Y13346524D01*
X10836483Y13319717D01*
X10850359Y13295683D01*
X10869983Y13276059D01*
X10883313Y13268362D01*
Y11794185D01*
X8355944Y9266816D01*
X8311115Y9292698D01*
X8312150Y9296560D01*
Y9321640D01*
X8305659Y9345865D01*
X8293119Y9367585D01*
X8275385Y9385319D01*
X8253665Y9397859D01*
X8229440Y9404350D01*
X8204360D01*
X8180135Y9397859D01*
X8158415Y9385319D01*
X8140681Y9367585D01*
X8136583Y9360487D01*
X7927937D01*
X7920241Y9373817D01*
X7900617Y9393441D01*
X7876583Y9407317D01*
X7865756Y9410218D01*
Y9461982D01*
X7876583Y9464883D01*
X7900617Y9478759D01*
X7920241Y9498383D01*
X7927937Y9511713D01*
X8136583D01*
X8140681Y9504615D01*
X8158415Y9486881D01*
X8180135Y9474341D01*
X8204360Y9467850D01*
X8229440D01*
X8253665Y9474341D01*
X8275385Y9486881D01*
X8293119Y9504615D01*
X8305659Y9526335D01*
X8312150Y9550560D01*
Y9575640D01*
X8305659Y9599865D01*
X8293119Y9621585D01*
X8275385Y9639319D01*
X8253665Y9651859D01*
X8229440Y9658350D01*
X8204360D01*
X8180135Y9651859D01*
X8158415Y9639319D01*
X8140681Y9621585D01*
X8136583Y9614487D01*
X7927937D01*
X7920241Y9627817D01*
X7900617Y9647441D01*
X7876583Y9661317D01*
X7865756Y9664218D01*
Y9715982D01*
X7876583Y9718883D01*
X7900617Y9732759D01*
X7920241Y9752383D01*
X7927937Y9765713D01*
X8136583D01*
X8140681Y9758615D01*
X8158415Y9740881D01*
X8180135Y9728341D01*
X8204360Y9721850D01*
X8229440D01*
X8253665Y9728341D01*
X8275385Y9740881D01*
X8293119Y9758615D01*
X8305659Y9780335D01*
X8312150Y9804560D01*
Y9829640D01*
X8305659Y9853865D01*
X8293119Y9875585D01*
X8275385Y9893319D01*
X8253665Y9905859D01*
X8229440Y9912350D01*
X8204360D01*
X8180135Y9905859D01*
X8158415Y9893319D01*
X8140681Y9875585D01*
X8136583Y9868487D01*
X7927937D01*
X7920241Y9881817D01*
X7900617Y9901441D01*
X7876583Y9915317D01*
X7849776Y9922500D01*
X7822024D01*
X7795217Y9915317D01*
X7771183Y9901441D01*
X7751559Y9881817D01*
X7737683Y9857783D01*
X7730500Y9830976D01*
Y9803224D01*
X7737683Y9776417D01*
X7751559Y9752383D01*
X7771183Y9732759D01*
X7795217Y9718883D01*
X7806044Y9715982D01*
Y9664218D01*
X7795217Y9661317D01*
X7771183Y9647441D01*
X7751559Y9627817D01*
X7737683Y9603783D01*
X7730500Y9576976D01*
Y9549224D01*
X7737683Y9522417D01*
X7751559Y9498383D01*
X7771183Y9478759D01*
X7795217Y9464883D01*
X7806044Y9461982D01*
Y9410218D01*
X7795217Y9407317D01*
X7771183Y9393441D01*
X7751559Y9373817D01*
X7737683Y9349783D01*
X7730500Y9322976D01*
Y9295224D01*
X7737683Y9268417D01*
X7751559Y9244383D01*
X7771183Y9224759D01*
X7795217Y9210883D01*
X7806044Y9207982D01*
Y9156218D01*
X7795217Y9153317D01*
X7771183Y9139441D01*
X7751559Y9119817D01*
X7737683Y9095783D01*
X7730500Y9068976D01*
Y9041224D01*
X7731979Y9035704D01*
X7687150Y9009822D01*
X7635229Y9061743D01*
Y9827858D01*
X7631318Y9847523D01*
X7620178Y9864194D01*
X7048316Y10436056D01*
X7052300Y10450924D01*
Y10478676D01*
X7045117Y10505483D01*
X7031241Y10529517D01*
X7011617Y10549141D01*
X6987583Y10563017D01*
X6976756Y10565918D01*
Y10617682D01*
X6987583Y10620583D01*
X7011617Y10634459D01*
X7031241Y10654083D01*
X7045117Y10678117D01*
X7052300Y10704924D01*
Y10732676D01*
X7045117Y10759483D01*
X7031241Y10783517D01*
X7011617Y10803141D01*
X6987583Y10817017D01*
X6976756Y10819918D01*
Y10871682D01*
X6987583Y10874583D01*
X7011617Y10888459D01*
X7031241Y10908083D01*
X7045117Y10932117D01*
X7052300Y10958924D01*
Y10960100D01*
X6946900D01*
Y10985500D01*
X7052300D01*
Y10986676D01*
X7045117Y11013483D01*
X7031241Y11037517D01*
X7011617Y11057141D01*
X6987583Y11071017D01*
X6976756Y11073918D01*
Y11125682D01*
X6987583Y11128583D01*
X7011617Y11142459D01*
X7031241Y11162083D01*
X7045117Y11186117D01*
X7052300Y11212924D01*
Y11214100D01*
X6946900D01*
Y11226800D01*
X6934200D01*
Y11332200D01*
X6933024D01*
X6906217Y11325017D01*
X6895887Y11319053D01*
X6856797Y11335212D01*
X6845887Y11345556D01*
Y14202715D01*
X7361885Y14718713D01*
X10265715D01*
X10833284Y14151144D01*
D02*
G37*
G36*
X13466212Y12496115D02*
Y12049321D01*
X13445995Y12033806D01*
X13429901Y12012833D01*
X13419785Y11988410D01*
X13416335Y11962200D01*
Y11938587D01*
X12951363D01*
X12945441Y11948847D01*
X12926747Y11967540D01*
X12903853Y11980758D01*
X12878317Y11987600D01*
X12851881D01*
X12826347Y11980758D01*
X12803453Y11967540D01*
X12784760Y11948847D01*
X12771542Y11925953D01*
X12764700Y11900418D01*
Y11873982D01*
X12771542Y11848447D01*
X12784760Y11825553D01*
X12803453Y11806860D01*
X12826347Y11793642D01*
X12851881Y11786800D01*
X12878317D01*
X12903853Y11793642D01*
X12926747Y11806860D01*
X12945441Y11825553D01*
X12951363Y11835813D01*
X13416335D01*
Y11812200D01*
X13419785Y11785990D01*
X13429901Y11761567D01*
X13445995Y11740594D01*
X13466966Y11724501D01*
X13486794Y11716288D01*
X13489259Y11703901D01*
X13500398Y11687230D01*
X13965913Y11221714D01*
X13930617Y11186300D01*
X13880734Y11186300D01*
X13842999D01*
Y11023600D01*
X13930701D01*
Y11136300D01*
X13930701Y11186217D01*
X13966113Y11221513D01*
X14159914Y11027715D01*
Y9774783D01*
X13606500Y9221370D01*
X13164934Y9662936D01*
X13148264Y9674076D01*
X13128598Y9677987D01*
X12953999D01*
X12934335Y9674076D01*
X12917664Y9662936D01*
X12803365Y9548636D01*
X12792224Y9531965D01*
X12788313Y9512300D01*
Y8937402D01*
X12738313Y8916691D01*
X12666768Y8988236D01*
X12650097Y8999376D01*
X12649140Y8999566D01*
X12630952Y9022548D01*
X12622201Y9038819D01*
X12618850Y9053287D01*
X12622600Y9067282D01*
Y9093718D01*
X12615758Y9119253D01*
X12602540Y9142147D01*
X12583847Y9160840D01*
X12560953Y9174058D01*
X12535418Y9180900D01*
X12508982D01*
X12483447Y9174058D01*
X12460553Y9160840D01*
X12441860Y9142147D01*
X12428642Y9119253D01*
X12421800Y9093718D01*
Y9067282D01*
X12428642Y9041747D01*
X12441860Y9018853D01*
X12460553Y9000160D01*
X12483447Y8986942D01*
X12478702Y8939650D01*
X12467864Y8912844D01*
X12463998Y8908829D01*
X12460553Y8906840D01*
X12441860Y8888147D01*
X12435937Y8877887D01*
X11747500D01*
X11727835Y8873976D01*
X11711164Y8862836D01*
X11446815Y8598487D01*
X10963237D01*
X10955541Y8611817D01*
X10935917Y8631441D01*
X10911883Y8645317D01*
X10901056Y8648218D01*
Y8699982D01*
X10911883Y8702883D01*
X10935917Y8716759D01*
X10955541Y8736383D01*
X10963237Y8749713D01*
X11016276D01*
X11035942Y8753624D01*
X11052613Y8764764D01*
X13026836Y10738987D01*
X13037976Y10755658D01*
X13041887Y10775324D01*
Y11431142D01*
X13037976Y11450807D01*
X13026836Y11467478D01*
X12953378Y11540936D01*
X12945885Y11569841D01*
X12958041Y11593378D01*
X12958658Y11594447D01*
X12965500Y11619982D01*
Y11646418D01*
X12958658Y11671953D01*
X12945441Y11694847D01*
X12926747Y11713540D01*
X12903853Y11726758D01*
X12878317Y11733600D01*
X12851881D01*
X12826347Y11726758D01*
X12803453Y11713540D01*
X12793634Y11703721D01*
X12740251D01*
X12454434Y11989539D01*
X12457500Y12000982D01*
Y12027418D01*
X12450658Y12052953D01*
X12437440Y12075847D01*
X12418747Y12094540D01*
X12395853Y12107758D01*
X12370318Y12114600D01*
X12343882D01*
X12318347Y12107758D01*
X12295453Y12094540D01*
X12276760Y12075847D01*
X12263542Y12052953D01*
X12256700Y12027418D01*
Y12000982D01*
X12263542Y11975447D01*
X12276760Y11952553D01*
X12295453Y11933860D01*
X12318347Y11920642D01*
X12340625Y11914673D01*
X12344708Y11912530D01*
X12345965Y11910600D01*
X12345545Y11900536D01*
X12322564Y11854888D01*
X12318347Y11853758D01*
X12295453Y11840540D01*
X12276760Y11821847D01*
X12263542Y11798953D01*
X12256700Y11773418D01*
Y11772900D01*
X12357100D01*
Y11747500D01*
X12256700D01*
Y11746982D01*
X12260450Y11732987D01*
X12243317Y11699554D01*
X12228012Y11682987D01*
X12088800D01*
X12069135Y11679076D01*
X12052464Y11667936D01*
X12003264Y11618736D01*
X11992124Y11602065D01*
X11988213Y11582400D01*
Y10498785D01*
X11224971Y9735544D01*
X11181509Y9761272D01*
X11185959Y9772017D01*
X11188551Y9791700D01*
Y10164974D01*
X11195833Y10172257D01*
X11209543Y10196003D01*
X11216640Y10222490D01*
Y10249910D01*
X11209543Y10276397D01*
X11195833Y10300143D01*
X11176443Y10319533D01*
X11152697Y10333243D01*
X11132611Y10338625D01*
Y10387775D01*
X11152697Y10393157D01*
X11176443Y10406867D01*
X11195833Y10426257D01*
X11209543Y10450003D01*
X11216640Y10476490D01*
Y10503910D01*
X11212887Y10517915D01*
X11755448Y11060475D01*
X11766587Y11077146D01*
X11770499Y11096811D01*
Y12396326D01*
X12238685Y12864513D01*
X13097815D01*
X13466212Y12496115D01*
D02*
G37*
G36*
X7524205Y9814822D02*
X7519814Y9778436D01*
X7470778Y9759595D01*
X7059977Y10170396D01*
X7063445Y10206991D01*
X7113281Y10225746D01*
X7524205Y9814822D01*
D02*
G37*
G36*
X12238925Y11568175D02*
X12259593Y11530213D01*
X12256700Y11519418D01*
Y11492982D01*
X12263542Y11467447D01*
X12276760Y11444553D01*
X12295453Y11425860D01*
X12318347Y11412642D01*
X12343882Y11405800D01*
X12370318D01*
X12395853Y11412642D01*
X12418747Y11425860D01*
X12437440Y11444553D01*
X12440670Y11450147D01*
X12666031D01*
X12681199Y11400147D01*
X12680253Y11399515D01*
X12650964Y11370226D01*
X12639824Y11353555D01*
X12635913Y11333889D01*
Y10892485D01*
X11037581Y9294154D01*
X10987745Y9312909D01*
X10984277Y9349504D01*
X12075936Y10441164D01*
X12087076Y10457835D01*
X12090987Y10477500D01*
Y11561115D01*
X12110085Y11580213D01*
X12226164D01*
X12238925Y11568175D01*
D02*
G37*
G36*
X8140681Y9250615D02*
X8158415Y9232881D01*
X8180135Y9220341D01*
X8197520Y9215683D01*
X8200223Y9213684D01*
X8210302Y9197928D01*
X8223020Y9163850D01*
X8212826Y9150350D01*
X8204360D01*
X8180135Y9143859D01*
X8158415Y9131319D01*
X8140681Y9113585D01*
X8136583Y9106487D01*
X7927937D01*
X7920241Y9119817D01*
X7900617Y9139441D01*
X7876583Y9153317D01*
X7865756Y9156218D01*
Y9207982D01*
X7876583Y9210883D01*
X7900617Y9224759D01*
X7920241Y9244383D01*
X7927937Y9257713D01*
X8136583D01*
X8140681Y9250615D01*
D02*
G37*
G36*
X13555113Y9127412D02*
Y9009674D01*
X13507973Y8998936D01*
X13495337Y9029441D01*
X13475237Y9055636D01*
X13475235Y9055637D01*
X13284737Y9246136D01*
X13258540Y9266237D01*
X13228036Y9278872D01*
X13195300Y9283182D01*
X13195297Y9283182D01*
X13133391D01*
X13119637Y9296936D01*
X13093440Y9317037D01*
X13083734Y9321058D01*
X13080144Y9332443D01*
X13082423Y9375720D01*
X13091847Y9381160D01*
X13110539Y9399853D01*
X13123758Y9422747D01*
X13130600Y9448282D01*
Y9448800D01*
X13030200D01*
Y9474200D01*
X13130600D01*
Y9474718D01*
X13128223Y9483592D01*
X13173051Y9509474D01*
X13555113Y9127412D01*
D02*
G37*
G36*
X12749549Y10817120D02*
X12764700Y10806745D01*
Y10770800D01*
X12847977D01*
X12867110Y10724606D01*
X11008103Y8865599D01*
X10955541Y8865817D01*
X10935917Y8885441D01*
X10911883Y8899317D01*
X10901056Y8902218D01*
Y8953982D01*
X10911883Y8956883D01*
X10935917Y8970759D01*
X10955541Y8990383D01*
X10969417Y9014417D01*
X10976600Y9041224D01*
Y9068976D01*
X10972616Y9083844D01*
X12714700Y10825928D01*
X12749549Y10817120D01*
D02*
G37*
G36*
X7722823Y8587504D02*
X7719355Y8550909D01*
X7669519Y8532154D01*
X7412937Y8788736D01*
X7417328Y8825122D01*
X7466364Y8843963D01*
X7722823Y8587504D01*
D02*
G37*
G36*
X12415602Y8760749D02*
X12424798Y8725113D01*
X12167773Y8468088D01*
X11530565D01*
X11517799Y8488938D01*
X11511761Y8518088D01*
X11768785Y8775113D01*
X12405677D01*
X12415602Y8760749D01*
D02*
G37*
G36*
X12131456Y8315314D02*
X12114497Y8292951D01*
X11394336D01*
X11390047Y8297240D01*
X11367153Y8310458D01*
X11349030Y8315314D01*
X11355613Y8365314D01*
X12106621D01*
X12131456Y8315314D01*
D02*
G37*
G36*
X13259319Y8913809D02*
Y8316082D01*
X13211472Y8268236D01*
X13211472Y8268235D01*
X13178156Y8234920D01*
X13130602Y8245158D01*
X13125368Y8290653D01*
X13191936Y8357222D01*
X13203076Y8373893D01*
X13206987Y8393558D01*
Y8497442D01*
X13203076Y8517107D01*
X13191936Y8533778D01*
X13116879Y8608836D01*
X13110539Y8637853D01*
X13123758Y8660747D01*
X13130600Y8686282D01*
Y8712718D01*
X13123758Y8738253D01*
X13110539Y8761147D01*
X13091847Y8779840D01*
X13068953Y8793058D01*
X13046675Y8799027D01*
X13042592Y8801170D01*
X13041335Y8803100D01*
X13041756Y8813164D01*
X13064735Y8858812D01*
X13068953Y8859942D01*
X13091847Y8873160D01*
X13110539Y8891853D01*
X13123758Y8914747D01*
X13130600Y8940282D01*
Y8966718D01*
X13128734Y8973683D01*
X13173563Y8999565D01*
X13259319Y8913809D01*
D02*
G37*
G36*
X12381778Y8269350D02*
X12389574Y8261612D01*
X12389008Y8257980D01*
X12221515Y8090487D01*
X11469580D01*
X11442298Y8140141D01*
X11444242Y8140849D01*
X12166600D01*
X12186283Y8143441D01*
X12204625Y8151038D01*
X12220376Y8163124D01*
X12334357Y8277105D01*
X12381778Y8269350D01*
D02*
G37*
G36*
X11307770Y8315314D02*
X11289647Y8310458D01*
X11266753Y8297240D01*
X11248060Y8278547D01*
X11234842Y8255653D01*
X11228000Y8230118D01*
Y8229600D01*
X11328400D01*
Y8204200D01*
X11228000D01*
Y8203682D01*
X11234842Y8178147D01*
X11248060Y8155253D01*
X11262826Y8140487D01*
X11260909Y8123231D01*
X11246553Y8090487D01*
X10963237D01*
X10955541Y8103817D01*
X10935917Y8123441D01*
X10911883Y8137317D01*
X10901056Y8140218D01*
Y8191982D01*
X10911883Y8194883D01*
X10935917Y8208759D01*
X10955541Y8228383D01*
X10969417Y8252417D01*
X10976600Y8279224D01*
Y8306976D01*
X10974366Y8315314D01*
X10998689Y8357131D01*
X11008948Y8365314D01*
X11301187D01*
X11307770Y8315314D01*
D02*
G37*
G36*
X12670785Y8554900D02*
X12941922Y8283764D01*
X12949416Y8254859D01*
X12937259Y8231322D01*
X12936642Y8230253D01*
X12929800Y8204718D01*
Y8178282D01*
X12936642Y8152747D01*
X12949860Y8129853D01*
X12962309Y8117404D01*
X12962421Y8117276D01*
X12968484Y8099008D01*
X12968233Y8054406D01*
X12940764Y8026936D01*
X12935912Y8020613D01*
X12926210Y8016754D01*
X12882188Y8016698D01*
X12874487Y8019892D01*
X12870363Y8024916D01*
X12723916Y8171363D01*
X12701015Y8190158D01*
X12674887Y8204124D01*
X12646537Y8212724D01*
X12630683Y8214285D01*
X12611954Y8242613D01*
X12607606Y8265628D01*
X12615758Y8279747D01*
X12622600Y8305282D01*
Y8331718D01*
X12615758Y8357253D01*
X12602540Y8380147D01*
X12583847Y8398840D01*
X12560953Y8412058D01*
X12555236Y8464495D01*
X12560678Y8478868D01*
X12560953Y8478942D01*
X12583847Y8492160D01*
X12602540Y8510853D01*
X12615758Y8533747D01*
X12616914Y8538061D01*
X12667158Y8555230D01*
X12670785Y8554900D01*
D02*
G37*
G36*
X7276513Y8062528D02*
Y7983117D01*
X7226887Y7982214D01*
X7222976Y8001879D01*
X7211836Y8018550D01*
X7048233Y8182153D01*
X7057918Y8216245D01*
X7111510Y8227531D01*
X7276513Y8062528D01*
D02*
G37*
G36*
X14122549Y7893299D02*
Y7308601D01*
X13114124Y6300176D01*
X13102039Y6284425D01*
X13102016Y6284372D01*
X13068340Y6261329D01*
X13042770Y6256670D01*
X13030717Y6259900D01*
X13030200D01*
Y6159500D01*
X13017500D01*
Y6146800D01*
X12917101D01*
Y6146282D01*
X12923943Y6120747D01*
X12937160Y6097853D01*
X12955853Y6079160D01*
X12965833Y6073398D01*
X12978017Y6032485D01*
X12977625Y6014479D01*
X12973291Y6010145D01*
X12961205Y5994395D01*
X12958231Y5987212D01*
X12955853Y5985840D01*
X12937160Y5967147D01*
X12923943Y5944253D01*
X12917101Y5918718D01*
Y5892282D01*
X12923943Y5866747D01*
X12937160Y5843853D01*
X12955853Y5825160D01*
X12978748Y5811942D01*
X13004282Y5805100D01*
X13030717D01*
X13056253Y5811942D01*
X13079147Y5825160D01*
X13083437Y5829449D01*
X14128999D01*
X14376549Y5581899D01*
Y5149601D01*
X14227316Y5000369D01*
X13306319D01*
X13286635Y4997777D01*
X13268294Y4990180D01*
X13252542Y4978094D01*
X13167900Y4893452D01*
X13142601Y4898140D01*
X13115482Y4911744D01*
X13111058Y4928253D01*
X13097839Y4951147D01*
X13079147Y4969840D01*
X13056253Y4983058D01*
X13030717Y4989900D01*
X13004282D01*
X12978748Y4983058D01*
X12955853Y4969840D01*
X12937160Y4951147D01*
X12923943Y4928253D01*
X12917101Y4902718D01*
Y4876282D01*
X12923943Y4850747D01*
X12937160Y4827853D01*
X12955853Y4809160D01*
X12978748Y4795942D01*
X12984464Y4743505D01*
X12979022Y4729132D01*
X12978748Y4729058D01*
X12955853Y4715840D01*
X12937160Y4697147D01*
X12923943Y4674253D01*
X12923199Y4671481D01*
X12895625Y4664806D01*
X12870364Y4667481D01*
X12860558Y4685826D01*
X12841763Y4708727D01*
X12709727Y4840763D01*
X12686826Y4859558D01*
X12660698Y4873524D01*
X12632347Y4882124D01*
X12602864Y4885028D01*
X12597276D01*
X12593462Y4888158D01*
X12590629Y4889673D01*
X12585099Y4902868D01*
X12582234Y4944783D01*
X12583556Y4948569D01*
X12589840Y4954853D01*
X12603058Y4977747D01*
X12609900Y5003282D01*
Y5029718D01*
X12603058Y5055253D01*
X12589840Y5078147D01*
X12571147Y5096840D01*
X12548253Y5110058D01*
X12525975Y5116027D01*
X12521891Y5118170D01*
X12520635Y5120100D01*
X12521055Y5130164D01*
X12544035Y5175812D01*
X12548253Y5176942D01*
X12571147Y5190160D01*
X12589840Y5208853D01*
X12603058Y5231747D01*
X12609900Y5257282D01*
Y5257800D01*
X12509500D01*
Y5283200D01*
X12612700D01*
X12617175Y5287168D01*
X12655827Y5305500D01*
X12835030Y5126298D01*
X12851701Y5115158D01*
X12871365Y5111247D01*
X12922200D01*
X12923943Y5104747D01*
X12937160Y5081853D01*
X12955853Y5063160D01*
X12978748Y5049942D01*
X13004282Y5043100D01*
X13030717D01*
X13056253Y5049942D01*
X13079147Y5063160D01*
X13097839Y5081853D01*
X13111058Y5104747D01*
X13117900Y5130282D01*
Y5156718D01*
X13111058Y5182253D01*
X13097839Y5205147D01*
X13079147Y5223840D01*
X13056253Y5237058D01*
X13030717Y5243900D01*
X13004282D01*
X12978748Y5237058D01*
X12955853Y5223840D01*
X12946034Y5214021D01*
X12892651D01*
X12606834Y5499839D01*
X12609900Y5511282D01*
Y5537718D01*
X12606579Y5550113D01*
X12625530Y5585975D01*
X12639512Y5600113D01*
X12931236D01*
X12937160Y5589853D01*
X12955853Y5571160D01*
X12978748Y5557942D01*
X13004282Y5551100D01*
X13030717D01*
X13056253Y5557942D01*
X13079147Y5571160D01*
X13097839Y5589853D01*
X13111058Y5612747D01*
X13117900Y5638282D01*
Y5664718D01*
X13111058Y5690253D01*
X13097839Y5713147D01*
X13079147Y5731840D01*
X13056253Y5745058D01*
X13030717Y5751900D01*
X13004282D01*
X12978748Y5745058D01*
X12955853Y5731840D01*
X12937160Y5713147D01*
X12931236Y5702887D01*
X12639512D01*
X12625530Y5717025D01*
X12606579Y5752887D01*
X12609900Y5765282D01*
Y5791718D01*
X12603058Y5817253D01*
X12589840Y5840147D01*
X12571147Y5858840D01*
X12548253Y5872058D01*
X12542536Y5924495D01*
X12547978Y5938868D01*
X12548253Y5938942D01*
X12571147Y5952160D01*
X12589840Y5970853D01*
X12603058Y5993747D01*
X12609900Y6019282D01*
Y6045718D01*
X12603058Y6071253D01*
X12591901Y6090578D01*
Y7408367D01*
X12624352Y7422578D01*
X12641901Y7423539D01*
X12656637Y7405583D01*
X12803082Y7259137D01*
X12825986Y7240342D01*
X12852113Y7226376D01*
X12880463Y7217776D01*
X12909947Y7214872D01*
X13187801D01*
X13217284Y7217776D01*
X13245634Y7226376D01*
X13271762Y7240342D01*
X13294664Y7259137D01*
X13608150Y7572623D01*
X13620010Y7574184D01*
X13644434Y7584301D01*
X13665405Y7600394D01*
X13681499Y7621367D01*
X13683408Y7625976D01*
X13700664Y7640137D01*
X13719458Y7663038D01*
X13733424Y7689166D01*
X13741045Y7714290D01*
X13742024Y7717516D01*
X13743401Y7721209D01*
X13793401Y7712196D01*
Y7571600D01*
X13881100D01*
Y7747000D01*
Y7922400D01*
X13793401D01*
Y7781804D01*
X13743401Y7772791D01*
X13742024Y7776484D01*
X13741464Y7778329D01*
X13733424Y7804834D01*
X13719458Y7830962D01*
X13700664Y7853863D01*
X13683408Y7868024D01*
X13681499Y7872633D01*
X13665405Y7893606D01*
X13644434Y7909699D01*
X13620010Y7919816D01*
X13593800Y7923266D01*
X13567590Y7919816D01*
X13543167Y7909699D01*
X13522194Y7893606D01*
X13518617Y7888945D01*
X13510966Y7886624D01*
X13484837Y7872658D01*
X13461937Y7853863D01*
X13173123Y7565049D01*
X13130600Y7593237D01*
Y7670800D01*
X13030200D01*
Y7696200D01*
X13130600D01*
Y7783900D01*
X13114706D01*
X13104919Y7804176D01*
X13101178Y7833900D01*
X13119637Y7848064D01*
X13139674Y7868102D01*
X13145944Y7868928D01*
X13176450Y7881563D01*
X13202644Y7901663D01*
X13390344Y8089363D01*
X13390344Y8089364D01*
X13403731Y8102749D01*
X13913100D01*
X14122549Y7893299D01*
D02*
G37*
G36*
X6862559Y9892083D02*
X6882183Y9872459D01*
X6906217Y9858583D01*
X6933024Y9851400D01*
X6960776D01*
X6987583Y9858583D01*
X7010192Y9871636D01*
X7301913Y9579915D01*
Y8775700D01*
X7305824Y8756035D01*
X7316964Y8739364D01*
X7734484Y8321844D01*
X7730500Y8306976D01*
Y8279224D01*
X7737683Y8252417D01*
X7751559Y8228383D01*
X7771183Y8208759D01*
X7795217Y8194883D01*
X7806044Y8191982D01*
Y8140218D01*
X7795217Y8137317D01*
X7771183Y8123441D01*
X7751559Y8103817D01*
X7737683Y8079783D01*
X7730500Y8052976D01*
Y8025224D01*
X7737683Y7998417D01*
X7751559Y7974383D01*
X7771183Y7954759D01*
X7795217Y7940883D01*
X7806044Y7937982D01*
Y7886218D01*
X7795217Y7883317D01*
X7771183Y7869441D01*
X7751559Y7849817D01*
X7737683Y7825783D01*
X7730500Y7798976D01*
Y7771224D01*
X7737683Y7744417D01*
X7751559Y7720383D01*
X7771183Y7700759D01*
X7795217Y7686883D01*
X7806044Y7683982D01*
Y7632218D01*
X7795217Y7629317D01*
X7771183Y7615441D01*
X7751559Y7595817D01*
X7737683Y7571783D01*
X7730500Y7544976D01*
Y7525883D01*
X7709482Y7511070D01*
X7682502Y7503170D01*
X7379287Y7806385D01*
Y8083813D01*
X7375376Y8103479D01*
X7364236Y8120150D01*
X7022972Y8461414D01*
X7031241Y8469683D01*
X7045117Y8493717D01*
X7052300Y8520524D01*
Y8548276D01*
X7045117Y8575083D01*
X7031241Y8599117D01*
X7011617Y8618741D01*
X6987583Y8632617D01*
X6976756Y8635518D01*
Y8687282D01*
X6987583Y8690183D01*
X7011617Y8704059D01*
X7031241Y8723683D01*
X7045117Y8747717D01*
X7052300Y8774524D01*
Y8802276D01*
X7045117Y8829083D01*
X7031241Y8853117D01*
X7011617Y8872741D01*
X6987583Y8886617D01*
X6976756Y8889518D01*
Y8941282D01*
X6987583Y8944183D01*
X7011617Y8958059D01*
X7031241Y8977683D01*
X7045117Y9001717D01*
X7052300Y9028524D01*
Y9029700D01*
X6946900D01*
Y9055100D01*
X7052300D01*
Y9056276D01*
X7045117Y9083083D01*
X7031241Y9107117D01*
X7011617Y9126741D01*
X6987583Y9140617D01*
X6976756Y9143518D01*
Y9195282D01*
X6987583Y9198183D01*
X7011617Y9212059D01*
X7031241Y9231683D01*
X7045117Y9255717D01*
X7052300Y9282524D01*
Y9283700D01*
X6946900D01*
Y9296400D01*
X6934200D01*
Y9401800D01*
X6933024D01*
X6906217Y9394617D01*
X6882183Y9380741D01*
X6862559Y9361117D01*
X6857787Y9352852D01*
X6807787Y9366249D01*
Y9886951D01*
X6857787Y9900348D01*
X6862559Y9892083D01*
D02*
G37*
G36*
X7280424Y7765435D02*
X7291564Y7748764D01*
X7722823Y7317504D01*
X7719355Y7280909D01*
X7669519Y7262154D01*
X7226887Y7704785D01*
Y7784196D01*
X7276513Y7785100D01*
X7280424Y7765435D01*
D02*
G37*
G36*
X7124113Y7949072D02*
Y7683500D01*
X7128024Y7663835D01*
X7139164Y7647164D01*
X7734484Y7051844D01*
X7730500Y7036976D01*
Y7009224D01*
X7737683Y6982417D01*
X7751559Y6958383D01*
X7771183Y6938759D01*
X7795217Y6924883D01*
X7806044Y6921982D01*
Y6870218D01*
X7795217Y6867317D01*
X7771183Y6853441D01*
X7751559Y6833817D01*
X7737683Y6809783D01*
X7730500Y6782976D01*
Y6755224D01*
X7737683Y6728417D01*
X7751559Y6704383D01*
X7771183Y6684759D01*
X7795217Y6670883D01*
X7806044Y6667982D01*
Y6616218D01*
X7795217Y6613317D01*
X7771183Y6599441D01*
X7759607Y6587865D01*
X6998287Y7349185D01*
Y7934363D01*
X7011617Y7942059D01*
X7031241Y7961683D01*
X7039076Y7975254D01*
X7075087Y7986821D01*
X7084989Y7987186D01*
X7124113Y7949072D01*
D02*
G37*
G36*
X8140681Y6456615D02*
X8158415Y6438881D01*
X8180135Y6426341D01*
X8197520Y6421683D01*
X8200223Y6419684D01*
X8210302Y6403928D01*
X8223020Y6369850D01*
X8212826Y6356350D01*
X8204360D01*
X8180135Y6349859D01*
X8158415Y6337319D01*
X8140681Y6319585D01*
X8136583Y6312487D01*
X7927937D01*
X7920241Y6325817D01*
X7900617Y6345441D01*
X7876583Y6359317D01*
X7865756Y6362218D01*
Y6413982D01*
X7876583Y6416883D01*
X7900617Y6430759D01*
X7920241Y6450383D01*
X7927937Y6463713D01*
X8136583D01*
X8140681Y6456615D01*
D02*
G37*
G36*
Y6202615D02*
X8158415Y6184881D01*
X8180135Y6172341D01*
X8197520Y6167683D01*
X8200223Y6165684D01*
X8210302Y6149928D01*
X8223020Y6115850D01*
X8212826Y6102350D01*
X8204360D01*
X8180135Y6095859D01*
X8158415Y6083319D01*
X8140681Y6065585D01*
X8136583Y6058487D01*
X7927937D01*
X7920241Y6071817D01*
X7900617Y6091441D01*
X7876583Y6105317D01*
X7865756Y6108218D01*
Y6159982D01*
X7876583Y6162883D01*
X7900617Y6176759D01*
X7920241Y6196383D01*
X7927937Y6209713D01*
X8136583D01*
X8140681Y6202615D01*
D02*
G37*
G36*
X12412166Y5041161D02*
X12409100Y5029718D01*
Y5003282D01*
X12415942Y4977747D01*
X12429160Y4954853D01*
X12435444Y4948569D01*
X12436766Y4944783D01*
X12433901Y4902868D01*
X12428371Y4889673D01*
X12425538Y4888158D01*
X12402637Y4869363D01*
X12383842Y4846462D01*
X12369876Y4820334D01*
X12361276Y4791984D01*
X12358372Y4762500D01*
X12359848Y4747515D01*
X12318619Y4723826D01*
X12313852Y4722800D01*
X12268051Y4768601D01*
Y5114566D01*
X12318051Y5135277D01*
X12412166Y5041161D01*
D02*
G37*
G36*
X12436321Y7758446D02*
X12439799Y7752422D01*
Y6104786D01*
X12429160Y6094147D01*
X12415942Y6071253D01*
X12409100Y6045718D01*
Y6039652D01*
X12138224Y5768776D01*
X12126138Y5753025D01*
X12118541Y5734683D01*
X12115949Y5715000D01*
Y4737100D01*
X12118541Y4717417D01*
X12126138Y4699075D01*
X12138224Y4683324D01*
X12341824Y4479724D01*
X12357575Y4467638D01*
X12375917Y4460041D01*
X12395600Y4457449D01*
X12423042D01*
X12429160Y4446853D01*
X12447853Y4428160D01*
X12470747Y4414942D01*
X12496282Y4408100D01*
X12522718D01*
X12533772Y4411062D01*
X12571414Y4390667D01*
X12583772Y4377714D01*
Y4107993D01*
X12410340Y3934560D01*
X11642129Y3166350D01*
X11595935Y3185484D01*
Y6988771D01*
X12377308Y7770143D01*
X12394713Y7770687D01*
X12436321Y7758446D01*
D02*
G37*
%LPC*%
G36*
X13082010Y14442439D02*
X13081000D01*
Y14350999D01*
X13172440D01*
Y14352010D01*
X13165343Y14378497D01*
X13151633Y14402243D01*
X13132243Y14421632D01*
X13108498Y14435342D01*
X13082010Y14442439D01*
D02*
G37*
G36*
X12180310D02*
X12179300D01*
Y14350999D01*
X12270740D01*
Y14352010D01*
X12263643Y14378497D01*
X12249933Y14402243D01*
X12230543Y14421632D01*
X12206797Y14435342D01*
X12180310Y14442439D01*
D02*
G37*
G36*
X13172440Y14325600D02*
X13081000D01*
Y14234160D01*
X13082010D01*
X13108498Y14241257D01*
X13132243Y14254967D01*
X13151633Y14274358D01*
X13165343Y14298103D01*
X13172440Y14324590D01*
Y14325600D01*
D02*
G37*
G36*
X12270740D02*
X12179300D01*
Y14234160D01*
X12180310D01*
X12206797Y14241257D01*
X12230543Y14254967D01*
X12249933Y14274358D01*
X12263643Y14298103D01*
X12270740Y14324590D01*
Y14325600D01*
D02*
G37*
G36*
X11800134Y13826401D02*
X11771066D01*
X11742987Y13818877D01*
X11717813Y13804343D01*
X11697258Y13783788D01*
X11682724Y13758614D01*
X11675200Y13730534D01*
Y13701466D01*
X11682724Y13673387D01*
X11697258Y13648213D01*
X11717813Y13627658D01*
X11742987Y13613124D01*
X11771066Y13605600D01*
X11800134D01*
X11828213Y13613124D01*
X11853387Y13627658D01*
X11873942Y13648213D01*
X11888476Y13673387D01*
X11896000Y13701466D01*
Y13730534D01*
X11888476Y13758614D01*
X11873942Y13783788D01*
X11853387Y13804343D01*
X11828213Y13818877D01*
X11800134Y13826401D01*
D02*
G37*
G36*
X10515600Y9912307D02*
Y9829800D01*
X10598107D01*
X10591659Y9853865D01*
X10579119Y9875585D01*
X10561385Y9893319D01*
X10539665Y9905859D01*
X10515600Y9912307D01*
D02*
G37*
G36*
X10858500Y9922500D02*
X10857324D01*
X10830517Y9915317D01*
X10806483Y9901441D01*
X10786859Y9881817D01*
X10772983Y9857783D01*
X10765800Y9830976D01*
Y9829800D01*
X10858500D01*
Y9922500D01*
D02*
G37*
G36*
X10490200Y9912307D02*
X10466135Y9905859D01*
X10444415Y9893319D01*
X10426681Y9875585D01*
X10414141Y9853865D01*
X10407693Y9829800D01*
X10490200D01*
Y9912307D01*
D02*
G37*
G36*
X10598107Y9804400D02*
X10515600D01*
Y9721893D01*
X10539665Y9728341D01*
X10561385Y9740881D01*
X10579119Y9758615D01*
X10591659Y9780335D01*
X10598107Y9804400D01*
D02*
G37*
G36*
X10490200D02*
X10407693D01*
X10414141Y9780335D01*
X10426681Y9758615D01*
X10444415Y9740881D01*
X10466135Y9728341D01*
X10490200Y9721893D01*
Y9804400D01*
D02*
G37*
G36*
X7087776Y5934700D02*
X7086600D01*
Y5842000D01*
X7179300D01*
Y5843176D01*
X7172117Y5869983D01*
X7158241Y5894017D01*
X7138617Y5913641D01*
X7114583Y5927517D01*
X7087776Y5934700D01*
D02*
G37*
G36*
X7061200D02*
X7060024D01*
X7033217Y5927517D01*
X7009183Y5913641D01*
X6989559Y5894017D01*
X6975683Y5869983D01*
X6968500Y5843176D01*
Y5842000D01*
X7061200D01*
Y5934700D01*
D02*
G37*
G36*
X7179300Y5816600D02*
X7073900D01*
X6968500D01*
Y5815424D01*
X6975683Y5788617D01*
X6989559Y5764583D01*
X7009183Y5744959D01*
X7033217Y5731083D01*
X7044044Y5728182D01*
Y5676418D01*
X7033217Y5673517D01*
X7009183Y5659641D01*
X6989559Y5640017D01*
X6975683Y5615983D01*
X6968500Y5589176D01*
Y5588000D01*
X7073900D01*
X7179300D01*
Y5589176D01*
X7172117Y5615983D01*
X7158241Y5640017D01*
X7138617Y5659641D01*
X7114583Y5673517D01*
X7103756Y5676418D01*
Y5728182D01*
X7114583Y5731083D01*
X7138617Y5744959D01*
X7158241Y5764583D01*
X7172117Y5788617D01*
X7179300Y5815424D01*
Y5816600D01*
D02*
G37*
G36*
X8229600Y4578307D02*
Y4495800D01*
X8312107D01*
X8305659Y4519865D01*
X8293119Y4541585D01*
X8275385Y4559319D01*
X8253665Y4571859D01*
X8229600Y4578307D01*
D02*
G37*
G36*
X8204200D02*
X8180135Y4571859D01*
X8158415Y4559319D01*
X8140681Y4541585D01*
X8128141Y4519865D01*
X8121693Y4495800D01*
X8204200D01*
Y4578307D01*
D02*
G37*
G36*
X8312107Y4470400D02*
X8229600D01*
Y4387893D01*
X8253665Y4394341D01*
X8275385Y4406881D01*
X8293119Y4424615D01*
X8305659Y4446335D01*
X8312107Y4470400D01*
D02*
G37*
G36*
X8204200D02*
X8121693D01*
X8128141Y4446335D01*
X8140681Y4424615D01*
X8158415Y4406881D01*
X8180135Y4394341D01*
X8204200Y4387893D01*
Y4470400D01*
D02*
G37*
G36*
X7941300D02*
X7848600D01*
Y4377700D01*
X7849776D01*
X7876583Y4384883D01*
X7900617Y4398759D01*
X7920241Y4418383D01*
X7934117Y4442417D01*
X7941300Y4469224D01*
Y4470400D01*
D02*
G37*
G36*
X7823200D02*
X7730500D01*
Y4469224D01*
X7737683Y4442417D01*
X7751559Y4418383D01*
X7771183Y4398759D01*
X7795217Y4384883D01*
X7822024Y4377700D01*
X7823200D01*
Y4470400D01*
D02*
G37*
G36*
X10906900Y3389700D02*
X10744200D01*
Y3302000D01*
X10906900D01*
Y3389700D01*
D02*
G37*
G36*
X10718800D02*
X10556100D01*
Y3302000D01*
X10718800D01*
Y3389700D01*
D02*
G37*
G36*
X10906900Y3276600D02*
X10744200D01*
Y3188900D01*
X10906900D01*
Y3276600D01*
D02*
G37*
G36*
X10718800D02*
X10556100D01*
Y3188900D01*
X10718800D01*
Y3276600D01*
D02*
G37*
G36*
X8373320Y14554201D02*
X8339880D01*
X8335663Y14553070D01*
X7955124D01*
X7955122Y14553070D01*
X7922386Y14548759D01*
X7891881Y14536125D01*
X7865685Y14516023D01*
X7865685Y14516023D01*
X7700143Y14350482D01*
X7366000D01*
X7333264Y14346172D01*
X7302759Y14333537D01*
X7300626Y14331900D01*
X7258100D01*
Y14289374D01*
X7256463Y14287241D01*
X7243828Y14256737D01*
X7239518Y14224001D01*
X7243828Y14191264D01*
X7256463Y14160759D01*
X7258100Y14158626D01*
Y14116100D01*
X7300626D01*
X7302759Y14114462D01*
X7333264Y14101828D01*
X7366000Y14097517D01*
X7752532D01*
X7752534Y14097517D01*
X7785270Y14101828D01*
X7815775Y14114462D01*
X7841970Y14134564D01*
X8007512Y14300105D01*
X8230118D01*
Y13906502D01*
X8230118Y13906500D01*
X8234428Y13873764D01*
X8247063Y13843259D01*
X8255000Y13832916D01*
Y13779500D01*
X8317558D01*
X8336564Y13771628D01*
X8369300Y13767319D01*
X8402036Y13771628D01*
X8421041Y13779500D01*
X8483600D01*
Y13842059D01*
X8491472Y13861064D01*
X8495782Y13893800D01*
X8491472Y13926537D01*
X8483600Y13945541D01*
Y14008099D01*
X8483082D01*
Y14408548D01*
X8483600Y14410480D01*
Y14443919D01*
X8474945Y14476221D01*
X8458225Y14505180D01*
X8434580Y14528825D01*
X8405620Y14545544D01*
X8373320Y14554201D01*
D02*
G37*
G36*
X9605220Y14566901D02*
X9601200D01*
Y14452600D01*
X9715500D01*
Y14456619D01*
X9706845Y14488921D01*
X9690125Y14517880D01*
X9666480Y14541525D01*
X9637520Y14558244D01*
X9605220Y14566901D01*
D02*
G37*
G36*
X9575800D02*
X9571780D01*
X9539480Y14558244D01*
X9510520Y14541525D01*
X9486875Y14517880D01*
X9470155Y14488921D01*
X9461500Y14456619D01*
Y14452600D01*
X9575800D01*
Y14566901D01*
D02*
G37*
G36*
X9715500Y14427200D02*
X9601200D01*
Y14312900D01*
X9605220D01*
X9637520Y14321555D01*
X9666480Y14338275D01*
X9690125Y14361920D01*
X9706845Y14390880D01*
X9715500Y14423180D01*
Y14427200D01*
D02*
G37*
G36*
X9575800D02*
X9461500D01*
Y14423180D01*
X9470155Y14390880D01*
X9486875Y14361920D01*
X9510520Y14338275D01*
X9539480Y14321555D01*
X9571780Y14312900D01*
X9575800D01*
Y14427200D01*
D02*
G37*
G36*
X8894020Y14020799D02*
X8890000D01*
Y13906500D01*
X9004300D01*
Y13910519D01*
X8995645Y13942821D01*
X8978925Y13971780D01*
X8955280Y13995425D01*
X8926320Y14012144D01*
X8894020Y14020799D01*
D02*
G37*
G36*
X8864600D02*
X8860580D01*
X8828280Y14012144D01*
X8799320Y13995425D01*
X8775675Y13971780D01*
X8758955Y13942821D01*
X8750300Y13910519D01*
Y13906500D01*
X8864600D01*
Y14020799D01*
D02*
G37*
G36*
X9004300Y13881100D02*
X8890000D01*
Y13766800D01*
X8894020D01*
X8926320Y13775455D01*
X8955280Y13792175D01*
X8978925Y13815820D01*
X8995645Y13844780D01*
X9004300Y13877080D01*
Y13881100D01*
D02*
G37*
G36*
X8864600D02*
X8750300D01*
Y13877080D01*
X8758955Y13844780D01*
X8775675Y13815820D01*
X8799320Y13792175D01*
X8828280Y13775455D01*
X8860580Y13766800D01*
X8864600D01*
Y13881100D01*
D02*
G37*
G36*
X9067800Y14578328D02*
X8864600D01*
X8835116Y14575424D01*
X8806766Y14566824D01*
X8780638Y14552858D01*
X8766798Y14541499D01*
X8750300D01*
Y14525002D01*
X8738942Y14511162D01*
X8724976Y14485034D01*
X8716376Y14456683D01*
X8713472Y14427200D01*
X8716376Y14397716D01*
X8724976Y14369366D01*
X8738942Y14343237D01*
X8750300Y14329398D01*
Y14312900D01*
X8766798D01*
X8780638Y14301543D01*
X8806766Y14287576D01*
X8835116Y14278976D01*
X8864600Y14276073D01*
X9005201D01*
X9113522Y14167751D01*
Y12973050D01*
X9116426Y12943565D01*
X9125026Y12915216D01*
X9138992Y12889088D01*
X9157787Y12866187D01*
X9266352Y12757622D01*
X9247217Y12711428D01*
X8902700D01*
X8873216Y12708524D01*
X8844866Y12699924D01*
X8818738Y12685958D01*
X8804898Y12674600D01*
X8788400D01*
Y12658102D01*
X8777042Y12644262D01*
X8763076Y12618134D01*
X8754476Y12589784D01*
X8751572Y12560300D01*
X8754476Y12530816D01*
X8763076Y12502466D01*
X8777042Y12476338D01*
X8788400Y12462498D01*
Y12446000D01*
X8804898D01*
X8818738Y12434642D01*
X8844866Y12420676D01*
X8873216Y12412076D01*
X8902700Y12409172D01*
X9537700D01*
X9567184Y12412076D01*
X9595534Y12420676D01*
X9621662Y12434642D01*
X9644563Y12453437D01*
X9726027Y12534900D01*
X9740900D01*
Y12551398D01*
X9752258Y12565238D01*
X9766224Y12591366D01*
X9774824Y12619716D01*
X9777728Y12649200D01*
X9774824Y12678684D01*
X9766224Y12707034D01*
X9752258Y12733162D01*
X9740900Y12747002D01*
Y12763500D01*
X9724402D01*
X9710562Y12774858D01*
X9684434Y12788824D01*
X9656084Y12797424D01*
X9653776Y12797651D01*
X9415778Y13035649D01*
Y13770709D01*
X9465778Y13795531D01*
X9486900Y13779500D01*
Y13779498D01*
X9529484Y13761597D01*
X9543366Y13754176D01*
X9571716Y13745576D01*
X9601200Y13742673D01*
X9630684Y13745576D01*
X9659034Y13754176D01*
X9685162Y13768143D01*
X9699002Y13779500D01*
X9715500D01*
Y13795998D01*
X9726858Y13809837D01*
X9740824Y13835966D01*
X9749424Y13864316D01*
X9752328Y13893800D01*
X9749424Y13923283D01*
X9740824Y13951634D01*
X9726858Y13977762D01*
X9715500Y13991602D01*
Y14008099D01*
X9700627D01*
X9371515Y14337212D01*
X9371514Y14337213D01*
X9174663Y14534064D01*
X9151762Y14552858D01*
X9125634Y14566824D01*
X9097284Y14575424D01*
X9067800Y14578328D01*
D02*
G37*
G36*
X8919420Y13385800D02*
X8915400D01*
Y13271500D01*
X9029700D01*
Y13275520D01*
X9021045Y13307820D01*
X9004325Y13336780D01*
X8980680Y13360425D01*
X8951720Y13377145D01*
X8919420Y13385800D01*
D02*
G37*
G36*
X8890000D02*
X8885980D01*
X8853680Y13377145D01*
X8824720Y13360425D01*
X8801075Y13336780D01*
X8784355Y13307820D01*
X8775700Y13275520D01*
Y13271500D01*
X8890000D01*
Y13385800D01*
D02*
G37*
G36*
X9630620Y13309599D02*
X9626600D01*
Y13195300D01*
X9740900D01*
Y13199319D01*
X9732245Y13231619D01*
X9715525Y13260580D01*
X9691880Y13284225D01*
X9662920Y13300945D01*
X9630620Y13309599D01*
D02*
G37*
G36*
X9601200D02*
X9597180D01*
X9564880Y13300945D01*
X9535920Y13284225D01*
X9512275Y13260580D01*
X9495555Y13231619D01*
X9486900Y13199319D01*
Y13195300D01*
X9601200D01*
Y13309599D01*
D02*
G37*
G36*
X9029700Y13246100D02*
X8915400D01*
Y13131799D01*
X8919420D01*
X8951720Y13140456D01*
X8980680Y13157175D01*
X9004325Y13180820D01*
X9021045Y13209779D01*
X9029700Y13242081D01*
Y13246100D01*
D02*
G37*
G36*
X8890000D02*
X8775700D01*
Y13242081D01*
X8784355Y13209779D01*
X8801075Y13180820D01*
X8824720Y13157175D01*
X8853680Y13140456D01*
X8885980Y13131799D01*
X8890000D01*
Y13246100D01*
D02*
G37*
G36*
X9740900Y13169901D02*
X9626600D01*
Y13055600D01*
X9630620D01*
X9662920Y13064255D01*
X9691880Y13080975D01*
X9715525Y13104620D01*
X9732245Y13133580D01*
X9740900Y13165880D01*
Y13169901D01*
D02*
G37*
G36*
X9601200D02*
X9486900D01*
Y13165880D01*
X9495555Y13133580D01*
X9512275Y13104620D01*
X9535920Y13080975D01*
X9564880Y13064255D01*
X9597180Y13055600D01*
X9601200D01*
Y13169901D01*
D02*
G37*
G36*
X10695234Y13013600D02*
X10666166D01*
X10638087Y13006076D01*
X10612913Y12991542D01*
X10592358Y12970987D01*
X10577824Y12945813D01*
X10570300Y12917734D01*
Y12888666D01*
X10577824Y12860587D01*
X10592358Y12835413D01*
X10612913Y12814857D01*
X10638087Y12800323D01*
X10666166Y12792800D01*
X10695234D01*
X10723313Y12800323D01*
X10748487Y12814857D01*
X10769042Y12835413D01*
X10783576Y12860587D01*
X10791100Y12888666D01*
Y12917734D01*
X10783576Y12945813D01*
X10769042Y12970987D01*
X10748487Y12991542D01*
X10723313Y13006076D01*
X10695234Y13013600D01*
D02*
G37*
G36*
X7937500Y13842482D02*
X7937498Y13842482D01*
X7366000D01*
X7333264Y13838171D01*
X7302759Y13825537D01*
X7276564Y13805437D01*
X7256463Y13779240D01*
X7243828Y13748737D01*
X7239518Y13716000D01*
X7243828Y13683264D01*
X7256463Y13652759D01*
X7276564Y13626564D01*
X7302759Y13606464D01*
X7333264Y13593828D01*
X7366000Y13589519D01*
X7885109D01*
X8268218Y13206409D01*
Y12578952D01*
X8267700Y12577020D01*
Y12543580D01*
X8276355Y12511280D01*
X8293075Y12482320D01*
X8316720Y12458675D01*
X8345680Y12441955D01*
X8377980Y12433300D01*
X8411420D01*
X8443720Y12441955D01*
X8472680Y12458675D01*
X8496325Y12482320D01*
X8513045Y12511280D01*
X8521700Y12543580D01*
Y12577020D01*
X8521182Y12578952D01*
Y13258800D01*
X8516872Y13291536D01*
X8509000Y13310541D01*
Y13373100D01*
X8459273D01*
X8026936Y13805437D01*
X8000741Y13825537D01*
X7970236Y13838171D01*
X7937500Y13842482D01*
D02*
G37*
G36*
X7990134Y12429400D02*
X7961066D01*
X7932987Y12421876D01*
X7907813Y12407342D01*
X7887258Y12386787D01*
X7872724Y12361613D01*
X7865200Y12333534D01*
Y12304466D01*
X7872724Y12276387D01*
X7887258Y12251213D01*
X7907813Y12230658D01*
X7932987Y12216124D01*
X7961066Y12208600D01*
X7990134D01*
X8018213Y12216124D01*
X8043387Y12230658D01*
X8063942Y12251213D01*
X8078476Y12276387D01*
X8086000Y12304466D01*
Y12333534D01*
X8078476Y12361613D01*
X8063942Y12386787D01*
X8043387Y12407342D01*
X8018213Y12421876D01*
X7990134Y12429400D01*
D02*
G37*
G36*
X7408245Y12796000D02*
X7349155D01*
X7290794Y12786756D01*
X7234596Y12768497D01*
X7181948Y12741671D01*
X7134143Y12706939D01*
X7092361Y12665157D01*
X7057629Y12617352D01*
X7030803Y12564704D01*
X7012544Y12508506D01*
X7003300Y12450145D01*
Y12391055D01*
X7012544Y12332694D01*
X7030803Y12276496D01*
X7057629Y12223848D01*
X7092361Y12176043D01*
X7134143Y12134261D01*
X7181948Y12099529D01*
X7234596Y12072703D01*
X7290794Y12054444D01*
X7349155Y12045200D01*
X7408245D01*
X7466606Y12054444D01*
X7522804Y12072703D01*
X7575452Y12099529D01*
X7623257Y12134261D01*
X7665039Y12176043D01*
X7699771Y12223848D01*
X7726597Y12276496D01*
X7744856Y12332694D01*
X7754100Y12391055D01*
Y12450145D01*
X7744856Y12508506D01*
X7726597Y12564704D01*
X7699771Y12617352D01*
X7665039Y12665157D01*
X7623257Y12706939D01*
X7575452Y12741671D01*
X7522804Y12768497D01*
X7466606Y12786756D01*
X7408245Y12796000D01*
D02*
G37*
G36*
X9145202Y11971568D02*
X9116134D01*
X9088055Y11964044D01*
X9062881Y11949510D01*
X9042326Y11928955D01*
X9027792Y11903781D01*
X9020268Y11875702D01*
Y11846634D01*
X9027792Y11818555D01*
X9042326Y11793381D01*
X9062881Y11772826D01*
X9088055Y11758292D01*
X9116134Y11750768D01*
X9145202D01*
X9173281Y11758292D01*
X9198455Y11772826D01*
X9219010Y11793381D01*
X9233544Y11818555D01*
X9241068Y11846634D01*
Y11875702D01*
X9233544Y11903781D01*
X9219010Y11928955D01*
X9198455Y11949510D01*
X9173281Y11964044D01*
X9145202Y11971568D01*
D02*
G37*
G36*
X6960776Y11332200D02*
X6959600D01*
Y11239500D01*
X7052300D01*
Y11240676D01*
X7045117Y11267483D01*
X7031241Y11291517D01*
X7011617Y11311141D01*
X6987583Y11325017D01*
X6960776Y11332200D01*
D02*
G37*
G36*
X12878317Y12749600D02*
X12877800D01*
Y12661900D01*
X12965500D01*
Y12662418D01*
X12958658Y12687953D01*
X12945441Y12710847D01*
X12926747Y12729540D01*
X12903853Y12742758D01*
X12878317Y12749600D01*
D02*
G37*
G36*
X12852400D02*
X12851881D01*
X12826347Y12742758D01*
X12803453Y12729540D01*
X12784760Y12710847D01*
X12771542Y12687953D01*
X12764700Y12662418D01*
Y12661900D01*
X12852400D01*
Y12749600D01*
D02*
G37*
G36*
X12965500Y12636500D02*
X12877800D01*
Y12548800D01*
X12878317D01*
X12903853Y12555642D01*
X12926747Y12568860D01*
X12945441Y12587553D01*
X12958658Y12610447D01*
X12965500Y12635982D01*
Y12636500D01*
D02*
G37*
G36*
X12852400D02*
X12764700D01*
Y12635982D01*
X12771542Y12610447D01*
X12784760Y12587553D01*
X12803453Y12568860D01*
X12826347Y12555642D01*
X12851881Y12548800D01*
X12852400D01*
Y12636500D01*
D02*
G37*
G36*
X12370318Y12622600D02*
X12343882D01*
X12318347Y12615758D01*
X12295453Y12602540D01*
X12276760Y12583847D01*
X12263542Y12560953D01*
X12256700Y12535418D01*
Y12508982D01*
X12263542Y12483447D01*
X12276760Y12460553D01*
X12295453Y12441860D01*
X12318347Y12428642D01*
X12343882Y12421800D01*
X12370318D01*
X12395853Y12428642D01*
X12418747Y12441860D01*
X12437440Y12460553D01*
X12450658Y12483447D01*
X12457500Y12508982D01*
Y12535418D01*
X12450658Y12560953D01*
X12437440Y12583847D01*
X12418747Y12602540D01*
X12395853Y12615758D01*
X12370318Y12622600D01*
D02*
G37*
G36*
X12878317Y12495600D02*
X12851881D01*
X12826347Y12488758D01*
X12803453Y12475540D01*
X12784760Y12456847D01*
X12771542Y12433953D01*
X12764700Y12408418D01*
Y12381982D01*
X12771542Y12356447D01*
X12784760Y12333553D01*
X12803453Y12314860D01*
X12826347Y12301642D01*
X12851881Y12294800D01*
X12878317D01*
X12903853Y12301642D01*
X12926747Y12314860D01*
X12945441Y12333553D01*
X12958658Y12356447D01*
X12965500Y12381982D01*
Y12408418D01*
X12958658Y12433953D01*
X12945441Y12456847D01*
X12926747Y12475540D01*
X12903853Y12488758D01*
X12878317Y12495600D01*
D02*
G37*
G36*
X12370318Y12368600D02*
X12343882D01*
X12318347Y12361758D01*
X12295453Y12348540D01*
X12276760Y12329847D01*
X12263542Y12306953D01*
X12256700Y12281418D01*
Y12254982D01*
X12263542Y12229447D01*
X12276760Y12206553D01*
X12295453Y12187860D01*
X12318347Y12174642D01*
X12343882Y12167800D01*
X12370318D01*
X12395853Y12174642D01*
X12418747Y12187860D01*
X12437440Y12206553D01*
X12450658Y12229447D01*
X12457500Y12254982D01*
Y12281418D01*
X12450658Y12306953D01*
X12437440Y12329847D01*
X12418747Y12348540D01*
X12395853Y12361758D01*
X12370318Y12368600D01*
D02*
G37*
G36*
X12878317Y12241600D02*
X12851881D01*
X12826347Y12234758D01*
X12803453Y12221540D01*
X12784760Y12202847D01*
X12771542Y12179953D01*
X12764700Y12154418D01*
Y12127982D01*
X12771542Y12102447D01*
X12784760Y12079553D01*
X12803453Y12060860D01*
X12826347Y12047642D01*
X12851881Y12040800D01*
X12878317D01*
X12903853Y12047642D01*
X12926747Y12060860D01*
X12945441Y12079553D01*
X12958658Y12102447D01*
X12965500Y12127982D01*
Y12154418D01*
X12958658Y12179953D01*
X12945441Y12202847D01*
X12926747Y12221540D01*
X12903853Y12234758D01*
X12878317Y12241600D01*
D02*
G37*
G36*
X13817599Y11186300D02*
X13729900D01*
Y11023600D01*
X13817599D01*
Y11186300D01*
D02*
G37*
G36*
X13930701Y10998200D02*
X13842999D01*
Y10835500D01*
X13930701D01*
Y10998200D01*
D02*
G37*
G36*
X13817599D02*
X13729900D01*
Y10835500D01*
X13817599D01*
Y10998200D01*
D02*
G37*
G36*
X13530299Y11187166D02*
X13504089Y11183716D01*
X13479668Y11173599D01*
X13458694Y11157506D01*
X13442601Y11136533D01*
X13432484Y11112110D01*
X13429034Y11085900D01*
Y10935900D01*
X13432484Y10909690D01*
X13442601Y10885267D01*
X13458694Y10864294D01*
X13479668Y10848201D01*
X13504089Y10838084D01*
X13530299Y10834634D01*
X13556509Y10838084D01*
X13580933Y10848201D01*
X13601906Y10864294D01*
X13617999Y10885267D01*
X13628116Y10909690D01*
X13631566Y10935900D01*
Y11085900D01*
X13628116Y11112110D01*
X13617999Y11136533D01*
X13601906Y11157506D01*
X13580933Y11173599D01*
X13556509Y11183716D01*
X13530299Y11187166D01*
D02*
G37*
G36*
X12790734Y10168800D02*
X12788900D01*
Y10071100D01*
X12886600D01*
Y10072934D01*
X12879076Y10101013D01*
X12864542Y10126187D01*
X12843987Y10146742D01*
X12818813Y10161276D01*
X12790734Y10168800D01*
D02*
G37*
G36*
X12763500D02*
X12761666D01*
X12733587Y10161276D01*
X12708413Y10146742D01*
X12687858Y10126187D01*
X12673324Y10101013D01*
X12665800Y10072934D01*
Y10071100D01*
X12763500D01*
Y10168800D01*
D02*
G37*
G36*
X12886600Y10045700D02*
X12788900D01*
Y9948000D01*
X12790734D01*
X12818813Y9955524D01*
X12843987Y9970058D01*
X12864542Y9990613D01*
X12879076Y10015787D01*
X12886600Y10043866D01*
Y10045700D01*
D02*
G37*
G36*
X12763500D02*
X12665800D01*
Y10043866D01*
X12673324Y10015787D01*
X12687858Y9990613D01*
X12708413Y9970058D01*
X12733587Y9955524D01*
X12761666Y9948000D01*
X12763500D01*
Y10045700D01*
D02*
G37*
G36*
X12535418Y9434900D02*
X12508982D01*
X12483447Y9428058D01*
X12460553Y9414840D01*
X12441860Y9396147D01*
X12428642Y9373253D01*
X12421800Y9347718D01*
Y9321282D01*
X12428642Y9295747D01*
X12441860Y9272853D01*
X12460553Y9254160D01*
X12483447Y9240942D01*
X12508982Y9234100D01*
X12535418D01*
X12560953Y9240942D01*
X12583847Y9254160D01*
X12602540Y9272853D01*
X12615758Y9295747D01*
X12622600Y9321282D01*
Y9347718D01*
X12615758Y9373253D01*
X12602540Y9396147D01*
X12583847Y9414840D01*
X12560953Y9428058D01*
X12535418Y9434900D01*
D02*
G37*
G36*
X12370318Y11352600D02*
X12343882D01*
X12318347Y11345758D01*
X12295453Y11332540D01*
X12276760Y11313847D01*
X12263542Y11290953D01*
X12256700Y11265418D01*
Y11238982D01*
X12263542Y11213447D01*
X12276760Y11190553D01*
X12295453Y11171860D01*
X12318347Y11158642D01*
X12343882Y11151800D01*
X12370318D01*
X12395853Y11158642D01*
X12418747Y11171860D01*
X12437440Y11190553D01*
X12450658Y11213447D01*
X12457500Y11238982D01*
Y11265418D01*
X12450658Y11290953D01*
X12437440Y11313847D01*
X12418747Y11332540D01*
X12395853Y11345758D01*
X12370318Y11352600D01*
D02*
G37*
G36*
Y11098600D02*
X12343882D01*
X12318347Y11091758D01*
X12295453Y11078540D01*
X12276760Y11059847D01*
X12263542Y11036953D01*
X12256700Y11011418D01*
Y10984982D01*
X12263542Y10959447D01*
X12276760Y10936553D01*
X12295453Y10917860D01*
X12318347Y10904642D01*
X12343882Y10897800D01*
X12370318D01*
X12395853Y10904642D01*
X12418747Y10917860D01*
X12437440Y10936553D01*
X12450658Y10959447D01*
X12457500Y10984982D01*
Y11011418D01*
X12450658Y11036953D01*
X12437440Y11059847D01*
X12418747Y11078540D01*
X12395853Y11091758D01*
X12370318Y11098600D01*
D02*
G37*
G36*
X13994200Y7922400D02*
X13906500D01*
Y7759700D01*
X13994200D01*
Y7922400D01*
D02*
G37*
G36*
Y7734300D02*
X13906500D01*
Y7571600D01*
X13994200D01*
Y7734300D01*
D02*
G37*
G36*
X13004800Y6259900D02*
X13004282D01*
X12978748Y6253058D01*
X12955853Y6239840D01*
X12937160Y6221147D01*
X12923943Y6198253D01*
X12917101Y6172718D01*
Y6172200D01*
X13004800D01*
Y6259900D01*
D02*
G37*
G36*
X13766800Y5561066D02*
X13740590Y5557616D01*
X13716167Y5547499D01*
X13695193Y5531406D01*
X13679102Y5510433D01*
X13668983Y5486010D01*
X13665533Y5459800D01*
Y5448887D01*
X13103763D01*
X13097839Y5459147D01*
X13079147Y5477840D01*
X13056253Y5491058D01*
X13030717Y5497900D01*
X13004282D01*
X12978748Y5491058D01*
X12955853Y5477840D01*
X12937160Y5459147D01*
X12923943Y5436253D01*
X12917101Y5410718D01*
Y5384282D01*
X12923943Y5358747D01*
X12937160Y5335853D01*
X12955853Y5317160D01*
X12978748Y5303942D01*
X13004282Y5297100D01*
X13030717D01*
X13056253Y5303942D01*
X13079147Y5317160D01*
X13097839Y5335853D01*
X13103763Y5346113D01*
X13665533D01*
Y5309800D01*
X13668983Y5283590D01*
X13679102Y5259167D01*
X13695193Y5238194D01*
X13716167Y5222101D01*
X13740590Y5211984D01*
X13766800Y5208534D01*
X13793010Y5211984D01*
X13817433Y5222101D01*
X13838406Y5238194D01*
X13854498Y5259167D01*
X13864616Y5283590D01*
X13868066Y5309800D01*
Y5459800D01*
X13864616Y5486010D01*
X13854498Y5510433D01*
X13838406Y5531406D01*
X13817433Y5547499D01*
X13793010Y5557616D01*
X13766800Y5561066D01*
D02*
G37*
G36*
X14167200Y5560200D02*
X14079500D01*
Y5397500D01*
X14167200D01*
Y5560200D01*
D02*
G37*
G36*
X14054100D02*
X13966400D01*
Y5397500D01*
X14054100D01*
Y5560200D01*
D02*
G37*
G36*
X14167200Y5372100D02*
X14079500D01*
Y5209400D01*
X14167200D01*
Y5372100D01*
D02*
G37*
G36*
X14054100D02*
X13966400D01*
Y5209400D01*
X14054100D01*
Y5372100D01*
D02*
G37*
G36*
X6960776Y9401800D02*
X6959600D01*
Y9309100D01*
X7052300D01*
Y9310276D01*
X7045117Y9337083D01*
X7031241Y9361117D01*
X7011617Y9380741D01*
X6987583Y9394617D01*
X6960776Y9401800D01*
D02*
G37*
%LPD*%
D10*
X13113208Y7991100D02*
X13300908Y8178800D01*
X11469453Y2779947D02*
Y7041161D01*
X12464192Y8035900D01*
X12493600D01*
X12522200Y8064500D01*
X13300908Y8178800D02*
X13385800Y8263692D01*
Y8966200D01*
X13195300Y9156700D02*
X13385800Y8966200D01*
X13081000Y9156700D02*
X13195300D01*
X13030200Y9207500D02*
X13081000Y9156700D01*
X13083800Y7991100D02*
X13113208D01*
X13030200Y7937500D02*
X13083800Y7991100D01*
X10312400Y13182600D02*
X10744200Y13614400D01*
X10934700D01*
X10121900Y13182600D02*
X10134600Y13169901D01*
Y12649200D02*
Y13169901D01*
X10121900Y13182600D02*
X10312400D01*
X10108588Y13894412D02*
X10109200Y13893800D01*
X10108588Y13894412D02*
Y14295277D01*
X10096500Y14307365D02*
X10108588Y14295277D01*
X10096500Y14307365D02*
Y14439900D01*
X10909300Y13893800D02*
X10934700Y13868401D01*
X10109200Y13893800D02*
X10909300D01*
X8355988Y14426588D02*
X8356600Y14427200D01*
X7955122Y14426588D02*
X8355988D01*
X7752534Y14224001D02*
X7955122Y14426588D01*
X7366000Y14224001D02*
X7752534D01*
X8356600Y13906500D02*
X8369300Y13893800D01*
X8356600Y13906500D02*
Y14427200D01*
X8394700Y12560300D02*
Y13258800D01*
X7937500Y13716000D02*
X8394700Y13258800D01*
X7366000Y13716000D02*
X7937500D01*
D11*
X10502900Y8039100D02*
X12242800D01*
X12522200Y8318500D01*
X11747500Y8826500D02*
X12522200D01*
X11468100Y8547100D02*
X11747500Y8826500D01*
X10871200Y8547100D02*
X11468100D01*
X10502900Y7023100D02*
X10871200D01*
X10502900Y6769100D02*
X10871200D01*
X12638360Y8807366D02*
X12948627Y8497100D01*
X12541334Y8807366D02*
X12638360D01*
X13003140Y8445500D02*
X13030200D01*
X12951540Y8497100D02*
X13003140Y8445500D01*
X12948627Y8497100D02*
X12951540D01*
X10502900Y8547100D02*
X10871200D01*
X12522200Y8826500D02*
X12541334Y8807366D01*
X12509500Y5524500D02*
X12871365Y5162634D01*
X12998366D01*
X13017500Y5143500D01*
X10502900Y7531100D02*
X10871200D01*
X10502900Y8801100D02*
X11016276D01*
X12990500Y10775324D01*
X12813158Y11504600D02*
X12917043D01*
X12357100Y11506200D02*
X12361766Y11501534D01*
X12917043Y11504600D02*
X12990500Y11431142D01*
Y10775324D02*
Y11431142D01*
X12810092Y11501534D02*
X12813158Y11504600D01*
X12361766Y11501534D02*
X12810092D01*
X12470258Y8697900D02*
X12600458D01*
X12189059Y8416701D02*
X12470258Y8697900D01*
X10817186Y8416701D02*
X12189059D01*
X10807037Y8426850D02*
X10817186Y8416701D01*
X10532577Y8426850D02*
X10807037D01*
X12564311Y8951900D02*
X12630431D01*
X12904800Y8647558D02*
Y8677532D01*
X10503288Y8397561D02*
X10532577Y8426850D01*
X10503288Y8293488D02*
Y8397561D01*
X10502900Y8293100D02*
X10503288Y8293488D01*
X12522200Y9080500D02*
X12535021Y9067679D01*
Y8981190D02*
Y9067679D01*
Y8981190D02*
X12564311Y8951900D01*
X12600458Y8697900D02*
X12978258Y8320100D01*
X12979858Y8572500D02*
X13080542D01*
X13082143Y8320100D02*
X13155600Y8393558D01*
X12630431Y8951900D02*
X12904800Y8677532D01*
X13155600Y8393558D02*
Y8497442D01*
X13080542Y8572500D02*
X13155600Y8497442D01*
X12978258Y8320100D02*
X13082143D01*
X12904800Y8647558D02*
X12979858Y8572500D01*
X10502900Y8293100D02*
X10871200D01*
X10502900Y7785100D02*
X10871200D01*
X10502900Y7277100D02*
X10871200D01*
X12331700Y5194300D02*
X12509500Y5016500D01*
X12331700Y5194300D02*
Y5562600D01*
X12420600Y5651500D01*
X13017500D01*
X11719111Y11096811D02*
Y12417611D01*
X12217400Y12915900D01*
X11112500Y10490200D02*
X11719111Y11096811D01*
X13754100Y5397500D02*
X13766800Y5384800D01*
X6756400Y5638800D02*
X7073900Y5321300D01*
X6756400Y8597900D02*
X6946900Y8788400D01*
X6756400Y5638800D02*
Y8597900D01*
X10934700Y14122400D02*
X11557000Y14744701D01*
X13119099D01*
X13517599Y14346201D01*
X12865100Y11887200D02*
X13517599D01*
X13606500Y8636000D02*
Y9148697D01*
X12839700Y8890000D02*
X13030200Y8699500D01*
X12839700Y8890000D02*
Y9512300D01*
X12953999Y9626600D02*
X13128598D01*
X12839700Y9512300D02*
X12953999Y9626600D01*
X13128598D02*
X13606500Y9148697D01*
X13017500Y5397500D02*
X13754100D01*
X6756400Y8597900D02*
Y10528300D01*
X6946900Y10718800D01*
X6794500Y10871200D02*
Y14224001D01*
Y10871200D02*
X6946900Y10718800D01*
X10287000Y14770100D02*
X10934700Y14122400D01*
X6794500Y14224001D02*
X7340600Y14770100D01*
X10287000D01*
X13606500Y9148697D02*
X14211301Y9753497D01*
Y11049000D01*
X13536734Y11723566D02*
X14211301Y11049000D01*
X13536734Y11723566D02*
Y11868066D01*
X13517599Y11887200D02*
X13536734Y11868066D01*
X13517599Y12517400D02*
Y14346201D01*
X12217400Y12915900D02*
X13119099D01*
X13517599Y12517400D01*
Y11887200D02*
Y12517400D01*
X12687300Y10871200D02*
Y11333889D01*
X10871200Y9055100D02*
X12687300Y10871200D01*
X10871200Y9309100D02*
X12039600Y10477500D01*
Y11582400D01*
X12088800Y11631600D01*
X12516133D01*
X12845966Y11652334D02*
X12851570Y11646730D01*
X12851570D02*
X12851570Y11646730D01*
X10502900Y9309100D02*
X10871200D01*
X12516133Y11631600D02*
X12570799Y11576934D01*
X12781774D01*
X12838040Y11633200D01*
X8915400Y8953500D02*
X11557000Y11595100D01*
Y13081000D01*
X7835900Y9817100D02*
X8216900D01*
X7835900Y9563100D02*
X8216900D01*
X7835900Y9309100D02*
X8216900D01*
X7835900Y9055100D02*
X8216900D01*
X7835900Y8039100D02*
X8216900D01*
X7835900Y7785100D02*
X8216900D01*
X7835900Y7531100D02*
X8216900D01*
X7835900Y6769100D02*
X8216900D01*
X7583842Y9040458D02*
X7823200Y8801100D01*
X7583842Y9040458D02*
Y9827858D01*
X7823200Y8801100D02*
X8216900D01*
X7467600Y8915400D02*
X7835900Y8547100D01*
X7467600Y8915400D02*
Y9690100D01*
X7835900Y8547100D02*
X8216900D01*
X7353300Y8775700D02*
X7835900Y8293100D01*
X7353300Y8775700D02*
Y9601200D01*
X7835900Y8293100D02*
X8216900D01*
X7327900Y7785100D02*
X7835900Y7277100D01*
X7327900Y7785100D02*
Y8083813D01*
X6967947Y8443766D02*
X7327900Y8083813D01*
X6967947Y8189766D02*
X7175500Y7982213D01*
Y7683500D02*
X7835900Y7023100D01*
X7175500Y7683500D02*
Y7982213D01*
X6967947Y8443766D02*
Y8513353D01*
X6946900Y8534400D02*
X6967947Y8513353D01*
X7835900Y7277100D02*
X8216900D01*
X6967947Y8189766D02*
Y8259353D01*
X7835900Y7023100D02*
X8216900D01*
X6946900Y8280400D02*
X6967947Y8259353D01*
X7738653Y6536147D02*
X7814853D01*
X6946900Y7327900D02*
Y8026400D01*
X7814853Y6536147D02*
X7835900Y6515100D01*
X8216900D01*
X6946900Y7327900D02*
X7738653Y6536147D01*
X7835900Y6261100D02*
X8216900D01*
X7835900Y6007100D02*
X8216900D01*
X7835900Y5753100D02*
X8216900D01*
X7835900Y5499100D02*
X8216900D01*
X7835900Y5245100D02*
X8216900D01*
X7835900Y4991100D02*
X8216900D01*
X7835900Y4737100D02*
X8216900D01*
X10502900Y5245100D02*
X10871200D01*
X10502900Y4991100D02*
X10871200D01*
X10502900Y4737100D02*
X10871200D01*
X10502900Y4483100D02*
X10871200D01*
X10502900Y5499100D02*
X10871200D01*
X10502900Y5753100D02*
X10871200D01*
X10502900Y6007100D02*
X10871200D01*
X10502900Y6261100D02*
X10871200D01*
X10502900Y6515100D02*
X10871200D01*
X12357100Y12014200D02*
X12718966Y11652334D01*
X12845966D01*
X10502900Y9055100D02*
X10871200D01*
X12716590Y11363179D02*
X12849078D01*
X12865100Y11379200D01*
X12687300Y11333889D02*
X12716590Y11363179D01*
X11557000Y13081000D02*
X12814301Y14338300D01*
X8915400Y6705600D02*
Y8953500D01*
X11252200Y13677901D02*
X11912600Y14338300D01*
X11252200Y11696700D02*
Y13677901D01*
X8216900Y6007100D02*
X8915400Y6705600D01*
X8216900Y6261100D02*
X8521700Y6565900D01*
Y8966200D02*
X11252200Y11696700D01*
X8521700Y6565900D02*
Y8966200D01*
X10934700Y11772900D02*
Y13360400D01*
X8216900Y9055100D02*
X10934700Y11772900D01*
X6946900Y10210800D02*
X7467600Y9690100D01*
X7018748Y9935753D02*
X7353300Y9601200D01*
X6946900Y9956800D02*
X6967947Y9935753D01*
X7018748D01*
X6946900Y10464800D02*
X7583842Y9827858D01*
D12*
X11328400Y8216900D02*
X12166600D01*
X12522200Y8572500D01*
X12509500Y6032500D02*
X12515850Y6038850D01*
Y7804150D02*
X12522200Y7810500D01*
X12515850Y6038850D02*
Y7804150D01*
X10731500Y2374900D02*
X10731500Y2374900D01*
X10731500Y2374900D02*
Y2989300D01*
X8478800D02*
X10731500D01*
X7378700Y4089400D02*
X8478800Y2989300D01*
X7073900Y5067300D02*
Y5321300D01*
Y4394200D02*
Y5067300D01*
Y4394200D02*
X7378700Y4089400D01*
X11112500Y9791700D02*
Y10236200D01*
X10883900Y9563100D02*
X11112500Y9791700D01*
X10502900Y9563100D02*
X10883900D01*
X13300908Y8178800D02*
X13944600D01*
X13017500Y4635500D02*
X13306319Y4924318D01*
X14258818D01*
X13944600Y8178800D02*
X14198599Y7924800D01*
Y7277100D02*
Y7924800D01*
X13167900Y6246400D02*
X14198599Y7277100D01*
X13027068Y5956369D02*
X13167900Y6097202D01*
X13017500Y5905500D02*
X13027068Y5915067D01*
Y5956369D01*
X13167900Y6097202D02*
Y6246400D01*
X13128667Y7947067D02*
X13246100Y8064500D01*
X13039767Y7947067D02*
X13128667D01*
X13030200Y7937500D02*
X13039767Y7947067D01*
X12395600Y4533500D02*
X12470970D01*
X12192000Y4737100D02*
Y5715000D01*
Y4737100D02*
X12395600Y4533500D01*
X12470970D02*
X12495970Y4508500D01*
X12509500D01*
X13017500Y5905500D02*
X14160500D01*
X14452600Y5613400D01*
Y5118100D02*
Y5613400D01*
X14258818Y4924318D02*
X14452600Y5118100D01*
X12192000Y5715000D02*
X12509500Y6032500D01*
D13*
X12763500Y7512447D02*
X12909947Y7366000D01*
X13187801D01*
X13568800Y7747000D01*
X12763500Y7512447D02*
Y7918053D01*
X13568800Y7747000D02*
X13593800D01*
X11469453Y2779947D02*
X12517203Y3827697D01*
X10631806Y1942300D02*
X11469453Y2779947D01*
X9588500Y12649200D02*
X9626600D01*
X9264650Y12973050D02*
Y14230350D01*
Y12973050D02*
X9588500Y12649200D01*
X9264650Y14230350D02*
X9601200Y13893800D01*
X9067800Y14427200D02*
X9264650Y14230350D01*
X8864600Y14427200D02*
X9067800D01*
X9537700Y12560300D02*
X9626600Y12649200D01*
X8902700Y12560300D02*
X9537700D01*
X12522200Y8064500D02*
X12617053D01*
X12763500Y7918053D01*
X12517203Y3827697D02*
X13124496D01*
X13729100Y4432300D01*
X13754100D01*
X12517203Y3827697D02*
X12734900Y4045394D01*
X10198100Y1892300D02*
Y1917300D01*
X10223100Y1942300D01*
X10631806D01*
X12734900Y4045394D02*
Y4601864D01*
X12602864Y4733900D02*
X12734900Y4601864D01*
X12538100Y4733900D02*
X12602864D01*
X12509500Y4762500D02*
X12538100Y4733900D01*
D14*
X6946900Y9956800D02*
D03*
Y10210800D02*
D03*
Y10464800D02*
D03*
Y10718800D02*
D03*
Y11226800D02*
D03*
Y10972800D02*
D03*
X10871200Y8801100D02*
D03*
Y8547100D02*
D03*
Y8293100D02*
D03*
Y8039100D02*
D03*
Y7785100D02*
D03*
Y7531100D02*
D03*
Y7277100D02*
D03*
Y7023100D02*
D03*
Y6769100D02*
D03*
X6946900Y8788400D02*
D03*
X10934700Y14122400D02*
D03*
X7073900Y5067300D02*
D03*
Y5321300D02*
D03*
X10871200Y9563100D02*
D03*
Y6515100D02*
D03*
Y6261100D02*
D03*
Y6007100D02*
D03*
Y5753100D02*
D03*
Y5499100D02*
D03*
Y5245100D02*
D03*
Y4991100D02*
D03*
Y4737100D02*
D03*
Y4483100D02*
D03*
Y9055100D02*
D03*
Y9309100D02*
D03*
Y9817100D02*
D03*
X7835900Y4483100D02*
D03*
Y4737100D02*
D03*
Y4991100D02*
D03*
Y5245100D02*
D03*
Y5499100D02*
D03*
Y5753100D02*
D03*
Y6007100D02*
D03*
Y6261100D02*
D03*
Y6515100D02*
D03*
Y6769100D02*
D03*
Y7023100D02*
D03*
Y7277100D02*
D03*
Y7531100D02*
D03*
Y7785100D02*
D03*
Y8039100D02*
D03*
Y8293100D02*
D03*
Y8547100D02*
D03*
Y8801100D02*
D03*
Y9817100D02*
D03*
Y9563100D02*
D03*
Y9309100D02*
D03*
Y9055100D02*
D03*
X6946900Y8534400D02*
D03*
X10934700Y13360400D02*
D03*
X6946900Y8280400D02*
D03*
X10934700Y14376401D02*
D03*
X7073900Y5575300D02*
D03*
Y5829300D02*
D03*
X6946900Y9042400D02*
D03*
Y9296400D02*
D03*
X10934700Y13868401D02*
D03*
Y13614400D02*
D03*
X6946900Y8026400D02*
D03*
D15*
X13766800Y5384800D02*
D03*
X13606500Y8636000D02*
D03*
X13517599Y11887200D02*
D03*
X13530299Y11010900D02*
D03*
X13593800Y7747000D02*
D03*
X13754100Y4432300D02*
D03*
D16*
X14066800Y5384800D02*
D03*
X13830299Y11010900D02*
D03*
X13817599Y11887200D02*
D03*
X14054100Y4432300D02*
D03*
X13893800Y7747000D02*
D03*
X13906500Y8636000D02*
D03*
D17*
X10502900Y7023100D02*
D03*
Y6769100D02*
D03*
Y8547100D02*
D03*
Y7531100D02*
D03*
Y8801100D02*
D03*
Y8293100D02*
D03*
Y7785100D02*
D03*
Y7277100D02*
D03*
Y8039100D02*
D03*
Y9563100D02*
D03*
X8216900Y4483100D02*
D03*
X10502900Y4737100D02*
D03*
X8216900D02*
D03*
X10502900Y4991100D02*
D03*
X8216900D02*
D03*
X10502900Y5245100D02*
D03*
X8216900D02*
D03*
X10502900Y5499100D02*
D03*
X8216900D02*
D03*
X10502900Y5753100D02*
D03*
X8216900D02*
D03*
X10502900Y6007100D02*
D03*
X8216900D02*
D03*
X10502900Y6261100D02*
D03*
X8216900D02*
D03*
X10502900Y6515100D02*
D03*
X8216900D02*
D03*
Y6769100D02*
D03*
Y7023100D02*
D03*
Y7277100D02*
D03*
Y7531100D02*
D03*
Y7785100D02*
D03*
Y8039100D02*
D03*
Y8293100D02*
D03*
Y8547100D02*
D03*
Y8801100D02*
D03*
X10502900Y9055100D02*
D03*
X8216900D02*
D03*
X10502900Y9309100D02*
D03*
X8216900D02*
D03*
Y9563100D02*
D03*
X10502900Y9817100D02*
D03*
X8216900D02*
D03*
D18*
X13030200Y8445500D02*
D03*
X12522200Y8826500D02*
D03*
X13017500Y5143500D02*
D03*
X12509500Y5524500D02*
D03*
X12865100Y12141200D02*
D03*
X12357100Y11506200D02*
D03*
X13030200Y8191500D02*
D03*
X12522200Y9080500D02*
D03*
X13017500Y4889500D02*
D03*
X12509500Y5778500D02*
D03*
X12522200Y8318500D02*
D03*
X13030200Y8953500D02*
D03*
X12509500Y5016500D02*
D03*
X13017500Y5651500D02*
D03*
X13030200Y8699500D02*
D03*
X13017500Y5397500D02*
D03*
X12865100Y11887200D02*
D03*
Y12649200D02*
D03*
X12357100Y11760200D02*
D03*
X13017500Y6159500D02*
D03*
X12509500Y5270500D02*
D03*
X13030200Y9461500D02*
D03*
X12522200Y8572500D02*
D03*
X12357100Y10998200D02*
D03*
X12865100Y11125200D02*
D03*
X12357100Y11252200D02*
D03*
X12865100Y11379200D02*
D03*
Y11633200D02*
D03*
X12357100Y12014200D02*
D03*
Y12268200D02*
D03*
X12865100Y12395200D02*
D03*
X12357100Y12522200D02*
D03*
X12522200Y7810500D02*
D03*
X13030200Y7937500D02*
D03*
X12522200Y8064500D02*
D03*
X13030200Y9207500D02*
D03*
X12522200Y9334500D02*
D03*
X12509500Y4508500D02*
D03*
X13017500Y4635500D02*
D03*
X12509500Y4762500D02*
D03*
X13017500Y5905500D02*
D03*
X12509500Y6032500D02*
D03*
D19*
X11112500Y10236200D02*
D03*
Y10490200D02*
D03*
X12166600Y14338300D02*
D03*
X13068300D02*
D03*
X12814301D02*
D03*
X11912600D02*
D03*
D20*
X10731500Y2989300D02*
D03*
X10198100Y1892300D02*
D03*
D21*
X7378700Y4089400D02*
D03*
X7353300Y2425700D02*
D03*
X7366000Y14224001D02*
D03*
D22*
X10731500Y2374900D02*
D03*
X10477500D02*
D03*
D23*
X10502900Y4483100D02*
D03*
D24*
X12865100Y10871200D02*
D03*
X13017500Y4381500D02*
D03*
X13030200Y7683500D02*
D03*
D25*
X7378700Y3581400D02*
D03*
X7353300Y1917700D02*
D03*
X7366000Y13716000D02*
D03*
D26*
X9588500Y14439900D02*
D03*
X9613900Y13182600D02*
D03*
X8877300Y13893800D02*
D03*
X8902700Y13258800D02*
D03*
X8394700Y12560300D02*
D03*
X8356600Y14427200D02*
D03*
X10134600Y12649200D02*
D03*
X10109200Y13893800D02*
D03*
D27*
X10731500Y3289300D02*
D03*
X10198100Y1592300D02*
D03*
D28*
X7378700Y12420600D02*
D03*
X13500101Y3314700D02*
D03*
X12865100Y13385800D02*
D03*
X8432800Y1727200D02*
D03*
D29*
X10223500Y2374900D02*
D03*
D30*
X8902700Y12560300D02*
D03*
X8864600Y14427200D02*
D03*
X8369300Y13893800D02*
D03*
X8394700Y13258800D02*
D03*
X9626600Y12649200D02*
D03*
X9601200Y13893800D02*
D03*
X10096500Y14439900D02*
D03*
X10121900Y13182600D02*
D03*
D31*
X11328400Y8216900D02*
D03*
D32*
X9130668Y11861168D02*
D03*
X11785600Y13716000D02*
D03*
X10680700Y12903200D02*
D03*
X7975600Y12319000D02*
D03*
X12776200Y10058400D02*
D03*
D33*
X10058400Y2425700D02*
X10198100Y2286000D01*
Y1892300D02*
Y2286000D01*
X7353300Y2425700D02*
X10058400D01*
%TF.MD5,0dd0590fefd46da1db48dddc1eac549b*%
M02*
