%TF.GenerationSoftware,Altium Limited,Altium Designer,25.8.1 (18)*%
G04 Layer_Color=128*
%FSLAX45Y45*%
%MOMM*%
%TF.SameCoordinates,5194DE87-2E3A-4D0E-B7FB-1F2D01658319*%
%TF.FilePolarity,Positive*%
%TF.FileFunction,Drillmap*%
%TF.Part,Single*%
G01*
G75*
%TA.AperFunction,NonConductor*%
%ADD31C,0.12700*%
D31*
X8728000Y6134100D02*
X8798000D01*
X8763000Y6099100D02*
Y6169100D01*
X8728000Y5834100D02*
X8798000D01*
X8763000Y5799100D02*
Y5869100D01*
X11727900Y6781800D02*
X11817900D01*
X11772900Y6736800D02*
Y6826800D01*
X10407100Y6756400D02*
X10497100D01*
X10452100Y6711400D02*
Y6801400D01*
X11229900Y6248400D02*
X11299900D01*
X11264900Y6213400D02*
Y6283400D01*
X4158700Y7797800D02*
X4248700D01*
X4203700Y7752800D02*
Y7842800D01*
X10379000Y6197600D02*
X10449000D01*
X10414000Y6162600D02*
Y6232600D01*
X9578900Y6192800D02*
X9648900D01*
X9613900Y6157800D02*
Y6227800D01*
X3650700Y7670800D02*
X3740700D01*
X3695700Y7625800D02*
Y7715800D01*
X10407100Y7010400D02*
X10497100D01*
X10452100Y6965400D02*
Y7055400D01*
X10407100Y7264400D02*
X10497100D01*
X10452100Y7219400D02*
Y7309400D01*
X10407100Y7772400D02*
X10497100D01*
X10452100Y7727400D02*
Y7817400D01*
X10407100Y8026400D02*
X10497100D01*
X10452100Y7981400D02*
Y8071400D01*
X9645100Y8280400D02*
X9735100D01*
X9690100Y8235400D02*
Y8325400D01*
X11727900Y7035800D02*
X11817900D01*
X11772900Y6990800D02*
Y7080800D01*
X11727900Y7543800D02*
X11817900D01*
X11772900Y7498800D02*
Y7588800D01*
X11727900Y8051800D02*
X11817900D01*
X11772900Y8006800D02*
Y8096800D01*
X10965900Y8305800D02*
X11055900D01*
X11010900Y8260800D02*
Y8350800D01*
X10965900Y7797800D02*
X11055900D01*
X11010900Y7752800D02*
Y7842800D01*
X10965900Y7289800D02*
X11055900D01*
X11010900Y7244800D02*
Y7334800D01*
X7986400Y6223000D02*
X8066400D01*
X8026400Y6183000D02*
Y6263000D01*
X8088000Y7465900D02*
X8168000D01*
X8128000Y7425900D02*
Y7505900D01*
X6648450Y8051800D02*
X6762750D01*
X6705600Y7994650D02*
Y8108950D01*
X6026150Y8064500D02*
X6140450D01*
X6083300Y8007350D02*
Y8121650D01*
X6791100Y6096000D02*
X6886100D01*
X6838600Y6048500D02*
Y6143500D01*
X9293000Y8153500D02*
X9388000D01*
X9340500Y8106000D02*
Y8201000D01*
X7455700Y8547100D02*
X7555700D01*
X7505700Y8497100D02*
Y8597100D01*
X5182400Y8610600D02*
X5282400D01*
X5232400Y8560600D02*
Y8660600D01*
X5451400Y5816600D02*
X5521400D01*
X5486400Y5781600D02*
Y5851600D01*
X4625900Y5918200D02*
X4695900D01*
X4660900Y5883200D02*
Y5953200D01*
X9578900Y5892800D02*
X9648900D01*
X9613900Y5857800D02*
Y5927800D01*
X10379000Y5897600D02*
X10449000D01*
X10414000Y5862600D02*
Y5932600D01*
X11229900Y5948400D02*
X11299900D01*
X11264900Y5913400D02*
Y5983400D01*
X8773000Y8153500D02*
X8868000D01*
X8820500Y8106000D02*
Y8201000D01*
X9033000Y8153500D02*
X9128000D01*
X9080500Y8106000D02*
Y8201000D01*
X8899100Y5461000D02*
X8979100D01*
X8939100Y5421000D02*
Y5501000D01*
X7999100Y5461000D02*
X8079100D01*
X8039100Y5421000D02*
Y5501000D01*
X6564000Y5473700D02*
X6644000D01*
X6604000Y5433700D02*
Y5513700D01*
X7464000Y5473700D02*
X7544000D01*
X7504000Y5433700D02*
Y5513700D01*
X6531100Y6096000D02*
X6626100D01*
X6578600Y6048500D02*
Y6143500D01*
X8899100Y7759700D02*
X8979100D01*
X8939100Y7719700D02*
Y7799700D01*
X9645100Y8026400D02*
X9735100D01*
X9690100Y7981400D02*
Y8071400D01*
X7086400Y6223000D02*
X7166400D01*
X7126400Y6183000D02*
Y6263000D01*
X6648450Y8509000D02*
X6762750D01*
X6705600Y8451850D02*
Y8566150D01*
X8875400Y7453200D02*
X8955400D01*
X8915400Y7413200D02*
Y7493200D01*
X6271100Y6096000D02*
X6366100D01*
X6318600Y6048500D02*
Y6143500D01*
X6032500Y7309800D02*
X6159500D01*
X6096000Y7246300D02*
Y7373300D01*
X5967100Y6108700D02*
X6047100D01*
X6007100Y6068700D02*
Y6148700D01*
X5451400Y6116600D02*
X5521400D01*
X5486400Y6081600D02*
Y6151600D01*
X7404900Y6807200D02*
X7504900D01*
X7454900Y6757200D02*
Y6857200D01*
X5967100Y5208700D02*
X6047100D01*
X6007100Y5168700D02*
Y5248700D01*
X7999100Y7759700D02*
X8079100D01*
X8039100Y7719700D02*
Y7799700D01*
X6680200Y6784500D02*
X6807200D01*
X6743700Y6721000D02*
Y6848000D01*
X6032500Y6781800D02*
X6159500D01*
X6096000Y6718300D02*
Y6845300D01*
X4625900Y6218200D02*
X4695900D01*
X4660900Y6183200D02*
Y6253200D01*
X5245900Y6832600D02*
X5345900D01*
X5295900Y6782600D02*
Y6882600D01*
X3650700Y7162800D02*
X3740700D01*
X3695700Y7117800D02*
Y7207800D01*
X10407100Y8280400D02*
X10497100D01*
X10452100Y8235400D02*
Y8325400D01*
X10407100Y7518400D02*
X10497100D01*
X10452100Y7473400D02*
Y7563400D01*
X9645100Y7772400D02*
X9735100D01*
X9690100Y7727400D02*
Y7817400D01*
X9645100Y7518400D02*
X9735100D01*
X9690100Y7473400D02*
Y7563400D01*
X9645100Y7264400D02*
X9735100D01*
X9690100Y7219400D02*
Y7309400D01*
X9645100Y7010400D02*
X9735100D01*
X9690100Y6965400D02*
Y7055400D01*
X9645100Y6756400D02*
X9735100D01*
X9690100Y6711400D02*
Y6801400D01*
X5245900Y7340600D02*
X5345900D01*
X5295900Y7290600D02*
Y7390600D01*
X6026150Y8521700D02*
X6140450D01*
X6083300Y8464550D02*
Y8578850D01*
X6026150Y8293100D02*
X6140450D01*
X6083300Y8235950D02*
Y8350250D01*
X7404900Y7315200D02*
X7504900D01*
X7454900Y7265200D02*
Y7365200D01*
X6648450Y8280400D02*
X6762750D01*
X6705600Y8223250D02*
Y8337550D01*
X8875400Y6553200D02*
X8955400D01*
X8915400Y6513200D02*
Y6593200D01*
X6032500Y7045800D02*
X6159500D01*
X6096000Y6982300D02*
Y7109300D01*
X6680200Y7312500D02*
X6807200D01*
X6743700Y7249000D02*
Y7376000D01*
X6680200Y7048500D02*
X6807200D01*
X6743700Y6985000D02*
Y7112000D01*
X7455700Y8039100D02*
X7555700D01*
X7505700Y7989100D02*
Y8089100D01*
X5182400Y8102600D02*
X5282400D01*
X5232400Y8052600D02*
Y8152600D01*
X8088000Y6565900D02*
X8168000D01*
X8128000Y6525900D02*
Y6605900D01*
X11727900Y8305800D02*
X11817900D01*
X11772900Y8260800D02*
Y8350800D01*
X11727900Y7797800D02*
X11817900D01*
X11772900Y7752800D02*
Y7842800D01*
X11727900Y7289800D02*
X11817900D01*
X11772900Y7244800D02*
Y7334800D01*
X10965900Y8051800D02*
X11055900D01*
X11010900Y8006800D02*
Y8096800D01*
X10965900Y7543800D02*
X11055900D01*
X11010900Y7498800D02*
Y7588800D01*
X10965900Y7035800D02*
X11055900D01*
X11010900Y6990800D02*
Y7080800D01*
X10965900Y6781800D02*
X11055900D01*
X11010900Y6736800D02*
Y6826800D01*
X8481700Y6554900D02*
X8561700D01*
X8521700Y6514900D02*
Y6594900D01*
X8481700Y7454900D02*
X8561700D01*
X8521700Y7414900D02*
Y7494900D01*
X4158700Y6781800D02*
X4248700D01*
X4203700Y6736800D02*
Y6826800D01*
X3650700Y6908800D02*
X3740700D01*
X3695700Y6863800D02*
Y6953800D01*
X4158700Y7035800D02*
X4248700D01*
X4203700Y6990800D02*
Y7080800D01*
X4158700Y7289800D02*
X4248700D01*
X4203700Y7244800D02*
Y7334800D01*
X3650700Y7416800D02*
X3740700D01*
X3695700Y7371800D02*
Y7461800D01*
X4158700Y7543800D02*
X4248700D01*
X4203700Y7498800D02*
Y7588800D01*
X3650700Y7924800D02*
X3740700D01*
X3695700Y7879800D02*
Y7969800D01*
X4158700Y8051800D02*
X4248700D01*
X4203700Y8006800D02*
Y8096800D01*
X3650700Y8178800D02*
X3740700D01*
X3695700Y8133800D02*
Y8223800D01*
X4158700Y8305800D02*
X4248700D01*
X4203700Y8260800D02*
Y8350800D01*
X3650700Y8432800D02*
X3740700D01*
X3695700Y8387800D02*
Y8477800D01*
X4158700Y8559800D02*
X4248700D01*
X4203700Y8514800D02*
Y8604800D01*
X4433100Y7454900D02*
X4533100D01*
X4483100Y7404900D02*
Y7504900D01*
X5615229Y7291025D02*
X5715229D01*
X5665229Y7241025D02*
Y7341025D01*
X5639600Y8293100D02*
X5739600D01*
X5689600Y8243100D02*
Y8343100D01*
X4471200Y8331200D02*
X4571200D01*
X4521200Y8281200D02*
Y8381200D01*
X4382300Y9131300D02*
X4482300D01*
X4432300Y9081300D02*
Y9181300D01*
X2947200Y7772400D02*
X3047200D01*
X2997200Y7722400D02*
Y7822400D01*
%TF.MD5,bbd3fb92d5945873875df682f721f53f*%
M02*
