%TF.GenerationSoftware,Altium Limited,Altium Designer,25.8.1 (18)*%
G04 Layer_Color=0*
%FSLAX45Y45*%
%MOMM*%
%TF.SameCoordinates,5194DE87-2E3A-4D0E-B7FB-1F2D01658319*%
%TF.FilePolarity,Positive*%
%TF.FileFunction,Plated,1,2,PTH,Drill*%
%TF.Part,Single*%
G01*
G75*
%TA.AperFunction,ComponentDrill*%
%ADD44C,0.70000*%
%ADD45C,0.90000*%
%ADD46C,0.80000*%
%ADD47C,0.80000*%
%ADD48C,1.14300*%
%ADD49C,0.95000*%
%ADD50C,1.00000*%
%ADD51C,1.27000*%
%TA.AperFunction,ViaDrill,NotFilled*%
%ADD52C,1.00000*%
D44*
X8763000Y6134100D02*
D03*
Y5834100D02*
D03*
X11264900Y6248400D02*
D03*
X10414000Y6197600D02*
D03*
X9613900Y6192800D02*
D03*
X5486400Y5816600D02*
D03*
X4660900Y5918200D02*
D03*
X9613900Y5892800D02*
D03*
X10414000Y5897600D02*
D03*
X11264900Y5948400D02*
D03*
X5486400Y6116600D02*
D03*
X4660900Y6218200D02*
D03*
D45*
X11772900Y6781800D02*
D03*
X10452100Y6756400D02*
D03*
X4203700Y7797800D02*
D03*
X3695700Y7670800D02*
D03*
X10452100Y7010400D02*
D03*
Y7264400D02*
D03*
Y7772400D02*
D03*
Y8026400D02*
D03*
X9690100Y8280400D02*
D03*
X11772900Y7035800D02*
D03*
Y7543800D02*
D03*
Y8051800D02*
D03*
X11010900Y8305800D02*
D03*
Y7797800D02*
D03*
Y7289800D02*
D03*
X9690100Y8026400D02*
D03*
X3695700Y7162800D02*
D03*
X10452100Y8280400D02*
D03*
Y7518400D02*
D03*
X9690100Y7772400D02*
D03*
Y7518400D02*
D03*
Y7264400D02*
D03*
Y7010400D02*
D03*
Y6756400D02*
D03*
X11772900Y8305800D02*
D03*
Y7797800D02*
D03*
Y7289800D02*
D03*
X11010900Y8051800D02*
D03*
Y7543800D02*
D03*
Y7035800D02*
D03*
Y6781800D02*
D03*
X4203700D02*
D03*
X3695700Y6908800D02*
D03*
X4203700Y7035800D02*
D03*
Y7289800D02*
D03*
X3695700Y7416800D02*
D03*
X4203700Y7543800D02*
D03*
X3695700Y7924800D02*
D03*
X4203700Y8051800D02*
D03*
X3695700Y8178800D02*
D03*
X4203700Y8305800D02*
D03*
X3695700Y8432800D02*
D03*
X4203700Y8559800D02*
D03*
D46*
X8026400Y6223000D02*
D03*
X8939100Y5461000D02*
D03*
X8039100D02*
D03*
X6604000Y5473700D02*
D03*
X7504000D02*
D03*
X8939100Y7759700D02*
D03*
X7126400Y6223000D02*
D03*
X8039100Y7759700D02*
D03*
D47*
X8128000Y7465900D02*
D03*
X8915400Y7453200D02*
D03*
X6007100Y6108700D02*
D03*
Y5208700D02*
D03*
X8915400Y6553200D02*
D03*
X8128000Y6565900D02*
D03*
X8521700Y6554900D02*
D03*
Y7454900D02*
D03*
D48*
X6705600Y8051800D02*
D03*
X6083300Y8064500D02*
D03*
X6705600Y8509000D02*
D03*
X6083300Y8521700D02*
D03*
Y8293100D02*
D03*
X6705600Y8280400D02*
D03*
D49*
X6838600Y6096000D02*
D03*
X9340500Y8153500D02*
D03*
X8820500D02*
D03*
X9080500D02*
D03*
X6578600Y6096000D02*
D03*
X6318600D02*
D03*
D50*
X7505700Y8547100D02*
D03*
X5232400Y8610600D02*
D03*
X7454900Y6807200D02*
D03*
X5295900Y6832600D02*
D03*
Y7340600D02*
D03*
X7454900Y7315200D02*
D03*
X7505700Y8039100D02*
D03*
X5232400Y8102600D02*
D03*
D51*
X6096000Y7309800D02*
D03*
X6743700Y6784500D02*
D03*
X6096000Y6781800D02*
D03*
Y7045800D02*
D03*
X6743700Y7312500D02*
D03*
Y7048500D02*
D03*
D52*
X4483100Y7454900D02*
D03*
X5665229Y7291025D02*
D03*
X5689600Y8293100D02*
D03*
X4521200Y8331200D02*
D03*
X4432300Y9131300D02*
D03*
X2997200Y7772400D02*
D03*
%TF.MD5,fae96e327ebbc36ef1dffa57e2751829*%
M02*
