%TF.GenerationSoftware,Altium Limited,Altium Designer,25.8.1 (18)*%
G04 Layer_Physical_Order=2*
G04 Layer_Color=16711680*
%FSLAX45Y45*%
%MOMM*%
%TF.SameCoordinates,A03D5229-0D84-416C-82DE-D2F162E989C3*%
%TF.FilePolarity,Positive*%
%TF.FileFunction,Copper,L2,Bot,Signal*%
%TF.Part,Single*%
G01*
G75*
%TA.AperFunction,Conductor*%
%ADD12C,1.90000*%
%TA.AperFunction,ComponentPad*%
%ADD15R,1.50000X1.50000*%
%ADD16C,1.50000*%
%ADD17O,3.00000X1.50000*%
%ADD18R,3.00000X1.50000*%
%ADD19R,1.65100X1.65100*%
%ADD20C,1.65100*%
%ADD21C,2.00000*%
%ADD22R,1.77800X1.77800*%
%ADD23C,2.03200*%
%TA.AperFunction,ViaPad*%
%ADD24C,1.70000*%
%ADD25C,2.00000*%
G36*
X13265150Y8032750D02*
X13360400Y7937500D01*
Y4864100D01*
Y4838700D01*
X12547600Y4025900D01*
X6896100D01*
X5638800Y5283200D01*
Y7772400D01*
X6388100Y8521700D01*
X6413500Y8534400D01*
X12661900D01*
X13265150Y8032750D01*
D02*
G37*
%LPC*%
G36*
X13015099Y7995000D02*
X12852400D01*
Y7907299D01*
X13015099D01*
Y7995000D01*
D02*
G37*
G36*
X12827000D02*
X12664300D01*
Y7907299D01*
X12827000D01*
Y7995000D01*
D02*
G37*
G36*
X12164199Y7982300D02*
X12001500D01*
Y7894599D01*
X12164199D01*
Y7982300D01*
D02*
G37*
G36*
X11976100D02*
X11813400D01*
Y7894599D01*
X11976100D01*
Y7982300D01*
D02*
G37*
G36*
X13015099Y7881899D02*
X12852400D01*
Y7794200D01*
X13015099D01*
Y7881899D01*
D02*
G37*
G36*
X12827000D02*
X12664300D01*
Y7794200D01*
X12827000D01*
Y7881899D01*
D02*
G37*
G36*
X12164199Y7869199D02*
X12001500D01*
Y7781500D01*
X12164199D01*
Y7869199D01*
D02*
G37*
G36*
X11976100D02*
X11813400D01*
Y7781500D01*
X11976100D01*
Y7869199D01*
D02*
G37*
G36*
X10292510Y7885100D02*
X10288701D01*
Y7772400D01*
X10401400D01*
Y7776209D01*
X10392854Y7808102D01*
X10376345Y7836697D01*
X10352998Y7860045D01*
X10324403Y7876554D01*
X10292510Y7885100D01*
D02*
G37*
G36*
X10263301D02*
X10259491D01*
X10227598Y7876554D01*
X10199003Y7860045D01*
X10175655Y7836697D01*
X10159146Y7808102D01*
X10150600Y7776209D01*
Y7772400D01*
X10263301D01*
Y7885100D01*
D02*
G37*
G36*
X11192509D02*
X11159491D01*
X11127598Y7876554D01*
X11099003Y7860045D01*
X11075655Y7836697D01*
X11059146Y7808102D01*
X11050600Y7776209D01*
Y7743191D01*
X11059146Y7711298D01*
X11075655Y7682703D01*
X11099003Y7659355D01*
X11127598Y7642846D01*
X11159491Y7634300D01*
X11192509D01*
X11224403Y7642846D01*
X11252998Y7659355D01*
X11276345Y7682703D01*
X11292854Y7711298D01*
X11301400Y7743191D01*
Y7776209D01*
X11292854Y7808102D01*
X11276345Y7836697D01*
X11252998Y7860045D01*
X11224403Y7876554D01*
X11192509Y7885100D01*
D02*
G37*
G36*
X10401400Y7747000D02*
X10288701D01*
Y7634300D01*
X10292510D01*
X10324403Y7642846D01*
X10352998Y7659355D01*
X10376345Y7682703D01*
X10392854Y7711298D01*
X10401400Y7743191D01*
Y7747000D01*
D02*
G37*
G36*
X10263301D02*
X10150600D01*
Y7743191D01*
X10159146Y7711298D01*
X10175655Y7682703D01*
X10199003Y7659355D01*
X10227598Y7642846D01*
X10259491Y7634300D01*
X10263301D01*
Y7747000D01*
D02*
G37*
G36*
X12914700Y7695866D02*
X12764699D01*
X12738490Y7692416D01*
X12714066Y7682299D01*
X12693093Y7666206D01*
X12677000Y7645233D01*
X12666884Y7620810D01*
X12663433Y7594600D01*
X12666884Y7568390D01*
X12677000Y7543967D01*
X12693093Y7522994D01*
X12714066Y7506901D01*
X12738490Y7496784D01*
X12764699Y7493334D01*
X12914700D01*
X12940909Y7496784D01*
X12965334Y7506901D01*
X12986307Y7522994D01*
X13002399Y7543967D01*
X13012515Y7568390D01*
X13015965Y7594600D01*
X13012515Y7620810D01*
X13002399Y7645233D01*
X12986307Y7666206D01*
X12965334Y7682299D01*
X12940909Y7692416D01*
X12914700Y7695866D01*
D02*
G37*
G36*
X12063800Y7683166D02*
X11913799D01*
X11887590Y7679716D01*
X11863166Y7669599D01*
X11842193Y7653506D01*
X11826100Y7632533D01*
X11815984Y7608110D01*
X11812533Y7581900D01*
X11815984Y7555690D01*
X11826100Y7531267D01*
X11842193Y7510294D01*
X11863166Y7494201D01*
X11887590Y7484084D01*
X11913799Y7480634D01*
X12063800D01*
X12090009Y7484084D01*
X12114433Y7494201D01*
X12135406Y7510294D01*
X12151499Y7531267D01*
X12161615Y7555690D01*
X12165066Y7581900D01*
X12161615Y7608110D01*
X12151499Y7632533D01*
X12135406Y7653506D01*
X12114433Y7669599D01*
X12090009Y7679716D01*
X12063800Y7683166D01*
D02*
G37*
G36*
X7150618Y7504500D02*
X7150100D01*
Y7416800D01*
X7237800D01*
Y7417318D01*
X7230958Y7442853D01*
X7217740Y7465747D01*
X7199047Y7484440D01*
X7176153Y7497658D01*
X7150618Y7504500D01*
D02*
G37*
G36*
X7124700D02*
X7124182D01*
X7098647Y7497658D01*
X7075753Y7484440D01*
X7057060Y7465747D01*
X7043842Y7442853D01*
X7037000Y7417318D01*
Y7416800D01*
X7124700D01*
Y7504500D01*
D02*
G37*
G36*
X7429500Y7438300D02*
X7427666D01*
X7399587Y7430776D01*
X7374413Y7416242D01*
X7353858Y7395687D01*
X7339324Y7370513D01*
X7331800Y7342434D01*
Y7340600D01*
X7429500D01*
Y7438300D01*
D02*
G37*
G36*
X7903209Y8024800D02*
X7870191D01*
X7838298Y8016254D01*
X7809703Y7999745D01*
X7786355Y7976397D01*
X7778702Y7963142D01*
X7648430Y7832870D01*
X7629131Y7807719D01*
X7616999Y7778431D01*
X7612861Y7747000D01*
Y7350400D01*
X7605846Y7340201D01*
X7602600Y7338585D01*
X7593545Y7339282D01*
X7546190Y7366357D01*
X7545076Y7370513D01*
X7530542Y7395687D01*
X7509987Y7416242D01*
X7484813Y7430776D01*
X7456734Y7438300D01*
X7454900D01*
Y7327900D01*
X7442200D01*
Y7315200D01*
X7331800D01*
Y7313366D01*
X7339324Y7285287D01*
X7353858Y7260113D01*
X7374413Y7239558D01*
X7399587Y7225024D01*
X7427666Y7217500D01*
X7444949D01*
X7463563Y7187406D01*
X7467633Y7169473D01*
X7393812Y7095652D01*
X7390153D01*
X7382509Y7097700D01*
X7349491D01*
X7317598Y7089154D01*
X7289003Y7072645D01*
X7265655Y7049297D01*
X7249146Y7020702D01*
X7244148Y7002050D01*
X7216160Y6986157D01*
X7211456Y6984442D01*
X7190600Y6981317D01*
X7176153Y6989658D01*
X7150618Y6996500D01*
X7124182D01*
X7098647Y6989658D01*
X7075753Y6976440D01*
X7057060Y6957747D01*
X7043842Y6934853D01*
X7037000Y6909318D01*
Y6882882D01*
X7043842Y6857347D01*
X7057060Y6834453D01*
X7075753Y6815760D01*
X7098647Y6802542D01*
X7124182Y6795700D01*
X7150618D01*
X7176153Y6802542D01*
X7199047Y6815760D01*
X7217740Y6834453D01*
X7230958Y6857347D01*
X7231368Y6858879D01*
X7285350Y6875608D01*
X7289003Y6871955D01*
X7317598Y6855446D01*
X7349491Y6846900D01*
X7382509D01*
X7404433Y6852774D01*
X7444113D01*
X7475544Y6856912D01*
X7504832Y6869044D01*
X7529983Y6888343D01*
X7820170Y7178530D01*
X7839469Y7203681D01*
X7851601Y7232969D01*
X7855739Y7264400D01*
Y7696699D01*
X7950442Y7791402D01*
X7963697Y7799055D01*
X7987045Y7822403D01*
X8003554Y7850998D01*
X8012100Y7882891D01*
Y7915909D01*
X8003554Y7947802D01*
X7987045Y7976397D01*
X7963697Y7999745D01*
X7935102Y8016254D01*
X7903209Y8024800D01*
D02*
G37*
G36*
X9732220Y7442200D02*
X9728200D01*
Y7327900D01*
X9842500D01*
Y7331920D01*
X9833845Y7364220D01*
X9817125Y7393180D01*
X9793480Y7416825D01*
X9764520Y7433545D01*
X9732220Y7442200D01*
D02*
G37*
G36*
X9702800D02*
X9698780D01*
X9666480Y7433545D01*
X9637520Y7416825D01*
X9613875Y7393180D01*
X9597155Y7364220D01*
X9588500Y7331920D01*
Y7327900D01*
X9702800D01*
Y7442200D01*
D02*
G37*
G36*
X11192509Y7554900D02*
X11159491D01*
X11127598Y7546354D01*
X11099003Y7529845D01*
X11075655Y7506497D01*
X11059146Y7477902D01*
X11050600Y7446009D01*
Y7412991D01*
X11059146Y7381098D01*
X11075655Y7352503D01*
X11099003Y7329155D01*
X11127598Y7312646D01*
X11159491Y7304100D01*
X11192509D01*
X11224403Y7312646D01*
X11252998Y7329155D01*
X11276345Y7352503D01*
X11292854Y7381098D01*
X11301400Y7412991D01*
Y7446009D01*
X11292854Y7477902D01*
X11276345Y7506497D01*
X11252998Y7529845D01*
X11224403Y7546354D01*
X11192509Y7554900D01*
D02*
G37*
G36*
X10292510D02*
X10259491D01*
X10227598Y7546354D01*
X10199003Y7529845D01*
X10175655Y7506497D01*
X10159146Y7477902D01*
X10150600Y7446009D01*
Y7412991D01*
X10159146Y7381098D01*
X10175655Y7352503D01*
X10199003Y7329155D01*
X10227598Y7312646D01*
X10259491Y7304100D01*
X10292510D01*
X10324403Y7312646D01*
X10352998Y7329155D01*
X10376345Y7352503D01*
X10392854Y7381098D01*
X10401400Y7412991D01*
Y7446009D01*
X10392854Y7477902D01*
X10376345Y7506497D01*
X10352998Y7529845D01*
X10324403Y7546354D01*
X10292510Y7554900D01*
D02*
G37*
G36*
X7237800Y7391400D02*
X7150100D01*
Y7303700D01*
X7150618D01*
X7176153Y7310542D01*
X7199047Y7323760D01*
X7217740Y7342453D01*
X7230958Y7365347D01*
X7237800Y7390882D01*
Y7391400D01*
D02*
G37*
G36*
X7124700D02*
X7037000D01*
Y7390882D01*
X7043842Y7365347D01*
X7057060Y7342453D01*
X7075753Y7323760D01*
X7098647Y7310542D01*
X7124182Y7303700D01*
X7124700D01*
Y7391400D01*
D02*
G37*
G36*
X8132020Y7416800D02*
X8128000D01*
Y7302500D01*
X8242300D01*
Y7306520D01*
X8233645Y7338820D01*
X8216925Y7367780D01*
X8193280Y7391425D01*
X8164320Y7408145D01*
X8132020Y7416800D01*
D02*
G37*
G36*
X8102600D02*
X8098580D01*
X8066280Y7408145D01*
X8037320Y7391425D01*
X8013675Y7367780D01*
X7996955Y7338820D01*
X7988300Y7306520D01*
Y7302500D01*
X8102600D01*
Y7416800D01*
D02*
G37*
G36*
X9842500Y7302500D02*
X9728200D01*
Y7188200D01*
X9732220D01*
X9764520Y7196855D01*
X9793480Y7213575D01*
X9817125Y7237220D01*
X9833845Y7266180D01*
X9842500Y7298480D01*
Y7302500D01*
D02*
G37*
G36*
X9702800D02*
X9588500D01*
Y7298480D01*
X9597155Y7266180D01*
X9613875Y7237220D01*
X9637520Y7213575D01*
X9666480Y7196855D01*
X9698780Y7188200D01*
X9702800D01*
Y7302500D01*
D02*
G37*
G36*
X6642618Y7377500D02*
X6616182D01*
X6590647Y7370658D01*
X6567753Y7357440D01*
X6549060Y7338747D01*
X6535842Y7315853D01*
X6529000Y7290318D01*
Y7263882D01*
X6535842Y7238347D01*
X6549060Y7215453D01*
X6567753Y7196760D01*
X6590647Y7183542D01*
X6616182Y7176700D01*
X6642618D01*
X6668153Y7183542D01*
X6691047Y7196760D01*
X6709740Y7215453D01*
X6722958Y7238347D01*
X6729800Y7263882D01*
Y7290318D01*
X6722958Y7315853D01*
X6709740Y7338747D01*
X6691047Y7357440D01*
X6668153Y7370658D01*
X6642618Y7377500D01*
D02*
G37*
G36*
X8242300Y7277100D02*
X8128000D01*
Y7162800D01*
X8132020D01*
X8164320Y7171455D01*
X8193280Y7188175D01*
X8216925Y7211820D01*
X8233645Y7240780D01*
X8242300Y7273080D01*
Y7277100D01*
D02*
G37*
G36*
X8102600D02*
X7988300D01*
Y7273080D01*
X7996955Y7240780D01*
X8013675Y7211820D01*
X8037320Y7188175D01*
X8066280Y7171455D01*
X8098580Y7162800D01*
X8102600D01*
Y7277100D01*
D02*
G37*
G36*
X8535912Y7194550D02*
X8534400D01*
Y7099300D01*
X8629650D01*
Y7100812D01*
X8622293Y7128267D01*
X8608081Y7152883D01*
X8587983Y7172981D01*
X8563367Y7187193D01*
X8535912Y7194550D01*
D02*
G37*
G36*
X8509000D02*
X8507488D01*
X8480033Y7187193D01*
X8455417Y7172981D01*
X8435319Y7152883D01*
X8421107Y7128267D01*
X8413750Y7100812D01*
Y7099300D01*
X8509000D01*
Y7194550D01*
D02*
G37*
G36*
X9247112Y7181850D02*
X9245600D01*
Y7086600D01*
X9340850D01*
Y7088112D01*
X9333493Y7115567D01*
X9319281Y7140183D01*
X9299183Y7160281D01*
X9274567Y7174493D01*
X9247112Y7181850D01*
D02*
G37*
G36*
X9220200D02*
X9218688D01*
X9191233Y7174493D01*
X9166617Y7160281D01*
X9146519Y7140183D01*
X9132307Y7115567D01*
X9124950Y7088112D01*
Y7086600D01*
X9220200D01*
Y7181850D01*
D02*
G37*
G36*
X7150618Y7250500D02*
X7124182D01*
X7098647Y7243658D01*
X7075753Y7230440D01*
X7057060Y7211747D01*
X7043842Y7188853D01*
X7037000Y7163318D01*
Y7136882D01*
X7043842Y7111347D01*
X7057060Y7088453D01*
X7075753Y7069760D01*
X7098647Y7056542D01*
X7124182Y7049700D01*
X7150618D01*
X7176153Y7056542D01*
X7199047Y7069760D01*
X7217740Y7088453D01*
X7230958Y7111347D01*
X7237800Y7136882D01*
Y7163318D01*
X7230958Y7188853D01*
X7217740Y7211747D01*
X7199047Y7230440D01*
X7176153Y7243658D01*
X7150618Y7250500D01*
D02*
G37*
G36*
X11024117Y7047300D02*
X11023599D01*
Y6959600D01*
X11111299D01*
Y6960118D01*
X11104457Y6985653D01*
X11091239Y7008547D01*
X11072547Y7027240D01*
X11049653Y7040458D01*
X11024117Y7047300D01*
D02*
G37*
G36*
X10998199D02*
X10997682D01*
X10972146Y7040458D01*
X10949252Y7027240D01*
X10930560Y7008547D01*
X10917342Y6985653D01*
X10910500Y6960118D01*
Y6959600D01*
X10998199D01*
Y7047300D01*
D02*
G37*
G36*
X10262117D02*
X10261599D01*
Y6959600D01*
X10349299D01*
Y6960118D01*
X10342457Y6985653D01*
X10329239Y7008547D01*
X10310547Y7027240D01*
X10287653Y7040458D01*
X10262117Y7047300D01*
D02*
G37*
G36*
X10236199D02*
X10235682D01*
X10210146Y7040458D01*
X10187252Y7027240D01*
X10168560Y7008547D01*
X10155342Y6985653D01*
X10148500Y6960118D01*
Y6959600D01*
X10236199D01*
Y7047300D01*
D02*
G37*
G36*
X6642618Y7123500D02*
X6616182D01*
X6590647Y7116658D01*
X6567753Y7103440D01*
X6549060Y7084747D01*
X6535842Y7061853D01*
X6529000Y7036318D01*
Y7009882D01*
X6535842Y6984347D01*
X6549060Y6961453D01*
X6567753Y6942760D01*
X6590647Y6929542D01*
X6616182Y6922700D01*
X6642618D01*
X6668153Y6929542D01*
X6691047Y6942760D01*
X6709740Y6961453D01*
X6722958Y6984347D01*
X6729800Y7009882D01*
Y7036318D01*
X6722958Y7061853D01*
X6709740Y7084747D01*
X6691047Y7103440D01*
X6668153Y7116658D01*
X6642618Y7123500D01*
D02*
G37*
G36*
X12521000Y7060000D02*
X12320200D01*
Y6859200D01*
X12521000D01*
Y7060000D01*
D02*
G37*
G36*
X11671818D02*
X11645382D01*
X11619847Y7053158D01*
X11596953Y7039940D01*
X11578260Y7021247D01*
X11565042Y6998353D01*
X11558200Y6972818D01*
Y6946382D01*
X11565042Y6920847D01*
X11578260Y6897953D01*
X11596953Y6879260D01*
X11619847Y6866042D01*
X11645382Y6859200D01*
X11671818D01*
X11697353Y6866042D01*
X11720247Y6879260D01*
X11738940Y6897953D01*
X11752158Y6920847D01*
X11759000Y6946382D01*
Y6972818D01*
X11752158Y6998353D01*
X11738940Y7021247D01*
X11720247Y7039940D01*
X11697353Y7053158D01*
X11671818Y7060000D01*
D02*
G37*
G36*
X11111299Y6934200D02*
X11023599D01*
Y6846500D01*
X11024117D01*
X11049653Y6853342D01*
X11072547Y6866560D01*
X11091239Y6885253D01*
X11104457Y6908147D01*
X11111299Y6933682D01*
Y6934200D01*
D02*
G37*
G36*
X10998199D02*
X10910500D01*
Y6933682D01*
X10917342Y6908147D01*
X10930560Y6885253D01*
X10949252Y6866560D01*
X10972146Y6853342D01*
X10997682Y6846500D01*
X10998199D01*
Y6934200D01*
D02*
G37*
G36*
X10349299D02*
X10261599D01*
Y6846500D01*
X10262117D01*
X10287653Y6853342D01*
X10310547Y6866560D01*
X10329239Y6885253D01*
X10342457Y6908147D01*
X10349299Y6933682D01*
Y6934200D01*
D02*
G37*
G36*
X10236199D02*
X10148500D01*
Y6933682D01*
X10155342Y6908147D01*
X10168560Y6885253D01*
X10187252Y6866560D01*
X10210146Y6853342D01*
X10235682Y6846500D01*
X10236199D01*
Y6934200D01*
D02*
G37*
G36*
X11671818Y6806000D02*
X11671300D01*
Y6718300D01*
X11759000D01*
Y6718818D01*
X11752158Y6744353D01*
X11738940Y6767247D01*
X11720247Y6785940D01*
X11697353Y6799158D01*
X11671818Y6806000D01*
D02*
G37*
G36*
X11645900D02*
X11645382D01*
X11619847Y6799158D01*
X11596953Y6785940D01*
X11578260Y6767247D01*
X11565042Y6744353D01*
X11558200Y6718818D01*
Y6718300D01*
X11645900D01*
Y6806000D01*
D02*
G37*
G36*
X11024117Y6793300D02*
X11023599D01*
Y6705600D01*
X11111299D01*
Y6706118D01*
X11104457Y6731653D01*
X11091239Y6754547D01*
X11072547Y6773240D01*
X11049653Y6786458D01*
X11024117Y6793300D01*
D02*
G37*
G36*
X10998199D02*
X10997682D01*
X10972146Y6786458D01*
X10949252Y6773240D01*
X10930560Y6754547D01*
X10917342Y6731653D01*
X10910500Y6706118D01*
Y6705600D01*
X10998199D01*
Y6793300D01*
D02*
G37*
G36*
X10262117D02*
X10261599D01*
Y6705600D01*
X10349299D01*
Y6706118D01*
X10342457Y6731653D01*
X10329239Y6754547D01*
X10310547Y6773240D01*
X10287653Y6786458D01*
X10262117Y6793300D01*
D02*
G37*
G36*
X10236199D02*
X10235682D01*
X10210146Y6786458D01*
X10187252Y6773240D01*
X10168560Y6754547D01*
X10155342Y6731653D01*
X10148500Y6706118D01*
Y6705600D01*
X10236199D01*
Y6793300D01*
D02*
G37*
G36*
X9829800Y6921500D02*
X9601200D01*
Y6692900D01*
X9829800D01*
Y6921500D01*
D02*
G37*
G36*
X6642618Y6869500D02*
X6616182D01*
X6590647Y6862658D01*
X6567753Y6849440D01*
X6549060Y6830747D01*
X6535842Y6807853D01*
X6529000Y6782318D01*
Y6755882D01*
X6535842Y6730347D01*
X6549060Y6707453D01*
X6567753Y6688760D01*
X6590647Y6675542D01*
X6616182Y6668700D01*
X6642618D01*
X6668153Y6675542D01*
X6691047Y6688760D01*
X6709740Y6707453D01*
X6722958Y6730347D01*
X6729800Y6755882D01*
Y6782318D01*
X6722958Y6807853D01*
X6709740Y6830747D01*
X6691047Y6849440D01*
X6668153Y6862658D01*
X6642618Y6869500D01*
D02*
G37*
G36*
X8229600Y6896100D02*
X8001000D01*
Y6667500D01*
X8229600D01*
Y6896100D01*
D02*
G37*
G36*
X12433818Y6806000D02*
X12407382D01*
X12381847Y6799158D01*
X12358953Y6785940D01*
X12340260Y6767247D01*
X12327042Y6744353D01*
X12320200Y6718818D01*
Y6692382D01*
X12327042Y6666847D01*
X12340260Y6643953D01*
X12358953Y6625260D01*
X12381847Y6612042D01*
X12407382Y6605200D01*
X12433818D01*
X12459353Y6612042D01*
X12482247Y6625260D01*
X12500940Y6643953D01*
X12514158Y6666847D01*
X12521000Y6692382D01*
Y6718818D01*
X12514158Y6744353D01*
X12500940Y6767247D01*
X12482247Y6785940D01*
X12459353Y6799158D01*
X12433818Y6806000D01*
D02*
G37*
G36*
X11759000Y6692900D02*
X11671300D01*
Y6605200D01*
X11671818D01*
X11697353Y6612042D01*
X11720247Y6625260D01*
X11738940Y6643953D01*
X11752158Y6666847D01*
X11759000Y6692382D01*
Y6692900D01*
D02*
G37*
G36*
X11645900D02*
X11558200D01*
Y6692382D01*
X11565042Y6666847D01*
X11578260Y6643953D01*
X11596953Y6625260D01*
X11619847Y6612042D01*
X11645382Y6605200D01*
X11645900D01*
Y6692900D01*
D02*
G37*
G36*
X11111299Y6680200D02*
X11023599D01*
Y6592500D01*
X11024117D01*
X11049653Y6599342D01*
X11072547Y6612560D01*
X11091239Y6631253D01*
X11104457Y6654147D01*
X11111299Y6679682D01*
Y6680200D01*
D02*
G37*
G36*
X10998199D02*
X10910500D01*
Y6679682D01*
X10917342Y6654147D01*
X10930560Y6631253D01*
X10949252Y6612560D01*
X10972146Y6599342D01*
X10997682Y6592500D01*
X10998199D01*
Y6680200D01*
D02*
G37*
G36*
X10349299D02*
X10261599D01*
Y6592500D01*
X10262117D01*
X10287653Y6599342D01*
X10310547Y6612560D01*
X10329239Y6631253D01*
X10342457Y6654147D01*
X10349299Y6679682D01*
Y6680200D01*
D02*
G37*
G36*
X10236199D02*
X10148500D01*
Y6679682D01*
X10155342Y6654147D01*
X10168560Y6631253D01*
X10187252Y6612560D01*
X10210146Y6599342D01*
X10235682Y6592500D01*
X10236199D01*
Y6680200D01*
D02*
G37*
G36*
X7150618Y6742500D02*
X7124182D01*
X7098647Y6735658D01*
X7075753Y6722440D01*
X7057060Y6703747D01*
X7043842Y6680853D01*
X7037000Y6655318D01*
Y6628882D01*
X7043842Y6603347D01*
X7057060Y6580453D01*
X7075753Y6561760D01*
X7098647Y6548542D01*
X7124182Y6541700D01*
X7150618D01*
X7176153Y6548542D01*
X7199047Y6561760D01*
X7217740Y6580453D01*
X7230958Y6603347D01*
X7237800Y6628882D01*
Y6655318D01*
X7230958Y6680853D01*
X7217740Y6703747D01*
X7199047Y6722440D01*
X7176153Y6735658D01*
X7150618Y6742500D01*
D02*
G37*
G36*
X6642618Y6615500D02*
X6642100D01*
Y6527800D01*
X6729800D01*
Y6528318D01*
X6722958Y6553853D01*
X6709740Y6576747D01*
X6691047Y6595440D01*
X6668153Y6608658D01*
X6642618Y6615500D01*
D02*
G37*
G36*
X6616700D02*
X6616182D01*
X6590647Y6608658D01*
X6567753Y6595440D01*
X6549060Y6576747D01*
X6535842Y6553853D01*
X6529000Y6528318D01*
Y6527800D01*
X6616700D01*
Y6615500D01*
D02*
G37*
G36*
X8629650Y7073900D02*
X8521700D01*
X8413750D01*
Y7072388D01*
X8421107Y7044933D01*
X8435319Y7020317D01*
X8455417Y7000219D01*
Y6944381D01*
X8435319Y6924283D01*
X8421107Y6899667D01*
X8413750Y6872212D01*
Y6843788D01*
X8421107Y6816333D01*
X8435319Y6791717D01*
X8439686Y6787350D01*
X8418975Y6737350D01*
X8413750D01*
Y6521450D01*
X8629650D01*
Y6737350D01*
X8624425D01*
X8603714Y6787350D01*
X8608081Y6791717D01*
X8622293Y6816333D01*
X8629650Y6843788D01*
Y6872212D01*
X8622293Y6899667D01*
X8608081Y6924283D01*
X8587983Y6944381D01*
X8587983Y7000219D01*
X8608081Y7020317D01*
X8622293Y7044933D01*
X8629650Y7072388D01*
Y7073900D01*
D02*
G37*
G36*
X9340850Y7061200D02*
X9232900D01*
X9124950D01*
Y7059688D01*
X9132307Y7032233D01*
X9146519Y7007617D01*
X9166617Y6987519D01*
Y6931681D01*
X9146519Y6911583D01*
X9132307Y6886967D01*
X9124950Y6859512D01*
Y6831088D01*
X9132307Y6803633D01*
X9146519Y6779017D01*
X9150886Y6774650D01*
X9130175Y6724650D01*
X9124950D01*
Y6508750D01*
X9340850D01*
Y6724650D01*
X9335625D01*
X9314914Y6774650D01*
X9319281Y6779017D01*
X9333493Y6803633D01*
X9340850Y6831088D01*
Y6859512D01*
X9333493Y6886967D01*
X9319281Y6911583D01*
X9299183Y6931681D01*
X9299183Y6987519D01*
X9319281Y7007617D01*
X9333493Y7032233D01*
X9340850Y7059688D01*
Y7061200D01*
D02*
G37*
G36*
X6313734Y6587400D02*
X6311900D01*
Y6489700D01*
X6409600D01*
Y6491534D01*
X6402076Y6519613D01*
X6387542Y6544787D01*
X6366987Y6565342D01*
X6341813Y6579876D01*
X6313734Y6587400D01*
D02*
G37*
G36*
X6286500D02*
X6284666D01*
X6256587Y6579876D01*
X6231413Y6565342D01*
X6210858Y6544787D01*
X6196324Y6519613D01*
X6188800Y6491534D01*
Y6489700D01*
X6286500D01*
Y6587400D01*
D02*
G37*
G36*
X11671818Y6552000D02*
X11671300D01*
Y6464300D01*
X11759000D01*
Y6464818D01*
X11752158Y6490353D01*
X11738940Y6513247D01*
X11720247Y6531940D01*
X11697353Y6545158D01*
X11671818Y6552000D01*
D02*
G37*
G36*
X11645900D02*
X11645382D01*
X11619847Y6545158D01*
X11596953Y6531940D01*
X11578260Y6513247D01*
X11565042Y6490353D01*
X11558200Y6464818D01*
Y6464300D01*
X11645900D01*
Y6552000D01*
D02*
G37*
G36*
X11024117Y6539300D02*
X11023599D01*
Y6451600D01*
X11111299D01*
Y6452118D01*
X11104457Y6477653D01*
X11091239Y6500547D01*
X11072547Y6519240D01*
X11049653Y6532458D01*
X11024117Y6539300D01*
D02*
G37*
G36*
X10998199D02*
X10997682D01*
X10972146Y6532458D01*
X10949252Y6519240D01*
X10930560Y6500547D01*
X10917342Y6477653D01*
X10910500Y6452118D01*
Y6451600D01*
X10998199D01*
Y6539300D01*
D02*
G37*
G36*
X10262117D02*
X10261599D01*
Y6451600D01*
X10349299D01*
Y6452118D01*
X10342457Y6477653D01*
X10329239Y6500547D01*
X10310547Y6519240D01*
X10287653Y6532458D01*
X10262117Y6539300D01*
D02*
G37*
G36*
X10236199D02*
X10235682D01*
X10210146Y6532458D01*
X10187252Y6519240D01*
X10168560Y6500547D01*
X10155342Y6477653D01*
X10148500Y6452118D01*
Y6451600D01*
X10236199D01*
Y6539300D01*
D02*
G37*
G36*
X6729800Y6502400D02*
X6642100D01*
Y6414700D01*
X6642618D01*
X6668153Y6421542D01*
X6691047Y6434760D01*
X6709740Y6453453D01*
X6722958Y6476347D01*
X6729800Y6501882D01*
Y6502400D01*
D02*
G37*
G36*
X6616700D02*
X6529000D01*
Y6501882D01*
X6535842Y6476347D01*
X6549060Y6453453D01*
X6567753Y6434760D01*
X6590647Y6421542D01*
X6616182Y6414700D01*
X6616700D01*
Y6502400D01*
D02*
G37*
G36*
X6409600Y6464300D02*
X6311900D01*
Y6366600D01*
X6313734D01*
X6341813Y6374124D01*
X6366987Y6388658D01*
X6387542Y6409213D01*
X6402076Y6434387D01*
X6409600Y6462466D01*
Y6464300D01*
D02*
G37*
G36*
X6286500D02*
X6188800D01*
Y6462466D01*
X6196324Y6434387D01*
X6210858Y6409213D01*
X6231413Y6388658D01*
X6256587Y6374124D01*
X6284666Y6366600D01*
X6286500D01*
Y6464300D01*
D02*
G37*
G36*
X12433818Y6552000D02*
X12407382D01*
X12381847Y6545158D01*
X12358953Y6531940D01*
X12340260Y6513247D01*
X12327042Y6490353D01*
X12320200Y6464818D01*
Y6438382D01*
X12327042Y6412847D01*
X12340260Y6389953D01*
X12358953Y6371260D01*
X12381847Y6358042D01*
X12407382Y6351200D01*
X12433818D01*
X12459353Y6358042D01*
X12482247Y6371260D01*
X12500940Y6389953D01*
X12514158Y6412847D01*
X12521000Y6438382D01*
Y6464818D01*
X12514158Y6490353D01*
X12500940Y6513247D01*
X12482247Y6531940D01*
X12459353Y6545158D01*
X12433818Y6552000D01*
D02*
G37*
G36*
X11759000Y6438900D02*
X11671300D01*
Y6351200D01*
X11671818D01*
X11697353Y6358042D01*
X11720247Y6371260D01*
X11738940Y6389953D01*
X11752158Y6412847D01*
X11759000Y6438382D01*
Y6438900D01*
D02*
G37*
G36*
X11645900D02*
X11558200D01*
Y6438382D01*
X11565042Y6412847D01*
X11578260Y6389953D01*
X11596953Y6371260D01*
X11619847Y6358042D01*
X11645382Y6351200D01*
X11645900D01*
Y6438900D01*
D02*
G37*
G36*
X11111299Y6426200D02*
X11023599D01*
Y6338500D01*
X11024117D01*
X11049653Y6345342D01*
X11072547Y6358560D01*
X11091239Y6377253D01*
X11104457Y6400147D01*
X11111299Y6425682D01*
Y6426200D01*
D02*
G37*
G36*
X10998199D02*
X10910500D01*
Y6425682D01*
X10917342Y6400147D01*
X10930560Y6377253D01*
X10949252Y6358560D01*
X10972146Y6345342D01*
X10997682Y6338500D01*
X10998199D01*
Y6426200D01*
D02*
G37*
G36*
X10349299D02*
X10261599D01*
Y6338500D01*
X10262117D01*
X10287653Y6345342D01*
X10310547Y6358560D01*
X10329239Y6377253D01*
X10342457Y6400147D01*
X10349299Y6425682D01*
Y6426200D01*
D02*
G37*
G36*
X10236199D02*
X10148500D01*
Y6425682D01*
X10155342Y6400147D01*
X10168560Y6377253D01*
X10187252Y6358560D01*
X10210146Y6345342D01*
X10235682Y6338500D01*
X10236199D01*
Y6426200D01*
D02*
G37*
G36*
X7150618Y6488500D02*
X7124182D01*
X7098647Y6481658D01*
X7075753Y6468440D01*
X7057060Y6449747D01*
X7043842Y6426853D01*
X7037000Y6401318D01*
Y6374882D01*
X7043842Y6349347D01*
X7057060Y6326453D01*
X7075753Y6307760D01*
X7098647Y6294542D01*
X7124182Y6287700D01*
X7150618D01*
X7176153Y6294542D01*
X7199047Y6307760D01*
X7217740Y6326453D01*
X7230958Y6349347D01*
X7237800Y6374882D01*
Y6401318D01*
X7230958Y6426853D01*
X7217740Y6449747D01*
X7199047Y6468440D01*
X7176153Y6481658D01*
X7150618Y6488500D01*
D02*
G37*
G36*
X11671818Y6298000D02*
X11671300D01*
Y6210300D01*
X11759000D01*
Y6210818D01*
X11752158Y6236353D01*
X11738940Y6259247D01*
X11720247Y6277940D01*
X11697353Y6291158D01*
X11671818Y6298000D01*
D02*
G37*
G36*
X11645900D02*
X11645382D01*
X11619847Y6291158D01*
X11596953Y6277940D01*
X11578260Y6259247D01*
X11565042Y6236353D01*
X11558200Y6210818D01*
Y6210300D01*
X11645900D01*
Y6298000D01*
D02*
G37*
G36*
X11024117Y6285300D02*
X11023599D01*
Y6197600D01*
X11111299D01*
Y6198118D01*
X11104457Y6223653D01*
X11091239Y6246547D01*
X11072547Y6265240D01*
X11049653Y6278458D01*
X11024117Y6285300D01*
D02*
G37*
G36*
X10998199D02*
X10997682D01*
X10972146Y6278458D01*
X10949252Y6265240D01*
X10930560Y6246547D01*
X10917342Y6223653D01*
X10910500Y6198118D01*
Y6197600D01*
X10998199D01*
Y6285300D01*
D02*
G37*
G36*
X10262117D02*
X10261599D01*
Y6197600D01*
X10349299D01*
Y6198118D01*
X10342457Y6223653D01*
X10329239Y6246547D01*
X10310547Y6265240D01*
X10287653Y6278458D01*
X10262117Y6285300D01*
D02*
G37*
G36*
X10236199D02*
X10235682D01*
X10210146Y6278458D01*
X10187252Y6265240D01*
X10168560Y6246547D01*
X10155342Y6223653D01*
X10148500Y6198118D01*
Y6197600D01*
X10236199D01*
Y6285300D01*
D02*
G37*
G36*
X8919209Y6792900D02*
X8886191D01*
X8854298Y6784354D01*
X8825703Y6767845D01*
X8802355Y6744497D01*
X8785846Y6715902D01*
X8777300Y6684009D01*
Y6650991D01*
X8782271Y6632437D01*
Y6344275D01*
X8779320Y6333260D01*
Y6300242D01*
X8787866Y6268348D01*
X8804375Y6239754D01*
X8827723Y6216406D01*
X8856318Y6199897D01*
X8888211Y6191351D01*
X8921229D01*
X8953123Y6199897D01*
X8981717Y6216406D01*
X9005065Y6239754D01*
X9021574Y6268348D01*
X9030120Y6300242D01*
Y6333260D01*
X9025149Y6351813D01*
Y6639977D01*
X9028100Y6650991D01*
Y6684009D01*
X9019554Y6715902D01*
X9003045Y6744497D01*
X8979697Y6767845D01*
X8951102Y6784354D01*
X8919209Y6792900D01*
D02*
G37*
G36*
X6642618Y6361500D02*
X6616182D01*
X6590647Y6354658D01*
X6567753Y6341440D01*
X6549060Y6322747D01*
X6535842Y6299853D01*
X6529000Y6274318D01*
Y6247882D01*
X6535842Y6222347D01*
X6549060Y6199453D01*
X6567753Y6180760D01*
X6590647Y6167542D01*
X6616182Y6160700D01*
X6642618D01*
X6668153Y6167542D01*
X6691047Y6180760D01*
X6709740Y6199453D01*
X6722958Y6222347D01*
X6729800Y6247882D01*
Y6274318D01*
X6722958Y6299853D01*
X6709740Y6322747D01*
X6691047Y6341440D01*
X6668153Y6354658D01*
X6642618Y6361500D01*
D02*
G37*
G36*
X12433818Y6298000D02*
X12407382D01*
X12381847Y6291158D01*
X12358953Y6277940D01*
X12340260Y6259247D01*
X12327042Y6236353D01*
X12320200Y6210818D01*
Y6184382D01*
X12327042Y6158847D01*
X12340260Y6135953D01*
X12358953Y6117260D01*
X12381847Y6104042D01*
X12407382Y6097200D01*
X12433818D01*
X12459353Y6104042D01*
X12482247Y6117260D01*
X12500940Y6135953D01*
X12514158Y6158847D01*
X12521000Y6184382D01*
Y6210818D01*
X12514158Y6236353D01*
X12500940Y6259247D01*
X12482247Y6277940D01*
X12459353Y6291158D01*
X12433818Y6298000D01*
D02*
G37*
G36*
X11759000Y6184900D02*
X11671300D01*
Y6097200D01*
X11671818D01*
X11697353Y6104042D01*
X11720247Y6117260D01*
X11738940Y6135953D01*
X11752158Y6158847D01*
X11759000Y6184382D01*
Y6184900D01*
D02*
G37*
G36*
X11645900D02*
X11558200D01*
Y6184382D01*
X11565042Y6158847D01*
X11578260Y6135953D01*
X11596953Y6117260D01*
X11619847Y6104042D01*
X11645382Y6097200D01*
X11645900D01*
Y6184900D01*
D02*
G37*
G36*
X11111299Y6172200D02*
X11023599D01*
Y6084500D01*
X11024117D01*
X11049653Y6091342D01*
X11072547Y6104560D01*
X11091239Y6123253D01*
X11104457Y6146147D01*
X11111299Y6171682D01*
Y6172200D01*
D02*
G37*
G36*
X10998199D02*
X10910500D01*
Y6171682D01*
X10917342Y6146147D01*
X10930560Y6123253D01*
X10949252Y6104560D01*
X10972146Y6091342D01*
X10997682Y6084500D01*
X10998199D01*
Y6172200D01*
D02*
G37*
G36*
X10349299D02*
X10261599D01*
Y6084500D01*
X10262117D01*
X10287653Y6091342D01*
X10310547Y6104560D01*
X10329239Y6123253D01*
X10342457Y6146147D01*
X10349299Y6171682D01*
Y6172200D01*
D02*
G37*
G36*
X10236199D02*
X10148500D01*
Y6171682D01*
X10155342Y6146147D01*
X10168560Y6123253D01*
X10187252Y6104560D01*
X10210146Y6091342D01*
X10235682Y6084500D01*
X10236199D01*
Y6172200D01*
D02*
G37*
G36*
X7150618Y6234500D02*
X7124182D01*
X7098647Y6227658D01*
X7075753Y6214440D01*
X7057060Y6195747D01*
X7043842Y6172853D01*
X7037000Y6147318D01*
Y6120882D01*
X7043842Y6095347D01*
X7057060Y6072453D01*
X7075753Y6053760D01*
X7098647Y6040542D01*
X7124182Y6033700D01*
X7150618D01*
X7176153Y6040542D01*
X7199047Y6053760D01*
X7217740Y6072453D01*
X7230958Y6095347D01*
X7237800Y6120882D01*
Y6147318D01*
X7230958Y6172853D01*
X7217740Y6195747D01*
X7199047Y6214440D01*
X7176153Y6227658D01*
X7150618Y6234500D01*
D02*
G37*
G36*
X8132020Y6286500D02*
X8098580D01*
X8066280Y6277845D01*
X8037320Y6261125D01*
X8013675Y6237480D01*
X7996955Y6208520D01*
X7988300Y6176220D01*
Y6142780D01*
X7996955Y6110480D01*
X8013675Y6081520D01*
X8037320Y6057875D01*
X8066280Y6041155D01*
X8098580Y6032500D01*
X8132020D01*
X8164320Y6041155D01*
X8193280Y6057875D01*
X8216925Y6081520D01*
X8233645Y6110480D01*
X8242300Y6142780D01*
Y6176220D01*
X8233645Y6208520D01*
X8216925Y6237480D01*
X8193280Y6261125D01*
X8164320Y6277845D01*
X8132020Y6286500D01*
D02*
G37*
G36*
X9732220Y6261100D02*
X9698780D01*
X9666480Y6252445D01*
X9637520Y6235725D01*
X9613875Y6212080D01*
X9597155Y6183120D01*
X9588500Y6150820D01*
Y6117380D01*
X9597155Y6085080D01*
X9613875Y6056120D01*
X9637520Y6032475D01*
X9666480Y6015755D01*
X9698780Y6007100D01*
X9732220D01*
X9764520Y6015755D01*
X9793480Y6032475D01*
X9817125Y6056120D01*
X9833845Y6085080D01*
X9842500Y6117380D01*
Y6150820D01*
X9833845Y6183120D01*
X9817125Y6212080D01*
X9793480Y6235725D01*
X9764520Y6252445D01*
X9732220Y6261100D01*
D02*
G37*
G36*
X11671818Y6044000D02*
X11671300D01*
Y5956300D01*
X11759000D01*
Y5956818D01*
X11752158Y5982353D01*
X11738940Y6005247D01*
X11720247Y6023940D01*
X11697353Y6037158D01*
X11671818Y6044000D01*
D02*
G37*
G36*
X11645900D02*
X11645382D01*
X11619847Y6037158D01*
X11596953Y6023940D01*
X11578260Y6005247D01*
X11565042Y5982353D01*
X11558200Y5956818D01*
Y5956300D01*
X11645900D01*
Y6044000D01*
D02*
G37*
G36*
X11024117Y6031300D02*
X11023599D01*
Y5943600D01*
X11111299D01*
Y5944118D01*
X11104457Y5969653D01*
X11091239Y5992547D01*
X11072547Y6011240D01*
X11049653Y6024458D01*
X11024117Y6031300D01*
D02*
G37*
G36*
X10998199D02*
X10997682D01*
X10972146Y6024458D01*
X10949252Y6011240D01*
X10930560Y5992547D01*
X10917342Y5969653D01*
X10910500Y5944118D01*
Y5943600D01*
X10998199D01*
Y6031300D01*
D02*
G37*
G36*
X10262117D02*
X10261599D01*
Y5943600D01*
X10349299D01*
Y5944118D01*
X10342457Y5969653D01*
X10329239Y5992547D01*
X10310547Y6011240D01*
X10287653Y6024458D01*
X10262117Y6031300D01*
D02*
G37*
G36*
X10236199D02*
X10235682D01*
X10210146Y6024458D01*
X10187252Y6011240D01*
X10168560Y5992547D01*
X10155342Y5969653D01*
X10148500Y5944118D01*
Y5943600D01*
X10236199D01*
Y6031300D01*
D02*
G37*
G36*
X6642618Y6107500D02*
X6616182D01*
X6590647Y6100658D01*
X6567753Y6087440D01*
X6549060Y6068747D01*
X6535842Y6045853D01*
X6529000Y6020318D01*
Y5993882D01*
X6535842Y5968347D01*
X6549060Y5945453D01*
X6567753Y5926760D01*
X6590647Y5913542D01*
X6616182Y5906700D01*
X6642618D01*
X6668153Y5913542D01*
X6691047Y5926760D01*
X6709740Y5945453D01*
X6722958Y5968347D01*
X6729800Y5993882D01*
Y6020318D01*
X6722958Y6045853D01*
X6709740Y6068747D01*
X6691047Y6087440D01*
X6668153Y6100658D01*
X6642618Y6107500D01*
D02*
G37*
G36*
X12433818Y6044000D02*
X12407382D01*
X12381847Y6037158D01*
X12358953Y6023940D01*
X12340260Y6005247D01*
X12327042Y5982353D01*
X12320200Y5956818D01*
Y5930382D01*
X12327042Y5904847D01*
X12340260Y5881953D01*
X12358953Y5863260D01*
X12381847Y5850042D01*
X12407382Y5843200D01*
X12433818D01*
X12459353Y5850042D01*
X12482247Y5863260D01*
X12500940Y5881953D01*
X12514158Y5904847D01*
X12521000Y5930382D01*
Y5956818D01*
X12514158Y5982353D01*
X12500940Y6005247D01*
X12482247Y6023940D01*
X12459353Y6037158D01*
X12433818Y6044000D01*
D02*
G37*
G36*
X11759000Y5930900D02*
X11671300D01*
Y5843200D01*
X11671818D01*
X11697353Y5850042D01*
X11720247Y5863260D01*
X11738940Y5881953D01*
X11752158Y5904847D01*
X11759000Y5930382D01*
Y5930900D01*
D02*
G37*
G36*
X11645900D02*
X11558200D01*
Y5930382D01*
X11565042Y5904847D01*
X11578260Y5881953D01*
X11596953Y5863260D01*
X11619847Y5850042D01*
X11645382Y5843200D01*
X11645900D01*
Y5930900D01*
D02*
G37*
G36*
X11111299Y5918200D02*
X11023599D01*
Y5830500D01*
X11024117D01*
X11049653Y5837342D01*
X11072547Y5850560D01*
X11091239Y5869253D01*
X11104457Y5892147D01*
X11111299Y5917682D01*
Y5918200D01*
D02*
G37*
G36*
X10998199D02*
X10910500D01*
Y5917682D01*
X10917342Y5892147D01*
X10930560Y5869253D01*
X10949252Y5850560D01*
X10972146Y5837342D01*
X10997682Y5830500D01*
X10998199D01*
Y5918200D01*
D02*
G37*
G36*
X10349299D02*
X10261599D01*
Y5830500D01*
X10262117D01*
X10287653Y5837342D01*
X10310547Y5850560D01*
X10329239Y5869253D01*
X10342457Y5892147D01*
X10349299Y5917682D01*
Y5918200D01*
D02*
G37*
G36*
X10236199D02*
X10148500D01*
Y5917682D01*
X10155342Y5892147D01*
X10168560Y5869253D01*
X10187252Y5850560D01*
X10210146Y5837342D01*
X10235682Y5830500D01*
X10236199D01*
Y5918200D01*
D02*
G37*
G36*
X7469434Y5927000D02*
X7467600D01*
Y5829300D01*
X7565300D01*
Y5831134D01*
X7557776Y5859213D01*
X7543242Y5884387D01*
X7522687Y5904942D01*
X7497513Y5919476D01*
X7469434Y5927000D01*
D02*
G37*
G36*
X7442200D02*
X7440366D01*
X7412287Y5919476D01*
X7387113Y5904942D01*
X7366558Y5884387D01*
X7352024Y5859213D01*
X7344500Y5831134D01*
Y5829300D01*
X7442200D01*
Y5927000D01*
D02*
G37*
G36*
X7150618Y5980500D02*
X7124182D01*
X7098647Y5973658D01*
X7075753Y5960440D01*
X7057060Y5941747D01*
X7043842Y5918853D01*
X7037000Y5893318D01*
Y5866882D01*
X7043842Y5841347D01*
X7057060Y5818453D01*
X7075753Y5799760D01*
X7098647Y5786542D01*
X7124182Y5779700D01*
X7150618D01*
X7176153Y5786542D01*
X7199047Y5799760D01*
X7217740Y5818453D01*
X7230958Y5841347D01*
X7237800Y5866882D01*
Y5893318D01*
X7230958Y5918853D01*
X7217740Y5941747D01*
X7199047Y5960440D01*
X7176153Y5973658D01*
X7150618Y5980500D01*
D02*
G37*
G36*
X8535912Y6407150D02*
X8507488D01*
X8480033Y6399793D01*
X8455417Y6385581D01*
X8435319Y6365483D01*
X8421107Y6340867D01*
X8413750Y6313412D01*
Y6284988D01*
X8421107Y6257533D01*
X8435319Y6232917D01*
X8455417Y6212819D01*
Y6156981D01*
X8435319Y6136883D01*
X8421107Y6112267D01*
X8413750Y6084812D01*
Y6056388D01*
X8421107Y6028933D01*
X8435319Y6004317D01*
X8439686Y5999950D01*
X8418975Y5949950D01*
X8413750D01*
Y5734050D01*
X8629650D01*
Y5949950D01*
X8624425D01*
X8603714Y5999950D01*
X8608081Y6004317D01*
X8622293Y6028933D01*
X8629650Y6056388D01*
Y6084812D01*
X8622293Y6112267D01*
X8608081Y6136883D01*
X8587983Y6156981D01*
X8587983Y6212819D01*
X8608081Y6232917D01*
X8622293Y6257533D01*
X8629650Y6284988D01*
Y6313412D01*
X8622293Y6340867D01*
X8608081Y6365483D01*
X8587983Y6385581D01*
X8563367Y6399793D01*
X8535912Y6407150D01*
D02*
G37*
G36*
X9247112Y6394450D02*
X9218688D01*
X9191233Y6387093D01*
X9166617Y6372881D01*
X9146519Y6352783D01*
X9132307Y6328167D01*
X9124950Y6300712D01*
Y6272288D01*
X9132307Y6244833D01*
X9146519Y6220217D01*
X9166617Y6200119D01*
Y6144281D01*
X9146519Y6124183D01*
X9132307Y6099567D01*
X9124950Y6072112D01*
Y6043688D01*
X9132307Y6016233D01*
X9146519Y5991617D01*
X9150886Y5987250D01*
X9130175Y5937250D01*
X9124950D01*
Y5721350D01*
X9340850D01*
Y5937250D01*
X9335625D01*
X9314914Y5987250D01*
X9319281Y5991617D01*
X9333493Y6016233D01*
X9340850Y6043688D01*
Y6072112D01*
X9333493Y6099567D01*
X9319281Y6124183D01*
X9299183Y6144281D01*
X9299183Y6200119D01*
X9319281Y6220217D01*
X9333493Y6244833D01*
X9340850Y6272288D01*
Y6300712D01*
X9333493Y6328167D01*
X9319281Y6352783D01*
X9299183Y6372881D01*
X9274567Y6387093D01*
X9247112Y6394450D01*
D02*
G37*
G36*
X7565300Y5803900D02*
X7467600D01*
Y5706200D01*
X7469434D01*
X7497513Y5713724D01*
X7522687Y5728258D01*
X7543242Y5748813D01*
X7557776Y5773987D01*
X7565300Y5802066D01*
Y5803900D01*
D02*
G37*
G36*
X7442200D02*
X7344500D01*
Y5802066D01*
X7352024Y5773987D01*
X7366558Y5748813D01*
X7387113Y5728258D01*
X7412287Y5713724D01*
X7440366Y5706200D01*
X7442200D01*
Y5803900D01*
D02*
G37*
G36*
X11671818Y5790000D02*
X11671300D01*
Y5702300D01*
X11759000D01*
Y5702818D01*
X11752158Y5728353D01*
X11738940Y5751247D01*
X11720247Y5769940D01*
X11697353Y5783158D01*
X11671818Y5790000D01*
D02*
G37*
G36*
X11645900D02*
X11645382D01*
X11619847Y5783158D01*
X11596953Y5769940D01*
X11578260Y5751247D01*
X11565042Y5728353D01*
X11558200Y5702818D01*
Y5702300D01*
X11645900D01*
Y5790000D01*
D02*
G37*
G36*
X11024117Y5777300D02*
X11023599D01*
Y5689600D01*
X11111299D01*
Y5690118D01*
X11104457Y5715653D01*
X11091239Y5738547D01*
X11072547Y5757240D01*
X11049653Y5770458D01*
X11024117Y5777300D01*
D02*
G37*
G36*
X10998199D02*
X10997682D01*
X10972146Y5770458D01*
X10949252Y5757240D01*
X10930560Y5738547D01*
X10917342Y5715653D01*
X10910500Y5690118D01*
Y5689600D01*
X10998199D01*
Y5777300D01*
D02*
G37*
G36*
X6642618Y5853500D02*
X6616182D01*
X6590647Y5846658D01*
X6567753Y5833440D01*
X6549060Y5814747D01*
X6535842Y5791853D01*
X6529000Y5766318D01*
Y5739882D01*
X6535842Y5714347D01*
X6549060Y5691453D01*
X6567753Y5672760D01*
X6590647Y5659542D01*
X6616182Y5652700D01*
X6642618D01*
X6668153Y5659542D01*
X6691047Y5672760D01*
X6709740Y5691453D01*
X6722958Y5714347D01*
X6729800Y5739882D01*
Y5766318D01*
X6722958Y5791853D01*
X6709740Y5814747D01*
X6691047Y5833440D01*
X6668153Y5846658D01*
X6642618Y5853500D01*
D02*
G37*
G36*
X7237800Y5726500D02*
X7150100D01*
Y5638800D01*
X7237800D01*
Y5726500D01*
D02*
G37*
G36*
X7124700D02*
X7037000D01*
Y5638800D01*
X7124700D01*
Y5726500D01*
D02*
G37*
G36*
X12433818Y5790000D02*
X12407382D01*
X12381847Y5783158D01*
X12358953Y5769940D01*
X12340260Y5751247D01*
X12327042Y5728353D01*
X12320200Y5702818D01*
Y5676382D01*
X12327042Y5650847D01*
X12340260Y5627953D01*
X12358953Y5609260D01*
X12381847Y5596042D01*
X12407382Y5589200D01*
X12433818D01*
X12459353Y5596042D01*
X12482247Y5609260D01*
X12500940Y5627953D01*
X12514158Y5650847D01*
X12521000Y5676382D01*
Y5702818D01*
X12514158Y5728353D01*
X12500940Y5751247D01*
X12482247Y5769940D01*
X12459353Y5783158D01*
X12433818Y5790000D01*
D02*
G37*
G36*
X11759000Y5676900D02*
X11671300D01*
Y5589200D01*
X11671818D01*
X11697353Y5596042D01*
X11720247Y5609260D01*
X11738940Y5627953D01*
X11752158Y5650847D01*
X11759000Y5676382D01*
Y5676900D01*
D02*
G37*
G36*
X11645900D02*
X11558200D01*
Y5676382D01*
X11565042Y5650847D01*
X11578260Y5627953D01*
X11596953Y5609260D01*
X11619847Y5596042D01*
X11645382Y5589200D01*
X11645900D01*
Y5676900D01*
D02*
G37*
G36*
X11111299Y5664200D02*
X11023599D01*
Y5576500D01*
X11024117D01*
X11049653Y5583342D01*
X11072547Y5596560D01*
X11091239Y5615253D01*
X11104457Y5638147D01*
X11111299Y5663682D01*
Y5664200D01*
D02*
G37*
G36*
X10998199D02*
X10910500D01*
Y5663682D01*
X10917342Y5638147D01*
X10930560Y5615253D01*
X10949252Y5596560D01*
X10972146Y5583342D01*
X10997682Y5576500D01*
X10998199D01*
Y5664200D01*
D02*
G37*
G36*
X10262117Y5777300D02*
X10235682D01*
X10210146Y5770458D01*
X10187252Y5757240D01*
X10168560Y5738547D01*
X10155342Y5715653D01*
X10148500Y5690118D01*
Y5663682D01*
X10155342Y5638147D01*
X10168560Y5615253D01*
X10187252Y5596560D01*
X10210146Y5583342D01*
X10235682Y5576500D01*
X10262117D01*
X10287653Y5583342D01*
X10310547Y5596560D01*
X10329239Y5615253D01*
X10342457Y5638147D01*
X10349299Y5663682D01*
Y5690118D01*
X10342457Y5715653D01*
X10329239Y5738547D01*
X10310547Y5757240D01*
X10287653Y5770458D01*
X10262117Y5777300D01*
D02*
G37*
G36*
X8229600Y5765800D02*
X8001000D01*
Y5537200D01*
X8229600D01*
Y5765800D01*
D02*
G37*
G36*
X7237800Y5613400D02*
X7150100D01*
Y5525700D01*
X7237800D01*
Y5613400D01*
D02*
G37*
G36*
X7124700D02*
X7037000D01*
Y5525700D01*
X7124700D01*
Y5613400D01*
D02*
G37*
G36*
X9829800Y5740400D02*
X9601200D01*
Y5511800D01*
X9829800D01*
Y5740400D01*
D02*
G37*
G36*
X12433818Y5536000D02*
X12433300D01*
Y5448300D01*
X12521000D01*
Y5448818D01*
X12514158Y5474353D01*
X12500940Y5497247D01*
X12482247Y5515940D01*
X12459353Y5529158D01*
X12433818Y5536000D01*
D02*
G37*
G36*
X11671818D02*
X11671300D01*
Y5448300D01*
X11759000D01*
Y5448818D01*
X11752158Y5474353D01*
X11738940Y5497247D01*
X11720247Y5515940D01*
X11697353Y5529158D01*
X11671818Y5536000D01*
D02*
G37*
G36*
X12407900D02*
X12407382D01*
X12381847Y5529158D01*
X12358953Y5515940D01*
X12340260Y5497247D01*
X12327042Y5474353D01*
X12320200Y5448818D01*
Y5448300D01*
X12407900D01*
Y5536000D01*
D02*
G37*
G36*
X11645900D02*
X11645382D01*
X11619847Y5529158D01*
X11596953Y5515940D01*
X11578260Y5497247D01*
X11565042Y5474353D01*
X11558200Y5448818D01*
Y5448300D01*
X11645900D01*
Y5536000D01*
D02*
G37*
G36*
X12521000Y5422900D02*
X12433300D01*
Y5335200D01*
X12433818D01*
X12459353Y5342042D01*
X12482247Y5355260D01*
X12500940Y5373953D01*
X12514158Y5396847D01*
X12521000Y5422382D01*
Y5422900D01*
D02*
G37*
G36*
X12407900D02*
X12320200D01*
Y5422382D01*
X12327042Y5396847D01*
X12340260Y5373953D01*
X12358953Y5355260D01*
X12381847Y5342042D01*
X12407382Y5335200D01*
X12407900D01*
Y5422900D01*
D02*
G37*
G36*
X11759000D02*
X11671300D01*
Y5335200D01*
X11671818D01*
X11697353Y5342042D01*
X11720247Y5355260D01*
X11738940Y5373953D01*
X11752158Y5396847D01*
X11759000Y5422382D01*
Y5422900D01*
D02*
G37*
G36*
X11645900D02*
X11558200D01*
Y5422382D01*
X11565042Y5396847D01*
X11578260Y5373953D01*
X11596953Y5355260D01*
X11619847Y5342042D01*
X11645382Y5335200D01*
X11645900D01*
Y5422900D01*
D02*
G37*
G36*
X11024117Y5523300D02*
X10997682D01*
X10972146Y5516458D01*
X10949252Y5503240D01*
X10930560Y5484547D01*
X10917342Y5461653D01*
X10910500Y5436118D01*
Y5409682D01*
X10917342Y5384147D01*
X10930560Y5361253D01*
X10949252Y5342560D01*
X10972146Y5329342D01*
X10997682Y5322500D01*
X11024117D01*
X11049653Y5329342D01*
X11072547Y5342560D01*
X11091239Y5361253D01*
X11104457Y5384147D01*
X11111299Y5409682D01*
Y5436118D01*
X11104457Y5461653D01*
X11091239Y5484547D01*
X11072547Y5503240D01*
X11049653Y5516458D01*
X11024117Y5523300D01*
D02*
G37*
G36*
X10349299D02*
X10148500D01*
Y5322500D01*
X10349299D01*
Y5523300D01*
D02*
G37*
G36*
X9028500Y5112966D02*
X8878499D01*
X8852290Y5109516D01*
X8827866Y5099399D01*
X8806893Y5083306D01*
X8790800Y5062333D01*
X8780684Y5037910D01*
X8777233Y5011700D01*
X8780684Y4985490D01*
X8790800Y4961067D01*
X8806893Y4940094D01*
X8827866Y4924001D01*
X8852290Y4913884D01*
X8878499Y4910434D01*
X9028500D01*
X9054709Y4913884D01*
X9079133Y4924001D01*
X9100106Y4940094D01*
X9116199Y4961067D01*
X9126315Y4985490D01*
X9129766Y5011700D01*
X9126315Y5037910D01*
X9116199Y5062333D01*
X9100106Y5083306D01*
X9079133Y5099399D01*
X9054709Y5109516D01*
X9028500Y5112966D01*
D02*
G37*
G36*
X8203000D02*
X8052999D01*
X8026790Y5109516D01*
X8002366Y5099399D01*
X7981393Y5083306D01*
X7965300Y5062333D01*
X7955184Y5037910D01*
X7951733Y5011700D01*
X7955184Y4985490D01*
X7965300Y4961067D01*
X7981393Y4940094D01*
X8002366Y4924001D01*
X8026790Y4913884D01*
X8052999Y4910434D01*
X8203000D01*
X8229209Y4913884D01*
X8253633Y4924001D01*
X8274606Y4940094D01*
X8290699Y4961067D01*
X8300815Y4985490D01*
X8304266Y5011700D01*
X8300815Y5037910D01*
X8290699Y5062333D01*
X8274606Y5083306D01*
X8253633Y5099399D01*
X8229209Y5109516D01*
X8203000Y5112966D01*
D02*
G37*
G36*
X12587809Y5103800D02*
X12554791D01*
X12522898Y5095254D01*
X12494303Y5078745D01*
X12470955Y5055397D01*
X12454446Y5026802D01*
X12445900Y4994909D01*
Y4961891D01*
X12454446Y4929998D01*
X12470955Y4901403D01*
X12494303Y4878055D01*
X12522898Y4861546D01*
X12554791Y4853000D01*
X12587809D01*
X12619703Y4861546D01*
X12648298Y4878055D01*
X12671645Y4901403D01*
X12688154Y4929998D01*
X12696700Y4961891D01*
Y4994909D01*
X12688154Y5026802D01*
X12671645Y5055397D01*
X12648298Y5078745D01*
X12619703Y5095254D01*
X12587809Y5103800D01*
D02*
G37*
G36*
X11687809D02*
X11654791D01*
X11622898Y5095254D01*
X11594303Y5078745D01*
X11570955Y5055397D01*
X11554446Y5026802D01*
X11545900Y4994909D01*
Y4961891D01*
X11554446Y4929998D01*
X11570955Y4901403D01*
X11594303Y4878055D01*
X11622898Y4861546D01*
X11654791Y4853000D01*
X11687809D01*
X11719703Y4861546D01*
X11748298Y4878055D01*
X11771645Y4901403D01*
X11788154Y4929998D01*
X11796700Y4961891D01*
Y4994909D01*
X11788154Y5026802D01*
X11771645Y5055397D01*
X11748298Y5078745D01*
X11719703Y5095254D01*
X11687809Y5103800D01*
D02*
G37*
G36*
X9866700Y5028866D02*
X9716699D01*
X9690490Y5025416D01*
X9666066Y5015299D01*
X9645093Y4999206D01*
X9629000Y4978233D01*
X9618884Y4953810D01*
X9615433Y4927600D01*
X9618884Y4901390D01*
X9629000Y4876967D01*
X9645093Y4855994D01*
X9666066Y4839901D01*
X9690490Y4829784D01*
X9716699Y4826334D01*
X9866700D01*
X9892909Y4829784D01*
X9917333Y4839901D01*
X9938306Y4855994D01*
X9954399Y4876967D01*
X9964515Y4901390D01*
X9967966Y4927600D01*
X9964515Y4953810D01*
X9954399Y4978233D01*
X9938306Y4999206D01*
X9917333Y5015299D01*
X9892909Y5025416D01*
X9866700Y5028866D01*
D02*
G37*
G36*
X10717600Y5011366D02*
X10567599D01*
X10541390Y5007916D01*
X10516966Y4997799D01*
X10495993Y4981706D01*
X10479900Y4960733D01*
X10469784Y4936310D01*
X10466333Y4910100D01*
X10469784Y4883890D01*
X10479900Y4859467D01*
X10495993Y4838494D01*
X10516966Y4822401D01*
X10541390Y4812284D01*
X10567599Y4808834D01*
X10717600D01*
X10743809Y4812284D01*
X10768233Y4822401D01*
X10789206Y4838494D01*
X10805299Y4859467D01*
X10815415Y4883890D01*
X10818866Y4910100D01*
X10815415Y4936310D01*
X10805299Y4960733D01*
X10789206Y4981706D01*
X10768233Y4997799D01*
X10743809Y5007916D01*
X10717600Y5011366D01*
D02*
G37*
G36*
X9128899Y4812100D02*
X8966200D01*
Y4724401D01*
X9128899D01*
Y4812100D01*
D02*
G37*
G36*
X8940800D02*
X8778100D01*
Y4724401D01*
X8940800D01*
Y4812100D01*
D02*
G37*
G36*
X8303399D02*
X8140699D01*
Y4724400D01*
X8303399D01*
Y4812100D01*
D02*
G37*
G36*
X8115299D02*
X7952600D01*
Y4724400D01*
X8115299D01*
Y4812100D01*
D02*
G37*
G36*
X12587809Y4760900D02*
X12584000D01*
Y4648200D01*
X12696700D01*
Y4652009D01*
X12688154Y4683902D01*
X12671645Y4712497D01*
X12648298Y4735845D01*
X12619703Y4752354D01*
X12587809Y4760900D01*
D02*
G37*
G36*
X12558600D02*
X12554791D01*
X12522898Y4752354D01*
X12494303Y4735845D01*
X12470955Y4712497D01*
X12454446Y4683902D01*
X12445900Y4652009D01*
Y4648200D01*
X12558600D01*
Y4760900D01*
D02*
G37*
G36*
X9967099Y4728000D02*
X9804400D01*
Y4640301D01*
X9967099D01*
Y4728000D01*
D02*
G37*
G36*
X9779000D02*
X9616300D01*
Y4640301D01*
X9779000D01*
Y4728000D01*
D02*
G37*
G36*
X10817999Y4710500D02*
X10655300D01*
Y4622801D01*
X10817999D01*
Y4710500D01*
D02*
G37*
G36*
X10629900D02*
X10467200D01*
Y4622801D01*
X10629900D01*
Y4710500D01*
D02*
G37*
G36*
X9128899Y4699001D02*
X8966200D01*
Y4611300D01*
X9128899D01*
Y4699001D01*
D02*
G37*
G36*
X8940800D02*
X8778100D01*
Y4611300D01*
X8940800D01*
Y4699001D01*
D02*
G37*
G36*
X8303399Y4699000D02*
X8140699D01*
Y4611300D01*
X8303399D01*
Y4699000D01*
D02*
G37*
G36*
X8115299D02*
X7952600D01*
Y4611300D01*
X8115299D01*
Y4699000D01*
D02*
G37*
G36*
X9967099Y4614901D02*
X9804400D01*
Y4527200D01*
X9967099D01*
Y4614901D01*
D02*
G37*
G36*
X9779000D02*
X9616300D01*
Y4527200D01*
X9779000D01*
Y4614901D01*
D02*
G37*
G36*
X12696700Y4622800D02*
X12584000D01*
Y4510100D01*
X12587809D01*
X12619703Y4518646D01*
X12648298Y4535155D01*
X12671645Y4558503D01*
X12688154Y4587098D01*
X12696700Y4618991D01*
Y4622800D01*
D02*
G37*
G36*
X12558600D02*
X12445900D01*
Y4618991D01*
X12454446Y4587098D01*
X12470955Y4558503D01*
X12494303Y4535155D01*
X12522898Y4518646D01*
X12554791Y4510100D01*
X12558600D01*
Y4622800D01*
D02*
G37*
G36*
X11687809Y4760900D02*
X11654791D01*
X11622898Y4752354D01*
X11594303Y4735845D01*
X11570955Y4712497D01*
X11554446Y4683902D01*
X11545900Y4652009D01*
Y4618991D01*
X11554446Y4587098D01*
X11570955Y4558503D01*
X11594303Y4535155D01*
X11622898Y4518646D01*
X11654791Y4510100D01*
X11687809D01*
X11719703Y4518646D01*
X11748298Y4535155D01*
X11771645Y4558503D01*
X11788154Y4587098D01*
X11796700Y4618991D01*
Y4652009D01*
X11788154Y4683902D01*
X11771645Y4712497D01*
X11748298Y4735845D01*
X11719703Y4752354D01*
X11687809Y4760900D01*
D02*
G37*
G36*
X10817999Y4597401D02*
X10655300D01*
Y4509700D01*
X10817999D01*
Y4597401D01*
D02*
G37*
G36*
X10629900D02*
X10467200D01*
Y4509700D01*
X10629900D01*
Y4597401D01*
D02*
G37*
%LPD*%
D12*
X7734300Y7747000D02*
X7886700Y7899400D01*
X7444113Y6974213D02*
X7734300Y7264400D01*
Y7747000D01*
X7366000Y6972300D02*
X7367913Y6974213D01*
X7444113D01*
X8903710Y6317761D02*
Y6666490D01*
X8902700Y6667500D02*
X8903710Y6666490D01*
Y6317761D02*
X8904720Y6316751D01*
D15*
X7137400Y5626100D02*
D03*
X12420600Y6959600D02*
D03*
X10248899Y5422900D02*
D03*
D16*
X6629400Y5753100D02*
D03*
X7137400Y5880100D02*
D03*
X6629400Y6007100D02*
D03*
X7137400Y6134100D02*
D03*
X6629400Y6261100D02*
D03*
X7137400Y6388100D02*
D03*
X6629400Y6515100D02*
D03*
X7137400Y6642100D02*
D03*
X6629400Y6769100D02*
D03*
X7137400Y6896100D02*
D03*
X6629400Y7023100D02*
D03*
X7137400Y7150100D02*
D03*
X6629400Y7277100D02*
D03*
X7137400Y7404100D02*
D03*
X11658600Y5435600D02*
D03*
Y5689600D02*
D03*
Y5943600D02*
D03*
Y6197600D02*
D03*
Y6451600D02*
D03*
Y6705600D02*
D03*
Y6959600D02*
D03*
X12420600Y5435600D02*
D03*
Y5689600D02*
D03*
Y5943600D02*
D03*
Y6197600D02*
D03*
Y6451600D02*
D03*
Y6705600D02*
D03*
X11010899Y6946900D02*
D03*
Y6692900D02*
D03*
Y6438900D02*
D03*
Y6184900D02*
D03*
Y5930900D02*
D03*
Y5676900D02*
D03*
Y5422900D02*
D03*
X10248899Y6946900D02*
D03*
Y6692900D02*
D03*
Y6438900D02*
D03*
Y6184900D02*
D03*
Y5930900D02*
D03*
Y5676900D02*
D03*
D17*
X9791699Y4927600D02*
D03*
X11988799Y7581900D02*
D03*
X10642599Y4910100D02*
D03*
X12839699Y7594600D02*
D03*
X8127999Y5011700D02*
D03*
X8953499D02*
D03*
D18*
X9791699Y4627600D02*
D03*
X11988799Y7881900D02*
D03*
X10642599Y4610100D02*
D03*
X12839699Y7894600D02*
D03*
X8127999Y4711700D02*
D03*
X8953499D02*
D03*
D19*
X9232900Y5829300D02*
D03*
X8521700Y5842000D02*
D03*
X9232900Y6616700D02*
D03*
X8521700Y6629400D02*
D03*
D20*
X9232900Y6057900D02*
D03*
Y6286500D02*
D03*
X8521700Y6070600D02*
D03*
Y6299200D02*
D03*
X9232900Y6845300D02*
D03*
Y7073900D02*
D03*
X8521700Y6858000D02*
D03*
Y7086600D02*
D03*
D21*
X12571300Y4635500D02*
D03*
X11671300D02*
D03*
Y4978400D02*
D03*
X12571300D02*
D03*
X11176000Y7429500D02*
D03*
X10276000D02*
D03*
Y7759700D02*
D03*
X11176000D02*
D03*
D22*
X8115300Y5651500D02*
D03*
Y6781800D02*
D03*
X9715500Y6807200D02*
D03*
Y5626100D02*
D03*
D23*
X8115300Y6159500D02*
D03*
Y7289800D02*
D03*
X9715500Y7315200D02*
D03*
Y6134100D02*
D03*
D24*
X7442200Y7327900D02*
D03*
X7454900Y5816600D02*
D03*
X6299200Y6477000D02*
D03*
D25*
X7886700Y7899400D02*
D03*
X8904720Y6316751D02*
D03*
X8902700Y6667500D02*
D03*
X7366000Y6972300D02*
D03*
%TF.MD5,ba96aa2705a307a5898660ea46f90c0b*%
M02*
