%TF.GenerationSoftware,Altium Limited,Altium Designer,25.8.1 (18)*%
G04 Layer_Color=8388736*
%FSLAX45Y45*%
%MOMM*%
%TF.SameCoordinates,A03D5229-0D84-416C-82DE-D2F162E989C3*%
%TF.FilePolarity,Negative*%
%TF.FileFunction,Soldermask,Top*%
%TF.Part,Single*%
G01*
G75*
%TA.AperFunction,ComponentPad*%
%ADD19R,1.65100X1.65100*%
%ADD20C,1.65100*%
%ADD22R,1.77800X1.77800*%
%ADD23C,2.03200*%
%ADD31R,1.70320X1.70320*%
%ADD32C,1.70320*%
%ADD33O,3.20320X1.70320*%
%ADD34R,3.20320X1.70320*%
%ADD35C,2.20320*%
%TA.AperFunction,ViaPad*%
%ADD36C,1.90320*%
%ADD37C,2.20320*%
D19*
X9232900Y5829300D02*
D03*
X8521700Y5842000D02*
D03*
X9232900Y6616700D02*
D03*
X8521700Y6629400D02*
D03*
D20*
X9232900Y6057900D02*
D03*
Y6286500D02*
D03*
X8521700Y6070600D02*
D03*
Y6299200D02*
D03*
X9232900Y6845300D02*
D03*
Y7073900D02*
D03*
X8521700Y6858000D02*
D03*
Y7086600D02*
D03*
D22*
X8115300Y5651500D02*
D03*
Y6781800D02*
D03*
X9715500Y6807200D02*
D03*
Y5626100D02*
D03*
D23*
X8115300Y6159500D02*
D03*
Y7289800D02*
D03*
X9715500Y7315200D02*
D03*
Y6134100D02*
D03*
D31*
X7137400Y5626100D02*
D03*
X12420600Y6959600D02*
D03*
X10248899Y5422900D02*
D03*
D32*
X6629400Y5753100D02*
D03*
X7137400Y5880100D02*
D03*
X6629400Y6007100D02*
D03*
X7137400Y6134100D02*
D03*
X6629400Y6261100D02*
D03*
X7137400Y6388100D02*
D03*
X6629400Y6515100D02*
D03*
X7137400Y6642100D02*
D03*
X6629400Y6769100D02*
D03*
X7137400Y6896100D02*
D03*
X6629400Y7023100D02*
D03*
X7137400Y7150100D02*
D03*
X6629400Y7277100D02*
D03*
X7137400Y7404100D02*
D03*
X11658600Y5435600D02*
D03*
Y5689600D02*
D03*
Y5943600D02*
D03*
Y6197600D02*
D03*
Y6451600D02*
D03*
Y6705600D02*
D03*
Y6959600D02*
D03*
X12420600Y5435600D02*
D03*
Y5689600D02*
D03*
Y5943600D02*
D03*
Y6197600D02*
D03*
Y6451600D02*
D03*
Y6705600D02*
D03*
X11010899Y6946900D02*
D03*
Y6692900D02*
D03*
Y6438900D02*
D03*
Y6184900D02*
D03*
Y5930900D02*
D03*
Y5676900D02*
D03*
Y5422900D02*
D03*
X10248899Y6946900D02*
D03*
Y6692900D02*
D03*
Y6438900D02*
D03*
Y6184900D02*
D03*
Y5930900D02*
D03*
Y5676900D02*
D03*
D33*
X9791699Y4927600D02*
D03*
X11988799Y7581900D02*
D03*
X10642599Y4910100D02*
D03*
X12839699Y7594600D02*
D03*
X8127999Y5011700D02*
D03*
X8953499D02*
D03*
D34*
X9791699Y4627600D02*
D03*
X11988799Y7881900D02*
D03*
X10642599Y4610100D02*
D03*
X12839699Y7894600D02*
D03*
X8127999Y4711700D02*
D03*
X8953499D02*
D03*
D35*
X12571300Y4635500D02*
D03*
X11671300D02*
D03*
Y4978400D02*
D03*
X12571300D02*
D03*
X11176000Y7429500D02*
D03*
X10276000D02*
D03*
Y7759700D02*
D03*
X11176000D02*
D03*
D36*
X7442200Y7327900D02*
D03*
X7454900Y5816600D02*
D03*
X6299200Y6477000D02*
D03*
D37*
X7886700Y7899400D02*
D03*
X8904720Y6316751D02*
D03*
X8902700Y6667500D02*
D03*
X7366000Y6972300D02*
D03*
%TF.MD5,44a1bc1020c0e3e98cb872ba91b62de9*%
M02*
