%TF.GenerationSoftware,Altium Limited,Altium Designer,25.8.1 (18)*%
G04 Layer_Color=32896*
%FSLAX45Y45*%
%MOMM*%
%TF.SameCoordinates,5194DE87-2E3A-4D0E-B7FB-1F2D01658319*%
%TF.FilePolarity,Positive*%
%TF.FileFunction,Legend,Bot*%
%TF.Part,Single*%
G01*
G75*
%TA.AperFunction,NonConductor*%
%ADD26C,0.25000*%
%ADD27C,0.20000*%
%ADD28C,0.25400*%
%ADD29C,0.60000*%
%ADD30C,0.15240*%
%ADD31C,0.12700*%
D26*
X9702600Y6626400D02*
G03*
X9702600Y6626400I-12500J0D01*
G01*
X11023400Y6651800D02*
G03*
X11023400Y6651800I-12500J0D01*
G01*
D27*
X9340500Y8263500D02*
G03*
X8820500Y8263500I-260000J-177835D01*
G01*
X6318600Y5986000D02*
G03*
X6838600Y5986000I260000J177835D01*
G01*
X10134600Y6533400D02*
G03*
X10007600Y6533400I-63500J0D01*
G01*
X11455400Y6558800D02*
G03*
X11328400Y6558800I-63500J0D01*
G01*
X8820500Y7982000D02*
X9340500D01*
X8820500D02*
Y8043500D01*
X9340500Y7982000D02*
Y8043500D01*
X6318600Y6267500D02*
X6838600D01*
Y6206000D02*
Y6267500D01*
X6318600Y6206000D02*
Y6267500D01*
X9806100Y8503400D02*
X10336100D01*
X10134600Y6533400D02*
X10336100D01*
X9806100D02*
X10007600D01*
X10336100D02*
Y8503400D01*
X9806100Y6533400D02*
Y8503400D01*
X11126900Y8528800D02*
X11656900D01*
X11455400Y6558800D02*
X11656900D01*
X11126900D02*
X11328400D01*
X11656900D02*
Y8528800D01*
X11126900Y6558800D02*
Y8528800D01*
D28*
X9163000Y5984100D02*
G03*
X9163000Y5984100I-400000J0D01*
G01*
X11664900Y6098400D02*
G03*
X11664900Y6098400I-400000J0D01*
G01*
X10814000Y6047600D02*
G03*
X10814000Y6047600I-400000J0D01*
G01*
X10013900Y6042800D02*
G03*
X10013900Y6042800I-400000J0D01*
G01*
X5886400Y5966600D02*
G03*
X5886400Y5966600I-400000J0D01*
G01*
X5060900Y6068200D02*
G03*
X5060900Y6068200I-400000J0D01*
G01*
X8465500Y6134100D02*
X8570500D01*
X8518000Y6081600D02*
Y6186600D01*
Y5781600D02*
Y5886600D01*
X10967400Y6248400D02*
X11072400D01*
X11019900Y6195900D02*
Y6300900D01*
Y5895900D02*
Y6000900D01*
X10116500Y6197600D02*
X10221500D01*
X10169000Y6145100D02*
Y6250100D01*
Y5845100D02*
Y5950100D01*
X9316400Y6192800D02*
X9421400D01*
X9368900Y6140300D02*
Y6245300D01*
Y5840300D02*
Y5945300D01*
X5188900Y6116600D02*
X5293900D01*
X5241400Y6064100D02*
Y6169100D01*
Y5764100D02*
Y5869100D01*
X4363400Y6218200D02*
X4468400D01*
X4415900Y6165700D02*
Y6270700D01*
Y5865700D02*
Y5970700D01*
X8526813Y6598879D02*
X8552205Y6624271D01*
X8602988D01*
X8628380Y6598879D01*
Y6497312D01*
X8602988Y6471920D01*
X8552205D01*
X8526813Y6497312D01*
X8399854Y6471920D02*
Y6624271D01*
X8476029Y6548095D01*
X8374462D01*
X10977913Y6713179D02*
X11003305Y6738571D01*
X11054088D01*
X11079480Y6713179D01*
Y6611612D01*
X11054088Y6586220D01*
X11003305D01*
X10977913Y6611612D01*
X10927129Y6586220D02*
X10876346D01*
X10901737D01*
Y6738571D01*
X10927129Y6713179D01*
X10177813Y6662379D02*
X10203205Y6687771D01*
X10253988D01*
X10279380Y6662379D01*
Y6560812D01*
X10253988Y6535420D01*
X10203205D01*
X10177813Y6560812D01*
X10025462Y6535420D02*
X10127029D01*
X10025462Y6636987D01*
Y6662379D01*
X10050854Y6687771D01*
X10101637D01*
X10127029Y6662379D01*
X9377713Y6659839D02*
X9403105Y6685231D01*
X9453888D01*
X9479280Y6659839D01*
Y6558272D01*
X9453888Y6532880D01*
X9403105D01*
X9377713Y6558272D01*
X9326929Y6659839D02*
X9301537Y6685231D01*
X9250754D01*
X9225362Y6659839D01*
Y6634447D01*
X9250754Y6609055D01*
X9276146D01*
X9250754D01*
X9225362Y6583663D01*
Y6558272D01*
X9250754Y6532880D01*
X9301537D01*
X9326929Y6558272D01*
X8854473Y8521692D02*
Y8623259D01*
X8879865Y8648651D01*
X8930648D01*
X8956040Y8623259D01*
Y8521692D01*
X8930648Y8496300D01*
X8879865D01*
X8905257Y8547083D02*
X8854473Y8496300D01*
X8879865D02*
X8854473Y8521692D01*
X8803689Y8496300D02*
X8752906D01*
X8778297D01*
Y8648651D01*
X8803689Y8623259D01*
X8209280Y5656580D02*
Y5808931D01*
X8133105D01*
X8107713Y5783539D01*
Y5732755D01*
X8133105Y5707363D01*
X8209280D01*
X8158497D02*
X8107713Y5656580D01*
X7980754D02*
Y5808931D01*
X8056929Y5732755D01*
X7955362D01*
X6774180Y5669280D02*
Y5821631D01*
X6698005D01*
X6672613Y5796239D01*
Y5745455D01*
X6698005Y5720063D01*
X6774180D01*
X6723397D02*
X6672613Y5669280D01*
X6520262Y5821631D02*
X6571046Y5796239D01*
X6621829Y5745455D01*
Y5694672D01*
X6596437Y5669280D01*
X6545654D01*
X6520262Y5694672D01*
Y5720063D01*
X6545654Y5745455D01*
X6621829D01*
X6403373Y6388092D02*
Y6489659D01*
X6428765Y6515051D01*
X6479548D01*
X6504940Y6489659D01*
Y6388092D01*
X6479548Y6362700D01*
X6428765D01*
X6454157Y6413483D02*
X6403373Y6362700D01*
X6428765D02*
X6403373Y6388092D01*
X6251022Y6362700D02*
X6352589D01*
X6251022Y6464267D01*
Y6489659D01*
X6276414Y6515051D01*
X6327197D01*
X6352589Y6489659D01*
X5250213Y6583639D02*
X5275605Y6609031D01*
X5326388D01*
X5351780Y6583639D01*
Y6482072D01*
X5326388Y6456680D01*
X5275605D01*
X5250213Y6482072D01*
X5097862Y6609031D02*
X5148646Y6583639D01*
X5199429Y6532855D01*
Y6482072D01*
X5174037Y6456680D01*
X5123254D01*
X5097862Y6482072D01*
Y6507463D01*
X5123254Y6532855D01*
X5199429D01*
X9862820Y8760411D02*
Y8633452D01*
X9837428Y8608060D01*
X9786645D01*
X9761253Y8633452D01*
Y8760411D01*
X9710469D02*
X9608902D01*
Y8735019D01*
X9710469Y8633452D01*
Y8608060D01*
X4424713Y6685239D02*
X4450105Y6710631D01*
X4500888D01*
X4526280Y6685239D01*
Y6583672D01*
X4500888Y6558280D01*
X4450105D01*
X4424713Y6583672D01*
X4272362Y6710631D02*
X4373929D01*
Y6634455D01*
X4323146Y6659847D01*
X4297754D01*
X4272362Y6634455D01*
Y6583672D01*
X4297754Y6558280D01*
X4348537D01*
X4373929Y6583672D01*
X5267993Y7838399D02*
X5293385Y7863791D01*
X5344168D01*
X5369560Y7838399D01*
Y7736832D01*
X5344168Y7711440D01*
X5293385D01*
X5267993Y7736832D01*
X5217209Y7711440D02*
Y7863791D01*
X5141034D01*
X5115642Y7838399D01*
Y7787615D01*
X5141034Y7762223D01*
X5217209D01*
X5166426D02*
X5115642Y7711440D01*
X5064859D02*
X5014075D01*
X5039467D01*
Y7863791D01*
X5064859Y7838399D01*
X6101113Y8950952D02*
Y9052519D01*
X6126505Y9077911D01*
X6177288D01*
X6202680Y9052519D01*
Y8950952D01*
X6177288Y8925560D01*
X6126505D01*
X6151897Y8976343D02*
X6101113Y8925560D01*
X6126505D02*
X6101113Y8950952D01*
X6050329Y9052519D02*
X6024937Y9077911D01*
X5974154D01*
X5948762Y9052519D01*
Y9027127D01*
X5974154Y9001735D01*
X5999546D01*
X5974154D01*
X5948762Y8976343D01*
Y8950952D01*
X5974154Y8925560D01*
X6024937D01*
X6050329Y8950952D01*
X7477793Y7812999D02*
X7503185Y7838391D01*
X7553968D01*
X7579360Y7812999D01*
Y7711432D01*
X7553968Y7686040D01*
X7503185D01*
X7477793Y7711432D01*
X7427009Y7686040D02*
Y7838391D01*
X7350834D01*
X7325442Y7812999D01*
Y7762215D01*
X7350834Y7736823D01*
X7427009D01*
X7376226D02*
X7325442Y7686040D01*
X7173091D02*
X7274659D01*
X7173091Y7787607D01*
Y7812999D01*
X7198483Y7838391D01*
X7249267D01*
X7274659Y7812999D01*
X6723413Y8935712D02*
Y9037279D01*
X6748805Y9062671D01*
X6799588D01*
X6824980Y9037279D01*
Y8935712D01*
X6799588Y8910320D01*
X6748805D01*
X6774197Y8961103D02*
X6723413Y8910320D01*
X6748805D02*
X6723413Y8935712D01*
X6596454Y8910320D02*
Y9062671D01*
X6672629Y8986495D01*
X6571062D01*
X9075420Y7640320D02*
Y7792671D01*
X8999245D01*
X8973853Y7767279D01*
Y7716495D01*
X8999245Y7691103D01*
X9075420D01*
X9024637D02*
X8973853Y7640320D01*
X8923069Y7767279D02*
X8897677Y7792671D01*
X8846894D01*
X8821502Y7767279D01*
Y7741887D01*
X8846894Y7716495D01*
X8872286D01*
X8846894D01*
X8821502Y7691103D01*
Y7665712D01*
X8846894Y7640320D01*
X8897677D01*
X8923069Y7665712D01*
X8209280Y7955280D02*
Y8107631D01*
X8133105D01*
X8107713Y8082239D01*
Y8031455D01*
X8133105Y8006063D01*
X8209280D01*
X8158497D02*
X8107713Y7955280D01*
X7955362Y8107631D02*
X8056929D01*
Y8031455D01*
X8006146Y8056847D01*
X7980754D01*
X7955362Y8031455D01*
Y7980672D01*
X7980754Y7955280D01*
X8031537D01*
X8056929Y7980672D01*
X6083300Y6258289D02*
Y6385248D01*
X6108692Y6410640D01*
X6159475D01*
X6184867Y6385248D01*
Y6258289D01*
X6235651Y6385248D02*
X6261043Y6410640D01*
X6311826D01*
X6337218Y6385248D01*
Y6283681D01*
X6311826Y6258289D01*
X6261043D01*
X6235651Y6283681D01*
Y6309073D01*
X6261043Y6334465D01*
X6337218D01*
X6604000Y6260989D02*
Y6387948D01*
X6629392Y6413340D01*
X6680175D01*
X6705567Y6387948D01*
Y6260989D01*
X6756351Y6413340D02*
X6807134D01*
X6781743D01*
Y6260989D01*
X6756351Y6286381D01*
X6883310D02*
X6908701Y6260989D01*
X6959485D01*
X6984877Y6286381D01*
Y6387948D01*
X6959485Y6413340D01*
X6908701D01*
X6883310Y6387948D01*
Y6286381D01*
X7528593Y9044899D02*
X7553985Y9070291D01*
X7604768D01*
X7630160Y9044899D01*
Y8943332D01*
X7604768Y8917940D01*
X7553985D01*
X7528593Y8943332D01*
X7477809Y8917940D02*
Y9070291D01*
X7401634D01*
X7376242Y9044899D01*
Y8994115D01*
X7401634Y8968723D01*
X7477809D01*
X7427026D02*
X7376242Y8917940D01*
X7249283D02*
Y9070291D01*
X7325459Y8994115D01*
X7223891D01*
X5255293Y9108399D02*
X5280685Y9133791D01*
X5331468D01*
X5356860Y9108399D01*
Y9006832D01*
X5331468Y8981440D01*
X5280685D01*
X5255293Y9006832D01*
X5204509Y8981440D02*
Y9133791D01*
X5128334D01*
X5102942Y9108399D01*
Y9057615D01*
X5128334Y9032223D01*
X5204509D01*
X5153726D02*
X5102942Y8981440D01*
X5052159Y9108399D02*
X5026767Y9133791D01*
X4975983D01*
X4950591Y9108399D01*
Y9083007D01*
X4975983Y9057615D01*
X5001375D01*
X4975983D01*
X4950591Y9032223D01*
Y9006832D01*
X4975983Y8981440D01*
X5026767D01*
X5052159Y9006832D01*
X7294880Y6418580D02*
Y6570931D01*
X7218705D01*
X7193313Y6545539D01*
Y6494755D01*
X7218705Y6469363D01*
X7294880D01*
X7244097D02*
X7193313Y6418580D01*
X7142529Y6545539D02*
X7117137Y6570931D01*
X7066354D01*
X7040962Y6545539D01*
Y6520147D01*
X7066354Y6494755D01*
X7040962Y6469363D01*
Y6443972D01*
X7066354Y6418580D01*
X7117137D01*
X7142529Y6443972D01*
Y6469363D01*
X7117137Y6494755D01*
X7142529Y6520147D01*
Y6545539D01*
X7117137Y6494755D02*
X7066354D01*
X8288020Y7653020D02*
Y7805371D01*
X8211845D01*
X8186453Y7779979D01*
Y7729195D01*
X8211845Y7703803D01*
X8288020D01*
X8237237D02*
X8186453Y7653020D01*
X8135669Y7805371D02*
X8034102D01*
Y7779979D01*
X8135669Y7678412D01*
Y7653020D01*
X11183620Y8785811D02*
Y8658852D01*
X11158228Y8633460D01*
X11107445D01*
X11082053Y8658852D01*
Y8785811D01*
X10929702D02*
X10980486Y8760419D01*
X11031269Y8709635D01*
Y8658852D01*
X11005877Y8633460D01*
X10955094D01*
X10929702Y8658852D01*
Y8684243D01*
X10955094Y8709635D01*
X11031269D01*
X8630920Y7640320D02*
Y7792671D01*
X8554745D01*
X8529353Y7767279D01*
Y7716495D01*
X8554745Y7691103D01*
X8630920D01*
X8580137D02*
X8529353Y7640320D01*
X8478569D02*
X8427786D01*
X8453177D01*
Y7792671D01*
X8478569Y7767279D01*
X6167120Y6294120D02*
Y6446471D01*
X6090945D01*
X6065553Y6421079D01*
Y6370295D01*
X6090945Y6344903D01*
X6167120D01*
X6116337D02*
X6065553Y6294120D01*
X5913202D02*
X6014769D01*
X5913202Y6395687D01*
Y6421079D01*
X5938594Y6446471D01*
X5989377D01*
X6014769Y6421079D01*
D29*
X9936100Y6633400D02*
G03*
X9936100Y6633400I-30000J0D01*
G01*
X11256900Y6658800D02*
G03*
X11256900Y6658800I-30000J0D01*
G01*
D30*
X5316220Y6380480D02*
G03*
X5316220Y6380480I-20320J0D01*
G01*
X6103620Y8820150D02*
G03*
X6103620Y8820150I-20320J0D01*
G01*
X7475220Y6355080D02*
G03*
X7475220Y6355080I-20320J0D01*
G01*
X6725920Y8807450D02*
G03*
X6725920Y8807450I-20320J0D01*
G01*
X6108700Y7762080D02*
G03*
X6108700Y7762080I-12700J0D01*
G01*
X6756400Y7764780D02*
G03*
X6756400Y7764780I-12700J0D01*
G01*
X7526020Y7586980D02*
G03*
X7526020Y7586980I-20320J0D01*
G01*
X5252720Y7650480D02*
G03*
X5252720Y7650480I-20320J0D01*
G01*
X5010150Y6558280D02*
X5505450D01*
Y7614920D01*
X5010150D02*
X5505450D01*
X5010150Y6558280D02*
Y7614920D01*
X6207000Y7943850D02*
Y8642350D01*
X5943600Y7943850D02*
X6207000D01*
X5943600D02*
Y8642350D01*
X6207000D01*
X7169150Y6532880D02*
X7664450D01*
Y7589520D01*
X7169150D02*
X7664450D01*
X7169150Y6532880D02*
Y7589520D01*
X6829300Y7931150D02*
Y8629650D01*
X6565900Y7931150D02*
X6829300D01*
X6565900D02*
Y8629650D01*
X6829300D01*
X5977890Y7341049D02*
Y7571580D01*
X6341110Y6507320D02*
Y7584280D01*
X5850890Y6507320D02*
X6341110D01*
X5850890D02*
Y7584280D01*
X6341110D01*
X5977890Y7077049D02*
Y7278551D01*
Y6813049D02*
Y7014551D01*
Y6520020D02*
Y6750551D01*
X6625590Y7343749D02*
Y7574280D01*
X6988810Y6510020D02*
Y7586980D01*
X6498590Y6510020D02*
X6988810D01*
X6498590D02*
Y7586980D01*
X6988810D01*
X6625590Y7079749D02*
Y7281251D01*
Y6815749D02*
Y7017251D01*
Y6522720D02*
Y6753251D01*
X7219950Y7764780D02*
X7715250D01*
Y8821420D01*
X7219950D02*
X7715250D01*
X7219950Y7764780D02*
Y8821420D01*
X4946650Y7828280D02*
X5441950D01*
Y8884920D01*
X4946650D02*
X5441950D01*
X4946650Y7828280D02*
Y8884920D01*
D31*
X8811600Y5348500D02*
Y5573500D01*
X8166600Y5348500D02*
X8811600D01*
X8166600D02*
Y5573500D01*
X8811600D01*
X6731500Y5361200D02*
Y5586200D01*
X7376500D01*
Y5361200D02*
Y5586200D01*
X6731500Y5361200D02*
X7376500D01*
X8802900Y7325700D02*
X9027900D01*
Y6680700D02*
Y7325700D01*
X8802900Y6680700D02*
X9027900D01*
X8802900D02*
Y7325700D01*
X8811600Y7647200D02*
Y7872200D01*
X8166600Y7647200D02*
X8811600D01*
X8166600D02*
Y7872200D01*
X8811600D01*
X7898900Y6110500D02*
Y6335500D01*
X7253900Y6110500D02*
X7898900D01*
X7253900D02*
Y6335500D01*
X7898900D01*
X8015500Y7338400D02*
X8240500D01*
Y6693400D02*
Y7338400D01*
X8015500Y6693400D02*
X8240500D01*
X8015500D02*
Y7338400D01*
X8409200Y6682400D02*
X8634200D01*
X8409200D02*
Y7327400D01*
X8634200D01*
Y6682400D02*
Y7327400D01*
X5894600Y5981200D02*
X6119600D01*
Y5336200D02*
Y5981200D01*
X5894600Y5336200D02*
X6119600D01*
X5894600D02*
Y5981200D01*
%TF.MD5,34302c0fa411110c5ce9d004f6ec6c90*%
M02*
