%TF.GenerationSoftware,Altium Limited,Altium Designer,25.8.1 (18)*%
G04 Layer_Physical_Order=1*
G04 Layer_Color=255*
%FSLAX45Y45*%
%MOMM*%
%TF.SameCoordinates,A03D5229-0D84-416C-82DE-D2F162E989C3*%
%TF.FilePolarity,Positive*%
%TF.FileFunction,Copper,L1,Top,Signal*%
%TF.Part,Single*%
G01*
G75*
%TA.AperFunction,Conductor*%
%ADD10C,0.50000*%
%ADD11C,2.00000*%
%ADD12C,1.90000*%
%ADD13C,2.10000*%
%TA.AperFunction,NonConductor*%
%ADD14C,0.25400*%
%TA.AperFunction,ComponentPad*%
%ADD15R,1.50000X1.50000*%
%ADD16C,1.50000*%
%ADD17O,3.00000X1.50000*%
%ADD18R,3.00000X1.50000*%
%ADD19R,1.65100X1.65100*%
%ADD20C,1.65100*%
%ADD21C,2.00000*%
%ADD22R,1.77800X1.77800*%
%ADD23C,2.03200*%
%TA.AperFunction,ViaPad*%
%ADD24C,1.70000*%
%ADD25C,2.00000*%
G36*
X13271500Y8026400D02*
X13366750Y7931150D01*
Y4857750D01*
Y4832350D01*
X12553950Y4019550D01*
X6902450D01*
X5645150Y5276850D01*
Y7766050D01*
X6394450Y8515350D01*
X6419850Y8528050D01*
X12668250D01*
X13271500Y8026400D01*
D02*
G37*
%LPC*%
G36*
X13015099Y7995000D02*
X12664300D01*
Y7794200D01*
X13015099D01*
Y7995000D01*
D02*
G37*
G36*
X12164199Y7982300D02*
X11813400D01*
Y7781500D01*
X12164199D01*
Y7982300D01*
D02*
G37*
G36*
X9967099Y4728000D02*
X9616300D01*
Y4527200D01*
X9967099D01*
Y4728000D01*
D02*
G37*
G36*
X10960100Y8293687D02*
X7372863D01*
X7353197Y8289776D01*
X7336526Y8278636D01*
X6442664Y7384774D01*
X6431524Y7368103D01*
X6427613Y7348437D01*
Y7173500D01*
X6431524Y7153835D01*
X6442664Y7137164D01*
X6532066Y7047761D01*
X6529000Y7036318D01*
Y7009882D01*
X6532750Y6995887D01*
X6515617Y6962454D01*
X6500312Y6945887D01*
X6475400D01*
X6455735Y6941976D01*
X6439064Y6930836D01*
X6085064Y6576836D01*
X6073924Y6560165D01*
X6070013Y6540500D01*
Y6025252D01*
X6009664Y5964903D01*
X5998524Y5948232D01*
X5994613Y5928567D01*
Y5213430D01*
X5998524Y5193765D01*
X6009664Y5177094D01*
X6712194Y4474564D01*
X6728865Y4463424D01*
X6748530Y4459513D01*
X9191800D01*
X9211465Y4463424D01*
X9228136Y4474564D01*
X9539285Y4785713D01*
X9599140D01*
X9618805Y4789624D01*
X9635476Y4800764D01*
X9672110Y4837397D01*
X9690490Y4829784D01*
X9716699Y4826334D01*
X9866700D01*
X9892909Y4829784D01*
X9917333Y4839901D01*
X9938306Y4855994D01*
X9947106Y4867463D01*
X10476588D01*
X10479900Y4859467D01*
X10495993Y4838494D01*
X10516966Y4822401D01*
X10541390Y4812284D01*
X10567599Y4808834D01*
X10717600D01*
X10742867Y4812160D01*
X10794527Y4760500D01*
X10773816Y4710500D01*
X10467200D01*
Y4509700D01*
X10817999D01*
Y4666317D01*
X10867999Y4687027D01*
X11181663Y4373364D01*
X11198334Y4362224D01*
X11217999Y4358313D01*
X12588500D01*
X12608165Y4362224D01*
X12624836Y4373364D01*
X12876036Y4624563D01*
X12887175Y4641235D01*
X12891087Y4660899D01*
Y7493334D01*
X12914700D01*
X12940909Y7496784D01*
X12965334Y7506901D01*
X12986307Y7522994D01*
X13002399Y7543967D01*
X13012515Y7568390D01*
X13015965Y7594600D01*
X13012515Y7620810D01*
X13002399Y7645233D01*
X12986307Y7666206D01*
X12965334Y7682299D01*
X12940909Y7692416D01*
X12914700Y7695866D01*
X12764699D01*
X12738490Y7692416D01*
X12714066Y7682299D01*
X12693093Y7666206D01*
X12677000Y7645233D01*
X12674682Y7639637D01*
X12146048D01*
X12135406Y7653506D01*
X12114433Y7669599D01*
X12090009Y7679716D01*
X12063800Y7683166D01*
X11913799D01*
X11887590Y7679716D01*
X11863166Y7669599D01*
X11842193Y7653506D01*
X11826100Y7632533D01*
X11815984Y7608110D01*
X11812533Y7581900D01*
X11815984Y7555690D01*
X11826100Y7531267D01*
X11842193Y7510294D01*
X11863166Y7494201D01*
X11887590Y7484084D01*
X11913799Y7480634D01*
X11937412D01*
Y7311085D01*
X11683261Y7056934D01*
X11671818Y7060000D01*
X11645382D01*
X11596694Y7088647D01*
X11585555Y7105318D01*
X11430587Y7260285D01*
Y7823200D01*
X11426676Y7842865D01*
X11415536Y7859536D01*
X10996436Y8278636D01*
X10979765Y8289776D01*
X10960100Y8293687D01*
D02*
G37*
G36*
X10641458Y4381434D02*
X7010400D01*
Y4076700D01*
X10641458D01*
Y4381434D01*
D02*
G37*
%LPD*%
G36*
X10150600Y7412991D02*
X10159146Y7381098D01*
X10175655Y7352503D01*
X10199003Y7329155D01*
X10227598Y7312646D01*
X10216937Y7263739D01*
X10050600D01*
X10019169Y7259601D01*
X9989880Y7247469D01*
X9964730Y7228170D01*
X9700286Y6963726D01*
X9677400Y6966739D01*
X9349114D01*
X9335346Y6985604D01*
X9324548Y7016739D01*
X9333493Y7032233D01*
X9340850Y7059688D01*
Y7088112D01*
X9333493Y7115567D01*
X9319281Y7140183D01*
X9299183Y7160281D01*
X9274567Y7174493D01*
X9247112Y7181850D01*
X9218688D01*
X9217110Y7181427D01*
X9191229Y7226256D01*
X9380785Y7415813D01*
X9569207D01*
X9598075Y7365813D01*
X9597155Y7364220D01*
X9588500Y7331920D01*
Y7298480D01*
X9597155Y7266180D01*
X9613875Y7237220D01*
X9637520Y7213575D01*
X9666480Y7196855D01*
X9698780Y7188200D01*
X9732220D01*
X9764520Y7196855D01*
X9793480Y7213575D01*
X9817125Y7237220D01*
X9833845Y7266180D01*
X9842500Y7298480D01*
Y7331920D01*
X9833845Y7364220D01*
X9832925Y7365813D01*
X9861793Y7415813D01*
X10150600D01*
Y7412991D01*
D02*
G37*
G36*
X6940613Y7353152D02*
Y7088902D01*
X6920647Y7074639D01*
X6890613Y7065286D01*
X6882697Y7070576D01*
X6863031Y7074487D01*
X6715663D01*
X6709740Y7084747D01*
X6691047Y7103440D01*
X6681624Y7108880D01*
X6679344Y7152157D01*
X6682934Y7163542D01*
X6692641Y7167563D01*
X6718836Y7187664D01*
X6738937Y7213859D01*
X6741019Y7218886D01*
X6894419Y7372286D01*
X6940613Y7353152D01*
D02*
G37*
G36*
X11196126Y7933602D02*
X11173917Y7885100D01*
X11159491D01*
X11127598Y7876554D01*
X11099003Y7860045D01*
X11075655Y7836697D01*
X11059146Y7808102D01*
X11050600Y7776209D01*
Y7743191D01*
X11059146Y7711298D01*
X11075655Y7682703D01*
X11099003Y7659355D01*
X11124613Y7644569D01*
Y7544631D01*
X11099003Y7529845D01*
X11075655Y7506497D01*
X11059146Y7477902D01*
X11050600Y7446009D01*
Y7412991D01*
X11059146Y7381098D01*
X11075655Y7352503D01*
X11099003Y7329155D01*
X11124613Y7314369D01*
Y7045884D01*
X11074613Y7025173D01*
X11072547Y7027240D01*
X11049653Y7040458D01*
X11024117Y7047300D01*
X10997682D01*
X10972146Y7040458D01*
X10949252Y7027240D01*
X10930560Y7008547D01*
X10917342Y6985653D01*
X10910500Y6960118D01*
Y6933682D01*
X10917342Y6908147D01*
X10930560Y6885253D01*
X10949252Y6866560D01*
X10972146Y6853342D01*
X10997682Y6846500D01*
X11024117D01*
X11049653Y6853342D01*
X11072547Y6866560D01*
X11091239Y6885253D01*
X11104457Y6908147D01*
X11111299Y6933682D01*
X11161299Y6952886D01*
X11570322Y6543864D01*
X11577816Y6514959D01*
X11565659Y6491422D01*
X11565042Y6490353D01*
X11558200Y6464818D01*
Y6438382D01*
X11565042Y6412847D01*
X11578260Y6389953D01*
X11596953Y6371260D01*
X11619847Y6358042D01*
X11645382Y6351200D01*
X11671818D01*
X11697353Y6358042D01*
X11720247Y6371260D01*
X11738940Y6389953D01*
X11744528Y6399631D01*
X11785985Y6411861D01*
X11803520Y6411349D01*
X11846717Y6368152D01*
Y6212095D01*
X11850629Y6192430D01*
X11861769Y6175759D01*
X12323266Y5714261D01*
X12320200Y5702818D01*
Y5676382D01*
X12327042Y5650847D01*
X12340260Y5627953D01*
X12333921Y5598936D01*
X12015591Y5280606D01*
X12004452Y5263935D01*
X12000540Y5244270D01*
Y4824715D01*
X11844105Y4668279D01*
X11788337Y4683222D01*
X11788154Y4683902D01*
X11771645Y4712497D01*
X11748298Y4735845D01*
X11722688Y4750631D01*
Y4863269D01*
X11748298Y4878055D01*
X11771645Y4901403D01*
X11788154Y4929998D01*
X11796700Y4961891D01*
Y4994909D01*
X11788154Y5026802D01*
X11771645Y5055397D01*
X11748298Y5078745D01*
X11722688Y5093531D01*
Y5193842D01*
X11718776Y5213507D01*
X11707636Y5230178D01*
X11652614Y5285200D01*
X11671818Y5335200D01*
X11697353Y5342042D01*
X11720247Y5355260D01*
X11738940Y5373953D01*
X11752158Y5396847D01*
X11759000Y5422382D01*
Y5448818D01*
X11752158Y5474353D01*
X11738940Y5497247D01*
X11720247Y5515940D01*
X11697353Y5529158D01*
X11671818Y5536000D01*
X11645382D01*
X11619847Y5529158D01*
X11596953Y5515940D01*
X11578260Y5497247D01*
X11565042Y5474353D01*
X11558200Y5448818D01*
X11508200Y5429614D01*
X11099178Y5838636D01*
X11091683Y5867541D01*
X11103840Y5891078D01*
X11104457Y5892147D01*
X11111299Y5917682D01*
Y5944118D01*
X11104457Y5969653D01*
X11091239Y5992547D01*
X11072547Y6011240D01*
X11049653Y6024458D01*
X11024117Y6031300D01*
X10997682D01*
X10972146Y6024458D01*
X10949252Y6011240D01*
X10930560Y5992547D01*
X10917342Y5969653D01*
X10910500Y5944118D01*
Y5917682D01*
X10914249Y5903687D01*
X10897116Y5870254D01*
X10881811Y5853687D01*
X10377988D01*
X10362683Y5870254D01*
X10345550Y5903687D01*
X10349299Y5917682D01*
Y5944118D01*
X10342457Y5969653D01*
X10329239Y5992547D01*
X10310547Y6011240D01*
X10287653Y6024458D01*
X10262117Y6031300D01*
X10235682D01*
X10210146Y6024458D01*
X10187252Y6011240D01*
X10168560Y5992547D01*
X10155342Y5969653D01*
X10148500Y5944118D01*
Y5917682D01*
X10152249Y5903687D01*
X10135116Y5870254D01*
X10119811Y5853687D01*
X9900062D01*
X9879351Y5903687D01*
X9979236Y6003572D01*
X9990375Y6020243D01*
X9994287Y6039908D01*
Y6228292D01*
X9990375Y6247957D01*
X9979236Y6264628D01*
X9695228Y6548636D01*
X9678557Y6559776D01*
X9658892Y6563687D01*
X9573545D01*
X9541746Y6595486D01*
X9525075Y6606626D01*
X9505410Y6610537D01*
X9340850D01*
Y6723861D01*
X9601200D01*
Y6692900D01*
X9676825D01*
X9684069Y6689899D01*
X9715500Y6685761D01*
X9746931Y6689899D01*
X9754175Y6692900D01*
X9829800D01*
Y6749760D01*
X10084656Y7004616D01*
X10114215Y6998311D01*
X10148500Y6960118D01*
Y6933682D01*
X10155342Y6908147D01*
X10168560Y6885253D01*
X10187252Y6866560D01*
X10210146Y6853342D01*
X10235682Y6846500D01*
X10262117D01*
X10287653Y6853342D01*
X10310547Y6866560D01*
X10329239Y6885253D01*
X10342457Y6908147D01*
X10349299Y6933682D01*
Y6960118D01*
X10344294Y6978801D01*
X10342458Y6985655D01*
X10360935Y7036369D01*
X10365907Y7040734D01*
X10386363Y7056430D01*
X10676216Y7346283D01*
X10695515Y7371434D01*
X10707647Y7400723D01*
X10711785Y7432153D01*
Y7757047D01*
X10707647Y7788477D01*
X10695515Y7817766D01*
X10676216Y7842917D01*
X10432263Y8086870D01*
X10407113Y8106169D01*
X10377824Y8118301D01*
X10346393Y8122439D01*
X9168700D01*
X9137269Y8118301D01*
X9107980Y8106169D01*
X9082829Y8086870D01*
X9016798Y8020839D01*
X7917993D01*
X7903209Y8024800D01*
X7870191D01*
X7838298Y8016254D01*
X7809703Y7999745D01*
X7786355Y7976397D01*
X7769846Y7947802D01*
X7761300Y7915909D01*
Y7882891D01*
X7769846Y7850998D01*
X7786355Y7822403D01*
X7809703Y7799055D01*
X7838298Y7782546D01*
X7870191Y7774000D01*
X7903209D01*
X7917993Y7777961D01*
X9067100D01*
X9098530Y7782099D01*
X9127819Y7794231D01*
X9152970Y7813530D01*
X9219001Y7879561D01*
X10147809D01*
X10163139Y7855963D01*
X10171535Y7829561D01*
X10159146Y7808102D01*
X10150600Y7776209D01*
Y7743191D01*
X10159146Y7711298D01*
X10175655Y7682703D01*
X10199003Y7659355D01*
X10227598Y7642846D01*
X10259491Y7634300D01*
X10292510D01*
X10324403Y7642846D01*
X10352998Y7659355D01*
X10376345Y7682703D01*
X10384634Y7697059D01*
X10436232Y7707887D01*
X10440186Y7707576D01*
X10468908Y7684075D01*
Y7505125D01*
X10440186Y7481624D01*
X10436232Y7481313D01*
X10384634Y7492141D01*
X10376345Y7506497D01*
X10352998Y7529845D01*
X10324403Y7546354D01*
X10292510Y7554900D01*
X10259491D01*
X10227598Y7546354D01*
X10199003Y7529845D01*
X10187745Y7518587D01*
X9359500D01*
X9339835Y7514676D01*
X9323164Y7503536D01*
X8696172Y6876545D01*
X8643872Y6890736D01*
X8631237Y6921241D01*
X8611136Y6947436D01*
X8604878Y6952238D01*
X8600433Y6964863D01*
X8599399Y7006753D01*
X8602251Y7014486D01*
X8608081Y7020317D01*
X8622293Y7044933D01*
X8629650Y7072388D01*
Y7100812D01*
X8622293Y7128267D01*
X8608081Y7152883D01*
X8587983Y7172981D01*
X8563367Y7187193D01*
X8535912Y7194550D01*
X8507488D01*
X8480033Y7187193D01*
X8455417Y7172981D01*
X8435319Y7152883D01*
X8421107Y7128267D01*
X8413750Y7100812D01*
Y7072388D01*
X8421107Y7044933D01*
X8427140Y7034482D01*
X8410462Y6994777D01*
X8400443Y6984482D01*
X8191502D01*
X8191500Y6984482D01*
X8158764Y6980172D01*
X8128259Y6967537D01*
X8108269Y6952198D01*
X7889882Y7170584D01*
Y7447996D01*
X7889882Y7447998D01*
X7885572Y7480733D01*
X7872937Y7511239D01*
X7852836Y7537434D01*
X7852835Y7537435D01*
X7620934Y7769337D01*
X7594739Y7789437D01*
X7564234Y7802073D01*
X7531498Y7806382D01*
X7531495Y7806382D01*
X7080328D01*
X7059617Y7856382D01*
X7394148Y8190913D01*
X10938815D01*
X11196126Y7933602D01*
D02*
G37*
G36*
X7371919Y7471670D02*
X7374413Y7416242D01*
X7353858Y7395687D01*
X7339324Y7370513D01*
X7331800Y7342434D01*
Y7313366D01*
X7339324Y7285287D01*
X7353858Y7260113D01*
X7374413Y7239558D01*
X7399587Y7225024D01*
X7427666Y7217500D01*
X7456734D01*
X7484813Y7225024D01*
X7509987Y7239558D01*
X7511613Y7241184D01*
X7561613Y7220473D01*
Y7022926D01*
X7511613Y6994444D01*
X7485848Y7009528D01*
X7482854Y7020702D01*
X7466345Y7049297D01*
X7442997Y7072645D01*
X7414402Y7089154D01*
X7384378Y7097199D01*
X7304207Y7177370D01*
X7279056Y7196669D01*
X7250914Y7208326D01*
X7223270Y7235970D01*
X7198119Y7255269D01*
X7184347Y7260974D01*
X7179380Y7291020D01*
X7181440Y7313595D01*
X7199047Y7323760D01*
X7217740Y7342453D01*
X7230958Y7365347D01*
X7237800Y7390882D01*
Y7417318D01*
X7234907Y7428113D01*
X7255575Y7466075D01*
X7268336Y7478113D01*
X7367986D01*
X7371919Y7471670D01*
D02*
G37*
G36*
X11327813Y7341647D02*
Y7239000D01*
X11331724Y7219335D01*
X11342864Y7202664D01*
X11497256Y7048271D01*
X11496864Y7047878D01*
X11485724Y7031207D01*
X11481813Y7011542D01*
Y6907658D01*
X11485724Y6887993D01*
X11496864Y6871322D01*
X11563543Y6804643D01*
X11558278Y6758891D01*
X11510842Y6748688D01*
X11227388Y7032143D01*
Y7314369D01*
X11252998Y7329155D01*
X11276345Y7352503D01*
X11277813Y7355044D01*
X11327813Y7341647D01*
D02*
G37*
G36*
X6885213Y6821614D02*
Y6812926D01*
X6889124Y6793261D01*
X6900264Y6776590D01*
X7017890Y6658964D01*
X7026671Y6653096D01*
X7037000Y6642768D01*
Y6628882D01*
X7043842Y6603347D01*
X7057060Y6580453D01*
X7075753Y6561760D01*
X7098647Y6548542D01*
X7124182Y6541700D01*
X7150618D01*
X7155257Y6524046D01*
X7124182Y6488500D01*
X7098647Y6481658D01*
X7075753Y6468440D01*
X7057060Y6449747D01*
X7043842Y6426853D01*
X7037000Y6401318D01*
Y6377883D01*
X7029725Y6371432D01*
X6991073Y6353100D01*
X6921336Y6422836D01*
X6904665Y6433976D01*
X6885000Y6437887D01*
X6758488D01*
X6743183Y6454454D01*
X6726050Y6487887D01*
X6729800Y6501882D01*
Y6528318D01*
X6722958Y6553853D01*
X6709740Y6576747D01*
X6691047Y6595440D01*
X6668153Y6608658D01*
X6642618Y6615500D01*
X6616182D01*
X6590647Y6608658D01*
X6567753Y6595440D01*
X6549060Y6576747D01*
X6535842Y6553853D01*
X6529000Y6528318D01*
Y6501882D01*
X6535842Y6476347D01*
X6536459Y6475278D01*
X6548616Y6451742D01*
X6541122Y6422836D01*
X6218981Y6100696D01*
X6172787Y6119830D01*
Y6380199D01*
X6173291Y6380583D01*
X6222787Y6397284D01*
X6231413Y6388658D01*
X6256587Y6374124D01*
X6284666Y6366600D01*
X6313734D01*
X6341813Y6374124D01*
X6366987Y6388658D01*
X6387542Y6409213D01*
X6402076Y6434387D01*
X6409600Y6462466D01*
Y6491534D01*
X6402076Y6519613D01*
X6387542Y6544787D01*
X6366987Y6565342D01*
X6341813Y6579876D01*
X6313734Y6587400D01*
X6311683D01*
X6290972Y6637400D01*
X6466680Y6813108D01*
X6486346Y6809637D01*
X6529000Y6782318D01*
Y6755882D01*
X6535842Y6730347D01*
X6549060Y6707453D01*
X6567753Y6688760D01*
X6590647Y6675542D01*
X6616182Y6668700D01*
X6642618D01*
X6668153Y6675542D01*
X6691047Y6688760D01*
X6709740Y6707453D01*
X6722958Y6730347D01*
X6729800Y6755882D01*
Y6782318D01*
X6726907Y6793113D01*
X6747575Y6831075D01*
X6760336Y6843113D01*
X6863715D01*
X6885213Y6821614D01*
D02*
G37*
G36*
X9125373Y7089690D02*
X9124950Y7088112D01*
Y7059688D01*
X9132307Y7032233D01*
X9141252Y7016739D01*
X9130454Y6985604D01*
X9116686Y6966739D01*
X9080500D01*
X9049069Y6962601D01*
X9019781Y6950469D01*
X8994630Y6931170D01*
X8838958Y6775498D01*
X8825703Y6767845D01*
X8802355Y6744497D01*
X8785846Y6715902D01*
X8777300Y6684009D01*
Y6650991D01*
X8785846Y6619098D01*
X8794685Y6603787D01*
X8779003Y6565283D01*
X8768360Y6553787D01*
X8669985D01*
X8629650Y6594122D01*
Y6664678D01*
X9080544Y7115571D01*
X9125373Y7089690D01*
D02*
G37*
G36*
X9124950Y6652682D02*
Y6508750D01*
X9083426Y6488287D01*
X9016473D01*
X8989614Y6515146D01*
X8980778Y6561486D01*
X8993233Y6580690D01*
X9003045Y6590503D01*
X9010698Y6603758D01*
X9078756Y6671816D01*
X9124950Y6652682D01*
D02*
G37*
G36*
X8413750Y6521450D02*
X8556978D01*
X8612364Y6466064D01*
X8629035Y6454924D01*
X8648700Y6451013D01*
X8790929D01*
X8811640Y6401013D01*
X8804375Y6393748D01*
X8787866Y6365153D01*
X8779320Y6333260D01*
Y6300242D01*
X8787866Y6268348D01*
X8804375Y6239754D01*
X8809747Y6234382D01*
X8789036Y6184382D01*
X8654684D01*
X8630027Y6234382D01*
X8631237Y6235959D01*
X8643872Y6266464D01*
X8648182Y6299200D01*
X8643872Y6331936D01*
X8631237Y6362441D01*
X8611136Y6388636D01*
X8584941Y6408737D01*
X8554436Y6421372D01*
X8521700Y6425682D01*
X8255866D01*
X8241782Y6438033D01*
Y6729409D01*
X8243891Y6731518D01*
X8413750D01*
Y6521450D01*
D02*
G37*
G36*
X9588106Y6083487D02*
X9567395Y6033487D01*
X9406599D01*
X9375297Y6049672D01*
X9356645Y6078688D01*
X9355072Y6090636D01*
X9347044Y6110018D01*
X9361824Y6143848D01*
X9375629Y6160018D01*
X9511575D01*
X9588106Y6083487D01*
D02*
G37*
G36*
X12037354Y6508174D02*
X12054025Y6497035D01*
X12073690Y6493123D01*
X12115111D01*
X12118413Y6493780D01*
X12159661Y6469173D01*
X12168413Y6459375D01*
Y6144400D01*
X12172324Y6124735D01*
X12183464Y6108064D01*
X12312077Y5979451D01*
X12312602Y5946917D01*
X12311204Y5940151D01*
X12261589Y5921284D01*
X11949492Y6233380D01*
Y6389438D01*
X11945580Y6409103D01*
X11934441Y6425774D01*
X11762956Y6597259D01*
X11738940Y6643953D01*
X11752158Y6666847D01*
X11759000Y6692382D01*
Y6715817D01*
X11766275Y6722268D01*
X11804927Y6740600D01*
X12037354Y6508174D01*
D02*
G37*
G36*
X9608207Y5884519D02*
X9556575Y5832887D01*
X9462470D01*
X9442805Y5828976D01*
X9426134Y5817836D01*
X9390850Y5782553D01*
X9340850Y5803263D01*
Y5864578D01*
X9406986Y5930713D01*
X9589072D01*
X9608207Y5884519D01*
D02*
G37*
G36*
X9124950Y5747737D02*
X9051899D01*
X8921300Y5878336D01*
X8916688Y5881418D01*
X8930552Y5931418D01*
X9124950D01*
Y5747737D01*
D02*
G37*
G36*
X7040066Y6158761D02*
X7037000Y6147318D01*
Y6120882D01*
X7043842Y6095347D01*
X7057060Y6072453D01*
X7075753Y6053760D01*
X7085385Y6048199D01*
X7095501Y6021513D01*
X7090453Y5990974D01*
X7076681Y5985269D01*
X7051530Y5965970D01*
X7032231Y5940819D01*
X7020099Y5911531D01*
X7015961Y5880100D01*
X7020099Y5848669D01*
X7032231Y5819381D01*
X7051530Y5794230D01*
X7074636Y5776500D01*
X7075069Y5771479D01*
X7058841Y5726500D01*
X7037000D01*
Y5643224D01*
X6990806Y5624090D01*
X6896416Y5718480D01*
Y6045471D01*
X6892505Y6065136D01*
X6881365Y6081807D01*
X6726734Y6236439D01*
X6729800Y6247882D01*
Y6274318D01*
X6726907Y6285113D01*
X6747575Y6323075D01*
X6760336Y6335113D01*
X6863715D01*
X7040066Y6158761D01*
D02*
G37*
G36*
X10892725Y5738875D02*
X10913392Y5700913D01*
X10910500Y5690118D01*
Y5663682D01*
X10914249Y5649687D01*
X10897116Y5616254D01*
X10881811Y5599687D01*
X10398785D01*
X10346233Y5652239D01*
X10349299Y5663682D01*
Y5690118D01*
X10346407Y5700913D01*
X10367074Y5738875D01*
X10379835Y5750913D01*
X10879964D01*
X10892725Y5738875D01*
D02*
G37*
G36*
X7323335Y5837291D02*
X7344500Y5822412D01*
Y5802066D01*
X7352024Y5773987D01*
X7366558Y5748813D01*
X7387113Y5728258D01*
X7412287Y5713724D01*
X7431967Y5708450D01*
X7445076Y5682791D01*
X7450428Y5656200D01*
X7346315Y5552087D01*
X7237800D01*
Y5726500D01*
X7237800D01*
X7222068Y5771479D01*
X7222501Y5776500D01*
X7245607Y5794230D01*
X7296479Y5845102D01*
X7323335Y5837291D01*
D02*
G37*
G36*
X10038569Y5743714D02*
X10051709Y5700913D01*
X9897025Y5546229D01*
X9847025Y5566940D01*
Y5626100D01*
X9842544Y5660141D01*
X9829800Y5690907D01*
Y5740400D01*
X9875446Y5750913D01*
X10033163D01*
X10038569Y5743714D01*
D02*
G37*
G36*
X10167386Y5617286D02*
X10168560Y5615253D01*
X10187252Y5596560D01*
X10210146Y5583342D01*
X10232742Y5577288D01*
X10236260Y5575600D01*
X10237736Y5573300D01*
X10210419Y5523300D01*
X10148500D01*
Y5474287D01*
X10041139D01*
X10020428Y5524287D01*
X10117275Y5621134D01*
X10167386Y5617286D01*
D02*
G37*
G36*
X6808693Y5660858D02*
X6959069Y5510482D01*
X6938358Y5460482D01*
X6798948D01*
X6755882Y5503548D01*
Y5650243D01*
X6805882Y5665065D01*
X6808693Y5660858D01*
D02*
G37*
G36*
X11155820Y5382649D02*
X11284535Y5253935D01*
Y4758181D01*
X11288446Y4738516D01*
X11299586Y4721845D01*
X11514149Y4507281D01*
X11495015Y4461087D01*
X11239284D01*
X10815539Y4884832D01*
X10818866Y4910100D01*
X10815415Y4936310D01*
X10805299Y4960733D01*
X10789206Y4981706D01*
X10768233Y4997799D01*
X10743809Y5007916D01*
X10739823Y5008440D01*
X10720728Y5059913D01*
X10720738Y5060066D01*
X10986238Y5325566D01*
X10997682Y5322500D01*
X11024117D01*
X11049653Y5329342D01*
X11072547Y5342560D01*
X11091239Y5361253D01*
X11096827Y5370931D01*
X11138284Y5383161D01*
X11155820Y5382649D01*
D02*
G37*
G36*
X10892725Y5484875D02*
X10913392Y5446913D01*
X10910500Y5436118D01*
Y5409682D01*
X10913566Y5398239D01*
X10606263Y5090936D01*
X10595124Y5074265D01*
X10591212Y5054600D01*
Y5011366D01*
X10567599D01*
X10541390Y5007916D01*
X10516966Y4997799D01*
X10495993Y4981706D01*
X10487193Y4970237D01*
X9957711D01*
X9954399Y4978233D01*
X9938306Y4999206D01*
X9917333Y5015299D01*
X9892909Y5025416D01*
X9866700Y5028866D01*
X9746518D01*
X9725807Y5078866D01*
X10018454Y5371513D01*
X10148500D01*
Y5322500D01*
X10349299D01*
Y5451543D01*
X10377500Y5496913D01*
X10879964D01*
X10892725Y5484875D01*
D02*
G37*
G36*
X7988818Y6713903D02*
Y6178152D01*
X7988300Y6176220D01*
Y6142780D01*
X7996955Y6110480D01*
X8013675Y6081520D01*
X8037320Y6057875D01*
X8066280Y6041155D01*
X8098580Y6032500D01*
X8120174D01*
X8138860Y6002212D01*
X8142865Y5984480D01*
X8025864Y5867479D01*
X8005763Y5841283D01*
X7993128Y5810778D01*
X7988818Y5778042D01*
X7988818Y5778040D01*
Y5651500D01*
Y5124025D01*
X7892755D01*
X7882120Y5122625D01*
X6755842D01*
X6717564Y5160904D01*
X6740918Y5208260D01*
X6746558Y5207518D01*
X6746560Y5207518D01*
X7413596D01*
X7413598Y5207518D01*
X7446334Y5211828D01*
X7476838Y5224463D01*
X7503034Y5244564D01*
X7852835Y5594365D01*
X7852836Y5594366D01*
X7872937Y5620561D01*
X7885572Y5651066D01*
X7889882Y5683802D01*
X7889882Y5683804D01*
Y6747510D01*
X7936076Y6766645D01*
X7988818Y6713903D01*
D02*
G37*
G36*
X8413750Y5832291D02*
Y5734050D01*
X8629650D01*
Y5790613D01*
X8863678D01*
X8994277Y5660014D01*
X9010948Y5648874D01*
X9030613Y5644963D01*
X9377320D01*
X9396985Y5648874D01*
X9413656Y5660014D01*
X9483755Y5730113D01*
X9575077D01*
X9583767Y5716321D01*
X9597981Y5683135D01*
X9588456Y5660141D01*
X9583975Y5626100D01*
Y5566279D01*
X9160920Y5143225D01*
X8241782D01*
Y5651500D01*
Y5725651D01*
X8367556Y5851425D01*
X8413750Y5832291D01*
D02*
G37*
G36*
X12693093Y7522994D02*
X12714066Y7506901D01*
X12738490Y7496784D01*
X12764699Y7493334D01*
X12788312D01*
Y4682185D01*
X12746700Y4640573D01*
X12717747Y4647195D01*
X12694740Y4659324D01*
X12688154Y4683902D01*
X12671645Y4712497D01*
X12648298Y4735845D01*
X12619703Y4752354D01*
X12587809Y4760900D01*
X12554791D01*
X12522898Y4752354D01*
X12494303Y4735845D01*
X12470955Y4712497D01*
X12454446Y4683902D01*
X12445900Y4652009D01*
Y4618991D01*
X12454446Y4587098D01*
X12470955Y4558503D01*
X12494303Y4535155D01*
X12522897Y4518646D01*
X12529465Y4465122D01*
X12527839Y4461087D01*
X11847586D01*
X11828452Y4507281D01*
X12088264Y4767094D01*
X12099403Y4783765D01*
X12103315Y4803430D01*
Y5222985D01*
X12275680Y5395349D01*
X12293215Y5395861D01*
X12334672Y5383631D01*
X12340260Y5373953D01*
X12358953Y5355260D01*
X12381847Y5342042D01*
X12407382Y5335200D01*
X12433818D01*
X12459353Y5342042D01*
X12469913Y5348139D01*
X12506995Y5333548D01*
X12519913Y5322215D01*
Y5093531D01*
X12494303Y5078745D01*
X12470955Y5055397D01*
X12454446Y5026802D01*
X12445900Y4994909D01*
Y4961891D01*
X12454446Y4929998D01*
X12470955Y4901403D01*
X12494303Y4878055D01*
X12522898Y4861546D01*
X12554791Y4853000D01*
X12587809D01*
X12619703Y4861546D01*
X12648298Y4878055D01*
X12671645Y4901403D01*
X12688154Y4929998D01*
X12696700Y4961891D01*
Y4994909D01*
X12688154Y5026802D01*
X12671645Y5055397D01*
X12648298Y5078745D01*
X12622687Y5093531D01*
Y5535041D01*
X12657736Y5570090D01*
X12668876Y5586761D01*
X12672787Y5606426D01*
Y5772774D01*
X12668876Y5792439D01*
X12657736Y5809110D01*
X12622687Y5844159D01*
Y6300900D01*
X12618776Y6320565D01*
X12607636Y6337236D01*
X12517934Y6426939D01*
X12521000Y6438382D01*
Y6464818D01*
X12514158Y6490353D01*
X12500940Y6513247D01*
X12507279Y6542264D01*
X12582336Y6617322D01*
X12593476Y6633993D01*
X12597387Y6653658D01*
Y7055476D01*
X12593476Y7075142D01*
X12582336Y7091813D01*
X12552813Y7121336D01*
X12536142Y7132476D01*
X12516476Y7136387D01*
X12324724D01*
X12305058Y7132476D01*
X12288387Y7121336D01*
X12108064Y6941013D01*
X12096924Y6924342D01*
X12093013Y6904677D01*
Y6663188D01*
X12046819Y6644054D01*
X11804318Y6886555D01*
X11787647Y6897694D01*
X11759000Y6946382D01*
Y6972818D01*
X11755934Y6984261D01*
X12025136Y7253463D01*
X12036275Y7270134D01*
X12040187Y7289799D01*
Y7480634D01*
X12063800D01*
X12090009Y7484084D01*
X12114433Y7494201D01*
X12135406Y7510294D01*
X12151499Y7531267D01*
X12153817Y7536863D01*
X12682451D01*
X12693093Y7522994D01*
D02*
G37*
G36*
X11619913Y5172556D02*
Y5093531D01*
X11594303Y5078745D01*
X11570955Y5055397D01*
X11554446Y5026802D01*
X11545900Y4994909D01*
Y4961891D01*
X11554446Y4929998D01*
X11570955Y4901403D01*
X11594303Y4878055D01*
X11619913Y4863269D01*
Y4750631D01*
X11594303Y4735845D01*
X11570955Y4712497D01*
X11554446Y4683902D01*
X11554264Y4683222D01*
X11498496Y4668279D01*
X11387309Y4779466D01*
Y5275220D01*
X11383398Y5294885D01*
X11372258Y5311556D01*
X11105957Y5577857D01*
X11111221Y5623609D01*
X11158657Y5633812D01*
X11619913Y5172556D01*
D02*
G37*
G36*
X8778100Y4637687D02*
X8303399D01*
Y4785713D01*
X8778100D01*
Y4637687D01*
D02*
G37*
G36*
X7952600D02*
X6801047D01*
X6700616Y4738119D01*
X6719750Y4784313D01*
X7952600D01*
Y4637687D01*
D02*
G37*
%LPC*%
G36*
X8132020Y7416800D02*
X8098580D01*
X8066280Y7408145D01*
X8037320Y7391425D01*
X8013675Y7367780D01*
X7996955Y7338820D01*
X7988300Y7306520D01*
Y7273080D01*
X7996955Y7240780D01*
X8013675Y7211820D01*
X8037320Y7188175D01*
X8066280Y7171455D01*
X8098580Y7162800D01*
X8132020D01*
X8164320Y7171455D01*
X8193280Y7188175D01*
X8216925Y7211820D01*
X8233645Y7240780D01*
X8242300Y7273080D01*
Y7306520D01*
X8233645Y7338820D01*
X8216925Y7367780D01*
X8193280Y7391425D01*
X8164320Y7408145D01*
X8132020Y7416800D01*
D02*
G37*
G36*
X11024117Y6793300D02*
X10997682D01*
X10972146Y6786458D01*
X10949252Y6773240D01*
X10930560Y6754547D01*
X10917342Y6731653D01*
X10910500Y6706118D01*
Y6679682D01*
X10917342Y6654147D01*
X10930560Y6631253D01*
X10949252Y6612560D01*
X10972146Y6599342D01*
X10997682Y6592500D01*
X11024117D01*
X11049653Y6599342D01*
X11072547Y6612560D01*
X11091239Y6631253D01*
X11104457Y6654147D01*
X11111299Y6679682D01*
Y6706118D01*
X11104457Y6731653D01*
X11091239Y6754547D01*
X11072547Y6773240D01*
X11049653Y6786458D01*
X11024117Y6793300D01*
D02*
G37*
G36*
X10262117D02*
X10235682D01*
X10210146Y6786458D01*
X10187252Y6773240D01*
X10168560Y6754547D01*
X10155342Y6731653D01*
X10148500Y6706118D01*
Y6679682D01*
X10155342Y6654147D01*
X10168560Y6631253D01*
X10187252Y6612560D01*
X10210146Y6599342D01*
X10235682Y6592500D01*
X10262117D01*
X10287653Y6599342D01*
X10310547Y6612560D01*
X10329239Y6631253D01*
X10342457Y6654147D01*
X10349299Y6679682D01*
Y6706118D01*
X10342457Y6731653D01*
X10329239Y6754547D01*
X10310547Y6773240D01*
X10287653Y6786458D01*
X10262117Y6793300D01*
D02*
G37*
G36*
X11024117Y6539300D02*
X10997682D01*
X10972146Y6532458D01*
X10949252Y6519240D01*
X10930560Y6500547D01*
X10917342Y6477653D01*
X10910500Y6452118D01*
Y6425682D01*
X10917342Y6400147D01*
X10930560Y6377253D01*
X10949252Y6358560D01*
X10972146Y6345342D01*
X10997682Y6338500D01*
X11024117D01*
X11049653Y6345342D01*
X11072547Y6358560D01*
X11091239Y6377253D01*
X11104457Y6400147D01*
X11111299Y6425682D01*
Y6452118D01*
X11104457Y6477653D01*
X11091239Y6500547D01*
X11072547Y6519240D01*
X11049653Y6532458D01*
X11024117Y6539300D01*
D02*
G37*
G36*
X10262117D02*
X10235682D01*
X10210146Y6532458D01*
X10187252Y6519240D01*
X10168560Y6500547D01*
X10155342Y6477653D01*
X10148500Y6452118D01*
Y6425682D01*
X10155342Y6400147D01*
X10168560Y6377253D01*
X10187252Y6358560D01*
X10210146Y6345342D01*
X10235682Y6338500D01*
X10262117D01*
X10287653Y6345342D01*
X10310547Y6358560D01*
X10329239Y6377253D01*
X10342457Y6400147D01*
X10349299Y6425682D01*
Y6452118D01*
X10342457Y6477653D01*
X10329239Y6500547D01*
X10310547Y6519240D01*
X10287653Y6532458D01*
X10262117Y6539300D01*
D02*
G37*
G36*
X11671818Y6298000D02*
X11645382D01*
X11619847Y6291158D01*
X11596953Y6277940D01*
X11578260Y6259247D01*
X11565042Y6236353D01*
X11558200Y6210818D01*
Y6184382D01*
X11565042Y6158847D01*
X11578260Y6135953D01*
X11596953Y6117260D01*
X11619847Y6104042D01*
X11645382Y6097200D01*
X11671818D01*
X11697353Y6104042D01*
X11720247Y6117260D01*
X11738940Y6135953D01*
X11752158Y6158847D01*
X11759000Y6184382D01*
Y6210818D01*
X11752158Y6236353D01*
X11738940Y6259247D01*
X11720247Y6277940D01*
X11697353Y6291158D01*
X11671818Y6298000D01*
D02*
G37*
G36*
X11024117Y6285300D02*
X10997682D01*
X10972146Y6278458D01*
X10949252Y6265240D01*
X10930560Y6246547D01*
X10917342Y6223653D01*
X10910500Y6198118D01*
Y6171682D01*
X10917342Y6146147D01*
X10930560Y6123253D01*
X10949252Y6104560D01*
X10972146Y6091342D01*
X10997682Y6084500D01*
X11024117D01*
X11049653Y6091342D01*
X11072547Y6104560D01*
X11091239Y6123253D01*
X11104457Y6146147D01*
X11111299Y6171682D01*
Y6198118D01*
X11104457Y6223653D01*
X11091239Y6246547D01*
X11072547Y6265240D01*
X11049653Y6278458D01*
X11024117Y6285300D01*
D02*
G37*
G36*
X10262117D02*
X10235682D01*
X10210146Y6278458D01*
X10187252Y6265240D01*
X10168560Y6246547D01*
X10155342Y6223653D01*
X10148500Y6198118D01*
Y6171682D01*
X10155342Y6146147D01*
X10168560Y6123253D01*
X10187252Y6104560D01*
X10210146Y6091342D01*
X10235682Y6084500D01*
X10262117D01*
X10287653Y6091342D01*
X10310547Y6104560D01*
X10329239Y6123253D01*
X10342457Y6146147D01*
X10349299Y6171682D01*
Y6198118D01*
X10342457Y6223653D01*
X10329239Y6246547D01*
X10310547Y6265240D01*
X10287653Y6278458D01*
X10262117Y6285300D01*
D02*
G37*
G36*
X11671818Y6044000D02*
X11645382D01*
X11619847Y6037158D01*
X11596953Y6023940D01*
X11578260Y6005247D01*
X11565042Y5982353D01*
X11558200Y5956818D01*
Y5930382D01*
X11565042Y5904847D01*
X11578260Y5881953D01*
X11596953Y5863260D01*
X11619847Y5850042D01*
X11645382Y5843200D01*
X11671818D01*
X11697353Y5850042D01*
X11720247Y5863260D01*
X11738940Y5881953D01*
X11752158Y5904847D01*
X11759000Y5930382D01*
Y5956818D01*
X11752158Y5982353D01*
X11738940Y6005247D01*
X11720247Y6023940D01*
X11697353Y6037158D01*
X11671818Y6044000D01*
D02*
G37*
G36*
Y5790000D02*
X11645382D01*
X11619847Y5783158D01*
X11596953Y5769940D01*
X11578260Y5751247D01*
X11565042Y5728353D01*
X11558200Y5702818D01*
Y5676382D01*
X11565042Y5650847D01*
X11578260Y5627953D01*
X11596953Y5609260D01*
X11619847Y5596042D01*
X11645382Y5589200D01*
X11671818D01*
X11697353Y5596042D01*
X11720247Y5609260D01*
X11738940Y5627953D01*
X11752158Y5650847D01*
X11759000Y5676382D01*
Y5702818D01*
X11752158Y5728353D01*
X11738940Y5751247D01*
X11720247Y5769940D01*
X11697353Y5783158D01*
X11671818Y5790000D01*
D02*
G37*
%LPD*%
D10*
X6475400Y6894500D02*
X6885000D01*
X6121400Y6540500D02*
X6475400Y6894500D01*
X6121400Y6003966D02*
Y6540500D01*
X7085458Y7529500D02*
X7469200D01*
X7613000Y5746100D02*
Y7385700D01*
X7469200Y7529500D02*
X7613000Y7385700D01*
X7367600Y5500700D02*
X7613000Y5746100D01*
X7041524Y5500700D02*
X7367600D01*
X6992000Y7041500D02*
Y7436042D01*
X7085458Y7529500D01*
X6992000Y7041500D02*
X7137400Y6896100D01*
X12588500Y4409700D02*
X12839699Y4660899D01*
Y7594600D01*
X11217999Y4409700D02*
X12588500D01*
X8521700Y6629400D02*
X8648700Y6502400D01*
X8929688D02*
X8995188Y6436900D01*
X8648700Y6502400D02*
X8929688D01*
X8995188Y6436900D02*
X9627660D01*
X6602340Y6261100D02*
X6629400D01*
X6565076Y6223836D02*
X6602340Y6261100D01*
X6196800Y5866103D02*
X6554532Y6223836D01*
X6565076D01*
X10247430Y5675431D02*
X10248899Y5676900D01*
X10098900Y5675431D02*
X10247430D01*
X9260569Y4837100D02*
X10098900Y5675431D01*
X7957123Y4837100D02*
X9260569D01*
X7955723Y4835700D02*
X7957123Y4837100D01*
X6636993Y4835700D02*
X7955723D01*
X6196800Y5275893D02*
X6636993Y4835700D01*
X6196800Y5275893D02*
Y5866103D01*
X9191800Y4510900D02*
X9518000Y4837100D01*
X6046000Y5928567D02*
X6121400Y6003966D01*
X9160568Y4586300D02*
X9997168Y5422900D01*
X6121400Y5244662D02*
X6779762Y4586300D01*
X6046000Y5213430D02*
X6748530Y4510900D01*
X9997168Y5422900D02*
X10248899D01*
X9518000Y4837100D02*
X9599140D01*
X6779762Y4586300D02*
X9160568D01*
X6046000Y5213430D02*
Y5928567D01*
X6121400Y5244662D02*
Y5897335D01*
X6748530Y4510900D02*
X9191800D01*
X6196800Y5972735D02*
Y6005842D01*
X6121400Y5897335D02*
X6196800Y5972735D01*
X9599140Y4837100D02*
X9689640Y4927600D01*
X9791699D01*
X6196800Y6005842D02*
X6577458Y6386500D01*
X6885000D02*
X7137400Y6134100D01*
X6479000Y7348437D02*
X7372863Y8242300D01*
X6479000Y7173500D02*
Y7348437D01*
X7372863Y8242300D02*
X10960100D01*
X11379200Y7823200D01*
X8521700Y6629400D02*
X9359500Y7467200D01*
X10197711D02*
X10235411Y7429500D01*
X10276000D01*
X9359500Y7467200D02*
X10197711D01*
X11379200Y7239000D02*
Y7823200D01*
X10642599Y4910100D02*
X10717599D01*
X11217999Y4409700D01*
X11609003Y4485100D02*
X11733598D01*
X12051928Y4803430D01*
X11335922Y4758181D02*
X11609003Y4485100D01*
X11549218Y7027561D02*
Y7068982D01*
X12546000Y6653658D02*
Y7055476D01*
X11767982Y6850218D02*
X12073690Y6544510D01*
X12144400Y6573800D02*
Y6904677D01*
X12073690Y6544510D02*
X12115111D01*
X11726561Y6850218D02*
X11767982D01*
X11710542Y6834200D02*
X11726561Y6850218D01*
X12516476Y7085000D02*
X12546000Y7055476D01*
X11533200Y7011542D02*
X11549218Y7027561D01*
X12370258Y6578600D02*
X12470942D01*
X11533200Y6907658D02*
X11606658Y6834200D01*
X12324724Y7085000D02*
X12516476D01*
X12115111Y6544510D02*
X12144400Y6573800D01*
X11707342Y6580200D02*
X11898105Y6389438D01*
X11176000Y7010857D02*
Y7429500D01*
X12144400Y6904677D02*
X12324724Y7085000D01*
X11176000Y7010857D02*
X11606658Y6580200D01*
X11707342D01*
X12295200Y6323000D02*
X12420600Y6197600D01*
X11379200Y7239000D02*
X11549218Y7068982D01*
X12295200Y6503542D02*
X12370258Y6578600D01*
X12470942D02*
X12546000Y6653658D01*
X11533200Y6907658D02*
Y7011542D01*
X11606658Y6834200D02*
X11710542D01*
X11898105Y6212095D02*
Y6389438D01*
X12295200Y6323000D02*
Y6503542D01*
X10248899Y5676900D02*
X10377499Y5548300D01*
X11062842D01*
X11335922Y5275220D01*
Y4758181D02*
Y5275220D01*
X12051928Y4803430D02*
Y5244270D01*
X12370258Y5562600D01*
X12470942D01*
X12546000Y5637658D01*
Y5741542D01*
X12495900Y5791642D02*
X12546000Y5741542D01*
X12495900Y5791642D02*
Y5841240D01*
X12420600Y5916540D02*
X12495900Y5841240D01*
X12420600Y5916540D02*
Y5943600D01*
X12571300Y5556326D02*
X12621400Y5606426D01*
X12571300Y5822874D02*
Y6300900D01*
Y5822874D02*
X12621400Y5772774D01*
X12571300Y4978400D02*
Y5556326D01*
X12621400Y5606426D02*
Y5772774D01*
X11062842Y5802300D02*
X11671300Y5193842D01*
Y4635500D02*
Y5193842D01*
X9598660Y5802300D02*
X11062842D01*
X12219800Y6144400D02*
X12420600Y5943600D01*
X12219800Y6144400D02*
Y6758800D01*
X12420600Y6959600D01*
Y6705600D02*
Y6959600D01*
X6479000Y7173500D02*
X6629400Y7023100D01*
X12420600Y6451600D02*
X12571300Y6300900D01*
X7137400Y6134100D02*
X7262800Y6259500D01*
Y6694042D01*
X7186142Y6770700D02*
X7262800Y6694042D01*
X7085458Y6770700D02*
X7186142D01*
X7012000Y6844158D02*
X7085458Y6770700D01*
X7012000Y6844158D02*
Y6874132D01*
X6863031Y7023100D02*
X7012000Y6874132D01*
X6629400Y7023100D02*
X6863031D01*
X7110340Y6642100D02*
X7137400D01*
X7057140Y6695300D02*
X7110340Y6642100D01*
X7054226Y6695300D02*
X7057140D01*
X6936600Y6812926D02*
Y6842900D01*
X6885000Y6894500D02*
X6936600Y6842900D01*
Y6812926D02*
X7054226Y6695300D01*
X7137400Y6896100D02*
Y6896100D01*
X6845029Y5697195D02*
X7041524Y5500700D01*
X6845029Y5697195D02*
Y6045471D01*
X6629400Y6261100D02*
X6845029Y6045471D01*
X6577458Y6386500D02*
X6885000D01*
X9598660Y5802300D02*
X9703060Y5906700D01*
X9577860Y5781500D02*
X9598660Y5802300D01*
X9462470Y5781500D02*
X9577860D01*
X10642599Y5054600D02*
X11010899Y5422900D01*
X10642599Y4910100D02*
Y5054600D01*
X9627660Y6436900D02*
X9867500Y6197060D01*
Y6071140D02*
Y6197060D01*
X9778460Y5982100D02*
X9867500Y6071140D01*
X9385700Y5982100D02*
X9778460D01*
X10633849Y4918850D02*
X10642599Y4910100D01*
X9800450Y4918850D02*
X10633849D01*
X9791699Y4927600D02*
X9800450Y4918850D01*
X12833350Y7588250D02*
X12839699Y7594600D01*
X11995149Y7588250D02*
X12833350D01*
X11988799Y7581900D02*
X11995149Y7588250D01*
X11658600Y6959600D02*
X11988799Y7289799D01*
Y7581900D01*
X11176000Y7429500D02*
Y7759700D01*
X11898105Y6212095D02*
X12420600Y5689600D01*
X9377320Y5696350D02*
X9462470Y5781500D01*
X9030613Y5696350D02*
X9377320D01*
X8884963Y5842000D02*
X9030613Y5696350D01*
X8521700Y5842000D02*
X8884963D01*
X9232900Y5829300D02*
X9385700Y5982100D01*
X9552260Y6512300D02*
X9658892D01*
X9809692Y5906700D02*
X9942900Y6039908D01*
Y6228292D01*
X9703060Y5906700D02*
X9809692D01*
X9658892Y6512300D02*
X9942900Y6228292D01*
X9505410Y6559150D02*
X9552260Y6512300D01*
X9232900Y6616700D02*
X9290450Y6559150D01*
X9505410D01*
D11*
X7763400Y7118193D02*
Y7447998D01*
X7023160Y7679900D02*
X7531498D01*
X7763400Y7447998D01*
Y5683802D02*
Y7118193D01*
X7413598Y5334000D02*
X7763400Y5683802D01*
X6746558Y5334000D02*
X7413598D01*
X7763400Y7118193D02*
X8099793Y6781800D01*
X8115300D01*
X8255866Y6299200D02*
X8521700D01*
X8116166Y6159500D02*
X8255866Y6299200D01*
X8115300Y6159500D02*
X8116166D01*
X8407858Y6070600D02*
X8521700D01*
X8115300Y5651500D02*
Y5778042D01*
Y5024399D02*
Y5651500D01*
Y5778042D02*
X8407858Y6070600D01*
X8115300Y6159500D02*
Y6781800D01*
X8191500Y6858000D01*
X8521700D01*
X6629400Y7286140D02*
X7023160Y7679900D01*
X6629400Y7277100D02*
Y7286140D01*
Y5451158D02*
Y5753100D01*
Y5451158D02*
X6746558Y5334000D01*
X9563966Y6286500D02*
X9715500Y6134966D01*
Y6134100D02*
Y6134966D01*
X9232900Y6286500D02*
X9563966D01*
X8521700Y6070600D02*
X8534400Y6057900D01*
X9232900D01*
X8115300Y5024399D02*
X8127999Y5011700D01*
D12*
X9067100Y7899400D02*
X9168700Y8001000D01*
X7886700Y7899400D02*
X9067100D01*
X9168700Y8001000D02*
X10346393D01*
X8904720Y6316751D02*
X8907426D01*
X8937677Y6286500D01*
X9232900D01*
X8902700Y6667500D02*
X9080500Y6845300D01*
X9232900D01*
X7218337Y7091500D02*
X7467600Y6842237D01*
X10346393Y8001000D02*
X10590346Y7757047D01*
Y7432153D02*
Y7757047D01*
X10300493Y7142300D02*
X10590346Y7432153D01*
X10050600Y7142300D02*
X10300493D01*
X9715500Y6807200D02*
X10050600Y7142300D01*
X9677400Y6845300D02*
X9715500Y6807200D01*
X9232900Y6845300D02*
X9677400D01*
X7159737Y5880100D02*
X7467600Y6187963D01*
Y6842237D01*
X7137400Y5880100D02*
X7159737D01*
X7137400Y7150100D02*
X7196000Y7091500D01*
X7218337D01*
D13*
X6701362Y4991100D02*
X7891355D01*
X7892755Y4992500D02*
X8108800D01*
X8127999Y5011700D01*
X6480165Y5212297D02*
X6701362Y4991100D01*
X7891355D02*
X7892755Y4992500D01*
X6352200Y5801735D02*
X6557565Y6007100D01*
X6352200Y5340262D02*
Y5801735D01*
X6480165Y5212297D02*
X6480165D01*
X6352200Y5340262D02*
X6480165Y5212297D01*
X8953499Y5011700D02*
X9215400D01*
X9715500Y5511800D01*
Y5626100D01*
X6557565Y6007100D02*
X6629400D01*
X8127999Y5011700D02*
X8953499D01*
D14*
X7061200Y4330634D02*
Y4178283D01*
Y4254459D01*
X7162767D01*
Y4330634D01*
Y4178283D01*
X7213551Y4254459D02*
X7315118D01*
X7365901Y4330634D02*
Y4178283D01*
X7442077D01*
X7467469Y4203675D01*
Y4229067D01*
X7442077Y4254459D01*
X7365901D01*
X7442077D01*
X7467469Y4279851D01*
Y4305242D01*
X7442077Y4330634D01*
X7365901D01*
X7518252Y4279851D02*
Y4178283D01*
Y4229067D01*
X7543644Y4254459D01*
X7569036Y4279851D01*
X7594428D01*
X7670603Y4178283D02*
X7721386D01*
X7695995D01*
Y4279851D01*
X7670603D01*
X7899129Y4330634D02*
Y4178283D01*
X7822954D01*
X7797562Y4203675D01*
Y4254459D01*
X7822954Y4279851D01*
X7899129D01*
X8000696Y4127500D02*
X8026088D01*
X8051480Y4152892D01*
Y4279851D01*
X7975304D01*
X7949912Y4254459D01*
Y4203675D01*
X7975304Y4178283D01*
X8051480D01*
X8178439D02*
X8127655D01*
X8102263Y4203675D01*
Y4254459D01*
X8127655Y4279851D01*
X8178439D01*
X8203830Y4254459D01*
Y4229067D01*
X8102263D01*
X8406965Y4178283D02*
X8457748D01*
X8432357D01*
Y4330634D01*
X8406965Y4305242D01*
X8533923Y4178283D02*
Y4203675D01*
X8559315D01*
Y4178283D01*
X8533923D01*
X8660882Y4305242D02*
X8686274Y4330634D01*
X8737058D01*
X8762450Y4305242D01*
Y4203675D01*
X8737058Y4178283D01*
X8686274D01*
X8660882Y4203675D01*
Y4305242D01*
X8965584Y4254459D02*
X9067151D01*
X9270285Y4178283D02*
X9346461D01*
X9371852Y4203675D01*
X9346461Y4229067D01*
X9295677D01*
X9270285Y4254459D01*
X9295677Y4279851D01*
X9371852D01*
X9422636Y4178283D02*
X9498811D01*
X9524203Y4203675D01*
X9498811Y4229067D01*
X9448028D01*
X9422636Y4254459D01*
X9448028Y4279851D01*
X9524203D01*
X9574987Y4178283D02*
X9651162D01*
X9676554Y4203675D01*
X9651162Y4229067D01*
X9600379D01*
X9574987Y4254459D01*
X9600379Y4279851D01*
X9676554D01*
X9727337Y4178283D02*
X9803513D01*
X9828905Y4203675D01*
X9803513Y4229067D01*
X9752729D01*
X9727337Y4254459D01*
X9752729Y4279851D01*
X9828905D01*
X9879688Y4330634D02*
Y4178283D01*
Y4254459D01*
X9905080Y4279851D01*
X9955864D01*
X9981255Y4254459D01*
Y4178283D01*
X10032039Y4330634D02*
Y4178283D01*
Y4254459D01*
X10057431Y4279851D01*
X10108214D01*
X10133606Y4254459D01*
Y4178283D01*
X10184390Y4330634D02*
Y4178283D01*
Y4254459D01*
X10209781Y4279851D01*
X10260565D01*
X10285957Y4254459D01*
Y4178283D01*
X10336740Y4330634D02*
Y4178283D01*
Y4254459D01*
X10362132Y4279851D01*
X10412916D01*
X10438308Y4254459D01*
Y4178283D01*
X10489091Y4330634D02*
Y4178283D01*
Y4254459D01*
X10514483Y4279851D01*
X10565266D01*
X10590658Y4254459D01*
Y4178283D01*
D15*
X7137400Y5626100D02*
D03*
X12420600Y6959600D02*
D03*
X10248899Y5422900D02*
D03*
D16*
X6629400Y5753100D02*
D03*
X7137400Y5880100D02*
D03*
X6629400Y6007100D02*
D03*
X7137400Y6134100D02*
D03*
X6629400Y6261100D02*
D03*
X7137400Y6388100D02*
D03*
X6629400Y6515100D02*
D03*
X7137400Y6642100D02*
D03*
X6629400Y6769100D02*
D03*
X7137400Y6896100D02*
D03*
X6629400Y7023100D02*
D03*
X7137400Y7150100D02*
D03*
X6629400Y7277100D02*
D03*
X7137400Y7404100D02*
D03*
X11658600Y5435600D02*
D03*
Y5689600D02*
D03*
Y5943600D02*
D03*
Y6197600D02*
D03*
Y6451600D02*
D03*
Y6705600D02*
D03*
Y6959600D02*
D03*
X12420600Y5435600D02*
D03*
Y5689600D02*
D03*
Y5943600D02*
D03*
Y6197600D02*
D03*
Y6451600D02*
D03*
Y6705600D02*
D03*
X11010899Y6946900D02*
D03*
Y6692900D02*
D03*
Y6438900D02*
D03*
Y6184900D02*
D03*
Y5930900D02*
D03*
Y5676900D02*
D03*
Y5422900D02*
D03*
X10248899Y6946900D02*
D03*
Y6692900D02*
D03*
Y6438900D02*
D03*
Y6184900D02*
D03*
Y5930900D02*
D03*
Y5676900D02*
D03*
D17*
X9791699Y4927600D02*
D03*
X11988799Y7581900D02*
D03*
X10642599Y4910100D02*
D03*
X12839699Y7594600D02*
D03*
X8127999Y5011700D02*
D03*
X8953499D02*
D03*
D18*
X9791699Y4627600D02*
D03*
X11988799Y7881900D02*
D03*
X10642599Y4610100D02*
D03*
X12839699Y7894600D02*
D03*
X8127999Y4711700D02*
D03*
X8953499D02*
D03*
D19*
X9232900Y5829300D02*
D03*
X8521700Y5842000D02*
D03*
X9232900Y6616700D02*
D03*
X8521700Y6629400D02*
D03*
D20*
X9232900Y6057900D02*
D03*
Y6286500D02*
D03*
X8521700Y6070600D02*
D03*
Y6299200D02*
D03*
X9232900Y6845300D02*
D03*
Y7073900D02*
D03*
X8521700Y6858000D02*
D03*
Y7086600D02*
D03*
D21*
X12571300Y4635500D02*
D03*
X11671300D02*
D03*
Y4978400D02*
D03*
X12571300D02*
D03*
X11176000Y7429500D02*
D03*
X10276000D02*
D03*
Y7759700D02*
D03*
X11176000D02*
D03*
D22*
X8115300Y5651500D02*
D03*
Y6781800D02*
D03*
X9715500Y6807200D02*
D03*
Y5626100D02*
D03*
D23*
X8115300Y6159500D02*
D03*
Y7289800D02*
D03*
X9715500Y7315200D02*
D03*
Y6134100D02*
D03*
D24*
X7442200Y7327900D02*
D03*
X7454900Y5816600D02*
D03*
X6299200Y6477000D02*
D03*
D25*
X7886700Y7899400D02*
D03*
X8904720Y6316751D02*
D03*
X8902700Y6667500D02*
D03*
X7366000Y6972300D02*
D03*
%TF.MD5,ab2f1e85b20b32bb63bfb0ab14582296*%
M02*
