%TF.GenerationSoftware,Altium Limited,Altium Designer,25.8.1 (18)*%
G04 Layer_Physical_Order=1*
G04 Layer_Color=255*
%FSLAX45Y45*%
%MOMM*%
%TF.SameCoordinates,5194DE87-2E3A-4D0E-B7FB-1F2D01658319*%
%TF.FilePolarity,Positive*%
%TF.FileFunction,Copper,L1,Top,Signal*%
%TF.Part,Single*%
G01*
G75*
%TA.AperFunction,Conductor*%
%ADD10C,2.00000*%
%ADD11C,0.50000*%
%TA.AperFunction,NonConductor*%
%ADD12C,0.30000*%
%TA.AperFunction,ComponentPad*%
%ADD13O,3.00000X1.50000*%
%ADD14R,3.00000X1.50000*%
%ADD15C,1.50000*%
%ADD16C,2.00000*%
%ADD17C,1.65100*%
%ADD18C,1.45000*%
%ADD19R,1.45000X1.45000*%
%ADD20C,2.03200*%
%ADD21R,1.65100X1.65100*%
%ADD22C,1.77800*%
%ADD23R,1.77800X1.77800*%
%ADD24R,1.50000X1.50000*%
%TA.AperFunction,ViaPad*%
%ADD25C,2.00000*%
G36*
X4331955Y9054303D02*
X4355303Y9030955D01*
X4383898Y9014446D01*
X4392719Y9012082D01*
X4386136Y8962082D01*
X4089460D01*
X4056724Y8957772D01*
X4026219Y8945137D01*
X4000024Y8925037D01*
X4000023Y8925035D01*
X3646687Y8571700D01*
X3596687Y8592411D01*
Y8756415D01*
X3920185Y9079913D01*
X4317169D01*
X4331955Y9054303D01*
D02*
G37*
G36*
X4494586Y8535882D02*
X4473875Y8485882D01*
X4334690D01*
X4321999Y8497805D01*
X4301233Y8535882D01*
X4304100Y8546582D01*
Y8573018D01*
X4301207Y8583813D01*
X4321875Y8621775D01*
X4334636Y8633813D01*
X4396655D01*
X4494586Y8535882D01*
D02*
G37*
G36*
X6597650Y8499425D02*
Y8401051D01*
X6597650Y8401050D01*
X6597649D01*
X6585069Y8394321D01*
X6576873Y8389937D01*
X6550678Y8369836D01*
X6550677Y8369835D01*
X6408213Y8227372D01*
X6388113Y8201177D01*
X6375477Y8170672D01*
X6371168Y8137936D01*
X6371168Y8137934D01*
Y7848082D01*
X5264965D01*
X5261672Y7873094D01*
X5249037Y7903599D01*
X5230482Y7927780D01*
X5230719Y7933756D01*
X5250889Y7978552D01*
X5265136Y7980428D01*
X5284141Y7988300D01*
X5346700D01*
Y8038027D01*
X5475291Y8166618D01*
X5962043D01*
X5972062Y8156323D01*
X5988740Y8116618D01*
X5982707Y8106167D01*
X5975350Y8078712D01*
Y8077200D01*
X6083300D01*
X6191250D01*
Y8078712D01*
X6183893Y8106167D01*
X6169681Y8130783D01*
X6163851Y8136614D01*
X6160999Y8144347D01*
X6162033Y8186237D01*
X6166478Y8198862D01*
X6172736Y8203664D01*
X6192837Y8229859D01*
X6205472Y8260364D01*
X6209782Y8293100D01*
X6205472Y8325836D01*
X6192837Y8356341D01*
X6187152Y8363750D01*
X6191250Y8413750D01*
X6191250D01*
Y8470313D01*
X6481924D01*
X6501589Y8474224D01*
X6518260Y8485364D01*
X6551456Y8518560D01*
X6597650Y8499425D01*
D02*
G37*
G36*
X7406403Y8358764D02*
X7423075Y8347624D01*
X7442740Y8343713D01*
X8731421D01*
X8777712Y8297422D01*
X8775876Y8276372D01*
X8747329Y8240887D01*
X7407024D01*
X7387359Y8236976D01*
X7370688Y8225836D01*
X6707364Y7562512D01*
X6696224Y7545841D01*
X6692313Y7526176D01*
Y7450310D01*
X6674132Y7438357D01*
X6624132Y7465322D01*
Y7721600D01*
Y7916451D01*
X6643026Y7932950D01*
X6674132Y7948474D01*
X6691388Y7943850D01*
X6692900D01*
Y8051800D01*
X6705600D01*
Y8064500D01*
X6813550D01*
Y8066012D01*
X6806193Y8093467D01*
X6791981Y8118083D01*
X6786151Y8123914D01*
X6783299Y8131647D01*
X6784333Y8173537D01*
X6788778Y8186162D01*
X6795036Y8190964D01*
X6815137Y8217159D01*
X6827772Y8247664D01*
X6832082Y8280400D01*
X6827772Y8313136D01*
X6815137Y8343641D01*
X6809452Y8351050D01*
X6813550Y8401050D01*
X6813550D01*
Y8590563D01*
X7174605D01*
X7406403Y8358764D01*
D02*
G37*
G36*
X4001913Y8503852D02*
Y8202200D01*
X4005824Y8182535D01*
X4016964Y8165864D01*
X4106366Y8076461D01*
X4103300Y8065018D01*
Y8038582D01*
X4110142Y8013047D01*
X4123360Y7990153D01*
X4142053Y7971460D01*
X4164947Y7958242D01*
X4190482Y7951400D01*
X4216918D01*
X4242453Y7958242D01*
X4265347Y7971460D01*
X4284040Y7990153D01*
X4297258Y8013047D01*
X4304100Y8038582D01*
Y8065018D01*
X4297258Y8090553D01*
X4284040Y8113447D01*
X4265347Y8132140D01*
X4255924Y8137580D01*
X4253644Y8180857D01*
X4257234Y8192242D01*
X4266941Y8196263D01*
X4293136Y8216364D01*
X4309691Y8232918D01*
X4442140D01*
X4444203Y8230855D01*
X4472798Y8214346D01*
X4504691Y8205800D01*
X4505769D01*
X4579718Y8131852D01*
Y7786809D01*
X4579718Y7786807D01*
X4584028Y7754071D01*
X4596663Y7723566D01*
X4616763Y7697370D01*
X4641618Y7672516D01*
Y7531139D01*
X4591618Y7517741D01*
X4583445Y7531897D01*
X4560097Y7555245D01*
X4534487Y7570031D01*
Y7747000D01*
X4530576Y7766665D01*
X4519436Y7783336D01*
X4487686Y7815086D01*
X4471015Y7826226D01*
X4451350Y7830137D01*
X4298977D01*
X4297258Y7836553D01*
X4284040Y7859447D01*
X4265347Y7878140D01*
X4242453Y7891358D01*
X4216918Y7898200D01*
X4190482D01*
X4164947Y7891358D01*
X4142053Y7878140D01*
X4123360Y7859447D01*
X4110142Y7836553D01*
X4103300Y7811018D01*
Y7784582D01*
X4110142Y7759047D01*
X4123360Y7736153D01*
X4142053Y7717460D01*
X4164947Y7704242D01*
X4190482Y7697400D01*
X4216918D01*
X4242453Y7704242D01*
X4265347Y7717460D01*
X4275250Y7727363D01*
X4430065D01*
X4431713Y7725715D01*
Y7570031D01*
X4406103Y7555245D01*
X4382755Y7531897D01*
X4366246Y7503302D01*
X4357700Y7471409D01*
Y7438391D01*
X4366246Y7406498D01*
X4382755Y7377903D01*
X4406103Y7354555D01*
X4434698Y7338046D01*
X4466591Y7329500D01*
X4499609D01*
X4531502Y7338046D01*
X4560097Y7354555D01*
X4583445Y7377903D01*
X4591618Y7392059D01*
X4641618Y7378661D01*
Y7271648D01*
X4478652Y7108682D01*
X4309691D01*
X4293136Y7125236D01*
X4266941Y7145337D01*
X4257234Y7149358D01*
X4253644Y7160743D01*
X4255924Y7204020D01*
X4265347Y7209460D01*
X4284040Y7228153D01*
X4297258Y7251047D01*
X4304100Y7276582D01*
Y7303018D01*
X4297258Y7328553D01*
X4284040Y7351447D01*
X4265347Y7370140D01*
X4242453Y7383358D01*
X4220175Y7389327D01*
X4216092Y7391470D01*
X4214835Y7393400D01*
X4215255Y7403464D01*
X4238236Y7449112D01*
X4242453Y7450242D01*
X4265347Y7463460D01*
X4284040Y7482153D01*
X4297258Y7505047D01*
X4304100Y7530582D01*
Y7557018D01*
X4297258Y7582553D01*
X4284040Y7605447D01*
X4265347Y7624140D01*
X4242453Y7637358D01*
X4216918Y7644200D01*
X4190482D01*
X4164947Y7637358D01*
X4142053Y7624140D01*
X4123360Y7605447D01*
X4110142Y7582553D01*
X4103300Y7557018D01*
Y7533583D01*
X4096025Y7527132D01*
X4057373Y7508800D01*
X4001087Y7565085D01*
Y7924800D01*
X3997176Y7944465D01*
X3986036Y7961136D01*
X3793034Y8154139D01*
X3796100Y8165582D01*
Y8192018D01*
X3789258Y8217553D01*
X3776040Y8240447D01*
X3757347Y8259140D01*
X3747924Y8264580D01*
X3745644Y8307857D01*
X3749234Y8319242D01*
X3758941Y8323263D01*
X3785136Y8343364D01*
X3805237Y8369559D01*
X3807319Y8374586D01*
X3955719Y8522986D01*
X4001913Y8503852D01*
D02*
G37*
G36*
X7328418Y7967511D02*
Y7441070D01*
X7053424D01*
X7053422Y7441070D01*
X7020686Y7436760D01*
X6990181Y7424125D01*
X6963985Y7404024D01*
X6905061Y7345100D01*
X6851208Y7356409D01*
X6848621Y7359371D01*
X6835163Y7382682D01*
X6813882Y7403963D01*
X6795087Y7414814D01*
Y7504891D01*
X7278418Y7988222D01*
X7328418Y7967511D01*
D02*
G37*
G36*
X9156700Y9232900D02*
X11633200D01*
X11702378Y9163722D01*
X11681667Y9113722D01*
X7772400D01*
Y8763000D01*
X11721957D01*
Y9073432D01*
X11771957Y9094143D01*
X12319000Y8547100D01*
Y6184900D01*
X11226800Y5092700D01*
X6139177D01*
X6139092Y5092775D01*
X6124133Y5111175D01*
X6117870Y5125011D01*
X6114520Y5142700D01*
X6116637Y5145459D01*
X6119809Y5153118D01*
X6123954Y5160298D01*
X6126100Y5168305D01*
X6129272Y5175964D01*
X6130354Y5184182D01*
X6132500Y5192191D01*
Y5200481D01*
X6133582Y5208700D01*
Y5698240D01*
X6133582Y5698242D01*
X6129272Y5730978D01*
X6116637Y5761483D01*
X6096536Y5787679D01*
X6096535Y5787680D01*
X5950407Y5933808D01*
X5952033Y5941868D01*
X5990591Y5983300D01*
X6023609D01*
X6055502Y5991846D01*
X6084097Y6008355D01*
X6107445Y6031703D01*
X6118565Y6050963D01*
X6220700D01*
Y5998100D01*
X6416500D01*
Y6193900D01*
X6220700D01*
Y6153737D01*
X6124856D01*
X6123954Y6157102D01*
X6107445Y6185697D01*
X6084097Y6209045D01*
X6055502Y6225554D01*
X6023609Y6234100D01*
X5990591D01*
X5958698Y6225554D01*
X5930103Y6209045D01*
X5906755Y6185697D01*
X5890246Y6157102D01*
X5881700Y6125209D01*
Y6092191D01*
X5840267Y6053634D01*
X5832208Y6052007D01*
X5703179Y6181036D01*
X5676983Y6201137D01*
X5646478Y6213772D01*
X5613742Y6218082D01*
X5613740Y6218082D01*
X5560138D01*
X5549641Y6226137D01*
X5519136Y6238772D01*
X5517943Y6238929D01*
X5449236Y6307636D01*
X5423041Y6327737D01*
X5392536Y6340372D01*
X5359800Y6344682D01*
X5359798Y6344682D01*
X5052183D01*
X5033049Y6390876D01*
X5348291Y6706118D01*
X5938046D01*
X5951799Y6692365D01*
X5951800Y6692364D01*
X5977995Y6672263D01*
X6008500Y6659628D01*
X6041236Y6655318D01*
X6041238Y6655318D01*
X6740998D01*
X6741000Y6655318D01*
X6761509Y6658018D01*
X7432198D01*
X7432200Y6658018D01*
X7464936Y6662328D01*
X7495441Y6674963D01*
X7518817Y6692900D01*
X7569200D01*
Y6742627D01*
X7836437Y7009864D01*
X7856537Y7036059D01*
X7869173Y7066564D01*
X7873483Y7099300D01*
X7873482Y7099302D01*
Y7415209D01*
X7954553Y7496280D01*
X7981269Y7488567D01*
X7995489Y7478600D01*
X8115300D01*
Y7598410D01*
X8105333Y7612631D01*
X8097620Y7639347D01*
X8128536Y7670264D01*
X8133583Y7676841D01*
X8139445Y7682703D01*
X8143590Y7689882D01*
X8148637Y7696459D01*
X8151809Y7704118D01*
X8155954Y7711298D01*
X8158100Y7719304D01*
X8161272Y7726964D01*
X8162355Y7735184D01*
X8164500Y7743191D01*
Y7751481D01*
X8165582Y7759700D01*
X8164500Y7767919D01*
Y7776209D01*
X8162355Y7784216D01*
X8161272Y7792436D01*
X8158100Y7800095D01*
X8155954Y7808102D01*
X8151809Y7815282D01*
X8148637Y7822941D01*
X8143590Y7829518D01*
X8139445Y7836697D01*
X8133582Y7842560D01*
X8128536Y7849136D01*
X8121960Y7854182D01*
X8116097Y7860045D01*
X8108918Y7864190D01*
X8102341Y7869237D01*
X8094682Y7872409D01*
X8087502Y7876554D01*
X8079495Y7878700D01*
X8071836Y7881872D01*
X8063616Y7882955D01*
X8055609Y7885100D01*
X8047319D01*
X8039100Y7886182D01*
X8030881Y7885100D01*
X8022591D01*
X8014584Y7882955D01*
X8006364Y7881872D01*
X7998704Y7878700D01*
X7990698Y7876554D01*
X7983518Y7872409D01*
X7975859Y7869237D01*
X7969282Y7864190D01*
X7962103Y7860045D01*
X7956241Y7854183D01*
X7949664Y7849136D01*
X7657564Y7557037D01*
X7637464Y7530841D01*
X7631382Y7516159D01*
X7581382Y7526105D01*
Y7924800D01*
X7620000D01*
Y7987358D01*
X7627872Y8006364D01*
X7632182Y8039100D01*
X7627872Y8071836D01*
X7620000Y8090841D01*
Y8138113D01*
X8723270D01*
X8729272Y8115712D01*
X8742161Y8093388D01*
X8760388Y8075161D01*
X8769113Y8070123D01*
Y7888587D01*
X8773024Y7868922D01*
X8784164Y7852251D01*
X8824466Y7811949D01*
X8822246Y7808102D01*
X8813700Y7776209D01*
Y7743191D01*
X8822246Y7711298D01*
X8827003Y7703058D01*
X8833084Y7670875D01*
X8819616Y7642786D01*
X8817904Y7641074D01*
X8728664Y7551834D01*
X8717524Y7535163D01*
X8713613Y7515498D01*
Y7427498D01*
X8665213Y7402508D01*
X8654719Y7410218D01*
X8643502Y7424962D01*
X8647100Y7438391D01*
Y7471409D01*
X8638554Y7503302D01*
X8622045Y7531897D01*
X8598697Y7555245D01*
X8570102Y7571754D01*
X8538209Y7580300D01*
X8505191D01*
X8473298Y7571754D01*
X8444703Y7555245D01*
X8421355Y7531897D01*
X8404846Y7503302D01*
X8396300Y7471409D01*
Y7438391D01*
X8404846Y7406498D01*
X8421355Y7377903D01*
X8444703Y7354555D01*
X8473298Y7338046D01*
X8505191Y7329500D01*
X8538209D01*
X8566774Y7337154D01*
X8675864Y7228064D01*
X8692535Y7216924D01*
X8693767Y7216679D01*
X8714087Y7166289D01*
X8510129Y6962331D01*
X8260346D01*
X8240681Y6958419D01*
X8224010Y6947280D01*
X7941264Y6664534D01*
X7930124Y6647863D01*
X7926213Y6628198D01*
Y6503602D01*
X7930124Y6483937D01*
X7941264Y6467266D01*
X8010130Y6398400D01*
X8010063Y6384471D01*
X7993746Y6344074D01*
X7977998Y6339854D01*
X7949403Y6323345D01*
X7926055Y6299997D01*
X7909546Y6271402D01*
X7901000Y6239509D01*
Y6235700D01*
X8151800D01*
Y6239509D01*
X8143254Y6271402D01*
X8126745Y6299997D01*
X8125329Y6301413D01*
X8146040Y6351413D01*
X8977698D01*
X8997363Y6355324D01*
X9014034Y6366464D01*
X9360668Y6713098D01*
X9371807Y6729769D01*
X9375719Y6749434D01*
Y6877346D01*
X9543773Y7045400D01*
X9582425Y7027068D01*
X9589700Y7020617D01*
Y6997182D01*
X9596542Y6971647D01*
X9609760Y6948753D01*
X9628453Y6930060D01*
X9651347Y6916842D01*
X9676882Y6910000D01*
X9703318D01*
X9728853Y6916842D01*
X9751747Y6930060D01*
X9770440Y6948753D01*
X9783658Y6971647D01*
X9790500Y6997182D01*
Y7023618D01*
X9787434Y7035061D01*
X9851836Y7099464D01*
X9862976Y7116135D01*
X9866887Y7135800D01*
Y7316342D01*
X9913477Y7338413D01*
X10321164D01*
X10333925Y7326375D01*
X10354593Y7288413D01*
X10351700Y7277618D01*
Y7277100D01*
X10452100D01*
Y7264400D01*
X10464800D01*
Y7164000D01*
X10465318D01*
X10490853Y7170842D01*
X10513747Y7184060D01*
X10532440Y7202753D01*
X10538028Y7212431D01*
X10579485Y7224661D01*
X10597020Y7224149D01*
X10683983Y7137187D01*
X10674787Y7101551D01*
X10664862Y7087187D01*
X10654842D01*
X10635177Y7083276D01*
X10618506Y7072136D01*
X10597020Y7050651D01*
X10579485Y7050139D01*
X10538028Y7062369D01*
X10532440Y7072047D01*
X10513747Y7090740D01*
X10490853Y7103958D01*
X10465318Y7110800D01*
X10464800D01*
Y7010400D01*
X10452100D01*
Y6997700D01*
X10351700D01*
Y6997182D01*
X10355450Y6983187D01*
X10353837Y6972821D01*
X10340684Y6946869D01*
X10328004Y6929275D01*
X10311334Y6918136D01*
X10200985Y6807787D01*
X9790500D01*
Y6856800D01*
X9589700D01*
Y6656000D01*
X9790500D01*
Y6705013D01*
X10222270D01*
X10241935Y6708924D01*
X10258606Y6720064D01*
X10301700Y6763158D01*
X10351700Y6743182D01*
X10358542Y6717647D01*
X10371760Y6694753D01*
X10390453Y6676060D01*
X10413347Y6662842D01*
X10438882Y6656000D01*
X10465318D01*
X10476761Y6659066D01*
X10802168Y6333660D01*
X10818947Y6284736D01*
X10783198Y6248987D01*
X10576121D01*
X10560606Y6269206D01*
X10539633Y6285299D01*
X10515210Y6295416D01*
X10489000Y6298866D01*
X10339000D01*
X10312790Y6295416D01*
X10288367Y6285299D01*
X10267394Y6269206D01*
X10251301Y6248233D01*
X10250619Y6246587D01*
X9774179D01*
X9760506Y6264406D01*
X9739533Y6280499D01*
X9715110Y6290616D01*
X9688900Y6294066D01*
X9538900D01*
X9512690Y6290616D01*
X9488267Y6280499D01*
X9467294Y6264406D01*
X9451201Y6243433D01*
X9441084Y6219010D01*
X9437634Y6192800D01*
X9388165Y6185487D01*
X8925121D01*
X8909606Y6205706D01*
X8888633Y6221799D01*
X8864210Y6231916D01*
X8838000Y6235366D01*
X8688000D01*
X8661790Y6231916D01*
X8637367Y6221799D01*
X8616394Y6205706D01*
X8600301Y6184733D01*
X8590184Y6160310D01*
X8586734Y6134100D01*
X8590184Y6107890D01*
X8600301Y6083467D01*
X8616394Y6062494D01*
X8637367Y6046401D01*
X8661790Y6036284D01*
X8688000Y6032834D01*
X8838000D01*
X8864210Y6036284D01*
X8888633Y6046401D01*
X8909606Y6062494D01*
X8925121Y6082713D01*
X9453140D01*
X9472806Y6086624D01*
X9489477Y6097764D01*
X9494310Y6102597D01*
X9512690Y6094984D01*
X9538900Y6091534D01*
X9688900D01*
X9715110Y6094984D01*
X9739533Y6105101D01*
X9760506Y6121194D01*
X9776599Y6142167D01*
X9777281Y6143813D01*
X10253721D01*
X10267394Y6125994D01*
X10288367Y6109901D01*
X10312790Y6099784D01*
X10339000Y6096334D01*
X10489000D01*
X10515210Y6099784D01*
X10539633Y6109901D01*
X10560606Y6125994D01*
X10576121Y6146213D01*
X10804483D01*
X10824148Y6150124D01*
X10840819Y6161264D01*
X10876568Y6197013D01*
X11102779D01*
X11118294Y6176794D01*
X11139267Y6160701D01*
X11163690Y6150584D01*
X11189900Y6147134D01*
X11339900D01*
X11366110Y6150584D01*
X11390533Y6160701D01*
X11411506Y6176794D01*
X11427599Y6197767D01*
X11437716Y6222190D01*
X11441166Y6248400D01*
X11437716Y6274610D01*
X11427599Y6299033D01*
X11411506Y6320006D01*
X11427783Y6364010D01*
X11748239Y6684466D01*
X11759682Y6681400D01*
X11786118D01*
X11811653Y6688242D01*
X11834547Y6701460D01*
X11853240Y6720153D01*
X11866458Y6743047D01*
X11873300Y6768582D01*
Y6795018D01*
X11866458Y6820553D01*
X11853240Y6843447D01*
X11834547Y6862140D01*
X11811653Y6875358D01*
X11786118Y6882200D01*
X11759682D01*
X11734147Y6875358D01*
X11711253Y6862140D01*
X11692560Y6843447D01*
X11679342Y6820553D01*
X11672500Y6795018D01*
Y6768582D01*
X11675566Y6757139D01*
X11322698Y6404270D01*
X11311558Y6387599D01*
X11307647Y6367934D01*
Y6349666D01*
X11189900D01*
X11163690Y6346216D01*
X11139267Y6336099D01*
X11118294Y6320006D01*
X11102779Y6299787D01*
X10981385D01*
X10549434Y6731739D01*
X10552500Y6743182D01*
Y6769618D01*
X10545658Y6795153D01*
X10532440Y6818047D01*
X10556456Y6864741D01*
X10676127Y6984413D01*
X10924637D01*
X10930560Y6974153D01*
X10949253Y6955460D01*
X10972147Y6942242D01*
X10975334Y6941388D01*
X10996822Y6893724D01*
X10996659Y6885824D01*
X10994011Y6882200D01*
X10910500D01*
Y6681400D01*
X11111300D01*
Y6809527D01*
X11172636Y6870864D01*
X11183776Y6887535D01*
X11187687Y6907200D01*
Y7087742D01*
X11183776Y7107407D01*
X11172636Y7124079D01*
X11115256Y7181459D01*
X11091240Y7228153D01*
X11104458Y7251047D01*
X11111300Y7276582D01*
Y7277100D01*
X10910500D01*
Y7276582D01*
X10913393Y7265787D01*
X10892725Y7227825D01*
X10879964Y7215787D01*
X10750728D01*
X10540378Y7426136D01*
X10532884Y7455041D01*
X10545041Y7478578D01*
X10545658Y7479647D01*
X10552500Y7505182D01*
Y7531618D01*
X10545658Y7557153D01*
X10532440Y7580047D01*
X10513747Y7598740D01*
X10490853Y7611958D01*
X10465318Y7618800D01*
X10438882D01*
X10413347Y7611958D01*
X10390453Y7598740D01*
X10371760Y7580047D01*
X10358542Y7557153D01*
X10351700Y7531618D01*
Y7505182D01*
X10355450Y7491187D01*
X10338317Y7457754D01*
X10323012Y7441187D01*
X9869959D01*
X9809610Y7501536D01*
X9800828Y7507404D01*
X9790500Y7517732D01*
Y7531618D01*
X9783658Y7557153D01*
X9770440Y7580047D01*
X9751747Y7598740D01*
X9728853Y7611958D01*
X9724636Y7613088D01*
X9701655Y7658736D01*
X9701235Y7668800D01*
X9702492Y7670730D01*
X9706575Y7672873D01*
X9728853Y7678842D01*
X9751747Y7692060D01*
X9770440Y7710753D01*
X9783658Y7733647D01*
X9790500Y7759182D01*
Y7785618D01*
X9783658Y7811153D01*
X9770440Y7834047D01*
X9751747Y7852740D01*
X9728853Y7865958D01*
X9703318Y7872800D01*
X9676882D01*
X9651347Y7865958D01*
X9628453Y7852740D01*
X9609760Y7834047D01*
X9596542Y7811153D01*
X9589700Y7785618D01*
Y7759182D01*
X9592766Y7747739D01*
X9528364Y7683336D01*
X9517224Y7666665D01*
X9513313Y7647000D01*
Y7466458D01*
X9517224Y7446793D01*
X9528364Y7430122D01*
X9605021Y7353464D01*
X9609760Y7326047D01*
X9596542Y7303153D01*
X9589700Y7277618D01*
Y7251182D01*
X9592766Y7239739D01*
X9287995Y6934968D01*
X9276856Y6918297D01*
X9272944Y6898632D01*
Y6770719D01*
X9088204Y6585979D01*
X9032437Y6600922D01*
X9032254Y6601602D01*
X9015745Y6630197D01*
X8992397Y6653545D01*
X8963802Y6670054D01*
X8940948Y6676178D01*
Y7266342D01*
X8938154Y7280387D01*
X8937331Y7286637D01*
X8959063Y7333082D01*
X8962136Y7335899D01*
X8963802Y7336346D01*
X8992397Y7352855D01*
X9015745Y7376203D01*
X9032254Y7404797D01*
X9040800Y7436691D01*
Y7469399D01*
X9201236Y7629835D01*
X9212376Y7646506D01*
X9216287Y7666171D01*
Y7853229D01*
X9212376Y7872894D01*
X9201236Y7889565D01*
X9140887Y7949914D01*
Y8075436D01*
X9158839Y8093388D01*
X9171728Y8115712D01*
X9178400Y8140611D01*
Y8166389D01*
X9171728Y8191288D01*
X9158839Y8213612D01*
X9140612Y8231840D01*
X9118288Y8244728D01*
X9093389Y8251400D01*
X9067611D01*
X9042712Y8244728D01*
X9020388Y8231840D01*
X8972754Y8247725D01*
X8789043Y8431436D01*
X8772372Y8442576D01*
X8752707Y8446487D01*
X7651993D01*
X7623125Y8496487D01*
X7624045Y8498080D01*
X7632700Y8530380D01*
Y8534400D01*
X7505700D01*
Y8547100D01*
X7493000D01*
Y8674100D01*
X7488980D01*
X7456680Y8665445D01*
X7427720Y8648725D01*
X7404075Y8625080D01*
X7387355Y8596120D01*
X7386879Y8594344D01*
X7331111Y8579401D01*
X7232226Y8678286D01*
X7215555Y8689426D01*
X7195890Y8693337D01*
X6602174D01*
X6582509Y8689426D01*
X6565838Y8678286D01*
X6460639Y8573087D01*
X6191250D01*
Y8629650D01*
X5975350D01*
Y8419582D01*
X5422900D01*
X5390164Y8415272D01*
X5359659Y8402637D01*
X5333464Y8382536D01*
X5333463Y8382535D01*
X5183482Y8232555D01*
X5133482Y8253265D01*
Y8308838D01*
X5129172Y8341574D01*
X5116537Y8372079D01*
X5096436Y8398274D01*
X5096435Y8398275D01*
X4569674Y8925037D01*
X4543478Y8945137D01*
X4512973Y8957772D01*
X4480238Y8962082D01*
X4472063Y9010704D01*
X4471881Y9012082D01*
X4480702Y9014446D01*
X4509297Y9030955D01*
X4532645Y9054303D01*
X4549154Y9082898D01*
X4557700Y9114791D01*
Y9147809D01*
X4549154Y9179702D01*
X4532645Y9208297D01*
X4509297Y9231645D01*
X4480702Y9248154D01*
X4448809Y9256700D01*
X4415791D01*
X4383898Y9248154D01*
X4355303Y9231645D01*
X4331955Y9208297D01*
X4317169Y9182687D01*
X3898900D01*
X3879235Y9178776D01*
X3862564Y9167636D01*
X3508964Y8814036D01*
X3497824Y8797365D01*
X3493913Y8777700D01*
Y8329200D01*
X3497824Y8309535D01*
X3508964Y8292864D01*
X3598366Y8203461D01*
X3595300Y8192018D01*
Y8165582D01*
X3602142Y8140047D01*
X3615360Y8117153D01*
X3634053Y8098460D01*
X3656947Y8085242D01*
X3679225Y8079273D01*
X3683308Y8077130D01*
X3684565Y8075200D01*
X3684145Y8065136D01*
X3661164Y8019488D01*
X3656947Y8018358D01*
X3634053Y8005140D01*
X3615360Y7986447D01*
X3602142Y7963553D01*
X3595300Y7938018D01*
Y7911582D01*
X3602142Y7886047D01*
X3615360Y7863153D01*
X3634053Y7844460D01*
X3656947Y7831242D01*
X3682482Y7824400D01*
X3708918D01*
X3734453Y7831242D01*
X3757347Y7844460D01*
X3776040Y7863153D01*
X3789258Y7886047D01*
X3796100Y7911582D01*
Y7935017D01*
X3803375Y7941468D01*
X3842027Y7959800D01*
X3898313Y7903515D01*
Y7543800D01*
X3902224Y7524135D01*
X3913364Y7507464D01*
X4106366Y7314461D01*
X4103300Y7303018D01*
Y7276582D01*
X4110142Y7251047D01*
X4123360Y7228153D01*
X4142053Y7209460D01*
X4151476Y7204020D01*
X4153756Y7160743D01*
X4150166Y7149358D01*
X4140459Y7145337D01*
X4114264Y7125236D01*
X4094163Y7099041D01*
X4081528Y7068536D01*
X4077218Y7035800D01*
X4081528Y7003064D01*
X4094163Y6972559D01*
X4114264Y6946364D01*
X4128427Y6932200D01*
X4107717Y6882200D01*
X4103300D01*
Y6798924D01*
X4057106Y6779790D01*
X3962716Y6874180D01*
Y7201171D01*
X3958804Y7220836D01*
X3947665Y7237507D01*
X3793034Y7392139D01*
X3796100Y7403582D01*
Y7430018D01*
X3789258Y7455553D01*
X3776040Y7478447D01*
X3757347Y7497140D01*
X3734453Y7510358D01*
X3712175Y7516327D01*
X3708092Y7518470D01*
X3706835Y7520400D01*
X3707255Y7530464D01*
X3730236Y7576112D01*
X3734453Y7577242D01*
X3757347Y7590460D01*
X3776040Y7609153D01*
X3789258Y7632047D01*
X3796100Y7657582D01*
Y7658100D01*
X3695700D01*
X3592500D01*
X3588025Y7654132D01*
X3549373Y7635800D01*
X3363736Y7821436D01*
X3347065Y7832576D01*
X3327400Y7836487D01*
X3104999D01*
X3097545Y7849397D01*
X3074197Y7872745D01*
X3045602Y7889254D01*
X3013709Y7897800D01*
X2980691D01*
X2948798Y7889254D01*
X2920203Y7872745D01*
X2896855Y7849397D01*
X2880346Y7820802D01*
X2871800Y7788909D01*
Y7755891D01*
X2880346Y7723998D01*
X2896855Y7695403D01*
X2920203Y7672055D01*
X2948798Y7655546D01*
X2980691Y7647000D01*
X3013709D01*
X3045602Y7655546D01*
X3074197Y7672055D01*
X3097545Y7695403D01*
X3114054Y7723998D01*
X3116657Y7733713D01*
X3306115D01*
X3598366Y7441461D01*
X3595300Y7430018D01*
Y7403582D01*
X3602142Y7378047D01*
X3615360Y7355153D01*
X3631231Y7339282D01*
X3631150Y7325517D01*
X3618584Y7287656D01*
X3598201Y7284972D01*
X3567695Y7272337D01*
X3541500Y7252236D01*
X3541499Y7252235D01*
X3380863Y7091600D01*
X3360763Y7065404D01*
X3348128Y7034900D01*
X3346400Y7021781D01*
X3263364Y6938745D01*
X3243263Y6912550D01*
X3230628Y6882044D01*
X3226318Y6849308D01*
X3226318Y6849306D01*
Y6606860D01*
X3226318Y6606857D01*
X3230628Y6574121D01*
X3243263Y6543617D01*
X3263364Y6517421D01*
X3380521Y6400264D01*
X3406717Y6380163D01*
X3437221Y6367528D01*
X3469958Y6363218D01*
X3469960Y6363218D01*
X3690672D01*
X3862725Y6191164D01*
X3862726Y6191163D01*
X3888921Y6171063D01*
X3919427Y6158428D01*
X3952163Y6154117D01*
X3952165Y6154118D01*
X4455235D01*
X4455237Y6154117D01*
X4487973Y6158427D01*
X4501056Y6163846D01*
X4514294Y6146594D01*
X4535267Y6130501D01*
X4559690Y6120384D01*
X4585900Y6116934D01*
X4586881D01*
X4597659Y6108663D01*
X4628164Y6096028D01*
X4660900Y6091718D01*
X4661298D01*
X4661300Y6091718D01*
X4661302Y6091718D01*
X5307409D01*
X5317012Y6082115D01*
X5323701Y6065967D01*
X5339794Y6044994D01*
X5360767Y6028901D01*
X5380178Y6020860D01*
X5398159Y6007063D01*
X5428664Y5994428D01*
X5432745Y5993890D01*
X5448159Y5982063D01*
X5478664Y5969428D01*
X5497105Y5967000D01*
X5493827Y5917000D01*
X5311000D01*
Y5829300D01*
X5486400D01*
Y5816600D01*
X5499100D01*
Y5716200D01*
X5661800D01*
Y5799341D01*
X5707994Y5818476D01*
X5880618Y5645852D01*
Y5208700D01*
X5881700Y5200481D01*
Y5192191D01*
X5883846Y5184182D01*
X5884928Y5175964D01*
X5888100Y5168305D01*
X5890246Y5160298D01*
X5894391Y5153118D01*
X5897563Y5145459D01*
X5899680Y5142700D01*
X5896330Y5125011D01*
X5890067Y5111175D01*
X5875108Y5092775D01*
X5875023Y5092700D01*
X4051300D01*
X2794000Y6350000D01*
Y8839200D01*
X2802147D01*
X3576147Y9613200D01*
X3606800Y9613900D01*
X8775700D01*
X9156700Y9232900D01*
D02*
G37*
G36*
X7620518Y7234071D02*
Y7151691D01*
X7390327Y6921500D01*
X7340600D01*
Y6910982D01*
X6896243D01*
X6879106Y6953297D01*
X6878689Y6960982D01*
X7105813Y7188106D01*
X7454286D01*
X7454288Y7188106D01*
X7455005Y7188200D01*
X7471620D01*
X7503920Y7196855D01*
X7532880Y7213575D01*
X7556525Y7237220D01*
X7614033Y7238079D01*
X7620518Y7234071D01*
D02*
G37*
G36*
X5258129Y7200365D02*
X5258129Y7200364D01*
X5284325Y7180263D01*
X5314830Y7167628D01*
X5347566Y7163318D01*
X5347568Y7163318D01*
X5760543D01*
X5914779Y7009082D01*
X5913744Y6996955D01*
X5896891Y6959082D01*
X5295902D01*
X5295900Y6959082D01*
X5263164Y6954772D01*
X5244159Y6946900D01*
X5181600D01*
Y6897173D01*
X4766909Y6482482D01*
X4706303D01*
X4685592Y6532482D01*
X5158335Y7005225D01*
X5158336Y7005226D01*
X5178437Y7031421D01*
X5191072Y7061926D01*
X5195382Y7094662D01*
Y7192400D01*
X5245382Y7213111D01*
X5258129Y7200365D01*
D02*
G37*
G36*
X6371168Y7255486D02*
X6371168Y7255484D01*
X6375477Y7222748D01*
X6388113Y7192243D01*
X6408213Y7166048D01*
X6615197Y6959065D01*
X6615198Y6959064D01*
X6616216Y6958282D01*
X6599243Y6908282D01*
X6204909D01*
X6188270Y6949367D01*
X6186909Y6958282D01*
X6205537Y6982559D01*
X6218172Y7013064D01*
X6222482Y7045800D01*
X6218172Y7078536D01*
X6205537Y7109041D01*
X6185436Y7135236D01*
X6161201Y7159472D01*
X6166163Y7218110D01*
X6168471Y7220626D01*
X6187463Y7239618D01*
X6202511Y7265682D01*
X6210300Y7294752D01*
Y7324848D01*
X6202511Y7353918D01*
X6187463Y7379982D01*
X6166182Y7401263D01*
X6140118Y7416311D01*
X6111048Y7424100D01*
X6080952D01*
X6051882Y7416311D01*
X6025818Y7401263D01*
X6004537Y7379982D01*
X5992751Y7359567D01*
X5974013Y7351645D01*
X5935605Y7346002D01*
X5902370Y7379236D01*
X5876175Y7399337D01*
X5845670Y7411972D01*
X5812934Y7416282D01*
X5812932Y7416282D01*
X5682271D01*
X5681738Y7416425D01*
X5648720D01*
X5648187Y7416282D01*
X5399957D01*
X5386202Y7430036D01*
X5385627Y7430478D01*
X5373880Y7442225D01*
X5344920Y7458945D01*
X5312620Y7467600D01*
X5311460D01*
X5269732Y7502124D01*
X5265982Y7515827D01*
Y7595118D01*
X6371168D01*
Y7255486D01*
D02*
G37*
G36*
X3573528Y6823090D02*
X3586163Y6792585D01*
X3606264Y6766390D01*
X3706471Y6666182D01*
X3685760Y6616182D01*
X3522348D01*
X3479282Y6659248D01*
Y6796918D01*
X3521044Y6838679D01*
X3573528Y6823090D01*
D02*
G37*
G36*
X8838173Y7079702D02*
Y6676496D01*
X8767115Y6605437D01*
X8637322D01*
X8622045Y6631897D01*
X8598697Y6655245D01*
X8570102Y6671754D01*
X8538209Y6680300D01*
X8505191D01*
X8473298Y6671754D01*
X8444703Y6655245D01*
X8421355Y6631897D01*
X8409744Y6611787D01*
X8245528D01*
X8244854Y6614302D01*
X8228345Y6642897D01*
X8204997Y6666245D01*
X8176402Y6682754D01*
X8175722Y6682937D01*
X8160779Y6738704D01*
X8281631Y6859557D01*
X8531414D01*
X8551080Y6863468D01*
X8567751Y6874608D01*
X8791979Y7098836D01*
X8838173Y7079702D01*
D02*
G37*
%LPC*%
G36*
X6191250Y8051800D02*
X6096000D01*
Y7956550D01*
X6097512D01*
X6124967Y7963907D01*
X6149583Y7978119D01*
X6169681Y7998217D01*
X6183893Y8022833D01*
X6191250Y8050288D01*
Y8051800D01*
D02*
G37*
G36*
X6070600D02*
X5975350D01*
Y8050288D01*
X5982707Y8022833D01*
X5996919Y7998217D01*
X6017017Y7978119D01*
X6041633Y7963907D01*
X6069088Y7956550D01*
X6070600D01*
Y8051800D01*
D02*
G37*
G36*
X6813550Y8039100D02*
X6718300D01*
Y7943850D01*
X6719812D01*
X6747267Y7951207D01*
X6771883Y7965419D01*
X6791981Y7985517D01*
X6806193Y8010133D01*
X6813550Y8037588D01*
Y8039100D01*
D02*
G37*
G36*
X5249120Y8737600D02*
X5245100D01*
Y8623300D01*
X5359400D01*
Y8627320D01*
X5350745Y8659620D01*
X5334025Y8688580D01*
X5310380Y8712225D01*
X5281420Y8728945D01*
X5249120Y8737600D01*
D02*
G37*
G36*
X5219700D02*
X5215680D01*
X5183380Y8728945D01*
X5154420Y8712225D01*
X5130775Y8688580D01*
X5114055Y8659620D01*
X5105400Y8627320D01*
Y8623300D01*
X5219700D01*
Y8737600D01*
D02*
G37*
G36*
X7522420Y8674100D02*
X7518400D01*
Y8559800D01*
X7632700D01*
Y8563820D01*
X7624045Y8596120D01*
X7607325Y8625080D01*
X7583680Y8648725D01*
X7554720Y8665445D01*
X7522420Y8674100D01*
D02*
G37*
G36*
X5359400Y8597900D02*
X5245100D01*
Y8483600D01*
X5249120D01*
X5281420Y8492255D01*
X5310380Y8508975D01*
X5334025Y8532620D01*
X5350745Y8561580D01*
X5359400Y8593880D01*
Y8597900D01*
D02*
G37*
G36*
X5219700D02*
X5105400D01*
Y8593880D01*
X5114055Y8561580D01*
X5130775Y8532620D01*
X5154420Y8508975D01*
X5183380Y8492255D01*
X5215680Y8483600D01*
X5219700D01*
Y8597900D01*
D02*
G37*
G36*
X11024118Y8406200D02*
X11023600D01*
Y8318500D01*
X11111300D01*
Y8319018D01*
X11104458Y8344553D01*
X11091240Y8367447D01*
X11072547Y8386140D01*
X11049653Y8399358D01*
X11024118Y8406200D01*
D02*
G37*
G36*
X10998200D02*
X10997682D01*
X10972147Y8399358D01*
X10949253Y8386140D01*
X10930560Y8367447D01*
X10917342Y8344553D01*
X10910500Y8319018D01*
Y8318500D01*
X10998200D01*
Y8406200D01*
D02*
G37*
G36*
X9703318Y8380800D02*
X9702800D01*
Y8293100D01*
X9790500D01*
Y8293618D01*
X9783658Y8319153D01*
X9770440Y8342047D01*
X9751747Y8360740D01*
X9728853Y8373958D01*
X9703318Y8380800D01*
D02*
G37*
G36*
X9677400D02*
X9676882D01*
X9651347Y8373958D01*
X9628453Y8360740D01*
X9609760Y8342047D01*
X9596542Y8319153D01*
X9589700Y8293618D01*
Y8293100D01*
X9677400D01*
Y8380800D01*
D02*
G37*
G36*
X11786118Y8406200D02*
X11759682D01*
X11734147Y8399358D01*
X11711253Y8386140D01*
X11692560Y8367447D01*
X11679342Y8344553D01*
X11672500Y8319018D01*
Y8292582D01*
X11679342Y8267047D01*
X11692560Y8244153D01*
X11711253Y8225460D01*
X11734147Y8212242D01*
X11759682Y8205400D01*
X11786118D01*
X11811653Y8212242D01*
X11834547Y8225460D01*
X11853240Y8244153D01*
X11866458Y8267047D01*
X11873300Y8292582D01*
Y8319018D01*
X11866458Y8344553D01*
X11853240Y8367447D01*
X11834547Y8386140D01*
X11811653Y8399358D01*
X11786118Y8406200D01*
D02*
G37*
G36*
X11111300Y8293100D02*
X11023600D01*
Y8205400D01*
X11024118D01*
X11049653Y8212242D01*
X11072547Y8225460D01*
X11091240Y8244153D01*
X11104458Y8267047D01*
X11111300Y8292582D01*
Y8293100D01*
D02*
G37*
G36*
X10998200D02*
X10910500D01*
Y8292582D01*
X10917342Y8267047D01*
X10930560Y8244153D01*
X10949253Y8225460D01*
X10972147Y8212242D01*
X10997682Y8205400D01*
X10998200D01*
Y8293100D01*
D02*
G37*
G36*
X10465318Y8380800D02*
X10438882D01*
X10413347Y8373958D01*
X10390453Y8360740D01*
X10371760Y8342047D01*
X10358542Y8319153D01*
X10351700Y8293618D01*
Y8267182D01*
X10358542Y8241647D01*
X10371760Y8218753D01*
X10390453Y8200060D01*
X10413347Y8186842D01*
X10438882Y8180000D01*
X10465318D01*
X10490853Y8186842D01*
X10513747Y8200060D01*
X10532440Y8218753D01*
X10545658Y8241647D01*
X10552500Y8267182D01*
Y8293618D01*
X10545658Y8319153D01*
X10532440Y8342047D01*
X10513747Y8360740D01*
X10490853Y8373958D01*
X10465318Y8380800D01*
D02*
G37*
G36*
X9438400Y8251400D02*
X9353200D01*
Y8166200D01*
X9438400D01*
Y8251400D01*
D02*
G37*
G36*
X9327800D02*
X9242600D01*
Y8166200D01*
X9327800D01*
Y8251400D01*
D02*
G37*
G36*
X11786118Y8152200D02*
X11785600D01*
Y8064500D01*
X11873300D01*
Y8065018D01*
X11866458Y8090553D01*
X11853240Y8113447D01*
X11834547Y8132140D01*
X11811653Y8145358D01*
X11786118Y8152200D01*
D02*
G37*
G36*
X11760200D02*
X11759682D01*
X11734147Y8145358D01*
X11711253Y8132140D01*
X11692560Y8113447D01*
X11679342Y8090553D01*
X11672500Y8065018D01*
Y8064500D01*
X11760200D01*
Y8152200D01*
D02*
G37*
G36*
X9438400Y8140800D02*
X9353200D01*
Y8055600D01*
X9438400D01*
Y8140800D01*
D02*
G37*
G36*
X9327800D02*
X9242600D01*
Y8055600D01*
X9327800D01*
Y8140800D01*
D02*
G37*
G36*
X10465318Y8126800D02*
X10464800D01*
Y8039100D01*
X10552500D01*
Y8039618D01*
X10545658Y8065153D01*
X10532440Y8088047D01*
X10513747Y8106740D01*
X10490853Y8119958D01*
X10465318Y8126800D01*
D02*
G37*
G36*
X10439400D02*
X10438882D01*
X10413347Y8119958D01*
X10390453Y8106740D01*
X10371760Y8088047D01*
X10358542Y8065153D01*
X10351700Y8039618D01*
Y8039100D01*
X10439400D01*
Y8126800D01*
D02*
G37*
G36*
X11873300Y8039100D02*
X11785600D01*
Y7951400D01*
X11786118D01*
X11811653Y7958242D01*
X11834547Y7971460D01*
X11853240Y7990153D01*
X11866458Y8013047D01*
X11873300Y8038582D01*
Y8039100D01*
D02*
G37*
G36*
X11760200D02*
X11672500D01*
Y8038582D01*
X11679342Y8013047D01*
X11692560Y7990153D01*
X11711253Y7971460D01*
X11734147Y7958242D01*
X11759682Y7951400D01*
X11760200D01*
Y8039100D01*
D02*
G37*
G36*
X11024118Y8152200D02*
X10997682D01*
X10972147Y8145358D01*
X10949253Y8132140D01*
X10930560Y8113447D01*
X10917342Y8090553D01*
X10910500Y8065018D01*
Y8038582D01*
X10917342Y8013047D01*
X10930560Y7990153D01*
X10949253Y7971460D01*
X10972147Y7958242D01*
X10997682Y7951400D01*
X11024118D01*
X11049653Y7958242D01*
X11072547Y7971460D01*
X11091240Y7990153D01*
X11104458Y8013047D01*
X11111300Y8038582D01*
Y8065018D01*
X11104458Y8090553D01*
X11091240Y8113447D01*
X11072547Y8132140D01*
X11049653Y8145358D01*
X11024118Y8152200D01*
D02*
G37*
G36*
X10552500Y8013700D02*
X10464800D01*
Y7926000D01*
X10465318D01*
X10490853Y7932842D01*
X10513747Y7946060D01*
X10532440Y7964753D01*
X10545658Y7987647D01*
X10552500Y8013182D01*
Y8013700D01*
D02*
G37*
G36*
X10439400D02*
X10351700D01*
Y8013182D01*
X10358542Y7987647D01*
X10371760Y7964753D01*
X10390453Y7946060D01*
X10413347Y7932842D01*
X10438882Y7926000D01*
X10439400D01*
Y8013700D01*
D02*
G37*
G36*
X11024118Y7898200D02*
X11023600D01*
Y7810500D01*
X11111300D01*
Y7811018D01*
X11104458Y7836553D01*
X11091240Y7859447D01*
X11072547Y7878140D01*
X11049653Y7891358D01*
X11024118Y7898200D01*
D02*
G37*
G36*
X10998200D02*
X10997682D01*
X10972147Y7891358D01*
X10949253Y7878140D01*
X10930560Y7859447D01*
X10917342Y7836553D01*
X10910500Y7811018D01*
Y7810500D01*
X10998200D01*
Y7898200D01*
D02*
G37*
G36*
X10465318Y7872800D02*
X10464800D01*
Y7785100D01*
X10552500D01*
Y7785618D01*
X10545658Y7811153D01*
X10532440Y7834047D01*
X10513747Y7852740D01*
X10490853Y7865958D01*
X10465318Y7872800D01*
D02*
G37*
G36*
X10439400D02*
X10438882D01*
X10413347Y7865958D01*
X10390453Y7852740D01*
X10371760Y7834047D01*
X10358542Y7811153D01*
X10351700Y7785618D01*
Y7785100D01*
X10439400D01*
Y7872800D01*
D02*
G37*
G36*
X11786118Y7898200D02*
X11759682D01*
X11734147Y7891358D01*
X11711253Y7878140D01*
X11692560Y7859447D01*
X11679342Y7836553D01*
X11672500Y7811018D01*
Y7784582D01*
X11679342Y7759047D01*
X11692560Y7736153D01*
X11711253Y7717460D01*
X11734147Y7704242D01*
X11759682Y7697400D01*
X11786118D01*
X11811653Y7704242D01*
X11834547Y7717460D01*
X11853240Y7736153D01*
X11866458Y7759047D01*
X11873300Y7784582D01*
Y7811018D01*
X11866458Y7836553D01*
X11853240Y7859447D01*
X11834547Y7878140D01*
X11811653Y7891358D01*
X11786118Y7898200D01*
D02*
G37*
G36*
X11111300Y7785100D02*
X11023600D01*
Y7697400D01*
X11024118D01*
X11049653Y7704242D01*
X11072547Y7717460D01*
X11091240Y7736153D01*
X11104458Y7759047D01*
X11111300Y7784582D01*
Y7785100D01*
D02*
G37*
G36*
X10998200D02*
X10910500D01*
Y7784582D01*
X10917342Y7759047D01*
X10930560Y7736153D01*
X10949253Y7717460D01*
X10972147Y7704242D01*
X10997682Y7697400D01*
X10998200D01*
Y7785100D01*
D02*
G37*
G36*
X3708918Y7771200D02*
X3708400D01*
Y7683500D01*
X3796100D01*
Y7684018D01*
X3789258Y7709553D01*
X3776040Y7732447D01*
X3757347Y7751140D01*
X3734453Y7764358D01*
X3708918Y7771200D01*
D02*
G37*
G36*
X3683000D02*
X3682482D01*
X3656947Y7764358D01*
X3634053Y7751140D01*
X3615360Y7732447D01*
X3602142Y7709553D01*
X3595300Y7684018D01*
Y7683500D01*
X3683000D01*
Y7771200D01*
D02*
G37*
G36*
X10552500Y7759700D02*
X10464800D01*
Y7672000D01*
X10465318D01*
X10490853Y7678842D01*
X10513747Y7692060D01*
X10532440Y7710753D01*
X10545658Y7733647D01*
X10552500Y7759182D01*
Y7759700D01*
D02*
G37*
G36*
X10439400D02*
X10351700D01*
Y7759182D01*
X10358542Y7733647D01*
X10371760Y7710753D01*
X10390453Y7692060D01*
X10413347Y7678842D01*
X10438882Y7672000D01*
X10439400D01*
Y7759700D01*
D02*
G37*
G36*
X11786118Y7644200D02*
X11785600D01*
Y7556500D01*
X11873300D01*
Y7557018D01*
X11866458Y7582553D01*
X11853240Y7605447D01*
X11834547Y7624140D01*
X11811653Y7637358D01*
X11786118Y7644200D01*
D02*
G37*
G36*
X11760200D02*
X11759682D01*
X11734147Y7637358D01*
X11711253Y7624140D01*
X11692560Y7605447D01*
X11679342Y7582553D01*
X11672500Y7557018D01*
Y7556500D01*
X11760200D01*
Y7644200D01*
D02*
G37*
G36*
X8144509Y7591300D02*
X8140700D01*
Y7478600D01*
X8253400D01*
Y7482409D01*
X8244854Y7514302D01*
X8228345Y7542897D01*
X8204997Y7566245D01*
X8176402Y7582754D01*
X8144509Y7591300D01*
D02*
G37*
G36*
X11873300Y7531100D02*
X11785600D01*
Y7443400D01*
X11786118D01*
X11811653Y7450242D01*
X11834547Y7463460D01*
X11853240Y7482153D01*
X11866458Y7505047D01*
X11873300Y7530582D01*
Y7531100D01*
D02*
G37*
G36*
X11760200D02*
X11672500D01*
Y7530582D01*
X11679342Y7505047D01*
X11692560Y7482153D01*
X11711253Y7463460D01*
X11734147Y7450242D01*
X11759682Y7443400D01*
X11760200D01*
Y7531100D01*
D02*
G37*
G36*
X11024118Y7644200D02*
X10997682D01*
X10972147Y7637358D01*
X10949253Y7624140D01*
X10930560Y7605447D01*
X10917342Y7582553D01*
X10910500Y7557018D01*
Y7530582D01*
X10917342Y7505047D01*
X10930560Y7482153D01*
X10949253Y7463460D01*
X10972147Y7450242D01*
X10997682Y7443400D01*
X11024118D01*
X11049653Y7450242D01*
X11072547Y7463460D01*
X11091240Y7482153D01*
X11104458Y7505047D01*
X11111300Y7530582D01*
Y7557018D01*
X11104458Y7582553D01*
X11091240Y7605447D01*
X11072547Y7624140D01*
X11049653Y7637358D01*
X11024118Y7644200D01*
D02*
G37*
G36*
X8253400Y7453200D02*
X8140700D01*
Y7340500D01*
X8144509D01*
X8176402Y7349046D01*
X8204997Y7365555D01*
X8228345Y7388903D01*
X8244854Y7417497D01*
X8253400Y7449391D01*
Y7453200D01*
D02*
G37*
G36*
X8115300D02*
X8002600D01*
Y7449391D01*
X8011146Y7417497D01*
X8027655Y7388903D01*
X8051003Y7365555D01*
X8079598Y7349046D01*
X8111491Y7340500D01*
X8115300D01*
Y7453200D01*
D02*
G37*
G36*
X11024118Y7390200D02*
X11023600D01*
Y7302500D01*
X11111300D01*
Y7303018D01*
X11104458Y7328553D01*
X11091240Y7351447D01*
X11072547Y7370140D01*
X11049653Y7383358D01*
X11024118Y7390200D01*
D02*
G37*
G36*
X10998200D02*
X10997682D01*
X10972147Y7383358D01*
X10949253Y7370140D01*
X10930560Y7351447D01*
X10917342Y7328553D01*
X10910500Y7303018D01*
Y7302500D01*
X10998200D01*
Y7390200D01*
D02*
G37*
G36*
X11786118D02*
X11759682D01*
X11734147Y7383358D01*
X11711253Y7370140D01*
X11692560Y7351447D01*
X11679342Y7328553D01*
X11672500Y7303018D01*
Y7276582D01*
X11679342Y7251047D01*
X11692560Y7228153D01*
X11711253Y7209460D01*
X11734147Y7196242D01*
X11759682Y7189400D01*
X11786118D01*
X11811653Y7196242D01*
X11834547Y7209460D01*
X11853240Y7228153D01*
X11866458Y7251047D01*
X11873300Y7276582D01*
Y7303018D01*
X11866458Y7328553D01*
X11853240Y7351447D01*
X11834547Y7370140D01*
X11811653Y7383358D01*
X11786118Y7390200D01*
D02*
G37*
G36*
X10439400Y7251700D02*
X10351700D01*
Y7251182D01*
X10358542Y7225647D01*
X10371760Y7202753D01*
X10390453Y7184060D01*
X10413347Y7170842D01*
X10438882Y7164000D01*
X10439400D01*
Y7251700D01*
D02*
G37*
G36*
X11786118Y7136200D02*
X11785600D01*
Y7048500D01*
X11873300D01*
Y7049018D01*
X11866458Y7074553D01*
X11853240Y7097447D01*
X11834547Y7116140D01*
X11811653Y7129358D01*
X11786118Y7136200D01*
D02*
G37*
G36*
X11760200D02*
X11759682D01*
X11734147Y7129358D01*
X11711253Y7116140D01*
X11692560Y7097447D01*
X11679342Y7074553D01*
X11672500Y7049018D01*
Y7048500D01*
X11760200D01*
Y7136200D01*
D02*
G37*
G36*
X10439400Y7110800D02*
X10438882D01*
X10413347Y7103958D01*
X10390453Y7090740D01*
X10371760Y7072047D01*
X10358542Y7049153D01*
X10351700Y7023618D01*
Y7023100D01*
X10439400D01*
Y7110800D01*
D02*
G37*
G36*
X11873300Y7023100D02*
X11785600D01*
Y6935400D01*
X11786118D01*
X11811653Y6942242D01*
X11834547Y6955460D01*
X11853240Y6974153D01*
X11866458Y6997047D01*
X11873300Y7022582D01*
Y7023100D01*
D02*
G37*
G36*
X11760200D02*
X11672500D01*
Y7022582D01*
X11679342Y6997047D01*
X11692560Y6974153D01*
X11711253Y6955460D01*
X11734147Y6942242D01*
X11759682Y6935400D01*
X11760200D01*
Y7023100D01*
D02*
G37*
G36*
X6851489Y6193900D02*
X6851300D01*
Y6108700D01*
X6936500D01*
Y6108889D01*
X6929828Y6133788D01*
X6916939Y6156112D01*
X6898712Y6174339D01*
X6876388Y6187228D01*
X6851489Y6193900D01*
D02*
G37*
G36*
X6825900D02*
X6825711D01*
X6800812Y6187228D01*
X6778488Y6174339D01*
X6760261Y6156112D01*
X6747372Y6133788D01*
X6740700Y6108889D01*
Y6108700D01*
X6825900D01*
Y6193900D01*
D02*
G37*
G36*
X8151800Y6210300D02*
X8039100D01*
Y6097600D01*
X8042909D01*
X8074802Y6106146D01*
X8103397Y6122655D01*
X8126745Y6146003D01*
X8143254Y6174598D01*
X8151800Y6206491D01*
Y6210300D01*
D02*
G37*
G36*
X8013700D02*
X7901000D01*
Y6206491D01*
X7909546Y6174598D01*
X7926055Y6146003D01*
X7949403Y6122655D01*
X7977998Y6106146D01*
X8009891Y6097600D01*
X8013700D01*
Y6210300D01*
D02*
G37*
G36*
X6936500Y6083300D02*
X6851300D01*
Y5998100D01*
X6851489D01*
X6876388Y6004772D01*
X6898712Y6017661D01*
X6916939Y6035888D01*
X6929828Y6058212D01*
X6936500Y6083111D01*
Y6083300D01*
D02*
G37*
G36*
X6825900D02*
X6740700D01*
Y6083111D01*
X6747372Y6058212D01*
X6760261Y6035888D01*
X6778488Y6017661D01*
X6800812Y6004772D01*
X6825711Y5998100D01*
X6825900D01*
Y6083300D01*
D02*
G37*
G36*
X11252200Y6048800D02*
X11089500D01*
Y5961100D01*
X11252200D01*
Y6048800D01*
D02*
G37*
G36*
X11831657Y8628630D02*
X10240943D01*
X10221278Y8624718D01*
X10204606Y8613579D01*
X9836427Y8245400D01*
X9797775Y8263732D01*
X9793300Y8267700D01*
X9589700D01*
Y8267182D01*
X9596542Y8241647D01*
X9609760Y8218753D01*
X9628453Y8200060D01*
X9651347Y8186842D01*
X9655564Y8185712D01*
X9678545Y8140064D01*
X9678965Y8130000D01*
X9677708Y8128070D01*
X9673625Y8125927D01*
X9651347Y8119958D01*
X9628453Y8106740D01*
X9609760Y8088047D01*
X9596542Y8065153D01*
X9589700Y8039618D01*
Y8013182D01*
X9596542Y7987647D01*
X9609760Y7964753D01*
X9628453Y7946060D01*
X9651347Y7932842D01*
X9676882Y7926000D01*
X9703318D01*
X9728853Y7932842D01*
X9751747Y7946060D01*
X9770440Y7964753D01*
X9783658Y7987647D01*
X9790500Y8013182D01*
Y8039618D01*
X9787434Y8051061D01*
X10262228Y8525855D01*
X11810372D01*
X12072371Y8263857D01*
Y6532267D01*
X11486494Y5946390D01*
X11440300Y5965525D01*
Y6048800D01*
X11277600D01*
Y5948400D01*
Y5848000D01*
X11322776D01*
X11341910Y5801806D01*
X11052491Y5512387D01*
X9054231D01*
X9039445Y5537997D01*
X9016097Y5561345D01*
X8987502Y5577854D01*
X8955609Y5586400D01*
X8922591D01*
X8890697Y5577854D01*
X8862103Y5561345D01*
X8838755Y5537997D01*
X8822246Y5509402D01*
X8813700Y5477509D01*
Y5444491D01*
X8822246Y5412598D01*
X8838755Y5384003D01*
X8862103Y5360655D01*
X8890697Y5344146D01*
X8922591Y5335600D01*
X8955609D01*
X8987502Y5344146D01*
X9016097Y5360655D01*
X9039445Y5384003D01*
X9054231Y5409613D01*
X11073776D01*
X11093441Y5413524D01*
X11110112Y5424664D01*
X12160094Y6474645D01*
X12171233Y6491317D01*
X12175145Y6510982D01*
Y8285142D01*
X12171233Y8304807D01*
X12160094Y8321478D01*
X11867994Y8613579D01*
X11851323Y8624718D01*
X11831657Y8628630D01*
D02*
G37*
G36*
X4836300Y6018600D02*
X4673600D01*
Y5930900D01*
X4836300D01*
Y6018600D01*
D02*
G37*
G36*
X4648200D02*
X4485500D01*
Y5930900D01*
X4648200D01*
Y6018600D01*
D02*
G37*
G36*
X10589400Y5998000D02*
X10426700D01*
Y5910300D01*
X10589400D01*
Y5998000D01*
D02*
G37*
G36*
X10401300D02*
X10238600D01*
Y5910300D01*
X10401300D01*
Y5998000D01*
D02*
G37*
G36*
X9789300Y5993200D02*
X9626600D01*
Y5905500D01*
X9789300D01*
Y5993200D01*
D02*
G37*
G36*
X9601200D02*
X9438500D01*
Y5905500D01*
X9601200D01*
Y5993200D01*
D02*
G37*
G36*
X11252200Y5935700D02*
X11089500D01*
Y5848000D01*
X11252200D01*
Y5935700D01*
D02*
G37*
G36*
X8938400Y5934500D02*
X8775700D01*
Y5846800D01*
X8938400D01*
Y5934500D01*
D02*
G37*
G36*
X8750300D02*
X8587600D01*
Y5846800D01*
X8750300D01*
Y5934500D01*
D02*
G37*
G36*
X4836300Y5905500D02*
X4673600D01*
Y5817800D01*
X4836300D01*
Y5905500D01*
D02*
G37*
G36*
X4648200D02*
X4485500D01*
Y5817800D01*
X4648200D01*
Y5905500D01*
D02*
G37*
G36*
X10589400Y5884900D02*
X10426700D01*
Y5797200D01*
X10589400D01*
Y5884900D01*
D02*
G37*
G36*
X10401300D02*
X10238600D01*
Y5797200D01*
X10401300D01*
Y5884900D01*
D02*
G37*
G36*
X9789300Y5880100D02*
X9626600D01*
Y5792400D01*
X9789300D01*
Y5880100D01*
D02*
G37*
G36*
X9601200D02*
X9438500D01*
Y5792400D01*
X9601200D01*
Y5880100D01*
D02*
G37*
G36*
X8938400Y5821400D02*
X8775700D01*
Y5733700D01*
X8938400D01*
Y5821400D01*
D02*
G37*
G36*
X8750300D02*
X8587600D01*
Y5733700D01*
X8750300D01*
Y5821400D01*
D02*
G37*
G36*
X5473700Y5803900D02*
X5311000D01*
Y5716200D01*
X5473700D01*
Y5803900D01*
D02*
G37*
G36*
X6591489Y6193900D02*
X6565711D01*
X6540812Y6187228D01*
X6518488Y6174339D01*
X6500261Y6156112D01*
X6487372Y6133788D01*
X6480700Y6108889D01*
Y6083111D01*
X6487372Y6058212D01*
X6500261Y6035888D01*
X6518488Y6017661D01*
X6539913Y6005291D01*
Y5581499D01*
X6527003Y5574045D01*
X6503655Y5550697D01*
X6487146Y5522102D01*
X6478600Y5490209D01*
Y5457191D01*
X6487146Y5425298D01*
X6503655Y5396703D01*
X6527003Y5373355D01*
X6555598Y5356846D01*
X6587491Y5348300D01*
X6620509D01*
X6652402Y5356846D01*
X6680997Y5373355D01*
X6704345Y5396703D01*
X6720854Y5425298D01*
X6729400Y5457191D01*
Y5490209D01*
X6720854Y5522102D01*
X6704345Y5550697D01*
X6680997Y5574045D01*
X6652402Y5590554D01*
X6642687Y5593157D01*
Y6021636D01*
X6656939Y6035888D01*
X6669828Y6058212D01*
X6676500Y6083111D01*
Y6108889D01*
X6669828Y6133788D01*
X6656939Y6156112D01*
X6638712Y6174339D01*
X6616388Y6187228D01*
X6591489Y6193900D01*
D02*
G37*
G36*
X7142909Y6348400D02*
X7109891D01*
X7077998Y6339854D01*
X7049403Y6323345D01*
X7026055Y6299997D01*
X7009546Y6271402D01*
X7001000Y6239509D01*
Y6206491D01*
X7009546Y6174598D01*
X7026055Y6146003D01*
X7049403Y6122655D01*
X7077998Y6106146D01*
X7109891Y6097600D01*
X7142909D01*
X7171474Y6105254D01*
X7452613Y5824115D01*
Y5588831D01*
X7427003Y5574045D01*
X7403655Y5550697D01*
X7387146Y5522102D01*
X7378600Y5490209D01*
Y5457191D01*
X7387146Y5425298D01*
X7403655Y5396703D01*
X7427003Y5373355D01*
X7455597Y5356846D01*
X7487491Y5348300D01*
X7520509D01*
X7552402Y5356846D01*
X7580997Y5373355D01*
X7604345Y5396703D01*
X7615465Y5415963D01*
X7921344D01*
X7922246Y5412598D01*
X7938755Y5384003D01*
X7962103Y5360655D01*
X7990698Y5344146D01*
X8022591Y5335600D01*
X8055609D01*
X8087502Y5344146D01*
X8116097Y5360655D01*
X8139445Y5384003D01*
X8155954Y5412598D01*
X8164500Y5444491D01*
Y5477509D01*
X8155954Y5509402D01*
X8139445Y5537997D01*
X8116097Y5561345D01*
X8087502Y5577854D01*
X8055609Y5586400D01*
X8022591D01*
X7990698Y5577854D01*
X7962103Y5561345D01*
X7938755Y5537997D01*
X7927635Y5518737D01*
X7621756D01*
X7620854Y5522102D01*
X7604345Y5550697D01*
X7580997Y5574045D01*
X7555387Y5588831D01*
Y5845400D01*
X7551476Y5865065D01*
X7540336Y5881736D01*
X7244146Y6177926D01*
X7251800Y6206491D01*
Y6239509D01*
X7243254Y6271402D01*
X7226745Y6299997D01*
X7203397Y6323345D01*
X7174803Y6339854D01*
X7142909Y6348400D01*
D02*
G37*
%LPD*%
D10*
X4480237Y8835600D02*
X5007000Y8308838D01*
Y7972858D02*
X5139500Y7840358D01*
X4768100Y7219257D02*
Y7246574D01*
X5007000Y7972858D02*
Y8308838D01*
X4531043Y6982200D02*
X4768100Y7219257D01*
X4768100Y7246574D02*
Y7724907D01*
X4531043Y8359400D02*
X4706200Y8184242D01*
Y7786807D02*
Y8184242D01*
Y7786807D02*
X4768100Y7724907D01*
X4768100Y7246574D02*
X4768100Y7246574D01*
X5181600Y7721600D02*
X6497650D01*
Y7255484D02*
Y7721600D01*
Y8137936D01*
X5068900Y7094662D02*
Y7434626D01*
X5139500Y7505227D01*
X4045526Y6506000D02*
X4361874D01*
X5139500Y7505227D02*
Y7772400D01*
Y7840358D01*
X4555637Y6581400D02*
X5068900Y7094662D01*
X4437274Y6581400D02*
X4555637D01*
X4361874Y6506000D02*
X4437274Y6581400D01*
X3695700Y8441840D02*
X4089460Y8835600D01*
X5347566Y7289800D02*
X5812934D01*
X5689600Y8293100D02*
X6083300D01*
X6497650Y7255484D02*
X6704634Y7048500D01*
X6743700D02*
X6787334D01*
X6704634D02*
X6743700D01*
X4257300Y6982200D02*
X4531043D01*
X4257300Y8359400D02*
X4531043D01*
X4089460Y8835600D02*
X4480237D01*
X4203700Y8305800D02*
X4257300Y8359400D01*
X4203700Y7035800D02*
X4257300Y6982200D01*
X3695700Y6855826D02*
X4045526Y6506000D01*
X7053422Y7314588D02*
X7454288D01*
X6787334Y7048500D02*
X7053422Y7314588D01*
X7454288D02*
X7454900Y7315200D01*
X7747000Y7099300D02*
Y7467600D01*
X7432200Y6784500D02*
X7454900Y6807200D01*
X7747000Y7099300D01*
Y7467600D02*
X8039100Y7759700D01*
X5511400Y6091600D02*
X5613742D01*
X5486400Y6116600D02*
X5511400Y6091600D01*
X6041236Y6781800D02*
X6096000D01*
X5295900Y6832600D02*
X5990436D01*
X5613742Y6091600D02*
X6007100Y5698242D01*
X5990436Y6832600D02*
X6041236Y6781800D01*
X4819300Y6356000D02*
X5295900Y6832600D01*
X4661300Y6218200D02*
X5359800D01*
X5461400Y6116600D01*
X4686300Y6356000D02*
X4819300D01*
X5461400Y6116600D02*
X5486400D01*
X7454900Y7315200D02*
Y7988300D01*
X7505700Y8039100D01*
X5232400Y8102600D02*
X5422900Y8293100D01*
X5689600D01*
X3352800Y6606857D02*
X3469958Y6489700D01*
X3352800Y6849308D02*
X3470300Y6966808D01*
X3469958Y6489700D02*
X3743062D01*
X3470300Y7002164D02*
X3630936Y7162800D01*
X3470300Y6966808D02*
Y7002164D01*
X3352800Y6606857D02*
Y6849308D01*
X3743062Y6489700D02*
X3952163Y6280600D01*
X3630936Y7162800D02*
X3695700D01*
X6007100Y5208700D02*
Y5698242D01*
X4455237Y6280600D02*
X4530637Y6356000D01*
X3952163Y6280600D02*
X4455237D01*
X4530637Y6356000D02*
X4686300D01*
X4660900Y6218200D02*
X4661300D01*
X3695700Y8432800D02*
Y8441840D01*
Y6855826D02*
Y6908800D01*
X6640114Y8280400D02*
X6705600D01*
X6497650Y8137936D02*
X6640114Y8280400D01*
X4661300Y6218200D02*
X4686300Y6243200D01*
Y6356000D01*
X6096000Y6781800D02*
X6741000D01*
X5295900Y7340600D02*
X5296766D01*
X5347566Y7289800D01*
X5812934D02*
X6007234Y7095500D01*
X6046300D01*
X6096000Y7045800D01*
X6743700Y6784500D02*
X7432200D01*
X6741000Y6781800D02*
X6743700Y6784500D01*
D11*
X4417940Y8685200D02*
X4856600Y8246540D01*
Y7910560D02*
X4918500Y7848660D01*
X4856600Y7910560D02*
Y8246540D01*
X4918500Y7156960D02*
Y7848660D01*
X4593340Y6831800D02*
X4918500Y7156960D01*
X4451350Y7778750D02*
X4483100Y7747000D01*
Y7454900D02*
Y7747000D01*
X4222750Y7778750D02*
X4451350D01*
X4203700Y7797800D02*
X4222750Y7778750D01*
X3911329Y6852895D02*
Y7201171D01*
X3545300Y8777700D02*
X3898900Y9131300D01*
X4432300D01*
X3009900Y7785100D02*
X3327400D01*
X2997200Y7772400D02*
X3009900Y7785100D01*
X3327400D02*
X3695700Y7416800D01*
X4151758Y8685200D02*
X4417940D01*
X4474977Y6831800D02*
X4593340D01*
X3911329Y6852895D02*
X4107824Y6656400D01*
X4053300Y8586742D02*
X4151758Y8685200D01*
X4053300Y8202200D02*
Y8586742D01*
X4107824Y6656400D02*
X4299576D01*
X4474977Y6831800D01*
X3545300Y8329200D02*
X3695700Y8178800D01*
X3545300Y8329200D02*
Y8777700D01*
X9564700Y7466458D02*
Y7647000D01*
X8752707Y8395100D02*
X8957600Y8190207D01*
X8765000Y7390902D02*
Y7515498D01*
X8855952Y7606450D01*
X7442740Y8395100D02*
X8752707D01*
X8957600Y7953897D02*
Y8190207D01*
X8998547Y7606450D02*
X9089500Y7697402D01*
X8855952Y7606450D02*
X8998547D01*
X8889560Y6655210D02*
Y7266342D01*
X9089500Y7697402D02*
Y7821998D01*
X8765000Y7390902D02*
X8889560Y7266342D01*
X8957600Y7953897D02*
X9089500Y7821998D01*
X9564700Y7647000D02*
X9690100Y7772400D01*
X7195890Y8641950D02*
X7442740Y8395100D01*
X9564700Y7466458D02*
X9641358Y7389800D01*
X9742042D01*
X8758793Y8189500D02*
X8794793Y8153500D01*
X7407024Y8189500D02*
X8758793D01*
X8794793Y8153500D02*
X8820500D01*
X8788400Y6554050D02*
X8889560Y6655210D01*
X6602174Y8641950D02*
X7195890D01*
X6481924Y8521700D02*
X6602174Y8641950D01*
X6083300Y8521700D02*
X6481924D01*
X8788400Y6554050D02*
X8914550D01*
X9089500Y7928629D02*
X9164900Y7853229D01*
X8531414Y6910944D02*
X8814160Y7193690D01*
X8260346Y6910944D02*
X8531414D01*
X7977600Y6628198D02*
X8260346Y6910944D01*
X8078402Y6402800D02*
X8977698D01*
X9324332Y6749434D01*
Y6898632D01*
X9690100Y7264400D01*
X8915400Y7453200D02*
X8951929D01*
X7977600Y6503602D02*
X8078402Y6402800D01*
X7977600Y6503602D02*
Y6628198D01*
X9089500Y7928629D02*
Y8144500D01*
X8712200Y7264400D02*
X8784871D01*
X8814160Y7235110D01*
Y7193690D02*
Y7235110D01*
X9164900Y7666171D02*
Y7853229D01*
X8951929Y7453200D02*
X9164900Y7666171D01*
X3695700Y8178800D02*
X3949700Y7924800D01*
Y7543800D02*
Y7924800D01*
X6743700Y7312500D02*
Y7526176D01*
X7407024Y8189500D01*
X9848674Y7389800D02*
X10504042D01*
X10729442Y7164400D01*
X11059642D01*
X9742042Y7389800D02*
X9815500Y7316342D01*
Y7135800D02*
Y7316342D01*
X9690100Y7010400D02*
X9815500Y7135800D01*
X9770360Y7465200D02*
X9773274D01*
X9848674Y7389800D01*
X9690100Y7518400D02*
X9717160D01*
X9770360Y7465200D01*
X11059642Y7164400D02*
X11136300Y7087742D01*
Y6907200D02*
Y7087742D01*
X11010900Y6781800D02*
X11136300Y6907200D01*
X10240943Y8577243D02*
X11831657D01*
X12123758Y8285142D01*
Y6510982D02*
Y8285142D01*
X9690100Y8026400D02*
X10240943Y8577243D01*
X11073776Y5461000D02*
X12123758Y6510982D01*
X8939100Y5461000D02*
X11073776D01*
X8032750Y5467350D02*
X8039100Y5461000D01*
X7510350Y5467350D02*
X8032750D01*
X7504000Y5473700D02*
X7510350Y5467350D01*
X7504000Y5473700D02*
Y5845400D01*
X7126400Y6223000D02*
X7504000Y5845400D01*
X8914550Y6554050D02*
X8915400Y6553200D01*
X8522550Y6554050D02*
X8788400D01*
X8521700Y6554900D02*
X8522550Y6554050D01*
X8516200Y6560400D02*
X8521700Y6554900D01*
X8133500Y6560400D02*
X8516200D01*
X8128000Y6565900D02*
X8133500Y6560400D01*
X9080500Y8153500D02*
X9089500Y8144500D01*
X8939100Y7759700D02*
Y7769987D01*
X8820500Y7888587D02*
X8939100Y7769987D01*
X8820500Y7888587D02*
Y8153500D01*
X8521700Y7454900D02*
X8712200Y7264400D01*
X9690100Y6756400D02*
X10222270D01*
X10347670Y6881800D01*
X10500842D01*
X10654842Y7035800D01*
X11010900D01*
X3949700Y7543800D02*
X4203700Y7289800D01*
X3695700Y7416800D02*
X3911329Y7201171D01*
X11264900Y6248400D02*
X11312840D01*
X11359034Y6294594D01*
Y6367934D01*
X11772900Y6781800D01*
X10452100Y6756400D02*
X10960100Y6248400D01*
X11264900D01*
X10855283D02*
X10960100D01*
X10804483Y6197600D02*
X10855283Y6248400D01*
X10414000Y6197600D02*
X10804483D01*
X10411600Y6195200D02*
X10414000Y6197600D01*
X9616300Y6195200D02*
X10411600D01*
X9613900Y6192800D02*
X9616300Y6195200D01*
X9511840Y6192800D02*
X9613900D01*
X9453140Y6134100D02*
X9511840Y6192800D01*
X8763000Y6134100D02*
X9453140D01*
X6591300Y5486400D02*
X6604000Y5473700D01*
X6591300Y5486400D02*
Y6083300D01*
X6578600Y6096000D02*
X6591300Y6083300D01*
X4053300Y8202200D02*
X4203700Y8051800D01*
X6312250Y6102350D02*
X6318600Y6096000D01*
X6013450Y6102350D02*
X6312250D01*
X6007100Y6108700D02*
X6013450Y6102350D01*
D12*
X7827800Y9058322D02*
Y8878381D01*
Y8968351D01*
X7947761D01*
Y9058322D01*
Y8878381D01*
X8007742Y8968351D02*
X8127703D01*
X8187683Y9058322D02*
Y8878381D01*
X8277654D01*
X8307645Y8908371D01*
Y8938361D01*
X8277654Y8968351D01*
X8187683D01*
X8277654D01*
X8307645Y8998342D01*
Y9028332D01*
X8277654Y9058322D01*
X8187683D01*
X8367625Y8998342D02*
Y8878381D01*
Y8938361D01*
X8397615Y8968351D01*
X8427606Y8998342D01*
X8457596D01*
X8547567Y8878381D02*
X8607547D01*
X8577557D01*
Y8998342D01*
X8547567D01*
X8817479Y9058322D02*
Y8878381D01*
X8727509D01*
X8697518Y8908371D01*
Y8968351D01*
X8727509Y8998342D01*
X8817479D01*
X8937441Y8818400D02*
X8967431D01*
X8997421Y8848390D01*
Y8998342D01*
X8907450D01*
X8877460Y8968351D01*
Y8908371D01*
X8907450Y8878381D01*
X8997421D01*
X9147373D02*
X9087392D01*
X9057402Y8908371D01*
Y8968351D01*
X9087392Y8998342D01*
X9147373D01*
X9177363Y8968351D01*
Y8938361D01*
X9057402D01*
X9537246Y8878381D02*
X9417285D01*
X9537246Y8998342D01*
Y9028332D01*
X9507256Y9058322D01*
X9447275D01*
X9417285Y9028332D01*
X9597227Y8878381D02*
Y8908371D01*
X9627217D01*
Y8878381D01*
X9597227D01*
X9747178Y9028332D02*
X9777169Y9058322D01*
X9837149D01*
X9867140Y9028332D01*
Y8908371D01*
X9837149Y8878381D01*
X9777169D01*
X9747178Y8908371D01*
Y9028332D01*
X10107062Y8968351D02*
X10227023D01*
X10466945Y8878381D02*
X10556916D01*
X10586906Y8908371D01*
X10556916Y8938361D01*
X10496936D01*
X10466945Y8968351D01*
X10496936Y8998342D01*
X10586906D01*
X10646887Y8878381D02*
X10736858D01*
X10766848Y8908371D01*
X10736858Y8938361D01*
X10676877D01*
X10646887Y8968351D01*
X10676877Y8998342D01*
X10766848D01*
X10826829Y8878381D02*
X10916800D01*
X10946790Y8908371D01*
X10916800Y8938361D01*
X10856819D01*
X10826829Y8968351D01*
X10856819Y8998342D01*
X10946790D01*
X11006770Y8878381D02*
X11096741D01*
X11126732Y8908371D01*
X11096741Y8938361D01*
X11036761D01*
X11006770Y8968351D01*
X11036761Y8998342D01*
X11126732D01*
X11186712Y9058322D02*
Y8878381D01*
Y8968351D01*
X11216702Y8998342D01*
X11276683D01*
X11306673Y8968351D01*
Y8878381D01*
X11366654Y9058322D02*
Y8878381D01*
Y8968351D01*
X11396644Y8998342D01*
X11456625D01*
X11486615Y8968351D01*
Y8878381D01*
X11546596Y9058322D02*
Y8878381D01*
Y8968351D01*
X11576586Y8998342D01*
X11636567D01*
X11666557Y8968351D01*
Y8878381D01*
D13*
X8763000Y6134100D02*
D03*
X11264900Y6248400D02*
D03*
X10414000Y6197600D02*
D03*
X9613900Y6192800D02*
D03*
X5486400Y6116600D02*
D03*
X4660900Y6218200D02*
D03*
D14*
X8763000Y5834100D02*
D03*
X5486400Y5816600D02*
D03*
X4660900Y5918200D02*
D03*
X9613900Y5892800D02*
D03*
X10414000Y5897600D02*
D03*
X11264900Y5948400D02*
D03*
D15*
X11772900Y6781800D02*
D03*
X10452100Y6756400D02*
D03*
X4203700Y7797800D02*
D03*
X3695700Y7670800D02*
D03*
X10452100Y7010400D02*
D03*
Y7264400D02*
D03*
Y7772400D02*
D03*
Y8026400D02*
D03*
X9690100Y8280400D02*
D03*
X11772900Y7035800D02*
D03*
Y7543800D02*
D03*
Y8051800D02*
D03*
X11010900Y8305800D02*
D03*
Y7797800D02*
D03*
Y7289800D02*
D03*
X9690100Y8026400D02*
D03*
X3695700Y7162800D02*
D03*
X10452100Y8280400D02*
D03*
Y7518400D02*
D03*
X9690100Y7772400D02*
D03*
Y7518400D02*
D03*
Y7264400D02*
D03*
Y7010400D02*
D03*
X11772900Y8305800D02*
D03*
Y7797800D02*
D03*
Y7289800D02*
D03*
X11010900Y8051800D02*
D03*
Y7543800D02*
D03*
Y7035800D02*
D03*
X3695700Y6908800D02*
D03*
X4203700Y7035800D02*
D03*
Y7289800D02*
D03*
X3695700Y7416800D02*
D03*
X4203700Y7543800D02*
D03*
X3695700Y7924800D02*
D03*
X4203700Y8051800D02*
D03*
X3695700Y8178800D02*
D03*
X4203700Y8305800D02*
D03*
X3695700Y8432800D02*
D03*
X4203700Y8559800D02*
D03*
D16*
X8026400Y6223000D02*
D03*
X8128000Y7465900D02*
D03*
X8939100Y5461000D02*
D03*
X8039100D02*
D03*
X6604000Y5473700D02*
D03*
X7504000D02*
D03*
X8939100Y7759700D02*
D03*
X7126400Y6223000D02*
D03*
X8915400Y7453200D02*
D03*
X6007100Y6108700D02*
D03*
Y5208700D02*
D03*
X8039100Y7759700D02*
D03*
X8915400Y6553200D02*
D03*
X8128000Y6565900D02*
D03*
X8521700Y6554900D02*
D03*
Y7454900D02*
D03*
D17*
X6705600Y8051800D02*
D03*
X6083300Y8064500D02*
D03*
Y8293100D02*
D03*
X6705600Y8280400D02*
D03*
D18*
X6838600Y6096000D02*
D03*
X8820500Y8153500D02*
D03*
X9080500D02*
D03*
X6578600Y6096000D02*
D03*
D19*
X9340500Y8153500D02*
D03*
X6318600Y6096000D02*
D03*
D20*
X7505700Y8547100D02*
D03*
X5232400Y8610600D02*
D03*
X5295900Y7340600D02*
D03*
X7454900Y7315200D02*
D03*
D21*
X6705600Y8509000D02*
D03*
X6083300Y8521700D02*
D03*
D22*
X6096000Y7309800D02*
D03*
X6743700Y6784500D02*
D03*
X6096000Y6781800D02*
D03*
Y7045800D02*
D03*
X6743700Y7312500D02*
D03*
Y7048500D02*
D03*
D23*
X7454900Y6807200D02*
D03*
X5295900Y6832600D02*
D03*
X7505700Y8039100D02*
D03*
X5232400Y8102600D02*
D03*
D24*
X9690100Y6756400D02*
D03*
X11010900Y6781800D02*
D03*
X4203700D02*
D03*
D25*
X4483100Y7454900D02*
D03*
X5665229Y7291025D02*
D03*
X5689600Y8293100D02*
D03*
X4521200Y8331200D02*
D03*
X4432300Y9131300D02*
D03*
X2997200Y7772400D02*
D03*
%TF.MD5,7cbc9e3a69fa4efb169b29f59d307a46*%
M02*
