%TF.GenerationSoftware,Altium Limited,Altium Designer,25.8.1 (18)*%
G04 Layer_Color=32896*
%FSLAX45Y45*%
%MOMM*%
%TF.SameCoordinates,A03D5229-0D84-416C-82DE-D2F162E989C3*%
%TF.FilePolarity,Positive*%
%TF.FileFunction,Legend,Bot*%
%TF.Part,Single*%
G01*
G75*
%TA.AperFunction,NonConductor*%
%ADD14C,0.25400*%
%ADD26C,0.25000*%
%ADD27C,0.20000*%
%ADD28C,0.15240*%
%ADD29C,0.60000*%
%ADD30C,0.12700*%
D14*
X10191699Y4777600D02*
G03*
X10191699Y4777600I-400000J0D01*
G01*
X12388799Y7731900D02*
G03*
X12388799Y7731900I-400000J0D01*
G01*
X11042599Y4760100D02*
G03*
X11042599Y4760100I-400000J0D01*
G01*
X13239699Y7744600D02*
G03*
X13239699Y7744600I-400000J0D01*
G01*
X8527999Y4861700D02*
G03*
X8527999Y4861700I-400000J0D01*
G01*
X9353499D02*
G03*
X9353499Y4861700I-400000J0D01*
G01*
X9494199Y4927600D02*
X9599199D01*
X9546699Y4875100D02*
Y4980100D01*
Y4575100D02*
Y4680100D01*
X12181299Y7581900D02*
X12286300D01*
X12233800Y7529400D02*
Y7634400D01*
Y7829400D02*
Y7934400D01*
X10345099Y4910100D02*
X10450099D01*
X10397599Y4857600D02*
Y4962600D01*
Y4557600D02*
Y4662600D01*
X13032199Y7594600D02*
X13137199D01*
X13084700Y7542100D02*
Y7647100D01*
Y7842100D02*
Y7947100D01*
X7830499Y5011700D02*
X7935499D01*
X7882999Y4959200D02*
Y5064200D01*
Y4659200D02*
Y4764200D01*
X8655999Y5011700D02*
X8760999D01*
X8708499Y4959200D02*
Y5064200D01*
Y4659200D02*
Y4764200D01*
X9555513Y5392379D02*
X9580905Y5417771D01*
X9631688D01*
X9657080Y5392379D01*
Y5290812D01*
X9631688Y5265420D01*
X9580905D01*
X9555513Y5290812D01*
X9403162Y5265420D02*
X9504729D01*
X9403162Y5366987D01*
Y5392379D01*
X9428554Y5417771D01*
X9479337D01*
X9504729Y5392379D01*
X9131308Y5613383D02*
Y5511816D01*
X9105917Y5486424D01*
X9055133D01*
X9029741Y5511816D01*
Y5613383D01*
X9055133Y5638775D01*
X9105917D01*
X9080525Y5587991D02*
X9131308Y5638775D01*
X9105917D02*
X9131308Y5613383D01*
X9283659Y5638775D02*
X9182092D01*
X9283659Y5537208D01*
Y5511816D01*
X9258267Y5486424D01*
X9207484D01*
X9182092Y5511816D01*
X8712183Y5626100D02*
X8610617D01*
X8585225Y5651492D01*
Y5702275D01*
X8610617Y5727667D01*
X8712183D01*
X8737575Y5702275D01*
Y5651492D01*
X8686792Y5676883D02*
X8737575Y5626100D01*
Y5651492D02*
X8712183Y5626100D01*
X8737575Y5575316D02*
Y5524533D01*
Y5549924D01*
X8585225D01*
X8610617Y5575316D01*
X11841480Y4831080D02*
Y4983431D01*
X11765305D01*
X11739913Y4958039D01*
Y4907255D01*
X11765305Y4881863D01*
X11841480D01*
X11790697D02*
X11739913Y4831080D01*
X11587562D02*
X11689129D01*
X11587562Y4932647D01*
Y4958039D01*
X11612954Y4983431D01*
X11663737D01*
X11689129Y4958039D01*
X11752613Y8348939D02*
X11778005Y8374331D01*
X11828788D01*
X11854180Y8348939D01*
Y8247372D01*
X11828788Y8221980D01*
X11778005D01*
X11752613Y8247372D01*
X11701829Y8348939D02*
X11676437Y8374331D01*
X11625654D01*
X11600262Y8348939D01*
Y8323547D01*
X11625654Y8298155D01*
X11651046D01*
X11625654D01*
X11600262Y8272763D01*
Y8247372D01*
X11625654Y8221980D01*
X11676437D01*
X11701829Y8247372D01*
X11790680Y5173980D02*
Y5326331D01*
X11714505D01*
X11689113Y5300939D01*
Y5250155D01*
X11714505Y5224763D01*
X11790680D01*
X11739897D02*
X11689113Y5173980D01*
X11638329D02*
X11587546D01*
X11612937D01*
Y5326331D01*
X11638329Y5300939D01*
X9265953Y7315192D02*
Y7416759D01*
X9291345Y7442151D01*
X9342128D01*
X9367520Y7416759D01*
Y7315192D01*
X9342128Y7289800D01*
X9291345D01*
X9316737Y7340583D02*
X9265953Y7289800D01*
X9291345D02*
X9265953Y7315192D01*
X9138994Y7289800D02*
Y7442151D01*
X9215169Y7365975D01*
X9113602D01*
X8554753Y7330432D02*
Y7431999D01*
X8580145Y7457391D01*
X8630928D01*
X8656320Y7431999D01*
Y7330432D01*
X8630928Y7305040D01*
X8580145D01*
X8605537Y7355823D02*
X8554753Y7305040D01*
X8580145D02*
X8554753Y7330432D01*
X8503969Y7431999D02*
X8478577Y7457391D01*
X8427794D01*
X8402402Y7431999D01*
Y7406607D01*
X8427794Y7381215D01*
X8453186D01*
X8427794D01*
X8402402Y7355823D01*
Y7330432D01*
X8427794Y7305040D01*
X8478577D01*
X8503969Y7330432D01*
X10444480Y7625080D02*
Y7777431D01*
X10368305D01*
X10342913Y7752039D01*
Y7701255D01*
X10368305Y7675863D01*
X10444480D01*
X10393697D02*
X10342913Y7625080D01*
X10215954D02*
Y7777431D01*
X10292129Y7701255D01*
X10190562D01*
X10444480Y7955280D02*
Y8107631D01*
X10368305D01*
X10342913Y8082239D01*
Y8031455D01*
X10368305Y8006063D01*
X10444480D01*
X10393697D02*
X10342913Y7955280D01*
X10292129Y8082239D02*
X10266737Y8107631D01*
X10215954D01*
X10190562Y8082239D01*
Y8056847D01*
X10215954Y8031455D01*
X10241346D01*
X10215954D01*
X10190562Y8006063D01*
Y7980672D01*
X10215954Y7955280D01*
X10266737D01*
X10292129Y7980672D01*
X10355613Y5377139D02*
X10381005Y5402531D01*
X10431788D01*
X10457180Y5377139D01*
Y5275572D01*
X10431788Y5250180D01*
X10381005D01*
X10355613Y5275572D01*
X10304829Y5250180D02*
X10254046D01*
X10279437D01*
Y5402531D01*
X10304829Y5377139D01*
X12603513Y8361639D02*
X12628905Y8387031D01*
X12679688D01*
X12705080Y8361639D01*
Y8260072D01*
X12679688Y8234680D01*
X12628905D01*
X12603513Y8260072D01*
X12476554Y8234680D02*
Y8387031D01*
X12552729Y8310855D01*
X12451162D01*
X7891813Y5478739D02*
X7917205Y5504131D01*
X7967988D01*
X7993380Y5478739D01*
Y5377172D01*
X7967988Y5351780D01*
X7917205D01*
X7891813Y5377172D01*
X7739462Y5504131D02*
X7790246Y5478739D01*
X7841029Y5427955D01*
Y5377172D01*
X7815637Y5351780D01*
X7764854D01*
X7739462Y5377172D01*
Y5402563D01*
X7764854Y5427955D01*
X7841029D01*
X8717313Y5478739D02*
X8742705Y5504131D01*
X8793488D01*
X8818880Y5478739D01*
Y5377172D01*
X8793488Y5351780D01*
X8742705D01*
X8717313Y5377172D01*
X8564962Y5504131D02*
X8666529D01*
Y5427955D01*
X8615746Y5453347D01*
X8590354D01*
X8564962Y5427955D01*
Y5377172D01*
X8590354Y5351780D01*
X8641137D01*
X8666529Y5377172D01*
X11831320Y7439611D02*
Y7312652D01*
X11805928Y7287260D01*
X11755145D01*
X11729753Y7312652D01*
Y7439611D01*
X11678969D02*
X11577402D01*
Y7414219D01*
X11678969Y7312652D01*
Y7287260D01*
X8635975Y5283183D02*
X8661367Y5308575D01*
X8712150D01*
X8737542Y5283183D01*
Y5181617D01*
X8712150Y5156225D01*
X8661367D01*
X8635975Y5181617D01*
X8585192Y5156225D02*
Y5308575D01*
X8509016D01*
X8483624Y5283183D01*
Y5232400D01*
X8509016Y5207008D01*
X8585192D01*
X8534408D02*
X8483624Y5156225D01*
X8432841D02*
X8382057D01*
X8407449D01*
Y5308575D01*
X8432841Y5283183D01*
X8445533Y7454916D02*
X8420141Y7429524D01*
X8369358D01*
X8343966Y7454916D01*
Y7556483D01*
X8369358Y7581875D01*
X8420141D01*
X8445533Y7556483D01*
X8496317Y7581875D02*
Y7429524D01*
X8572492D01*
X8597884Y7454916D01*
Y7505699D01*
X8572492Y7531091D01*
X8496317D01*
X8547100D02*
X8597884Y7581875D01*
X8648667Y7454916D02*
X8674059Y7429524D01*
X8724843D01*
X8750234Y7454916D01*
Y7480308D01*
X8724843Y7505699D01*
X8699451D01*
X8724843D01*
X8750234Y7531091D01*
Y7556483D01*
X8724843Y7581875D01*
X8674059D01*
X8648667Y7556483D01*
X9738393Y7812999D02*
X9763785Y7838391D01*
X9814568D01*
X9839960Y7812999D01*
Y7711432D01*
X9814568Y7686040D01*
X9763785D01*
X9738393Y7711432D01*
X9687609Y7686040D02*
Y7838391D01*
X9611434D01*
X9586042Y7812999D01*
Y7762215D01*
X9611434Y7736823D01*
X9687609D01*
X9636826D02*
X9586042Y7686040D01*
X9459083D02*
Y7838391D01*
X9535259Y7762215D01*
X9433691D01*
X9448767Y5295883D02*
X9474159Y5321275D01*
X9524942D01*
X9550334Y5295883D01*
Y5194317D01*
X9524942Y5168925D01*
X9474159D01*
X9448767Y5194317D01*
X9397983Y5168925D02*
Y5321275D01*
X9321808D01*
X9296416Y5295883D01*
Y5245100D01*
X9321808Y5219708D01*
X9397983D01*
X9347200D02*
X9296416Y5168925D01*
X9144066D02*
X9245633D01*
X9144066Y5270492D01*
Y5295883D01*
X9169457Y5321275D01*
X9220241D01*
X9245633Y5295883D01*
X10421620Y7426911D02*
Y7299952D01*
X10396228Y7274560D01*
X10345445D01*
X10320053Y7299952D01*
Y7426911D01*
X10167702D02*
X10218486Y7401519D01*
X10269269Y7350735D01*
Y7299952D01*
X10243877Y7274560D01*
X10193094D01*
X10167702Y7299952D01*
Y7325343D01*
X10193094Y7350735D01*
X10269269D01*
D26*
X12433100Y7089600D02*
G03*
X12433100Y7089600I-12500J0D01*
G01*
X10261400Y5292900D02*
G03*
X10261400Y5292900I-12500J0D01*
G01*
D27*
X11976100Y7182600D02*
G03*
X12103100Y7182600I63500J0D01*
G01*
X10693399Y5199900D02*
G03*
X10566399Y5199900I-63500J0D01*
G01*
X11774600Y5212600D02*
X12304600D01*
X11774600Y7182600D02*
X11976100D01*
X12103100D02*
X12304600D01*
X11774600Y5212600D02*
Y7182600D01*
X12304600Y5212600D02*
Y7182600D01*
X10364900Y7169900D02*
X10894899D01*
X10693399Y5199900D02*
X10894899D01*
X10364900D02*
X10566399D01*
X10894899D02*
Y7169900D01*
X10364900Y5199900D02*
Y7169900D01*
D28*
X9253220Y5530850D02*
G03*
X9253220Y5530850I-20320J0D01*
G01*
X8542020Y5543550D02*
G03*
X8542020Y5543550I-20320J0D01*
G01*
X9253220Y6318250D02*
G03*
X9253220Y6318250I-20320J0D01*
G01*
X8542020Y6330950D02*
G03*
X8542020Y6330950I-20320J0D01*
G01*
X8135620Y5199380D02*
G03*
X8135620Y5199380I-20320J0D01*
G01*
Y6329680D02*
G03*
X8135620Y6329680I-20320J0D01*
G01*
X9735820Y6355080D02*
G03*
X9735820Y6355080I-20320J0D01*
G01*
Y5173980D02*
G03*
X9735820Y5173980I-20320J0D01*
G01*
X9109200Y5708650D02*
Y6407150D01*
X9372600D01*
Y5708650D02*
Y6407150D01*
X9109200Y5708650D02*
X9372600D01*
X8398000Y5721350D02*
Y6419850D01*
X8661400D01*
Y5721350D02*
Y6419850D01*
X8398000Y5721350D02*
X8661400D01*
X9109200Y6496050D02*
Y7194550D01*
X9372600D01*
Y6496050D02*
Y7194550D01*
X9109200Y6496050D02*
X9372600D01*
X8398000Y6508750D02*
Y7207250D01*
X8661400D01*
Y6508750D02*
Y7207250D01*
X8398000Y6508750D02*
X8661400D01*
X7829550Y5377180D02*
X8324850D01*
Y6433820D01*
X7829550D02*
X8324850D01*
X7829550Y5377180D02*
Y6433820D01*
Y6507480D02*
X8324850D01*
Y7564120D01*
X7829550D02*
X8324850D01*
X7829550Y6507480D02*
Y7564120D01*
X9429750Y6532880D02*
X9925050D01*
Y7589520D01*
X9429750D02*
X9925050D01*
X9429750Y6532880D02*
Y7589520D01*
Y5351780D02*
X9925050D01*
Y6408420D01*
X9429750D02*
X9925050D01*
X9429750Y5351780D02*
Y6408420D01*
D29*
X12234600Y7082600D02*
G03*
X12234600Y7082600I-30000J0D01*
G01*
X10494900Y5299900D02*
G03*
X10494900Y5299900I-30000J0D01*
G01*
D30*
X12443800Y4523000D02*
Y4748000D01*
X11798800Y4523000D02*
X12443800D01*
X11798800D02*
Y4748000D01*
X12443800D01*
X11798800Y4865900D02*
Y5090900D01*
X12443800D01*
Y4865900D02*
Y5090900D01*
X11798800Y4865900D02*
X12443800D01*
X11048500Y7317000D02*
Y7542000D01*
X10403500Y7317000D02*
X11048500D01*
X10403500D02*
Y7542000D01*
X11048500D01*
X10403500Y7647200D02*
Y7872200D01*
X11048500D01*
Y7647200D02*
Y7872200D01*
X10403500Y7647200D02*
X11048500D01*
%TF.MD5,3657e4f83b4603bbd63b7e3bb58efccd*%
M02*
