%TF.GenerationSoftware,Altium Limited,Altium Designer,25.8.1 (18)*%
G04 Layer_Color=0*
%FSLAX45Y45*%
%MOMM*%
%TF.SameCoordinates,A03D5229-0D84-416C-82DE-D2F162E989C3*%
%TF.FilePolarity,Positive*%
%TF.FileFunction,Plated,1,2,PTH,Drill*%
%TF.Part,Single*%
G01*
G75*
%TA.AperFunction,ComponentDrill*%
%ADD39C,0.90000*%
%ADD40C,0.70000*%
%ADD41C,1.14300*%
%ADD42C,0.80000*%
%ADD43C,1.27000*%
%ADD44C,1.52400*%
%TA.AperFunction,ViaDrill,NotFilled*%
%ADD45C,1.00000*%
D39*
X7137400Y5626100D02*
D03*
X6629400Y5753100D02*
D03*
X7137400Y5880100D02*
D03*
X6629400Y6007100D02*
D03*
X7137400Y6134100D02*
D03*
X6629400Y6261100D02*
D03*
X7137400Y6388100D02*
D03*
X6629400Y6515100D02*
D03*
X7137400Y6642100D02*
D03*
X6629400Y6769100D02*
D03*
X7137400Y6896100D02*
D03*
X6629400Y7023100D02*
D03*
X7137400Y7150100D02*
D03*
X6629400Y7277100D02*
D03*
X7137400Y7404100D02*
D03*
X11658600Y5435600D02*
D03*
Y5689600D02*
D03*
Y5943600D02*
D03*
Y6197600D02*
D03*
Y6451600D02*
D03*
Y6705600D02*
D03*
Y6959600D02*
D03*
X12420600Y5435600D02*
D03*
Y5689600D02*
D03*
Y5943600D02*
D03*
Y6197600D02*
D03*
Y6451600D02*
D03*
Y6705600D02*
D03*
Y6959600D02*
D03*
X11010899Y6946900D02*
D03*
Y6692900D02*
D03*
Y6438900D02*
D03*
Y6184900D02*
D03*
Y5930900D02*
D03*
Y5676900D02*
D03*
Y5422900D02*
D03*
X10248899Y6946900D02*
D03*
Y6692900D02*
D03*
Y6438900D02*
D03*
Y6184900D02*
D03*
Y5930900D02*
D03*
Y5676900D02*
D03*
Y5422900D02*
D03*
D40*
X9791699Y4927600D02*
D03*
Y4627600D02*
D03*
X11988799Y7581900D02*
D03*
Y7881900D02*
D03*
X10642599Y4910100D02*
D03*
Y4610100D02*
D03*
X12839699Y7594600D02*
D03*
Y7894600D02*
D03*
X8127999Y5011700D02*
D03*
Y4711700D02*
D03*
X8953499Y5011700D02*
D03*
Y4711700D02*
D03*
D41*
X9232900Y5829300D02*
D03*
Y6057900D02*
D03*
Y6286500D02*
D03*
X8521700Y5842000D02*
D03*
Y6070600D02*
D03*
Y6299200D02*
D03*
X9232900Y6616700D02*
D03*
Y6845300D02*
D03*
Y7073900D02*
D03*
X8521700Y6629400D02*
D03*
Y6858000D02*
D03*
Y7086600D02*
D03*
D42*
X12571300Y4635500D02*
D03*
X11671300D02*
D03*
Y4978400D02*
D03*
X12571300D02*
D03*
X11176000Y7429500D02*
D03*
X10276000D02*
D03*
Y7759700D02*
D03*
X11176000D02*
D03*
D43*
X8115300Y5651500D02*
D03*
Y6781800D02*
D03*
X9715500Y6807200D02*
D03*
Y5626100D02*
D03*
D44*
X8115300Y6159500D02*
D03*
Y7289800D02*
D03*
X9715500Y7315200D02*
D03*
Y6134100D02*
D03*
D45*
X7442200Y7327900D02*
D03*
X7886700Y7899400D02*
D03*
X7454900Y5816600D02*
D03*
X6299200Y6477000D02*
D03*
X8904720Y6316751D02*
D03*
X8902700Y6667500D02*
D03*
X7366000Y6972300D02*
D03*
%TF.MD5,fa7c4e94825410218c139425898fe396*%
M02*
