%TF.GenerationSoftware,Altium Limited,Altium Designer,25.8.1 (18)*%
G04 Layer_Color=8388736*
%FSLAX45Y45*%
%MOMM*%
%TF.SameCoordinates,1B6F2BE7-5339-4887-9720-52C865558AB3*%
%TF.FilePolarity,Negative*%
%TF.FileFunction,Soldermask,Top*%
%TF.Part,Single*%
G01*
G75*
%TA.AperFunction,ComponentPad*%
%ADD26C,2.03200*%
%ADD28C,7.00000*%
%ADD30R,1.77800X1.77800*%
%ADD40C,1.80320*%
%ADD41O,1.70320X3.20320*%
%ADD42R,1.70320X3.20320*%
%ADD43C,1.60020*%
%ADD44C,1.70320*%
%ADD45C,1.77800*%
%ADD46O,3.20320X1.70320*%
%ADD47R,1.85320X1.85320*%
%ADD48C,1.90320*%
%ADD49R,1.60020X1.60020*%
%ADD50R,1.70320X1.70320*%
%ADD51C,1.85320*%
%ADD52R,3.20320X1.70320*%
%ADD53R,1.90320X1.90320*%
%TA.AperFunction,ViaPad*%
%ADD54C,1.70320*%
%ADD55C,1.90320*%
D26*
X9588500Y14439900D02*
D03*
X9613900Y13182600D02*
D03*
X8877300Y13893800D02*
D03*
X8902700Y13258800D02*
D03*
X8394700Y12560300D02*
D03*
X8356600Y14427200D02*
D03*
X10134600Y12649200D02*
D03*
X10109200Y13893800D02*
D03*
D28*
X7378700Y12420600D02*
D03*
X13500101Y3314700D02*
D03*
X12865100Y13385800D02*
D03*
X8432800Y1727200D02*
D03*
D30*
X8902700Y12560300D02*
D03*
X8864600Y14427200D02*
D03*
X8369300Y13893800D02*
D03*
X8394700Y13258800D02*
D03*
X9626600Y12649200D02*
D03*
X9601200Y13893800D02*
D03*
X10096500Y14439900D02*
D03*
X10121900Y13182600D02*
D03*
D40*
X6946900Y9956800D02*
D03*
Y10210800D02*
D03*
Y10464800D02*
D03*
Y10718800D02*
D03*
Y11226800D02*
D03*
Y10972800D02*
D03*
X10871200Y8801100D02*
D03*
Y8547100D02*
D03*
Y8293100D02*
D03*
Y8039100D02*
D03*
Y7785100D02*
D03*
Y7531100D02*
D03*
Y7277100D02*
D03*
Y7023100D02*
D03*
Y6769100D02*
D03*
X6946900Y8788400D02*
D03*
X10934700Y14122400D02*
D03*
X7073900Y5067300D02*
D03*
Y5321300D02*
D03*
X10871200Y9563100D02*
D03*
Y6515100D02*
D03*
Y6261100D02*
D03*
Y6007100D02*
D03*
Y5753100D02*
D03*
Y5499100D02*
D03*
Y5245100D02*
D03*
Y4991100D02*
D03*
Y4737100D02*
D03*
Y4483100D02*
D03*
Y9055100D02*
D03*
Y9309100D02*
D03*
Y9817100D02*
D03*
X7835900Y4483100D02*
D03*
Y4737100D02*
D03*
Y4991100D02*
D03*
Y5245100D02*
D03*
Y5499100D02*
D03*
Y5753100D02*
D03*
Y6007100D02*
D03*
Y6261100D02*
D03*
Y6515100D02*
D03*
Y6769100D02*
D03*
Y7023100D02*
D03*
Y7277100D02*
D03*
Y7531100D02*
D03*
Y7785100D02*
D03*
Y8039100D02*
D03*
Y8293100D02*
D03*
Y8547100D02*
D03*
Y8801100D02*
D03*
Y9817100D02*
D03*
Y9563100D02*
D03*
Y9309100D02*
D03*
Y9055100D02*
D03*
X6946900Y8534400D02*
D03*
X10934700Y13360400D02*
D03*
X6946900Y8280400D02*
D03*
X10934700Y14376401D02*
D03*
X7073900Y5575300D02*
D03*
Y5829300D02*
D03*
X6946900Y9042400D02*
D03*
Y9296400D02*
D03*
X10934700Y13868401D02*
D03*
Y13614400D02*
D03*
X6946900Y8026400D02*
D03*
D41*
X13766800Y5384800D02*
D03*
X13606500Y8636000D02*
D03*
X13517599Y11887200D02*
D03*
X13530299Y11010900D02*
D03*
X13593800Y7747000D02*
D03*
X13754100Y4432300D02*
D03*
D42*
X14066800Y5384800D02*
D03*
X13830299Y11010900D02*
D03*
X13817599Y11887200D02*
D03*
X14054100Y4432300D02*
D03*
X13893800Y7747000D02*
D03*
X13906500Y8636000D02*
D03*
D43*
X10502900Y7023100D02*
D03*
Y6769100D02*
D03*
Y8547100D02*
D03*
Y7531100D02*
D03*
Y8801100D02*
D03*
Y8293100D02*
D03*
Y7785100D02*
D03*
Y7277100D02*
D03*
Y8039100D02*
D03*
Y9563100D02*
D03*
X8216900Y4483100D02*
D03*
X10502900Y4737100D02*
D03*
X8216900D02*
D03*
X10502900Y4991100D02*
D03*
X8216900D02*
D03*
X10502900Y5245100D02*
D03*
X8216900D02*
D03*
X10502900Y5499100D02*
D03*
X8216900D02*
D03*
X10502900Y5753100D02*
D03*
X8216900D02*
D03*
X10502900Y6007100D02*
D03*
X8216900D02*
D03*
X10502900Y6261100D02*
D03*
X8216900D02*
D03*
X10502900Y6515100D02*
D03*
X8216900D02*
D03*
Y6769100D02*
D03*
Y7023100D02*
D03*
Y7277100D02*
D03*
Y7531100D02*
D03*
Y7785100D02*
D03*
Y8039100D02*
D03*
Y8293100D02*
D03*
Y8547100D02*
D03*
Y8801100D02*
D03*
X10502900Y9055100D02*
D03*
X8216900D02*
D03*
X10502900Y9309100D02*
D03*
X8216900D02*
D03*
Y9563100D02*
D03*
X10502900Y9817100D02*
D03*
X8216900D02*
D03*
D44*
X13030200Y8445500D02*
D03*
X12522200Y8826500D02*
D03*
X13017500Y5143500D02*
D03*
X12509500Y5524500D02*
D03*
X12865100Y12141200D02*
D03*
X12357100Y11506200D02*
D03*
X13030200Y8191500D02*
D03*
X12522200Y9080500D02*
D03*
X13017500Y4889500D02*
D03*
X12509500Y5778500D02*
D03*
X12522200Y8318500D02*
D03*
X13030200Y8953500D02*
D03*
X12509500Y5016500D02*
D03*
X13017500Y5651500D02*
D03*
X13030200Y8699500D02*
D03*
X13017500Y5397500D02*
D03*
X12865100Y11887200D02*
D03*
Y12649200D02*
D03*
X12357100Y11760200D02*
D03*
X13017500Y6159500D02*
D03*
X12509500Y5270500D02*
D03*
X13030200Y9461500D02*
D03*
X12522200Y8572500D02*
D03*
X12357100Y10998200D02*
D03*
X12865100Y11125200D02*
D03*
X12357100Y11252200D02*
D03*
X12865100Y11379200D02*
D03*
Y11633200D02*
D03*
X12357100Y12014200D02*
D03*
Y12268200D02*
D03*
X12865100Y12395200D02*
D03*
X12357100Y12522200D02*
D03*
X12522200Y7810500D02*
D03*
X13030200Y7937500D02*
D03*
X12522200Y8064500D02*
D03*
X13030200Y9207500D02*
D03*
X12522200Y9334500D02*
D03*
X12509500Y4508500D02*
D03*
X13017500Y4635500D02*
D03*
X12509500Y4762500D02*
D03*
X13017500Y5905500D02*
D03*
X12509500Y6032500D02*
D03*
D45*
X11112500Y10236200D02*
D03*
Y10490200D02*
D03*
X12166600Y14338300D02*
D03*
X13068300D02*
D03*
X12814301D02*
D03*
X11912600D02*
D03*
D46*
X10731500Y2989300D02*
D03*
X10198100Y1892300D02*
D03*
D47*
X7378700Y4089400D02*
D03*
X7353300Y2425700D02*
D03*
X7366000Y14224001D02*
D03*
D48*
X10731500Y2374900D02*
D03*
X10477500D02*
D03*
D49*
X10502900Y4483100D02*
D03*
D50*
X12865100Y10871200D02*
D03*
X13017500Y4381500D02*
D03*
X13030200Y7683500D02*
D03*
D51*
X7378700Y3581400D02*
D03*
X7353300Y1917700D02*
D03*
X7366000Y13716000D02*
D03*
D52*
X10731500Y3289300D02*
D03*
X10198100Y1592300D02*
D03*
D53*
X10223500Y2374900D02*
D03*
D54*
X11328400Y8216900D02*
D03*
D55*
X9130668Y11861168D02*
D03*
X11785600Y13716000D02*
D03*
X10680700Y12903200D02*
D03*
X7975600Y12319000D02*
D03*
X12776200Y10058400D02*
D03*
%TF.MD5,f433484429af698aa1dbaa38b2765355*%
M02*
