%TF.GenerationSoftware,Altium Limited,Altium Designer,25.8.1 (18)*%
G04 Layer_Color=16711935*
%FSLAX45Y45*%
%MOMM*%
%TF.SameCoordinates,412E6415-05C8-40E6-B22C-806341DFC968*%
%TF.FilePolarity,Positive*%
%TF.FileFunction,Other,Mechanical_13*%
%TF.Part,Single*%
G01*
G75*
%TA.AperFunction,NonConductor*%
%ADD42C,0.20000*%
%ADD45C,0.15240*%
%ADD46C,0.50800*%
%ADD47C,0.12700*%
%ADD66C,0.10000*%
%ADD67C,0.00000*%
%ADD68C,0.02540*%
D42*
X10999700Y3352800D02*
G03*
X10999700Y3352800I-10000J0D01*
G01*
X7249000Y14224001D02*
G03*
X7249000Y14224001I-10000J0D01*
G01*
X7071200Y2425700D02*
G03*
X7071200Y2425700I-10000J0D01*
G01*
X7083900Y4089400D02*
G03*
X7083900Y4089400I-10000J0D01*
G01*
D45*
X11882120Y9050020D02*
Y9542780D01*
X11247120D02*
X11882120D01*
X11247120Y9050020D02*
Y9542780D01*
Y9050020D02*
X11882120D01*
X12694920Y14013181D02*
X13187680D01*
Y14648180D01*
X12694920D02*
X13187680D01*
X12694920Y14013181D02*
Y14648180D01*
X11793220Y14013181D02*
X12285980D01*
Y14648180D01*
X11793220D02*
X12285980D01*
X11793220Y14013181D02*
Y14648180D01*
D46*
X11366500Y9131300D02*
G03*
X11366500Y9207500I0J38100D01*
G01*
D02*
G03*
X11366500Y9131300I0J-38100D01*
G01*
X12776200Y14528799D02*
G03*
X12852400Y14528799I38100J0D01*
G01*
D02*
G03*
X12776200Y14528799I-38100J0D01*
G01*
X11874500D02*
G03*
X11950700Y14528799I38100J0D01*
G01*
D02*
G03*
X11874500Y14528799I-38100J0D01*
G01*
D47*
X8894700Y2749500D02*
Y3212800D01*
Y2749500D02*
X10434700D01*
Y3212800D01*
X8589700Y9486800D02*
Y9573800D01*
X9399700D01*
Y9486800D02*
Y9573800D01*
X9929700Y9486800D02*
Y9573800D01*
X10739700D01*
Y9486800D02*
Y9573800D01*
X10934700Y3212800D02*
Y9486800D01*
X10739700D02*
X10934700D01*
X9399700D02*
X9929700D01*
X8394700D02*
X8589700D01*
X8394700Y3212800D02*
Y9486800D01*
Y3212800D02*
X8894700D01*
X10434700D02*
X10934700D01*
X6956000Y14478000D02*
X7776000D01*
X6956000Y13462000D02*
Y14478000D01*
Y13462000D02*
X7776000D01*
Y14478000D01*
X7598200Y1663700D02*
Y2679700D01*
X6778200Y1663700D02*
X7598200D01*
X6778200D02*
Y2679700D01*
X7598200D01*
X7610900Y3327400D02*
Y4343400D01*
X6790900Y3327400D02*
X7610900D01*
X6790900D02*
Y4343400D01*
X7610900D01*
D66*
X12040100Y3435000D02*
G03*
X12040100Y3435000I-50000J0D01*
G01*
X13246600Y5721000D02*
G03*
X13246600Y5721000I-50000J0D01*
G01*
X12062100Y10750200D02*
Y12770200D01*
X11902100D02*
X12402100D01*
X11902100Y10750200D02*
X12402100D01*
X11902100D02*
Y12770200D01*
X12402100Y10750200D02*
Y12770200D01*
X11900100Y1555000D02*
X12560100D01*
X11900100Y3525000D02*
X12560100D01*
Y1555000D02*
Y3525000D01*
X11900100Y1555000D02*
Y3525000D01*
X13106599Y3841000D02*
X13766600D01*
X13106599Y5811000D02*
X13766600D01*
Y3841000D02*
Y5811000D01*
X13106599Y3841000D02*
Y5811000D01*
X8998700Y1306500D02*
Y2376500D01*
X9468700Y1306500D02*
Y2376500D01*
X8998700Y1306500D02*
X9468700D01*
X8998700Y2376500D02*
X9468700D01*
X9128700Y1306500D02*
Y2376500D01*
D67*
X11834020Y7874000D02*
G03*
X11834020Y7874000I-12700J0D01*
G01*
X13009720Y7886700D02*
G03*
X13009720Y7886700I-12700J0D01*
G01*
X12002770Y8372600D02*
G03*
X12002770Y8372600I-20320J0D01*
G01*
X13717270Y8556500D02*
G03*
X13717270Y8556500I-20320J0D01*
G01*
X9398000Y13893800D02*
G03*
X9398000Y13893800I-20320J0D01*
G01*
X9423400Y12649200D02*
G03*
X9423400Y12649200I-20320J0D01*
G01*
X10365740Y13182600D02*
G03*
X10365740Y13182600I-20320J0D01*
G01*
X10340340Y14439900D02*
G03*
X10340340Y14439900I-20320J0D01*
G01*
X8191500Y13258800D02*
G03*
X8191500Y13258800I-20320J0D01*
G01*
X8166100Y13893800D02*
G03*
X8166100Y13893800I-20320J0D01*
G01*
X9146540Y12560300D02*
G03*
X9146540Y12560300I-20320J0D01*
G01*
X9108440Y14427200D02*
G03*
X9108440Y14427200I-20320J0D01*
G01*
D68*
X11795920Y7979410D02*
X12847479D01*
X11795920Y7641590D02*
X12847479D01*
Y8106410D01*
X11795920D02*
X12847479D01*
X11795920Y7641590D02*
Y8106410D01*
X12971620Y7992110D02*
X14023180D01*
X12971620Y7654290D02*
X14023180D01*
Y8119110D01*
X12971620D02*
X14023180D01*
X12971620Y7654290D02*
Y8119110D01*
X11957050Y8347200D02*
X12630150D01*
Y8585200D01*
X11957050D02*
X12630150D01*
X11957050Y8347200D02*
Y8585200D01*
X13049249Y8581900D02*
X13722350D01*
X13049249Y8343900D02*
Y8581900D01*
Y8343900D02*
X13722350D01*
Y8581900D01*
X9339580Y13620750D02*
Y14090649D01*
X10370820D01*
Y13738225D02*
Y14090649D01*
X10253345Y13620750D02*
X10370820Y13738225D01*
X9339580Y13620750D02*
X10253345D01*
X9364980Y12376150D02*
Y12846049D01*
X10396220D01*
Y12493625D02*
Y12846049D01*
X10278745Y12376150D02*
X10396220Y12493625D01*
X9364980Y12376150D02*
X10278745D01*
X10383520Y12985750D02*
Y13455650D01*
X9352280Y12985750D02*
X10383520D01*
X9352280D02*
Y13338174D01*
X9469755Y13455650D01*
X10383520D01*
X10358120Y14243050D02*
Y14712950D01*
X9326880Y14243050D02*
X10358120D01*
X9326880D02*
Y14595474D01*
X9444355Y14712950D01*
X10358120D01*
X8133080Y12985750D02*
X9046845D01*
X9164320Y13103226D01*
Y13455650D01*
X8133080D02*
X9164320D01*
X8133080Y12985750D02*
Y13455650D01*
X8107680Y13620750D02*
X9021445D01*
X9138920Y13738225D01*
Y14090649D01*
X8107680D02*
X9138920D01*
X8107680Y13620750D02*
Y14090649D01*
X9164320Y12363450D02*
Y12833350D01*
X8133080Y12363450D02*
X9164320D01*
X8133080D02*
Y12715875D01*
X8250555Y12833350D01*
X9164320D01*
X9126220Y14230350D02*
Y14700250D01*
X8094980Y14230350D02*
X9126220D01*
X8094980D02*
Y14582774D01*
X8212455Y14700250D01*
X9126220D01*
X12274075Y8074639D02*
X12316395D01*
X12295235D01*
Y8011160D01*
X12337554D02*
Y8053480D01*
X12358714Y8074639D01*
X12379874Y8053480D01*
Y8011160D01*
Y8042900D01*
X12337554D01*
X12401034Y8074639D02*
Y8011160D01*
X12432774D01*
X12443354Y8021740D01*
Y8032320D01*
X12432774Y8042900D01*
X12401034D01*
X12432774D01*
X12443354Y8053480D01*
Y8064060D01*
X12432774Y8074639D01*
X12401034D01*
X13449776Y8087339D02*
X13492094D01*
X13470935D01*
Y8023860D01*
X13513254D02*
Y8066180D01*
X13534415Y8087339D01*
X13555574Y8066180D01*
Y8023860D01*
Y8055600D01*
X13513254D01*
X13576733Y8087339D02*
Y8023860D01*
X13608475D01*
X13619054Y8034440D01*
Y8045020D01*
X13608475Y8055600D01*
X13576733D01*
X13608475D01*
X13619054Y8066180D01*
Y8076760D01*
X13608475Y8087339D01*
X13576733D01*
%TF.MD5,cb224c20aab650d696a84f4b44a4d98f*%
M02*
