%TF.GenerationSoftware,Altium Limited,Altium Designer,25.8.1 (18)*%
G04 Layer_Color=128*
%FSLAX45Y45*%
%MOMM*%
%TF.SameCoordinates,412E6415-05C8-40E6-B22C-806341DFC968*%
%TF.FilePolarity,Positive*%
%TF.FileFunction,Drillmap*%
%TF.Part,Single*%
G01*
G75*
%TA.AperFunction,NonConductor*%
%ADD47C,0.12700*%
D47*
X8477250Y8686800D02*
X8566150D01*
X8521700Y8642350D02*
Y8731250D01*
X10763250Y8686800D02*
X10852150D01*
X10807700Y8642350D02*
Y8731250D01*
X8477250Y8432800D02*
X8566150D01*
X8521700Y8388350D02*
Y8477250D01*
X8477250Y8178800D02*
X8566150D01*
X8521700Y8134350D02*
Y8223250D01*
X10763250Y8178800D02*
X10852150D01*
X10807700Y8134350D02*
Y8223250D01*
X8477250Y7924800D02*
X8566150D01*
X8521700Y7880350D02*
Y7969250D01*
X10763250Y7924800D02*
X10852150D01*
X10807700Y7880350D02*
Y7969250D01*
X8477250Y7670800D02*
X8566150D01*
X8521700Y7626350D02*
Y7715250D01*
X8477250Y7416800D02*
X8566150D01*
X8521700Y7372350D02*
Y7461250D01*
X8477250Y7162800D02*
X8566150D01*
X8521700Y7118350D02*
Y7207250D01*
X8477250Y6908800D02*
X8566150D01*
X8521700Y6864350D02*
Y6953250D01*
X8477250Y6654800D02*
X8566150D01*
X8521700Y6610350D02*
Y6699250D01*
X8477250Y6400800D02*
X8566150D01*
X8521700Y6356350D02*
Y6445250D01*
X8477250Y6146800D02*
X8566150D01*
X8521700Y6102350D02*
Y6191250D01*
X8477250Y5892800D02*
X8566150D01*
X8521700Y5848350D02*
Y5937250D01*
X8477250Y5638800D02*
X8566150D01*
X8521700Y5594350D02*
Y5683250D01*
X8477250Y5384800D02*
X8566150D01*
X8521700Y5340350D02*
Y5429250D01*
X10763250Y5384800D02*
X10852150D01*
X10807700Y5340350D02*
Y5429250D01*
X8477250Y5130800D02*
X8566150D01*
X8521700Y5086350D02*
Y5175250D01*
X10763250Y5130800D02*
X10852150D01*
X10807700Y5086350D02*
Y5175250D01*
X8477250Y4876800D02*
X8566150D01*
X8521700Y4832350D02*
Y4921250D01*
X10763250Y4876800D02*
X10852150D01*
X10807700Y4832350D02*
Y4921250D01*
X8477250Y4622800D02*
X8566150D01*
X8521700Y4578350D02*
Y4667250D01*
X10763250Y4622800D02*
X10852150D01*
X10807700Y4578350D02*
Y4667250D01*
X8477250Y4368800D02*
X8566150D01*
X8521700Y4324350D02*
Y4413250D01*
X10763250Y4368800D02*
X10852150D01*
X10807700Y4324350D02*
Y4413250D01*
X8477250Y4114800D02*
X8566150D01*
X8521700Y4070350D02*
Y4159250D01*
X10763250Y4114800D02*
X10852150D01*
X10807700Y4070350D02*
Y4159250D01*
X8477250Y3860800D02*
X8566150D01*
X8521700Y3816350D02*
Y3905250D01*
X10763250Y3860800D02*
X10852150D01*
X10807700Y3816350D02*
Y3905250D01*
X8477250Y3606800D02*
X8566150D01*
X8521700Y3562350D02*
Y3651250D01*
X10763250Y3606800D02*
X10852150D01*
X10807700Y3562350D02*
Y3651250D01*
X8477250Y3352800D02*
X8566150D01*
X8521700Y3308350D02*
Y3397250D01*
X10763250Y3352800D02*
X10852150D01*
X10807700Y3308350D02*
Y3397250D01*
X10763250Y8432800D02*
X10852150D01*
X10807700Y8388350D02*
Y8477250D01*
X10763250Y6908800D02*
X10852150D01*
X10807700Y6864350D02*
Y6953250D01*
X10763250Y6146800D02*
X10852150D01*
X10807700Y6102350D02*
Y6191250D01*
X10763250Y6654800D02*
X10852150D01*
X10807700Y6610350D02*
Y6699250D01*
X10763250Y7162800D02*
X10852150D01*
X10807700Y7118350D02*
Y7207250D01*
X10763250Y7670800D02*
X10852150D01*
X10807700Y7626350D02*
Y7715250D01*
X10763250Y6400800D02*
X10852150D01*
X10807700Y6356350D02*
Y6445250D01*
X10763250Y7416800D02*
X10852150D01*
X10807700Y7372350D02*
Y7461250D01*
X10763250Y5638800D02*
X10852150D01*
X10807700Y5594350D02*
Y5683250D01*
X10763250Y5892800D02*
X10852150D01*
X10807700Y5848350D02*
Y5937250D01*
X11126000Y3860800D02*
X11226000D01*
X11176000Y3810800D02*
Y3910800D01*
X11126000Y4622800D02*
X11226000D01*
X11176000Y4572800D02*
Y4672800D01*
X11126000Y5130800D02*
X11226000D01*
X11176000Y5080800D02*
Y5180800D01*
X11126000Y3606800D02*
X11226000D01*
X11176000Y3556800D02*
Y3656800D01*
X11126000Y4114800D02*
X11226000D01*
X11176000Y4064800D02*
Y4164800D01*
X11126000Y4876800D02*
X11226000D01*
X11176000Y4826800D02*
Y4926800D01*
X8090700Y7670800D02*
X8190700D01*
X8140700Y7620800D02*
Y7720800D01*
X6896900Y10464800D02*
X6996900D01*
X6946900Y10414800D02*
Y10514800D01*
X11126000Y4368800D02*
X11226000D01*
X11176000Y4318800D02*
Y4418800D01*
X8090700Y4622800D02*
X8190700D01*
X8140700Y4572800D02*
Y4672800D01*
X8090700Y7416800D02*
X8190700D01*
X8140700Y7366800D02*
Y7466800D01*
X6896900Y10210800D02*
X6996900D01*
X6946900Y10160800D02*
Y10260800D01*
X6896900Y8026400D02*
X6996900D01*
X6946900Y7976400D02*
Y8076400D01*
X6896900Y9296400D02*
X6996900D01*
X6946900Y9246400D02*
Y9346400D01*
X6896900Y9042400D02*
X6996900D01*
X6946900Y8992400D02*
Y9092400D01*
X6896900Y8280400D02*
X6996900D01*
X6946900Y8230400D02*
Y8330400D01*
X6896900Y8534400D02*
X6996900D01*
X6946900Y8484400D02*
Y8584400D01*
X6896900Y8788400D02*
X6996900D01*
X6946900Y8738400D02*
Y8838400D01*
X6871500Y7175500D02*
X6971500D01*
X6921500Y7125500D02*
Y7225500D01*
X6871500Y6921500D02*
X6971500D01*
X6921500Y6871500D02*
Y6971500D01*
X6871500Y6667500D02*
X6971500D01*
X6921500Y6617500D02*
Y6717500D01*
X6871500Y6413500D02*
X6971500D01*
X6921500Y6363500D02*
Y6463500D01*
X13081799Y9245600D02*
X13181799D01*
X13131799Y9195600D02*
Y9295600D01*
X13081799Y9995600D02*
X13181799D01*
X13131799Y9945600D02*
Y10045600D01*
X12312100Y12522200D02*
X12402100D01*
X12357100Y12477200D02*
Y12567200D01*
X12820100Y12395200D02*
X12910100D01*
X12865100Y12350200D02*
Y12440200D01*
X12312100Y12268200D02*
X12402100D01*
X12357100Y12223200D02*
Y12313200D01*
X12312100Y12014200D02*
X12402100D01*
X12357100Y11969200D02*
Y12059200D01*
X12820100Y11633200D02*
X12910100D01*
X12865100Y11588200D02*
Y11678200D01*
X12820100Y11379200D02*
X12910100D01*
X12865100Y11334200D02*
Y11424200D01*
X12312100Y11252200D02*
X12402100D01*
X12357100Y11207200D02*
Y11297200D01*
X12820100Y11125200D02*
X12910100D01*
X12865100Y11080200D02*
Y11170200D01*
X12312100Y10998200D02*
X12402100D01*
X12357100Y10953200D02*
Y11043200D01*
X12820100Y10871200D02*
X12910100D01*
X12865100Y10826200D02*
Y10916200D01*
X12312100Y11760200D02*
X12402100D01*
X12357100Y11715200D02*
Y11805200D01*
X12820100Y12649200D02*
X12910100D01*
X12865100Y12604200D02*
Y12694200D01*
X12820100Y11887200D02*
X12910100D01*
X12865100Y11842200D02*
Y11932200D01*
X12312100Y11506200D02*
X12402100D01*
X12357100Y11461200D02*
Y11551200D01*
X12820100Y12141200D02*
X12910100D01*
X12865100Y12096200D02*
Y12186200D01*
X11126000Y7670800D02*
X11226000D01*
X11176000Y7620800D02*
Y7720800D01*
X11126000Y7924800D02*
X11226000D01*
X11176000Y7874800D02*
Y7974800D01*
X13444501Y12217400D02*
X13514500D01*
X13479500Y12182400D02*
Y12252400D01*
X11120400Y11709400D02*
X11190400D01*
X11155400Y11674400D02*
Y11744400D01*
X11120400Y12509500D02*
X11190400D01*
X11155400Y12474500D02*
Y12544500D01*
X13697900Y7886700D02*
X13824899D01*
X13761400Y7823200D02*
Y7950200D01*
X12522200Y7874000D02*
X12649200D01*
X12585700Y7810500D02*
Y7937500D01*
X11834500Y3799000D02*
X11914500D01*
X11874500Y3759000D02*
Y3839000D01*
X11809100Y5069000D02*
X11889100D01*
X11849100Y5029000D02*
Y5109000D01*
X9563100Y12649200D02*
X9690100D01*
X9626600Y12585700D02*
Y12712700D01*
X9537700Y13893800D02*
X9664700D01*
X9601200Y13830299D02*
Y13957300D01*
X8839200Y12560300D02*
X8966200D01*
X8902700Y12496800D02*
Y12623800D01*
X8801100Y14427200D02*
X8928100D01*
X8864600Y14363699D02*
Y14490700D01*
X7133200Y2425700D02*
X7243200D01*
X7188200Y2370700D02*
Y2480700D01*
X9825000Y2159000D02*
X9895000D01*
X9860000Y2124000D02*
Y2194000D01*
X9233700Y2095500D02*
X9333700D01*
X9283700Y2045500D02*
Y2145500D01*
X13772600Y5588000D02*
X13862601D01*
X13817599Y5543000D02*
Y5633000D01*
X12566100Y3302000D02*
X12656100D01*
X12611100Y3257000D02*
Y3347000D01*
X9233700Y1841500D02*
X9333700D01*
X9283700Y1791500D02*
Y1891500D01*
X10884700Y13614400D02*
X10984700D01*
X10934700Y13564400D02*
Y13664400D01*
X11503660Y9423400D02*
X11610340D01*
X11557000Y9370060D02*
Y9476740D01*
X13482600Y11188700D02*
X13552600D01*
X13517599Y11153700D02*
Y11223700D01*
X9807500Y1333500D02*
X9877500D01*
X9842500Y1298500D02*
Y1368500D01*
X13147600Y1743800D02*
X13217599D01*
X13182600Y1708800D02*
Y1778800D01*
X11402900Y1536700D02*
X11472900D01*
X11437900Y1501700D02*
Y1571700D01*
X7145900Y4089400D02*
X7255900D01*
X7200900Y4034400D02*
Y4144400D01*
X13401601Y2243900D02*
X13471600D01*
X13436600Y2208900D02*
Y2278900D01*
X11352100Y2374900D02*
X11422100D01*
X11387100Y2339900D02*
Y2409900D01*
X6896900Y10718800D02*
X6996900D01*
X6946900Y10668800D02*
Y10768800D01*
X13772600Y5334000D02*
X13862601D01*
X13817599Y5289000D02*
Y5379000D01*
X13772600Y5080000D02*
X13862601D01*
X13817599Y5035000D02*
Y5125000D01*
X13772600Y4572000D02*
X13862601D01*
X13817599Y4527000D02*
Y4617000D01*
X13772600Y4318000D02*
X13862601D01*
X13817599Y4273000D02*
Y4363000D01*
X13010600Y4064000D02*
X13100600D01*
X13055600Y4019000D02*
Y4109000D01*
X12566100Y3048000D02*
X12656100D01*
X12611100Y3003000D02*
Y3093000D01*
X12566100Y2540000D02*
X12656100D01*
X12611100Y2495000D02*
Y2585000D01*
X12566100Y2032000D02*
X12656100D01*
X12611100Y1987000D02*
Y2077000D01*
X11804100Y1778000D02*
X11894100D01*
X11849100Y1733000D02*
Y1823000D01*
X11804100Y2286000D02*
X11894100D01*
X11849100Y2241000D02*
Y2331000D01*
X11804100Y2794000D02*
X11894100D01*
X11849100Y2749000D02*
Y2839000D01*
X9233700Y1587500D02*
X9333700D01*
X9283700Y1537500D02*
Y1637500D01*
X13841100Y6415200D02*
X13921100D01*
X13881100Y6375200D02*
Y6455200D01*
X11796400Y6440600D02*
X11876400D01*
X11836400Y6400600D02*
Y6480600D01*
X13100050Y8470900D02*
X13214349D01*
X13157201Y8413750D02*
Y8528050D01*
X12465050Y8458200D02*
X12579350D01*
X12522200Y8401050D02*
Y8515350D01*
X12722000Y6781900D02*
X12817000D01*
X12769500Y6734400D02*
Y6829400D01*
X13502699Y6781800D02*
X13597701D01*
X13550200Y6734300D02*
Y6829300D01*
X11126000Y8686800D02*
X11226000D01*
X11176000Y8636800D02*
Y8736800D01*
X10884700Y13360400D02*
X10984700D01*
X10934700Y13310400D02*
Y13410400D01*
X13744501Y12217400D02*
X13814500D01*
X13779500Y12182400D02*
Y12252400D01*
X13782600Y11188700D02*
X13852600D01*
X13817599Y11153700D02*
Y11223700D01*
X10107500Y1333500D02*
X10177500D01*
X10142500Y1298500D02*
Y1368500D01*
X10125000Y2159000D02*
X10195000D01*
X10160000Y2124000D02*
Y2194000D01*
X8090700Y3352800D02*
X8190700D01*
X8140700Y3302800D02*
Y3402800D01*
X11420400Y11709400D02*
X11490400D01*
X11455400Y11674400D02*
Y11744400D01*
X9537700Y13182600D02*
X9690100D01*
X9613900Y13106400D02*
Y13258800D01*
X9512300Y14439900D02*
X9664700D01*
X9588500Y14363699D02*
Y14516100D01*
X11052100Y2374900D02*
X11122100D01*
X11087100Y2339900D02*
Y2409900D01*
X11102900Y1536700D02*
X11172900D01*
X11137900Y1501700D02*
Y1571700D01*
X13147600Y1443800D02*
X13217599D01*
X13182600Y1408800D02*
Y1478800D01*
X13401601Y2543900D02*
X13471600D01*
X13436600Y2508900D02*
Y2578900D01*
X11420400Y12509500D02*
X11490400D01*
X11455400Y12474500D02*
Y12544500D01*
X8826500Y13258800D02*
X8978900D01*
X8902700Y13182600D02*
Y13335001D01*
X8801100Y13893800D02*
X8953500D01*
X8877300Y13817599D02*
Y13970000D01*
X13014960Y14338300D02*
X13121640D01*
X13068300Y14284959D02*
Y14391640D01*
X12113260Y14338300D02*
X12219940D01*
X12166600Y14284959D02*
Y14391640D01*
X7133200Y1917700D02*
X7243200D01*
X7188200Y1862700D02*
Y1972700D01*
X7145900Y3581400D02*
X7255900D01*
X7200900Y3526400D02*
Y3636400D01*
X6896900Y10972800D02*
X6996900D01*
X6946900Y10922800D02*
Y11022800D01*
X6896900Y11226800D02*
X6996900D01*
X6946900Y11176800D02*
Y11276800D01*
X12621900Y5969000D02*
X12701900D01*
X12661900Y5929000D02*
Y6009000D01*
X12621900Y5069000D02*
X12701900D01*
X12661900Y5029000D02*
Y5109000D01*
X13010600Y5080000D02*
X13100600D01*
X13055600Y5035000D02*
Y5125000D01*
X12566100Y1778000D02*
X12656100D01*
X12611100Y1733000D02*
Y1823000D01*
X12566100Y2286000D02*
X12656100D01*
X12611100Y2241000D02*
Y2331000D01*
X12566100Y2794000D02*
X12656100D01*
X12611100Y2749000D02*
Y2839000D01*
X11804100Y2032000D02*
X11894100D01*
X11849100Y1987000D02*
Y2077000D01*
X11804100Y2540000D02*
X11894100D01*
X11849100Y2495000D02*
Y2585000D01*
X11804100Y3048000D02*
X11894100D01*
X11849100Y3003000D02*
Y3093000D01*
X11804100Y3302000D02*
X11894100D01*
X11849100Y3257000D02*
Y3347000D01*
X13772600Y4064000D02*
X13862601D01*
X13817599Y4019000D02*
Y4109000D01*
X13772600Y4826000D02*
X13862601D01*
X13817599Y4781000D02*
Y4871000D01*
X13010600Y4318000D02*
X13100600D01*
X13055600Y4273000D02*
Y4363000D01*
X13010600Y4572000D02*
X13100600D01*
X13055600Y4527000D02*
Y4617000D01*
X13010600Y4826000D02*
X13100600D01*
X13055600Y4781000D02*
Y4871000D01*
X13010600Y5334000D02*
X13100600D01*
X13055600Y5289000D02*
Y5379000D01*
X13010600Y5588000D02*
X13100600D01*
X13055600Y5543000D02*
Y5633000D01*
X12609200Y3810000D02*
X12689200D01*
X12649200Y3770000D02*
Y3850000D01*
X12609200Y4710000D02*
X12689200D01*
X12649200Y4670000D02*
Y4750000D01*
X11834500Y4699000D02*
X11914500D01*
X11874500Y4659000D02*
Y4739000D01*
X11809100Y5969000D02*
X11889100D01*
X11849100Y5929000D02*
Y6009000D01*
X12253600Y5054600D02*
X12333600D01*
X12293600Y5014600D02*
Y5094600D01*
X12253600Y5954600D02*
X12333600D01*
X12293600Y5914600D02*
Y5994600D01*
X11994200Y7874000D02*
X12121200D01*
X12057700Y7810500D02*
Y7937500D01*
X12258200Y7874000D02*
X12385200D01*
X12321700Y7810500D02*
Y7937500D01*
X12253600Y3810000D02*
X12333600D01*
X12293600Y3770000D02*
Y3850000D01*
X12253600Y4710000D02*
X12333600D01*
X12293600Y4670000D02*
Y4750000D01*
X13169901Y7886700D02*
X13296899D01*
X13233400Y7823200D02*
Y7950200D01*
X13433900Y7886700D02*
X13560899D01*
X13497400Y7823200D02*
Y7950200D01*
X13242700Y6781800D02*
X13337700D01*
X13290199Y6734300D02*
Y6829300D01*
X12982700Y6781800D02*
X13077699D01*
X13030200Y6734300D02*
Y6829300D01*
X12462000Y6781900D02*
X12557000D01*
X12509500Y6734400D02*
Y6829400D01*
X12202000Y6781900D02*
X12297000D01*
X12249500Y6734400D02*
Y6829400D01*
X12007850Y8458200D02*
X12122150D01*
X12065000Y8401050D02*
Y8515350D01*
X12236450Y8458200D02*
X12350750D01*
X12293600Y8401050D02*
Y8515350D01*
X13557249Y8470900D02*
X13671550D01*
X13614400Y8413750D02*
Y8528050D01*
X13328650Y8470900D02*
X13442950D01*
X13385800Y8413750D02*
Y8528050D01*
X13841100Y7315200D02*
X13921100D01*
X13881100Y7275200D02*
Y7355200D01*
X11796400Y7340600D02*
X11876400D01*
X11836400Y7300600D02*
Y7380600D01*
X11126000Y8178800D02*
X11226000D01*
X11176000Y8128800D02*
Y8228800D01*
X11126000Y8432800D02*
X11226000D01*
X11176000Y8382800D02*
Y8482800D01*
X8090700Y5384800D02*
X8190700D01*
X8140700Y5334800D02*
Y5434800D01*
X8090700Y5130800D02*
X8190700D01*
X8140700Y5080800D02*
Y5180800D01*
X8090700Y4876800D02*
X8190700D01*
X8140700Y4826800D02*
Y4926800D01*
X8090700Y4368800D02*
X8190700D01*
X8140700Y4318800D02*
Y4418800D01*
X8090700Y4114800D02*
X8190700D01*
X8140700Y4064800D02*
Y4164800D01*
X8090700Y3860800D02*
X8190700D01*
X8140700Y3810800D02*
Y3910800D01*
X8090700Y3606800D02*
X8190700D01*
X8140700Y3556800D02*
Y3656800D01*
X10033000Y13893800D02*
X10185400D01*
X10109200Y13817599D02*
Y13970000D01*
X10058400Y12649200D02*
X10210800D01*
X10134600Y12573000D02*
Y12725400D01*
X10058400Y13182600D02*
X10185400D01*
X10121900Y13119099D02*
Y13246100D01*
X10033000Y14439900D02*
X10160000D01*
X10096500Y14376401D02*
Y14503400D01*
X8331200Y13258800D02*
X8458200D01*
X8394700Y13195300D02*
Y13322301D01*
X8305800Y13893800D02*
X8432800D01*
X8369300Y13830299D02*
Y13957300D01*
X7311000Y13716000D02*
X7421000D01*
X7366000Y13661000D02*
Y13771001D01*
X7311000Y14224001D02*
X7421000D01*
X7366000Y14169000D02*
Y14278999D01*
X11503660Y9169400D02*
X11610340D01*
X11557000Y9116060D02*
Y9222740D01*
X10884700Y13868401D02*
X10984700D01*
X10934700Y13818401D02*
Y13918401D01*
X10884700Y14376401D02*
X10984700D01*
X10934700Y14326401D02*
Y14426401D01*
X10884700Y14122400D02*
X10984700D01*
X10934700Y14072400D02*
Y14172400D01*
X8090700Y5638800D02*
X8190700D01*
X8140700Y5588800D02*
Y5688800D01*
X8090700Y5892800D02*
X8190700D01*
X8140700Y5842800D02*
Y5942800D01*
X8090700Y6146800D02*
X8190700D01*
X8140700Y6096800D02*
Y6196800D01*
X8090700Y6400800D02*
X8190700D01*
X8140700Y6350800D02*
Y6450800D01*
X8090700Y6654800D02*
X8190700D01*
X8140700Y6604800D02*
Y6704800D01*
X8090700Y6908800D02*
X8190700D01*
X8140700Y6858800D02*
Y6958800D01*
X8090700Y7162800D02*
X8190700D01*
X8140700Y7112800D02*
Y7212800D01*
X8090700Y8686800D02*
X8190700D01*
X8140700Y8636800D02*
Y8736800D01*
X8090700Y8178800D02*
X8190700D01*
X8140700Y8128800D02*
Y8228800D01*
X8090700Y7924800D02*
X8190700D01*
X8140700Y7874800D02*
Y7974800D01*
X8090700Y8432800D02*
X8190700D01*
X8140700Y8382800D02*
Y8482800D01*
X11126000Y7416800D02*
X11226000D01*
X11176000Y7366800D02*
Y7466800D01*
X12760960Y14338300D02*
X12867641D01*
X12814301Y14284959D02*
Y14391640D01*
X11859260Y14338300D02*
X11965940D01*
X11912600Y14284959D02*
Y14391640D01*
X6896900Y9956800D02*
X6996900D01*
X6946900Y9906800D02*
Y10006800D01*
X11126000Y7162800D02*
X11226000D01*
X11176000Y7112800D02*
Y7212800D01*
X11126000Y6908800D02*
X11226000D01*
X11176000Y6858800D02*
Y6958800D01*
X8280400Y14427200D02*
X8432800D01*
X8356600Y14350999D02*
Y14503400D01*
X8318500Y12560300D02*
X8470900D01*
X8394700Y12484100D02*
Y12636500D01*
X11126000Y6146800D02*
X11226000D01*
X11176000Y6096800D02*
Y6196800D01*
X11126000Y3352800D02*
X11226000D01*
X11176000Y3302800D02*
Y3402800D01*
X11126000Y6400800D02*
X11226000D01*
X11176000Y6350800D02*
Y6450800D01*
X11126000Y6654800D02*
X11226000D01*
X11176000Y6604800D02*
Y6704800D01*
X11126000Y5638800D02*
X11226000D01*
X11176000Y5588800D02*
Y5688800D01*
X11126000Y5892800D02*
X11226000D01*
X11176000Y5842800D02*
Y5942800D01*
X11126000Y5384800D02*
X11226000D01*
X11176000Y5334800D02*
Y5434800D01*
X7213700Y12420600D02*
X7543700D01*
X7378700Y12255600D02*
Y12585600D01*
X13335100Y3314700D02*
X13665100D01*
X13500101Y3149700D02*
Y3479700D01*
X12700100Y13385800D02*
X13030099D01*
X12865100Y13220799D02*
Y13550800D01*
X8267800Y1727200D02*
X8597800D01*
X8432800Y1562200D02*
Y1892200D01*
X11583200Y6223000D02*
X11683200D01*
X11633200Y6173000D02*
Y6273000D01*
X11481600Y6794500D02*
X11581600D01*
X11531600Y6744500D02*
Y6844500D01*
X7265200Y9258300D02*
X7365200D01*
X7315200Y9208300D02*
Y9308300D01*
X12218200Y10566400D02*
X12318200D01*
X12268200Y10516400D02*
Y10616400D01*
X12815100Y2400300D02*
X12915100D01*
X12865100Y2350300D02*
Y2450300D01*
X8687600Y2133600D02*
X8787600D01*
X8737600Y2083600D02*
Y2183600D01*
X11291100Y13652499D02*
X11391100D01*
X11341100Y13602499D02*
Y13702499D01*
X13069099Y12573000D02*
X13169099D01*
X13119099Y12523000D02*
Y12623000D01*
X12332500Y13258800D02*
X12432500D01*
X12382500Y13208800D02*
Y13308800D01*
X14034300Y10795000D02*
X14134300D01*
X14084300Y10745000D02*
Y10845000D01*
X11684800Y11239500D02*
X11784800D01*
X11734800Y11189500D02*
Y11289500D01*
X11570500Y10896600D02*
X11670500D01*
X11620500Y10846600D02*
Y10946600D01*
X13094501Y10934700D02*
X13194501D01*
X13144501Y10884700D02*
Y10984700D01*
X11392700Y8902700D02*
X11492700D01*
X11442700Y8852700D02*
Y8952700D01*
X12798249Y3596702D02*
X12898248D01*
X12848248Y3546702D02*
Y3646702D01*
X12789700Y8458200D02*
X12889700D01*
X12839700Y8408200D02*
Y8508200D01*
X13488200Y7226300D02*
X13588200D01*
X13538200Y7176300D02*
Y7276300D01*
X12650000Y6451600D02*
X12750000D01*
X12700000Y6401600D02*
Y6501600D01*
X10579900Y1333500D02*
X10679900D01*
X10629900Y1283500D02*
Y1383500D01*
X10986300Y11252200D02*
X11086300D01*
X11036300Y11202200D02*
Y11302200D01*
X10109718Y11485534D02*
X10209717D01*
X10159718Y11435534D02*
Y11535533D01*
X7430300Y10579100D02*
X7530300D01*
X7480300Y10529100D02*
Y10629100D01*
X13127679Y6088221D02*
X13227679D01*
X13177679Y6038221D02*
Y6138221D01*
X11100600Y9626600D02*
X11200600D01*
X11150600Y9576600D02*
Y9676600D01*
X13094501Y11658600D02*
X13194501D01*
X13144501Y11608600D02*
Y11708600D01*
X12586500Y7366000D02*
X12686500D01*
X12636500Y7316000D02*
Y7416000D01*
X12091200Y7239000D02*
X12191200D01*
X12141200Y7189000D02*
Y7289000D01*
X13100912Y7575796D02*
X13200912D01*
X13150912Y7525796D02*
Y7625796D01*
X13424699Y6096000D02*
X13524699D01*
X13474699Y6046000D02*
Y6146000D01*
X11468900Y4648200D02*
X11568900D01*
X11518900Y4598200D02*
Y4698200D01*
X11507000Y3035300D02*
X11607000D01*
X11557000Y2985300D02*
Y3085300D01*
X10579900Y13373100D02*
X10679900D01*
X10629900Y13323100D02*
Y13423100D01*
X12065800Y12966701D02*
X12165800D01*
X12115800Y12916701D02*
Y13016701D01*
X11291100Y14224001D02*
X11391100D01*
X11341100Y14174001D02*
Y14274001D01*
X14097800Y8329600D02*
X14197800D01*
X14147800Y8279600D02*
Y8379600D01*
X13387231Y7505068D02*
X13487231D01*
X13437231Y7455068D02*
Y7555068D01*
X11976900Y10325100D02*
X12076900D01*
X12026900Y10275100D02*
Y10375100D01*
X11976900Y9855200D02*
X12076900D01*
X12026900Y9805200D02*
Y9905200D01*
%TF.MD5,8293fd4a441ac9bfc28928905a9c7771*%
M02*
