%TF.GenerationSoftware,Altium Limited,Altium Designer,25.8.1 (18)*%
G04 Layer_Color=65535*
%FSLAX45Y45*%
%MOMM*%
%TF.SameCoordinates,412E6415-05C8-40E6-B22C-806341DFC968*%
%TF.FilePolarity,Positive*%
%TF.FileFunction,Legend,Top*%
%TF.Part,Single*%
G01*
G75*
%TA.AperFunction,NonConductor*%
%ADD15C,0.25400*%
%ADD42C,0.20000*%
%ADD43C,0.25000*%
%ADD44C,0.60000*%
%ADD45C,0.15240*%
%ADD46C,0.50800*%
%ADD47C,0.12700*%
D15*
X14081799Y9625600D02*
G03*
X14081799Y9625600I-950000J0D01*
G01*
X11705400Y12509500D02*
G03*
X11705400Y12509500I-400000J0D01*
G01*
X10392500Y1333500D02*
G03*
X10392500Y1333500I-400000J0D01*
G01*
X10410000Y2159000D02*
G03*
X10410000Y2159000I-400000J0D01*
G01*
X14067599Y11188700D02*
G03*
X14067599Y11188700I-400000J0D01*
G01*
X14029500Y12217400D02*
G03*
X14029500Y12217400I-400000J0D01*
G01*
X11705400Y11709400D02*
G03*
X11705400Y11709400I-400000J0D01*
G01*
X11687900Y1536700D02*
G03*
X11687900Y1536700I-400000J0D01*
G01*
X13582600Y1593800D02*
G03*
X13582600Y1593800I-400000J0D01*
G01*
X13836600Y2393900D02*
G03*
X13836600Y2393900I-400000J0D01*
G01*
X11637100Y2374900D02*
G03*
X11637100Y2374900I-400000J0D01*
G01*
X12671792Y9245600D02*
X12776792D01*
X12724292Y9193100D02*
Y9298100D01*
Y9943100D02*
Y10048100D01*
X11402900Y12754500D02*
X11507900D01*
X11102900D02*
X11207900D01*
X11155400Y12702000D02*
Y12807001D01*
X9842500Y1526000D02*
Y1631000D01*
X9790000Y1578500D02*
X9895000D01*
X10090000D02*
X10195000D01*
X9860000Y2351500D02*
Y2456500D01*
X9807500Y2404000D02*
X9912500D01*
X10107500D02*
X10212500D01*
X13517599Y11381200D02*
Y11486200D01*
X13465100Y11433700D02*
X13570100D01*
X13765100D02*
X13870100D01*
X13479500Y12409900D02*
Y12514900D01*
X13427000Y12462400D02*
X13532001D01*
X13727000D02*
X13832001D01*
X11155400Y11901900D02*
Y12006900D01*
X11102900Y11954400D02*
X11207900D01*
X11402900D02*
X11507900D01*
X11085400Y1291700D02*
X11190400D01*
X11385400D02*
X11490400D01*
X11437900Y1239200D02*
Y1344200D01*
X13427600Y1391300D02*
Y1496300D01*
Y1691300D02*
Y1796300D01*
X13375101Y1743800D02*
X13480099D01*
X13191600Y2491400D02*
Y2596400D01*
Y2191400D02*
Y2296400D01*
X13139101Y2243900D02*
X13244099D01*
X11387100Y2077400D02*
Y2182400D01*
X11334600Y2129900D02*
X11439600D01*
X11034600D02*
X11139600D01*
X8392160Y9829751D02*
Y9702792D01*
X8417552Y9677400D01*
X8468335D01*
X8493727Y9702792D01*
Y9829751D01*
X8544511Y9804359D02*
X8569903Y9829751D01*
X8620686D01*
X8646078Y9804359D01*
Y9778967D01*
X8620686Y9753575D01*
X8595294D01*
X8620686D01*
X8646078Y9728183D01*
Y9702792D01*
X8620686Y9677400D01*
X8569903D01*
X8544511Y9702792D01*
X7302508Y9207475D02*
X7251725D01*
X7277117D01*
Y9080517D01*
X7251725Y9055125D01*
X7226333D01*
X7200941Y9080517D01*
X7353292Y9182083D02*
X7378684Y9207475D01*
X7429467D01*
X7454859Y9182083D01*
Y9156692D01*
X7429467Y9131300D01*
X7404075D01*
X7429467D01*
X7454859Y9105908D01*
Y9080517D01*
X7429467Y9055125D01*
X7378684D01*
X7353292Y9080517D01*
X7239029Y7238975D02*
X7188245D01*
X7213637D01*
Y7112017D01*
X7188245Y7086625D01*
X7162854D01*
X7137462Y7112017D01*
X7289812Y7086625D02*
X7340596D01*
X7315204D01*
Y7238975D01*
X7289812Y7213583D01*
X7416771D02*
X7442163Y7238975D01*
X7492947D01*
X7518339Y7213583D01*
Y7188192D01*
X7492947Y7162800D01*
X7467555D01*
X7492947D01*
X7518339Y7137408D01*
Y7112017D01*
X7492947Y7086625D01*
X7442163D01*
X7416771Y7112017D01*
X12296107Y10792419D02*
X12270715Y10817811D01*
X12219932D01*
X12194540Y10792419D01*
Y10690852D01*
X12219932Y10665460D01*
X12270715D01*
X12296107Y10690852D01*
X12448458Y10817811D02*
X12346891D01*
Y10741635D01*
X12397674Y10767027D01*
X12423066D01*
X12448458Y10741635D01*
Y10690852D01*
X12423066Y10665460D01*
X12372283D01*
X12346891Y10690852D01*
X11899900Y13025072D02*
Y12898112D01*
X11925292Y12872720D01*
X11976075D01*
X12001467Y12898112D01*
Y13025072D01*
X12153818D02*
X12052251D01*
Y12948895D01*
X12103034Y12974287D01*
X12128426D01*
X12153818Y12948895D01*
Y12898112D01*
X12128426Y12872720D01*
X12077643D01*
X12052251Y12898112D01*
X12567920Y6154420D02*
Y6306771D01*
X12644095D01*
X12669487Y6281379D01*
Y6230595D01*
X12644095Y6205203D01*
X12567920D01*
X12618703D02*
X12669487Y6154420D01*
X12720271D02*
X12771054D01*
X12745663D01*
Y6306771D01*
X12720271Y6281379D01*
X11018487Y13124139D02*
X10993095Y13149532D01*
X10942312D01*
X10916920Y13124139D01*
Y13022572D01*
X10942312Y12997180D01*
X10993095D01*
X11018487Y13022572D01*
X11170838Y13149532D02*
X11120054Y13124139D01*
X11069271Y13073355D01*
Y13022572D01*
X11094663Y12997180D01*
X11145446D01*
X11170838Y13022572D01*
Y13047963D01*
X11145446Y13073355D01*
X11069271D01*
X11468141Y3606775D02*
Y3479817D01*
X11493533Y3454425D01*
X11544317D01*
X11569708Y3479817D01*
Y3606775D01*
X11722059D02*
X11671275Y3581383D01*
X11620492Y3530600D01*
Y3479817D01*
X11645884Y3454425D01*
X11696667D01*
X11722059Y3479817D01*
Y3505208D01*
X11696667Y3530600D01*
X11620492D01*
X9707847Y1948139D02*
X9682455Y1973531D01*
X9631672D01*
X9606280Y1948139D01*
Y1846572D01*
X9631672Y1821180D01*
X9682455D01*
X9707847Y1846572D01*
X9758631Y1821180D02*
X9809414D01*
X9784023D01*
Y1973531D01*
X9758631Y1948139D01*
X9885590D02*
X9910981Y1973531D01*
X9961765D01*
X9987157Y1948139D01*
Y1846572D01*
X9961765Y1821180D01*
X9910981D01*
X9885590Y1846572D01*
Y1948139D01*
X9723087Y2773639D02*
X9697695Y2799031D01*
X9646912D01*
X9621520Y2773639D01*
Y2672072D01*
X9646912Y2646680D01*
X9697695D01*
X9723087Y2672072D01*
X9773871D02*
X9799263Y2646680D01*
X9850046D01*
X9875438Y2672072D01*
Y2773639D01*
X9850046Y2799031D01*
X9799263D01*
X9773871Y2773639D01*
Y2748247D01*
X9799263Y2722855D01*
X9875438D01*
X13380687Y11803339D02*
X13355295Y11828731D01*
X13304512D01*
X13279120Y11803339D01*
Y11701772D01*
X13304512Y11676380D01*
X13355295D01*
X13380687Y11701772D01*
X13431471Y11676380D02*
X13482254D01*
X13456863D01*
Y11828731D01*
X13431471Y11803339D01*
X13558430Y11676380D02*
X13609213D01*
X13583821D01*
Y11828731D01*
X13558430Y11803339D01*
X13342587Y12832039D02*
X13317195Y12857431D01*
X13266412D01*
X13241020Y12832039D01*
Y12730472D01*
X13266412Y12705080D01*
X13317195D01*
X13342587Y12730472D01*
X13393372Y12705080D02*
X13444154D01*
X13418764D01*
Y12857431D01*
X13393372Y12832039D01*
X13621896Y12705080D02*
X13520329D01*
X13621896Y12806647D01*
Y12832039D01*
X13596506Y12857431D01*
X13545721D01*
X13520329Y12832039D01*
X12974319Y6068011D02*
Y5941052D01*
X12999712Y5915660D01*
X13050494D01*
X13075887Y5941052D01*
Y6068011D01*
X13126671D02*
X13228238D01*
Y6042619D01*
X13126671Y5941052D01*
Y5915660D01*
X12555220Y4897120D02*
Y5049471D01*
X12631395D01*
X12656787Y5024079D01*
Y4973295D01*
X12631395Y4947903D01*
X12555220D01*
X12606003D02*
X12656787Y4897120D01*
X12783746D02*
Y5049471D01*
X12707571Y4973295D01*
X12809138D01*
X11780520Y4884420D02*
Y5036771D01*
X11856695D01*
X11882087Y5011379D01*
Y4960595D01*
X11856695Y4935203D01*
X11780520D01*
X11831303D02*
X11882087Y4884420D01*
X12034438Y5036771D02*
X11932871D01*
Y4960595D01*
X11983654Y4985987D01*
X12009046D01*
X12034438Y4960595D01*
Y4909812D01*
X12009046Y4884420D01*
X11958263D01*
X11932871Y4909812D01*
X11755120Y6154420D02*
Y6306771D01*
X11831295D01*
X11856687Y6281379D01*
Y6230595D01*
X11831295Y6205203D01*
X11755120D01*
X11805903D02*
X11856687Y6154420D01*
X12009038D02*
X11907471D01*
X12009038Y6255987D01*
Y6281379D01*
X11983646Y6306771D01*
X11932863D01*
X11907471Y6281379D01*
X12199620Y6141720D02*
Y6294071D01*
X12275795D01*
X12301187Y6268679D01*
Y6217895D01*
X12275795Y6192503D01*
X12199620D01*
X12250403D02*
X12301187Y6141720D01*
X12351971Y6268679D02*
X12377363Y6294071D01*
X12428146D01*
X12453538Y6268679D01*
Y6243287D01*
X12428146Y6217895D01*
X12402754D01*
X12428146D01*
X12453538Y6192503D01*
Y6167112D01*
X12428146Y6141720D01*
X12377363D01*
X12351971Y6167112D01*
X11610340Y8366711D02*
Y8239752D01*
X11635732Y8214360D01*
X11686515D01*
X11711907Y8239752D01*
Y8366711D01*
X11762691Y8239752D02*
X11788083Y8214360D01*
X11838866D01*
X11864258Y8239752D01*
Y8341319D01*
X11838866Y8366711D01*
X11788083D01*
X11762691Y8341319D01*
Y8315927D01*
X11788083Y8290535D01*
X11864258D01*
X12199620Y4897120D02*
Y5049471D01*
X12275795D01*
X12301187Y5024079D01*
Y4973295D01*
X12275795Y4947903D01*
X12199620D01*
X12250403D02*
X12301187Y4897120D01*
X12453538Y5049471D02*
X12402754Y5024079D01*
X12351971Y4973295D01*
Y4922512D01*
X12377363Y4897120D01*
X12428146D01*
X12453538Y4922512D01*
Y4947903D01*
X12428146Y4973295D01*
X12351971D01*
X12786360Y8381951D02*
Y8254992D01*
X12811752Y8229600D01*
X12862535D01*
X12887927Y8254992D01*
Y8381951D01*
X12938712Y8229600D02*
X12989494D01*
X12964104D01*
Y8381951D01*
X12938712Y8356559D01*
X13065669D02*
X13091061Y8381951D01*
X13141846D01*
X13167236Y8356559D01*
Y8254992D01*
X13141846Y8229600D01*
X13091061D01*
X13065669Y8254992D01*
Y8356559D01*
X13065727Y7150092D02*
Y7251659D01*
X13040335Y7277051D01*
X12989552D01*
X12964160Y7251659D01*
Y7150092D01*
X12989552Y7124700D01*
X13040335D01*
X13014943Y7175483D02*
X13065727Y7124700D01*
X13040335D02*
X13065727Y7150092D01*
X13116512Y7124700D02*
X13167294D01*
X13141904D01*
Y7277051D01*
X13116512Y7251659D01*
X12283407Y7150092D02*
Y7251659D01*
X12258015Y7277051D01*
X12207232D01*
X12181840Y7251659D01*
Y7150092D01*
X12207232Y7124700D01*
X12258015D01*
X12232623Y7175483D02*
X12283407Y7124700D01*
X12258015D02*
X12283407Y7150092D01*
X12435758Y7124700D02*
X12334191D01*
X12435758Y7226267D01*
Y7251659D01*
X12410366Y7277051D01*
X12359583D01*
X12334191Y7251659D01*
X11866847Y8719812D02*
Y8821379D01*
X11841455Y8846771D01*
X11790672D01*
X11765280Y8821379D01*
Y8719812D01*
X11790672Y8694420D01*
X11841455D01*
X11816063Y8745203D02*
X11866847Y8694420D01*
X11841455D02*
X11866847Y8719812D01*
X11917631Y8821379D02*
X11943023Y8846771D01*
X11993806D01*
X12019198Y8821379D01*
Y8795987D01*
X11993806Y8770595D01*
X11968414D01*
X11993806D01*
X12019198Y8745203D01*
Y8719812D01*
X11993806Y8694420D01*
X11943023D01*
X11917631Y8719812D01*
X13141927Y8717272D02*
Y8818839D01*
X13116534Y8844231D01*
X13065752D01*
X13040359Y8818839D01*
Y8717272D01*
X13065752Y8691880D01*
X13116534D01*
X13091142Y8742663D02*
X13141927Y8691880D01*
X13116534D02*
X13141927Y8717272D01*
X13268886Y8691880D02*
Y8844231D01*
X13192711Y8768055D01*
X13294278D01*
X13787120Y7500620D02*
Y7652971D01*
X13863295D01*
X13888687Y7627579D01*
Y7576795D01*
X13863295Y7551403D01*
X13787120D01*
X13837903D02*
X13888687Y7500620D01*
X13939471Y7627579D02*
X13964864Y7652971D01*
X14015646D01*
X14041039Y7627579D01*
Y7602187D01*
X14015646Y7576795D01*
X14041039Y7551403D01*
Y7526012D01*
X14015646Y7500620D01*
X13964864D01*
X13939471Y7526012D01*
Y7551403D01*
X13964864Y7576795D01*
X13939471Y7602187D01*
Y7627579D01*
X13964864Y7576795D02*
X14015646D01*
X11742420Y7526020D02*
Y7678371D01*
X11818595D01*
X11843987Y7652979D01*
Y7602195D01*
X11818595Y7576803D01*
X11742420D01*
X11793203D02*
X11843987Y7526020D01*
X11894771Y7678371D02*
X11996338D01*
Y7652979D01*
X11894771Y7551412D01*
Y7526020D01*
X11018487Y12324039D02*
X10993095Y12349431D01*
X10942312D01*
X10916920Y12324039D01*
Y12222472D01*
X10942312Y12197080D01*
X10993095D01*
X11018487Y12222472D01*
X11069271Y12324039D02*
X11094663Y12349431D01*
X11145446D01*
X11170838Y12324039D01*
Y12298647D01*
X11145446Y12273255D01*
X11170838Y12247863D01*
Y12222472D01*
X11145446Y12197080D01*
X11094663D01*
X11069271Y12222472D01*
Y12247863D01*
X11094663Y12273255D01*
X11069271Y12298647D01*
Y12324039D01*
X11094663Y12273255D02*
X11145446D01*
X9248107Y14325558D02*
X9222715Y14350951D01*
X9171932D01*
X9146540Y14325558D01*
Y14223991D01*
X9171932Y14198599D01*
X9222715D01*
X9248107Y14223991D01*
X9298891Y14198599D02*
Y14350951D01*
X9375066D01*
X9400458Y14325558D01*
Y14274776D01*
X9375066Y14249384D01*
X9298891D01*
X9349674D02*
X9400458Y14198599D01*
X9552809Y14350951D02*
X9451241D01*
Y14274776D01*
X9502025Y14300166D01*
X9527417D01*
X9552809Y14274776D01*
Y14223991D01*
X9527417Y14198599D01*
X9476633D01*
X9451241Y14223991D01*
X9273507Y13080959D02*
X9248115Y13106351D01*
X9197332D01*
X9171940Y13080959D01*
Y12979391D01*
X9197332Y12953999D01*
X9248115D01*
X9273507Y12979391D01*
X9324291Y12953999D02*
Y13106351D01*
X9400466D01*
X9425858Y13080959D01*
Y13030174D01*
X9400466Y13004784D01*
X9324291D01*
X9375074D02*
X9425858Y12953999D01*
X9578209Y13106351D02*
X9527425Y13080959D01*
X9476641Y13030174D01*
Y12979391D01*
X9502033Y12953999D01*
X9552817D01*
X9578209Y12979391D01*
Y13004784D01*
X9552817Y13030174D01*
X9476641D01*
X9446227Y13690559D02*
X9420835Y13715952D01*
X9370052D01*
X9344660Y13690559D01*
Y13588992D01*
X9370052Y13563600D01*
X9420835D01*
X9446227Y13588992D01*
X9497011Y13563600D02*
Y13715952D01*
X9573186D01*
X9598578Y13690559D01*
Y13639775D01*
X9573186Y13614383D01*
X9497011D01*
X9547794D02*
X9598578Y13563600D01*
X9649361Y13715952D02*
X9750929D01*
Y13690559D01*
X9649361Y13588992D01*
Y13563600D01*
X9420827Y14950398D02*
X9395435Y14975790D01*
X9344652D01*
X9319260Y14950398D01*
Y14848833D01*
X9344652Y14823441D01*
X9395435D01*
X9420827Y14848833D01*
X9471611Y14823441D02*
Y14975790D01*
X9547786D01*
X9573178Y14950398D01*
Y14899615D01*
X9547786Y14874223D01*
X9471611D01*
X9522394D02*
X9573178Y14823441D01*
X9623961Y14950398D02*
X9649353Y14975790D01*
X9700137D01*
X9725529Y14950398D01*
Y14925008D01*
X9700137Y14899615D01*
X9725529Y14874223D01*
Y14848833D01*
X9700137Y14823441D01*
X9649353D01*
X9623961Y14848833D01*
Y14874223D01*
X9649353Y14899615D01*
X9623961Y14925008D01*
Y14950398D01*
X9649353Y14899615D02*
X9700137D01*
X7810508Y4140175D02*
X7759725D01*
X7785117D01*
Y4013217D01*
X7759725Y3987825D01*
X7734333D01*
X7708941Y4013217D01*
X7861292Y4140175D02*
X7962859D01*
Y4114783D01*
X7861292Y4013217D01*
Y3987825D01*
X11430021Y8013675D02*
X11379237D01*
X11404629D01*
Y7886717D01*
X11379237Y7861325D01*
X11353845D01*
X11328454Y7886717D01*
X11480804Y7861325D02*
X11531588D01*
X11506196D01*
Y8013675D01*
X11480804Y7988283D01*
X11607763Y7861325D02*
X11658547D01*
X11633155D01*
Y8013675D01*
X11607763Y7988283D01*
X9014460Y2616151D02*
Y2489192D01*
X9039852Y2463800D01*
X9090635D01*
X9116027Y2489192D01*
Y2616151D01*
X9166811Y2463800D02*
X9217594D01*
X9192203D01*
Y2616151D01*
X9166811Y2590759D01*
X11003247Y2151339D02*
X10977855Y2176731D01*
X10927072D01*
X10901680Y2151339D01*
Y2049772D01*
X10927072Y2024380D01*
X10977855D01*
X11003247Y2049772D01*
X11155598Y2024380D02*
X11054031D01*
X11155598Y2125947D01*
Y2151339D01*
X11130206Y2176731D01*
X11079423D01*
X11054031Y2151339D01*
X12898087Y2209759D02*
X12872694Y2235151D01*
X12821912D01*
X12796520Y2209759D01*
Y2108192D01*
X12821912Y2082800D01*
X12872694D01*
X12898087Y2108192D01*
X12948871Y2209759D02*
X12974263Y2235151D01*
X13025046D01*
X13050438Y2209759D01*
Y2184367D01*
X13025046Y2158975D01*
X12999654D01*
X13025046D01*
X13050438Y2133583D01*
Y2108192D01*
X13025046Y2082800D01*
X12974263D01*
X12948871Y2108192D01*
X8041607Y13690559D02*
X8016215Y13715952D01*
X7965432D01*
X7940040Y13690559D01*
Y13588992D01*
X7965432Y13563600D01*
X8016215D01*
X8041607Y13588992D01*
X8092391Y13563600D02*
Y13715952D01*
X8168566D01*
X8193958Y13690559D01*
Y13639775D01*
X8168566Y13614383D01*
X8092391D01*
X8143174D02*
X8193958Y13563600D01*
X8244741Y13690559D02*
X8270133Y13715952D01*
X8320917D01*
X8346309Y13690559D01*
Y13665167D01*
X8320917Y13639775D01*
X8295525D01*
X8320917D01*
X8346309Y13614383D01*
Y13588992D01*
X8320917Y13563600D01*
X8270133D01*
X8244741Y13588992D01*
X8016207Y14325558D02*
X7990815Y14350951D01*
X7940032D01*
X7914640Y14325558D01*
Y14223991D01*
X7940032Y14198599D01*
X7990815D01*
X8016207Y14223991D01*
X8066991Y14198599D02*
Y14350951D01*
X8143166D01*
X8168558Y14325558D01*
Y14274776D01*
X8143166Y14249384D01*
X8066991D01*
X8117774D02*
X8168558Y14198599D01*
X8295517D02*
Y14350951D01*
X8219341Y14274776D01*
X8320909D01*
X6985041Y13220724D02*
Y13373074D01*
X7061217D01*
X7086608Y13347684D01*
Y13296899D01*
X7061217Y13271507D01*
X6985041D01*
X7238959Y13220724D02*
X7137392D01*
X7238959Y13322292D01*
Y13347684D01*
X7213567Y13373074D01*
X7162784D01*
X7137392Y13347684D01*
X11353767Y9791651D02*
X11302983D01*
X11328375D01*
Y9664692D01*
X11302983Y9639300D01*
X11277592D01*
X11252200Y9664692D01*
X11404551Y9639300D02*
X11455334D01*
X11429943D01*
Y9791651D01*
X11404551Y9766259D01*
X10929587Y14737032D02*
X10878803D01*
X10904195D01*
Y14610072D01*
X10878803Y14584680D01*
X10853412D01*
X10828020Y14610072D01*
X11081938Y14584680D02*
X10980371D01*
X11081938Y14686247D01*
Y14711639D01*
X11056546Y14737032D01*
X11005763D01*
X10980371Y14711639D01*
X7772408Y5727675D02*
X7721625D01*
X7747017D01*
Y5600717D01*
X7721625Y5575325D01*
X7696233D01*
X7670841Y5600717D01*
X7823192D02*
X7848584Y5575325D01*
X7899367D01*
X7924759Y5600717D01*
Y5702283D01*
X7899367Y5727675D01*
X7848584D01*
X7823192Y5702283D01*
Y5676892D01*
X7848584Y5651500D01*
X7924759D01*
X8445529Y8788375D02*
X8394745D01*
X8420137D01*
Y8661417D01*
X8394745Y8636025D01*
X8369354D01*
X8343962Y8661417D01*
X8496312Y8636025D02*
X8547096D01*
X8521704D01*
Y8788375D01*
X8496312Y8762983D01*
X8724839Y8636025D02*
X8623271D01*
X8724839Y8737592D01*
Y8762983D01*
X8699447Y8788375D01*
X8648663D01*
X8623271Y8762983D01*
X7315208Y11163275D02*
X7264425D01*
X7289817D01*
Y11036317D01*
X7264425Y11010925D01*
X7239033D01*
X7213641Y11036317D01*
X7442167Y11010925D02*
Y11163275D01*
X7365992Y11087100D01*
X7467559D01*
X11417308Y5460975D02*
X11366525D01*
X11391917D01*
Y5334017D01*
X11366525Y5308625D01*
X11341133D01*
X11315741Y5334017D01*
X11468092Y5435583D02*
X11493484Y5460975D01*
X11544267D01*
X11569659Y5435583D01*
Y5410192D01*
X11544267Y5384800D01*
X11569659Y5359408D01*
Y5334017D01*
X11544267Y5308625D01*
X11493484D01*
X11468092Y5334017D01*
Y5359408D01*
X11493484Y5384800D01*
X11468092Y5410192D01*
Y5435583D01*
X11493484Y5384800D02*
X11544267D01*
X11417329Y7746975D02*
X11366545D01*
X11391937D01*
Y7620017D01*
X11366545Y7594625D01*
X11341154D01*
X11315762Y7620017D01*
X11468112Y7594625D02*
X11518896D01*
X11493504D01*
Y7746975D01*
X11468112Y7721583D01*
X11595071D02*
X11620463Y7746975D01*
X11671247D01*
X11696639Y7721583D01*
Y7620017D01*
X11671247Y7594625D01*
X11620463D01*
X11595071Y7620017D01*
Y7721583D01*
X13152087Y3009859D02*
X13126695Y3035251D01*
X13075912D01*
X13050520Y3009859D01*
Y2908292D01*
X13075912Y2882900D01*
X13126695D01*
X13152087Y2908292D01*
X13279047Y2882900D02*
Y3035251D01*
X13202872Y2959075D01*
X13304437D01*
X7053580Y12847321D02*
Y12999670D01*
X7104363Y12948888D01*
X7155147Y12999670D01*
Y12847321D01*
X7282106D02*
Y12999670D01*
X7205931Y12923495D01*
X7307498D01*
X13174980Y3741420D02*
Y3893771D01*
X13225763Y3842987D01*
X13276547Y3893771D01*
Y3741420D01*
X13327332Y3868379D02*
X13352724Y3893771D01*
X13403506D01*
X13428899Y3868379D01*
Y3842987D01*
X13403506Y3817595D01*
X13378114D01*
X13403506D01*
X13428899Y3792203D01*
Y3766812D01*
X13403506Y3741420D01*
X13352724D01*
X13327332Y3766812D01*
X12539980Y13812520D02*
Y13964871D01*
X12590763Y13914087D01*
X12641547Y13964871D01*
Y13812520D01*
X12793898D02*
X12692331D01*
X12793898Y13914087D01*
Y13939479D01*
X12768506Y13964871D01*
X12717723D01*
X12692331Y13939479D01*
X8107680Y2153920D02*
Y2306271D01*
X8158463Y2255487D01*
X8209247Y2306271D01*
Y2153920D01*
X8260031D02*
X8310814D01*
X8285423D01*
Y2306271D01*
X8260031Y2280879D01*
X7366041Y3149625D02*
Y3301975D01*
X7442217D01*
X7467608Y3276583D01*
Y3225800D01*
X7442217Y3200408D01*
X7366041D01*
X7518392Y3276583D02*
X7543784Y3301975D01*
X7594567D01*
X7619959Y3276583D01*
Y3251192D01*
X7594567Y3225800D01*
X7569175D01*
X7594567D01*
X7619959Y3200408D01*
Y3175017D01*
X7594567Y3149625D01*
X7543784D01*
X7518392Y3175017D01*
X6819933Y1435125D02*
Y1587475D01*
X6896108D01*
X6921500Y1562083D01*
Y1511300D01*
X6896108Y1485908D01*
X6819933D01*
X6972284Y1435125D02*
X7023067D01*
X6997676D01*
Y1587475D01*
X6972284Y1562083D01*
X11506208Y14058875D02*
X11455425D01*
X11480817D01*
Y13931917D01*
X11455425Y13906525D01*
X11430033D01*
X11404641Y13931917D01*
X11658559Y14058875D02*
X11607775Y14033482D01*
X11556992Y13982700D01*
Y13931917D01*
X11582384Y13906525D01*
X11633167D01*
X11658559Y13931917D01*
Y13957307D01*
X11633167Y13982700D01*
X11556992D01*
X13030208Y13919176D02*
X12979425D01*
X13004817D01*
Y13792216D01*
X12979425Y13766824D01*
X12954033D01*
X12928641Y13792216D01*
X13182559Y13919176D02*
X13080992D01*
Y13842999D01*
X13131775Y13868391D01*
X13157167D01*
X13182559Y13842999D01*
Y13792216D01*
X13157167Y13766824D01*
X13106384D01*
X13080992Y13792216D01*
X8227027Y13070799D02*
X8201635Y13096191D01*
X8150852D01*
X8125460Y13070799D01*
Y12969232D01*
X8150852Y12943840D01*
X8201635D01*
X8227027Y12969232D01*
X8277811Y12943840D02*
Y13096191D01*
X8353986D01*
X8379378Y13070799D01*
Y13020015D01*
X8353986Y12994623D01*
X8277811D01*
X8328594D02*
X8379378Y12943840D01*
X8531729D02*
X8430161D01*
X8531729Y13045407D01*
Y13070799D01*
X8506337Y13096191D01*
X8455553D01*
X8430161Y13070799D01*
X8188927Y14935159D02*
X8163535Y14960551D01*
X8112752D01*
X8087360Y14935159D01*
Y14833592D01*
X8112752Y14808200D01*
X8163535D01*
X8188927Y14833592D01*
X8239711Y14808200D02*
Y14960551D01*
X8315886D01*
X8341278Y14935159D01*
Y14884375D01*
X8315886Y14858983D01*
X8239711D01*
X8290494D02*
X8341278Y14808200D01*
X8392061D02*
X8442845D01*
X8417453D01*
Y14960551D01*
X8392061Y14935159D01*
X10952447Y2989539D02*
X10927055Y3014931D01*
X10876272D01*
X10850880Y2989539D01*
Y2887972D01*
X10876272Y2862580D01*
X10927055D01*
X10952447Y2887972D01*
X11003231Y2862580D02*
X11054014D01*
X11028623D01*
Y3014931D01*
X11003231Y2989539D01*
D42*
X10999700Y3352800D02*
G03*
X10999700Y3352800I-10000J0D01*
G01*
X12166600Y3525000D02*
G03*
X12293600Y3525000I63500J0D01*
G01*
X13373100Y5811000D02*
G03*
X13500101Y5811000I63500J0D01*
G01*
X13550200Y6891800D02*
G03*
X13030200Y6891800I-260000J-177835D01*
G01*
X12769500Y6891900D02*
G03*
X12249500Y6891900I-260000J-177835D01*
G01*
X11952100Y10750200D02*
Y12770200D01*
X11902100Y10750200D02*
Y12770200D01*
X12402100Y12637200D02*
Y12770200D01*
Y10750200D02*
Y10883200D01*
X11902100Y12770200D02*
X12402100D01*
X11902100Y10750200D02*
X12402100D01*
X11965100Y1555000D02*
X12495100D01*
X12293600Y3525000D02*
X12495100D01*
X11965100D02*
X12166600D01*
X12495100Y1555000D02*
Y3525000D01*
X11965100Y1555000D02*
Y3525000D01*
X13171600Y3841000D02*
X13701601D01*
X13500101Y5811000D02*
X13701601D01*
X13171600D02*
X13373100D01*
X13701601Y3841000D02*
Y5811000D01*
X13171600Y3841000D02*
Y5811000D01*
X13030200Y6610300D02*
X13550200D01*
Y6671800D01*
X13030200Y6610300D02*
Y6671800D01*
X12249500Y6610400D02*
X12769500D01*
Y6671900D01*
X12249500Y6610400D02*
Y6671900D01*
X8998700Y2376500D02*
X9468700D01*
X8998700Y1306500D02*
X9468700D01*
Y2376500D01*
X8998700Y1306500D02*
Y2376500D01*
X9048700Y1306500D02*
Y2376500D01*
D43*
X12877600Y10741200D02*
G03*
X12877600Y10741200I-12500J0D01*
G01*
X11861600Y3432000D02*
G03*
X11861600Y3432000I-12500J0D01*
G01*
X13068100Y5718000D02*
G03*
X13068100Y5718000I-12500J0D01*
G01*
X9416200Y1371500D02*
G03*
X9416200Y1371500I-12500J0D01*
G01*
D44*
X12095100Y3425000D02*
G03*
X12095100Y3425000I-30000J0D01*
G01*
X13301601Y5711000D02*
G03*
X13301601Y5711000I-30000J0D01*
G01*
D45*
X11618120Y7874000D02*
G03*
X11618120Y7874000I-12700J0D01*
G01*
X12793820Y7886700D02*
G03*
X12793820Y7886700I-12700J0D01*
G01*
X11786870Y8458200D02*
G03*
X11786870Y8458200I-20320J0D01*
G01*
X13933170Y8470900D02*
G03*
X13933170Y8470900I-20320J0D01*
G01*
X9169400Y13893800D02*
G03*
X9169400Y13893800I-20320J0D01*
G01*
X9194800Y12649200D02*
G03*
X9194800Y12649200I-20320J0D01*
G01*
X10594340Y13182600D02*
G03*
X10594340Y13182600I-20320J0D01*
G01*
X10568940Y14439900D02*
G03*
X10568940Y14439900I-20320J0D01*
G01*
X7962900Y13258800D02*
G03*
X7962900Y13258800I-20320J0D01*
G01*
X7937500Y13893800D02*
G03*
X7937500Y13893800I-20320J0D01*
G01*
X9375140Y12560300D02*
G03*
X9375140Y12560300I-20320J0D01*
G01*
X9337040Y14427200D02*
G03*
X9337040Y14427200I-20320J0D01*
G01*
X11795920Y7992110D02*
X12026451D01*
X11783220Y7628890D02*
X12860181D01*
Y8119110D01*
X11783220D02*
X12860181D01*
X11783220Y7628890D02*
Y8119110D01*
X12088949Y7992110D02*
X12290451D01*
X12352949D02*
X12554451D01*
X12616949D02*
X12847479D01*
X12971620Y8004810D02*
X13202151D01*
X12958920Y7641590D02*
X14035880D01*
Y8131810D01*
X12958920D02*
X14035880D01*
X12958920Y7641590D02*
Y8131810D01*
X13264648Y8004810D02*
X13466151D01*
X13528648D02*
X13730151D01*
X13792648D02*
X14023180D01*
X11944350Y8334500D02*
X12642850D01*
Y8597900D01*
X11944350D02*
X12642850D01*
X11944350Y8334500D02*
Y8597900D01*
X13036549Y8594600D02*
X13735049D01*
X13036549Y8331200D02*
Y8594600D01*
Y8331200D02*
X13735049D01*
Y8594600D01*
X9326880Y13608051D02*
Y14103349D01*
X10383520D01*
Y13608051D02*
Y14103349D01*
X9326880Y13608051D02*
X10383520D01*
X9352280Y12363450D02*
Y12858749D01*
X10408920D01*
Y12363450D02*
Y12858749D01*
X9352280Y12363450D02*
X10408920D01*
X10396220Y12973050D02*
Y13468350D01*
X9339580Y12973050D02*
X10396220D01*
X9339580D02*
Y13468350D01*
X10396220D01*
X10370820Y14230350D02*
Y14725650D01*
X9314180Y14230350D02*
X10370820D01*
X9314180D02*
Y14725650D01*
X10370820D01*
X8120380Y12973050D02*
X9177020D01*
Y13468350D01*
X8120380D02*
X9177020D01*
X8120380Y12973050D02*
Y13468350D01*
X8094980Y13608051D02*
X9151620D01*
Y14103349D01*
X8094980D02*
X9151620D01*
X8094980Y13608051D02*
Y14103349D01*
X11894820Y9037320D02*
Y9555480D01*
X11234420D02*
X11894820D01*
X11234420Y9037320D02*
Y9555480D01*
Y9037320D02*
X11894820D01*
X12682220Y14000481D02*
X13200380D01*
Y14660880D01*
X12682220D02*
X13200380D01*
X12682220Y14000481D02*
Y14660880D01*
X11780520Y14000481D02*
X12298680D01*
Y14660880D01*
X11780520D02*
X12298680D01*
X11780520Y14000481D02*
Y14660880D01*
X9177020Y12350750D02*
Y12846049D01*
X8120380Y12350750D02*
X9177020D01*
X8120380D02*
Y12846049D01*
X9177020D01*
X9138920Y14217650D02*
Y14712950D01*
X8082280Y14217650D02*
X9138920D01*
X8082280D02*
Y14712950D01*
X9138920D01*
D46*
X11557000Y8821420D02*
G03*
X11557000Y8897620I0J38100D01*
G01*
D02*
G03*
X11557000Y8821420I0J-38100D01*
G01*
X12466320Y14338300D02*
G03*
X12542520Y14338300I38100J0D01*
G01*
D02*
G03*
X12466320Y14338300I-38100J0D01*
G01*
X11564620D02*
G03*
X11640820Y14338300I38100J0D01*
G01*
D02*
G03*
X11564620Y14338300I-38100J0D01*
G01*
D47*
X8894700Y2749500D02*
Y3212800D01*
Y2749500D02*
X10434700D01*
Y3212800D01*
X8589700Y9486800D02*
Y9573800D01*
X9399700D01*
Y9486800D02*
Y9573800D01*
X9929700Y9486800D02*
Y9573800D01*
X10739700D01*
Y9486800D02*
Y9573800D01*
X10934700Y3212800D02*
Y9486800D01*
X10739700D02*
X10934700D01*
X9399700D02*
X9929700D01*
X8394700D02*
X8589700D01*
X8394700Y3212800D02*
Y9486800D01*
Y3212800D02*
X8894700D01*
X10434700D02*
X10934700D01*
X6821900Y7901400D02*
Y9421400D01*
X7071900Y7901400D02*
Y9421400D01*
X6821900Y7901400D02*
X7071900D01*
X6821900Y9421400D02*
X7071900D01*
X6796500Y7300500D02*
X7046500D01*
Y6288500D02*
Y7300500D01*
X6796500Y6288500D02*
Y7300500D01*
Y6288500D02*
X7046500D01*
X12549400Y5841500D02*
X12774400D01*
X12549400Y5196500D02*
Y5841500D01*
Y5196500D02*
X12774400D01*
Y5841500D01*
X12536700Y3937500D02*
X12761700D01*
Y4582500D01*
X12536700D02*
X12761700D01*
X12536700Y3937500D02*
Y4582500D01*
X11762000Y4571500D02*
X11987000D01*
X11762000Y3926500D02*
Y4571500D01*
Y3926500D02*
X11987000D01*
Y4571500D01*
X11736600Y5841500D02*
X11961600D01*
X11736600Y5196500D02*
Y5841500D01*
Y5196500D02*
X11961600D01*
Y5841500D01*
X12181100Y5182100D02*
X12406100D01*
Y5827100D01*
X12181100D02*
X12406100D01*
X12181100Y5182100D02*
Y5827100D01*
Y3937500D02*
X12406100D01*
Y4582500D01*
X12181100D02*
X12406100D01*
X12181100Y3937500D02*
Y4582500D01*
X13768600Y6542700D02*
X13993600D01*
Y7187700D01*
X13768600D02*
X13993600D01*
X13768600Y6542700D02*
Y7187700D01*
X11723900Y6568100D02*
X11948900D01*
Y7213100D01*
X11723900D02*
X11948900D01*
X11723900Y6568100D02*
Y7213100D01*
X11051000Y7799800D02*
X11301000D01*
X11051000D02*
Y8811800D01*
X11301000Y7799800D02*
Y8811800D01*
X11051000D02*
X11301000D01*
X8265700Y3227800D02*
Y5509800D01*
X8015700Y3227800D02*
Y5509800D01*
X8265700D01*
X8015700Y3227800D02*
X8265700D01*
X7056000Y13462000D02*
Y14478000D01*
X7776000D01*
X6956000D02*
X7056000D01*
X6956000Y13462000D02*
Y14478000D01*
Y13462000D02*
X7056000D01*
X7776000D01*
Y14478000D01*
X10809700Y13235400D02*
X11059700D01*
Y14501401D01*
X10809700Y13235400D02*
Y14497900D01*
X10813200Y14501401D01*
X11059700D01*
X8015700Y5513800D02*
X8265700D01*
X8015700Y7795800D02*
X8265700D01*
X8015700Y5513800D02*
Y7795800D01*
X8265700Y5513800D02*
Y7795800D01*
X8015700Y8811800D02*
X8265700D01*
Y7799800D02*
Y8811800D01*
X8015700Y7799800D02*
Y8811800D01*
Y7799800D02*
X8265700D01*
X6821900Y11351800D02*
X7071900D01*
X6821900Y9831800D02*
X7071900D01*
Y11351800D01*
X6821900Y9831800D02*
Y11351800D01*
X11051000Y3227800D02*
X11301000D01*
X11051000Y5509800D02*
X11301000D01*
X11051000Y3227800D02*
Y5509800D01*
X11301000Y3227800D02*
Y5509800D01*
X11051000Y5513800D02*
X11301000D01*
X11051000Y7795800D02*
X11301000D01*
X11051000Y5513800D02*
Y7795800D01*
X11301000Y5513800D02*
Y7795800D01*
X7598200Y1663700D02*
Y2679700D01*
X6878200Y1663700D02*
X7598200D01*
X6778200D02*
X6878200D01*
X6778200D02*
Y2679700D01*
X6878200D01*
X7598200D01*
X6878200Y1663700D02*
Y2679700D01*
X7610900Y3327400D02*
Y4343400D01*
X6890900Y3327400D02*
X7610900D01*
X6790900D02*
X6890900D01*
X6790900D02*
Y4343400D01*
X6890900D01*
X7610900D01*
X6890900Y3327400D02*
Y4343400D01*
%TF.MD5,248d92dc31380a7cd8fae5813161ba82*%
M02*
