%TF.GenerationSoftware,Altium Limited,Altium Designer,25.8.1 (18)*%
G04 Layer_Color=16711935*
%FSLAX45Y45*%
%MOMM*%
%TF.SameCoordinates,412E6415-05C8-40E6-B22C-806341DFC968*%
%TF.FilePolarity,Positive*%
%TF.FileFunction,Other,Top_Assembly*%
%TF.Part,Single*%
G01*
G75*
%TA.AperFunction,NonConductor*%
%ADD42C,0.20000*%
G36*
X13304031Y6910869D02*
X13254013D01*
X13254106Y6910777D01*
X13254475Y6910314D01*
X13255029Y6909760D01*
X13255676Y6908835D01*
X13256509Y6907818D01*
X13257434Y6906524D01*
X13258450Y6905044D01*
X13259468Y6903380D01*
Y6903288D01*
X13259560Y6903195D01*
X13259930Y6902640D01*
X13260393Y6901716D01*
X13260947Y6900606D01*
X13261595Y6899312D01*
X13262242Y6897925D01*
X13262889Y6896538D01*
X13263445Y6895152D01*
X13255862D01*
Y6895244D01*
X13255676Y6895429D01*
X13255585Y6895799D01*
X13255309Y6896261D01*
X13255029Y6896816D01*
X13254660Y6897463D01*
X13253735Y6899035D01*
X13252719Y6900884D01*
X13251424Y6902733D01*
X13249945Y6904675D01*
X13248373Y6906616D01*
X13248280Y6906709D01*
X13248187Y6906801D01*
X13247911Y6907078D01*
X13247633Y6907448D01*
X13246709Y6908280D01*
X13245599Y6909390D01*
X13244305Y6910499D01*
X13242825Y6911701D01*
X13241347Y6912718D01*
X13239775Y6913643D01*
Y6918728D01*
X13304031D01*
Y6910869D01*
D02*
G37*
G36*
X13309024Y6879711D02*
Y6879619D01*
X13308932Y6879434D01*
X13308746Y6879064D01*
X13308562Y6878509D01*
X13308286Y6877862D01*
X13307915Y6877123D01*
X13307545Y6876291D01*
X13307083Y6875366D01*
X13305972Y6873332D01*
X13304678Y6871021D01*
X13303015Y6868524D01*
X13301166Y6865935D01*
Y6865843D01*
X13301350Y6865658D01*
X13301535Y6865196D01*
X13301813Y6864734D01*
X13302090Y6863994D01*
X13302460Y6863254D01*
X13302737Y6862330D01*
X13303107Y6861313D01*
X13303477Y6860203D01*
X13303847Y6859001D01*
X13304494Y6856320D01*
X13304956Y6853361D01*
X13305049Y6851790D01*
X13305141Y6850218D01*
Y6849386D01*
X13305049Y6848739D01*
Y6847999D01*
X13304956Y6847074D01*
X13304771Y6846057D01*
X13304587Y6844948D01*
X13304124Y6842544D01*
X13303384Y6839863D01*
X13302368Y6837089D01*
X13301720Y6835795D01*
X13300981Y6834408D01*
X13300888Y6834316D01*
X13300797Y6834131D01*
X13300517Y6833761D01*
X13300241Y6833298D01*
X13299779Y6832651D01*
X13299223Y6832004D01*
X13297929Y6830432D01*
X13296266Y6828676D01*
X13294231Y6826919D01*
X13291920Y6825162D01*
X13289240Y6823591D01*
X13289146D01*
X13288869Y6823406D01*
X13288499Y6823221D01*
X13287944Y6823036D01*
X13287206Y6822759D01*
X13286372Y6822389D01*
X13285356Y6822019D01*
X13284245Y6821742D01*
X13283044Y6821372D01*
X13281750Y6821002D01*
X13280363Y6820724D01*
X13278790Y6820355D01*
X13275555Y6819985D01*
X13272134Y6819800D01*
X13272041D01*
X13271672D01*
X13271210D01*
X13270563Y6819892D01*
X13269731D01*
X13268713Y6819985D01*
X13267604Y6820077D01*
X13266402Y6820262D01*
X13263721Y6820724D01*
X13260855Y6821372D01*
X13257803Y6822296D01*
X13254845Y6823591D01*
X13254753Y6823683D01*
X13254475Y6823776D01*
X13254106Y6823960D01*
X13253551Y6824330D01*
X13252904Y6824700D01*
X13252164Y6825162D01*
X13250407Y6826457D01*
X13248558Y6827936D01*
X13246617Y6829878D01*
X13244675Y6832004D01*
X13243011Y6834500D01*
X13242918Y6834593D01*
X13242825Y6834870D01*
X13242641Y6835240D01*
X13242365Y6835795D01*
X13242085Y6836442D01*
X13241716Y6837182D01*
X13241347Y6838106D01*
X13240977Y6839123D01*
X13240607Y6840325D01*
X13240237Y6841527D01*
X13239590Y6844208D01*
X13239128Y6847167D01*
X13238943Y6848739D01*
Y6851235D01*
X13239035Y6851882D01*
Y6852714D01*
X13239128Y6853546D01*
X13239313Y6854656D01*
X13239497Y6855765D01*
X13239960Y6858169D01*
X13240698Y6860943D01*
X13241809Y6863624D01*
X13242456Y6865011D01*
X13243196Y6866398D01*
X13243288Y6866490D01*
X13243381Y6866675D01*
X13243658Y6867045D01*
X13243935Y6867600D01*
X13244398Y6868154D01*
X13244952Y6868894D01*
X13246246Y6870466D01*
X13247911Y6872130D01*
X13249945Y6873979D01*
X13252348Y6875736D01*
X13255029Y6877215D01*
X13255122D01*
X13255400Y6877400D01*
X13255769Y6877585D01*
X13256325Y6877770D01*
X13257063Y6878140D01*
X13257896Y6878417D01*
X13258913Y6878787D01*
X13260023Y6879157D01*
X13261224Y6879434D01*
X13262518Y6879804D01*
X13263905Y6880174D01*
X13265385Y6880451D01*
X13268620Y6880821D01*
X13272041Y6881006D01*
X13272134D01*
X13272412D01*
X13272781D01*
X13273335D01*
X13274075Y6880913D01*
X13274908D01*
X13275833Y6880821D01*
X13276756Y6880728D01*
X13278976Y6880451D01*
X13281380Y6879989D01*
X13283876Y6879434D01*
X13286279Y6878602D01*
X13286372D01*
X13286559Y6878509D01*
X13286926Y6878325D01*
X13287297Y6878140D01*
X13287852Y6877862D01*
X13288499Y6877585D01*
X13289978Y6876845D01*
X13291734Y6875828D01*
X13293584Y6874534D01*
X13295433Y6873055D01*
X13297282Y6871390D01*
Y6871483D01*
X13297467Y6871668D01*
X13297652Y6871945D01*
X13297929Y6872407D01*
X13298300Y6872870D01*
X13298669Y6873517D01*
X13299501Y6874904D01*
X13300517Y6876568D01*
X13301535Y6878417D01*
X13302368Y6880359D01*
X13303200Y6882208D01*
X13309024Y6879711D01*
D02*
G37*
G36*
X12523332Y6888133D02*
X12523239D01*
X12522870D01*
X12522315D01*
X12521575Y6888225D01*
X12520743Y6888317D01*
X12519818Y6888502D01*
X12518894Y6888687D01*
X12517877Y6889057D01*
X12517784D01*
X12517692Y6889150D01*
X12517137Y6889334D01*
X12516305Y6889704D01*
X12515196Y6890259D01*
X12513901Y6890999D01*
X12512422Y6891923D01*
X12510943Y6892940D01*
X12509371Y6894235D01*
X12509279D01*
X12509186Y6894420D01*
X12508631Y6894882D01*
X12507799Y6895714D01*
X12506597Y6896916D01*
X12505210Y6898303D01*
X12503546Y6900059D01*
X12501697Y6902186D01*
X12499756Y6904497D01*
X12499663Y6904590D01*
X12499386Y6904960D01*
X12498923Y6905514D01*
X12498369Y6906161D01*
X12497629Y6906994D01*
X12496797Y6908011D01*
X12495872Y6909028D01*
X12494855Y6910230D01*
X12492636Y6912541D01*
X12490417Y6914852D01*
X12489308Y6915962D01*
X12488199Y6916979D01*
X12487182Y6917903D01*
X12486165Y6918643D01*
X12486072D01*
X12485980Y6918828D01*
X12485702Y6919013D01*
X12485332Y6919198D01*
X12484315Y6919845D01*
X12483113Y6920585D01*
X12481634Y6921232D01*
X12480062Y6921879D01*
X12478306Y6922249D01*
X12476642Y6922434D01*
X12476549D01*
X12476457D01*
X12475902Y6922341D01*
X12474977Y6922249D01*
X12473960Y6921971D01*
X12472666Y6921602D01*
X12471372Y6920954D01*
X12470077Y6920122D01*
X12468783Y6919013D01*
X12468598Y6918828D01*
X12468228Y6918366D01*
X12467766Y6917718D01*
X12467119Y6916701D01*
X12466564Y6915407D01*
X12466009Y6913928D01*
X12465639Y6912171D01*
X12465547Y6910230D01*
Y6909675D01*
X12465639Y6909305D01*
X12465732Y6908195D01*
X12466009Y6906901D01*
X12466379Y6905514D01*
X12467026Y6903943D01*
X12467858Y6902463D01*
X12468968Y6901076D01*
X12469153Y6900891D01*
X12469615Y6900522D01*
X12470355Y6899967D01*
X12471464Y6899412D01*
X12472758Y6898765D01*
X12474423Y6898210D01*
X12476272Y6897840D01*
X12478398Y6897655D01*
X12477566Y6889612D01*
X12477474D01*
X12477196Y6889704D01*
X12476734D01*
X12476087Y6889797D01*
X12475347Y6889982D01*
X12474515Y6890167D01*
X12473498Y6890444D01*
X12472481Y6890721D01*
X12470262Y6891461D01*
X12468043Y6892570D01*
X12466934Y6893218D01*
X12465824Y6894050D01*
X12464807Y6894882D01*
X12463883Y6895806D01*
X12463790Y6895899D01*
X12463698Y6896084D01*
X12463420Y6896361D01*
X12463143Y6896823D01*
X12462773Y6897378D01*
X12462403Y6898025D01*
X12461941Y6898765D01*
X12461479Y6899690D01*
X12461016Y6900707D01*
X12460554Y6901816D01*
X12460184Y6903018D01*
X12459815Y6904312D01*
X12459537Y6905699D01*
X12459260Y6907178D01*
X12459167Y6908750D01*
X12459075Y6910414D01*
Y6911339D01*
X12459167Y6911986D01*
X12459260Y6912726D01*
X12459352Y6913650D01*
X12459537Y6914667D01*
X12459722Y6915684D01*
X12460369Y6918088D01*
X12461294Y6920492D01*
X12461849Y6921694D01*
X12462496Y6922896D01*
X12463328Y6924005D01*
X12464252Y6925022D01*
X12464345Y6925115D01*
X12464437Y6925300D01*
X12464807Y6925485D01*
X12465177Y6925855D01*
X12465639Y6926317D01*
X12466286Y6926779D01*
X12466934Y6927241D01*
X12467766Y6927796D01*
X12469522Y6928721D01*
X12471741Y6929645D01*
X12472851Y6930015D01*
X12474145Y6930200D01*
X12475440Y6930385D01*
X12476826Y6930477D01*
X12477011D01*
X12477474D01*
X12478213Y6930385D01*
X12479230Y6930292D01*
X12480340Y6930108D01*
X12481634Y6929738D01*
X12483021Y6929368D01*
X12484408Y6928813D01*
X12484593Y6928721D01*
X12485055Y6928536D01*
X12485795Y6928166D01*
X12486812Y6927611D01*
X12487921Y6926872D01*
X12489308Y6925947D01*
X12490695Y6924838D01*
X12492267Y6923543D01*
X12492452Y6923358D01*
X12493006Y6922896D01*
X12493469Y6922434D01*
X12493931Y6921971D01*
X12494486Y6921417D01*
X12495225Y6920677D01*
X12495965Y6919937D01*
X12496797Y6919013D01*
X12497722Y6918088D01*
X12498739Y6916979D01*
X12499756Y6915777D01*
X12500957Y6914482D01*
X12502159Y6913003D01*
X12503454Y6911524D01*
X12503546Y6911431D01*
X12503731Y6911247D01*
X12504009Y6910877D01*
X12504378Y6910414D01*
X12504933Y6909860D01*
X12505488Y6909212D01*
X12506690Y6907733D01*
X12508077Y6906161D01*
X12509463Y6904682D01*
X12510665Y6903388D01*
X12511128Y6902833D01*
X12511590Y6902371D01*
X12511682Y6902278D01*
X12511960Y6902001D01*
X12512330Y6901631D01*
X12512884Y6901169D01*
X12513531Y6900707D01*
X12514179Y6900152D01*
X12515750Y6899042D01*
Y6930570D01*
X12523332D01*
Y6888133D01*
D02*
G37*
G36*
X12528324Y6879811D02*
Y6879719D01*
X12528232Y6879534D01*
X12528047Y6879164D01*
X12527862Y6878610D01*
X12527585Y6877962D01*
X12527215Y6877223D01*
X12526845Y6876391D01*
X12526383Y6875466D01*
X12525273Y6873432D01*
X12523979Y6871121D01*
X12522315Y6868624D01*
X12520466Y6866036D01*
Y6865943D01*
X12520651Y6865758D01*
X12520836Y6865296D01*
X12521113Y6864834D01*
X12521390Y6864094D01*
X12521760Y6863354D01*
X12522037Y6862430D01*
X12522407Y6861413D01*
X12522777Y6860303D01*
X12523147Y6859101D01*
X12523794Y6856420D01*
X12524256Y6853462D01*
X12524349Y6851890D01*
X12524441Y6850318D01*
Y6849486D01*
X12524349Y6848839D01*
Y6848099D01*
X12524256Y6847175D01*
X12524071Y6846158D01*
X12523887Y6845048D01*
X12523424Y6842644D01*
X12522685Y6839963D01*
X12521668Y6837189D01*
X12521020Y6835895D01*
X12520281Y6834508D01*
X12520188Y6834416D01*
X12520096Y6834231D01*
X12519818Y6833861D01*
X12519541Y6833399D01*
X12519079Y6832751D01*
X12518524Y6832104D01*
X12517230Y6830532D01*
X12515566Y6828776D01*
X12513531Y6827019D01*
X12511220Y6825262D01*
X12508539Y6823691D01*
X12508446D01*
X12508169Y6823506D01*
X12507799Y6823321D01*
X12507244Y6823136D01*
X12506505Y6822859D01*
X12505673Y6822489D01*
X12504656Y6822119D01*
X12503546Y6821842D01*
X12502344Y6821472D01*
X12501050Y6821102D01*
X12499663Y6820825D01*
X12498091Y6820455D01*
X12494855Y6820085D01*
X12491435Y6819900D01*
X12491342D01*
X12490972D01*
X12490510D01*
X12489863Y6819992D01*
X12489031D01*
X12488014Y6820085D01*
X12486904Y6820177D01*
X12485702Y6820362D01*
X12483021Y6820825D01*
X12480155Y6821472D01*
X12477104Y6822396D01*
X12474145Y6823691D01*
X12474053Y6823783D01*
X12473775Y6823876D01*
X12473406Y6824061D01*
X12472851Y6824430D01*
X12472204Y6824800D01*
X12471464Y6825262D01*
X12469707Y6826557D01*
X12467858Y6828036D01*
X12465917Y6829978D01*
X12463975Y6832104D01*
X12462311Y6834601D01*
X12462218Y6834693D01*
X12462126Y6834970D01*
X12461941Y6835340D01*
X12461664Y6835895D01*
X12461386Y6836542D01*
X12461016Y6837282D01*
X12460647Y6838206D01*
X12460277Y6839223D01*
X12459907Y6840425D01*
X12459537Y6841627D01*
X12458890Y6844308D01*
X12458428Y6847267D01*
X12458243Y6848839D01*
Y6851335D01*
X12458335Y6851982D01*
Y6852814D01*
X12458428Y6853646D01*
X12458613Y6854756D01*
X12458798Y6855865D01*
X12459260Y6858269D01*
X12459999Y6861043D01*
X12461109Y6863724D01*
X12461756Y6865111D01*
X12462496Y6866498D01*
X12462588Y6866590D01*
X12462681Y6866775D01*
X12462958Y6867145D01*
X12463235Y6867700D01*
X12463698Y6868254D01*
X12464252Y6868994D01*
X12465547Y6870566D01*
X12467211Y6872230D01*
X12469245Y6874079D01*
X12471649Y6875836D01*
X12474330Y6877315D01*
X12474423D01*
X12474700Y6877500D01*
X12475070Y6877685D01*
X12475625Y6877870D01*
X12476364Y6878240D01*
X12477196Y6878517D01*
X12478213Y6878887D01*
X12479323Y6879257D01*
X12480525Y6879534D01*
X12481819Y6879904D01*
X12483206Y6880274D01*
X12484685Y6880551D01*
X12487921Y6880921D01*
X12491342Y6881106D01*
X12491435D01*
X12491712D01*
X12492082D01*
X12492636D01*
X12493376Y6881013D01*
X12494208D01*
X12495133Y6880921D01*
X12496057Y6880829D01*
X12498276Y6880551D01*
X12500680Y6880089D01*
X12503176Y6879534D01*
X12505580Y6878702D01*
X12505673D01*
X12505858Y6878610D01*
X12506227Y6878425D01*
X12506597Y6878240D01*
X12507152Y6877962D01*
X12507799Y6877685D01*
X12509279Y6876945D01*
X12511035Y6875928D01*
X12512884Y6874634D01*
X12514733Y6873155D01*
X12516583Y6871490D01*
Y6871583D01*
X12516767Y6871768D01*
X12516952Y6872045D01*
X12517230Y6872507D01*
X12517600Y6872970D01*
X12517969Y6873617D01*
X12518801Y6875004D01*
X12519818Y6876668D01*
X12520836Y6878517D01*
X12521668Y6880459D01*
X12522500Y6882308D01*
X12528324Y6879811D01*
D02*
G37*
%LPC*%
G36*
X13272134Y6872315D02*
X13272041D01*
X13271765D01*
X13271394D01*
X13270840D01*
X13270100Y6872222D01*
X13269360D01*
X13268436Y6872130D01*
X13267513Y6871945D01*
X13265385Y6871668D01*
X13263074Y6871205D01*
X13260762Y6870558D01*
X13258543Y6869634D01*
X13258450D01*
X13258266Y6869541D01*
X13257990Y6869356D01*
X13257619Y6869171D01*
X13256509Y6868524D01*
X13255215Y6867692D01*
X13253735Y6866583D01*
X13252255Y6865196D01*
X13250777Y6863624D01*
X13249483Y6861867D01*
Y6861775D01*
X13249298Y6861682D01*
X13249205Y6861405D01*
X13248927Y6860943D01*
X13248743Y6860481D01*
X13248466Y6859926D01*
X13247820Y6858539D01*
X13247264Y6856875D01*
X13246709Y6854933D01*
X13246339Y6852714D01*
X13246246Y6850403D01*
Y6849478D01*
X13246339Y6848831D01*
X13246432Y6847999D01*
X13246617Y6847074D01*
X13246802Y6846057D01*
X13247079Y6844948D01*
X13247449Y6843654D01*
X13247820Y6842452D01*
X13248373Y6841157D01*
X13249020Y6839770D01*
X13249760Y6838476D01*
X13250685Y6837182D01*
X13251608Y6835887D01*
X13252811Y6834685D01*
X13252904Y6834593D01*
X13253088Y6834408D01*
X13253458Y6834131D01*
X13254013Y6833761D01*
X13254660Y6833206D01*
X13255492Y6832744D01*
X13256509Y6832189D01*
X13257619Y6831634D01*
X13258913Y6830987D01*
X13260393Y6830432D01*
X13261964Y6829970D01*
X13263721Y6829508D01*
X13265570Y6829046D01*
X13267604Y6828768D01*
X13269823Y6828583D01*
X13272134Y6828491D01*
X13272319D01*
X13272688D01*
X13273335D01*
X13274168Y6828583D01*
X13275186Y6828676D01*
X13276387Y6828861D01*
X13277774Y6829046D01*
X13279161Y6829230D01*
X13282304Y6829970D01*
X13283876Y6830432D01*
X13285448Y6831080D01*
X13287019Y6831727D01*
X13288499Y6832559D01*
X13289978Y6833483D01*
X13291273Y6834593D01*
X13291365Y6834685D01*
X13291550Y6834870D01*
X13291920Y6835240D01*
X13292290Y6835702D01*
X13292845Y6836350D01*
X13293399Y6837089D01*
X13293954Y6837921D01*
X13294601Y6838938D01*
X13295248Y6839955D01*
X13295802Y6841157D01*
X13296358Y6842452D01*
X13296913Y6843838D01*
X13297282Y6845410D01*
X13297652Y6846982D01*
X13297836Y6848646D01*
X13297929Y6850403D01*
Y6851235D01*
X13297836Y6852067D01*
X13297745Y6853177D01*
X13297560Y6854563D01*
X13297189Y6855950D01*
X13296820Y6857522D01*
X13296266Y6859001D01*
X13296173Y6858816D01*
X13295802Y6858354D01*
X13295341Y6857522D01*
X13294786Y6856505D01*
X13294231Y6855211D01*
X13293584Y6853824D01*
X13293030Y6852252D01*
X13292567Y6850588D01*
X13286465Y6852714D01*
Y6852807D01*
X13286559Y6853084D01*
X13286650Y6853454D01*
X13286835Y6853916D01*
X13287019Y6854563D01*
X13287297Y6855303D01*
X13287944Y6856967D01*
X13288869Y6858909D01*
X13289886Y6860943D01*
X13291087Y6862884D01*
X13292567Y6864826D01*
X13292474Y6864918D01*
X13292290Y6865196D01*
X13291827Y6865566D01*
X13291273Y6866028D01*
X13290533Y6866583D01*
X13289700Y6867230D01*
X13288684Y6867877D01*
X13287482Y6868617D01*
X13286095Y6869264D01*
X13284525Y6869911D01*
X13282858Y6870558D01*
X13281104Y6871113D01*
X13279070Y6871668D01*
X13276942Y6872038D01*
X13274631Y6872222D01*
X13272134Y6872315D01*
D02*
G37*
G36*
X12491435Y6872415D02*
X12491342D01*
X12491065D01*
X12490695D01*
X12490140D01*
X12489400Y6872323D01*
X12488661D01*
X12487736Y6872230D01*
X12486812Y6872045D01*
X12484685Y6871768D01*
X12482374Y6871306D01*
X12480062Y6870658D01*
X12477843Y6869734D01*
X12477751D01*
X12477566Y6869641D01*
X12477289Y6869456D01*
X12476919Y6869272D01*
X12475809Y6868624D01*
X12474515Y6867792D01*
X12473036Y6866683D01*
X12471556Y6865296D01*
X12470077Y6863724D01*
X12468783Y6861967D01*
Y6861875D01*
X12468598Y6861783D01*
X12468505Y6861505D01*
X12468228Y6861043D01*
X12468043Y6860581D01*
X12467766Y6860026D01*
X12467119Y6858639D01*
X12466564Y6856975D01*
X12466009Y6855033D01*
X12465639Y6852814D01*
X12465547Y6850503D01*
Y6849578D01*
X12465639Y6848931D01*
X12465732Y6848099D01*
X12465917Y6847175D01*
X12466102Y6846158D01*
X12466379Y6845048D01*
X12466749Y6843754D01*
X12467119Y6842552D01*
X12467673Y6841257D01*
X12468321Y6839870D01*
X12469060Y6838576D01*
X12469985Y6837282D01*
X12470909Y6835987D01*
X12472111Y6834785D01*
X12472204Y6834693D01*
X12472389Y6834508D01*
X12472758Y6834231D01*
X12473313Y6833861D01*
X12473960Y6833306D01*
X12474792Y6832844D01*
X12475809Y6832289D01*
X12476919Y6831734D01*
X12478213Y6831087D01*
X12479693Y6830532D01*
X12481264Y6830070D01*
X12483021Y6829608D01*
X12484870Y6829146D01*
X12486904Y6828868D01*
X12489123Y6828683D01*
X12491435Y6828591D01*
X12491619D01*
X12491989D01*
X12492636D01*
X12493469Y6828683D01*
X12494486Y6828776D01*
X12495687Y6828961D01*
X12497074Y6829146D01*
X12498461Y6829331D01*
X12501605Y6830070D01*
X12503176Y6830532D01*
X12504748Y6831180D01*
X12506320Y6831827D01*
X12507799Y6832659D01*
X12509279Y6833583D01*
X12510573Y6834693D01*
X12510665Y6834785D01*
X12510850Y6834970D01*
X12511220Y6835340D01*
X12511590Y6835802D01*
X12512145Y6836450D01*
X12512699Y6837189D01*
X12513254Y6838021D01*
X12513901Y6839038D01*
X12514549Y6840055D01*
X12515103Y6841257D01*
X12515658Y6842552D01*
X12516213Y6843939D01*
X12516583Y6845510D01*
X12516952Y6847082D01*
X12517137Y6848746D01*
X12517230Y6850503D01*
Y6851335D01*
X12517137Y6852167D01*
X12517045Y6853277D01*
X12516860Y6854663D01*
X12516490Y6856050D01*
X12516120Y6857622D01*
X12515566Y6859101D01*
X12515473Y6858916D01*
X12515103Y6858454D01*
X12514641Y6857622D01*
X12514086Y6856605D01*
X12513531Y6855311D01*
X12512884Y6853924D01*
X12512330Y6852352D01*
X12511867Y6850688D01*
X12505765Y6852814D01*
Y6852907D01*
X12505858Y6853184D01*
X12505950Y6853554D01*
X12506135Y6854016D01*
X12506320Y6854663D01*
X12506597Y6855403D01*
X12507244Y6857067D01*
X12508169Y6859009D01*
X12509186Y6861043D01*
X12510388Y6862984D01*
X12511867Y6864926D01*
X12511775Y6865019D01*
X12511590Y6865296D01*
X12511128Y6865666D01*
X12510573Y6866128D01*
X12509833Y6866683D01*
X12509001Y6867330D01*
X12507984Y6867977D01*
X12506782Y6868717D01*
X12505395Y6869364D01*
X12503824Y6870011D01*
X12502159Y6870658D01*
X12500403Y6871213D01*
X12498369Y6871768D01*
X12496242Y6872138D01*
X12493931Y6872323D01*
X12491435Y6872415D01*
D02*
G37*
%LPD*%
D42*
X12947701Y6600300D02*
X13632700D01*
Y7039300D01*
X12947701D02*
X13632700D01*
X12947701Y6600300D02*
Y7039300D01*
X12167000Y6600400D02*
X12852000D01*
Y7039400D01*
X12167000D02*
X12852000D01*
X12167000Y6600400D02*
Y7039400D01*
%TF.MD5,1d00cd65fe23567997ac8a2b47f26b3c*%
M02*
