%TF.GenerationSoftware,Altium Limited,Altium Designer,25.8.1 (18)*%
G04 Layer_Color=2752767*
%FSLAX45Y45*%
%MOMM*%
%TF.SameCoordinates,412E6415-05C8-40E6-B22C-806341DFC968*%
%TF.FilePolarity,Positive*%
%TF.FileFunction,Drawing*%
%TF.Part,Single*%
G01*
G75*
%TA.AperFunction,NonConductor*%
%ADD47C,0.12700*%
%ADD88C,0.16933*%
D47*
X8470900Y8636000D02*
Y8737600D01*
X8572500D01*
Y8636000D01*
X8470900D01*
X10756900D02*
Y8737600D01*
X10858500D01*
Y8636000D01*
X10756900D01*
X8470900Y8382000D02*
Y8483600D01*
X8572500D01*
Y8382000D01*
X8470900D01*
Y8128000D02*
Y8229600D01*
X8572500D01*
Y8128000D01*
X8470900D01*
X10756900D02*
Y8229600D01*
X10858500D01*
Y8128000D01*
X10756900D01*
X8470900Y7874000D02*
Y7975600D01*
X8572500D01*
Y7874000D01*
X8470900D01*
X10756900D02*
Y7975600D01*
X10858500D01*
Y7874000D01*
X10756900D01*
X8470900Y7620000D02*
Y7721600D01*
X8572500D01*
Y7620000D01*
X8470900D01*
Y7366000D02*
Y7467600D01*
X8572500D01*
Y7366000D01*
X8470900D01*
Y7112000D02*
Y7213600D01*
X8572500D01*
Y7112000D01*
X8470900D01*
Y6858000D02*
Y6959600D01*
X8572500D01*
Y6858000D01*
X8470900D01*
Y6604000D02*
Y6705600D01*
X8572500D01*
Y6604000D01*
X8470900D01*
Y6350000D02*
Y6451600D01*
X8572500D01*
Y6350000D01*
X8470900D01*
Y6096000D02*
Y6197600D01*
X8572500D01*
Y6096000D01*
X8470900D01*
Y5842000D02*
Y5943600D01*
X8572500D01*
Y5842000D01*
X8470900D01*
Y5588000D02*
Y5689600D01*
X8572500D01*
Y5588000D01*
X8470900D01*
Y5334000D02*
Y5435600D01*
X8572500D01*
Y5334000D01*
X8470900D01*
X10756900D02*
Y5435600D01*
X10858500D01*
Y5334000D01*
X10756900D01*
X8470900Y5080000D02*
Y5181600D01*
X8572500D01*
Y5080000D01*
X8470900D01*
X10756900D02*
Y5181600D01*
X10858500D01*
Y5080000D01*
X10756900D01*
X8470900Y4826000D02*
Y4927600D01*
X8572500D01*
Y4826000D01*
X8470900D01*
X10756900D02*
Y4927600D01*
X10858500D01*
Y4826000D01*
X10756900D01*
X8470900Y4572000D02*
Y4673600D01*
X8572500D01*
Y4572000D01*
X8470900D01*
X10756900D02*
Y4673600D01*
X10858500D01*
Y4572000D01*
X10756900D01*
X8470900Y4318000D02*
Y4419600D01*
X8572500D01*
Y4318000D01*
X8470900D01*
X10756900D02*
Y4419600D01*
X10858500D01*
Y4318000D01*
X10756900D01*
X8470900Y4064000D02*
Y4165600D01*
X8572500D01*
Y4064000D01*
X8470900D01*
X10756900D02*
Y4165600D01*
X10858500D01*
Y4064000D01*
X10756900D01*
X8470900Y3810000D02*
Y3911600D01*
X8572500D01*
Y3810000D01*
X8470900D01*
X10756900D02*
Y3911600D01*
X10858500D01*
Y3810000D01*
X10756900D01*
X8470900Y3556000D02*
Y3657600D01*
X8572500D01*
Y3556000D01*
X8470900D01*
X10756900D02*
Y3657600D01*
X10858500D01*
Y3556000D01*
X10756900D01*
X8470900Y3302000D02*
Y3403600D01*
X8572500D01*
Y3302000D01*
X8470900D01*
X10756900D02*
Y3403600D01*
X10858500D01*
Y3302000D01*
X10756900D01*
Y8382000D02*
Y8483600D01*
X10858500D01*
Y8382000D01*
X10756900D01*
Y6858000D02*
Y6959600D01*
X10858500D01*
Y6858000D01*
X10756900D01*
Y6096000D02*
Y6197600D01*
X10858500D01*
Y6096000D01*
X10756900D01*
Y6604000D02*
Y6705600D01*
X10858500D01*
Y6604000D01*
X10756900D01*
Y7112000D02*
Y7213600D01*
X10858500D01*
Y7112000D01*
X10756900D01*
Y7620000D02*
Y7721600D01*
X10858500D01*
Y7620000D01*
X10756900D01*
Y6350000D02*
Y6451600D01*
X10858500D01*
Y6350000D01*
X10756900D01*
Y7366000D02*
Y7467600D01*
X10858500D01*
Y7366000D01*
X10756900D01*
Y5588000D02*
Y5689600D01*
X10858500D01*
Y5588000D01*
X10756900D01*
Y5842000D02*
Y5943600D01*
X10858500D01*
Y5842000D01*
X10756900D01*
X12357100Y12471400D02*
X12306300Y12573000D01*
X12407900D01*
X12357100Y12471400D01*
X12865100Y12344400D02*
X12814301Y12446000D01*
X12915900D01*
X12865100Y12344400D01*
X12357100Y12217400D02*
X12306300Y12319000D01*
X12407900D01*
X12357100Y12217400D01*
Y11963400D02*
X12306300Y12065000D01*
X12407900D01*
X12357100Y11963400D01*
X12865100Y11582400D02*
X12814301Y11684000D01*
X12915900D01*
X12865100Y11582400D01*
Y11328400D02*
X12814301Y11430000D01*
X12915900D01*
X12865100Y11328400D01*
X12357100Y11201400D02*
X12306300Y11303000D01*
X12407900D01*
X12357100Y11201400D01*
X12865100Y11074400D02*
X12814301Y11176000D01*
X12915900D01*
X12865100Y11074400D01*
X12357100Y10947400D02*
X12306300Y11049000D01*
X12407900D01*
X12357100Y10947400D01*
X12865100Y10820400D02*
X12814301Y10922000D01*
X12915900D01*
X12865100Y10820400D01*
X12357100Y11709400D02*
X12306300Y11811000D01*
X12407900D01*
X12357100Y11709400D01*
X12865100Y12598400D02*
X12814301Y12700000D01*
X12915900D01*
X12865100Y12598400D01*
Y11836400D02*
X12814301Y11938000D01*
X12915900D01*
X12865100Y11836400D01*
X12357100Y11455400D02*
X12306300Y11557000D01*
X12407900D01*
X12357100Y11455400D01*
X12865100Y12090400D02*
X12814301Y12192000D01*
X12915900D01*
X12865100Y12090400D01*
X13428700Y12166600D02*
X13454100D01*
X13479500Y12192000D01*
X13504900Y12166600D01*
X13530299D01*
Y12192000D01*
X13504900Y12217400D01*
X13530299Y12242800D01*
Y12268200D01*
X13504900D01*
X13479500Y12242800D01*
X13454100Y12268200D01*
X13428700D01*
Y12242800D01*
X13454100Y12217400D01*
X13428700Y12192000D01*
Y12166600D01*
X11104600Y11658600D02*
X11130000D01*
X11155400Y11684000D01*
X11180800Y11658600D01*
X11206200D01*
Y11684000D01*
X11180800Y11709400D01*
X11206200Y11734800D01*
Y11760200D01*
X11180800D01*
X11155400Y11734800D01*
X11130000Y11760200D01*
X11104600D01*
Y11734800D01*
X11130000Y11709400D01*
X11104600Y11684000D01*
Y11658600D01*
Y12458700D02*
X11130000D01*
X11155400Y12484100D01*
X11180800Y12458700D01*
X11206200D01*
Y12484100D01*
X11180800Y12509500D01*
X11206200Y12534900D01*
Y12560300D01*
X11180800D01*
X11155400Y12534900D01*
X11130000Y12560300D01*
X11104600D01*
Y12534900D01*
X11130000Y12509500D01*
X11104600Y12484100D01*
Y12458700D01*
X13710600Y7835900D02*
Y7937500D01*
X13812199D01*
Y7835900D01*
X13710600D01*
X13730920Y7856220D02*
Y7917180D01*
X13791879D01*
Y7856220D01*
X13730920D01*
X12534900Y7823200D02*
Y7924800D01*
X12636500D01*
Y7823200D01*
X12534900D01*
X12555220Y7843520D02*
Y7904480D01*
X12616180D01*
Y7843520D01*
X12555220D01*
X11874500Y3748200D02*
X11823700Y3849800D01*
X11925300D01*
X11874500Y3748200D01*
Y3768520D02*
X11844020Y3829480D01*
X11904980D01*
X11874500Y3768520D01*
X11849100Y5018200D02*
X11798300Y5119800D01*
X11899900D01*
X11849100Y5018200D01*
Y5038520D02*
X11818620Y5099480D01*
X11879580D01*
X11849100Y5038520D01*
X9575800Y12598400D02*
Y12700000D01*
X9677400D01*
Y12598400D01*
X9575800D01*
X9596120Y12618720D02*
Y12679680D01*
X9657080D01*
Y12618720D01*
X9596120D01*
X9550400Y13842999D02*
Y13944600D01*
X9652000D01*
Y13842999D01*
X9550400D01*
X9570720Y13863319D02*
Y13924280D01*
X9631680D01*
Y13863319D01*
X9570720D01*
X8851900Y12509500D02*
Y12611100D01*
X8953500D01*
Y12509500D01*
X8851900D01*
X8872220Y12529820D02*
Y12590780D01*
X8933180D01*
Y12529820D01*
X8872220D01*
X8813800Y14376401D02*
Y14478000D01*
X8915400D01*
Y14376401D01*
X8813800D01*
X8834120Y14396719D02*
Y14457680D01*
X8895080D01*
Y14396719D01*
X8834120D01*
X7188200Y2374900D02*
X7213600Y2400300D01*
X7239000D01*
X7213600Y2425700D01*
X7239000Y2451100D01*
X7213600D01*
X7188200Y2476500D01*
X7162800Y2451100D01*
X7137400D01*
X7162800Y2425700D01*
X7137400Y2400300D01*
X7162800D01*
X7188200Y2374900D01*
X9809200Y2108200D02*
X9834600D01*
X9860000Y2133600D01*
X9885400Y2108200D01*
X9910800D01*
Y2133600D01*
X9885400Y2159000D01*
X9910800Y2184400D01*
Y2209800D01*
X9885400D01*
X9860000Y2184400D01*
X9834600Y2209800D01*
X9809200D01*
Y2184400D01*
X9834600Y2159000D01*
X9809200Y2133600D01*
Y2108200D01*
X13817599Y5537200D02*
X13766800Y5638800D01*
X13868401D01*
X13817599Y5537200D01*
X12611100Y3251200D02*
X12560300Y3352800D01*
X12661900D01*
X12611100Y3251200D01*
X11506200Y9372600D02*
X11531600Y9423400D01*
X11506200Y9474200D01*
X11557000Y9448800D01*
X11607800Y9474200D01*
X11582400Y9423400D01*
X11607800Y9372600D01*
X11557000Y9398000D01*
X11506200Y9372600D01*
X13466800Y11137900D02*
X13492200D01*
X13517599Y11163300D01*
X13542999Y11137900D01*
X13568401D01*
Y11163300D01*
X13542999Y11188700D01*
X13568401Y11214100D01*
Y11239500D01*
X13542999D01*
X13517599Y11214100D01*
X13492200Y11239500D01*
X13466800D01*
Y11214100D01*
X13492200Y11188700D01*
X13466800Y11163300D01*
Y11137900D01*
X9791700Y1282700D02*
X9817100D01*
X9842500Y1308100D01*
X9867900Y1282700D01*
X9893300D01*
Y1308100D01*
X9867900Y1333500D01*
X9893300Y1358900D01*
Y1384300D01*
X9867900D01*
X9842500Y1358900D01*
X9817100Y1384300D01*
X9791700D01*
Y1358900D01*
X9817100Y1333500D01*
X9791700Y1308100D01*
Y1282700D01*
X13131799Y1693000D02*
X13157201D01*
X13182600Y1718400D01*
X13208000Y1693000D01*
X13233400D01*
Y1718400D01*
X13208000Y1743800D01*
X13233400Y1769200D01*
Y1794600D01*
X13208000D01*
X13182600Y1769200D01*
X13157201Y1794600D01*
X13131799D01*
Y1769200D01*
X13157201Y1743800D01*
X13131799Y1718400D01*
Y1693000D01*
X11387100Y1485900D02*
X11412500D01*
X11437900Y1511300D01*
X11463300Y1485900D01*
X11488700D01*
Y1511300D01*
X11463300Y1536700D01*
X11488700Y1562100D01*
Y1587500D01*
X11463300D01*
X11437900Y1562100D01*
X11412500Y1587500D01*
X11387100D01*
Y1562100D01*
X11412500Y1536700D01*
X11387100Y1511300D01*
Y1485900D01*
X7200900Y4038600D02*
X7226300Y4064000D01*
X7251700D01*
X7226300Y4089400D01*
X7251700Y4114800D01*
X7226300D01*
X7200900Y4140200D01*
X7175500Y4114800D01*
X7150100D01*
X7175500Y4089400D01*
X7150100Y4064000D01*
X7175500D01*
X7200900Y4038600D01*
X13385800Y2193100D02*
X13411200D01*
X13436600Y2218500D01*
X13462000Y2193100D01*
X13487399D01*
Y2218500D01*
X13462000Y2243900D01*
X13487399Y2269300D01*
Y2294700D01*
X13462000D01*
X13436600Y2269300D01*
X13411200Y2294700D01*
X13385800D01*
Y2269300D01*
X13411200Y2243900D01*
X13385800Y2218500D01*
Y2193100D01*
X11336300Y2324100D02*
X11361700D01*
X11387100Y2349500D01*
X11412500Y2324100D01*
X11437900D01*
Y2349500D01*
X11412500Y2374900D01*
X11437900Y2400300D01*
Y2425700D01*
X11412500D01*
X11387100Y2400300D01*
X11361700Y2425700D01*
X11336300D01*
Y2400300D01*
X11361700Y2374900D01*
X11336300Y2349500D01*
Y2324100D01*
X13817599Y5283200D02*
X13766800Y5384800D01*
X13868401D01*
X13817599Y5283200D01*
Y5029200D02*
X13766800Y5130800D01*
X13868401D01*
X13817599Y5029200D01*
Y4521200D02*
X13766800Y4622800D01*
X13868401D01*
X13817599Y4521200D01*
Y4267200D02*
X13766800Y4368800D01*
X13868401D01*
X13817599Y4267200D01*
X13055600Y4013200D02*
X13004800Y4114800D01*
X13106400D01*
X13055600Y4013200D01*
X12611100Y2997200D02*
X12560300Y3098800D01*
X12661900D01*
X12611100Y2997200D01*
Y2489200D02*
X12560300Y2590800D01*
X12661900D01*
X12611100Y2489200D01*
Y1981200D02*
X12560300Y2082800D01*
X12661900D01*
X12611100Y1981200D01*
X11849100Y1727200D02*
X11798300Y1828800D01*
X11899900D01*
X11849100Y1727200D01*
Y2235200D02*
X11798300Y2336800D01*
X11899900D01*
X11849100Y2235200D01*
Y2743200D02*
X11798300Y2844800D01*
X11899900D01*
X11849100Y2743200D01*
X13881100Y6364400D02*
X13830299Y6466000D01*
X13931900D01*
X13881100Y6364400D01*
Y6384720D02*
X13850620Y6445680D01*
X13911580D01*
X13881100Y6384720D01*
X11836400Y6389800D02*
X11785600Y6491400D01*
X11887200D01*
X11836400Y6389800D01*
Y6410120D02*
X11805920Y6471080D01*
X11866880D01*
X11836400Y6410120D01*
X13106400Y8420100D02*
X13131799Y8470900D01*
X13106400Y8521700D01*
X13157201Y8496300D01*
X13208000Y8521700D01*
X13182600Y8470900D01*
X13208000Y8420100D01*
X13157201Y8445500D01*
X13106400Y8420100D01*
X13126720Y8440420D02*
X13141960Y8470900D01*
X13126720Y8501380D01*
X13157201Y8486140D01*
X13187680Y8501380D01*
X13172440Y8470900D01*
X13187680Y8440420D01*
X13157201Y8455660D01*
X13126720Y8440420D01*
X12471400Y8407400D02*
X12496800Y8458200D01*
X12471400Y8509000D01*
X12522200Y8483600D01*
X12573000Y8509000D01*
X12547600Y8458200D01*
X12573000Y8407400D01*
X12522200Y8432800D01*
X12471400Y8407400D01*
X12491720Y8427720D02*
X12506960Y8458200D01*
X12491720Y8488680D01*
X12522200Y8473440D01*
X12552680Y8488680D01*
X12537440Y8458200D01*
X12552680Y8427720D01*
X12522200Y8442960D01*
X12491720Y8427720D01*
X12769500Y6731100D02*
X12794900Y6756500D01*
X12820300D01*
X12794900Y6781900D01*
X12820300Y6807300D01*
X12794900D01*
X12769500Y6832700D01*
X12744100Y6807300D01*
X12718700D01*
X12744100Y6781900D01*
X12718700Y6756500D01*
X12744100D01*
X12769500Y6731100D01*
Y6751420D02*
X12784740Y6766660D01*
X12799980D01*
X12784740Y6781900D01*
X12799980Y6797140D01*
X12784740D01*
X12769500Y6812380D01*
X12754260Y6797140D01*
X12739020D01*
X12754260Y6781900D01*
X12739020Y6766660D01*
X12754260D01*
X12769500Y6751420D01*
X13550200Y6731000D02*
X13575600Y6756400D01*
X13600999D01*
X13575600Y6781800D01*
X13600999Y6807200D01*
X13575600D01*
X13550200Y6832600D01*
X13524800Y6807200D01*
X13499400D01*
X13524800Y6781800D01*
X13499400Y6756400D01*
X13524800D01*
X13550200Y6731000D01*
Y6751320D02*
X13565440Y6766560D01*
X13580679D01*
X13565440Y6781800D01*
X13580679Y6797040D01*
X13565440D01*
X13550200Y6812280D01*
X13534959Y6797040D01*
X13519720D01*
X13534959Y6781800D01*
X13519720Y6766560D01*
X13534959D01*
X13550200Y6751320D01*
X13728700Y12166600D02*
X13754100D01*
X13779500Y12192000D01*
X13804900Y12166600D01*
X13830299D01*
Y12192000D01*
X13804900Y12217400D01*
X13830299Y12242800D01*
Y12268200D01*
X13804900D01*
X13779500Y12242800D01*
X13754100Y12268200D01*
X13728700D01*
Y12242800D01*
X13754100Y12217400D01*
X13728700Y12192000D01*
Y12166600D01*
X13766800Y11137900D02*
X13792200D01*
X13817599Y11163300D01*
X13842999Y11137900D01*
X13868401D01*
Y11163300D01*
X13842999Y11188700D01*
X13868401Y11214100D01*
Y11239500D01*
X13842999D01*
X13817599Y11214100D01*
X13792200Y11239500D01*
X13766800D01*
Y11214100D01*
X13792200Y11188700D01*
X13766800Y11163300D01*
Y11137900D01*
X10091700Y1282700D02*
X10117100D01*
X10142500Y1308100D01*
X10167900Y1282700D01*
X10193300D01*
Y1308100D01*
X10167900Y1333500D01*
X10193300Y1358900D01*
Y1384300D01*
X10167900D01*
X10142500Y1358900D01*
X10117100Y1384300D01*
X10091700D01*
Y1358900D01*
X10117100Y1333500D01*
X10091700Y1308100D01*
Y1282700D01*
X10109200Y2108200D02*
X10134600D01*
X10160000Y2133600D01*
X10185400Y2108200D01*
X10210800D01*
Y2133600D01*
X10185400Y2159000D01*
X10210800Y2184400D01*
Y2209800D01*
X10185400D01*
X10160000Y2184400D01*
X10134600Y2209800D01*
X10109200D01*
Y2184400D01*
X10134600Y2159000D01*
X10109200Y2133600D01*
Y2108200D01*
X11404600Y11658600D02*
X11430000D01*
X11455400Y11684000D01*
X11480800Y11658600D01*
X11506200D01*
Y11684000D01*
X11480800Y11709400D01*
X11506200Y11734800D01*
Y11760200D01*
X11480800D01*
X11455400Y11734800D01*
X11430000Y11760200D01*
X11404600D01*
Y11734800D01*
X11430000Y11709400D01*
X11404600Y11684000D01*
Y11658600D01*
X9588500Y13157201D02*
Y13131799D01*
X9639300D01*
Y13157201D01*
X9664700D01*
Y13208000D01*
X9639300D01*
Y13233400D01*
X9588500D01*
Y13208000D01*
X9563100D01*
Y13157201D01*
X9588500D01*
X9563100Y14414500D02*
Y14389101D01*
X9613900D01*
Y14414500D01*
X9639300D01*
Y14465300D01*
X9613900D01*
Y14490700D01*
X9563100D01*
Y14465300D01*
X9537700D01*
Y14414500D01*
X9563100D01*
X11036300Y2324100D02*
X11061700D01*
X11087100Y2349500D01*
X11112500Y2324100D01*
X11137900D01*
Y2349500D01*
X11112500Y2374900D01*
X11137900Y2400300D01*
Y2425700D01*
X11112500D01*
X11087100Y2400300D01*
X11061700Y2425700D01*
X11036300D01*
Y2400300D01*
X11061700Y2374900D01*
X11036300Y2349500D01*
Y2324100D01*
X11087100Y1485900D02*
X11112500D01*
X11137900Y1511300D01*
X11163300Y1485900D01*
X11188700D01*
Y1511300D01*
X11163300Y1536700D01*
X11188700Y1562100D01*
Y1587500D01*
X11163300D01*
X11137900Y1562100D01*
X11112500Y1587500D01*
X11087100D01*
Y1562100D01*
X11112500Y1536700D01*
X11087100Y1511300D01*
Y1485900D01*
X13131799Y1393000D02*
X13157201D01*
X13182600Y1418400D01*
X13208000Y1393000D01*
X13233400D01*
Y1418400D01*
X13208000Y1443800D01*
X13233400Y1469200D01*
Y1494600D01*
X13208000D01*
X13182600Y1469200D01*
X13157201Y1494600D01*
X13131799D01*
Y1469200D01*
X13157201Y1443800D01*
X13131799Y1418400D01*
Y1393000D01*
X13385800Y2493100D02*
X13411200D01*
X13436600Y2518500D01*
X13462000Y2493100D01*
X13487399D01*
Y2518500D01*
X13462000Y2543900D01*
X13487399Y2569300D01*
Y2594700D01*
X13462000D01*
X13436600Y2569300D01*
X13411200Y2594700D01*
X13385800D01*
Y2569300D01*
X13411200Y2543900D01*
X13385800Y2518500D01*
Y2493100D01*
X11404600Y12458700D02*
X11430000D01*
X11455400Y12484100D01*
X11480800Y12458700D01*
X11506200D01*
Y12484100D01*
X11480800Y12509500D01*
X11506200Y12534900D01*
Y12560300D01*
X11480800D01*
X11455400Y12534900D01*
X11430000Y12560300D01*
X11404600D01*
Y12534900D01*
X11430000Y12509500D01*
X11404600Y12484100D01*
Y12458700D01*
X8877300Y13233400D02*
Y13208000D01*
X8928100D01*
Y13233400D01*
X8953500D01*
Y13284200D01*
X8928100D01*
Y13309599D01*
X8877300D01*
Y13284200D01*
X8851900D01*
Y13233400D01*
X8877300D01*
X8851900Y13868401D02*
Y13842999D01*
X8902700D01*
Y13868401D01*
X8928100D01*
Y13919200D01*
X8902700D01*
Y13944600D01*
X8851900D01*
Y13919200D01*
X8826500D01*
Y13868401D01*
X8851900D01*
X13017500Y14287500D02*
X13042900Y14338300D01*
X13017500Y14389101D01*
X13068300Y14363699D01*
X13119099Y14389101D01*
X13093700Y14338300D01*
X13119099Y14287500D01*
X13068300Y14312900D01*
X13017500Y14287500D01*
X12115800D02*
X12141200Y14338300D01*
X12115800Y14389101D01*
X12166600Y14363699D01*
X12217400Y14389101D01*
X12192000Y14338300D01*
X12217400Y14287500D01*
X12166600Y14312900D01*
X12115800Y14287500D01*
X7188200Y1866900D02*
X7213600Y1892300D01*
X7239000D01*
X7213600Y1917700D01*
X7239000Y1943100D01*
X7213600D01*
X7188200Y1968500D01*
X7162800Y1943100D01*
X7137400D01*
X7162800Y1917700D01*
X7137400Y1892300D01*
X7162800D01*
X7188200Y1866900D01*
X7200900Y3530600D02*
X7226300Y3556000D01*
X7251700D01*
X7226300Y3581400D01*
X7251700Y3606800D01*
X7226300D01*
X7200900Y3632200D01*
X7175500Y3606800D01*
X7150100D01*
X7175500Y3581400D01*
X7150100Y3556000D01*
X7175500D01*
X7200900Y3530600D01*
X12661900Y5918200D02*
X12611100Y6019800D01*
X12712700D01*
X12661900Y5918200D01*
Y5938520D02*
X12631420Y5999480D01*
X12692380D01*
X12661900Y5938520D01*
Y5018200D02*
X12611100Y5119800D01*
X12712700D01*
X12661900Y5018200D01*
Y5038520D02*
X12631420Y5099480D01*
X12692380D01*
X12661900Y5038520D01*
X13055600Y5029200D02*
X13004800Y5130800D01*
X13106400D01*
X13055600Y5029200D01*
X12611100Y1727200D02*
X12560300Y1828800D01*
X12661900D01*
X12611100Y1727200D01*
Y2235200D02*
X12560300Y2336800D01*
X12661900D01*
X12611100Y2235200D01*
Y2743200D02*
X12560300Y2844800D01*
X12661900D01*
X12611100Y2743200D01*
X11849100Y1981200D02*
X11798300Y2082800D01*
X11899900D01*
X11849100Y1981200D01*
Y2489200D02*
X11798300Y2590800D01*
X11899900D01*
X11849100Y2489200D01*
Y2997200D02*
X11798300Y3098800D01*
X11899900D01*
X11849100Y2997200D01*
Y3251200D02*
X11798300Y3352800D01*
X11899900D01*
X11849100Y3251200D01*
X13817599Y4013200D02*
X13766800Y4114800D01*
X13868401D01*
X13817599Y4013200D01*
Y4775200D02*
X13766800Y4876800D01*
X13868401D01*
X13817599Y4775200D01*
X13055600Y4267200D02*
X13004800Y4368800D01*
X13106400D01*
X13055600Y4267200D01*
Y4521200D02*
X13004800Y4622800D01*
X13106400D01*
X13055600Y4521200D01*
Y4775200D02*
X13004800Y4876800D01*
X13106400D01*
X13055600Y4775200D01*
Y5283200D02*
X13004800Y5384800D01*
X13106400D01*
X13055600Y5283200D01*
Y5537200D02*
X13004800Y5638800D01*
X13106400D01*
X13055600Y5537200D01*
X12649200Y3759200D02*
X12598400Y3860800D01*
X12700000D01*
X12649200Y3759200D01*
Y3779520D02*
X12618720Y3840480D01*
X12679680D01*
X12649200Y3779520D01*
Y4659200D02*
X12598400Y4760800D01*
X12700000D01*
X12649200Y4659200D01*
Y4679520D02*
X12618720Y4740480D01*
X12679680D01*
X12649200Y4679520D01*
X11874500Y4648200D02*
X11823700Y4749800D01*
X11925300D01*
X11874500Y4648200D01*
Y4668520D02*
X11844020Y4729480D01*
X11904980D01*
X11874500Y4668520D01*
X11849100Y5918200D02*
X11798300Y6019800D01*
X11899900D01*
X11849100Y5918200D01*
Y5938520D02*
X11818620Y5999480D01*
X11879580D01*
X11849100Y5938520D01*
X12293600Y5003800D02*
X12242800Y5105400D01*
X12344400D01*
X12293600Y5003800D01*
Y5024120D02*
X12263120Y5085080D01*
X12324080D01*
X12293600Y5024120D01*
Y5903800D02*
X12242800Y6005400D01*
X12344400D01*
X12293600Y5903800D01*
Y5924120D02*
X12263120Y5985080D01*
X12324080D01*
X12293600Y5924120D01*
X12006900Y7823200D02*
Y7924800D01*
X12108500D01*
Y7823200D01*
X12006900D01*
X12027220Y7843520D02*
Y7904480D01*
X12088180D01*
Y7843520D01*
X12027220D01*
X12270900Y7823200D02*
Y7924800D01*
X12372500D01*
Y7823200D01*
X12270900D01*
X12291220Y7843520D02*
Y7904480D01*
X12352180D01*
Y7843520D01*
X12291220D01*
X12293600Y3759200D02*
X12242800Y3860800D01*
X12344400D01*
X12293600Y3759200D01*
Y3779520D02*
X12263120Y3840480D01*
X12324080D01*
X12293600Y3779520D01*
Y4659200D02*
X12242800Y4760800D01*
X12344400D01*
X12293600Y4659200D01*
Y4679520D02*
X12263120Y4740480D01*
X12324080D01*
X12293600Y4679520D01*
X13182600Y7835900D02*
Y7937500D01*
X13284200D01*
Y7835900D01*
X13182600D01*
X13202921Y7856220D02*
Y7917180D01*
X13263879D01*
Y7856220D01*
X13202921D01*
X13446600Y7835900D02*
Y7937500D01*
X13548199D01*
Y7835900D01*
X13446600D01*
X13466920Y7856220D02*
Y7917180D01*
X13527879D01*
Y7856220D01*
X13466920D01*
X13290199Y6731000D02*
X13315601Y6756400D01*
X13341000D01*
X13315601Y6781800D01*
X13341000Y6807200D01*
X13315601D01*
X13290199Y6832600D01*
X13264799Y6807200D01*
X13239400D01*
X13264799Y6781800D01*
X13239400Y6756400D01*
X13264799D01*
X13290199Y6731000D01*
Y6751320D02*
X13305440Y6766560D01*
X13320680D01*
X13305440Y6781800D01*
X13320680Y6797040D01*
X13305440D01*
X13290199Y6812280D01*
X13274960Y6797040D01*
X13259720D01*
X13274960Y6781800D01*
X13259720Y6766560D01*
X13274960D01*
X13290199Y6751320D01*
X13030200Y6731000D02*
X13055600Y6756400D01*
X13081000D01*
X13055600Y6781800D01*
X13081000Y6807200D01*
X13055600D01*
X13030200Y6832600D01*
X13004800Y6807200D01*
X12979401D01*
X13004800Y6781800D01*
X12979401Y6756400D01*
X13004800D01*
X13030200Y6731000D01*
Y6751320D02*
X13045441Y6766560D01*
X13060680D01*
X13045441Y6781800D01*
X13060680Y6797040D01*
X13045441D01*
X13030200Y6812280D01*
X13014960Y6797040D01*
X12999719D01*
X13014960Y6781800D01*
X12999719Y6766560D01*
X13014960D01*
X13030200Y6751320D01*
X12509500Y6731100D02*
X12534900Y6756500D01*
X12560300D01*
X12534900Y6781900D01*
X12560300Y6807300D01*
X12534900D01*
X12509500Y6832700D01*
X12484100Y6807300D01*
X12458700D01*
X12484100Y6781900D01*
X12458700Y6756500D01*
X12484100D01*
X12509500Y6731100D01*
Y6751420D02*
X12524740Y6766660D01*
X12539980D01*
X12524740Y6781900D01*
X12539980Y6797140D01*
X12524740D01*
X12509500Y6812380D01*
X12494260Y6797140D01*
X12479020D01*
X12494260Y6781900D01*
X12479020Y6766660D01*
X12494260D01*
X12509500Y6751420D01*
X12249500Y6731100D02*
X12274900Y6756500D01*
X12300300D01*
X12274900Y6781900D01*
X12300300Y6807300D01*
X12274900D01*
X12249500Y6832700D01*
X12224100Y6807300D01*
X12198700D01*
X12224100Y6781900D01*
X12198700Y6756500D01*
X12224100D01*
X12249500Y6731100D01*
Y6751420D02*
X12264740Y6766660D01*
X12279980D01*
X12264740Y6781900D01*
X12279980Y6797140D01*
X12264740D01*
X12249500Y6812380D01*
X12234260Y6797140D01*
X12219020D01*
X12234260Y6781900D01*
X12219020Y6766660D01*
X12234260D01*
X12249500Y6751420D01*
X12014200Y8407400D02*
X12039600Y8458200D01*
X12014200Y8509000D01*
X12065000Y8483600D01*
X12115800Y8509000D01*
X12090400Y8458200D01*
X12115800Y8407400D01*
X12065000Y8432800D01*
X12014200Y8407400D01*
X12034520Y8427720D02*
X12049760Y8458200D01*
X12034520Y8488680D01*
X12065000Y8473440D01*
X12095480Y8488680D01*
X12080240Y8458200D01*
X12095480Y8427720D01*
X12065000Y8442960D01*
X12034520Y8427720D01*
X12242800Y8407400D02*
X12268200Y8458200D01*
X12242800Y8509000D01*
X12293600Y8483600D01*
X12344400Y8509000D01*
X12319000Y8458200D01*
X12344400Y8407400D01*
X12293600Y8432800D01*
X12242800Y8407400D01*
X12263120Y8427720D02*
X12278360Y8458200D01*
X12263120Y8488680D01*
X12293600Y8473440D01*
X12324080Y8488680D01*
X12308840Y8458200D01*
X12324080Y8427720D01*
X12293600Y8442960D01*
X12263120Y8427720D01*
X13563600Y8420100D02*
X13589000Y8470900D01*
X13563600Y8521700D01*
X13614400Y8496300D01*
X13665199Y8521700D01*
X13639799Y8470900D01*
X13665199Y8420100D01*
X13614400Y8445500D01*
X13563600Y8420100D01*
X13583920Y8440420D02*
X13599159Y8470900D01*
X13583920Y8501380D01*
X13614400Y8486140D01*
X13644881Y8501380D01*
X13629640Y8470900D01*
X13644881Y8440420D01*
X13614400Y8455660D01*
X13583920Y8440420D01*
X13335001Y8420100D02*
X13360400Y8470900D01*
X13335001Y8521700D01*
X13385800Y8496300D01*
X13436600Y8521700D01*
X13411200Y8470900D01*
X13436600Y8420100D01*
X13385800Y8445500D01*
X13335001Y8420100D01*
X13355321Y8440420D02*
X13370560Y8470900D01*
X13355321Y8501380D01*
X13385800Y8486140D01*
X13416280Y8501380D01*
X13401041Y8470900D01*
X13416280Y8440420D01*
X13385800Y8455660D01*
X13355321Y8440420D01*
X13881100Y7264400D02*
X13830299Y7366000D01*
X13931900D01*
X13881100Y7264400D01*
Y7284720D02*
X13850620Y7345680D01*
X13911580D01*
X13881100Y7284720D01*
X11836400Y7289800D02*
X11785600Y7391400D01*
X11887200D01*
X11836400Y7289800D01*
Y7310120D02*
X11805920Y7371080D01*
X11866880D01*
X11836400Y7310120D01*
X10083800Y13868401D02*
Y13842999D01*
X10134600D01*
Y13868401D01*
X10160000D01*
Y13919200D01*
X10134600D01*
Y13944600D01*
X10083800D01*
Y13919200D01*
X10058400D01*
Y13868401D01*
X10083800D01*
X10109200Y12623800D02*
Y12598400D01*
X10160000D01*
Y12623800D01*
X10185400D01*
Y12674600D01*
X10160000D01*
Y12700000D01*
X10109200D01*
Y12674600D01*
X10083800D01*
Y12623800D01*
X10109200D01*
X10071100Y13131799D02*
Y13233400D01*
X10172700D01*
Y13131799D01*
X10071100D01*
X10091420Y13152119D02*
Y13213080D01*
X10152380D01*
Y13152119D01*
X10091420D01*
X10045700Y14389101D02*
Y14490700D01*
X10147300D01*
Y14389101D01*
X10045700D01*
X10066020Y14409419D02*
Y14470380D01*
X10126980D01*
Y14409419D01*
X10066020D01*
X8343900Y13208000D02*
Y13309599D01*
X8445500D01*
Y13208000D01*
X8343900D01*
X8364220Y13228320D02*
Y13289281D01*
X8425180D01*
Y13228320D01*
X8364220D01*
X8318500Y13842999D02*
Y13944600D01*
X8420100D01*
Y13842999D01*
X8318500D01*
X8338820Y13863319D02*
Y13924280D01*
X8399780D01*
Y13863319D01*
X8338820D01*
X7366000Y13665199D02*
X7391400Y13690601D01*
X7416800D01*
X7391400Y13716000D01*
X7416800Y13741400D01*
X7391400D01*
X7366000Y13766800D01*
X7340600Y13741400D01*
X7315200D01*
X7340600Y13716000D01*
X7315200Y13690601D01*
X7340600D01*
X7366000Y13665199D01*
Y14173199D02*
X7391400Y14198599D01*
X7416800D01*
X7391400Y14224001D01*
X7416800Y14249400D01*
X7391400D01*
X7366000Y14274800D01*
X7340600Y14249400D01*
X7315200D01*
X7340600Y14224001D01*
X7315200Y14198599D01*
X7340600D01*
X7366000Y14173199D01*
X11506200Y9118600D02*
X11531600Y9169400D01*
X11506200Y9220200D01*
X11557000Y9194800D01*
X11607800Y9220200D01*
X11582400Y9169400D01*
X11607800Y9118600D01*
X11557000Y9144000D01*
X11506200Y9118600D01*
X12763500Y14287500D02*
X12788900Y14338300D01*
X12763500Y14389101D01*
X12814301Y14363699D01*
X12865100Y14389101D01*
X12839700Y14338300D01*
X12865100Y14287500D01*
X12814301Y14312900D01*
X12763500Y14287500D01*
X11861800D02*
X11887200Y14338300D01*
X11861800Y14389101D01*
X11912600Y14363699D01*
X11963400Y14389101D01*
X11938000Y14338300D01*
X11963400Y14287500D01*
X11912600Y14312900D01*
X11861800Y14287500D01*
X8331200Y14401801D02*
Y14376401D01*
X8382000D01*
Y14401801D01*
X8407400D01*
Y14452600D01*
X8382000D01*
Y14478000D01*
X8331200D01*
Y14452600D01*
X8305800D01*
Y14401801D01*
X8331200D01*
X8369300Y12534900D02*
Y12509500D01*
X8420100D01*
Y12534900D01*
X8445500D01*
Y12585700D01*
X8420100D01*
Y12611100D01*
X8369300D01*
Y12585700D01*
X8343900D01*
Y12534900D01*
X8369300D01*
X7327900Y12420600D02*
X7378700Y12471400D01*
X7429500Y12420600D01*
X7378700Y12369800D01*
X7327900Y12420600D01*
X13449300Y3314700D02*
X13500101Y3365500D01*
X13550900Y3314700D01*
X13500101Y3263900D01*
X13449300Y3314700D01*
X12814301Y13385800D02*
X12865100Y13436600D01*
X12915900Y13385800D01*
X12865100Y13335001D01*
X12814301Y13385800D01*
X8382000Y1727200D02*
X8432800Y1778000D01*
X8483600Y1727200D01*
X8432800Y1676400D01*
X8382000Y1727200D01*
D88*
X11226800Y3860800D02*
G03*
X11226800Y3860800I-50800J0D01*
G01*
Y4622800D02*
G03*
X11226800Y4622800I-50800J0D01*
G01*
Y5130800D02*
G03*
X11226800Y5130800I-50800J0D01*
G01*
Y3606800D02*
G03*
X11226800Y3606800I-50800J0D01*
G01*
Y4114800D02*
G03*
X11226800Y4114800I-50800J0D01*
G01*
Y4876800D02*
G03*
X11226800Y4876800I-50800J0D01*
G01*
X8191500Y7670800D02*
G03*
X8191500Y7670800I-50800J0D01*
G01*
X6997700Y10464800D02*
G03*
X6997700Y10464800I-50800J0D01*
G01*
X11226800Y4368800D02*
G03*
X11226800Y4368800I-50800J0D01*
G01*
X8191500Y4622800D02*
G03*
X8191500Y4622800I-50800J0D01*
G01*
Y7416800D02*
G03*
X8191500Y7416800I-50800J0D01*
G01*
X6997700Y10210800D02*
G03*
X6997700Y10210800I-50800J0D01*
G01*
Y8026400D02*
G03*
X6997700Y8026400I-50800J0D01*
G01*
Y9296400D02*
G03*
X6997700Y9296400I-50800J0D01*
G01*
Y9042400D02*
G03*
X6997700Y9042400I-50800J0D01*
G01*
Y8280400D02*
G03*
X6997700Y8280400I-50800J0D01*
G01*
Y8534400D02*
G03*
X6997700Y8534400I-50800J0D01*
G01*
Y8788400D02*
G03*
X6997700Y8788400I-50800J0D01*
G01*
X6972300Y7175500D02*
G03*
X6972300Y7175500I-50800J0D01*
G01*
Y6921500D02*
G03*
X6972300Y6921500I-50800J0D01*
G01*
Y6667500D02*
G03*
X6972300Y6667500I-50800J0D01*
G01*
Y6413500D02*
G03*
X6972300Y6413500I-50800J0D01*
G01*
X13182600Y9245600D02*
G03*
X13182600Y9245600I-50800J0D01*
G01*
Y9995600D02*
G03*
X13182600Y9995600I-50800J0D01*
G01*
X11226800Y7670800D02*
G03*
X11226800Y7670800I-50800J0D01*
G01*
Y7924800D02*
G03*
X11226800Y7924800I-50800J0D01*
G01*
X9334500Y2095500D02*
G03*
X9334500Y2095500I-50800J0D01*
G01*
Y1841500D02*
G03*
X9334500Y1841500I-50800J0D01*
G01*
X10985500Y13614400D02*
G03*
X10985500Y13614400I-50800J0D01*
G01*
X6997700Y10718800D02*
G03*
X6997700Y10718800I-50800J0D01*
G01*
X9334500Y1587500D02*
G03*
X9334500Y1587500I-50800J0D01*
G01*
X11226800Y8686800D02*
G03*
X11226800Y8686800I-50800J0D01*
G01*
X10985500Y13360400D02*
G03*
X10985500Y13360400I-50800J0D01*
G01*
X8191500Y3352800D02*
G03*
X8191500Y3352800I-50800J0D01*
G01*
X6997700Y10972800D02*
G03*
X6997700Y10972800I-50800J0D01*
G01*
Y11226800D02*
G03*
X6997700Y11226800I-50800J0D01*
G01*
X11226800Y8178800D02*
G03*
X11226800Y8178800I-50800J0D01*
G01*
Y8432800D02*
G03*
X11226800Y8432800I-50800J0D01*
G01*
X8191500Y5384800D02*
G03*
X8191500Y5384800I-50800J0D01*
G01*
Y5130800D02*
G03*
X8191500Y5130800I-50800J0D01*
G01*
Y4876800D02*
G03*
X8191500Y4876800I-50800J0D01*
G01*
Y4368800D02*
G03*
X8191500Y4368800I-50800J0D01*
G01*
Y4114800D02*
G03*
X8191500Y4114800I-50800J0D01*
G01*
Y3860800D02*
G03*
X8191500Y3860800I-50800J0D01*
G01*
Y3606800D02*
G03*
X8191500Y3606800I-50800J0D01*
G01*
X10985500Y13868401D02*
G03*
X10985500Y13868401I-50800J0D01*
G01*
Y14376401D02*
G03*
X10985500Y14376401I-50800J0D01*
G01*
Y14122400D02*
G03*
X10985500Y14122400I-50800J0D01*
G01*
X8191500Y5638800D02*
G03*
X8191500Y5638800I-50800J0D01*
G01*
Y5892800D02*
G03*
X8191500Y5892800I-50800J0D01*
G01*
Y6146800D02*
G03*
X8191500Y6146800I-50800J0D01*
G01*
Y6400800D02*
G03*
X8191500Y6400800I-50800J0D01*
G01*
Y6654800D02*
G03*
X8191500Y6654800I-50800J0D01*
G01*
Y6908800D02*
G03*
X8191500Y6908800I-50800J0D01*
G01*
Y7162800D02*
G03*
X8191500Y7162800I-50800J0D01*
G01*
Y8686800D02*
G03*
X8191500Y8686800I-50800J0D01*
G01*
Y8178800D02*
G03*
X8191500Y8178800I-50800J0D01*
G01*
Y7924800D02*
G03*
X8191500Y7924800I-50800J0D01*
G01*
Y8432800D02*
G03*
X8191500Y8432800I-50800J0D01*
G01*
X11226800Y7416800D02*
G03*
X11226800Y7416800I-50800J0D01*
G01*
X6997700Y9956800D02*
G03*
X6997700Y9956800I-50800J0D01*
G01*
X11226800Y7162800D02*
G03*
X11226800Y7162800I-50800J0D01*
G01*
Y6908800D02*
G03*
X11226800Y6908800I-50800J0D01*
G01*
Y6146800D02*
G03*
X11226800Y6146800I-50800J0D01*
G01*
Y3352800D02*
G03*
X11226800Y3352800I-50800J0D01*
G01*
Y6400800D02*
G03*
X11226800Y6400800I-50800J0D01*
G01*
Y6654800D02*
G03*
X11226800Y6654800I-50800J0D01*
G01*
Y5638800D02*
G03*
X11226800Y5638800I-50800J0D01*
G01*
Y5892800D02*
G03*
X11226800Y5892800I-50800J0D01*
G01*
Y5384800D02*
G03*
X11226800Y5384800I-50800J0D01*
G01*
X11684000Y6223000D02*
G03*
X11684000Y6223000I-50800J0D01*
G01*
X11582400Y6794500D02*
G03*
X11582400Y6794500I-50800J0D01*
G01*
X7366000Y9258300D02*
G03*
X7366000Y9258300I-50800J0D01*
G01*
X12319000Y10566400D02*
G03*
X12319000Y10566400I-50800J0D01*
G01*
X12915900Y2400300D02*
G03*
X12915900Y2400300I-50800J0D01*
G01*
X8788400Y2133600D02*
G03*
X8788400Y2133600I-50800J0D01*
G01*
X11391900Y13652499D02*
G03*
X11391900Y13652499I-50800J0D01*
G01*
X13169901Y12573000D02*
G03*
X13169901Y12573000I-50800J0D01*
G01*
X12433300Y13258800D02*
G03*
X12433300Y13258800I-50800J0D01*
G01*
X14135100Y10795000D02*
G03*
X14135100Y10795000I-50800J0D01*
G01*
X11785600Y11239500D02*
G03*
X11785600Y11239500I-50800J0D01*
G01*
X11671300Y10896600D02*
G03*
X11671300Y10896600I-50800J0D01*
G01*
X13195300Y10934700D02*
G03*
X13195300Y10934700I-50800J0D01*
G01*
X11493500Y8902700D02*
G03*
X11493500Y8902700I-50800J0D01*
G01*
X12899049Y3596702D02*
G03*
X12899049Y3596702I-50800J0D01*
G01*
X12890500Y8458200D02*
G03*
X12890500Y8458200I-50800J0D01*
G01*
X13589000Y7226300D02*
G03*
X13589000Y7226300I-50800J0D01*
G01*
X12750800Y6451600D02*
G03*
X12750800Y6451600I-50800J0D01*
G01*
X10680700Y1333500D02*
G03*
X10680700Y1333500I-50800J0D01*
G01*
X11087100Y11252200D02*
G03*
X11087100Y11252200I-50800J0D01*
G01*
X10210518Y11485534D02*
G03*
X10210518Y11485534I-50800J0D01*
G01*
X7531100Y10579100D02*
G03*
X7531100Y10579100I-50800J0D01*
G01*
X13228479Y6088221D02*
G03*
X13228479Y6088221I-50800J0D01*
G01*
X11201400Y9626600D02*
G03*
X11201400Y9626600I-50800J0D01*
G01*
X13195300Y11658600D02*
G03*
X13195300Y11658600I-50800J0D01*
G01*
X12687300Y7366000D02*
G03*
X12687300Y7366000I-50800J0D01*
G01*
X12192000Y7239000D02*
G03*
X12192000Y7239000I-50800J0D01*
G01*
X13201712Y7575796D02*
G03*
X13201712Y7575796I-50800J0D01*
G01*
X13525500Y6096000D02*
G03*
X13525500Y6096000I-50800J0D01*
G01*
X11569700Y4648200D02*
G03*
X11569700Y4648200I-50800J0D01*
G01*
X11607800Y3035300D02*
G03*
X11607800Y3035300I-50800J0D01*
G01*
X10680700Y13373100D02*
G03*
X10680700Y13373100I-50800J0D01*
G01*
X12166600Y12966701D02*
G03*
X12166600Y12966701I-50800J0D01*
G01*
X11391900Y14224001D02*
G03*
X11391900Y14224001I-50800J0D01*
G01*
X14198599Y8329600D02*
G03*
X14198599Y8329600I-50800J0D01*
G01*
X13488033Y7505068D02*
G03*
X13488033Y7505068I-50800J0D01*
G01*
X12077700Y10325100D02*
G03*
X12077700Y10325100I-50800J0D01*
G01*
Y9855200D02*
G03*
X12077700Y9855200I-50800J0D01*
G01*
%TF.MD5,05017a70a232ce61a42edb7d13b4eea3*%
M02*
