%TF.GenerationSoftware,Altium Limited,Altium Designer,25.8.1 (18)*%
G04 Layer_Physical_Order=1*
G04 Layer_Color=255*
%FSLAX45Y45*%
%MOMM*%
%TF.SameCoordinates,412E6415-05C8-40E6-B22C-806341DFC968*%
%TF.FilePolarity,Positive*%
%TF.FileFunction,Copper,L1,Top,Signal*%
%TF.Part,Single*%
G01*
G75*
%TA.AperFunction,Conductor*%
%ADD10C,1.00000*%
%ADD11C,0.50000*%
%ADD12C,1.50000*%
%ADD13C,2.00000*%
%ADD14C,2.50000*%
%TA.AperFunction,NonConductor*%
%ADD15C,0.25400*%
%TA.AperFunction,ComponentPad*%
%ADD16C,1.39700*%
%ADD17R,1.39700X1.39700*%
%ADD18C,1.60000*%
%ADD19O,5.00000X3.00000*%
%ADD20R,5.00000X3.00000*%
%ADD21C,1.50000*%
%ADD22R,1.50000X1.50000*%
%ADD23O,1.50000X3.00000*%
%ADD24C,1.77800*%
%ADD25C,2.00000*%
%ADD26R,1.77800X1.77800*%
%ADD27R,1.65000X1.65000*%
%ADD28C,1.60000*%
%ADD29C,1.57480*%
%ADD30O,3.00000X1.50000*%
%ADD31R,1.60000X1.60000*%
%ADD32C,1.65100*%
%ADD33C,1.45000*%
%ADD34R,1.50000X3.00000*%
%ADD35C,2.03200*%
%ADD36R,3.00000X1.50000*%
%ADD37C,1.65000*%
%ADD38R,1.45000X1.45000*%
%ADD39R,1.65100X1.65100*%
%ADD40C,7.00000*%
%TA.AperFunction,ViaPad*%
%ADD41C,2.00000*%
G36*
X11752532Y14951314D02*
X11772900Y14909750D01*
X11772900Y14901271D01*
Y14655800D01*
X12839388D01*
Y14899059D01*
X12865331Y14949005D01*
X13398500Y14947899D01*
X14617700Y13728700D01*
X14655800Y2540000D01*
Y2463800D01*
X13131799Y939800D01*
X7175500D01*
X6680200Y1447800D01*
X6604000Y1524000D01*
X6629400Y14262100D01*
Y14300200D01*
X7049300Y14745808D01*
X7099300Y14725961D01*
Y14541499D01*
X7988045D01*
Y14795451D01*
X7164780D01*
X7143194Y14845451D01*
X7251700Y14960600D01*
X7277100D01*
X11752532Y14951314D01*
D02*
G37*
%LPC*%
G36*
X11559539Y14897234D02*
X11000887D01*
Y14708244D01*
X10950887Y14687534D01*
X10776445Y14861977D01*
X10760694Y14874062D01*
X10742352Y14881659D01*
X10722669Y14884251D01*
X8801100D01*
X8781417Y14881659D01*
X8763075Y14874062D01*
X8747324Y14861977D01*
X8533417Y14648068D01*
X8521330Y14632318D01*
X8513733Y14613976D01*
X8511142Y14594292D01*
Y14513525D01*
X8461142Y14500128D01*
X8458225Y14505180D01*
X8434580Y14528825D01*
X8405620Y14545544D01*
X8373320Y14554201D01*
X8339880D01*
X8307580Y14545544D01*
X8278620Y14528825D01*
X8254975Y14505180D01*
X8238255Y14476221D01*
X8229600Y14443919D01*
Y14410480D01*
X8238255Y14378180D01*
X8254975Y14349220D01*
X8278620Y14325575D01*
X8280221Y14324651D01*
X8266824Y14274651D01*
X8064500D01*
X8044817Y14272060D01*
X8026475Y14264462D01*
X8010724Y14252376D01*
X7517822Y13759473D01*
X7500688Y13758862D01*
X7458765Y13771127D01*
X7452341Y13782253D01*
X7432252Y13802341D01*
X7407648Y13816547D01*
X7380205Y13823900D01*
X7351795D01*
X7324352Y13816547D01*
X7299748Y13802341D01*
X7279659Y13782253D01*
X7265453Y13757648D01*
X7258100Y13730205D01*
Y13701794D01*
X7265453Y13674352D01*
X7279659Y13649748D01*
X7299748Y13629659D01*
X7310873Y13623235D01*
X7323136Y13581313D01*
X7322527Y13564178D01*
X6935222Y13176872D01*
X6906353Y13148004D01*
X6900534Y13140421D01*
X6894658Y13132922D01*
X6894505Y13132565D01*
X6894267Y13132254D01*
X6890609Y13123422D01*
X6886874Y13114659D01*
X6886819Y13114272D01*
X6886670Y13113911D01*
X6885423Y13104443D01*
X6884082Y13095003D01*
X6883667Y13054179D01*
X6883667Y13054176D01*
X6877276Y12425815D01*
X6877159Y12425701D01*
X6876825Y12420600D01*
X6877345Y12412667D01*
X6877418Y12407577D01*
X6878224Y12376300D01*
X6897416Y11631242D01*
X6898814Y11622392D01*
X6899982Y11613517D01*
X6900359Y11612606D01*
X6900513Y11611631D01*
X6904153Y11603447D01*
X6907580Y11595175D01*
X6908180Y11594392D01*
X6908581Y11593491D01*
X6914214Y11586529D01*
X6919666Y11579424D01*
X7404249Y11094840D01*
Y10679992D01*
X7403303Y10679445D01*
X7379955Y10656097D01*
X7363446Y10627502D01*
X7354900Y10595609D01*
Y10562591D01*
X7363446Y10530698D01*
X7379955Y10502103D01*
X7403303Y10478755D01*
X7426036Y10465630D01*
Y10214413D01*
X7428628Y10194730D01*
X7436225Y10176388D01*
X7448311Y10160637D01*
X7680524Y9928424D01*
X7696275Y9916338D01*
X7714617Y9908741D01*
X7734300Y9906149D01*
X8286999D01*
X8709224Y9483924D01*
X8724975Y9471838D01*
X8743317Y9464241D01*
X8763000Y9461649D01*
X11042021D01*
X11061705Y9464241D01*
X11080047Y9471838D01*
X11095797Y9483924D01*
X11117515Y9505642D01*
X11134091Y9501200D01*
X11167109D01*
X11199002Y9509746D01*
X11227597Y9526255D01*
X11250945Y9549603D01*
X11267454Y9578198D01*
X11276000Y9610091D01*
Y9643109D01*
X11267454Y9675002D01*
X11265309Y9678718D01*
X11294089Y9728718D01*
X12026900D01*
X12035119Y9729800D01*
X12043409D01*
X12051418Y9731946D01*
X12059636Y9733028D01*
X12067295Y9736200D01*
X12075302Y9738346D01*
X12082482Y9742491D01*
X12090141Y9745663D01*
X12096718Y9750710D01*
X12103897Y9754855D01*
X12109758Y9760716D01*
X12116336Y9765764D01*
X12121384Y9772342D01*
X12127245Y9778203D01*
X12131390Y9785382D01*
X12136437Y9791959D01*
X12139609Y9799618D01*
X12143754Y9806798D01*
X12145900Y9814805D01*
X12149072Y9822464D01*
X12150154Y9830682D01*
X12152300Y9838691D01*
Y9846981D01*
X12153382Y9855200D01*
X12152300Y9863419D01*
Y9871709D01*
X12150154Y9879718D01*
X12149072Y9887936D01*
X12145900Y9895595D01*
X12143754Y9903602D01*
X12139609Y9910782D01*
X12136437Y9918441D01*
X12131390Y9925018D01*
X12127245Y9932197D01*
X12121384Y9938058D01*
X12116336Y9944636D01*
X12109758Y9949684D01*
X12103897Y9955545D01*
X12096718Y9959690D01*
X12090141Y9964737D01*
X12082482Y9967909D01*
X12075302Y9972054D01*
X12067295Y9974200D01*
X12059636Y9977372D01*
X12051418Y9978454D01*
X12043409Y9980600D01*
X12035119D01*
X12026900Y9981682D01*
X10745791D01*
X10565584Y10161889D01*
X10593906Y10204277D01*
X10597164Y10202928D01*
X10629900Y10198618D01*
X12026900D01*
X12035119Y10199700D01*
X12043409D01*
X12051418Y10201846D01*
X12059636Y10202928D01*
X12067295Y10206100D01*
X12075302Y10208246D01*
X12082482Y10212391D01*
X12090141Y10215563D01*
X12096718Y10220610D01*
X12103897Y10224755D01*
X12109758Y10230616D01*
X12116336Y10235664D01*
X12121384Y10242242D01*
X12127245Y10248103D01*
X12131390Y10255282D01*
X12136437Y10261859D01*
X12139609Y10269518D01*
X12143754Y10276698D01*
X12145900Y10284705D01*
X12149072Y10292364D01*
X12150154Y10300582D01*
X12152300Y10308591D01*
Y10316881D01*
X12153382Y10325100D01*
X12152300Y10333319D01*
Y10341609D01*
X12150154Y10349618D01*
X12149072Y10357836D01*
X12145900Y10365495D01*
X12143754Y10373502D01*
X12139609Y10380682D01*
X12136437Y10388341D01*
X12131390Y10394918D01*
X12127245Y10402097D01*
X12121384Y10407958D01*
X12116336Y10414536D01*
X12109758Y10419584D01*
X12103897Y10425445D01*
X12096718Y10429590D01*
X12090141Y10434637D01*
X12082482Y10437809D01*
X12075302Y10441954D01*
X12067295Y10444100D01*
X12059636Y10447272D01*
X12051418Y10448354D01*
X12043409Y10450500D01*
X12035119D01*
X12026900Y10451582D01*
X10682291D01*
X8497325Y12636548D01*
X8496325Y12638280D01*
X8472680Y12661925D01*
X8443720Y12678645D01*
X8411420Y12687300D01*
X8377980D01*
X8345680Y12678645D01*
X8316720Y12661925D01*
X8293075Y12638280D01*
X8276355Y12609320D01*
X8267700Y12577020D01*
Y12543580D01*
X8272494Y12525690D01*
X8227665Y12499808D01*
X8127482Y12599991D01*
Y12812709D01*
X8459273Y13144501D01*
X8509000D01*
Y13207059D01*
X8516872Y13226064D01*
X8521182Y13258800D01*
X8516872Y13291536D01*
X8509000Y13310541D01*
Y13373100D01*
X8446441D01*
X8427436Y13380972D01*
X8394700Y13385281D01*
X8361964Y13380972D01*
X8342958Y13373100D01*
X8280400D01*
Y13323373D01*
X7911564Y12954536D01*
X7891463Y12928342D01*
X7878828Y12897836D01*
X7874518Y12865100D01*
X7874518Y12865099D01*
Y12547602D01*
X7874518Y12547600D01*
X7878828Y12514864D01*
X7891463Y12484359D01*
X7911564Y12458164D01*
X10603963Y9765765D01*
X10603964Y9765764D01*
X10630159Y9745663D01*
X10660664Y9733028D01*
X10693400Y9728718D01*
X10693402Y9728718D01*
X11007111D01*
X11035891Y9678718D01*
X11033746Y9675002D01*
X11025200Y9643109D01*
Y9628430D01*
X11010520Y9613751D01*
X9592550D01*
X9573415Y9659945D01*
X9718787Y9805316D01*
X9835495Y9688607D01*
X9988726Y9841838D01*
X10055702Y9845572D01*
X10158738Y9742535D01*
X10338309Y9922106D01*
X7860536Y12399878D01*
X7795880Y12335222D01*
X7749037Y12359090D01*
X7754100Y12391055D01*
Y12450145D01*
X7744856Y12508506D01*
X7726597Y12564704D01*
X7699771Y12617352D01*
X7665039Y12665157D01*
X7623257Y12706939D01*
X7575452Y12741671D01*
X7522804Y12768497D01*
X7466606Y12786756D01*
X7408245Y12796000D01*
X7349155D01*
X7290794Y12786756D01*
X7234596Y12768497D01*
X7181948Y12741671D01*
X7134143Y12706939D01*
X7092361Y12665157D01*
X7081673Y12650445D01*
X7031838Y12666919D01*
X7035760Y13052631D01*
X7035760Y13052632D01*
X7035860Y13062408D01*
X7042774Y13069322D01*
X7463046Y13489594D01*
X7469430Y13492238D01*
X7485180Y13504324D01*
X7577676Y13596820D01*
X7589762Y13612570D01*
X7592406Y13618954D01*
X8096001Y14122549D01*
X8394700D01*
X8414383Y14125140D01*
X8432725Y14132738D01*
X8448476Y14144824D01*
X8640968Y14337317D01*
X8653054Y14353067D01*
X8656201Y14360664D01*
X8660652Y14371410D01*
X8663243Y14391092D01*
Y14562791D01*
X8832601Y14732149D01*
X10691168D01*
X10896319Y14526997D01*
X10895312Y14504092D01*
X10883856Y14468750D01*
X10869983Y14460741D01*
X10850359Y14441116D01*
X10836483Y14417084D01*
X10829300Y14390276D01*
Y14362524D01*
X10836483Y14335716D01*
X10850359Y14311684D01*
X10869983Y14292059D01*
X10894017Y14278183D01*
X10904844Y14275282D01*
Y14223518D01*
X10894017Y14220618D01*
X10869983Y14206741D01*
X10850359Y14187117D01*
X10836483Y14163083D01*
X10829300Y14136276D01*
Y14108524D01*
X10836483Y14081717D01*
X10850359Y14057683D01*
X10869983Y14038058D01*
X10894017Y14024184D01*
X10904844Y14021281D01*
Y13969518D01*
X10894017Y13966617D01*
X10869983Y13952740D01*
X10850359Y13933118D01*
X10836483Y13909084D01*
X10829300Y13882275D01*
Y13854524D01*
X10836483Y13827718D01*
X10850359Y13803683D01*
X10869983Y13784059D01*
X10894017Y13770183D01*
X10904844Y13767282D01*
Y13715518D01*
X10894017Y13712617D01*
X10869983Y13698741D01*
X10850359Y13679117D01*
X10836483Y13655083D01*
X10829300Y13628276D01*
Y13600523D01*
X10836483Y13573717D01*
X10850359Y13549683D01*
X10869983Y13530058D01*
X10894017Y13516183D01*
X10904844Y13513281D01*
Y13461517D01*
X10894017Y13458617D01*
X10869983Y13444740D01*
X10850359Y13425117D01*
X10836483Y13401083D01*
X10829300Y13374277D01*
Y13373100D01*
X10934700D01*
X11040100D01*
Y13374277D01*
X11032917Y13401083D01*
X11019041Y13425117D01*
X10999417Y13444740D01*
X10975383Y13458617D01*
X10964556Y13461517D01*
Y13513281D01*
X10975383Y13516183D01*
X10999417Y13530058D01*
X11019041Y13549683D01*
X11032917Y13573717D01*
X11040100Y13600523D01*
Y13628276D01*
X11032917Y13655083D01*
X11019041Y13679117D01*
X10999417Y13698741D01*
X10975383Y13712617D01*
X10964556Y13715518D01*
Y13767282D01*
X10975383Y13770183D01*
X10999417Y13784059D01*
X11019041Y13803683D01*
X11032917Y13827718D01*
X11033001Y13828030D01*
X11087082Y13836679D01*
X11089649Y13833353D01*
Y13830653D01*
X11092240Y13810970D01*
X11099838Y13792627D01*
X11111924Y13776877D01*
X11216565Y13672237D01*
X11215700Y13669009D01*
Y13635991D01*
X11224246Y13604099D01*
X11240755Y13575504D01*
X11264103Y13552155D01*
X11292698Y13535646D01*
X11324591Y13527100D01*
X11357609D01*
X11389502Y13535646D01*
X11418097Y13552155D01*
X11441445Y13575504D01*
X11441992Y13576450D01*
X11670778D01*
X12050997Y13196230D01*
X12026555Y13152234D01*
X12021183Y13154459D01*
X12001500Y13157051D01*
X10864601D01*
X10727897Y13293755D01*
X10730245Y13296103D01*
X10746754Y13324698D01*
X10755300Y13356590D01*
Y13389609D01*
X10746754Y13421503D01*
X10730245Y13450098D01*
X10706897Y13473445D01*
X10678302Y13489954D01*
X10646409Y13498500D01*
X10613391D01*
X10581498Y13489954D01*
X10552903Y13473445D01*
X10529555Y13450098D01*
X10513046Y13421503D01*
X10504500Y13389609D01*
Y13356590D01*
X10513046Y13324698D01*
X10529555Y13296103D01*
X10552903Y13272755D01*
X10573539Y13260840D01*
X10575574Y13245383D01*
X10583172Y13227042D01*
X10595258Y13211290D01*
X10779324Y13027225D01*
X10795075Y13015138D01*
X10802672Y13011990D01*
X10813417Y13007541D01*
X10833100Y13004948D01*
X11948328D01*
X11990400Y12983209D01*
Y12950191D01*
X11998946Y12918298D01*
X12015455Y12889703D01*
X12038803Y12866354D01*
X12067398Y12849846D01*
X12099291Y12841299D01*
X12132309D01*
X12164202Y12849846D01*
X12192797Y12866354D01*
X12216145Y12889703D01*
X12232654Y12918298D01*
X12238057Y12938460D01*
X12270880Y12953654D01*
X12291200Y12956027D01*
X12340603Y12906624D01*
X12356353Y12894537D01*
X12374695Y12886940D01*
X12394379Y12884349D01*
X13030399D01*
X13175191Y12739558D01*
X13149307Y12694729D01*
X13135609Y12698400D01*
X13131799D01*
Y12573000D01*
Y12447600D01*
X13135609D01*
X13167502Y12456146D01*
X13183549Y12465410D01*
X13220964Y12450573D01*
X13233549Y12439397D01*
Y11855201D01*
X13162065Y11783717D01*
X13161009Y11784000D01*
X13127991D01*
X13096098Y11775454D01*
X13067503Y11758945D01*
X13044154Y11735597D01*
X13027646Y11707002D01*
X13019099Y11675109D01*
Y11642091D01*
X13027646Y11610198D01*
X13044154Y11581603D01*
X13067503Y11558255D01*
X13096098Y11541746D01*
X13127991Y11533200D01*
X13161009D01*
X13192902Y11541746D01*
X13221497Y11558255D01*
X13244846Y11581603D01*
X13261354Y11610198D01*
X13269901Y11642091D01*
Y11675109D01*
X13269617Y11676165D01*
X13363376Y11769924D01*
X13375462Y11785675D01*
X13383060Y11804017D01*
X13385651Y11823700D01*
Y12024838D01*
X13411067Y12042401D01*
X13435651Y12051891D01*
X13453290Y12044584D01*
X13479500Y12041134D01*
X13505710Y12044584D01*
X13530133Y12054701D01*
X13551106Y12070794D01*
X13567200Y12091767D01*
X13577316Y12116190D01*
X13580766Y12142400D01*
Y12292400D01*
X13577316Y12318610D01*
X13567200Y12343033D01*
X13551106Y12364006D01*
X13530133Y12380099D01*
X13505710Y12390216D01*
X13479500Y12393666D01*
X13453290Y12390216D01*
X13435651Y12382909D01*
X13411067Y12392399D01*
X13385651Y12409962D01*
Y12712700D01*
X13383060Y12732383D01*
X13375462Y12750725D01*
X13363376Y12766476D01*
X13115675Y13014175D01*
X13099927Y13026262D01*
X13096133Y13027832D01*
X13085034Y13061978D01*
X13087672Y13083488D01*
X13109657Y13099461D01*
X13151439Y13141243D01*
X13186171Y13189047D01*
X13212997Y13241696D01*
X13231256Y13297894D01*
X13240500Y13356255D01*
Y13415344D01*
X13231256Y13473706D01*
X13212997Y13529904D01*
X13186171Y13582552D01*
X13151439Y13630357D01*
X13109657Y13672139D01*
X13061852Y13706871D01*
X13009204Y13733698D01*
X12953006Y13751956D01*
X12894646Y13761200D01*
X12835555D01*
X12777194Y13751956D01*
X12720996Y13733698D01*
X12668348Y13706871D01*
X12620543Y13672139D01*
X12578761Y13630357D01*
X12544029Y13582552D01*
X12517203Y13529904D01*
X12498944Y13473706D01*
X12489700Y13415344D01*
Y13396635D01*
X12488390Y13395009D01*
X12439700Y13370575D01*
X12430902Y13375655D01*
X12399009Y13384200D01*
X12365991D01*
X12364935Y13383917D01*
X11946911Y13801941D01*
X11931161Y13814027D01*
X11912819Y13821625D01*
X11893135Y13824216D01*
X11848436D01*
X11466217Y14206435D01*
X11466500Y14207491D01*
Y14240509D01*
X11457954Y14272401D01*
X11441445Y14300996D01*
X11418097Y14324345D01*
X11389502Y14340854D01*
X11357609Y14349400D01*
X11324591D01*
X11292698Y14340854D01*
X11291750Y14340308D01*
X11241750Y14365169D01*
X11239159Y14384853D01*
X11234709Y14395596D01*
X11231562Y14403194D01*
X11219476Y14418945D01*
X11045137Y14593283D01*
X11065848Y14643283D01*
X11559539D01*
Y14897234D01*
D02*
G37*
G36*
X9605220Y14566901D02*
X9601200D01*
Y14452600D01*
X9715500D01*
Y14456619D01*
X9706845Y14488921D01*
X9690125Y14517880D01*
X9666480Y14541525D01*
X9637520Y14558244D01*
X9605220Y14566901D01*
D02*
G37*
G36*
X9575800D02*
X9571780D01*
X9539480Y14558244D01*
X9510520Y14541525D01*
X9486875Y14517880D01*
X9470155Y14488921D01*
X9461500Y14456619D01*
Y14452600D01*
X9575800D01*
Y14566901D01*
D02*
G37*
G36*
X13055600Y14442439D02*
X13054590D01*
X13028104Y14435342D01*
X13004356Y14421632D01*
X12984967Y14402243D01*
X12971257Y14378497D01*
X12968233Y14367212D01*
X12965875Y14358412D01*
X12916725D01*
X12914368Y14367212D01*
X12911343Y14378497D01*
X12897633Y14402243D01*
X12878242Y14421632D01*
X12854497Y14435342D01*
X12828011Y14442439D01*
X12800591D01*
X12774103Y14435342D01*
X12750357Y14421632D01*
X12730967Y14402243D01*
X12717257Y14378497D01*
X12710160Y14352010D01*
Y14324590D01*
X12717257Y14298103D01*
X12730967Y14274358D01*
X12750357Y14254967D01*
X12774103Y14241257D01*
X12800591Y14234160D01*
X12828011D01*
X12854497Y14241257D01*
X12878242Y14254967D01*
X12897633Y14274358D01*
X12911343Y14298103D01*
X12914368Y14309389D01*
X12916725Y14318188D01*
X12965875D01*
X12968233Y14309389D01*
X12971257Y14298103D01*
X12984967Y14274358D01*
X13004356Y14254967D01*
X13028104Y14241257D01*
X13054590Y14234160D01*
X13055600D01*
Y14338300D01*
Y14442439D01*
D02*
G37*
G36*
X12153900D02*
X12152890D01*
X12126403Y14435342D01*
X12102657Y14421632D01*
X12083267Y14402243D01*
X12069557Y14378497D01*
X12066533Y14367212D01*
X12064175Y14358412D01*
X12015025D01*
X12012667Y14367212D01*
X12009643Y14378497D01*
X11995933Y14402243D01*
X11976543Y14421632D01*
X11952797Y14435342D01*
X11926310Y14442439D01*
X11898890D01*
X11872403Y14435342D01*
X11848657Y14421632D01*
X11829267Y14402243D01*
X11815557Y14378497D01*
X11808460Y14352010D01*
Y14324590D01*
X11815557Y14298103D01*
X11829267Y14274358D01*
X11848657Y14254967D01*
X11872403Y14241257D01*
X11898890Y14234160D01*
X11926310D01*
X11952797Y14241257D01*
X11976543Y14254967D01*
X11995933Y14274358D01*
X12009643Y14298103D01*
X12012667Y14309389D01*
X12015025Y14318188D01*
X12064175D01*
X12066533Y14309389D01*
X12069557Y14298103D01*
X12083267Y14274358D01*
X12102657Y14254967D01*
X12126403Y14241257D01*
X12152890Y14234160D01*
X12153900D01*
Y14338300D01*
Y14442439D01*
D02*
G37*
G36*
X13082010D02*
X13081000D01*
Y14350999D01*
X13172440D01*
Y14352010D01*
X13165343Y14378497D01*
X13151633Y14402243D01*
X13132243Y14421632D01*
X13108498Y14435342D01*
X13082010Y14442439D01*
D02*
G37*
G36*
X12180310D02*
X12179300D01*
Y14350999D01*
X12270740D01*
Y14352010D01*
X12263643Y14378497D01*
X12249933Y14402243D01*
X12230543Y14421632D01*
X12206797Y14435342D01*
X12180310Y14442439D01*
D02*
G37*
G36*
X10210800Y14554201D02*
X9982200D01*
Y14325600D01*
X10210800D01*
Y14554201D01*
D02*
G37*
G36*
X9715500Y14427200D02*
X9601200D01*
Y14312900D01*
X9605220D01*
X9637520Y14321555D01*
X9666480Y14338275D01*
X9690125Y14361920D01*
X9706845Y14390880D01*
X9715500Y14423180D01*
Y14427200D01*
D02*
G37*
G36*
X9575800D02*
X9461500D01*
Y14423180D01*
X9470155Y14390880D01*
X9486875Y14361920D01*
X9510520Y14338275D01*
X9539480Y14321555D01*
X9571780Y14312900D01*
X9575800D01*
Y14427200D01*
D02*
G37*
G36*
X8978900Y14541499D02*
X8750300D01*
Y14312900D01*
X8978900D01*
Y14541499D01*
D02*
G37*
G36*
X13172440Y14325600D02*
X13081000D01*
Y14234160D01*
X13082010D01*
X13108498Y14241257D01*
X13132243Y14254967D01*
X13151633Y14274358D01*
X13165343Y14298103D01*
X13172440Y14324590D01*
Y14325600D01*
D02*
G37*
G36*
X12270740D02*
X12179300D01*
Y14234160D01*
X12180310D01*
X12206797Y14241257D01*
X12230543Y14254967D01*
X12249933Y14274358D01*
X12263643Y14298103D01*
X12270740Y14324590D01*
Y14325600D01*
D02*
G37*
G36*
X7473900Y14331900D02*
X7258100D01*
Y14116100D01*
X7473900D01*
Y14331900D01*
D02*
G37*
G36*
X8894020Y14020799D02*
X8890000D01*
Y13906500D01*
X9004300D01*
Y13910519D01*
X8995645Y13942821D01*
X8978925Y13971780D01*
X8955280Y13995425D01*
X8926320Y14012144D01*
X8894020Y14020799D01*
D02*
G37*
G36*
X8864600D02*
X8860580D01*
X8828280Y14012144D01*
X8799320Y13995425D01*
X8775675Y13971780D01*
X8758955Y13942821D01*
X8750300Y13910519D01*
Y13906500D01*
X8864600D01*
Y14020799D01*
D02*
G37*
G36*
X9715500Y14008099D02*
X9486900D01*
Y13779500D01*
X9715500D01*
Y14008099D01*
D02*
G37*
G36*
X8483600D02*
X8255000D01*
Y13779500D01*
X8483600D01*
Y14008099D01*
D02*
G37*
G36*
X10125920Y14020799D02*
X10092480D01*
X10060180Y14012144D01*
X10031220Y13995425D01*
X10007575Y13971780D01*
X9990855Y13942821D01*
X9982200Y13910519D01*
Y13877080D01*
X9990855Y13844780D01*
X10007575Y13815820D01*
X10031220Y13792175D01*
X10060180Y13775455D01*
X10092480Y13766800D01*
X10125920D01*
X10158220Y13775455D01*
X10187180Y13792175D01*
X10210825Y13815820D01*
X10227545Y13844780D01*
X10236200Y13877080D01*
Y13910519D01*
X10227545Y13942821D01*
X10210825Y13971780D01*
X10187180Y13995425D01*
X10158220Y14012144D01*
X10125920Y14020799D01*
D02*
G37*
G36*
X9004300Y13881100D02*
X8890000D01*
Y13766800D01*
X8894020D01*
X8926320Y13775455D01*
X8955280Y13792175D01*
X8978925Y13815820D01*
X8995645Y13844780D01*
X9004300Y13877080D01*
Y13881100D01*
D02*
G37*
G36*
X8864600D02*
X8750300D01*
Y13877080D01*
X8758955Y13844780D01*
X8775675Y13815820D01*
X8799320Y13792175D01*
X8828280Y13775455D01*
X8860580Y13766800D01*
X8864600D01*
Y13881100D01*
D02*
G37*
G36*
X8919420Y13385800D02*
X8915400D01*
Y13271500D01*
X9029700D01*
Y13275520D01*
X9021045Y13307820D01*
X9004325Y13336780D01*
X8980680Y13360425D01*
X8951720Y13377145D01*
X8919420Y13385800D01*
D02*
G37*
G36*
X8890000D02*
X8885980D01*
X8853680Y13377145D01*
X8824720Y13360425D01*
X8801075Y13336780D01*
X8784355Y13307820D01*
X8775700Y13275520D01*
Y13271500D01*
X8890000D01*
Y13385800D01*
D02*
G37*
G36*
X11040100Y13347701D02*
X10947400D01*
Y13255000D01*
X10948576D01*
X10975383Y13262183D01*
X10999417Y13276059D01*
X11019041Y13295683D01*
X11032917Y13319717D01*
X11040100Y13346524D01*
Y13347701D01*
D02*
G37*
G36*
X10922000D02*
X10829300D01*
Y13346524D01*
X10836483Y13319717D01*
X10850359Y13295683D01*
X10869983Y13276059D01*
X10894017Y13262183D01*
X10920824Y13255000D01*
X10922000D01*
Y13347701D01*
D02*
G37*
G36*
X9630620Y13309599D02*
X9626600D01*
Y13195300D01*
X9740900D01*
Y13199319D01*
X9732245Y13231619D01*
X9715525Y13260580D01*
X9691880Y13284225D01*
X9662920Y13300945D01*
X9630620Y13309599D01*
D02*
G37*
G36*
X9601200D02*
X9597180D01*
X9564880Y13300945D01*
X9535920Y13284225D01*
X9512275Y13260580D01*
X9495555Y13231619D01*
X9486900Y13199319D01*
Y13195300D01*
X9601200D01*
Y13309599D01*
D02*
G37*
G36*
X9029700Y13246100D02*
X8915400D01*
Y13131799D01*
X8919420D01*
X8951720Y13140456D01*
X8980680Y13157175D01*
X9004325Y13180820D01*
X9021045Y13209779D01*
X9029700Y13242081D01*
Y13246100D01*
D02*
G37*
G36*
X8890000D02*
X8775700D01*
Y13242081D01*
X8784355Y13209779D01*
X8801075Y13180820D01*
X8824720Y13157175D01*
X8853680Y13140456D01*
X8885980Y13131799D01*
X8890000D01*
Y13246100D01*
D02*
G37*
G36*
X10236200Y13296899D02*
X10007600D01*
Y13068300D01*
X10236200D01*
Y13296899D01*
D02*
G37*
G36*
X9740900Y13169901D02*
X9626600D01*
Y13055600D01*
X9630620D01*
X9662920Y13064255D01*
X9691880Y13080975D01*
X9715525Y13104620D01*
X9732245Y13133580D01*
X9740900Y13165880D01*
Y13169901D01*
D02*
G37*
G36*
X9601200D02*
X9486900D01*
Y13165880D01*
X9495555Y13133580D01*
X9512275Y13104620D01*
X9535920Y13080975D01*
X9564880Y13064255D01*
X9597180Y13055600D01*
X9601200D01*
Y13169901D01*
D02*
G37*
G36*
X12852400Y12749600D02*
X12851881D01*
X12826347Y12742758D01*
X12803453Y12729540D01*
X12784760Y12710847D01*
X12771542Y12687953D01*
X12764700Y12662418D01*
Y12661900D01*
X12852400D01*
Y12749600D01*
D02*
G37*
G36*
Y12636500D02*
X12764700D01*
Y12635982D01*
X12771542Y12610447D01*
X12784760Y12587553D01*
X12803453Y12568860D01*
X12826347Y12555642D01*
X12851881Y12548800D01*
X12852400D01*
Y12636500D01*
D02*
G37*
G36*
X9740900Y12763500D02*
X9512300D01*
Y12534900D01*
X9740900D01*
Y12763500D01*
D02*
G37*
G36*
X11555800Y12684900D02*
X11468100D01*
Y12522200D01*
X11555800D01*
Y12684900D01*
D02*
G37*
G36*
X11442700D02*
X11355000D01*
Y12522200D01*
X11442700D01*
Y12684900D01*
D02*
G37*
G36*
X10151320Y12776200D02*
X10117880D01*
X10085580Y12767545D01*
X10056620Y12750825D01*
X10032975Y12727180D01*
X10016255Y12698220D01*
X10007600Y12665920D01*
Y12632480D01*
X10016255Y12600180D01*
X10032975Y12571220D01*
X10056620Y12547575D01*
X10085580Y12530855D01*
X10117880Y12522200D01*
X10151320D01*
X10183620Y12530855D01*
X10212580Y12547575D01*
X10236225Y12571220D01*
X10252945Y12600180D01*
X10261600Y12632480D01*
Y12665920D01*
X10252945Y12698220D01*
X10236225Y12727180D01*
X10212580Y12750825D01*
X10183620Y12767545D01*
X10151320Y12776200D01*
D02*
G37*
G36*
X12878317Y12749600D02*
X12877800D01*
Y12649200D01*
Y12548800D01*
X12878317D01*
X12903853Y12555642D01*
X12926747Y12568860D01*
X12943700Y12585813D01*
X12951717Y12585418D01*
X12993700Y12571142D01*
Y12556491D01*
X13002246Y12524598D01*
X13018755Y12496003D01*
X13042104Y12472655D01*
X13070699Y12456146D01*
X13102591Y12447600D01*
X13106400D01*
Y12573000D01*
Y12698400D01*
X13102591D01*
X13070699Y12689854D01*
X13042104Y12673345D01*
X13018755Y12649997D01*
X13015500Y12644359D01*
X12965500Y12657757D01*
Y12662418D01*
X12958658Y12687953D01*
X12945441Y12710847D01*
X12926747Y12729540D01*
X12903853Y12742758D01*
X12878317Y12749600D01*
D02*
G37*
G36*
X9017000Y12674600D02*
X8788400D01*
Y12446000D01*
X9017000D01*
Y12674600D01*
D02*
G37*
G36*
X12370318Y12622600D02*
X12343882D01*
X12318347Y12615758D01*
X12295453Y12602540D01*
X12276760Y12583847D01*
X12263542Y12560953D01*
X12256700Y12535418D01*
Y12508982D01*
X12263542Y12483447D01*
X12276760Y12460553D01*
X12295453Y12441860D01*
X12318347Y12428642D01*
X12343882Y12421800D01*
X12370318D01*
X12395853Y12428642D01*
X12418747Y12441860D01*
X12437440Y12460553D01*
X12450658Y12483447D01*
X12457500Y12508982D01*
Y12535418D01*
X12450658Y12560953D01*
X12437440Y12583847D01*
X12418747Y12602540D01*
X12395853Y12615758D01*
X12370318Y12622600D01*
D02*
G37*
G36*
X11555800Y12496800D02*
X11468100D01*
Y12334100D01*
X11555800D01*
Y12496800D01*
D02*
G37*
G36*
X11442700D02*
X11355000D01*
Y12334100D01*
X11442700D01*
Y12496800D01*
D02*
G37*
G36*
X11155400Y12685766D02*
X11129190Y12682316D01*
X11104767Y12672199D01*
X11083794Y12656106D01*
X11067701Y12635133D01*
X11057584Y12610710D01*
X11054134Y12584500D01*
Y12434500D01*
X11057584Y12408290D01*
X11067701Y12383867D01*
X11083794Y12362894D01*
X11104767Y12346801D01*
X11129190Y12336684D01*
X11155400Y12333234D01*
X11181610Y12336684D01*
X11206033Y12346801D01*
X11227006Y12362894D01*
X11243099Y12383867D01*
X11253216Y12408290D01*
X11256666Y12434500D01*
Y12584500D01*
X11253216Y12610710D01*
X11243099Y12635133D01*
X11227006Y12656106D01*
X11206033Y12672199D01*
X11181610Y12682316D01*
X11155400Y12685766D01*
D02*
G37*
G36*
X12878317Y12495600D02*
X12851881D01*
X12826347Y12488758D01*
X12803453Y12475540D01*
X12784760Y12456847D01*
X12771542Y12433953D01*
X12764700Y12408418D01*
Y12381982D01*
X12771542Y12356447D01*
X12784760Y12333553D01*
X12803453Y12314860D01*
X12826347Y12301642D01*
X12851881Y12294800D01*
X12878317D01*
X12903853Y12301642D01*
X12926747Y12314860D01*
X12945441Y12333553D01*
X12958658Y12356447D01*
X12965500Y12381982D01*
Y12408418D01*
X12958658Y12433953D01*
X12945441Y12456847D01*
X12926747Y12475540D01*
X12903853Y12488758D01*
X12878317Y12495600D01*
D02*
G37*
G36*
X13879900Y12392800D02*
X13792200D01*
Y12230100D01*
X13879900D01*
Y12392800D01*
D02*
G37*
G36*
X13766800D02*
X13679100D01*
Y12230100D01*
X13766800D01*
Y12392800D01*
D02*
G37*
G36*
X12370318Y12368600D02*
X12343882D01*
X12318347Y12361758D01*
X12295453Y12348540D01*
X12276760Y12329847D01*
X12263542Y12306953D01*
X12256700Y12281418D01*
Y12254982D01*
X12263542Y12229447D01*
X12276760Y12206553D01*
X12295453Y12187860D01*
X12318347Y12174642D01*
X12343882Y12167800D01*
X12370318D01*
X12395853Y12174642D01*
X12418747Y12187860D01*
X12437440Y12206553D01*
X12450658Y12229447D01*
X12457500Y12254982D01*
Y12281418D01*
X12450658Y12306953D01*
X12437440Y12329847D01*
X12418747Y12348540D01*
X12395853Y12361758D01*
X12370318Y12368600D01*
D02*
G37*
G36*
X13879900Y12204700D02*
X13792200D01*
Y12042000D01*
X13879900D01*
Y12204700D01*
D02*
G37*
G36*
X13766800D02*
X13679100D01*
Y12042000D01*
X13766800D01*
Y12204700D01*
D02*
G37*
G36*
X12878317Y12241600D02*
X12851881D01*
X12826347Y12234758D01*
X12803453Y12221540D01*
X12784760Y12202847D01*
X12771542Y12179953D01*
X12764700Y12154418D01*
Y12127982D01*
X12771542Y12102447D01*
X12784760Y12079553D01*
X12803453Y12060860D01*
X12826347Y12047642D01*
X12851881Y12040800D01*
X12878317D01*
X12903853Y12047642D01*
X12926747Y12060860D01*
X12945441Y12079553D01*
X12958658Y12102447D01*
X12965500Y12127982D01*
Y12154418D01*
X12958658Y12179953D01*
X12945441Y12202847D01*
X12926747Y12221540D01*
X12903853Y12234758D01*
X12878317Y12241600D01*
D02*
G37*
G36*
X12370318Y12114600D02*
X12343882D01*
X12318347Y12107758D01*
X12295453Y12094540D01*
X12276760Y12075847D01*
X12263542Y12052953D01*
X12256700Y12027418D01*
Y12000982D01*
X12263542Y11975447D01*
X12276760Y11952553D01*
X12295453Y11933860D01*
X12318347Y11920642D01*
X12343882Y11913800D01*
X12370318D01*
X12395853Y11920642D01*
X12418747Y11933860D01*
X12437440Y11952553D01*
X12450658Y11975447D01*
X12457500Y12000982D01*
Y12027418D01*
X12450658Y12052953D01*
X12437440Y12075847D01*
X12418747Y12094540D01*
X12395853Y12107758D01*
X12370318Y12114600D01*
D02*
G37*
G36*
X12878317Y11987600D02*
X12851881D01*
X12826347Y11980758D01*
X12803453Y11967540D01*
X12784760Y11948847D01*
X12771542Y11925953D01*
X12764700Y11900418D01*
Y11873982D01*
X12771542Y11848447D01*
X12784760Y11825553D01*
X12803453Y11806860D01*
X12826347Y11793642D01*
X12851881Y11786800D01*
X12878317D01*
X12903853Y11793642D01*
X12926747Y11806860D01*
X12945441Y11825553D01*
X12958658Y11848447D01*
X12965500Y11873982D01*
Y11900418D01*
X12958658Y11925953D01*
X12945441Y11948847D01*
X12926747Y11967540D01*
X12903853Y11980758D01*
X12878317Y11987600D01*
D02*
G37*
G36*
X12370318Y11860600D02*
X12369800D01*
Y11772900D01*
X12457500D01*
Y11773418D01*
X12450658Y11798953D01*
X12437440Y11821847D01*
X12418747Y11840540D01*
X12395853Y11853758D01*
X12370318Y11860600D01*
D02*
G37*
G36*
X12344400D02*
X12343882D01*
X12318347Y11853758D01*
X12295453Y11840540D01*
X12276760Y11821847D01*
X12263542Y11798953D01*
X12256700Y11773418D01*
Y11772900D01*
X12344400D01*
Y11860600D01*
D02*
G37*
G36*
X11555800Y11884800D02*
X11468100D01*
Y11722100D01*
X11555800D01*
Y11884800D01*
D02*
G37*
G36*
X11442700D02*
X11355000D01*
Y11722100D01*
X11442700D01*
Y11884800D01*
D02*
G37*
G36*
X12457500Y11747500D02*
X12369800D01*
Y11659800D01*
X12370318D01*
X12395853Y11666642D01*
X12418747Y11679860D01*
X12437440Y11698553D01*
X12450658Y11721447D01*
X12457500Y11746982D01*
Y11747500D01*
D02*
G37*
G36*
X12344400D02*
X12256700D01*
Y11746982D01*
X12263542Y11721447D01*
X12276760Y11698553D01*
X12295453Y11679860D01*
X12318347Y11666642D01*
X12343882Y11659800D01*
X12344400D01*
Y11747500D01*
D02*
G37*
G36*
X11555800Y11696700D02*
X11468100D01*
Y11534000D01*
X11555800D01*
Y11696700D01*
D02*
G37*
G36*
X11442700D02*
X11355000D01*
Y11534000D01*
X11442700D01*
Y11696700D01*
D02*
G37*
G36*
X11155400Y11885666D02*
X11129190Y11882216D01*
X11104767Y11872099D01*
X11083794Y11856006D01*
X11067701Y11835033D01*
X11057584Y11810610D01*
X11054134Y11784400D01*
Y11634400D01*
X11057584Y11608190D01*
X11067701Y11583767D01*
X11083794Y11562794D01*
X11104767Y11546701D01*
X11129190Y11536584D01*
X11155400Y11533134D01*
X11181610Y11536584D01*
X11206033Y11546701D01*
X11227006Y11562794D01*
X11243099Y11583767D01*
X11253216Y11608190D01*
X11256666Y11634400D01*
Y11784400D01*
X11253216Y11810610D01*
X11243099Y11835033D01*
X11227006Y11856006D01*
X11206033Y11872099D01*
X11181610Y11882216D01*
X11155400Y11885666D01*
D02*
G37*
G36*
X12878317Y11733600D02*
X12851881D01*
X12826347Y11726758D01*
X12803453Y11713540D01*
X12784760Y11694847D01*
X12771542Y11671953D01*
X12764700Y11646418D01*
Y11619982D01*
X12771542Y11594447D01*
X12784760Y11571553D01*
X12803453Y11552860D01*
X12826347Y11539642D01*
X12851881Y11532800D01*
X12878317D01*
X12903853Y11539642D01*
X12926747Y11552860D01*
X12945441Y11571553D01*
X12958658Y11594447D01*
X12965500Y11619982D01*
Y11646418D01*
X12958658Y11671953D01*
X12945441Y11694847D01*
X12926747Y11713540D01*
X12903853Y11726758D01*
X12878317Y11733600D01*
D02*
G37*
G36*
X12370318Y11606600D02*
X12343882D01*
X12318347Y11599758D01*
X12295453Y11586540D01*
X12276760Y11567847D01*
X12263542Y11544953D01*
X12256700Y11519418D01*
Y11492982D01*
X12263542Y11467447D01*
X12276760Y11444553D01*
X12295453Y11425860D01*
X12318347Y11412642D01*
X12343882Y11405800D01*
X12370318D01*
X12395853Y11412642D01*
X12418747Y11425860D01*
X12437440Y11444553D01*
X12450658Y11467447D01*
X12457500Y11492982D01*
Y11519418D01*
X12450658Y11544953D01*
X12437440Y11567847D01*
X12418747Y11586540D01*
X12395853Y11599758D01*
X12370318Y11606600D01*
D02*
G37*
G36*
X12878317Y11479600D02*
X12851881D01*
X12826347Y11472758D01*
X12803453Y11459540D01*
X12784760Y11440847D01*
X12771542Y11417953D01*
X12764700Y11392418D01*
Y11365982D01*
X12771542Y11340447D01*
X12784760Y11317553D01*
X12803453Y11298860D01*
X12826347Y11285642D01*
X12851881Y11278800D01*
X12878317D01*
X12903853Y11285642D01*
X12926747Y11298860D01*
X12945441Y11317553D01*
X12958658Y11340447D01*
X12965500Y11365982D01*
Y11392418D01*
X12958658Y11417953D01*
X12945441Y11440847D01*
X12926747Y11459540D01*
X12903853Y11472758D01*
X12878317Y11479600D01*
D02*
G37*
G36*
X11751309Y11364900D02*
X11747500D01*
Y11252200D01*
X11860200D01*
Y11256009D01*
X11851654Y11287902D01*
X11835145Y11316497D01*
X11811797Y11339845D01*
X11783202Y11356354D01*
X11751309Y11364900D01*
D02*
G37*
G36*
X11722100D02*
X11718291D01*
X11686398Y11356354D01*
X11657803Y11339845D01*
X11634455Y11316497D01*
X11617946Y11287902D01*
X11609400Y11256009D01*
Y11252200D01*
X11722100D01*
Y11364900D01*
D02*
G37*
G36*
X6960776Y11332200D02*
X6959600D01*
Y11239500D01*
X7052300D01*
Y11240676D01*
X7045117Y11267483D01*
X7031241Y11291517D01*
X7011617Y11311141D01*
X6987583Y11325017D01*
X6960776Y11332200D01*
D02*
G37*
G36*
X6934200D02*
X6933024D01*
X6906217Y11325017D01*
X6882183Y11311141D01*
X6862559Y11291517D01*
X6848683Y11267483D01*
X6841500Y11240676D01*
Y11239500D01*
X6934200D01*
Y11332200D01*
D02*
G37*
G36*
X13917999Y11364100D02*
X13830299D01*
Y11201400D01*
X13917999D01*
Y11364100D01*
D02*
G37*
G36*
X13804900D02*
X13717200D01*
Y11201400D01*
X13804900D01*
Y11364100D01*
D02*
G37*
G36*
X12370318Y11352600D02*
X12343882D01*
X12318347Y11345758D01*
X12295453Y11332540D01*
X12276760Y11313847D01*
X12263542Y11290953D01*
X12256700Y11265418D01*
Y11238982D01*
X12263542Y11213447D01*
X12276760Y11190553D01*
X12295453Y11171860D01*
X12318347Y11158642D01*
X12343882Y11151800D01*
X12370318D01*
X12395853Y11158642D01*
X12418747Y11171860D01*
X12437440Y11190553D01*
X12450658Y11213447D01*
X12457500Y11238982D01*
Y11265418D01*
X12450658Y11290953D01*
X12437440Y11313847D01*
X12418747Y11332540D01*
X12395853Y11345758D01*
X12370318Y11352600D01*
D02*
G37*
G36*
X11860200Y11226800D02*
X11747500D01*
Y11114100D01*
X11751309D01*
X11783202Y11122646D01*
X11811797Y11139155D01*
X11835145Y11162503D01*
X11851654Y11191098D01*
X11860200Y11222991D01*
Y11226800D01*
D02*
G37*
G36*
X11722100D02*
X11609400D01*
Y11222991D01*
X11617946Y11191098D01*
X11634455Y11162503D01*
X11657803Y11139155D01*
X11686398Y11122646D01*
X11718291Y11114100D01*
X11722100D01*
Y11226800D01*
D02*
G37*
G36*
X12878317Y11225600D02*
X12851881D01*
X12826347Y11218758D01*
X12803453Y11205540D01*
X12784760Y11186847D01*
X12771542Y11163953D01*
X12764700Y11138418D01*
Y11111982D01*
X12771542Y11086447D01*
X12784760Y11063553D01*
X12803453Y11044860D01*
X12826347Y11031642D01*
X12851881Y11024800D01*
X12878317D01*
X12903853Y11031642D01*
X12926747Y11044860D01*
X12945441Y11063553D01*
X12958658Y11086447D01*
X12965500Y11111982D01*
Y11138418D01*
X12958658Y11163953D01*
X12945441Y11186847D01*
X12926747Y11205540D01*
X12903853Y11218758D01*
X12878317Y11225600D01*
D02*
G37*
G36*
X13917999Y11176000D02*
X13830299D01*
Y11013300D01*
X13917999D01*
Y11176000D01*
D02*
G37*
G36*
X13804900D02*
X13717200D01*
Y11013300D01*
X13804900D01*
Y11176000D01*
D02*
G37*
G36*
X13517599Y11364966D02*
X13491389Y11361516D01*
X13466966Y11351399D01*
X13445995Y11335306D01*
X13429901Y11314333D01*
X13419785Y11289910D01*
X13416335Y11263700D01*
Y11113700D01*
X13419785Y11087490D01*
X13429901Y11063067D01*
X13445995Y11042094D01*
X13466966Y11026001D01*
X13491389Y11015884D01*
X13517599Y11012434D01*
X13543810Y11015884D01*
X13568233Y11026001D01*
X13589206Y11042094D01*
X13605299Y11063067D01*
X13615416Y11087490D01*
X13618866Y11113700D01*
Y11263700D01*
X13615416Y11289910D01*
X13605299Y11314333D01*
X13589206Y11335306D01*
X13568233Y11351399D01*
X13543810Y11361516D01*
X13517599Y11364966D01*
D02*
G37*
G36*
X7052300Y11214100D02*
X6946900D01*
X6841500D01*
Y11212924D01*
X6848683Y11186117D01*
X6862559Y11162083D01*
X6882183Y11142459D01*
X6906217Y11128583D01*
X6917044Y11125682D01*
Y11073918D01*
X6906217Y11071017D01*
X6882183Y11057141D01*
X6862559Y11037517D01*
X6848683Y11013483D01*
X6841500Y10986676D01*
Y10985500D01*
X6946900D01*
X7052300D01*
Y10986676D01*
X7045117Y11013483D01*
X7031241Y11037517D01*
X7011617Y11057141D01*
X6987583Y11071017D01*
X6976756Y11073918D01*
Y11125682D01*
X6987583Y11128583D01*
X7011617Y11142459D01*
X7031241Y11162083D01*
X7045117Y11186117D01*
X7052300Y11212924D01*
Y11214100D01*
D02*
G37*
G36*
X13161009Y11060100D02*
X13157201D01*
Y10947400D01*
X13269901D01*
Y10951209D01*
X13261354Y10983102D01*
X13244846Y11011697D01*
X13221497Y11035045D01*
X13192902Y11051554D01*
X13161009Y11060100D01*
D02*
G37*
G36*
X13131799D02*
X13127991D01*
X13096098Y11051554D01*
X13067503Y11035045D01*
X13044154Y11011697D01*
X13027646Y10983102D01*
X13019099Y10951209D01*
Y10947400D01*
X13131799D01*
Y11060100D01*
D02*
G37*
G36*
X12370318Y11098600D02*
X12343882D01*
X12318347Y11091758D01*
X12295453Y11078540D01*
X12276760Y11059847D01*
X12263542Y11036953D01*
X12256700Y11011418D01*
Y10984982D01*
X12263542Y10959447D01*
X12276760Y10936553D01*
X12295453Y10917860D01*
X12318347Y10904642D01*
X12343882Y10897800D01*
X12370318D01*
X12395853Y10904642D01*
X12418747Y10917860D01*
X12437440Y10936553D01*
X12450658Y10959447D01*
X12457500Y10984982D01*
Y11011418D01*
X12450658Y11036953D01*
X12437440Y11059847D01*
X12418747Y11078540D01*
X12395853Y11091758D01*
X12370318Y11098600D01*
D02*
G37*
G36*
X12965500Y10971600D02*
X12877800D01*
Y10883900D01*
X12965500D01*
Y10971600D01*
D02*
G37*
G36*
X12852400D02*
X12764700D01*
Y10883900D01*
X12852400D01*
Y10971600D01*
D02*
G37*
G36*
X13269901Y10922000D02*
X13157201D01*
Y10809300D01*
X13161009D01*
X13192902Y10817846D01*
X13221497Y10834355D01*
X13244846Y10857703D01*
X13261354Y10886298D01*
X13269901Y10918191D01*
Y10922000D01*
D02*
G37*
G36*
X13131799D02*
X13019099D01*
Y10918191D01*
X13027646Y10886298D01*
X13044154Y10857703D01*
X13067503Y10834355D01*
X13096098Y10817846D01*
X13127991Y10809300D01*
X13131799D01*
Y10922000D01*
D02*
G37*
G36*
X14100809Y10920400D02*
X14097000D01*
Y10807700D01*
X14209700D01*
Y10811509D01*
X14201154Y10843402D01*
X14184645Y10871997D01*
X14161298Y10895345D01*
X14132703Y10911854D01*
X14100809Y10920400D01*
D02*
G37*
G36*
X14071600D02*
X14067792D01*
X14035898Y10911854D01*
X14007303Y10895345D01*
X13983955Y10871997D01*
X13967445Y10843402D01*
X13958900Y10811509D01*
Y10807700D01*
X14071600D01*
Y10920400D01*
D02*
G37*
G36*
X10159718Y11636661D02*
X10130234Y11633757D01*
X10101884Y11625157D01*
X10075756Y11611192D01*
X10052854Y11592397D01*
X10034059Y11569496D01*
X10020094Y11543368D01*
X10011494Y11515017D01*
X10008590Y11485534D01*
X10011494Y11456050D01*
X10020094Y11427700D01*
X10034059Y11401572D01*
X10052854Y11378670D01*
X10286187Y11145337D01*
X10309089Y11126542D01*
X10335217Y11112576D01*
X10363567Y11103976D01*
X10393051Y11101072D01*
X11036300D01*
X11043506Y11101782D01*
X11310726Y10834562D01*
X11310727Y10834561D01*
X11331700Y10818468D01*
X11356123Y10808351D01*
X11382333Y10804900D01*
X11382335Y10804901D01*
X11534857D01*
X11543503Y10796255D01*
X11572098Y10779746D01*
X11603991Y10771200D01*
X11637009D01*
X11668902Y10779746D01*
X11697497Y10796255D01*
X11720845Y10819603D01*
X11737354Y10848198D01*
X11745900Y10880091D01*
Y10913109D01*
X11737354Y10945002D01*
X11720845Y10973597D01*
X11697497Y10996945D01*
X11668902Y11013454D01*
X11637009Y11022000D01*
X11603991D01*
X11572098Y11013454D01*
X11561669Y11007433D01*
X11424279D01*
X11186718Y11244994D01*
X11187428Y11252200D01*
X11184524Y11281684D01*
X11175924Y11310034D01*
X11161958Y11336162D01*
X11143163Y11359063D01*
X11120262Y11377858D01*
X11094134Y11391824D01*
X11065784Y11400424D01*
X11036300Y11403328D01*
X10455650D01*
X10266581Y11592397D01*
X10243680Y11611192D01*
X10217552Y11625157D01*
X10189201Y11633757D01*
X10159718Y11636661D01*
D02*
G37*
G36*
X12965500Y10858500D02*
X12877800D01*
Y10770800D01*
X12965500D01*
Y10858500D01*
D02*
G37*
G36*
X12852400D02*
X12764700D01*
Y10770800D01*
X12852400D01*
Y10858500D01*
D02*
G37*
G36*
X14209700Y10782300D02*
X14097000D01*
Y10669600D01*
X14100809D01*
X14132703Y10678146D01*
X14161298Y10694655D01*
X14184645Y10718003D01*
X14201154Y10746598D01*
X14209700Y10778491D01*
Y10782300D01*
D02*
G37*
G36*
X14071600D02*
X13958900D01*
Y10778491D01*
X13967445Y10746598D01*
X13983955Y10718003D01*
X14007303Y10694655D01*
X14035898Y10678146D01*
X14067792Y10669600D01*
X14071600D01*
Y10782300D01*
D02*
G37*
G36*
X12284709Y10691800D02*
X12280900D01*
Y10579100D01*
X12393600D01*
Y10582909D01*
X12385054Y10614802D01*
X12368545Y10643397D01*
X12345197Y10666745D01*
X12316602Y10683254D01*
X12284709Y10691800D01*
D02*
G37*
G36*
X12255500D02*
X12251691D01*
X12219798Y10683254D01*
X12191203Y10666745D01*
X12167855Y10643397D01*
X12151346Y10614802D01*
X12142800Y10582909D01*
Y10579100D01*
X12255500D01*
Y10691800D01*
D02*
G37*
G36*
X12393600Y10553700D02*
X12280900D01*
Y10441000D01*
X12284709D01*
X12316602Y10449546D01*
X12345197Y10466055D01*
X12368545Y10489403D01*
X12385054Y10517998D01*
X12393600Y10549891D01*
Y10553700D01*
D02*
G37*
G36*
X12255500D02*
X12142800D01*
Y10549891D01*
X12151346Y10517998D01*
X12167855Y10489403D01*
X12191203Y10466055D01*
X12219798Y10449546D01*
X12251691Y10441000D01*
X12255500D01*
Y10553700D01*
D02*
G37*
G36*
X13407201Y10171000D02*
X13144501D01*
Y10008300D01*
X13407201D01*
Y10171000D01*
D02*
G37*
G36*
X13119099D02*
X12856400D01*
Y10008300D01*
X13119099D01*
Y10171000D01*
D02*
G37*
G36*
X13407201Y9982900D02*
X13144501D01*
Y9820200D01*
X13407201D01*
Y9982900D01*
D02*
G37*
G36*
X13119099D02*
X12856400D01*
Y9820200D01*
X13119099D01*
Y9982900D01*
D02*
G37*
G36*
X7052300Y10960100D02*
X6946900D01*
X6841500D01*
Y10958924D01*
X6848683Y10932117D01*
X6862559Y10908083D01*
X6882183Y10888459D01*
X6906217Y10874583D01*
X6917044Y10871682D01*
Y10819918D01*
X6906217Y10817017D01*
X6882183Y10803141D01*
X6862559Y10783517D01*
X6848683Y10759483D01*
X6841500Y10732676D01*
Y10704924D01*
X6848683Y10678117D01*
X6862559Y10654083D01*
X6882183Y10634459D01*
X6906217Y10620583D01*
X6917044Y10617682D01*
Y10565918D01*
X6906217Y10563017D01*
X6882183Y10549141D01*
X6862559Y10529517D01*
X6848683Y10505483D01*
X6841500Y10478676D01*
Y10450924D01*
X6848683Y10424117D01*
X6862559Y10400083D01*
X6882183Y10380459D01*
X6906217Y10366583D01*
X6917044Y10363682D01*
Y10311918D01*
X6906217Y10309017D01*
X6882183Y10295141D01*
X6862559Y10275517D01*
X6848683Y10251483D01*
X6841500Y10224676D01*
Y10196924D01*
X6848683Y10170117D01*
X6862559Y10146083D01*
X6882183Y10126459D01*
X6906217Y10112583D01*
X6917044Y10109682D01*
Y10057918D01*
X6906217Y10055017D01*
X6882183Y10041141D01*
X6862559Y10021517D01*
X6848683Y9997483D01*
X6841500Y9970676D01*
Y9942924D01*
X6848683Y9916117D01*
X6862559Y9892083D01*
X6882183Y9872459D01*
X6906217Y9858583D01*
X6922012Y9854351D01*
X6915430Y9804351D01*
X6807200D01*
Y9499600D01*
X8153022D01*
Y9804351D01*
X6978370D01*
X6971788Y9854351D01*
X6987583Y9858583D01*
X7011617Y9872459D01*
X7031241Y9892083D01*
X7045117Y9916117D01*
X7052300Y9942924D01*
Y9970676D01*
X7045117Y9997483D01*
X7031241Y10021517D01*
X7011617Y10041141D01*
X6987583Y10055017D01*
X6976756Y10057918D01*
Y10109682D01*
X6987583Y10112583D01*
X7011617Y10126459D01*
X7031241Y10146083D01*
X7045117Y10170117D01*
X7052300Y10196924D01*
Y10224676D01*
X7045117Y10251483D01*
X7031241Y10275517D01*
X7011617Y10295141D01*
X6987583Y10309017D01*
X6976756Y10311918D01*
Y10363682D01*
X6987583Y10366583D01*
X7011617Y10380459D01*
X7031241Y10400083D01*
X7045117Y10424117D01*
X7052300Y10450924D01*
Y10478676D01*
X7045117Y10505483D01*
X7031241Y10529517D01*
X7011617Y10549141D01*
X6987583Y10563017D01*
X6976756Y10565918D01*
Y10617682D01*
X6987583Y10620583D01*
X7011617Y10634459D01*
X7031241Y10654083D01*
X7045117Y10678117D01*
X7052300Y10704924D01*
Y10732676D01*
X7045117Y10759483D01*
X7031241Y10783517D01*
X7011617Y10803141D01*
X6987583Y10817017D01*
X6976756Y10819918D01*
Y10871682D01*
X6987583Y10874583D01*
X7011617Y10888459D01*
X7031241Y10908083D01*
X7045117Y10932117D01*
X7052300Y10958924D01*
Y10960100D01*
D02*
G37*
G36*
X6960776Y9401800D02*
X6959600D01*
Y9309100D01*
X7052300D01*
Y9310276D01*
X7045117Y9337083D01*
X7031241Y9361117D01*
X7011617Y9380741D01*
X6987583Y9394617D01*
X6960776Y9401800D01*
D02*
G37*
G36*
X6934200D02*
X6933024D01*
X6906217Y9394617D01*
X6882183Y9380741D01*
X6862559Y9361117D01*
X6848683Y9337083D01*
X6841500Y9310276D01*
Y9309100D01*
X6934200D01*
Y9401800D01*
D02*
G37*
G36*
X7331709Y9383700D02*
X7327900D01*
Y9271000D01*
X7440600D01*
Y9274809D01*
X7432054Y9306702D01*
X7415545Y9335297D01*
X7392197Y9358645D01*
X7363602Y9375154D01*
X7331709Y9383700D01*
D02*
G37*
G36*
X7302500D02*
X7298691D01*
X7266798Y9375154D01*
X7238203Y9358645D01*
X7214855Y9335297D01*
X7198346Y9306702D01*
X7189800Y9274809D01*
Y9271000D01*
X7302500D01*
Y9383700D01*
D02*
G37*
G36*
X7440600Y9245600D02*
X7327900D01*
Y9132900D01*
X7331709D01*
X7363602Y9141446D01*
X7392197Y9157955D01*
X7415545Y9181303D01*
X7432054Y9209898D01*
X7440600Y9241791D01*
Y9245600D01*
D02*
G37*
G36*
X7302500D02*
X7189800D01*
Y9241791D01*
X7198346Y9209898D01*
X7214855Y9181303D01*
X7238203Y9157955D01*
X7266798Y9141446D01*
X7298691Y9132900D01*
X7302500D01*
Y9245600D01*
D02*
G37*
G36*
X10616584Y9397934D02*
X8610600D01*
Y9093200D01*
X10616584D01*
Y9397934D01*
D02*
G37*
G36*
X13231799Y9421849D02*
X13031799D01*
X12997415Y9418462D01*
X12964352Y9408433D01*
X12933881Y9392145D01*
X12907173Y9370227D01*
X12885255Y9343519D01*
X12868967Y9313047D01*
X12858939Y9279984D01*
X12855551Y9245600D01*
X12858939Y9211216D01*
X12868967Y9178153D01*
X12885255Y9147681D01*
X12907173Y9120973D01*
X12933881Y9099055D01*
X12964352Y9082767D01*
X12997415Y9072738D01*
X13031799Y9069351D01*
X13231799D01*
X13266185Y9072738D01*
X13299248Y9082767D01*
X13329720Y9099055D01*
X13356427Y9120973D01*
X13378345Y9147681D01*
X13394633Y9178153D01*
X13404662Y9211216D01*
X13408049Y9245600D01*
X13404662Y9279984D01*
X13394633Y9313047D01*
X13378345Y9343519D01*
X13356427Y9370227D01*
X13329720Y9392145D01*
X13299248Y9408433D01*
X13266185Y9418462D01*
X13231799Y9421849D01*
D02*
G37*
G36*
X11570710Y9527540D02*
X11543290D01*
X11516803Y9520443D01*
X11493057Y9506733D01*
X11473667Y9487343D01*
X11459957Y9463597D01*
X11452860Y9437110D01*
Y9409690D01*
X11459957Y9383203D01*
X11473667Y9359457D01*
X11493057Y9340067D01*
X11516803Y9326357D01*
X11528088Y9323333D01*
X11536888Y9320975D01*
Y9271825D01*
X11528088Y9269467D01*
X11516803Y9266443D01*
X11493057Y9252733D01*
X11473667Y9233343D01*
X11459957Y9209597D01*
X11452860Y9183110D01*
Y9155690D01*
X11459957Y9129203D01*
X11473667Y9105457D01*
X11493057Y9086067D01*
X11516803Y9072357D01*
X11543290Y9065260D01*
X11570710D01*
X11597197Y9072357D01*
X11620943Y9086067D01*
X11640333Y9105457D01*
X11654043Y9129203D01*
X11661140Y9155690D01*
Y9183110D01*
X11654043Y9209597D01*
X11640333Y9233343D01*
X11620943Y9252733D01*
X11597197Y9266443D01*
X11585912Y9269467D01*
X11577112Y9271825D01*
Y9320975D01*
X11585912Y9323333D01*
X11597197Y9326357D01*
X11620943Y9340067D01*
X11640333Y9359457D01*
X11654043Y9383203D01*
X11661140Y9409690D01*
Y9437110D01*
X11654043Y9463597D01*
X11640333Y9487343D01*
X11620943Y9506733D01*
X11597197Y9520443D01*
X11570710Y9527540D01*
D02*
G37*
G36*
X7052300Y9283700D02*
X6946900D01*
X6841500D01*
Y9282524D01*
X6848683Y9255717D01*
X6862559Y9231683D01*
X6882183Y9212059D01*
X6906217Y9198183D01*
X6917044Y9195282D01*
Y9143518D01*
X6906217Y9140617D01*
X6882183Y9126741D01*
X6862559Y9107117D01*
X6848683Y9083083D01*
X6841500Y9056276D01*
Y9055100D01*
X6946900D01*
X7052300D01*
Y9056276D01*
X7045117Y9083083D01*
X7031241Y9107117D01*
X7011617Y9126741D01*
X6987583Y9140617D01*
X6976756Y9143518D01*
Y9195282D01*
X6987583Y9198183D01*
X7011617Y9212059D01*
X7031241Y9231683D01*
X7045117Y9255717D01*
X7052300Y9282524D01*
Y9283700D01*
D02*
G37*
G36*
X11459209Y9028100D02*
X11455400D01*
Y8915400D01*
X11568100D01*
Y8919209D01*
X11559554Y8951102D01*
X11543045Y8979697D01*
X11519697Y9003045D01*
X11491102Y9019554D01*
X11459209Y9028100D01*
D02*
G37*
G36*
X11430000D02*
X11426191D01*
X11394298Y9019554D01*
X11365703Y9003045D01*
X11342355Y8979697D01*
X11325846Y8951102D01*
X11317300Y8919209D01*
Y8915400D01*
X11430000D01*
Y9028100D01*
D02*
G37*
G36*
X11568100Y8890000D02*
X11455400D01*
Y8777300D01*
X11459209D01*
X11491102Y8785846D01*
X11519697Y8802355D01*
X11543045Y8825703D01*
X11559554Y8854298D01*
X11568100Y8886191D01*
Y8890000D01*
D02*
G37*
G36*
X11430000D02*
X11317300D01*
Y8886191D01*
X11325846Y8854298D01*
X11342355Y8825703D01*
X11365703Y8802355D01*
X11394298Y8785846D01*
X11426191Y8777300D01*
X11430000D01*
Y8890000D01*
D02*
G37*
G36*
X10820400Y8782007D02*
Y8699500D01*
X10902907D01*
X10896459Y8723565D01*
X10883919Y8745285D01*
X10866185Y8763019D01*
X10844465Y8775559D01*
X10820400Y8782007D01*
D02*
G37*
G36*
X11189876Y8792200D02*
X11188700D01*
Y8699500D01*
X11281400D01*
Y8700676D01*
X11274217Y8727483D01*
X11260341Y8751517D01*
X11240717Y8771141D01*
X11216683Y8785017D01*
X11189876Y8792200D01*
D02*
G37*
G36*
X11163300D02*
X11162124D01*
X11135317Y8785017D01*
X11111283Y8771141D01*
X11091659Y8751517D01*
X11077783Y8727483D01*
X11070600Y8700676D01*
Y8699500D01*
X11163300D01*
Y8792200D01*
D02*
G37*
G36*
X10795000Y8782007D02*
X10770935Y8775559D01*
X10749215Y8763019D01*
X10731481Y8745285D01*
X10718941Y8723565D01*
X10712493Y8699500D01*
X10795000D01*
Y8782007D01*
D02*
G37*
G36*
X10902907Y8674100D02*
X10820400D01*
Y8591593D01*
X10844465Y8598041D01*
X10866185Y8610581D01*
X10883919Y8628315D01*
X10896459Y8650035D01*
X10902907Y8674100D01*
D02*
G37*
G36*
X10795000D02*
X10712493D01*
X10718941Y8650035D01*
X10731481Y8628315D01*
X10749215Y8610581D01*
X10770935Y8598041D01*
X10795000Y8591593D01*
Y8674100D01*
D02*
G37*
G36*
X8534240Y8782050D02*
X8509160D01*
X8484935Y8775559D01*
X8463215Y8763019D01*
X8445481Y8745285D01*
X8432941Y8723565D01*
X8426450Y8699340D01*
Y8674260D01*
X8432941Y8650035D01*
X8445481Y8628315D01*
X8463215Y8610581D01*
X8484935Y8598041D01*
X8509160Y8591550D01*
X8534240D01*
X8558465Y8598041D01*
X8580185Y8610581D01*
X8597919Y8628315D01*
X8610459Y8650035D01*
X8616950Y8674260D01*
Y8699340D01*
X8610459Y8723565D01*
X8597919Y8745285D01*
X8580185Y8763019D01*
X8558465Y8775559D01*
X8534240Y8782050D01*
D02*
G37*
G36*
X13722350Y8578850D02*
X13506450D01*
Y8573625D01*
X13456450Y8552914D01*
X13452083Y8557281D01*
X13427467Y8571493D01*
X13400012Y8578850D01*
X13371588D01*
X13344133Y8571493D01*
X13319518Y8557281D01*
X13299419Y8537183D01*
X13243581D01*
X13223483Y8557281D01*
X13198866Y8571493D01*
X13171413Y8578850D01*
X13169901D01*
Y8470900D01*
Y8362950D01*
X13171413D01*
X13198866Y8370307D01*
X13223483Y8384519D01*
X13243581Y8404617D01*
X13299419Y8404617D01*
X13319518Y8384519D01*
X13344133Y8370307D01*
X13371588Y8362950D01*
X13400012D01*
X13427467Y8370307D01*
X13452083Y8384519D01*
X13456450Y8388886D01*
X13506450Y8368175D01*
Y8362950D01*
X13722350D01*
Y8578850D01*
D02*
G37*
G36*
X12509500Y8566150D02*
X12507988D01*
X12480533Y8558793D01*
X12455917Y8544581D01*
X12435819Y8524483D01*
X12379981D01*
X12359883Y8544581D01*
X12335267Y8558793D01*
X12307812Y8566150D01*
X12279388D01*
X12251933Y8558793D01*
X12227317Y8544581D01*
X12222950Y8540214D01*
X12172950Y8560925D01*
Y8566150D01*
X11957050D01*
Y8350250D01*
X12172950D01*
Y8355475D01*
X12222950Y8376186D01*
X12227317Y8371819D01*
X12251933Y8357607D01*
X12279388Y8350250D01*
X12307812D01*
X12335267Y8357607D01*
X12359883Y8371819D01*
X12379981Y8391917D01*
X12435819Y8391917D01*
X12455917Y8371819D01*
X12480533Y8357607D01*
X12507988Y8350250D01*
X12509500D01*
Y8458200D01*
Y8566150D01*
D02*
G37*
G36*
X13144501Y8578850D02*
X13142989D01*
X13115533Y8571493D01*
X13090916Y8557281D01*
X13070819Y8537183D01*
X13056607Y8512567D01*
X13049249Y8485112D01*
Y8483600D01*
X13144501D01*
Y8578850D01*
D02*
G37*
G36*
X12856209Y8583600D02*
X12852400D01*
Y8470900D01*
X12965100D01*
Y8474709D01*
X12956554Y8506602D01*
X12940045Y8535197D01*
X12916698Y8558545D01*
X12888103Y8575054D01*
X12856209Y8583600D01*
D02*
G37*
G36*
X12827000D02*
X12823190D01*
X12791298Y8575054D01*
X12762703Y8558545D01*
X12739355Y8535197D01*
X12722846Y8506602D01*
X12714300Y8474709D01*
Y8470900D01*
X12827000D01*
Y8583600D01*
D02*
G37*
G36*
X12536412Y8566150D02*
X12534900D01*
Y8470900D01*
X12630150D01*
Y8472412D01*
X12622793Y8499867D01*
X12608581Y8524483D01*
X12588483Y8544581D01*
X12563867Y8558793D01*
X12536412Y8566150D01*
D02*
G37*
G36*
X13144501Y8458200D02*
X13049249D01*
Y8456688D01*
X13056607Y8429233D01*
X13070819Y8404617D01*
X13090916Y8384519D01*
X13115533Y8370307D01*
X13142989Y8362950D01*
X13144501D01*
Y8458200D01*
D02*
G37*
G36*
X12630150Y8445500D02*
X12534900D01*
Y8350250D01*
X12536412D01*
X12563867Y8357607D01*
X12588483Y8371819D01*
X12608581Y8391917D01*
X12622793Y8416533D01*
X12630150Y8443988D01*
Y8445500D01*
D02*
G37*
G36*
X10820240Y8528050D02*
X10795160D01*
X10770935Y8521559D01*
X10749215Y8509019D01*
X10731481Y8491285D01*
X10718941Y8469565D01*
X10712450Y8445340D01*
Y8420260D01*
X10718941Y8396035D01*
X10731481Y8374315D01*
X10749215Y8356581D01*
X10770935Y8344041D01*
X10795160Y8337550D01*
X10820240D01*
X10844465Y8344041D01*
X10866185Y8356581D01*
X10883919Y8374315D01*
X10896459Y8396035D01*
X10902950Y8420260D01*
Y8445340D01*
X10896459Y8469565D01*
X10883919Y8491285D01*
X10866185Y8509019D01*
X10844465Y8521559D01*
X10820240Y8528050D01*
D02*
G37*
G36*
X8534240D02*
X8509160D01*
X8484935Y8521559D01*
X8463215Y8509019D01*
X8445481Y8491285D01*
X8432941Y8469565D01*
X8426450Y8445340D01*
Y8420260D01*
X8432941Y8396035D01*
X8445481Y8374315D01*
X8463215Y8356581D01*
X8484935Y8344041D01*
X8509160Y8337550D01*
X8534240D01*
X8558465Y8344041D01*
X8580185Y8356581D01*
X8597919Y8374315D01*
X8610459Y8396035D01*
X8616950Y8420260D01*
Y8445340D01*
X8610459Y8469565D01*
X8597919Y8491285D01*
X8580185Y8509019D01*
X8558465Y8521559D01*
X8534240Y8528050D01*
D02*
G37*
G36*
X12965100Y8445500D02*
X12852400D01*
Y8332800D01*
X12856209D01*
X12888103Y8341346D01*
X12916698Y8357855D01*
X12940045Y8381203D01*
X12956554Y8409798D01*
X12965100Y8441691D01*
Y8445500D01*
D02*
G37*
G36*
X12827000D02*
X12714300D01*
Y8441691D01*
X12722846Y8409798D01*
X12739355Y8381203D01*
X12762703Y8357855D01*
X12791298Y8341346D01*
X12823190Y8332800D01*
X12827000D01*
Y8445500D01*
D02*
G37*
G36*
X10820240Y8274050D02*
X10795160D01*
X10770935Y8267559D01*
X10749215Y8255019D01*
X10731481Y8237285D01*
X10718941Y8215565D01*
X10712450Y8191340D01*
Y8166260D01*
X10718941Y8142035D01*
X10731481Y8120315D01*
X10749215Y8102581D01*
X10770935Y8090041D01*
X10795160Y8083550D01*
X10820240D01*
X10844465Y8090041D01*
X10866185Y8102581D01*
X10883919Y8120315D01*
X10896459Y8142035D01*
X10902950Y8166260D01*
Y8191340D01*
X10896459Y8215565D01*
X10883919Y8237285D01*
X10866185Y8255019D01*
X10844465Y8267559D01*
X10820240Y8274050D01*
D02*
G37*
G36*
X8534240D02*
X8509160D01*
X8484935Y8267559D01*
X8463215Y8255019D01*
X8445481Y8237285D01*
X8432941Y8215565D01*
X8426450Y8191340D01*
Y8166260D01*
X8432941Y8142035D01*
X8445481Y8120315D01*
X8463215Y8102581D01*
X8484935Y8090041D01*
X8509160Y8083550D01*
X8534240D01*
X8558465Y8090041D01*
X8580185Y8102581D01*
X8597919Y8120315D01*
X8610459Y8142035D01*
X8616950Y8166260D01*
Y8191340D01*
X8610459Y8215565D01*
X8597919Y8237285D01*
X8580185Y8255019D01*
X8558465Y8267559D01*
X8534240Y8274050D01*
D02*
G37*
G36*
X7052300Y9029700D02*
X6946900D01*
X6841500D01*
Y9028524D01*
X6848683Y9001717D01*
X6862559Y8977683D01*
X6882183Y8958059D01*
X6906217Y8944183D01*
X6917044Y8941282D01*
Y8889518D01*
X6906217Y8886617D01*
X6882183Y8872741D01*
X6862559Y8853117D01*
X6848683Y8829083D01*
X6841500Y8802276D01*
Y8774524D01*
X6848683Y8747717D01*
X6862559Y8723683D01*
X6882183Y8704059D01*
X6906217Y8690183D01*
X6917044Y8687282D01*
Y8635518D01*
X6906217Y8632617D01*
X6882183Y8618741D01*
X6862559Y8599117D01*
X6848683Y8575083D01*
X6841500Y8548276D01*
Y8520524D01*
X6848683Y8493717D01*
X6862559Y8469683D01*
X6882183Y8450059D01*
X6906217Y8436183D01*
X6917044Y8433282D01*
Y8381518D01*
X6906217Y8378617D01*
X6882183Y8364741D01*
X6862559Y8345117D01*
X6848683Y8321083D01*
X6841500Y8294276D01*
Y8266524D01*
X6848683Y8239717D01*
X6862559Y8215683D01*
X6882183Y8196059D01*
X6906217Y8182183D01*
X6917044Y8179282D01*
Y8127518D01*
X6906217Y8124617D01*
X6882183Y8110741D01*
X6862559Y8091117D01*
X6848683Y8067083D01*
X6841500Y8040276D01*
Y8012524D01*
X6848683Y7985717D01*
X6862559Y7961683D01*
X6882183Y7942059D01*
X6906217Y7928183D01*
X6933024Y7921000D01*
X6960776D01*
X6987583Y7928183D01*
X7011617Y7942059D01*
X7031241Y7961683D01*
X7045117Y7985717D01*
X7052300Y8012524D01*
Y8040276D01*
X7045117Y8067083D01*
X7031241Y8091117D01*
X7011617Y8110741D01*
X6987583Y8124617D01*
X6976756Y8127518D01*
Y8179282D01*
X6987583Y8182183D01*
X7011617Y8196059D01*
X7031241Y8215683D01*
X7045117Y8239717D01*
X7052300Y8266524D01*
Y8294276D01*
X7045117Y8321083D01*
X7031241Y8345117D01*
X7011617Y8364741D01*
X6987583Y8378617D01*
X6976756Y8381518D01*
Y8433282D01*
X6987583Y8436183D01*
X7011617Y8450059D01*
X7031241Y8469683D01*
X7045117Y8493717D01*
X7052300Y8520524D01*
Y8548276D01*
X7045117Y8575083D01*
X7031241Y8599117D01*
X7011617Y8618741D01*
X6987583Y8632617D01*
X6976756Y8635518D01*
Y8687282D01*
X6987583Y8690183D01*
X7011617Y8704059D01*
X7031241Y8723683D01*
X7045117Y8747717D01*
X7052300Y8774524D01*
Y8802276D01*
X7045117Y8829083D01*
X7031241Y8853117D01*
X7011617Y8872741D01*
X6987583Y8886617D01*
X6976756Y8889518D01*
Y8941282D01*
X6987583Y8944183D01*
X7011617Y8958059D01*
X7031241Y8977683D01*
X7045117Y9001717D01*
X7052300Y9028524D01*
Y9029700D01*
D02*
G37*
G36*
X12600748Y7988300D02*
X12570652D01*
X12541582Y7980511D01*
X12515518Y7965463D01*
X12494237Y7944182D01*
X12479726Y7919047D01*
X12475937Y7918119D01*
X12431463D01*
X12427674Y7919047D01*
X12413163Y7944182D01*
X12391882Y7965463D01*
X12365818Y7980511D01*
X12336748Y7988300D01*
X12306652D01*
X12277582Y7980511D01*
X12251518Y7965463D01*
X12230237Y7944182D01*
X12215726Y7919047D01*
X12211937Y7918119D01*
X12167463D01*
X12163674Y7919047D01*
X12149163Y7944182D01*
X12127882Y7965463D01*
X12101818Y7980511D01*
X12072748Y7988300D01*
X12042652D01*
X12013582Y7980511D01*
X11987518Y7965463D01*
X11966237Y7944182D01*
X11951189Y7918118D01*
X11943400Y7889048D01*
Y7858952D01*
X11951189Y7829882D01*
X11966237Y7803818D01*
X11987518Y7782537D01*
X12013582Y7767489D01*
X12042652Y7759700D01*
X12072748D01*
X12101818Y7767489D01*
X12127882Y7782537D01*
X12149163Y7803818D01*
X12163674Y7828953D01*
X12167463Y7829881D01*
X12211937D01*
X12215726Y7828953D01*
X12230237Y7803818D01*
X12251518Y7782537D01*
X12277582Y7767489D01*
X12306652Y7759700D01*
X12336748D01*
X12365818Y7767489D01*
X12391882Y7782537D01*
X12413163Y7803818D01*
X12427674Y7828953D01*
X12431463Y7829881D01*
X12475937D01*
X12479726Y7828953D01*
X12494237Y7803818D01*
X12515518Y7782537D01*
X12541582Y7767489D01*
X12570652Y7759700D01*
X12600748D01*
X12629818Y7767489D01*
X12655882Y7782537D01*
X12677163Y7803818D01*
X12692211Y7829882D01*
X12700000Y7858952D01*
Y7889048D01*
X12692211Y7918118D01*
X12677163Y7944182D01*
X12655882Y7965463D01*
X12629818Y7980511D01*
X12600748Y7988300D01*
D02*
G37*
G36*
X14147800Y8456082D02*
X14139581Y8455000D01*
X14131291D01*
X14123282Y8452854D01*
X14115063Y8451772D01*
X14107405Y8448600D01*
X14099397Y8446454D01*
X14092220Y8442310D01*
X14084560Y8439137D01*
X14077982Y8434089D01*
X14070802Y8429945D01*
X14064941Y8424084D01*
X14058363Y8419037D01*
X14053316Y8412458D01*
X14047455Y8406597D01*
X14043311Y8399418D01*
X14038263Y8392841D01*
X14035091Y8385182D01*
X14030946Y8378003D01*
X14028799Y8369995D01*
X14025629Y8362336D01*
X14024545Y8354118D01*
X14022400Y8346109D01*
Y8337819D01*
X14021318Y8329600D01*
Y7953054D01*
X13922906Y7854643D01*
X13891551Y7865941D01*
X13875700Y7878147D01*
Y7901748D01*
X13867911Y7930818D01*
X13852863Y7956882D01*
X13831583Y7978163D01*
X13805518Y7993211D01*
X13776448Y8001000D01*
X13746352D01*
X13717282Y7993211D01*
X13691219Y7978163D01*
X13669937Y7956882D01*
X13655426Y7931747D01*
X13651637Y7930819D01*
X13607162D01*
X13603374Y7931747D01*
X13588863Y7956882D01*
X13567583Y7978163D01*
X13541518Y7993211D01*
X13512448Y8001000D01*
X13482352D01*
X13453282Y7993211D01*
X13427219Y7978163D01*
X13405937Y7956882D01*
X13391426Y7931747D01*
X13387637Y7930819D01*
X13343163D01*
X13339374Y7931747D01*
X13324863Y7956882D01*
X13303581Y7978163D01*
X13277518Y7993211D01*
X13248448Y8001000D01*
X13218352D01*
X13189282Y7993211D01*
X13163219Y7978163D01*
X13141937Y7956882D01*
X13126889Y7930818D01*
X13119099Y7901748D01*
Y7871652D01*
X13126889Y7842582D01*
X13141937Y7816518D01*
X13163219Y7795237D01*
X13189282Y7780189D01*
X13218352Y7772400D01*
X13248448D01*
X13277518Y7780189D01*
X13303581Y7795237D01*
X13324863Y7816518D01*
X13339374Y7841653D01*
X13343163Y7842581D01*
X13387637D01*
X13391426Y7841653D01*
X13405937Y7816518D01*
X13427219Y7795237D01*
X13453282Y7780189D01*
X13482352Y7772400D01*
X13512448D01*
X13541518Y7780189D01*
X13567583Y7795237D01*
X13588863Y7816518D01*
X13603374Y7841653D01*
X13607162Y7842581D01*
X13651637D01*
X13655426Y7841653D01*
X13669937Y7816518D01*
X13691219Y7795237D01*
X13717282Y7780189D01*
X13746352Y7772400D01*
X13769952D01*
X13782159Y7756549D01*
X13793457Y7725194D01*
X13699814Y7631550D01*
X13437231D01*
X13429013Y7630468D01*
X13420723D01*
X13412714Y7628323D01*
X13404495Y7627241D01*
X13396837Y7624068D01*
X13388829Y7621923D01*
X13381650Y7617777D01*
X13373991Y7614605D01*
X13367413Y7609558D01*
X13360236Y7605413D01*
X13354375Y7599552D01*
X13347797Y7594505D01*
X13342747Y7587926D01*
X13336887Y7582066D01*
X13332742Y7574887D01*
X13327695Y7568309D01*
X13324522Y7560650D01*
X13276312Y7572664D01*
Y7592305D01*
X13267766Y7624198D01*
X13251257Y7652793D01*
X13227908Y7676141D01*
X13199313Y7692650D01*
X13167421Y7701196D01*
X13134402D01*
X13102509Y7692650D01*
X13073915Y7676141D01*
X13050568Y7652793D01*
X13034058Y7624198D01*
X13030862Y7612275D01*
X11764588D01*
X11744923Y7608363D01*
X11728252Y7597224D01*
X11495264Y7364236D01*
X11484124Y7347565D01*
X11480213Y7327900D01*
Y6909631D01*
X11454603Y6894845D01*
X11431255Y6871497D01*
X11414746Y6842902D01*
X11406200Y6811009D01*
Y6777991D01*
X11414746Y6746098D01*
X11431255Y6717503D01*
X11454603Y6694155D01*
X11483198Y6677646D01*
X11515091Y6669100D01*
X11548109D01*
X11580002Y6677646D01*
X11608597Y6694155D01*
X11631945Y6717503D01*
X11648454Y6746098D01*
X11657000Y6777991D01*
Y6811009D01*
X11648454Y6842902D01*
X11631945Y6871497D01*
X11608597Y6894845D01*
X11582987Y6909631D01*
Y7306615D01*
X11668663Y7392291D01*
X11713492Y7366409D01*
X11711000Y7357109D01*
Y7324091D01*
X11719546Y7292198D01*
X11736055Y7263603D01*
X11759403Y7240255D01*
X11785013Y7225469D01*
Y6769100D01*
X11788924Y6749435D01*
X11800064Y6732764D01*
X12242213Y6290615D01*
Y6069731D01*
X12216603Y6054945D01*
X12193255Y6031597D01*
X12176746Y6003002D01*
X12168200Y5971109D01*
Y5938091D01*
X12176746Y5906197D01*
X12193255Y5877603D01*
X12216603Y5854255D01*
X12245198Y5837746D01*
X12277091Y5829200D01*
X12310109D01*
X12342002Y5837746D01*
X12370597Y5854255D01*
X12393945Y5877603D01*
X12410454Y5906197D01*
X12419000Y5938091D01*
Y5971109D01*
X12410454Y6003002D01*
X12393945Y6031597D01*
X12370597Y6054945D01*
X12344987Y6069731D01*
Y6311900D01*
X12341076Y6331565D01*
X12329936Y6348236D01*
X11887787Y6790385D01*
Y7225469D01*
X11913397Y7240255D01*
X11936745Y7263603D01*
X11953254Y7292198D01*
X11961800Y7324091D01*
Y7357109D01*
X11953254Y7389002D01*
X11936745Y7417597D01*
X11913397Y7440945D01*
X11884802Y7457454D01*
X11877165Y7459501D01*
X11883748Y7509501D01*
X12524269D01*
X12544242Y7463581D01*
X12516726Y7430087D01*
X12280900D01*
X12261235Y7426176D01*
X12244564Y7415036D01*
X12186274Y7356746D01*
X12157709Y7364400D01*
X12124691D01*
X12092798Y7355854D01*
X12064203Y7339345D01*
X12040855Y7315997D01*
X12024346Y7287402D01*
X12015800Y7255509D01*
Y7222491D01*
X12024346Y7190598D01*
X12040855Y7162003D01*
X12064203Y7138655D01*
X12092798Y7122146D01*
X12124691Y7113600D01*
X12157709D01*
X12189602Y7122146D01*
X12218197Y7138655D01*
X12241545Y7162003D01*
X12258054Y7190598D01*
X12266600Y7222491D01*
Y7255509D01*
X12258946Y7284074D01*
X12302185Y7327313D01*
X12517043D01*
X12519646Y7317598D01*
X12536155Y7289003D01*
X12559503Y7265655D01*
X12588098Y7249146D01*
X12619991Y7240600D01*
X12653009D01*
X12684902Y7249146D01*
X12713497Y7265655D01*
X12736845Y7289003D01*
X12753354Y7317598D01*
X12761900Y7349491D01*
Y7382509D01*
X12753354Y7414402D01*
X12736845Y7442997D01*
X12720342Y7459501D01*
X12725739Y7487383D01*
X12738609Y7509501D01*
X13044388D01*
X13050568Y7498799D01*
X13073915Y7475451D01*
X13102509Y7458942D01*
X13134402Y7450396D01*
X13167421D01*
X13199313Y7458942D01*
X13227908Y7475451D01*
X13251257Y7498799D01*
X13261832Y7517115D01*
X13262904Y7517033D01*
X13310750Y7505068D01*
X13311832Y7496850D01*
Y7488559D01*
X13313979Y7480551D01*
X13315060Y7472332D01*
X13318233Y7464673D01*
X13320378Y7456666D01*
X13324522Y7449487D01*
X13327695Y7441827D01*
X13332742Y7435249D01*
X13336887Y7428071D01*
X13342747Y7422210D01*
X13347797Y7415632D01*
X13354375Y7410584D01*
X13360236Y7404723D01*
X13367413Y7400579D01*
X13373991Y7395532D01*
X13381650Y7392359D01*
X13388829Y7388214D01*
X13396837Y7386068D01*
X13404495Y7382896D01*
X13412714Y7381814D01*
X13420723Y7379668D01*
X13429013D01*
X13437231Y7378586D01*
X13451167D01*
X13464565Y7328586D01*
X13461203Y7326645D01*
X13437856Y7303297D01*
X13421346Y7274702D01*
X13412801Y7242809D01*
Y7239000D01*
X13663600D01*
Y7242809D01*
X13655054Y7274702D01*
X13638545Y7303297D01*
X13615198Y7326645D01*
X13611835Y7328586D01*
X13625232Y7378586D01*
X13717517D01*
X13755553Y7331891D01*
X13755701Y7329826D01*
Y7298691D01*
X13764246Y7266798D01*
X13780756Y7238203D01*
X13804103Y7214855D01*
X13832698Y7198346D01*
X13864590Y7189800D01*
X13897609D01*
X13929501Y7198346D01*
X13958096Y7214855D01*
X13981445Y7238203D01*
X13997954Y7266798D01*
X14006500Y7298691D01*
Y7331709D01*
X13997954Y7363602D01*
X13981445Y7392197D01*
X13958096Y7415545D01*
X13929501Y7432054D01*
X13928928Y7432208D01*
X13913985Y7487976D01*
X14121768Y7695759D01*
X14249918Y7567609D01*
Y7281654D01*
X13681252Y6712988D01*
X13641241Y6743689D01*
X13641428Y6744012D01*
X13648100Y6768911D01*
Y6769100D01*
X13562900D01*
Y6683900D01*
X13563089D01*
X13587988Y6690572D01*
X13588310Y6690759D01*
X13619012Y6650749D01*
X13559045Y6590782D01*
X13234995D01*
X13202258Y6586472D01*
X13171753Y6573837D01*
X13145557Y6553736D01*
X13145557Y6553735D01*
X12804263Y6212442D01*
X12784163Y6186247D01*
X12771528Y6155742D01*
X12767218Y6123006D01*
X12767218Y6123004D01*
Y6108319D01*
X12717218Y6081862D01*
X12710302Y6085854D01*
X12678409Y6094400D01*
X12645391D01*
X12613498Y6085854D01*
X12584903Y6069345D01*
X12561555Y6045997D01*
X12545046Y6017402D01*
X12536500Y5985509D01*
Y5952491D01*
X12545046Y5920598D01*
X12561555Y5892003D01*
X12584903Y5868655D01*
X12613498Y5852146D01*
X12614072Y5851992D01*
X12629015Y5796224D01*
X12532341Y5699550D01*
X12353168D01*
X12320432Y5695241D01*
X12289927Y5682605D01*
X12263732Y5662505D01*
X12263731Y5662504D01*
X11429464Y4828236D01*
X11409363Y4802041D01*
X11396728Y4771536D01*
X11392418Y4738800D01*
X11392418Y4738798D01*
Y4648200D01*
X11393500Y4639981D01*
Y4631691D01*
X11395646Y4623682D01*
X11396728Y4615464D01*
X11399900Y4607805D01*
X11402046Y4599798D01*
X11406191Y4592618D01*
X11409363Y4584959D01*
X11414410Y4578382D01*
X11418555Y4571203D01*
X11424416Y4565342D01*
X11429464Y4558764D01*
X11436042Y4553716D01*
X11441903Y4547855D01*
X11449082Y4543710D01*
X11455659Y4538663D01*
X11463318Y4535491D01*
X11470498Y4531346D01*
X11478505Y4529200D01*
X11486164Y4526028D01*
X11494382Y4524946D01*
X11502391Y4522800D01*
X11510681D01*
X11518900Y4521718D01*
X11527119Y4522800D01*
X11535409D01*
X11543418Y4524946D01*
X11551636Y4526028D01*
X11559295Y4529200D01*
X11567302Y4531346D01*
X11574482Y4535491D01*
X11582141Y4538663D01*
X11588718Y4543710D01*
X11595897Y4547855D01*
X11601758Y4553716D01*
X11608336Y4558764D01*
X11613384Y4565342D01*
X11619245Y4571203D01*
X11623390Y4578382D01*
X11628437Y4584959D01*
X11631609Y4592618D01*
X11635754Y4599798D01*
X11637900Y4607805D01*
X11641072Y4615464D01*
X11642154Y4623682D01*
X11644300Y4631691D01*
Y4639981D01*
X11645382Y4648200D01*
Y4686409D01*
X11705701Y4746729D01*
X11750530Y4720847D01*
X11749100Y4715509D01*
Y4682491D01*
X11757646Y4650598D01*
X11774155Y4622003D01*
X11797503Y4598655D01*
X11826098Y4582146D01*
X11857991Y4573600D01*
X11891009D01*
X11922902Y4582146D01*
X11951497Y4598655D01*
X11974845Y4622003D01*
X11991354Y4650598D01*
X11999900Y4682491D01*
Y4715509D01*
X11991354Y4747402D01*
X11974845Y4775997D01*
X11951497Y4799345D01*
X11922902Y4815854D01*
X11891009Y4824400D01*
X11857991D01*
X11852653Y4822970D01*
X11826771Y4867798D01*
X12405559Y5446586D01*
X12584730D01*
X12584732Y5446586D01*
X12617468Y5450896D01*
X12647973Y5463532D01*
X12674168Y5483632D01*
X12754819Y5564282D01*
X12801013Y5545148D01*
Y5174476D01*
X12797746Y5172077D01*
X12751013Y5157229D01*
X12738897Y5169345D01*
X12710302Y5185854D01*
X12678409Y5194400D01*
X12645391D01*
X12613498Y5185854D01*
X12584903Y5169345D01*
X12561555Y5145997D01*
X12545046Y5117403D01*
X12536500Y5085509D01*
Y5052491D01*
X12545046Y5020598D01*
X12561555Y4992003D01*
X12584903Y4968655D01*
X12613498Y4952146D01*
X12645391Y4943600D01*
X12678409D01*
X12710302Y4952146D01*
X12738897Y4968655D01*
X12751013Y4980771D01*
X12797746Y4965924D01*
X12801013Y4963524D01*
Y4797852D01*
X12751013Y4784455D01*
X12749545Y4786997D01*
X12726197Y4810345D01*
X12697602Y4826854D01*
X12665709Y4835400D01*
X12632691D01*
X12600798Y4826854D01*
X12572203Y4810345D01*
X12548855Y4786997D01*
X12532346Y4758402D01*
X12523800Y4726509D01*
Y4693491D01*
X12532346Y4661597D01*
X12548855Y4633003D01*
X12572203Y4609655D01*
X12600798Y4593146D01*
X12632691Y4584600D01*
X12665709D01*
X12697602Y4593146D01*
X12726197Y4609655D01*
X12749545Y4633003D01*
X12751013Y4635545D01*
X12801013Y4622147D01*
Y4478985D01*
X12462464Y4140436D01*
X12451324Y4123765D01*
X12447413Y4104100D01*
Y3894388D01*
X12397413Y3880991D01*
X12393945Y3886997D01*
X12370597Y3910345D01*
X12342002Y3926854D01*
X12310109Y3935400D01*
X12277091D01*
X12245198Y3926854D01*
X12216603Y3910345D01*
X12193255Y3886997D01*
X12176746Y3858402D01*
X12168200Y3826509D01*
Y3793491D01*
X12176746Y3761598D01*
X12193255Y3733003D01*
X12216603Y3709655D01*
X12245198Y3693146D01*
X12245878Y3692963D01*
X12260821Y3637196D01*
X12167512Y3543887D01*
X11709400D01*
X11689735Y3539976D01*
X11673064Y3528836D01*
X11520664Y3376436D01*
X11509524Y3359765D01*
X11505613Y3340100D01*
Y3150431D01*
X11480003Y3135645D01*
X11456655Y3112297D01*
X11440146Y3083702D01*
X11431600Y3051809D01*
Y3018791D01*
X11440146Y2986898D01*
X11456655Y2958303D01*
X11480003Y2934955D01*
X11508598Y2918446D01*
X11540491Y2909900D01*
X11573509D01*
X11605402Y2918446D01*
X11633997Y2934955D01*
X11657345Y2958303D01*
X11673854Y2986898D01*
X11682400Y3018791D01*
Y3051809D01*
X11673854Y3083702D01*
X11657345Y3112297D01*
X11633997Y3135645D01*
X11608387Y3150431D01*
Y3318815D01*
X11703457Y3413885D01*
X11748700Y3388417D01*
Y3201600D01*
X11949500D01*
Y3391113D01*
X11949500Y3402400D01*
X11976749Y3441113D01*
X12188798D01*
X12208463Y3445024D01*
X12225134Y3456164D01*
X12495092Y3726122D01*
X12548855Y3733003D01*
X12572203Y3709655D01*
X12600798Y3693146D01*
X12632691Y3684600D01*
X12665709D01*
X12697602Y3693146D01*
X12703293Y3696431D01*
X12739895Y3659829D01*
X12731394Y3645104D01*
X12722849Y3613211D01*
Y3580193D01*
X12731394Y3548299D01*
X12747904Y3519705D01*
X12771251Y3496357D01*
X12799846Y3479848D01*
X12831738Y3471302D01*
X12864758D01*
X12896651Y3479848D01*
X12925246Y3496357D01*
X12948595Y3519705D01*
X12965103Y3548299D01*
X12973650Y3580193D01*
Y3613211D01*
X12966216Y3640952D01*
X13384036Y4058773D01*
X13395177Y4075444D01*
X13399088Y4095109D01*
Y5918872D01*
X13452374Y5972158D01*
X13458191Y5970600D01*
X13491209D01*
X13523102Y5979146D01*
X13551697Y5995655D01*
X13575044Y6019003D01*
X13591554Y6047598D01*
X13600101Y6079491D01*
Y6112509D01*
X13591554Y6144402D01*
X13575044Y6172997D01*
X13551697Y6196345D01*
X13523102Y6212854D01*
X13491209Y6221400D01*
X13458191D01*
X13426299Y6212854D01*
X13397704Y6196345D01*
X13374355Y6172997D01*
X13357846Y6144402D01*
X13350217Y6115933D01*
X13349294Y6112510D01*
X13300330Y6114994D01*
X13299161Y6119351D01*
X13294533Y6136624D01*
X13278024Y6165219D01*
X13254675Y6188566D01*
X13226080Y6205075D01*
X13225507Y6205229D01*
X13210564Y6260997D01*
X13287384Y6337818D01*
X13611433D01*
X13611436Y6337818D01*
X13644173Y6342128D01*
X13674677Y6354763D01*
X13700873Y6374864D01*
X13708324Y6382315D01*
X13764091Y6367372D01*
X13764246Y6366798D01*
X13780756Y6338203D01*
X13804103Y6314855D01*
X13832698Y6298346D01*
X13864590Y6289800D01*
X13868401D01*
Y6415200D01*
X13881100D01*
Y6427900D01*
X14006500D01*
Y6431709D01*
X13997954Y6463603D01*
X13981445Y6492197D01*
X13958096Y6515545D01*
X13929501Y6532054D01*
X13928928Y6532208D01*
X13913985Y6587976D01*
X14465836Y7139826D01*
X14465836Y7139827D01*
X14485938Y7166023D01*
X14498572Y7196528D01*
X14502882Y7229264D01*
X14502882Y7229266D01*
Y7620000D01*
X14498572Y7652736D01*
X14485938Y7683241D01*
X14465836Y7709436D01*
X14274281Y7900991D01*
Y8329600D01*
X14273199Y8337819D01*
Y8346109D01*
X14271054Y8354118D01*
X14269972Y8362336D01*
X14266800Y8369995D01*
X14264655Y8378003D01*
X14260509Y8385182D01*
X14257336Y8392841D01*
X14252290Y8399418D01*
X14248145Y8406597D01*
X14242284Y8412458D01*
X14237236Y8419037D01*
X14230658Y8424084D01*
X14224797Y8429945D01*
X14217619Y8434089D01*
X14211041Y8439137D01*
X14203381Y8442310D01*
X14196202Y8446454D01*
X14188194Y8448600D01*
X14180536Y8451772D01*
X14172318Y8452854D01*
X14164310Y8455000D01*
X14156020D01*
X14147800Y8456082D01*
D02*
G37*
G36*
X10820240Y8020050D02*
X10795160D01*
X10770935Y8013559D01*
X10749215Y8001019D01*
X10731481Y7983285D01*
X10718941Y7961565D01*
X10712450Y7937340D01*
Y7912260D01*
X10718941Y7888035D01*
X10731481Y7866315D01*
X10749215Y7848581D01*
X10770935Y7836041D01*
X10795160Y7829550D01*
X10820240D01*
X10844465Y7836041D01*
X10866185Y7848581D01*
X10883919Y7866315D01*
X10896459Y7888035D01*
X10902950Y7912260D01*
Y7937340D01*
X10896459Y7961565D01*
X10883919Y7983285D01*
X10866185Y8001019D01*
X10844465Y8013559D01*
X10820240Y8020050D01*
D02*
G37*
G36*
X8534240D02*
X8509160D01*
X8484935Y8013559D01*
X8463215Y8001019D01*
X8445481Y7983285D01*
X8432941Y7961565D01*
X8426450Y7937340D01*
Y7912260D01*
X8432941Y7888035D01*
X8445481Y7866315D01*
X8463215Y7848581D01*
X8484935Y7836041D01*
X8509160Y7829550D01*
X8534240D01*
X8558465Y7836041D01*
X8580185Y7848581D01*
X8597919Y7866315D01*
X8610459Y7888035D01*
X8616950Y7912260D01*
Y7937340D01*
X8610459Y7961565D01*
X8597919Y7983285D01*
X8580185Y8001019D01*
X8558465Y8013559D01*
X8534240Y8020050D01*
D02*
G37*
G36*
X10820240Y7766050D02*
X10795160D01*
X10770935Y7759559D01*
X10749215Y7747019D01*
X10731481Y7729285D01*
X10718941Y7707565D01*
X10712450Y7683340D01*
Y7658260D01*
X10718941Y7634035D01*
X10731481Y7612315D01*
X10749215Y7594581D01*
X10770935Y7582041D01*
X10795160Y7575550D01*
X10820240D01*
X10844465Y7582041D01*
X10866185Y7594581D01*
X10883919Y7612315D01*
X10896459Y7634035D01*
X10902950Y7658260D01*
Y7683340D01*
X10896459Y7707565D01*
X10883919Y7729285D01*
X10866185Y7747019D01*
X10844465Y7759559D01*
X10820240Y7766050D01*
D02*
G37*
G36*
X8534240D02*
X8509160D01*
X8484935Y7759559D01*
X8463215Y7747019D01*
X8445481Y7729285D01*
X8432941Y7707565D01*
X8426450Y7683340D01*
Y7658260D01*
X8432941Y7634035D01*
X8445481Y7612315D01*
X8463215Y7594581D01*
X8484935Y7582041D01*
X8509160Y7575550D01*
X8534240D01*
X8558465Y7582041D01*
X8580185Y7594581D01*
X8597919Y7612315D01*
X8610459Y7634035D01*
X8616950Y7658260D01*
Y7683340D01*
X8610459Y7707565D01*
X8597919Y7729285D01*
X8580185Y7747019D01*
X8558465Y7759559D01*
X8534240Y7766050D01*
D02*
G37*
G36*
X7975239Y7619951D02*
X6756400D01*
Y7366000D01*
X7975239D01*
Y7619951D01*
D02*
G37*
G36*
X10820240Y7512050D02*
X10795160D01*
X10770935Y7505559D01*
X10749215Y7493019D01*
X10731481Y7475285D01*
X10718941Y7453565D01*
X10712450Y7429340D01*
Y7404260D01*
X10718941Y7380035D01*
X10731481Y7358315D01*
X10749215Y7340581D01*
X10770935Y7328041D01*
X10795160Y7321550D01*
X10820240D01*
X10844465Y7328041D01*
X10866185Y7340581D01*
X10883919Y7358315D01*
X10896459Y7380035D01*
X10902950Y7404260D01*
Y7429340D01*
X10896459Y7453565D01*
X10883919Y7475285D01*
X10866185Y7493019D01*
X10844465Y7505559D01*
X10820240Y7512050D01*
D02*
G37*
G36*
X8534240D02*
X8509160D01*
X8484935Y7505559D01*
X8463215Y7493019D01*
X8445481Y7475285D01*
X8432941Y7453565D01*
X8426450Y7429340D01*
Y7404260D01*
X8432941Y7380035D01*
X8445481Y7358315D01*
X8463215Y7340581D01*
X8484935Y7328041D01*
X8509160Y7321550D01*
X8534240D01*
X8558465Y7328041D01*
X8580185Y7340581D01*
X8597919Y7358315D01*
X8610459Y7380035D01*
X8616950Y7404260D01*
Y7429340D01*
X8610459Y7453565D01*
X8597919Y7475285D01*
X8580185Y7493019D01*
X8558465Y7505559D01*
X8534240Y7512050D01*
D02*
G37*
G36*
X13663600Y7213600D02*
X13550900D01*
Y7100900D01*
X13554709D01*
X13586601Y7109446D01*
X13615198Y7125955D01*
X13638545Y7149303D01*
X13655054Y7177898D01*
X13663600Y7209791D01*
Y7213600D01*
D02*
G37*
G36*
X13525500D02*
X13412801D01*
Y7209791D01*
X13421346Y7177898D01*
X13437856Y7149303D01*
X13461203Y7125955D01*
X13489798Y7109446D01*
X13521690Y7100900D01*
X13525500D01*
Y7213600D01*
D02*
G37*
G36*
X10820240Y7258050D02*
X10795160D01*
X10770935Y7251559D01*
X10749215Y7239019D01*
X10731481Y7221285D01*
X10718941Y7199565D01*
X10712450Y7175340D01*
Y7150260D01*
X10718941Y7126035D01*
X10731481Y7104315D01*
X10749215Y7086581D01*
X10770935Y7074041D01*
X10795160Y7067550D01*
X10820240D01*
X10844465Y7074041D01*
X10866185Y7086581D01*
X10883919Y7104315D01*
X10896459Y7126035D01*
X10902950Y7150260D01*
Y7175340D01*
X10896459Y7199565D01*
X10883919Y7221285D01*
X10866185Y7239019D01*
X10844465Y7251559D01*
X10820240Y7258050D01*
D02*
G37*
G36*
X8534240D02*
X8509160D01*
X8484935Y7251559D01*
X8463215Y7239019D01*
X8445481Y7221285D01*
X8432941Y7199565D01*
X8426450Y7175340D01*
Y7150260D01*
X8432941Y7126035D01*
X8445481Y7104315D01*
X8463215Y7086581D01*
X8484935Y7074041D01*
X8509160Y7067550D01*
X8534240D01*
X8558465Y7074041D01*
X8580185Y7086581D01*
X8597919Y7104315D01*
X8610459Y7126035D01*
X8616950Y7150260D01*
Y7175340D01*
X8610459Y7199565D01*
X8597919Y7221285D01*
X8580185Y7239019D01*
X8558465Y7251559D01*
X8534240Y7258050D01*
D02*
G37*
G36*
X10820240Y7004050D02*
X10795160D01*
X10770935Y6997559D01*
X10749215Y6985019D01*
X10731481Y6967285D01*
X10718941Y6945565D01*
X10712450Y6921340D01*
Y6896260D01*
X10718941Y6872035D01*
X10731481Y6850315D01*
X10749215Y6832581D01*
X10770935Y6820041D01*
X10795160Y6813550D01*
X10820240D01*
X10844465Y6820041D01*
X10866185Y6832581D01*
X10883919Y6850315D01*
X10896459Y6872035D01*
X10902950Y6896260D01*
Y6921340D01*
X10896459Y6945565D01*
X10883919Y6967285D01*
X10866185Y6985019D01*
X10844465Y6997559D01*
X10820240Y7004050D01*
D02*
G37*
G36*
X8534240D02*
X8509160D01*
X8484935Y6997559D01*
X8463215Y6985019D01*
X8445481Y6967285D01*
X8432941Y6945565D01*
X8426450Y6921340D01*
Y6896260D01*
X8432941Y6872035D01*
X8445481Y6850315D01*
X8463215Y6832581D01*
X8484935Y6820041D01*
X8509160Y6813550D01*
X8534240D01*
X8558465Y6820041D01*
X8580185Y6832581D01*
X8597919Y6850315D01*
X8610459Y6872035D01*
X8616950Y6896260D01*
Y6921340D01*
X8610459Y6945565D01*
X8597919Y6967285D01*
X8580185Y6985019D01*
X8558465Y6997559D01*
X8534240Y7004050D01*
D02*
G37*
G36*
X12782389Y6879800D02*
X12782200D01*
Y6794600D01*
X12867400D01*
Y6794789D01*
X12860728Y6819688D01*
X12847839Y6842012D01*
X12829613Y6860240D01*
X12807288Y6873128D01*
X12782389Y6879800D01*
D02*
G37*
G36*
X12756800D02*
X12756611D01*
X12731712Y6873128D01*
X12709388Y6860240D01*
X12691161Y6842012D01*
X12678272Y6819688D01*
X12671600Y6794789D01*
Y6794600D01*
X12756800D01*
Y6879800D01*
D02*
G37*
G36*
X13563089Y6879700D02*
X13562900D01*
Y6794500D01*
X13648100D01*
Y6794689D01*
X13641428Y6819588D01*
X13628539Y6841912D01*
X13610312Y6860139D01*
X13587988Y6873028D01*
X13563089Y6879700D01*
D02*
G37*
G36*
X13537500D02*
X13537311D01*
X13512411Y6873028D01*
X13490088Y6860139D01*
X13471861Y6841912D01*
X13458972Y6819588D01*
X13452299Y6794689D01*
Y6794500D01*
X13537500D01*
Y6879700D01*
D02*
G37*
G36*
X12867400Y6769200D02*
X12782200D01*
Y6684000D01*
X12782389D01*
X12807288Y6690672D01*
X12829613Y6703561D01*
X12847839Y6721788D01*
X12860728Y6744112D01*
X12867400Y6769011D01*
Y6769200D01*
D02*
G37*
G36*
X12756800D02*
X12671600D01*
Y6769011D01*
X12678272Y6744112D01*
X12691161Y6721788D01*
X12709388Y6703561D01*
X12731712Y6690672D01*
X12756611Y6684000D01*
X12756800D01*
Y6769200D01*
D02*
G37*
G36*
X12522389Y6879800D02*
X12496611D01*
X12471712Y6873128D01*
X12449388Y6860240D01*
X12431161Y6842012D01*
X12418272Y6819688D01*
X12411600Y6794789D01*
Y6769011D01*
X12418272Y6744112D01*
X12431161Y6721788D01*
X12449388Y6703561D01*
X12471712Y6690672D01*
X12496611Y6684000D01*
X12522389D01*
X12547288Y6690672D01*
X12569612Y6703561D01*
X12587839Y6721788D01*
X12600728Y6744112D01*
X12607400Y6769011D01*
Y6794789D01*
X12600728Y6819688D01*
X12587839Y6842012D01*
X12569612Y6860240D01*
X12547288Y6873128D01*
X12522389Y6879800D01*
D02*
G37*
G36*
X12347400D02*
X12151600D01*
Y6684000D01*
X12347400D01*
Y6879800D01*
D02*
G37*
G36*
X13537500Y6769100D02*
X13452299D01*
Y6768911D01*
X13458972Y6744012D01*
X13471861Y6721688D01*
X13490088Y6703461D01*
X13512411Y6690572D01*
X13537311Y6683900D01*
X13537500D01*
Y6769100D01*
D02*
G37*
G36*
X13303088Y6879700D02*
X13277312D01*
X13252412Y6873028D01*
X13230087Y6860139D01*
X13211861Y6841912D01*
X13198972Y6819588D01*
X13192300Y6794689D01*
Y6768911D01*
X13198972Y6744012D01*
X13211861Y6721688D01*
X13230087Y6703461D01*
X13252412Y6690572D01*
X13277312Y6683900D01*
X13303088D01*
X13327988Y6690572D01*
X13350311Y6703461D01*
X13368539Y6721688D01*
X13381429Y6744012D01*
X13388100Y6768911D01*
Y6794689D01*
X13381429Y6819588D01*
X13368539Y6841912D01*
X13350311Y6860139D01*
X13327988Y6873028D01*
X13303088Y6879700D01*
D02*
G37*
G36*
X13128101D02*
X12932300D01*
Y6683900D01*
X13128101D01*
Y6879700D01*
D02*
G37*
G36*
X6935376Y7280900D02*
X6907624D01*
X6880817Y7273717D01*
X6856783Y7259841D01*
X6837159Y7240217D01*
X6823283Y7216183D01*
X6816100Y7189376D01*
Y7161624D01*
X6823283Y7134817D01*
X6837159Y7110783D01*
X6856783Y7091159D01*
X6880817Y7077283D01*
X6891644Y7074382D01*
Y7022618D01*
X6880817Y7019717D01*
X6856783Y7005841D01*
X6837159Y6986217D01*
X6823283Y6962183D01*
X6816100Y6935376D01*
Y6907624D01*
X6823283Y6880817D01*
X6837159Y6856783D01*
X6856783Y6837159D01*
X6880817Y6823283D01*
X6891644Y6820382D01*
Y6768618D01*
X6880817Y6765717D01*
X6856783Y6751841D01*
X6837159Y6732217D01*
X6823283Y6708183D01*
X6816100Y6681376D01*
Y6680200D01*
X6921500D01*
X7026900D01*
Y6681376D01*
X7019717Y6708183D01*
X7005841Y6732217D01*
X6986217Y6751841D01*
X6962183Y6765717D01*
X6951356Y6768618D01*
Y6820382D01*
X6962183Y6823283D01*
X6986217Y6837159D01*
X7005841Y6856783D01*
X7019717Y6880817D01*
X7026900Y6907624D01*
Y6935376D01*
X7019717Y6962183D01*
X7005841Y6986217D01*
X6986217Y7005841D01*
X6962183Y7019717D01*
X6951356Y7022618D01*
Y7074382D01*
X6962183Y7077283D01*
X6986217Y7091159D01*
X7005841Y7110783D01*
X7019717Y7134817D01*
X7026900Y7161624D01*
Y7189376D01*
X7019717Y7216183D01*
X7005841Y7240217D01*
X6986217Y7259841D01*
X6962183Y7273717D01*
X6935376Y7280900D01*
D02*
G37*
G36*
X10820240Y6750050D02*
X10795160D01*
X10770935Y6743559D01*
X10749215Y6731019D01*
X10731481Y6713285D01*
X10718941Y6691565D01*
X10712450Y6667340D01*
Y6642260D01*
X10718941Y6618035D01*
X10731481Y6596315D01*
X10749215Y6578581D01*
X10770935Y6566041D01*
X10795160Y6559550D01*
X10820240D01*
X10844465Y6566041D01*
X10866185Y6578581D01*
X10883919Y6596315D01*
X10896459Y6618035D01*
X10902950Y6642260D01*
Y6667340D01*
X10896459Y6691565D01*
X10883919Y6713285D01*
X10866185Y6731019D01*
X10844465Y6743559D01*
X10820240Y6750050D01*
D02*
G37*
G36*
X8534240D02*
X8509160D01*
X8484935Y6743559D01*
X8463215Y6731019D01*
X8445481Y6713285D01*
X8432941Y6691565D01*
X8426450Y6667340D01*
Y6642260D01*
X8432941Y6618035D01*
X8445481Y6596315D01*
X8463215Y6578581D01*
X8484935Y6566041D01*
X8509160Y6559550D01*
X8534240D01*
X8558465Y6566041D01*
X8580185Y6578581D01*
X8597919Y6596315D01*
X8610459Y6618035D01*
X8616950Y6642260D01*
Y6667340D01*
X8610459Y6691565D01*
X8597919Y6713285D01*
X8580185Y6731019D01*
X8558465Y6743559D01*
X8534240Y6750050D01*
D02*
G37*
G36*
X12716509Y6577000D02*
X12712700D01*
Y6464300D01*
X12825400D01*
Y6468109D01*
X12816853Y6500002D01*
X12800345Y6528597D01*
X12776997Y6551945D01*
X12748402Y6568454D01*
X12716509Y6577000D01*
D02*
G37*
G36*
X12687300D02*
X12683491D01*
X12651598Y6568454D01*
X12623003Y6551945D01*
X12599655Y6528597D01*
X12583146Y6500002D01*
X12574600Y6468109D01*
Y6464300D01*
X12687300D01*
Y6577000D01*
D02*
G37*
G36*
X11852909Y6566000D02*
X11849100D01*
Y6453300D01*
X11961800D01*
Y6457109D01*
X11953254Y6489003D01*
X11936745Y6517597D01*
X11913397Y6540945D01*
X11884802Y6557454D01*
X11852909Y6566000D01*
D02*
G37*
G36*
X11823700D02*
X11819891D01*
X11787998Y6557454D01*
X11759403Y6540945D01*
X11736055Y6517597D01*
X11719546Y6489003D01*
X11711000Y6457109D01*
Y6453300D01*
X11823700D01*
Y6566000D01*
D02*
G37*
G36*
X7026900Y6654800D02*
X6921500D01*
X6816100D01*
Y6653624D01*
X6823283Y6626817D01*
X6837159Y6602783D01*
X6856783Y6583159D01*
X6880817Y6569283D01*
X6891644Y6566382D01*
Y6514618D01*
X6880817Y6511717D01*
X6856783Y6497841D01*
X6837159Y6478217D01*
X6823283Y6454183D01*
X6816100Y6427376D01*
Y6426200D01*
X6921500D01*
X7026900D01*
Y6427376D01*
X7019717Y6454183D01*
X7005841Y6478217D01*
X6986217Y6497841D01*
X6962183Y6511717D01*
X6951356Y6514618D01*
Y6566382D01*
X6962183Y6569283D01*
X6986217Y6583159D01*
X7005841Y6602783D01*
X7019717Y6626817D01*
X7026900Y6653624D01*
Y6654800D01*
D02*
G37*
G36*
X11823700Y6427900D02*
X11711000D01*
Y6424091D01*
X11719546Y6392198D01*
X11732917Y6369037D01*
X11736054Y6363603D01*
X11700384Y6329012D01*
X11696686Y6331146D01*
X11681602Y6339854D01*
X11649709Y6348400D01*
X11645900D01*
Y6235700D01*
X11758600D01*
Y6239509D01*
X11750054Y6271402D01*
X11736683Y6294563D01*
X11733546Y6299997D01*
X11769216Y6334588D01*
X11772914Y6332454D01*
X11787998Y6323746D01*
X11819891Y6315200D01*
X11823700D01*
Y6427900D01*
D02*
G37*
G36*
X12825400Y6438900D02*
X12712700D01*
Y6326200D01*
X12716509D01*
X12748402Y6334746D01*
X12776997Y6351255D01*
X12800345Y6374603D01*
X12816853Y6403198D01*
X12825400Y6435091D01*
Y6438900D01*
D02*
G37*
G36*
X12687300D02*
X12574600D01*
Y6435091D01*
X12583146Y6403198D01*
X12599655Y6374603D01*
X12623003Y6351255D01*
X12651598Y6334746D01*
X12683491Y6326200D01*
X12687300D01*
Y6438900D01*
D02*
G37*
G36*
X11961800Y6427900D02*
X11849100D01*
Y6315200D01*
X11852909D01*
X11884802Y6323746D01*
X11913397Y6340255D01*
X11936745Y6363603D01*
X11953254Y6392198D01*
X11961800Y6424091D01*
Y6427900D01*
D02*
G37*
G36*
X7026900Y6400800D02*
X6934200D01*
Y6308100D01*
X6935376D01*
X6962183Y6315283D01*
X6986217Y6329159D01*
X7005841Y6348783D01*
X7019717Y6372817D01*
X7026900Y6399624D01*
Y6400800D01*
D02*
G37*
G36*
X6908800D02*
X6816100D01*
Y6399624D01*
X6823283Y6372817D01*
X6837159Y6348783D01*
X6856783Y6329159D01*
X6880817Y6315283D01*
X6907624Y6308100D01*
X6908800D01*
Y6400800D01*
D02*
G37*
G36*
X10820240Y6496050D02*
X10795160D01*
X10770935Y6489559D01*
X10749215Y6477019D01*
X10731481Y6459285D01*
X10718941Y6437565D01*
X10712450Y6413340D01*
Y6388260D01*
X10718941Y6364035D01*
X10731481Y6342315D01*
X10749215Y6324581D01*
X10770935Y6312041D01*
X10795160Y6305550D01*
X10820240D01*
X10844465Y6312041D01*
X10866185Y6324581D01*
X10883919Y6342315D01*
X10896459Y6364035D01*
X10902950Y6388260D01*
Y6413340D01*
X10896459Y6437565D01*
X10883919Y6459285D01*
X10866185Y6477019D01*
X10844465Y6489559D01*
X10820240Y6496050D01*
D02*
G37*
G36*
X8534240D02*
X8509160D01*
X8484935Y6489559D01*
X8463215Y6477019D01*
X8445481Y6459285D01*
X8432941Y6437565D01*
X8426450Y6413340D01*
Y6388260D01*
X8432941Y6364035D01*
X8445481Y6342315D01*
X8463215Y6324581D01*
X8484935Y6312041D01*
X8509160Y6305550D01*
X8534240D01*
X8558465Y6312041D01*
X8580185Y6324581D01*
X8597919Y6342315D01*
X8610459Y6364035D01*
X8616950Y6388260D01*
Y6413340D01*
X8610459Y6437565D01*
X8597919Y6459285D01*
X8580185Y6477019D01*
X8558465Y6489559D01*
X8534240Y6496050D01*
D02*
G37*
G36*
X14006500Y6402500D02*
X13893800D01*
Y6289800D01*
X13897609D01*
X13929501Y6298346D01*
X13958096Y6314855D01*
X13981445Y6338203D01*
X13997954Y6366798D01*
X14006500Y6398691D01*
Y6402500D01*
D02*
G37*
G36*
X11620500Y6348400D02*
X11616691D01*
X11584798Y6339854D01*
X11556203Y6323345D01*
X11532855Y6299997D01*
X11516346Y6271402D01*
X11507800Y6239509D01*
Y6235700D01*
X11620500D01*
Y6348400D01*
D02*
G37*
G36*
X11758600Y6210300D02*
X11645900D01*
Y6097600D01*
X11649709D01*
X11681602Y6106146D01*
X11710197Y6122655D01*
X11733545Y6146003D01*
X11750054Y6174598D01*
X11758600Y6206491D01*
Y6210300D01*
D02*
G37*
G36*
X11620500D02*
X11507800D01*
Y6206491D01*
X11516346Y6174598D01*
X11532855Y6146003D01*
X11556203Y6122655D01*
X11584798Y6106146D01*
X11616691Y6097600D01*
X11620500D01*
Y6210300D01*
D02*
G37*
G36*
X10820240Y6242050D02*
X10795160D01*
X10770935Y6235559D01*
X10749215Y6223019D01*
X10731481Y6205285D01*
X10718941Y6183565D01*
X10712450Y6159340D01*
Y6134260D01*
X10718941Y6110035D01*
X10731481Y6088315D01*
X10749215Y6070581D01*
X10770935Y6058041D01*
X10795160Y6051550D01*
X10820240D01*
X10844465Y6058041D01*
X10866185Y6070581D01*
X10883919Y6088315D01*
X10896459Y6110035D01*
X10902950Y6134260D01*
Y6159340D01*
X10896459Y6183565D01*
X10883919Y6205285D01*
X10866185Y6223019D01*
X10844465Y6235559D01*
X10820240Y6242050D01*
D02*
G37*
G36*
X8534240D02*
X8509160D01*
X8484935Y6235559D01*
X8463215Y6223019D01*
X8445481Y6205285D01*
X8432941Y6183565D01*
X8426450Y6159340D01*
Y6134260D01*
X8432941Y6110035D01*
X8445481Y6088315D01*
X8463215Y6070581D01*
X8484935Y6058041D01*
X8509160Y6051550D01*
X8534240D01*
X8558465Y6058041D01*
X8580185Y6070581D01*
X8597919Y6088315D01*
X8610459Y6110035D01*
X8616950Y6134260D01*
Y6159340D01*
X8610459Y6183565D01*
X8597919Y6205285D01*
X8580185Y6223019D01*
X8558465Y6235559D01*
X8534240Y6242050D01*
D02*
G37*
G36*
X11865609Y6094400D02*
X11832591D01*
X11800698Y6085854D01*
X11772103Y6069345D01*
X11748755Y6045997D01*
X11732246Y6017402D01*
X11723700Y5985509D01*
Y5952491D01*
X11732246Y5920598D01*
X11748755Y5892003D01*
X11772103Y5868655D01*
X11800698Y5852146D01*
X11832591Y5843600D01*
X11865609D01*
X11897502Y5852146D01*
X11926097Y5868655D01*
X11949445Y5892003D01*
X11965954Y5920598D01*
X11974500Y5952491D01*
Y5985509D01*
X11965954Y6017402D01*
X11949445Y6045997D01*
X11926097Y6069345D01*
X11897502Y6085854D01*
X11865609Y6094400D01*
D02*
G37*
G36*
X10820240Y5988050D02*
X10795160D01*
X10770935Y5981559D01*
X10749215Y5969019D01*
X10731481Y5951285D01*
X10718941Y5929565D01*
X10712450Y5905340D01*
Y5880260D01*
X10718941Y5856035D01*
X10731481Y5834315D01*
X10749215Y5816581D01*
X10770935Y5804041D01*
X10795160Y5797550D01*
X10820240D01*
X10844465Y5804041D01*
X10866185Y5816581D01*
X10883919Y5834315D01*
X10896459Y5856035D01*
X10902950Y5880260D01*
Y5905340D01*
X10896459Y5929565D01*
X10883919Y5951285D01*
X10866185Y5969019D01*
X10844465Y5981559D01*
X10820240Y5988050D01*
D02*
G37*
G36*
X8534240D02*
X8509160D01*
X8484935Y5981559D01*
X8463215Y5969019D01*
X8445481Y5951285D01*
X8432941Y5929565D01*
X8426450Y5905340D01*
Y5880260D01*
X8432941Y5856035D01*
X8445481Y5834315D01*
X8463215Y5816581D01*
X8484935Y5804041D01*
X8509160Y5797550D01*
X8534240D01*
X8558465Y5804041D01*
X8580185Y5816581D01*
X8597919Y5834315D01*
X8610459Y5856035D01*
X8616950Y5880260D01*
Y5905340D01*
X8610459Y5929565D01*
X8597919Y5951285D01*
X8580185Y5969019D01*
X8558465Y5981559D01*
X8534240Y5988050D01*
D02*
G37*
G36*
X10820240Y5734050D02*
X10795160D01*
X10770935Y5727559D01*
X10749215Y5715019D01*
X10731481Y5697285D01*
X10718941Y5675565D01*
X10712450Y5651340D01*
Y5626260D01*
X10718941Y5602035D01*
X10731481Y5580315D01*
X10749215Y5562581D01*
X10770935Y5550041D01*
X10795160Y5543550D01*
X10820240D01*
X10844465Y5550041D01*
X10866185Y5562581D01*
X10883919Y5580315D01*
X10896459Y5602035D01*
X10902950Y5626260D01*
Y5651340D01*
X10896459Y5675565D01*
X10883919Y5697285D01*
X10866185Y5715019D01*
X10844465Y5727559D01*
X10820240Y5734050D01*
D02*
G37*
G36*
X8534240D02*
X8509160D01*
X8484935Y5727559D01*
X8463215Y5715019D01*
X8445481Y5697285D01*
X8432941Y5675565D01*
X8426450Y5651340D01*
Y5626260D01*
X8432941Y5602035D01*
X8445481Y5580315D01*
X8463215Y5562581D01*
X8484935Y5550041D01*
X8509160Y5543550D01*
X8534240D01*
X8558465Y5550041D01*
X8580185Y5562581D01*
X8597919Y5580315D01*
X8610459Y5602035D01*
X8616950Y5626260D01*
Y5651340D01*
X8610459Y5675565D01*
X8597919Y5697285D01*
X8580185Y5715019D01*
X8558465Y5727559D01*
X8534240Y5734050D01*
D02*
G37*
G36*
X13830818Y5688400D02*
X13804382D01*
X13778847Y5681558D01*
X13755952Y5668340D01*
X13737260Y5649647D01*
X13724042Y5626753D01*
X13717200Y5601218D01*
Y5574782D01*
X13724042Y5549247D01*
X13737260Y5526353D01*
X13755952Y5507660D01*
X13778847Y5494442D01*
X13804382Y5487600D01*
X13830818D01*
X13856354Y5494442D01*
X13879247Y5507660D01*
X13897940Y5526353D01*
X13911159Y5549247D01*
X13917999Y5574782D01*
Y5601218D01*
X13911159Y5626753D01*
X13897940Y5649647D01*
X13879247Y5668340D01*
X13856354Y5681558D01*
X13830818Y5688400D01*
D02*
G37*
G36*
Y5434400D02*
X13830299D01*
Y5346700D01*
X13917999D01*
Y5347218D01*
X13911159Y5372753D01*
X13897940Y5395647D01*
X13879247Y5414340D01*
X13856354Y5427558D01*
X13830818Y5434400D01*
D02*
G37*
G36*
X13804900D02*
X13804382D01*
X13778847Y5427558D01*
X13755952Y5414340D01*
X13737260Y5395647D01*
X13724042Y5372753D01*
X13717200Y5347218D01*
Y5346700D01*
X13804900D01*
Y5434400D01*
D02*
G37*
G36*
X10820240Y5480050D02*
X10795160D01*
X10770935Y5473559D01*
X10749215Y5461019D01*
X10731481Y5443285D01*
X10718941Y5421565D01*
X10712450Y5397340D01*
Y5372260D01*
X10718941Y5348035D01*
X10731481Y5326315D01*
X10749215Y5308581D01*
X10770935Y5296041D01*
X10795160Y5289550D01*
X10820240D01*
X10844465Y5296041D01*
X10866185Y5308581D01*
X10883919Y5326315D01*
X10896459Y5348035D01*
X10902950Y5372260D01*
Y5397340D01*
X10896459Y5421565D01*
X10883919Y5443285D01*
X10866185Y5461019D01*
X10844465Y5473559D01*
X10820240Y5480050D01*
D02*
G37*
G36*
X8534240D02*
X8509160D01*
X8484935Y5473559D01*
X8463215Y5461019D01*
X8445481Y5443285D01*
X8432941Y5421565D01*
X8426450Y5397340D01*
Y5372260D01*
X8432941Y5348035D01*
X8445481Y5326315D01*
X8463215Y5308581D01*
X8484935Y5296041D01*
X8509160Y5289550D01*
X8534240D01*
X8558465Y5296041D01*
X8580185Y5308581D01*
X8597919Y5326315D01*
X8610459Y5348035D01*
X8616950Y5372260D01*
Y5397340D01*
X8610459Y5421565D01*
X8597919Y5443285D01*
X8580185Y5461019D01*
X8558465Y5473559D01*
X8534240Y5480050D01*
D02*
G37*
G36*
X13917999Y5321300D02*
X13830299D01*
Y5233600D01*
X13830818D01*
X13856354Y5240442D01*
X13879247Y5253660D01*
X13897940Y5272353D01*
X13911159Y5295247D01*
X13917999Y5320782D01*
Y5321300D01*
D02*
G37*
G36*
X13804900D02*
X13717200D01*
Y5320782D01*
X13724042Y5295247D01*
X13737260Y5272353D01*
X13755952Y5253660D01*
X13778847Y5240442D01*
X13804382Y5233600D01*
X13804900D01*
Y5321300D01*
D02*
G37*
G36*
X13830818Y5180400D02*
X13830299D01*
Y5092700D01*
X13917999D01*
Y5093218D01*
X13911159Y5118753D01*
X13897940Y5141647D01*
X13879247Y5160340D01*
X13856354Y5173558D01*
X13830818Y5180400D01*
D02*
G37*
G36*
X13804900D02*
X13804382D01*
X13778847Y5173558D01*
X13755952Y5160340D01*
X13737260Y5141647D01*
X13724042Y5118753D01*
X13717200Y5093218D01*
Y5092700D01*
X13804900D01*
Y5180400D01*
D02*
G37*
G36*
X10820240Y5226050D02*
X10795160D01*
X10770935Y5219559D01*
X10749215Y5207019D01*
X10731481Y5189285D01*
X10718941Y5167565D01*
X10712450Y5143340D01*
Y5118260D01*
X10718941Y5094035D01*
X10731481Y5072315D01*
X10749215Y5054581D01*
X10770935Y5042041D01*
X10795160Y5035550D01*
X10820240D01*
X10844465Y5042041D01*
X10866185Y5054581D01*
X10883919Y5072315D01*
X10896459Y5094035D01*
X10902950Y5118260D01*
Y5143340D01*
X10896459Y5167565D01*
X10883919Y5189285D01*
X10866185Y5207019D01*
X10844465Y5219559D01*
X10820240Y5226050D01*
D02*
G37*
G36*
X8534240D02*
X8509160D01*
X8484935Y5219559D01*
X8463215Y5207019D01*
X8445481Y5189285D01*
X8432941Y5167565D01*
X8426450Y5143340D01*
Y5118260D01*
X8432941Y5094035D01*
X8445481Y5072315D01*
X8463215Y5054581D01*
X8484935Y5042041D01*
X8509160Y5035550D01*
X8534240D01*
X8558465Y5042041D01*
X8580185Y5054581D01*
X8597919Y5072315D01*
X8610459Y5094035D01*
X8616950Y5118260D01*
Y5143340D01*
X8610459Y5167565D01*
X8597919Y5189285D01*
X8580185Y5207019D01*
X8558465Y5219559D01*
X8534240Y5226050D01*
D02*
G37*
G36*
X13917999Y5067300D02*
X13830299D01*
Y4979600D01*
X13830818D01*
X13856354Y4986442D01*
X13879247Y4999660D01*
X13897940Y5018353D01*
X13911159Y5041247D01*
X13917999Y5066782D01*
Y5067300D01*
D02*
G37*
G36*
X13804900D02*
X13717200D01*
Y5066782D01*
X13724042Y5041247D01*
X13737260Y5018353D01*
X13755952Y4999660D01*
X13778847Y4986442D01*
X13804382Y4979600D01*
X13804900D01*
Y5067300D01*
D02*
G37*
G36*
X12310109Y5180000D02*
X12277091D01*
X12245198Y5171454D01*
X12216603Y5154945D01*
X12193255Y5131597D01*
X12176746Y5103002D01*
X12168200Y5071109D01*
Y5038091D01*
X12176746Y5006198D01*
X12193255Y4977603D01*
X12216603Y4954255D01*
X12245198Y4937746D01*
X12277091Y4929200D01*
X12310109D01*
X12342002Y4937746D01*
X12370597Y4954255D01*
X12393945Y4977603D01*
X12410454Y5006198D01*
X12419000Y5038091D01*
Y5071109D01*
X12410454Y5103002D01*
X12393945Y5131597D01*
X12370597Y5154945D01*
X12342002Y5171454D01*
X12310109Y5180000D01*
D02*
G37*
G36*
X10820240Y4972050D02*
X10795160D01*
X10770935Y4965559D01*
X10749215Y4953019D01*
X10731481Y4935285D01*
X10718941Y4913565D01*
X10712450Y4889340D01*
Y4864260D01*
X10718941Y4840035D01*
X10731481Y4818315D01*
X10749215Y4800581D01*
X10770935Y4788041D01*
X10795160Y4781550D01*
X10820240D01*
X10844465Y4788041D01*
X10866185Y4800581D01*
X10883919Y4818315D01*
X10896459Y4840035D01*
X10902950Y4864260D01*
Y4889340D01*
X10896459Y4913565D01*
X10883919Y4935285D01*
X10866185Y4953019D01*
X10844465Y4965559D01*
X10820240Y4972050D01*
D02*
G37*
G36*
X8534240D02*
X8509160D01*
X8484935Y4965559D01*
X8463215Y4953019D01*
X8445481Y4935285D01*
X8432941Y4913565D01*
X8426450Y4889340D01*
Y4864260D01*
X8432941Y4840035D01*
X8445481Y4818315D01*
X8463215Y4800581D01*
X8484935Y4788041D01*
X8509160Y4781550D01*
X8534240D01*
X8558465Y4788041D01*
X8580185Y4800581D01*
X8597919Y4818315D01*
X8610459Y4840035D01*
X8616950Y4864260D01*
Y4889340D01*
X8610459Y4913565D01*
X8597919Y4935285D01*
X8580185Y4953019D01*
X8558465Y4965559D01*
X8534240Y4972050D01*
D02*
G37*
G36*
X13830818Y4926400D02*
X13804382D01*
X13778847Y4919558D01*
X13755952Y4906340D01*
X13737260Y4887647D01*
X13724042Y4864753D01*
X13717200Y4839218D01*
Y4812782D01*
X13724042Y4787247D01*
X13737260Y4764353D01*
X13755952Y4745660D01*
X13778847Y4732442D01*
X13804382Y4725600D01*
X13830818D01*
X13856354Y4732442D01*
X13879247Y4745660D01*
X13897940Y4764353D01*
X13911159Y4787247D01*
X13917999Y4812782D01*
Y4839218D01*
X13911159Y4864753D01*
X13897940Y4887647D01*
X13879247Y4906340D01*
X13856354Y4919558D01*
X13830818Y4926400D01*
D02*
G37*
G36*
Y4672400D02*
X13830299D01*
Y4584700D01*
X13917999D01*
Y4585218D01*
X13911159Y4610753D01*
X13897940Y4633647D01*
X13879247Y4652340D01*
X13856354Y4665558D01*
X13830818Y4672400D01*
D02*
G37*
G36*
X13804900D02*
X13804382D01*
X13778847Y4665558D01*
X13755952Y4652340D01*
X13737260Y4633647D01*
X13724042Y4610753D01*
X13717200Y4585218D01*
Y4584700D01*
X13804900D01*
Y4672400D01*
D02*
G37*
G36*
X12310109Y4835400D02*
X12277091D01*
X12245198Y4826854D01*
X12216603Y4810345D01*
X12193255Y4786997D01*
X12176746Y4758402D01*
X12168200Y4726509D01*
Y4693491D01*
X12176746Y4661597D01*
X12193255Y4633003D01*
X12216603Y4609655D01*
X12245198Y4593146D01*
X12277091Y4584600D01*
X12310109D01*
X12342002Y4593146D01*
X12370597Y4609655D01*
X12393945Y4633003D01*
X12410454Y4661597D01*
X12419000Y4693491D01*
Y4726509D01*
X12410454Y4758402D01*
X12393945Y4786997D01*
X12370597Y4810345D01*
X12342002Y4826854D01*
X12310109Y4835400D01*
D02*
G37*
G36*
X7505569Y4787851D02*
X6997700D01*
Y4533900D01*
X7505569D01*
Y4787851D01*
D02*
G37*
G36*
X10820240Y4718050D02*
X10795160D01*
X10770935Y4711559D01*
X10749215Y4699019D01*
X10731481Y4681285D01*
X10718941Y4659565D01*
X10712450Y4635340D01*
Y4610260D01*
X10718941Y4586035D01*
X10731481Y4564315D01*
X10749215Y4546581D01*
X10770935Y4534041D01*
X10795160Y4527550D01*
X10820240D01*
X10844465Y4534041D01*
X10866185Y4546581D01*
X10883919Y4564315D01*
X10896459Y4586035D01*
X10902950Y4610260D01*
Y4635340D01*
X10896459Y4659565D01*
X10883919Y4681285D01*
X10866185Y4699019D01*
X10844465Y4711559D01*
X10820240Y4718050D01*
D02*
G37*
G36*
X8534240D02*
X8509160D01*
X8484935Y4711559D01*
X8463215Y4699019D01*
X8445481Y4681285D01*
X8432941Y4659565D01*
X8426450Y4635340D01*
Y4610260D01*
X8432941Y4586035D01*
X8445481Y4564315D01*
X8463215Y4546581D01*
X8484935Y4534041D01*
X8509160Y4527550D01*
X8534240D01*
X8558465Y4534041D01*
X8580185Y4546581D01*
X8597919Y4564315D01*
X8610459Y4586035D01*
X8616950Y4610260D01*
Y4635340D01*
X8610459Y4659565D01*
X8597919Y4681285D01*
X8580185Y4699019D01*
X8558465Y4711559D01*
X8534240Y4718050D01*
D02*
G37*
G36*
X13917999Y4559300D02*
X13830299D01*
Y4471600D01*
X13830818D01*
X13856354Y4478442D01*
X13879247Y4491660D01*
X13897940Y4510353D01*
X13911159Y4533247D01*
X13917999Y4558782D01*
Y4559300D01*
D02*
G37*
G36*
X13804900D02*
X13717200D01*
Y4558782D01*
X13724042Y4533247D01*
X13737260Y4510353D01*
X13755952Y4491660D01*
X13778847Y4478442D01*
X13804382Y4471600D01*
X13804900D01*
Y4559300D01*
D02*
G37*
G36*
X13830818Y4418400D02*
X13830299D01*
Y4330700D01*
X13917999D01*
Y4331218D01*
X13911159Y4356753D01*
X13897940Y4379647D01*
X13879247Y4398340D01*
X13856354Y4411558D01*
X13830818Y4418400D01*
D02*
G37*
G36*
X13804900D02*
X13804382D01*
X13778847Y4411558D01*
X13755952Y4398340D01*
X13737260Y4379647D01*
X13724042Y4356753D01*
X13717200Y4331218D01*
Y4330700D01*
X13804900D01*
Y4418400D01*
D02*
G37*
G36*
X10820240Y4464050D02*
X10795160D01*
X10770935Y4457559D01*
X10749215Y4445019D01*
X10731481Y4427285D01*
X10718941Y4405565D01*
X10712450Y4381340D01*
Y4356260D01*
X10718941Y4332035D01*
X10731481Y4310315D01*
X10749215Y4292581D01*
X10770935Y4280041D01*
X10795160Y4273550D01*
X10820240D01*
X10844465Y4280041D01*
X10866185Y4292581D01*
X10883919Y4310315D01*
X10896459Y4332035D01*
X10902950Y4356260D01*
Y4381340D01*
X10896459Y4405565D01*
X10883919Y4427285D01*
X10866185Y4445019D01*
X10844465Y4457559D01*
X10820240Y4464050D01*
D02*
G37*
G36*
X8534240D02*
X8509160D01*
X8484935Y4457559D01*
X8463215Y4445019D01*
X8445481Y4427285D01*
X8432941Y4405565D01*
X8426450Y4381340D01*
Y4356260D01*
X8432941Y4332035D01*
X8445481Y4310315D01*
X8463215Y4292581D01*
X8484935Y4280041D01*
X8509160Y4273550D01*
X8534240D01*
X8558465Y4280041D01*
X8580185Y4292581D01*
X8597919Y4310315D01*
X8610459Y4332035D01*
X8616950Y4356260D01*
Y4381340D01*
X8610459Y4405565D01*
X8597919Y4427285D01*
X8580185Y4445019D01*
X8558465Y4457559D01*
X8534240Y4464050D01*
D02*
G37*
G36*
X13917999Y4305300D02*
X13830299D01*
Y4217600D01*
X13830818D01*
X13856354Y4224442D01*
X13879247Y4237660D01*
X13897940Y4256353D01*
X13911159Y4279247D01*
X13917999Y4304782D01*
Y4305300D01*
D02*
G37*
G36*
X13804900D02*
X13717200D01*
Y4304782D01*
X13724042Y4279247D01*
X13737260Y4256353D01*
X13755952Y4237660D01*
X13778847Y4224442D01*
X13804382Y4217600D01*
X13804900D01*
Y4305300D01*
D02*
G37*
G36*
X10820240Y4210050D02*
X10795160D01*
X10770935Y4203559D01*
X10749215Y4191019D01*
X10731481Y4173285D01*
X10718941Y4151565D01*
X10712450Y4127340D01*
Y4102260D01*
X10718941Y4078035D01*
X10731481Y4056315D01*
X10749215Y4038581D01*
X10770935Y4026041D01*
X10795160Y4019550D01*
X10820240D01*
X10844465Y4026041D01*
X10866185Y4038581D01*
X10883919Y4056315D01*
X10896459Y4078035D01*
X10902950Y4102260D01*
Y4127340D01*
X10896459Y4151565D01*
X10883919Y4173285D01*
X10866185Y4191019D01*
X10844465Y4203559D01*
X10820240Y4210050D01*
D02*
G37*
G36*
X8534240D02*
X8509160D01*
X8484935Y4203559D01*
X8463215Y4191019D01*
X8445481Y4173285D01*
X8432941Y4151565D01*
X8426450Y4127340D01*
Y4102260D01*
X8432941Y4078035D01*
X8445481Y4056315D01*
X8463215Y4038581D01*
X8484935Y4026041D01*
X8509160Y4019550D01*
X8534240D01*
X8558465Y4026041D01*
X8580185Y4038581D01*
X8597919Y4056315D01*
X8610459Y4078035D01*
X8616950Y4102260D01*
Y4127340D01*
X8610459Y4151565D01*
X8597919Y4173285D01*
X8580185Y4191019D01*
X8558465Y4203559D01*
X8534240Y4210050D01*
D02*
G37*
G36*
X7308800Y4197300D02*
X7093000D01*
Y3981500D01*
X7308800D01*
Y4197300D01*
D02*
G37*
G36*
X13830818Y4164400D02*
X13804382D01*
X13778847Y4157558D01*
X13755952Y4144340D01*
X13737260Y4125647D01*
X13724042Y4102753D01*
X13717200Y4077218D01*
Y4050782D01*
X13724042Y4025247D01*
X13737260Y4002353D01*
X13755952Y3983660D01*
X13778847Y3970442D01*
X13804382Y3963600D01*
X13830818D01*
X13856354Y3970442D01*
X13879247Y3983660D01*
X13897940Y4002353D01*
X13911159Y4025247D01*
X13917999Y4050782D01*
Y4077218D01*
X13911159Y4102753D01*
X13897940Y4125647D01*
X13879247Y4144340D01*
X13856354Y4157558D01*
X13830818Y4164400D01*
D02*
G37*
G36*
X10820240Y3956050D02*
X10795160D01*
X10770935Y3949559D01*
X10749215Y3937019D01*
X10731481Y3919285D01*
X10718941Y3897565D01*
X10712450Y3873340D01*
Y3848260D01*
X10718941Y3824035D01*
X10731481Y3802315D01*
X10749215Y3784581D01*
X10770935Y3772041D01*
X10795160Y3765550D01*
X10820240D01*
X10844465Y3772041D01*
X10866185Y3784581D01*
X10883919Y3802315D01*
X10896459Y3824035D01*
X10902950Y3848260D01*
Y3873340D01*
X10896459Y3897565D01*
X10883919Y3919285D01*
X10866185Y3937019D01*
X10844465Y3949559D01*
X10820240Y3956050D01*
D02*
G37*
G36*
X8534240D02*
X8509160D01*
X8484935Y3949559D01*
X8463215Y3937019D01*
X8445481Y3919285D01*
X8432941Y3897565D01*
X8426450Y3873340D01*
Y3848260D01*
X8432941Y3824035D01*
X8445481Y3802315D01*
X8463215Y3784581D01*
X8484935Y3772041D01*
X8509160Y3765550D01*
X8534240D01*
X8558465Y3772041D01*
X8580185Y3784581D01*
X8597919Y3802315D01*
X8610459Y3824035D01*
X8616950Y3848260D01*
Y3873340D01*
X8610459Y3897565D01*
X8597919Y3919285D01*
X8580185Y3937019D01*
X8558465Y3949559D01*
X8534240Y3956050D01*
D02*
G37*
G36*
X11891009Y3924400D02*
X11857991D01*
X11826098Y3915854D01*
X11797503Y3899345D01*
X11774155Y3875997D01*
X11757646Y3847403D01*
X11749100Y3815509D01*
Y3782491D01*
X11757646Y3750598D01*
X11774155Y3722003D01*
X11797503Y3698655D01*
X11826098Y3682146D01*
X11857991Y3673600D01*
X11891009D01*
X11922902Y3682146D01*
X11951497Y3698655D01*
X11974845Y3722003D01*
X11991354Y3750598D01*
X11999900Y3782491D01*
Y3815509D01*
X11991354Y3847403D01*
X11974845Y3875997D01*
X11951497Y3899345D01*
X11922902Y3915854D01*
X11891009Y3924400D01*
D02*
G37*
G36*
X7215105Y3689300D02*
X7213600D01*
Y3594100D01*
X7308800D01*
Y3595605D01*
X7301447Y3623048D01*
X7287241Y3647652D01*
X7267152Y3667741D01*
X7242548Y3681947D01*
X7215105Y3689300D01*
D02*
G37*
G36*
X7188200D02*
X7186695D01*
X7159252Y3681947D01*
X7134648Y3667741D01*
X7114559Y3647652D01*
X7100353Y3623048D01*
X7093000Y3595605D01*
Y3594100D01*
X7188200D01*
Y3689300D01*
D02*
G37*
G36*
X10820240Y3702050D02*
X10795160D01*
X10770935Y3695559D01*
X10749215Y3683019D01*
X10731481Y3665285D01*
X10718941Y3643565D01*
X10712450Y3619340D01*
Y3594260D01*
X10718941Y3570035D01*
X10731481Y3548315D01*
X10749215Y3530581D01*
X10770935Y3518041D01*
X10795160Y3511550D01*
X10820240D01*
X10844465Y3518041D01*
X10866185Y3530581D01*
X10883919Y3548315D01*
X10896459Y3570035D01*
X10902950Y3594260D01*
Y3619340D01*
X10896459Y3643565D01*
X10883919Y3665285D01*
X10866185Y3683019D01*
X10844465Y3695559D01*
X10820240Y3702050D01*
D02*
G37*
G36*
X8534240D02*
X8509160D01*
X8484935Y3695559D01*
X8463215Y3683019D01*
X8445481Y3665285D01*
X8432941Y3643565D01*
X8426450Y3619340D01*
Y3594260D01*
X8432941Y3570035D01*
X8445481Y3548315D01*
X8463215Y3530581D01*
X8484935Y3518041D01*
X8509160Y3511550D01*
X8534240D01*
X8558465Y3518041D01*
X8580185Y3530581D01*
X8597919Y3548315D01*
X8610459Y3570035D01*
X8616950Y3594260D01*
Y3619340D01*
X8610459Y3643565D01*
X8597919Y3665285D01*
X8580185Y3683019D01*
X8558465Y3695559D01*
X8534240Y3702050D01*
D02*
G37*
G36*
X7308800Y3568700D02*
X7213600D01*
Y3473500D01*
X7215105D01*
X7242548Y3480853D01*
X7267152Y3495059D01*
X7287241Y3515148D01*
X7301447Y3539752D01*
X7308800Y3567195D01*
Y3568700D01*
D02*
G37*
G36*
X7188200D02*
X7093000D01*
Y3567195D01*
X7100353Y3539752D01*
X7114559Y3515148D01*
X7134648Y3495059D01*
X7159252Y3480853D01*
X7186695Y3473500D01*
X7188200D01*
Y3568700D01*
D02*
G37*
G36*
X8534400Y3448007D02*
Y3365500D01*
X8616907D01*
X8610459Y3389565D01*
X8597919Y3411285D01*
X8580185Y3429019D01*
X8558465Y3441559D01*
X8534400Y3448007D01*
D02*
G37*
G36*
X8154576Y8792200D02*
X8126824D01*
X8100017Y8785017D01*
X8075983Y8771141D01*
X8056359Y8751517D01*
X8042483Y8727483D01*
X8035300Y8700676D01*
Y8672924D01*
X8042483Y8646117D01*
X8056359Y8622083D01*
X8075983Y8602459D01*
X8100017Y8588583D01*
X8110844Y8585682D01*
Y8533918D01*
X8100017Y8531017D01*
X8075983Y8517141D01*
X8056359Y8497517D01*
X8042483Y8473483D01*
X8035300Y8446676D01*
Y8418924D01*
X8042483Y8392117D01*
X8056359Y8368083D01*
X8075983Y8348459D01*
X8100017Y8334583D01*
X8110844Y8331682D01*
Y8279918D01*
X8100017Y8277017D01*
X8075983Y8263141D01*
X8056359Y8243517D01*
X8042483Y8219483D01*
X8035300Y8192676D01*
Y8164924D01*
X8042483Y8138117D01*
X8056359Y8114083D01*
X8075983Y8094459D01*
X8100017Y8080583D01*
X8110844Y8077682D01*
Y8025918D01*
X8100017Y8023017D01*
X8075983Y8009141D01*
X8056359Y7989517D01*
X8042483Y7965483D01*
X8035300Y7938676D01*
Y7910924D01*
X8042483Y7884117D01*
X8056359Y7860083D01*
X8075983Y7840459D01*
X8100017Y7826583D01*
X8110844Y7823682D01*
Y7771918D01*
X8100017Y7769017D01*
X8075983Y7755141D01*
X8056359Y7735517D01*
X8042483Y7711483D01*
X8035300Y7684676D01*
Y7656924D01*
X8042483Y7630117D01*
X8056359Y7606083D01*
X8075983Y7586459D01*
X8100017Y7572583D01*
X8110844Y7569682D01*
Y7517918D01*
X8100017Y7515017D01*
X8075983Y7501141D01*
X8056359Y7481517D01*
X8042483Y7457483D01*
X8035300Y7430676D01*
Y7402924D01*
X8042483Y7376117D01*
X8056359Y7352083D01*
X8075983Y7332459D01*
X8100017Y7318583D01*
X8110844Y7315682D01*
Y7263918D01*
X8100017Y7261017D01*
X8075983Y7247141D01*
X8056359Y7227517D01*
X8042483Y7203483D01*
X8035300Y7176676D01*
Y7148924D01*
X8042483Y7122117D01*
X8056359Y7098083D01*
X8075983Y7078459D01*
X8100017Y7064583D01*
X8110844Y7061682D01*
Y7009918D01*
X8100017Y7007017D01*
X8075983Y6993141D01*
X8056359Y6973517D01*
X8042483Y6949483D01*
X8035300Y6922676D01*
Y6894924D01*
X8042483Y6868117D01*
X8056359Y6844083D01*
X8075983Y6824459D01*
X8100017Y6810583D01*
X8110844Y6807682D01*
Y6755918D01*
X8100017Y6753017D01*
X8075983Y6739141D01*
X8056359Y6719517D01*
X8042483Y6695483D01*
X8035300Y6668676D01*
Y6640924D01*
X8042483Y6614117D01*
X8056359Y6590083D01*
X8075983Y6570459D01*
X8100017Y6556583D01*
X8110844Y6553682D01*
Y6501918D01*
X8100017Y6499017D01*
X8075983Y6485141D01*
X8056359Y6465517D01*
X8042483Y6441483D01*
X8035300Y6414676D01*
Y6386924D01*
X8042483Y6360117D01*
X8056359Y6336083D01*
X8075983Y6316459D01*
X8100017Y6302583D01*
X8110844Y6299682D01*
Y6247918D01*
X8100017Y6245017D01*
X8075983Y6231141D01*
X8056359Y6211517D01*
X8042483Y6187483D01*
X8035300Y6160676D01*
Y6132924D01*
X8042483Y6106117D01*
X8056359Y6082083D01*
X8075983Y6062459D01*
X8100017Y6048583D01*
X8110844Y6045682D01*
Y5993918D01*
X8100017Y5991017D01*
X8075983Y5977141D01*
X8056359Y5957517D01*
X8042483Y5933483D01*
X8035300Y5906676D01*
Y5878924D01*
X8042483Y5852117D01*
X8056359Y5828083D01*
X8075983Y5808459D01*
X8100017Y5794583D01*
X8110844Y5791682D01*
Y5739918D01*
X8100017Y5737017D01*
X8075983Y5723141D01*
X8056359Y5703517D01*
X8042483Y5679483D01*
X8035300Y5652676D01*
Y5624924D01*
X8042483Y5598117D01*
X8056359Y5574083D01*
X8075983Y5554459D01*
X8100017Y5540583D01*
X8110844Y5537682D01*
Y5485918D01*
X8100017Y5483017D01*
X8075983Y5469141D01*
X8056359Y5449517D01*
X8042483Y5425483D01*
X8035300Y5398676D01*
Y5370924D01*
X8042483Y5344117D01*
X8056359Y5320083D01*
X8075983Y5300459D01*
X8100017Y5286583D01*
X8110844Y5283682D01*
Y5231918D01*
X8100017Y5229017D01*
X8075983Y5215141D01*
X8056359Y5195517D01*
X8042483Y5171483D01*
X8035300Y5144676D01*
Y5116924D01*
X8042483Y5090117D01*
X8056359Y5066083D01*
X8075983Y5046459D01*
X8100017Y5032583D01*
X8110844Y5029682D01*
Y4977918D01*
X8100017Y4975017D01*
X8075983Y4961141D01*
X8056359Y4941517D01*
X8042483Y4917483D01*
X8035300Y4890676D01*
Y4862924D01*
X8042483Y4836117D01*
X8056359Y4812083D01*
X8075983Y4792459D01*
X8100017Y4778583D01*
X8110844Y4775682D01*
Y4723918D01*
X8100017Y4721017D01*
X8075983Y4707141D01*
X8056359Y4687517D01*
X8042483Y4663483D01*
X8035300Y4636676D01*
Y4608924D01*
X8042483Y4582117D01*
X8056359Y4558083D01*
X8075983Y4538459D01*
X8100017Y4524583D01*
X8110844Y4521682D01*
Y4469918D01*
X8100017Y4467017D01*
X8075983Y4453141D01*
X8056359Y4433517D01*
X8042483Y4409483D01*
X8035300Y4382676D01*
Y4354924D01*
X8042483Y4328117D01*
X8056359Y4304083D01*
X8075983Y4284459D01*
X8100017Y4270583D01*
X8110844Y4267682D01*
Y4215918D01*
X8100017Y4213017D01*
X8075983Y4199141D01*
X8056359Y4179517D01*
X8042483Y4155483D01*
X8035300Y4128676D01*
Y4100924D01*
X8042483Y4074117D01*
X8056359Y4050083D01*
X8075983Y4030459D01*
X8100017Y4016583D01*
X8110844Y4013682D01*
Y3961918D01*
X8100017Y3959017D01*
X8075983Y3945141D01*
X8056359Y3925517D01*
X8042483Y3901483D01*
X8035300Y3874676D01*
Y3846924D01*
X8042483Y3820117D01*
X8056359Y3796083D01*
X8075983Y3776459D01*
X8100017Y3762583D01*
X8110844Y3759682D01*
Y3707918D01*
X8100017Y3705017D01*
X8075983Y3691141D01*
X8056359Y3671517D01*
X8042483Y3647483D01*
X8035300Y3620676D01*
Y3592924D01*
X8042483Y3566117D01*
X8056359Y3542083D01*
X8075983Y3522459D01*
X8100017Y3508583D01*
X8110844Y3505682D01*
Y3453918D01*
X8100017Y3451017D01*
X8075983Y3437141D01*
X8056359Y3417517D01*
X8042483Y3393483D01*
X8035300Y3366676D01*
Y3365500D01*
X8140700D01*
X8246100D01*
Y3366676D01*
X8238917Y3393483D01*
X8225041Y3417517D01*
X8205417Y3437141D01*
X8181383Y3451017D01*
X8170556Y3453918D01*
Y3505682D01*
X8181383Y3508583D01*
X8205417Y3522459D01*
X8225041Y3542083D01*
X8238917Y3566117D01*
X8246100Y3592924D01*
Y3620676D01*
X8238917Y3647483D01*
X8225041Y3671517D01*
X8205417Y3691141D01*
X8181383Y3705017D01*
X8170556Y3707918D01*
Y3759682D01*
X8181383Y3762583D01*
X8205417Y3776459D01*
X8225041Y3796083D01*
X8238917Y3820117D01*
X8246100Y3846924D01*
Y3874676D01*
X8238917Y3901483D01*
X8225041Y3925517D01*
X8205417Y3945141D01*
X8181383Y3959017D01*
X8170556Y3961918D01*
Y4013682D01*
X8181383Y4016583D01*
X8205417Y4030459D01*
X8225041Y4050083D01*
X8238917Y4074117D01*
X8246100Y4100924D01*
Y4128676D01*
X8238917Y4155483D01*
X8225041Y4179517D01*
X8205417Y4199141D01*
X8181383Y4213017D01*
X8170556Y4215918D01*
Y4267682D01*
X8181383Y4270583D01*
X8205417Y4284459D01*
X8225041Y4304083D01*
X8238917Y4328117D01*
X8246100Y4354924D01*
Y4382676D01*
X8238917Y4409483D01*
X8225041Y4433517D01*
X8205417Y4453141D01*
X8181383Y4467017D01*
X8170556Y4469918D01*
Y4521682D01*
X8181383Y4524583D01*
X8205417Y4538459D01*
X8225041Y4558083D01*
X8238917Y4582117D01*
X8246100Y4608924D01*
Y4636676D01*
X8238917Y4663483D01*
X8225041Y4687517D01*
X8205417Y4707141D01*
X8181383Y4721017D01*
X8170556Y4723918D01*
Y4775682D01*
X8181383Y4778583D01*
X8205417Y4792459D01*
X8225041Y4812083D01*
X8238917Y4836117D01*
X8246100Y4862924D01*
Y4890676D01*
X8238917Y4917483D01*
X8225041Y4941517D01*
X8205417Y4961141D01*
X8181383Y4975017D01*
X8170556Y4977918D01*
Y5029682D01*
X8181383Y5032583D01*
X8205417Y5046459D01*
X8225041Y5066083D01*
X8238917Y5090117D01*
X8246100Y5116924D01*
Y5144676D01*
X8238917Y5171483D01*
X8225041Y5195517D01*
X8205417Y5215141D01*
X8181383Y5229017D01*
X8170556Y5231918D01*
Y5283682D01*
X8181383Y5286583D01*
X8205417Y5300459D01*
X8225041Y5320083D01*
X8238917Y5344117D01*
X8246100Y5370924D01*
Y5398676D01*
X8238917Y5425483D01*
X8225041Y5449517D01*
X8205417Y5469141D01*
X8181383Y5483017D01*
X8170556Y5485918D01*
Y5537682D01*
X8181383Y5540583D01*
X8205417Y5554459D01*
X8225041Y5574083D01*
X8238917Y5598117D01*
X8246100Y5624924D01*
Y5652676D01*
X8238917Y5679483D01*
X8225041Y5703517D01*
X8205417Y5723141D01*
X8181383Y5737017D01*
X8170556Y5739918D01*
Y5791682D01*
X8181383Y5794583D01*
X8205417Y5808459D01*
X8225041Y5828083D01*
X8238917Y5852117D01*
X8246100Y5878924D01*
Y5906676D01*
X8238917Y5933483D01*
X8225041Y5957517D01*
X8205417Y5977141D01*
X8181383Y5991017D01*
X8170556Y5993918D01*
Y6045682D01*
X8181383Y6048583D01*
X8205417Y6062459D01*
X8225041Y6082083D01*
X8238917Y6106117D01*
X8246100Y6132924D01*
Y6160676D01*
X8238917Y6187483D01*
X8225041Y6211517D01*
X8205417Y6231141D01*
X8181383Y6245017D01*
X8170556Y6247918D01*
Y6299682D01*
X8181383Y6302583D01*
X8205417Y6316459D01*
X8225041Y6336083D01*
X8238917Y6360117D01*
X8246100Y6386924D01*
Y6414676D01*
X8238917Y6441483D01*
X8225041Y6465517D01*
X8205417Y6485141D01*
X8181383Y6499017D01*
X8170556Y6501918D01*
Y6553682D01*
X8181383Y6556583D01*
X8205417Y6570459D01*
X8225041Y6590083D01*
X8238917Y6614117D01*
X8246100Y6640924D01*
Y6668676D01*
X8238917Y6695483D01*
X8225041Y6719517D01*
X8205417Y6739141D01*
X8181383Y6753017D01*
X8170556Y6755918D01*
Y6807682D01*
X8181383Y6810583D01*
X8205417Y6824459D01*
X8225041Y6844083D01*
X8238917Y6868117D01*
X8246100Y6894924D01*
Y6922676D01*
X8238917Y6949483D01*
X8225041Y6973517D01*
X8205417Y6993141D01*
X8181383Y7007017D01*
X8170556Y7009918D01*
Y7061682D01*
X8181383Y7064583D01*
X8205417Y7078459D01*
X8225041Y7098083D01*
X8238917Y7122117D01*
X8246100Y7148924D01*
Y7176676D01*
X8238917Y7203483D01*
X8225041Y7227517D01*
X8205417Y7247141D01*
X8181383Y7261017D01*
X8170556Y7263918D01*
Y7315682D01*
X8181383Y7318583D01*
X8205417Y7332459D01*
X8225041Y7352083D01*
X8238917Y7376117D01*
X8246100Y7402924D01*
Y7430676D01*
X8238917Y7457483D01*
X8225041Y7481517D01*
X8205417Y7501141D01*
X8181383Y7515017D01*
X8170556Y7517918D01*
Y7569682D01*
X8181383Y7572583D01*
X8205417Y7586459D01*
X8225041Y7606083D01*
X8238917Y7630117D01*
X8246100Y7656924D01*
Y7684676D01*
X8238917Y7711483D01*
X8225041Y7735517D01*
X8205417Y7755141D01*
X8181383Y7769017D01*
X8170556Y7771918D01*
Y7823682D01*
X8181383Y7826583D01*
X8205417Y7840459D01*
X8225041Y7860083D01*
X8238917Y7884117D01*
X8246100Y7910924D01*
Y7938676D01*
X8238917Y7965483D01*
X8225041Y7989517D01*
X8205417Y8009141D01*
X8181383Y8023017D01*
X8170556Y8025918D01*
Y8077682D01*
X8181383Y8080583D01*
X8205417Y8094459D01*
X8225041Y8114083D01*
X8238917Y8138117D01*
X8246100Y8164924D01*
Y8192676D01*
X8238917Y8219483D01*
X8225041Y8243517D01*
X8205417Y8263141D01*
X8181383Y8277017D01*
X8170556Y8279918D01*
Y8331682D01*
X8181383Y8334583D01*
X8205417Y8348459D01*
X8225041Y8368083D01*
X8238917Y8392117D01*
X8246100Y8418924D01*
Y8446676D01*
X8238917Y8473483D01*
X8225041Y8497517D01*
X8205417Y8517141D01*
X8181383Y8531017D01*
X8170556Y8533918D01*
Y8585682D01*
X8181383Y8588583D01*
X8205417Y8602459D01*
X8225041Y8622083D01*
X8238917Y8646117D01*
X8246100Y8672924D01*
Y8700676D01*
X8238917Y8727483D01*
X8225041Y8751517D01*
X8205417Y8771141D01*
X8181383Y8785017D01*
X8154576Y8792200D01*
D02*
G37*
G36*
X8509000Y3448007D02*
X8484935Y3441559D01*
X8463215Y3429019D01*
X8445481Y3411285D01*
X8432941Y3389565D01*
X8426493Y3365500D01*
X8509000D01*
Y3448007D01*
D02*
G37*
G36*
X8616907Y3340100D02*
X8534400D01*
Y3257593D01*
X8558465Y3264041D01*
X8580185Y3276581D01*
X8597919Y3294315D01*
X8610459Y3316035D01*
X8616907Y3340100D01*
D02*
G37*
G36*
X8509000D02*
X8426493D01*
X8432941Y3316035D01*
X8445481Y3294315D01*
X8463215Y3276581D01*
X8484935Y3264041D01*
X8509000Y3257593D01*
Y3340100D01*
D02*
G37*
G36*
X10902950Y3448050D02*
X10712450D01*
Y3257550D01*
X10902950D01*
Y3448050D01*
D02*
G37*
G36*
X11281400Y8674100D02*
X11176000D01*
X11070600D01*
Y8672924D01*
X11077783Y8646117D01*
X11091659Y8622083D01*
X11111283Y8602459D01*
X11135317Y8588583D01*
X11146144Y8585682D01*
Y8533918D01*
X11135317Y8531017D01*
X11111283Y8517141D01*
X11091659Y8497517D01*
X11077783Y8473483D01*
X11070600Y8446676D01*
Y8418924D01*
X11077783Y8392117D01*
X11091659Y8368083D01*
X11111283Y8348459D01*
X11135317Y8334583D01*
X11146144Y8331682D01*
Y8279918D01*
X11135317Y8277017D01*
X11111283Y8263141D01*
X11091659Y8243517D01*
X11077783Y8219483D01*
X11070600Y8192676D01*
Y8164924D01*
X11077783Y8138117D01*
X11091659Y8114083D01*
X11111283Y8094459D01*
X11135317Y8080583D01*
X11146144Y8077682D01*
Y8025918D01*
X11135317Y8023017D01*
X11111283Y8009141D01*
X11091659Y7989517D01*
X11077783Y7965483D01*
X11070600Y7938676D01*
Y7910924D01*
X11077783Y7884117D01*
X11091659Y7860083D01*
X11111283Y7840459D01*
X11135317Y7826583D01*
X11146144Y7823682D01*
Y7771918D01*
X11135317Y7769017D01*
X11111283Y7755141D01*
X11091659Y7735517D01*
X11077783Y7711483D01*
X11070600Y7684676D01*
Y7656924D01*
X11077783Y7630117D01*
X11091659Y7606083D01*
X11111283Y7586459D01*
X11135317Y7572583D01*
X11146144Y7569682D01*
Y7517918D01*
X11135317Y7515017D01*
X11111283Y7501141D01*
X11091659Y7481517D01*
X11077783Y7457483D01*
X11070600Y7430676D01*
Y7402924D01*
X11077783Y7376117D01*
X11091659Y7352083D01*
X11111283Y7332459D01*
X11135317Y7318583D01*
X11146144Y7315682D01*
Y7263918D01*
X11135317Y7261017D01*
X11111283Y7247141D01*
X11091659Y7227517D01*
X11077783Y7203483D01*
X11070600Y7176676D01*
Y7148924D01*
X11077783Y7122117D01*
X11091659Y7098083D01*
X11111283Y7078459D01*
X11135317Y7064583D01*
X11146144Y7061682D01*
Y7009918D01*
X11135317Y7007017D01*
X11111283Y6993141D01*
X11091659Y6973517D01*
X11077783Y6949483D01*
X11070600Y6922676D01*
Y6894924D01*
X11077783Y6868117D01*
X11091659Y6844083D01*
X11111283Y6824459D01*
X11135317Y6810583D01*
X11146144Y6807682D01*
Y6755918D01*
X11135317Y6753017D01*
X11111283Y6739141D01*
X11091659Y6719517D01*
X11077783Y6695483D01*
X11070600Y6668676D01*
Y6640924D01*
X11077783Y6614117D01*
X11091659Y6590083D01*
X11111283Y6570459D01*
X11135317Y6556583D01*
X11146144Y6553682D01*
Y6501918D01*
X11135317Y6499017D01*
X11111283Y6485141D01*
X11091659Y6465517D01*
X11077783Y6441483D01*
X11070600Y6414676D01*
Y6386924D01*
X11077783Y6360117D01*
X11091659Y6336083D01*
X11111283Y6316459D01*
X11135317Y6302583D01*
X11146144Y6299682D01*
Y6247918D01*
X11135317Y6245017D01*
X11111283Y6231141D01*
X11091659Y6211517D01*
X11077783Y6187483D01*
X11070600Y6160676D01*
Y6132924D01*
X11077783Y6106117D01*
X11091659Y6082083D01*
X11111283Y6062459D01*
X11135317Y6048583D01*
X11146144Y6045682D01*
Y5993918D01*
X11135317Y5991017D01*
X11111283Y5977141D01*
X11091659Y5957517D01*
X11077783Y5933483D01*
X11070600Y5906676D01*
Y5878924D01*
X11077783Y5852117D01*
X11091659Y5828083D01*
X11111283Y5808459D01*
X11135317Y5794583D01*
X11146144Y5791682D01*
Y5739918D01*
X11135317Y5737017D01*
X11111283Y5723141D01*
X11091659Y5703517D01*
X11077783Y5679483D01*
X11070600Y5652676D01*
Y5624924D01*
X11077783Y5598117D01*
X11091659Y5574083D01*
X11111283Y5554459D01*
X11135317Y5540583D01*
X11146144Y5537682D01*
Y5485918D01*
X11135317Y5483017D01*
X11111283Y5469141D01*
X11091659Y5449517D01*
X11077783Y5425483D01*
X11070600Y5398676D01*
Y5370924D01*
X11077783Y5344117D01*
X11091659Y5320083D01*
X11111283Y5300459D01*
X11135317Y5286583D01*
X11146144Y5283682D01*
Y5231918D01*
X11135317Y5229017D01*
X11111283Y5215141D01*
X11091659Y5195517D01*
X11077783Y5171483D01*
X11070600Y5144676D01*
Y5116924D01*
X11077783Y5090117D01*
X11091659Y5066083D01*
X11111283Y5046459D01*
X11135317Y5032583D01*
X11146144Y5029682D01*
Y4977918D01*
X11135317Y4975017D01*
X11111283Y4961141D01*
X11091659Y4941517D01*
X11077783Y4917483D01*
X11070600Y4890676D01*
Y4862924D01*
X11077783Y4836117D01*
X11091659Y4812083D01*
X11111283Y4792459D01*
X11135317Y4778583D01*
X11146144Y4775682D01*
Y4723918D01*
X11135317Y4721017D01*
X11111283Y4707141D01*
X11091659Y4687517D01*
X11077783Y4663483D01*
X11070600Y4636676D01*
Y4608924D01*
X11077783Y4582117D01*
X11091659Y4558083D01*
X11111283Y4538459D01*
X11135317Y4524583D01*
X11146144Y4521682D01*
Y4469918D01*
X11135317Y4467017D01*
X11111283Y4453141D01*
X11091659Y4433517D01*
X11077783Y4409483D01*
X11070600Y4382676D01*
Y4354924D01*
X11077783Y4328117D01*
X11091659Y4304083D01*
X11111283Y4284459D01*
X11135317Y4270583D01*
X11146144Y4267682D01*
Y4215918D01*
X11135317Y4213017D01*
X11111283Y4199141D01*
X11091659Y4179517D01*
X11077783Y4155483D01*
X11070600Y4128676D01*
Y4100924D01*
X11077783Y4074117D01*
X11091659Y4050083D01*
X11111283Y4030459D01*
X11135317Y4016583D01*
X11146144Y4013682D01*
Y3961918D01*
X11135317Y3959017D01*
X11111283Y3945141D01*
X11091659Y3925517D01*
X11077783Y3901483D01*
X11070600Y3874676D01*
Y3846924D01*
X11077783Y3820117D01*
X11091659Y3796083D01*
X11111283Y3776459D01*
X11135317Y3762583D01*
X11146144Y3759682D01*
Y3707918D01*
X11135317Y3705017D01*
X11111283Y3691141D01*
X11091659Y3671517D01*
X11077783Y3647483D01*
X11070600Y3620676D01*
Y3592924D01*
X11077783Y3566117D01*
X11091659Y3542083D01*
X11111283Y3522459D01*
X11135317Y3508583D01*
X11146144Y3505682D01*
Y3453918D01*
X11135317Y3451017D01*
X11111283Y3437141D01*
X11091659Y3417517D01*
X11077783Y3393483D01*
X11070600Y3366676D01*
Y3338924D01*
X11077783Y3312117D01*
X11091659Y3288083D01*
X11111283Y3268459D01*
X11135317Y3254583D01*
X11162124Y3247400D01*
X11189876D01*
X11216683Y3254583D01*
X11240717Y3268459D01*
X11260341Y3288083D01*
X11274217Y3312117D01*
X11281400Y3338924D01*
Y3366676D01*
X11274217Y3393483D01*
X11260341Y3417517D01*
X11240717Y3437141D01*
X11216683Y3451017D01*
X11205856Y3453918D01*
Y3505682D01*
X11216683Y3508583D01*
X11240717Y3522459D01*
X11260341Y3542083D01*
X11274217Y3566117D01*
X11281400Y3592924D01*
Y3620676D01*
X11274217Y3647483D01*
X11260341Y3671517D01*
X11240717Y3691141D01*
X11216683Y3705017D01*
X11205856Y3707918D01*
Y3759682D01*
X11216683Y3762583D01*
X11240717Y3776459D01*
X11260341Y3796083D01*
X11274217Y3820117D01*
X11281400Y3846924D01*
Y3874676D01*
X11274217Y3901483D01*
X11260341Y3925517D01*
X11240717Y3945141D01*
X11216683Y3959017D01*
X11205856Y3961918D01*
Y4013682D01*
X11216683Y4016583D01*
X11240717Y4030459D01*
X11260341Y4050083D01*
X11274217Y4074117D01*
X11281400Y4100924D01*
Y4128676D01*
X11274217Y4155483D01*
X11260341Y4179517D01*
X11240717Y4199141D01*
X11216683Y4213017D01*
X11205856Y4215918D01*
Y4267682D01*
X11216683Y4270583D01*
X11240717Y4284459D01*
X11260341Y4304083D01*
X11274217Y4328117D01*
X11281400Y4354924D01*
Y4382676D01*
X11274217Y4409483D01*
X11260341Y4433517D01*
X11240717Y4453141D01*
X11216683Y4467017D01*
X11205856Y4469918D01*
Y4521682D01*
X11216683Y4524583D01*
X11240717Y4538459D01*
X11260341Y4558083D01*
X11274217Y4582117D01*
X11281400Y4608924D01*
Y4636676D01*
X11274217Y4663483D01*
X11260341Y4687517D01*
X11240717Y4707141D01*
X11216683Y4721017D01*
X11205856Y4723918D01*
Y4775682D01*
X11216683Y4778583D01*
X11240717Y4792459D01*
X11260341Y4812083D01*
X11274217Y4836117D01*
X11281400Y4862924D01*
Y4890676D01*
X11274217Y4917483D01*
X11260341Y4941517D01*
X11240717Y4961141D01*
X11216683Y4975017D01*
X11205856Y4977918D01*
Y5029682D01*
X11216683Y5032583D01*
X11240717Y5046459D01*
X11260341Y5066083D01*
X11274217Y5090117D01*
X11281400Y5116924D01*
Y5144676D01*
X11274217Y5171483D01*
X11260341Y5195517D01*
X11240717Y5215141D01*
X11216683Y5229017D01*
X11205856Y5231918D01*
Y5283682D01*
X11216683Y5286583D01*
X11240717Y5300459D01*
X11260341Y5320083D01*
X11274217Y5344117D01*
X11281400Y5370924D01*
Y5398676D01*
X11274217Y5425483D01*
X11260341Y5449517D01*
X11240717Y5469141D01*
X11216683Y5483017D01*
X11205856Y5485918D01*
Y5537682D01*
X11216683Y5540583D01*
X11240717Y5554459D01*
X11260341Y5574083D01*
X11274217Y5598117D01*
X11281400Y5624924D01*
Y5652676D01*
X11274217Y5679483D01*
X11260341Y5703517D01*
X11240717Y5723141D01*
X11216683Y5737017D01*
X11205856Y5739918D01*
Y5791682D01*
X11216683Y5794583D01*
X11240717Y5808459D01*
X11260341Y5828083D01*
X11274217Y5852117D01*
X11281400Y5878924D01*
Y5906676D01*
X11274217Y5933483D01*
X11260341Y5957517D01*
X11240717Y5977141D01*
X11216683Y5991017D01*
X11205856Y5993918D01*
Y6045682D01*
X11216683Y6048583D01*
X11240717Y6062459D01*
X11260341Y6082083D01*
X11274217Y6106117D01*
X11281400Y6132924D01*
Y6160676D01*
X11274217Y6187483D01*
X11260341Y6211517D01*
X11240717Y6231141D01*
X11216683Y6245017D01*
X11205856Y6247918D01*
Y6299682D01*
X11216683Y6302583D01*
X11240717Y6316459D01*
X11260341Y6336083D01*
X11274217Y6360117D01*
X11281400Y6386924D01*
Y6414676D01*
X11274217Y6441483D01*
X11260341Y6465517D01*
X11240717Y6485141D01*
X11216683Y6499017D01*
X11205856Y6501918D01*
Y6553682D01*
X11216683Y6556583D01*
X11240717Y6570459D01*
X11260341Y6590083D01*
X11274217Y6614117D01*
X11281400Y6640924D01*
Y6668676D01*
X11274217Y6695483D01*
X11260341Y6719517D01*
X11240717Y6739141D01*
X11216683Y6753017D01*
X11205856Y6755918D01*
Y6807682D01*
X11216683Y6810583D01*
X11240717Y6824459D01*
X11260341Y6844083D01*
X11274217Y6868117D01*
X11281400Y6894924D01*
Y6922676D01*
X11274217Y6949483D01*
X11260341Y6973517D01*
X11240717Y6993141D01*
X11216683Y7007017D01*
X11205856Y7009918D01*
Y7061682D01*
X11216683Y7064583D01*
X11240717Y7078459D01*
X11260341Y7098083D01*
X11274217Y7122117D01*
X11281400Y7148924D01*
Y7176676D01*
X11274217Y7203483D01*
X11260341Y7227517D01*
X11240717Y7247141D01*
X11216683Y7261017D01*
X11205856Y7263918D01*
Y7315682D01*
X11216683Y7318583D01*
X11240717Y7332459D01*
X11260341Y7352083D01*
X11274217Y7376117D01*
X11281400Y7402924D01*
Y7430676D01*
X11274217Y7457483D01*
X11260341Y7481517D01*
X11240717Y7501141D01*
X11216683Y7515017D01*
X11205856Y7517918D01*
Y7569682D01*
X11216683Y7572583D01*
X11240717Y7586459D01*
X11260341Y7606083D01*
X11274217Y7630117D01*
X11281400Y7656924D01*
Y7684676D01*
X11274217Y7711483D01*
X11260341Y7735517D01*
X11240717Y7755141D01*
X11216683Y7769017D01*
X11205856Y7771918D01*
Y7823682D01*
X11216683Y7826583D01*
X11240717Y7840459D01*
X11260341Y7860083D01*
X11274217Y7884117D01*
X11281400Y7910924D01*
Y7938676D01*
X11274217Y7965483D01*
X11260341Y7989517D01*
X11240717Y8009141D01*
X11216683Y8023017D01*
X11205856Y8025918D01*
Y8077682D01*
X11216683Y8080583D01*
X11240717Y8094459D01*
X11260341Y8114083D01*
X11274217Y8138117D01*
X11281400Y8164924D01*
Y8192676D01*
X11274217Y8219483D01*
X11260341Y8243517D01*
X11240717Y8263141D01*
X11216683Y8277017D01*
X11205856Y8279918D01*
Y8331682D01*
X11216683Y8334583D01*
X11240717Y8348459D01*
X11260341Y8368083D01*
X11274217Y8392117D01*
X11281400Y8418924D01*
Y8446676D01*
X11274217Y8473483D01*
X11260341Y8497517D01*
X11240717Y8517141D01*
X11216683Y8531017D01*
X11205856Y8533918D01*
Y8585682D01*
X11216683Y8588583D01*
X11240717Y8602459D01*
X11260341Y8622083D01*
X11274217Y8646117D01*
X11281400Y8672924D01*
Y8674100D01*
D02*
G37*
G36*
X8246100Y3340100D02*
X8153400D01*
Y3247400D01*
X8154576D01*
X8181383Y3254583D01*
X8205417Y3268459D01*
X8225041Y3288083D01*
X8238917Y3312117D01*
X8246100Y3338924D01*
Y3340100D01*
D02*
G37*
G36*
X8128000D02*
X8035300D01*
Y3338924D01*
X8042483Y3312117D01*
X8056359Y3288083D01*
X8075983Y3268459D01*
X8100017Y3254583D01*
X8126824Y3247400D01*
X8128000D01*
Y3340100D01*
D02*
G37*
G36*
X12624318Y3402400D02*
X12597882D01*
X12572347Y3395558D01*
X12549453Y3382340D01*
X12530760Y3363647D01*
X12517542Y3340753D01*
X12510700Y3315218D01*
Y3288782D01*
X12517542Y3263247D01*
X12530760Y3240353D01*
X12549453Y3221660D01*
X12572347Y3208442D01*
X12597882Y3201600D01*
X12624318D01*
X12649853Y3208442D01*
X12672747Y3221660D01*
X12691440Y3240353D01*
X12704658Y3263247D01*
X12711500Y3288782D01*
Y3315218D01*
X12704658Y3340753D01*
X12691440Y3363647D01*
X12672747Y3382340D01*
X12649853Y3395558D01*
X12624318Y3402400D01*
D02*
G37*
G36*
Y3148400D02*
X12623800D01*
Y3060700D01*
X12711500D01*
Y3061218D01*
X12704658Y3086753D01*
X12691440Y3109647D01*
X12672747Y3128340D01*
X12649853Y3141558D01*
X12624318Y3148400D01*
D02*
G37*
G36*
X12598400D02*
X12597882D01*
X12572347Y3141558D01*
X12549453Y3128340D01*
X12530760Y3109647D01*
X12517542Y3086753D01*
X12510700Y3061218D01*
Y3060700D01*
X12598400D01*
Y3148400D01*
D02*
G37*
G36*
X12711500Y3035300D02*
X12623800D01*
Y2947600D01*
X12624318D01*
X12649853Y2954442D01*
X12672747Y2967660D01*
X12691440Y2986353D01*
X12704658Y3009247D01*
X12711500Y3034782D01*
Y3035300D01*
D02*
G37*
G36*
X12598400D02*
X12510700D01*
Y3034782D01*
X12517542Y3009247D01*
X12530760Y2986353D01*
X12549453Y2967660D01*
X12572347Y2954442D01*
X12597882Y2947600D01*
X12598400D01*
Y3035300D01*
D02*
G37*
G36*
X11862318Y3148400D02*
X11835882D01*
X11810347Y3141558D01*
X11787453Y3128340D01*
X11768760Y3109647D01*
X11755542Y3086753D01*
X11748700Y3061218D01*
Y3034782D01*
X11755542Y3009247D01*
X11768760Y2986353D01*
X11787453Y2967660D01*
X11810347Y2954442D01*
X11835882Y2947600D01*
X11862318D01*
X11887853Y2954442D01*
X11910747Y2967660D01*
X11929440Y2986353D01*
X11942658Y3009247D01*
X11949500Y3034782D01*
Y3061218D01*
X11942658Y3086753D01*
X11929440Y3109647D01*
X11910747Y3128340D01*
X11887853Y3141558D01*
X11862318Y3148400D01*
D02*
G37*
G36*
X13529645Y3690100D02*
X13470555D01*
X13412193Y3680856D01*
X13355997Y3662597D01*
X13303348Y3635771D01*
X13255544Y3601039D01*
X13213760Y3559257D01*
X13179028Y3511452D01*
X13152203Y3458804D01*
X13133945Y3402606D01*
X13124699Y3344245D01*
Y3285155D01*
X13133945Y3226794D01*
X13152203Y3170596D01*
X13179028Y3117948D01*
X13213760Y3070143D01*
X13255544Y3028361D01*
X13303348Y2993629D01*
X13355997Y2966803D01*
X13412193Y2948544D01*
X13470555Y2939300D01*
X13529645D01*
X13588007Y2948544D01*
X13644205Y2966803D01*
X13696852Y2993629D01*
X13744656Y3028361D01*
X13786440Y3070143D01*
X13821172Y3117948D01*
X13847997Y3170596D01*
X13866257Y3226794D01*
X13875500Y3285155D01*
Y3344245D01*
X13866257Y3402606D01*
X13847997Y3458804D01*
X13821172Y3511452D01*
X13786440Y3559257D01*
X13744656Y3601039D01*
X13696852Y3635771D01*
X13644205Y3662597D01*
X13588007Y3680856D01*
X13529645Y3690100D01*
D02*
G37*
G36*
X7924488Y3086051D02*
X6858000D01*
Y2832100D01*
X7924488D01*
Y3086051D01*
D02*
G37*
G36*
X11862318Y2894400D02*
X11861800D01*
Y2806700D01*
X11949500D01*
Y2807218D01*
X11942658Y2832753D01*
X11929440Y2855647D01*
X11910747Y2874340D01*
X11887853Y2887558D01*
X11862318Y2894400D01*
D02*
G37*
G36*
X11836400D02*
X11835882D01*
X11810347Y2887558D01*
X11787453Y2874340D01*
X11768760Y2855647D01*
X11755542Y2832753D01*
X11748700Y2807218D01*
Y2806700D01*
X11836400D01*
Y2894400D01*
D02*
G37*
G36*
X12624318D02*
X12597882D01*
X12572347Y2887558D01*
X12549453Y2874340D01*
X12530760Y2855647D01*
X12517542Y2832753D01*
X12510700Y2807218D01*
Y2780782D01*
X12517542Y2755247D01*
X12530760Y2732353D01*
X12549453Y2713660D01*
X12572347Y2700442D01*
X12597882Y2693600D01*
X12624318D01*
X12649853Y2700442D01*
X12672747Y2713660D01*
X12691440Y2732353D01*
X12704658Y2755247D01*
X12711500Y2780782D01*
Y2807218D01*
X12704658Y2832753D01*
X12691440Y2855647D01*
X12672747Y2874340D01*
X12649853Y2887558D01*
X12624318Y2894400D01*
D02*
G37*
G36*
X11949500Y2781300D02*
X11861800D01*
Y2693600D01*
X11862318D01*
X11887853Y2700442D01*
X11910747Y2713660D01*
X11929440Y2732353D01*
X11942658Y2755247D01*
X11949500Y2780782D01*
Y2781300D01*
D02*
G37*
G36*
X11836400D02*
X11748700D01*
Y2780782D01*
X11755542Y2755247D01*
X11768760Y2732353D01*
X11787453Y2713660D01*
X11810347Y2700442D01*
X11835882Y2693600D01*
X11836400D01*
Y2781300D01*
D02*
G37*
G36*
X13612000Y2644300D02*
X13449300D01*
Y2556600D01*
X13612000D01*
Y2644300D01*
D02*
G37*
G36*
X13423900D02*
X13261200D01*
Y2556600D01*
X13423900D01*
Y2644300D01*
D02*
G37*
G36*
X12624318Y2640400D02*
X12623800D01*
Y2552700D01*
X12711500D01*
Y2553218D01*
X12704658Y2578753D01*
X12691440Y2601647D01*
X12672747Y2620340D01*
X12649853Y2633558D01*
X12624318Y2640400D01*
D02*
G37*
G36*
X12598400D02*
X12597882D01*
X12572347Y2633558D01*
X12549453Y2620340D01*
X12530760Y2601647D01*
X12517542Y2578753D01*
X12510700Y2553218D01*
Y2552700D01*
X12598400D01*
Y2640400D01*
D02*
G37*
G36*
X13612000Y2531200D02*
X13449300D01*
Y2443500D01*
X13612000D01*
Y2531200D01*
D02*
G37*
G36*
X13423900D02*
X13261200D01*
Y2443500D01*
X13423900D01*
Y2531200D01*
D02*
G37*
G36*
X12711500Y2527300D02*
X12623800D01*
Y2439600D01*
X12624318D01*
X12649853Y2446442D01*
X12672747Y2459660D01*
X12691440Y2478353D01*
X12704658Y2501247D01*
X12711500Y2526782D01*
Y2527300D01*
D02*
G37*
G36*
X12598400D02*
X12510700D01*
Y2526782D01*
X12517542Y2501247D01*
X12530760Y2478353D01*
X12549453Y2459660D01*
X12572347Y2446442D01*
X12597882Y2439600D01*
X12598400D01*
Y2527300D01*
D02*
G37*
G36*
X11862318Y2640400D02*
X11835882D01*
X11810347Y2633558D01*
X11787453Y2620340D01*
X11768760Y2601647D01*
X11755542Y2578753D01*
X11748700Y2553218D01*
Y2526782D01*
X11755542Y2501247D01*
X11768760Y2478353D01*
X11787453Y2459660D01*
X11810347Y2446442D01*
X11835882Y2439600D01*
X11862318D01*
X11887853Y2446442D01*
X11910747Y2459660D01*
X11929440Y2478353D01*
X11942658Y2501247D01*
X11949500Y2526782D01*
Y2553218D01*
X11942658Y2578753D01*
X11929440Y2601647D01*
X11910747Y2620340D01*
X11887853Y2633558D01*
X11862318Y2640400D01*
D02*
G37*
G36*
X12881609Y2525700D02*
X12877800D01*
Y2413000D01*
X12990500D01*
Y2416809D01*
X12981953Y2448702D01*
X12965445Y2477297D01*
X12942097Y2500645D01*
X12913503Y2517154D01*
X12881609Y2525700D01*
D02*
G37*
G36*
X12852400D02*
X12848592D01*
X12816698Y2517154D01*
X12788103Y2500645D01*
X12764755Y2477297D01*
X12748246Y2448702D01*
X12739700Y2416809D01*
Y2413000D01*
X12852400D01*
Y2525700D01*
D02*
G37*
G36*
X11187500Y2550300D02*
X11099800D01*
Y2387600D01*
X11187500D01*
Y2550300D01*
D02*
G37*
G36*
X11074400D02*
X10986700D01*
Y2387600D01*
X11074400D01*
Y2550300D01*
D02*
G37*
G36*
X7296100Y2533600D02*
X7080300D01*
Y2317800D01*
X7296100D01*
Y2533600D01*
D02*
G37*
G36*
X11862318Y2386400D02*
X11861800D01*
Y2298700D01*
X11949500D01*
Y2299218D01*
X11942658Y2324753D01*
X11929440Y2347647D01*
X11910747Y2366340D01*
X11887853Y2379558D01*
X11862318Y2386400D01*
D02*
G37*
G36*
X11836400D02*
X11835882D01*
X11810347Y2379558D01*
X11787453Y2366340D01*
X11768760Y2347647D01*
X11755542Y2324753D01*
X11748700Y2299218D01*
Y2298700D01*
X11836400D01*
Y2386400D01*
D02*
G37*
G36*
X12990500Y2387600D02*
X12877800D01*
Y2274900D01*
X12881609D01*
X12913503Y2283446D01*
X12942097Y2299955D01*
X12965445Y2323303D01*
X12981953Y2351898D01*
X12990500Y2383791D01*
Y2387600D01*
D02*
G37*
G36*
X12852400D02*
X12739700D01*
Y2383791D01*
X12748246Y2351898D01*
X12764755Y2323303D01*
X12788103Y2299955D01*
X12816698Y2283446D01*
X12848592Y2274900D01*
X12852400D01*
Y2387600D01*
D02*
G37*
G36*
X11187500Y2362200D02*
X11099800D01*
Y2199500D01*
X11187500D01*
Y2362200D01*
D02*
G37*
G36*
X11074400D02*
X10986700D01*
Y2199500D01*
X11074400D01*
Y2362200D01*
D02*
G37*
G36*
X11387100Y2551166D02*
X11360890Y2547716D01*
X11336467Y2537599D01*
X11315494Y2521506D01*
X11299401Y2500533D01*
X11289284Y2476110D01*
X11285834Y2449900D01*
Y2299900D01*
X11289284Y2273690D01*
X11299401Y2249267D01*
X11315494Y2228294D01*
X11336467Y2212201D01*
X11360890Y2202084D01*
X11387100Y2198634D01*
X11413310Y2202084D01*
X11437733Y2212201D01*
X11458706Y2228294D01*
X11474799Y2249267D01*
X11484916Y2273690D01*
X11488366Y2299900D01*
Y2449900D01*
X11484916Y2476110D01*
X11474799Y2500533D01*
X11458706Y2521506D01*
X11437733Y2537599D01*
X11413310Y2547716D01*
X11387100Y2551166D01*
D02*
G37*
G36*
X12624318Y2386400D02*
X12597882D01*
X12572347Y2379558D01*
X12549453Y2366340D01*
X12530760Y2347647D01*
X12517542Y2324753D01*
X12510700Y2299218D01*
Y2272782D01*
X12517542Y2247247D01*
X12530760Y2224353D01*
X12549453Y2205660D01*
X12572347Y2192442D01*
X12597882Y2185600D01*
X12624318D01*
X12649853Y2192442D01*
X12672747Y2205660D01*
X12691440Y2224353D01*
X12704658Y2247247D01*
X12711500Y2272782D01*
Y2299218D01*
X12704658Y2324753D01*
X12691440Y2347647D01*
X12672747Y2366340D01*
X12649853Y2379558D01*
X12624318Y2386400D01*
D02*
G37*
G36*
X11949500Y2273300D02*
X11861800D01*
Y2185600D01*
X11862318D01*
X11887853Y2192442D01*
X11910747Y2205660D01*
X11929440Y2224353D01*
X11942658Y2247247D01*
X11949500Y2272782D01*
Y2273300D01*
D02*
G37*
G36*
X11836400D02*
X11748700D01*
Y2272782D01*
X11755542Y2247247D01*
X11768760Y2224353D01*
X11787453Y2205660D01*
X11810347Y2192442D01*
X11835882Y2185600D01*
X11836400D01*
Y2273300D01*
D02*
G37*
G36*
X10260400Y2334400D02*
X10172700D01*
Y2171700D01*
X10260400D01*
Y2334400D01*
D02*
G37*
G36*
X10147300D02*
X10059600D01*
Y2171700D01*
X10147300D01*
Y2334400D01*
D02*
G37*
G36*
X8754109Y2259000D02*
X8750300D01*
Y2146300D01*
X8863000D01*
Y2150109D01*
X8854454Y2182002D01*
X8837945Y2210597D01*
X8814597Y2233945D01*
X8786002Y2250454D01*
X8754109Y2259000D01*
D02*
G37*
G36*
X8724900D02*
X8721091D01*
X8689198Y2250454D01*
X8660603Y2233945D01*
X8637255Y2210597D01*
X8620746Y2182002D01*
X8612200Y2150109D01*
Y2146300D01*
X8724900D01*
Y2259000D01*
D02*
G37*
G36*
X13511600Y2345166D02*
X13361600D01*
X13335390Y2341716D01*
X13310966Y2331599D01*
X13289993Y2315506D01*
X13273901Y2294533D01*
X13263783Y2270110D01*
X13260333Y2243900D01*
X13263783Y2217690D01*
X13273901Y2193267D01*
X13289993Y2172294D01*
X13310966Y2156201D01*
X13335390Y2146084D01*
X13361600Y2142634D01*
X13511600D01*
X13537810Y2146084D01*
X13562233Y2156201D01*
X13583206Y2172294D01*
X13599300Y2193267D01*
X13609416Y2217690D01*
X13612866Y2243900D01*
X13609416Y2270110D01*
X13599300Y2294533D01*
X13583206Y2315506D01*
X13562233Y2331599D01*
X13537810Y2341716D01*
X13511600Y2345166D01*
D02*
G37*
G36*
X8863000Y2120900D02*
X8612200D01*
Y2117091D01*
X8613398Y2112618D01*
X8587848Y2086350D01*
X8571191Y2076953D01*
X8520706Y2093356D01*
X8462345Y2102600D01*
X8403255D01*
X8344894Y2093356D01*
X8288696Y2075097D01*
X8236048Y2048271D01*
X8188243Y2013539D01*
X8146461Y1971757D01*
X8111729Y1923952D01*
X8084903Y1871304D01*
X8066644Y1815106D01*
X8057400Y1756745D01*
Y1697655D01*
X8066644Y1639294D01*
X8084903Y1583096D01*
X8111729Y1530448D01*
X8146461Y1482643D01*
X8188243Y1440861D01*
X8236048Y1406129D01*
X8288696Y1379303D01*
X8344894Y1361044D01*
X8403255Y1351800D01*
X8462345D01*
X8520706Y1361044D01*
X8576904Y1379303D01*
X8629552Y1406129D01*
X8677357Y1440861D01*
X8719139Y1482643D01*
X8753871Y1530448D01*
X8780697Y1583096D01*
X8798956Y1639294D01*
X8808200Y1697655D01*
Y1756745D01*
X8798956Y1815106D01*
X8780697Y1871304D01*
X8753871Y1923952D01*
X8728989Y1958200D01*
X8744437Y1998661D01*
X8753406Y2008200D01*
X8754109D01*
X8786002Y2016746D01*
X8814597Y2033255D01*
X8837945Y2056603D01*
X8854454Y2085198D01*
X8863000Y2117091D01*
Y2120900D01*
D02*
G37*
G36*
X12624318Y2132400D02*
X12623800D01*
Y2044700D01*
X12711500D01*
Y2045218D01*
X12704658Y2070753D01*
X12691440Y2093647D01*
X12672747Y2112340D01*
X12649853Y2125558D01*
X12624318Y2132400D01*
D02*
G37*
G36*
X12598400D02*
X12597882D01*
X12572347Y2125558D01*
X12549453Y2112340D01*
X12530760Y2093647D01*
X12517542Y2070753D01*
X12510700Y2045218D01*
Y2044700D01*
X12598400D01*
Y2132400D01*
D02*
G37*
G36*
X10260400Y2146300D02*
X10172700D01*
Y1983600D01*
X10260400D01*
Y2146300D01*
D02*
G37*
G36*
X10147300D02*
X10059600D01*
Y1983600D01*
X10147300D01*
Y2146300D01*
D02*
G37*
G36*
X9860000Y2335266D02*
X9833790Y2331816D01*
X9809367Y2321699D01*
X9788394Y2305606D01*
X9772301Y2284633D01*
X9762184Y2260210D01*
X9758734Y2234000D01*
Y2084000D01*
X9762184Y2057790D01*
X9772301Y2033367D01*
X9788394Y2012394D01*
X9809367Y1996301D01*
X9833790Y1986184D01*
X9860000Y1982734D01*
X9886210Y1986184D01*
X9910633Y1996301D01*
X9931606Y2012394D01*
X9947699Y2033367D01*
X9957816Y2057790D01*
X9961266Y2084000D01*
Y2234000D01*
X9957816Y2260210D01*
X9947699Y2284633D01*
X9931606Y2305606D01*
X9910633Y2321699D01*
X9886210Y2331816D01*
X9860000Y2335266D01*
D02*
G37*
G36*
X12711500Y2019300D02*
X12623800D01*
Y1931600D01*
X12624318D01*
X12649853Y1938442D01*
X12672747Y1951660D01*
X12691440Y1970353D01*
X12704658Y1993247D01*
X12711500Y2018782D01*
Y2019300D01*
D02*
G37*
G36*
X12598400D02*
X12510700D01*
Y2018782D01*
X12517542Y1993247D01*
X12530760Y1970353D01*
X12549453Y1951660D01*
X12572347Y1938442D01*
X12597882Y1931600D01*
X12598400D01*
Y2019300D01*
D02*
G37*
G36*
X11862318Y2132400D02*
X11835882D01*
X11810347Y2125558D01*
X11787453Y2112340D01*
X11768760Y2093647D01*
X11755542Y2070753D01*
X11748700Y2045218D01*
Y2018782D01*
X11755542Y1993247D01*
X11768760Y1970353D01*
X11787453Y1951660D01*
X11810347Y1938442D01*
X11835882Y1931600D01*
X11862318D01*
X11887853Y1938442D01*
X11910747Y1951660D01*
X11929440Y1970353D01*
X11942658Y1993247D01*
X11949500Y2018782D01*
Y2045218D01*
X11942658Y2070753D01*
X11929440Y2093647D01*
X11910747Y2112340D01*
X11887853Y2125558D01*
X11862318Y2132400D01*
D02*
G37*
G36*
X7202405Y2025600D02*
X7200900D01*
Y1930400D01*
X7296100D01*
Y1931905D01*
X7288747Y1959348D01*
X7274541Y1983952D01*
X7254452Y2004041D01*
X7229848Y2018247D01*
X7202405Y2025600D01*
D02*
G37*
G36*
X7175500D02*
X7173995D01*
X7146552Y2018247D01*
X7121948Y2004041D01*
X7101859Y1983952D01*
X7087653Y1959348D01*
X7080300Y1931905D01*
Y1930400D01*
X7175500D01*
Y2025600D01*
D02*
G37*
G36*
X7296100Y1905000D02*
X7200900D01*
Y1809800D01*
X7202405D01*
X7229848Y1817153D01*
X7254452Y1831359D01*
X7274541Y1851448D01*
X7288747Y1876052D01*
X7296100Y1903495D01*
Y1905000D01*
D02*
G37*
G36*
X7175500D02*
X7080300D01*
Y1903495D01*
X7087653Y1876052D01*
X7101859Y1851448D01*
X7121948Y1831359D01*
X7146552Y1817153D01*
X7173995Y1809800D01*
X7175500D01*
Y1905000D01*
D02*
G37*
G36*
X11862318Y1878400D02*
X11861800D01*
Y1790700D01*
X11949500D01*
Y1791218D01*
X11942658Y1816753D01*
X11929440Y1839647D01*
X11910747Y1858340D01*
X11887853Y1871558D01*
X11862318Y1878400D01*
D02*
G37*
G36*
X11836400D02*
X11835882D01*
X11810347Y1871558D01*
X11787453Y1858340D01*
X11768760Y1839647D01*
X11755542Y1816753D01*
X11748700Y1791218D01*
Y1790700D01*
X11836400D01*
Y1878400D01*
D02*
G37*
G36*
X12624318D02*
X12597882D01*
X12572347Y1871558D01*
X12549453Y1858340D01*
X12530760Y1839647D01*
X12517542Y1816753D01*
X12510700Y1791218D01*
Y1764782D01*
X12517542Y1739247D01*
X12530760Y1716353D01*
X12549453Y1697660D01*
X12572347Y1684442D01*
X12597882Y1677600D01*
X12624318D01*
X12649853Y1684442D01*
X12672747Y1697660D01*
X12691440Y1716353D01*
X12704658Y1739247D01*
X12711500Y1764782D01*
Y1791218D01*
X12704658Y1816753D01*
X12691440Y1839647D01*
X12672747Y1858340D01*
X12649853Y1871558D01*
X12624318Y1878400D01*
D02*
G37*
G36*
X11949500Y1765300D02*
X11861800D01*
Y1677600D01*
X11862318D01*
X11887853Y1684442D01*
X11910747Y1697660D01*
X11929440Y1716353D01*
X11942658Y1739247D01*
X11949500Y1764782D01*
Y1765300D01*
D02*
G37*
G36*
X11836400D02*
X11748700D01*
Y1764782D01*
X11755542Y1739247D01*
X11768760Y1716353D01*
X11787453Y1697660D01*
X11810347Y1684442D01*
X11835882Y1677600D01*
X11836400D01*
Y1765300D01*
D02*
G37*
G36*
X13257600Y1845066D02*
X13107600D01*
X13081390Y1841616D01*
X13056967Y1831499D01*
X13035994Y1815406D01*
X13019901Y1794433D01*
X13009784Y1770010D01*
X13006334Y1743800D01*
X13009784Y1717590D01*
X13019901Y1693167D01*
X13035994Y1672194D01*
X13056967Y1656101D01*
X13081390Y1645984D01*
X13107600Y1642534D01*
X13257600D01*
X13283810Y1645984D01*
X13308234Y1656101D01*
X13329205Y1672194D01*
X13345299Y1693167D01*
X13355415Y1717590D01*
X13358865Y1743800D01*
X13355415Y1770010D01*
X13345299Y1794433D01*
X13329205Y1815406D01*
X13308234Y1831499D01*
X13283810Y1841616D01*
X13257600Y1845066D01*
D02*
G37*
G36*
X9297576Y2200900D02*
X9269824D01*
X9243017Y2193717D01*
X9218983Y2179841D01*
X9199359Y2160217D01*
X9185483Y2136183D01*
X9178300Y2109376D01*
Y2081624D01*
X9185483Y2054817D01*
X9199359Y2030783D01*
X9218983Y2011159D01*
X9243017Y1997283D01*
X9253844Y1994382D01*
Y1942618D01*
X9243017Y1939717D01*
X9218983Y1925841D01*
X9199359Y1906217D01*
X9185483Y1882183D01*
X9178300Y1855376D01*
Y1827624D01*
X9185483Y1800817D01*
X9199359Y1776783D01*
X9218983Y1757159D01*
X9243017Y1743283D01*
X9244447Y1742900D01*
X9237865Y1692900D01*
X9178300D01*
Y1600200D01*
X9283700D01*
X9389100D01*
Y1692900D01*
X9329535D01*
X9322953Y1742900D01*
X9324383Y1743283D01*
X9348417Y1757159D01*
X9368041Y1776783D01*
X9381917Y1800817D01*
X9389100Y1827624D01*
Y1855376D01*
X9381917Y1882183D01*
X9368041Y1906217D01*
X9348417Y1925841D01*
X9324383Y1939717D01*
X9313556Y1942618D01*
Y1994382D01*
X9324383Y1997283D01*
X9348417Y2011159D01*
X9368041Y2030783D01*
X9381917Y2054817D01*
X9389100Y2081624D01*
Y2109376D01*
X9381917Y2136183D01*
X9368041Y2160217D01*
X9348417Y2179841D01*
X9324383Y2193717D01*
X9297576Y2200900D01*
D02*
G37*
G36*
X11238300Y1712100D02*
X11150600D01*
Y1549400D01*
X11238300D01*
Y1712100D01*
D02*
G37*
G36*
X11125200D02*
X11037500D01*
Y1549400D01*
X11125200D01*
Y1712100D01*
D02*
G37*
G36*
X9389100Y1574800D02*
X9296400D01*
Y1482100D01*
X9389100D01*
Y1574800D01*
D02*
G37*
G36*
X9271000D02*
X9178300D01*
Y1482100D01*
X9271000D01*
Y1574800D01*
D02*
G37*
G36*
X13358000Y1544200D02*
X13195300D01*
Y1456500D01*
X13358000D01*
Y1544200D01*
D02*
G37*
G36*
X13169901D02*
X13007201D01*
Y1456500D01*
X13169901D01*
Y1544200D01*
D02*
G37*
G36*
X11238300Y1524000D02*
X11150600D01*
Y1361300D01*
X11238300D01*
Y1524000D01*
D02*
G37*
G36*
X11125200D02*
X11037500D01*
Y1361300D01*
X11125200D01*
Y1524000D01*
D02*
G37*
G36*
X11437900Y1712966D02*
X11411690Y1709516D01*
X11387267Y1699399D01*
X11366294Y1683306D01*
X11350201Y1662333D01*
X11340084Y1637910D01*
X11336634Y1611700D01*
Y1461700D01*
X11340084Y1435490D01*
X11350201Y1411067D01*
X11366294Y1390094D01*
X11387267Y1374001D01*
X11411690Y1363884D01*
X11437900Y1360434D01*
X11464110Y1363884D01*
X11488533Y1374001D01*
X11509506Y1390094D01*
X11525599Y1411067D01*
X11535716Y1435490D01*
X11539166Y1461700D01*
Y1611700D01*
X11535716Y1637910D01*
X11525599Y1662333D01*
X11509506Y1683306D01*
X11488533Y1699399D01*
X11464110Y1709516D01*
X11437900Y1712966D01*
D02*
G37*
G36*
X10646409Y1458900D02*
X10642600D01*
Y1346200D01*
X10755300D01*
Y1350009D01*
X10746754Y1381902D01*
X10730245Y1410497D01*
X10706897Y1433845D01*
X10678302Y1450354D01*
X10646409Y1458900D01*
D02*
G37*
G36*
X10617200D02*
X10613391D01*
X10581498Y1450354D01*
X10552903Y1433845D01*
X10529555Y1410497D01*
X10513046Y1381902D01*
X10504500Y1350009D01*
Y1346200D01*
X10617200D01*
Y1458900D01*
D02*
G37*
G36*
X10242900Y1508900D02*
X10155200D01*
Y1346200D01*
X10242900D01*
Y1508900D01*
D02*
G37*
G36*
X10129800D02*
X10042100D01*
Y1346200D01*
X10129800D01*
Y1508900D01*
D02*
G37*
G36*
X13358000Y1431100D02*
X13195300D01*
Y1343400D01*
X13358000D01*
Y1431100D01*
D02*
G37*
G36*
X13169901D02*
X13007201D01*
Y1343400D01*
X13169901D01*
Y1431100D01*
D02*
G37*
G36*
X10755300Y1320800D02*
X10642600D01*
Y1208100D01*
X10646409D01*
X10678302Y1216646D01*
X10706897Y1233155D01*
X10730245Y1256503D01*
X10746754Y1285098D01*
X10755300Y1316991D01*
Y1320800D01*
D02*
G37*
G36*
X10617200D02*
X10504500D01*
Y1316991D01*
X10513046Y1285098D01*
X10529555Y1256503D01*
X10552903Y1233155D01*
X10581498Y1216646D01*
X10613391Y1208100D01*
X10617200D01*
Y1320800D01*
D02*
G37*
G36*
X10242900D02*
X10155200D01*
Y1158100D01*
X10242900D01*
Y1320800D01*
D02*
G37*
G36*
X10129800D02*
X10042100D01*
Y1158100D01*
X10129800D01*
Y1320800D01*
D02*
G37*
G36*
X9842500Y1509766D02*
X9816290Y1506316D01*
X9791867Y1496199D01*
X9770894Y1480106D01*
X9754801Y1459133D01*
X9744684Y1434710D01*
X9741234Y1408500D01*
Y1258500D01*
X9744684Y1232290D01*
X9754801Y1207867D01*
X9770894Y1186894D01*
X9791867Y1170801D01*
X9816290Y1160684D01*
X9842500Y1157234D01*
X9868710Y1160684D01*
X9893133Y1170801D01*
X9914106Y1186894D01*
X9930199Y1207867D01*
X9940316Y1232290D01*
X9943766Y1258500D01*
Y1408500D01*
X9940316Y1434710D01*
X9930199Y1459133D01*
X9914106Y1480106D01*
X9893133Y1496199D01*
X9868710Y1506316D01*
X9842500Y1509766D01*
D02*
G37*
%LPD*%
G36*
X11089649Y14107436D02*
Y13903448D01*
X11087082Y13900121D01*
X11033001Y13908769D01*
X11032917Y13909084D01*
X11019041Y13933118D01*
X10999417Y13952740D01*
X10975383Y13966617D01*
X10964556Y13969518D01*
Y14021281D01*
X10975383Y14024184D01*
X10999417Y14038058D01*
X11019041Y14057683D01*
X11032917Y14081717D01*
X11040100Y14108524D01*
X11089649Y14107436D01*
D02*
G37*
G36*
X11292698Y14107146D02*
X11324591Y14098599D01*
X11357609D01*
X11358665Y14098883D01*
X11678998Y13778551D01*
X11658287Y13728551D01*
X11441992D01*
X11441445Y13729497D01*
X11418097Y13752844D01*
X11389502Y13769354D01*
X11357609Y13777901D01*
X11326004D01*
X11241750Y13862154D01*
Y14078825D01*
X11291751Y14107693D01*
X11292698Y14107146D01*
D02*
G37*
G36*
X12219612Y13314136D02*
X12219492Y13313548D01*
X12165115Y13297215D01*
X11882355Y13579974D01*
X11898813Y13634229D01*
X11899402Y13634346D01*
X12219612Y13314136D01*
D02*
G37*
G36*
X12544029Y13189047D02*
X12578761Y13141243D01*
X12620543Y13099461D01*
X12638451Y13086450D01*
X12622205Y13036450D01*
X12425880D01*
X12378930Y13083400D01*
X12399009Y13133400D01*
X12430902Y13141946D01*
X12459497Y13158455D01*
X12482845Y13181802D01*
X12487498Y13189862D01*
X12543319Y13190440D01*
X12544029Y13189047D01*
D02*
G37*
G36*
X7092361Y12176043D02*
X7134143Y12134261D01*
X7181948Y12099529D01*
X7234596Y12072703D01*
X7290794Y12054444D01*
X7349155Y12045200D01*
X7408245D01*
X7440210Y12050263D01*
X7464078Y12003420D01*
X7294815Y11834157D01*
X9469027Y9659945D01*
X9449893Y9613751D01*
X8794501D01*
X8372276Y10035976D01*
X8356525Y10048062D01*
X8338183Y10055659D01*
X8318500Y10058251D01*
X7765802D01*
X7578138Y10245914D01*
Y10486603D01*
X7576626Y10498084D01*
X7580645Y10502103D01*
X7597154Y10530698D01*
X7605700Y10562591D01*
Y10595609D01*
X7597154Y10627502D01*
X7580645Y10656097D01*
X7557297Y10679445D01*
X7556351Y10679992D01*
Y11126341D01*
X7553759Y11146025D01*
X7546162Y11164367D01*
X7534076Y11180117D01*
X7048685Y11665508D01*
X7035717Y12168942D01*
X7085300Y12185761D01*
X7092361Y12176043D01*
D02*
G37*
G36*
X13306049Y5968537D02*
X13300224Y5959822D01*
X13296313Y5940157D01*
Y4116394D01*
X13199368Y4019450D01*
X13154539Y4045331D01*
X13156000Y4050782D01*
Y4051300D01*
X13068300D01*
Y3963600D01*
X13068819D01*
X13074269Y3965061D01*
X13100150Y3920232D01*
X12894147Y3714228D01*
X12864758Y3722102D01*
X12831738D01*
X12799846Y3713556D01*
X12794156Y3710271D01*
X12757553Y3746873D01*
X12766054Y3761598D01*
X12774600Y3793491D01*
Y3826509D01*
X12766054Y3858402D01*
X12749545Y3886997D01*
X12726197Y3910345D01*
X12697602Y3926854D01*
X12665709Y3935400D01*
X12632691D01*
X12600798Y3926854D01*
X12600187Y3926502D01*
X12550187Y3955370D01*
Y4082815D01*
X12888736Y4421364D01*
X12899876Y4438035D01*
X12903787Y4457700D01*
Y5544486D01*
X12905200Y5545430D01*
X12955200Y5518705D01*
Y5487600D01*
X13156000D01*
Y5688400D01*
X13066290D01*
X13047156Y5734594D01*
X13189447Y5876885D01*
X13200587Y5893556D01*
X13204498Y5913221D01*
Y5965584D01*
X13226080Y5971367D01*
X13254675Y5987876D01*
X13267210Y6000411D01*
X13306049Y5968537D01*
D02*
G37*
%LPC*%
G36*
X13068819Y5434400D02*
X13042381D01*
X13016847Y5427558D01*
X12993953Y5414340D01*
X12975259Y5395647D01*
X12962042Y5372753D01*
X12955200Y5347218D01*
Y5320782D01*
X12962042Y5295247D01*
X12975259Y5272353D01*
X12993953Y5253660D01*
X13016847Y5240442D01*
X13042381Y5233600D01*
X13068819D01*
X13094353Y5240442D01*
X13117247Y5253660D01*
X13135941Y5272353D01*
X13149158Y5295247D01*
X13156000Y5320782D01*
Y5347218D01*
X13149158Y5372753D01*
X13135941Y5395647D01*
X13117247Y5414340D01*
X13094353Y5427558D01*
X13068819Y5434400D01*
D02*
G37*
G36*
Y5180400D02*
X13042381D01*
X13016847Y5173558D01*
X12993953Y5160340D01*
X12975259Y5141647D01*
X12962042Y5118753D01*
X12955200Y5093218D01*
Y5066782D01*
X12962042Y5041247D01*
X12975259Y5018353D01*
X12993953Y4999660D01*
X13016847Y4986442D01*
X13042381Y4979600D01*
X13068819D01*
X13094353Y4986442D01*
X13117247Y4999660D01*
X13135941Y5018353D01*
X13149158Y5041247D01*
X13156000Y5066782D01*
Y5093218D01*
X13149158Y5118753D01*
X13135941Y5141647D01*
X13117247Y5160340D01*
X13094353Y5173558D01*
X13068819Y5180400D01*
D02*
G37*
G36*
Y4926400D02*
X13042381D01*
X13016847Y4919558D01*
X12993953Y4906340D01*
X12975259Y4887647D01*
X12962042Y4864753D01*
X12955200Y4839218D01*
Y4812782D01*
X12962042Y4787247D01*
X12975259Y4764353D01*
X12993953Y4745660D01*
X13016847Y4732442D01*
X13042381Y4725600D01*
X13068819D01*
X13094353Y4732442D01*
X13117247Y4745660D01*
X13135941Y4764353D01*
X13149158Y4787247D01*
X13156000Y4812782D01*
Y4839218D01*
X13149158Y4864753D01*
X13135941Y4887647D01*
X13117247Y4906340D01*
X13094353Y4919558D01*
X13068819Y4926400D01*
D02*
G37*
G36*
Y4672400D02*
X13042381D01*
X13016847Y4665558D01*
X12993953Y4652340D01*
X12975259Y4633647D01*
X12962042Y4610753D01*
X12955200Y4585218D01*
Y4558782D01*
X12962042Y4533247D01*
X12975259Y4510353D01*
X12993953Y4491660D01*
X13016847Y4478442D01*
X13042381Y4471600D01*
X13068819D01*
X13094353Y4478442D01*
X13117247Y4491660D01*
X13135941Y4510353D01*
X13149158Y4533247D01*
X13156000Y4558782D01*
Y4585218D01*
X13149158Y4610753D01*
X13135941Y4633647D01*
X13117247Y4652340D01*
X13094353Y4665558D01*
X13068819Y4672400D01*
D02*
G37*
G36*
Y4418400D02*
X13042381D01*
X13016847Y4411558D01*
X12993953Y4398340D01*
X12975259Y4379647D01*
X12962042Y4356753D01*
X12955200Y4331218D01*
Y4304782D01*
X12962042Y4279247D01*
X12975259Y4256353D01*
X12993953Y4237660D01*
X13016847Y4224442D01*
X13042381Y4217600D01*
X13068819D01*
X13094353Y4224442D01*
X13117247Y4237660D01*
X13135941Y4256353D01*
X13149158Y4279247D01*
X13156000Y4304782D01*
Y4331218D01*
X13149158Y4356753D01*
X13135941Y4379647D01*
X13117247Y4398340D01*
X13094353Y4411558D01*
X13068819Y4418400D01*
D02*
G37*
G36*
Y4164400D02*
X13068300D01*
Y4076700D01*
X13156000D01*
Y4077218D01*
X13149158Y4102753D01*
X13135941Y4125647D01*
X13117247Y4144340D01*
X13094353Y4157558D01*
X13068819Y4164400D01*
D02*
G37*
G36*
X13042900D02*
X13042381D01*
X13016847Y4157558D01*
X12993953Y4144340D01*
X12975259Y4125647D01*
X12962042Y4102753D01*
X12955200Y4077218D01*
Y4076700D01*
X13042900D01*
Y4164400D01*
D02*
G37*
G36*
Y4051300D02*
X12955200D01*
Y4050782D01*
X12962042Y4025247D01*
X12975259Y4002353D01*
X12993953Y3983660D01*
X13016847Y3970442D01*
X13042381Y3963600D01*
X13042900D01*
Y4051300D01*
D02*
G37*
%LPD*%
D10*
X6953322Y12424927D02*
G03*
X6953444Y12409535I425378J-4327D01*
G01*
X11341100Y13652499D02*
Y13655254D01*
Y13652499D02*
X11702279D01*
X11165700Y13830653D02*
X11341100Y13655254D01*
X11702279Y13652499D02*
X12394379Y12960400D01*
X11165700Y13830653D02*
Y14365169D01*
X13309599Y11823700D02*
Y12712700D01*
X13144501Y11658600D02*
X13309599Y11823700D01*
X13061900Y12960400D02*
X13309599Y12712700D01*
X7499434Y10574320D02*
X7502087Y10576974D01*
X12394379Y12960400D02*
X13061900D01*
X11816935Y13748164D02*
X11893135D01*
X12382500Y13258800D01*
X8394700Y14198599D02*
X8587192Y14391092D01*
X7523900Y13658000D02*
X8064500Y14198599D01*
X8394700D01*
X6960129Y13094229D02*
X6988997Y13123097D01*
X6959714Y13053404D02*
X6960129Y13094229D01*
X7424000Y13558099D02*
X7431404D01*
X7523900Y13650597D02*
Y13658000D01*
X6988997Y13123097D02*
X7424000Y13558099D01*
X7431404D02*
X7523900Y13650597D01*
X6953322Y12424927D02*
X6959714Y13053404D01*
X8587192Y14391092D02*
Y14594292D01*
X8801100Y14808200D01*
X10722669D01*
X8318500Y9982200D02*
X8763000Y9537700D01*
X11042021D02*
X11130921Y9626600D01*
X8763000Y9537700D02*
X11042021D01*
X11130921Y9626600D02*
X11150600D01*
X7480300Y10579100D02*
Y11126341D01*
X7502087Y10214413D02*
X7734300Y9982200D01*
X7499434Y10489256D02*
Y10574320D01*
X7502087Y10214413D02*
Y10486603D01*
X6953444Y12409535D02*
X6973441Y11633200D01*
X7499434Y10489256D02*
X7502087Y10486603D01*
X7734300Y9982200D02*
X8318500D01*
X6973441Y11633200D02*
X7480300Y11126341D01*
X10722669Y14808200D02*
X11165700Y14365169D01*
X10649034Y13265067D02*
X10833100Y13081000D01*
X12001500D02*
X12115800Y12966701D01*
X10649034Y13265067D02*
Y13353966D01*
X10629900Y13373100D02*
X10649034Y13353966D01*
X10833100Y13081000D02*
X12001500D01*
X11341100Y14224001D02*
X11816935Y13748164D01*
D11*
X11531600Y6794500D02*
Y7327900D01*
X11764588Y7560888D01*
X13136005D01*
X12293600Y5954600D02*
Y6311900D01*
X11836400Y6769100D02*
X12293600Y6311900D01*
X12848248Y3596702D02*
X12849294D01*
X13347701Y4095109D01*
X13153111Y5913221D02*
Y6063653D01*
X13177679Y6088221D01*
X12852400Y5612510D02*
X13153111Y5913221D01*
X11836400Y6769100D02*
Y7340600D01*
X12280900Y7378700D02*
X12623800D01*
X12636500Y7366000D01*
X12141200Y7239000D02*
X12280900Y7378700D01*
X13136005Y7560888D02*
X13150912Y7575796D01*
X12852400Y4457700D02*
Y5612510D01*
X12498800Y3802502D02*
Y4104100D01*
X12852400Y4457700D01*
X11557000Y3035300D02*
Y3340100D01*
X11709400Y3492500D01*
X12188798D01*
X12498800Y3802502D01*
X13347701Y4095109D02*
Y5940157D01*
X13474699Y6067157D02*
Y6096000D01*
X13347701Y5940157D02*
X13474699Y6067157D01*
D12*
X11610933Y10906167D02*
X11620500Y10896600D01*
X11036300Y11252200D02*
X11382333Y10906167D01*
X11610933D01*
D13*
X13611436Y6464300D02*
X14376401Y7229264D01*
Y7620000D01*
X13234995Y6464300D02*
X13611436D01*
X12893700Y6123006D02*
X13234995Y6464300D01*
X14121768Y7874632D02*
X14376401Y7620000D01*
X8001000Y12547600D02*
Y12865100D01*
Y12547600D02*
X10693400Y9855200D01*
X12026900D01*
X10629900Y10325100D02*
X12026900D01*
X8394700Y12560300D02*
X10629900Y10325100D01*
X8001000Y12865100D02*
X8394700Y13258800D01*
X11518900Y4648200D02*
Y4738800D01*
X12353168Y5573068D01*
X13752205Y7505068D02*
X14121768Y7874632D01*
X14147800Y7900664D01*
X12353168Y5573068D02*
X12584732D01*
X12893700Y5882036D01*
Y6123006D01*
X13437231Y7505068D02*
X13752205D01*
X14147800Y7900664D02*
Y8329600D01*
D14*
X10393051Y11252200D02*
X11036300D01*
X10159718Y11485534D02*
X10393051Y11252200D01*
D15*
X6959567Y9702751D02*
X6858000D01*
Y9550400D01*
X6959567D01*
X6858000Y9626575D02*
X6908783D01*
X7010351Y9550400D02*
Y9651967D01*
X7086526D01*
X7111918Y9626575D01*
Y9550400D01*
X7264269Y9651967D02*
X7188093D01*
X7162701Y9626575D01*
Y9575792D01*
X7188093Y9550400D01*
X7264269D01*
X7340444D02*
X7391228D01*
X7416619Y9575792D01*
Y9626575D01*
X7391228Y9651967D01*
X7340444D01*
X7315052Y9626575D01*
Y9575792D01*
X7340444Y9550400D01*
X7568970Y9702751D02*
Y9550400D01*
X7492795D01*
X7467403Y9575792D01*
Y9626575D01*
X7492795Y9651967D01*
X7568970D01*
X7695929Y9550400D02*
X7645145D01*
X7619754Y9575792D01*
Y9626575D01*
X7645145Y9651967D01*
X7695929D01*
X7721321Y9626575D01*
Y9601183D01*
X7619754D01*
X7772104Y9651967D02*
Y9550400D01*
Y9601183D01*
X7797496Y9626575D01*
X7822888Y9651967D01*
X7848280D01*
X7924455Y9550400D02*
X8000630D01*
X8026022Y9575792D01*
X8000630Y9601183D01*
X7949847D01*
X7924455Y9626575D01*
X7949847Y9651967D01*
X8026022D01*
X7860536Y12328036D02*
X7932355Y12256217D01*
X7896445Y12292127D01*
X7788717Y12184399D01*
X7968264Y12220308D02*
X7860536Y12112580D01*
X7914400Y12166444D01*
X7986219Y12094625D01*
X8040083Y12148489D01*
X7932355Y12040761D01*
X8075993Y12112580D02*
X8111902Y12076670D01*
X8093947Y12094625D01*
X7986219Y11986897D01*
X7968264Y12004851D01*
X8004174Y11968942D01*
X8219630Y11933033D02*
Y11968942D01*
X8183721Y12004851D01*
X8147811D01*
X8129857Y11986897D01*
Y11950987D01*
X8165766Y11915078D01*
Y11879168D01*
X8147811Y11861214D01*
X8111902D01*
X8075993Y11897123D01*
Y11933033D01*
X8435087Y11717576D02*
Y11753486D01*
X8399177Y11789395D01*
X8363268D01*
X8345313Y11771440D01*
Y11735531D01*
X8381223Y11699622D01*
Y11663712D01*
X8363268Y11645757D01*
X8327359D01*
X8291449Y11681667D01*
Y11717576D01*
X8488951Y11699622D02*
X8524860Y11663712D01*
X8506906Y11681667D01*
X8399177Y11573938D01*
X8381223Y11591893D01*
X8417132Y11555984D01*
X8578724Y11609848D02*
X8470996Y11502120D01*
X8524860Y11448255D01*
X8560770D01*
X8632588Y11520074D01*
Y11555984D01*
X8578724Y11609848D01*
X8758271Y11430301D02*
X8686453Y11502120D01*
X8578724Y11394391D01*
X8650543Y11322572D01*
X8632588Y11448255D02*
X8668498Y11412346D01*
X8901909Y11286663D02*
X8973728Y11214844D01*
X8937818Y11250754D01*
X8830090Y11143026D01*
X9063501Y11125071D02*
X9027592Y11160980D01*
X8991683D01*
X8919864Y11089161D01*
Y11053252D01*
X8955773Y11017343D01*
X8991683D01*
X9063501Y11089161D01*
Y11125071D01*
X9117365Y11071207D02*
X9009637Y10963478D01*
X9081456D01*
X9081456Y10891660D01*
X9189184Y10999388D01*
X9117365Y10855750D02*
X9189184Y10927569D01*
X9261003D01*
Y10855750D01*
X9189184Y10783931D01*
X9243048Y10837795D01*
X9171230Y10909614D01*
X9225094Y10748022D02*
X9332822Y10855750D01*
X9386686Y10801886D01*
Y10765977D01*
X9350777Y10730067D01*
X9314867D01*
X9261003Y10783931D01*
X9296912Y10748022D02*
X9296913Y10676203D01*
X9440550Y10748022D02*
X9332822Y10640294D01*
X9386686Y10586430D01*
X9422596D01*
X9494414Y10658248D01*
Y10694158D01*
X9440550Y10748022D01*
X9602142Y10550520D02*
Y10586430D01*
X9566233Y10622339D01*
X9530324D01*
X9512369Y10604384D01*
Y10568475D01*
X9548278Y10532566D01*
Y10496656D01*
X9530324Y10478701D01*
X9494414D01*
X9458505Y10514611D01*
Y10550520D01*
X9835554Y10353018D02*
X9763735Y10424837D01*
X9656007Y10317109D01*
X9727825Y10245290D01*
X9709871Y10370973D02*
X9745780Y10335064D01*
X9763735Y10209381D02*
X9871463Y10317109D01*
X9835554Y10137562D01*
X9943282Y10245290D01*
X10051010Y10137562D02*
X9979191Y10209381D01*
X9871463Y10101653D01*
X9943282Y10029834D01*
X9925327Y10155517D02*
X9961237Y10119607D01*
X9979191Y9993924D02*
X10086919Y10101653D01*
Y10029834D01*
X10158738Y10029834D01*
X10051010Y9922106D01*
X10194648Y9993924D02*
X10176693Y9975970D01*
Y9904151D01*
X10248512Y9904151D01*
X10266467Y9922106D01*
X10176693Y9904151D02*
X10122829Y9850287D01*
X8661400Y9347134D02*
Y9220175D01*
X8686792Y9194783D01*
X8737575D01*
X8762967Y9220175D01*
Y9347134D01*
X8915318Y9321742D02*
X8889926Y9347134D01*
X8839143D01*
X8813751Y9321742D01*
Y9296351D01*
X8839143Y9270959D01*
X8889926D01*
X8915318Y9245567D01*
Y9220175D01*
X8889926Y9194783D01*
X8839143D01*
X8813751Y9220175D01*
X8966101Y9347134D02*
Y9194783D01*
X9042277D01*
X9067669Y9220175D01*
Y9245567D01*
X9042277Y9270959D01*
X8966101D01*
X9042277D01*
X9067669Y9296351D01*
Y9321742D01*
X9042277Y9347134D01*
X8966101D01*
X9270803Y9144000D02*
Y9296351D01*
X9346978D01*
X9372370Y9270959D01*
Y9220175D01*
X9346978Y9194783D01*
X9270803D01*
X9448545D02*
X9499329D01*
X9524721Y9220175D01*
Y9270959D01*
X9499329Y9296351D01*
X9448545D01*
X9423154Y9270959D01*
Y9220175D01*
X9448545Y9194783D01*
X9575504Y9296351D02*
Y9194783D01*
Y9245567D01*
X9600896Y9270959D01*
X9626288Y9296351D01*
X9651680D01*
X9753247Y9321742D02*
Y9296351D01*
X9727855D01*
X9778639D01*
X9753247D01*
Y9220175D01*
X9778639Y9194783D01*
X10007165Y9347134D02*
Y9194783D01*
Y9270959D01*
X10032557Y9296351D01*
X10083340D01*
X10108732Y9270959D01*
Y9194783D01*
X10235691D02*
X10184907D01*
X10159515Y9220175D01*
Y9270959D01*
X10184907Y9296351D01*
X10235691D01*
X10261083Y9270959D01*
Y9245567D01*
X10159515D01*
X10311866Y9296351D02*
Y9194783D01*
Y9245567D01*
X10337258Y9270959D01*
X10362650Y9296351D01*
X10388041D01*
X10540392Y9194783D02*
X10489609D01*
X10464217Y9220175D01*
Y9270959D01*
X10489609Y9296351D01*
X10540392D01*
X10565784Y9270959D01*
Y9245567D01*
X10464217D01*
X11051687Y14846434D02*
X11153254D01*
X11102470D01*
Y14694083D01*
X11204038D02*
X11254821D01*
X11229429D01*
Y14795651D01*
X11204038D01*
X11330996Y14694083D02*
X11381780D01*
X11356388D01*
Y14846434D01*
X11330996D01*
X11483347Y14821042D02*
Y14795651D01*
X11457955D01*
X11508739D01*
X11483347D01*
Y14719475D01*
X11508739Y14694083D01*
X7582113Y11905976D02*
X7510294Y11977795D01*
X7456430Y11923930D01*
X7492340Y11888021D01*
X7456430Y11923930D01*
X7402566Y11870066D01*
X7528249Y11744383D02*
X7564158Y11708474D01*
X7600068D01*
X7635977Y11744383D01*
Y11780293D01*
X7600068Y11816202D01*
X7564158D01*
X7528249Y11780293D01*
Y11744383D01*
X7689841Y11726429D02*
X7618023Y11654610D01*
X7653932Y11690519D01*
X7689841D01*
X7725751D01*
X7743706Y11672565D01*
X7725751Y11546882D02*
X7779615Y11493018D01*
X7815524D01*
Y11528927D01*
X7779615Y11564836D01*
Y11600746D01*
X7815524D01*
X7869389Y11546882D01*
X7797570Y11403244D02*
X7905298Y11510972D01*
X7959162Y11457108D01*
Y11421199D01*
X7923253Y11385289D01*
X7887343D01*
X7833479Y11439153D01*
X8030981Y11385289D02*
X8066890Y11349380D01*
Y11313470D01*
X8013026Y11259606D01*
X7959162Y11313470D01*
Y11349380D01*
X7995071Y11349380D01*
X8048935Y11295516D01*
X8102800Y11169833D02*
X8066890Y11205742D01*
Y11241652D01*
X8102800Y11277561D01*
X8138709D01*
X8174618Y11241652D01*
Y11205742D01*
X8156664Y11187788D01*
X8084845Y11259606D01*
X8156664Y11115969D02*
X8228483Y11187788D01*
X8282347Y11133924D01*
Y11098014D01*
X8228483Y11044150D01*
X8443939D02*
X8336211Y10936422D01*
X8282347Y10990286D01*
Y11026195D01*
X8318256Y11062105D01*
X8354166D01*
X8408030Y11008241D01*
X8479848Y10972331D02*
X8461894Y10954376D01*
X8443939Y10972331D01*
X8479848Y10936422D01*
X8461894Y10954376D01*
X8408030Y10900512D01*
X8408029Y10864603D01*
X8641441Y10631192D02*
Y10667101D01*
X8605531D01*
X8587577Y10685056D01*
Y10720965D01*
X8605531Y10738920D01*
X8641441D01*
Y10774830D01*
X8659395Y10792784D01*
X8695305D01*
X8713259Y10774830D01*
Y10738920D01*
X8695305Y10720965D01*
X8659395D01*
Y10685056D01*
X8641441Y10667101D01*
X8695305Y10685056D02*
X8659395D01*
X8641441Y10738920D02*
X8659395Y10720965D01*
X8785078Y10487554D02*
X8856897Y10559373D01*
X8928716D01*
X8928716Y10487554D01*
X8856897Y10415735D01*
X8910761Y10469599D01*
X8838942Y10541418D01*
X8892806Y10379826D02*
X8964625Y10451645D01*
X9018489Y10397781D01*
Y10361871D01*
X8964625Y10308007D01*
X9108263Y10343916D02*
X9090308Y10325962D01*
X9072354Y10343917D01*
X9108263Y10308007D01*
X9090308Y10325962D01*
X9036444Y10272098D01*
Y10236188D01*
X9180082D02*
X9215991Y10200279D01*
Y10164370D01*
X9162127Y10110505D01*
X9108263Y10164370D01*
Y10200279D01*
X9144172Y10200279D01*
X9198036Y10146415D01*
X9251900Y10020732D02*
X9215991Y10056641D01*
Y10092551D01*
X9251900Y10128460D01*
X9287810D01*
X9323719Y10092551D01*
Y10056641D01*
X9305765Y10038687D01*
X9233946Y10110505D01*
X9305765Y9966868D02*
X9377583Y10038687D01*
X9431448Y9984823D01*
Y9948913D01*
X9377583Y9895049D01*
X9593040D02*
X9485312Y9787321D01*
X9431448Y9841185D01*
Y9877094D01*
X9467357Y9913004D01*
X9503266D01*
X9557131Y9859140D01*
X9628950Y9823230D02*
X9610995Y9805276D01*
X9593040Y9823230D01*
X9628950Y9787321D01*
X9610995Y9805276D01*
X9557131Y9751411D01*
X9557130Y9715502D01*
X7680931Y12130471D02*
X7752750Y12058652D01*
X7716841Y12094561D01*
X7609112Y11986833D01*
X7680931Y11915014D02*
X7752750Y11986833D01*
X7824569D01*
X7824569Y11915014D01*
X7752750Y11843195D01*
X7806614Y11897059D01*
X7734795Y11968878D01*
X7788660Y11807286D02*
X7896388Y11915014D01*
X7950252Y11861150D01*
Y11825241D01*
X7914343Y11789331D01*
X7878433D01*
X7824569Y11843195D01*
X7860478Y11807286D02*
Y11735467D01*
X7896388Y11699558D02*
X8004116Y11807286D01*
X8057980Y11753422D01*
Y11717512D01*
X8022071Y11681603D01*
X7986161D01*
X7932297Y11735467D01*
X8111844Y11484101D02*
X8219572Y11591829D01*
Y11520011D01*
X8291391Y11520010D01*
X8183663Y11412282D01*
X8237527Y11358418D02*
X8273437Y11322509D01*
X8309346D01*
X8345255Y11358418D01*
Y11394328D01*
X8309346Y11430237D01*
X8273437D01*
X8237527Y11394328D01*
Y11358418D01*
X8435029Y11340463D02*
X8417074Y11322509D01*
X8399120Y11340463D01*
X8435029Y11304554D01*
X8417074Y11322509D01*
X8363210Y11268645D01*
Y11232735D01*
X8435029Y11160916D02*
X8470938Y11125007D01*
X8506848D01*
X8542757Y11160916D01*
Y11196826D01*
X8506848Y11232735D01*
X8470938D01*
X8435029Y11196826D01*
Y11160916D01*
X8596621Y11142962D02*
X8524802Y11071143D01*
X8560712Y11107052D01*
X8596621D01*
X8632531Y11107052D01*
X8650485Y11089098D01*
X8901851Y10873641D02*
Y10909551D01*
X8865942Y10945460D01*
X8830032D01*
X8758214Y10873641D01*
Y10837732D01*
X8794123Y10801822D01*
X8830032D01*
X8865942Y10730003D02*
X8901851Y10694094D01*
X8937761D01*
X8973670Y10730003D01*
Y10765913D01*
X8937761Y10801822D01*
X8901851D01*
X8865942Y10765913D01*
Y10730003D01*
X8955715Y10640230D02*
X9027534Y10712049D01*
X9081398Y10658185D01*
Y10622275D01*
X9027534Y10568411D01*
X9171172Y10604320D02*
X9153217Y10586366D01*
X9135262Y10604321D01*
X9171172Y10568411D01*
X9153217Y10586366D01*
X9099353Y10532502D01*
X9099353Y10496592D01*
X9225036Y10514547D02*
X9153217Y10442728D01*
X9189126Y10478638D01*
X9225036D01*
X9260945Y10478638D01*
X9278900Y10460683D01*
Y10317045D02*
X9314809Y10281136D01*
X9350719D01*
X9386628Y10317045D01*
Y10352955D01*
X9350719Y10388864D01*
X9314809D01*
X9278900Y10352955D01*
Y10317045D01*
X9368673Y10227272D02*
X9404583Y10191363D01*
X9386628Y10209317D01*
X9494356Y10317045D01*
X9476402Y10335000D01*
X9637994Y9957951D02*
X9566175Y10029770D01*
X9709813D01*
X9727767Y10047725D01*
Y10083634D01*
X9691858Y10119544D01*
X9655949D01*
X9673903Y9922042D02*
X9691858Y9939997D01*
X9709813Y9922042D01*
X9691858Y9904087D01*
X9673903Y9922042D01*
X9853450D02*
X9889360D01*
X9925269Y9886133D01*
Y9850223D01*
X9853450Y9778404D01*
X9817541D01*
X9781632Y9814314D01*
Y9850223D01*
X9853450Y9922042D01*
X6807200Y7569151D02*
Y7416800D01*
X6908767D01*
X6959551D02*
X7010334D01*
X6984943D01*
Y7518367D01*
X6959551D01*
X7086510Y7416800D02*
X7137293D01*
X7111901D01*
Y7569151D01*
X7086510D01*
X7365819D02*
Y7416800D01*
Y7467583D01*
X7467386Y7569151D01*
X7391211Y7492975D01*
X7467386Y7416800D01*
X7543562D02*
X7594345D01*
X7619737Y7442192D01*
Y7492975D01*
X7594345Y7518367D01*
X7543562D01*
X7518170Y7492975D01*
Y7442192D01*
X7543562Y7416800D01*
X7772088Y7518367D02*
X7695912D01*
X7670521Y7492975D01*
Y7442192D01*
X7695912Y7416800D01*
X7772088D01*
X7822871Y7569151D02*
Y7416800D01*
Y7492975D01*
X7848263Y7518367D01*
X7899047D01*
X7924439Y7492975D01*
Y7416800D01*
X7150067Y4711659D02*
X7124675Y4737051D01*
X7073892D01*
X7048500Y4711659D01*
Y4686267D01*
X7073892Y4660875D01*
X7124675D01*
X7150067Y4635483D01*
Y4610092D01*
X7124675Y4584700D01*
X7073892D01*
X7048500Y4610092D01*
X7200851Y4737051D02*
Y4584700D01*
X7277026D01*
X7302418Y4610092D01*
Y4711659D01*
X7277026Y4737051D01*
X7200851D01*
X7353201Y4584700D02*
Y4737051D01*
X7429377D01*
X7454769Y4711659D01*
Y4660875D01*
X7429377Y4635483D01*
X7353201D01*
X7403985D02*
X7454769Y4584700D01*
X11823700Y14858951D02*
Y14706599D01*
X11899875D01*
X11925267Y14731992D01*
Y14757384D01*
X11899875Y14782774D01*
X11823700D01*
X11899875D01*
X11925267Y14808167D01*
Y14833559D01*
X11899875Y14858951D01*
X11823700D01*
X11976051Y14808167D02*
Y14731992D01*
X12001443Y14706599D01*
X12077618D01*
Y14808167D01*
X12153793Y14833559D02*
Y14808167D01*
X12128401D01*
X12179185D01*
X12153793D01*
Y14731992D01*
X12179185Y14706599D01*
X12280752Y14833559D02*
Y14808167D01*
X12255360D01*
X12306144D01*
X12280752D01*
Y14731992D01*
X12306144Y14706599D01*
X12407711D02*
X12458495D01*
X12483886Y14731992D01*
Y14782774D01*
X12458495Y14808167D01*
X12407711D01*
X12382319Y14782774D01*
Y14731992D01*
X12407711Y14706599D01*
X12534670D02*
Y14808167D01*
X12610845D01*
X12636237Y14782774D01*
Y14706599D01*
X12687021D02*
X12763196D01*
X12788588Y14731992D01*
X12763196Y14757384D01*
X12712412D01*
X12687021Y14782774D01*
X12712412Y14808167D01*
X12788588D01*
X7150100Y14592300D02*
Y14693867D01*
X7200883Y14744650D01*
X7251667Y14693867D01*
Y14592300D01*
Y14668475D01*
X7150100D01*
X7302451Y14693867D02*
X7404018D01*
X7302451Y14592300D01*
X7404018D01*
X7454801D02*
X7505585D01*
X7480193D01*
Y14693867D01*
X7454801D01*
X7581760Y14592300D02*
Y14693867D01*
X7607152D01*
X7632544Y14668475D01*
Y14592300D01*
Y14668475D01*
X7657936Y14693867D01*
X7683328Y14668475D01*
Y14592300D01*
X7734111Y14693867D02*
Y14617693D01*
X7759503Y14592300D01*
X7835678D01*
Y14693867D01*
X7911854Y14719260D02*
Y14693867D01*
X7886462D01*
X7937245D01*
X7911854D01*
Y14617693D01*
X7937245Y14592300D01*
X6908800Y2882900D02*
X6959583D01*
X6934192D01*
Y3035251D01*
X6908800Y3009859D01*
X7137326Y2882900D02*
X7035759D01*
X7137326Y2984467D01*
Y3009859D01*
X7111934Y3035251D01*
X7061151D01*
X7035759Y3009859D01*
X7188110Y3035251D02*
Y2933683D01*
X7238893Y2882900D01*
X7289677Y2933683D01*
Y3035251D01*
X7492811D02*
Y2933683D01*
X7543595Y2882900D01*
X7594378Y2933683D01*
Y3035251D01*
X7645162Y2882900D02*
X7695945D01*
X7670554D01*
Y2984467D01*
X7645162D01*
X7772121Y2882900D02*
Y2984467D01*
X7848296D01*
X7873688Y2959075D01*
Y2882900D01*
D16*
X8521700Y8686800D02*
D03*
X10807700D02*
D03*
X8521700Y8432800D02*
D03*
Y8178800D02*
D03*
X10807700D02*
D03*
X8521700Y7924800D02*
D03*
X10807700D02*
D03*
X8521700Y7670800D02*
D03*
Y7416800D02*
D03*
Y7162800D02*
D03*
Y6908800D02*
D03*
Y6654800D02*
D03*
Y6400800D02*
D03*
Y6146800D02*
D03*
Y5892800D02*
D03*
Y5638800D02*
D03*
Y5384800D02*
D03*
X10807700D02*
D03*
X8521700Y5130800D02*
D03*
X10807700D02*
D03*
X8521700Y4876800D02*
D03*
X10807700D02*
D03*
X8521700Y4622800D02*
D03*
X10807700D02*
D03*
X8521700Y4368800D02*
D03*
X10807700D02*
D03*
X8521700Y4114800D02*
D03*
X10807700D02*
D03*
X8521700Y3860800D02*
D03*
X10807700D02*
D03*
X8521700Y3606800D02*
D03*
X10807700D02*
D03*
X8521700Y3352800D02*
D03*
X10807700Y8432800D02*
D03*
Y6908800D02*
D03*
Y6146800D02*
D03*
Y6654800D02*
D03*
Y7162800D02*
D03*
Y7670800D02*
D03*
Y6400800D02*
D03*
Y7416800D02*
D03*
Y5638800D02*
D03*
Y5892800D02*
D03*
D17*
Y3352800D02*
D03*
D18*
X11176000Y3860800D02*
D03*
Y4622800D02*
D03*
Y5130800D02*
D03*
Y3606800D02*
D03*
Y4114800D02*
D03*
Y4876800D02*
D03*
X8140700Y7670800D02*
D03*
X6946900Y10464800D02*
D03*
X11176000Y4368800D02*
D03*
X8140700Y4622800D02*
D03*
Y7416800D02*
D03*
X6946900Y10210800D02*
D03*
Y8026400D02*
D03*
Y9296400D02*
D03*
Y9042400D02*
D03*
Y8280400D02*
D03*
Y8534400D02*
D03*
Y8788400D02*
D03*
X6921500Y7175500D02*
D03*
Y6921500D02*
D03*
Y6667500D02*
D03*
Y6413500D02*
D03*
X11176000Y7670800D02*
D03*
Y7924800D02*
D03*
X10934700Y13614400D02*
D03*
X6946900Y10718800D02*
D03*
X11176000Y8686800D02*
D03*
X10934700Y13360400D02*
D03*
X8140700Y3352800D02*
D03*
X6946900Y10972800D02*
D03*
Y11226800D02*
D03*
X11176000Y8178800D02*
D03*
Y8432800D02*
D03*
X8140700Y5384800D02*
D03*
Y5130800D02*
D03*
Y4876800D02*
D03*
Y4368800D02*
D03*
Y4114800D02*
D03*
Y3860800D02*
D03*
Y3606800D02*
D03*
X10934700Y13868401D02*
D03*
Y14376401D02*
D03*
Y14122400D02*
D03*
X8140700Y5638800D02*
D03*
Y5892800D02*
D03*
Y6146800D02*
D03*
Y6400800D02*
D03*
Y6654800D02*
D03*
Y6908800D02*
D03*
Y7162800D02*
D03*
Y8686800D02*
D03*
Y8178800D02*
D03*
Y7924800D02*
D03*
Y8432800D02*
D03*
X11176000Y7416800D02*
D03*
X6946900Y9956800D02*
D03*
X11176000Y7162800D02*
D03*
Y6908800D02*
D03*
Y6146800D02*
D03*
Y3352800D02*
D03*
Y6400800D02*
D03*
Y6654800D02*
D03*
Y5638800D02*
D03*
Y5892800D02*
D03*
Y5384800D02*
D03*
D19*
X13131799Y9245600D02*
D03*
D20*
Y9995600D02*
D03*
D21*
X12357100Y12522200D02*
D03*
X12865100Y12395200D02*
D03*
X12357100Y12268200D02*
D03*
Y12014200D02*
D03*
X12865100Y11633200D02*
D03*
Y11379200D02*
D03*
X12357100Y11252200D02*
D03*
X12865100Y11125200D02*
D03*
X12357100Y10998200D02*
D03*
Y11760200D02*
D03*
X12865100Y12649200D02*
D03*
Y11887200D02*
D03*
X12357100Y11506200D02*
D03*
X12865100Y12141200D02*
D03*
X13817599Y5588000D02*
D03*
X12611100Y3302000D02*
D03*
X13817599Y5334000D02*
D03*
Y5080000D02*
D03*
Y4572000D02*
D03*
Y4318000D02*
D03*
X13055600Y4064000D02*
D03*
X12611100Y3048000D02*
D03*
Y2540000D02*
D03*
Y2032000D02*
D03*
X11849100Y1778000D02*
D03*
Y2286000D02*
D03*
Y2794000D02*
D03*
X13055600Y5080000D02*
D03*
X12611100Y1778000D02*
D03*
Y2286000D02*
D03*
Y2794000D02*
D03*
X11849100Y2032000D02*
D03*
Y2540000D02*
D03*
Y3048000D02*
D03*
X13817599Y4064000D02*
D03*
Y4826000D02*
D03*
X13055600Y4318000D02*
D03*
Y4572000D02*
D03*
Y4826000D02*
D03*
Y5334000D02*
D03*
D22*
X12865100Y10871200D02*
D03*
X11849100Y3302000D02*
D03*
X13055600Y5588000D02*
D03*
D23*
X13479500Y12217400D02*
D03*
X11155400Y11709400D02*
D03*
Y12509500D02*
D03*
X9860000Y2159000D02*
D03*
X13517599Y11188700D02*
D03*
X9842500Y1333500D02*
D03*
X11437900Y1536700D02*
D03*
X11387100Y2374900D02*
D03*
D24*
X13761400Y7886700D02*
D03*
X12585700Y7874000D02*
D03*
X12057700D02*
D03*
X12321700D02*
D03*
X13233400Y7886700D02*
D03*
X13497400D02*
D03*
D25*
X11874500Y3799000D02*
D03*
X11849100Y5069000D02*
D03*
X13881100Y6415200D02*
D03*
X11836400Y6440600D02*
D03*
X12661900Y5969000D02*
D03*
Y5069000D02*
D03*
X12649200Y3810000D02*
D03*
Y4710000D02*
D03*
X11874500Y4699000D02*
D03*
X11849100Y5969000D02*
D03*
X12293600Y5054600D02*
D03*
Y5954600D02*
D03*
Y3810000D02*
D03*
Y4710000D02*
D03*
X13881100Y7315200D02*
D03*
X11836400Y7340600D02*
D03*
D26*
X9626600Y12649200D02*
D03*
X9601200Y13893800D02*
D03*
X8902700Y12560300D02*
D03*
X8864600Y14427200D02*
D03*
X10121900Y13182600D02*
D03*
X10096500Y14439900D02*
D03*
X8394700Y13258800D02*
D03*
X8369300Y13893800D02*
D03*
D27*
X7188200Y2425700D02*
D03*
X7200900Y4089400D02*
D03*
X7366000Y14224001D02*
D03*
D28*
X9283700Y2095500D02*
D03*
Y1841500D02*
D03*
D29*
X11557000Y9423400D02*
D03*
X13068300Y14338300D02*
D03*
X12166600D02*
D03*
X11557000Y9169400D02*
D03*
X12814301Y14338300D02*
D03*
X11912600D02*
D03*
D30*
X13182600Y1743800D02*
D03*
X13436600Y2243900D02*
D03*
D31*
X9283700Y1587500D02*
D03*
D32*
X13157201Y8470900D02*
D03*
X12522200Y8458200D02*
D03*
X12293600D02*
D03*
X13385800Y8470900D02*
D03*
D33*
X12769500Y6781900D02*
D03*
X13550200Y6781800D02*
D03*
X13290199D02*
D03*
X12509500Y6781900D02*
D03*
D34*
X13779500Y12217400D02*
D03*
X13817599Y11188700D02*
D03*
X10142500Y1333500D02*
D03*
X10160000Y2159000D02*
D03*
X11455400Y11709400D02*
D03*
X11087100Y2374900D02*
D03*
X11137900Y1536700D02*
D03*
X11455400Y12509500D02*
D03*
D35*
X9613900Y13182600D02*
D03*
X9588500Y14439900D02*
D03*
X8902700Y13258800D02*
D03*
X8877300Y13893800D02*
D03*
X10109200D02*
D03*
X10134600Y12649200D02*
D03*
X8356600Y14427200D02*
D03*
X8394700Y12560300D02*
D03*
D36*
X13182600Y1443800D02*
D03*
X13436600Y2543900D02*
D03*
D37*
X7188200Y1917700D02*
D03*
X7200900Y3581400D02*
D03*
X7366000Y13716000D02*
D03*
D38*
X13030200Y6781800D02*
D03*
X12249500Y6781900D02*
D03*
D39*
X12065000Y8458200D02*
D03*
X13614400Y8470900D02*
D03*
D40*
X7378700Y12420600D02*
D03*
X13500101Y3314700D02*
D03*
X12865100Y13385800D02*
D03*
X8432800Y1727200D02*
D03*
D41*
X11633200Y6223000D02*
D03*
X11531600Y6794500D02*
D03*
X7315200Y9258300D02*
D03*
X12268200Y10566400D02*
D03*
X12865100Y2400300D02*
D03*
X8737600Y2133600D02*
D03*
X11341100Y13652499D02*
D03*
X13119099Y12573000D02*
D03*
X12382500Y13258800D02*
D03*
X14084300Y10795000D02*
D03*
X11734800Y11239500D02*
D03*
X11620500Y10896600D02*
D03*
X13144501Y10934700D02*
D03*
X11442700Y8902700D02*
D03*
X12848248Y3596702D02*
D03*
X12839700Y8458200D02*
D03*
X13538200Y7226300D02*
D03*
X12700000Y6451600D02*
D03*
X10629900Y1333500D02*
D03*
X11036300Y11252200D02*
D03*
X10159718Y11485534D02*
D03*
X7480300Y10579100D02*
D03*
X13177679Y6088221D02*
D03*
X11150600Y9626600D02*
D03*
X13144501Y11658600D02*
D03*
X12636500Y7366000D02*
D03*
X12141200Y7239000D02*
D03*
X13150912Y7575796D02*
D03*
X13474699Y6096000D02*
D03*
X11518900Y4648200D02*
D03*
X11557000Y3035300D02*
D03*
X10629900Y13373100D02*
D03*
X12115800Y12966701D02*
D03*
X11341100Y14224001D02*
D03*
X14147800Y8329600D02*
D03*
X13437231Y7505068D02*
D03*
X12026900Y10325100D02*
D03*
Y9855200D02*
D03*
%TF.MD5,7b24a89d59203cbcaf81e278add01e23*%
M02*
